0
SECTION
2
HEADER
9
$INSUNITS
70
4
9
$ACADVER
1
AC1014
9
$HANDSEED
5
FFFF
0
ENDSEC
0
SECTION
2
TABLES
0
TABLE
2
VPORT
5
8
100
AcDbSymbolTable
0
ENDTAB
0
TABLE
2
LTYPE
5
5
100
AcDbSymbolTable
0
LTYPE
5
14
100
AcDbSymbolTableRecord
100
AcDbLinetypeTableRecord
2
BYBLOCK
70
0
0
LTYPE
5
15
100
AcDbSymbolTableRecord
100
AcDbLinetypeTableRecord
2
BYLAYER
70
0
0
ENDTAB
0
TABLE
2
LAYER
5
2
100
AcDbSymbolTable
70
2
0
LAYER
5
50
100
AcDbSymbolTableRecord
100
AcDbLayerTableRecord
2
0
70
0
6
CONTINUOUS
0
ENDTAB
0
TABLE
2
STYLE
5
3
100
AcDbSymbolTable
70
1
0
STYLE
5
11
100
AcDbSymbolTableRecord
100
AcDbTextStyleTableRecord
2
STANDARD
70
0
0
ENDTAB
0
TABLE
2
VIEW
5
6
100
AcDbSymbolTable
70
0
0
ENDTAB
0
TABLE
2
UCS
5
7
100
AcDbSymbolTable
70
0
0
ENDTAB
0
TABLE
2
APPID
5
9
100
AcDbSymbolTable
70
2
0
APPID
5
12
100
AcDbSymbolTableRecord
100
AcDbRegAppTableRecord
2
ACAD
70
0
0
ENDTAB
0
TABLE
2
DIMSTYLE
5
A
100
AcDbSymbolTable
70
1
0
ENDTAB
0
TABLE
2
BLOCK_RECORD
5
1
100
AcDbSymbolTable
70
1
0
BLOCK_RECORD
5
1F
100
AcDbSymbolTableRecord
100
AcDbBlockTableRecord
2
*MODEL_SPACE
0
BLOCK_RECORD
5
1B
100
AcDbSymbolTableRecord
100
AcDbBlockTableRecord
2
*PAPER_SPACE
0
ENDTAB
0
ENDSEC
0
SECTION
2
BLOCKS
0
BLOCK
5
20
100
AcDbEntity
100
AcDbBlockBegin
2
*MODEL_SPACE
0
ENDBLK
5
21
100
AcDbEntity
100
AcDbBlockEnd
0
BLOCK
5
1C
100
AcDbEntity
100
AcDbBlockBegin
2
*PAPER_SPACE
0
ENDBLK
5
1D
100
AcDbEntity
100
AcDbBlockEnd
0
ENDSEC
0
SECTION
2
ENTITIES
0
LWPOLYLINE
5
100
100
AcDbEntity
8
0
100
AcDbPolyline
90
12
70
1
43
0.0
10
353
20
-114
42
-0.41421356237309681
10
350
20
-111.00000000000001
10
350
20
-89.000000000000028
42
-0.41421356237310336
10
355
20
-84.000000000000028
10
375
20
-84.000000000000028
42
-0.41421356237310336
10
380
20
-89.000000000000028
10
380
20
-111.00000000000001
42
-0.41421356237309681
10
377
20
-114.00000000000003
10
375
20
-114.00000000000003
10
375
20
-127.0000000000216
10
354.99999999981139
20
-127.00000000003845
10
354.99999999999255
20
-114.00000000003848
0
SPLINE
5
101
100
AcDbEntity
8
0
100
AcDbSpline
70
0
71
2
72
6
73
3
74
0
42
0.000000001
43
0.0000000001
44
0.0000000001
40
0
40
0
40
0
40
1
40
1
40
1
10
357.2330101579447
20
-90.357839107504702
30
0
10
356.59500740468695
20
-90.357839107504461
30
0
10
356.28987573087409
20
-89.914011001577848
30
0
0
SPLINE
5
102
100
AcDbEntity
8
0
100
AcDbSpline
70
0
71
2
72
6
73
3
74
0
42
0.000000001
43
0.0000000001
44
0.0000000001
40
0
40
0
40
0
40
1
40
1
40
1
10
356.28987573087409
20
-89.914011001577848
30
0
10
355.98474405706128
20
-89.470182895651206
30
0
10
355.98474405706133
20
-88.832179546347007
30
0
0
SPLINE
5
103
100
AcDbEntity
8
0
100
AcDbSpline
70
0
71
2
72
6
73
3
74
0
42
0.000000001
43
0.0000000001
44
0.0000000001
40
0
40
0
40
0
40
1
40
1
40
1
10
355.98474405706133
20
-88.832179546347007
30
0
10
355.98474405706133
20
-88.194176197042808
30
0
10
356.28987573087431
20
-87.750348091116422
30
0
0
SPLINE
5
104
100
AcDbEntity
8
0
100
AcDbSpline
70
0
71
2
72
6
73
3
74
0
42
0.000000001
43
0.0000000001
44
0.0000000001
40
0
40
0
40
0
40
1
40
1
40
1
10
356.28987573087431
20
-87.750348091116422
30
0
10
356.59500740468724
20
-87.306519985190008
30
0
10
357.23301015794499
20
-87.306519985190249
30
0
0
LINE
5
105
100
AcDbEntity
8
0
100
AcDbLine
10
357.23301015794505
20
-87.306519985190249
30
0
11
371.32454894483311
21
-87.306519985195692
31
0
0
SPLINE
5
106
100
AcDbEntity
8
0
100
AcDbSpline
70
0
71
2
72
6
73
3
74
0
42
0.000000001
43
0.0000000001
44
0.0000000001
40
0
40
0
40
0
40
1
40
1
40
1
10
371.32454894483311
20
-87.306519985195692
30
0
10
372.65603087842686
20
-87.306519985196203
30
0
10
373.16920779645659
20
-87.80582809447985
30
0
0
SPLINE
5
107
100
AcDbEntity
8
0
100
AcDbSpline
70
0
71
2
72
6
73
3
74
0
42
0.000000001
43
0.0000000001
44
0.0000000001
40
0
40
0
40
0
40
1
40
1
40
1
10
373.16920779645659
20
-87.80582809447985
30
0
10
373.68238471448626
20
-88.305133819577705
30
0
10
373.6823847144862
20
-89.608878135678779
30
0
0
LINE
5
108
100
AcDbEntity
8
0
100
AcDbLine
10
373.6823847144862
20
-89.608878135678793
30
0
11
373.68238471448598
21
-91.578365802762519
31
0
0
SPLINE
5
109
100
AcDbEntity
8
0
100
AcDbSpline
70
0
71
2
72
6
73
3
74
0
42
0.000000001
43
0.0000000001
44
0.0000000001
40
0
40
0
40
0
40
1
40
1
40
1
10
373.68238471448598
20
-91.578365802762519
30
0
10
373.68238471448586
20
-92.604717254636299
30
0
10
373.57142947614352
20
-93.506243467328517
30
0
0
SPLINE
5
110
100
AcDbEntity
8
0
100
AcDbSpline
70
0
71
2
72
6
73
3
74
0
42
0.000000001
43
0.0000000001
44
0.0000000001
40
0
40
0
40
0
40
1
40
1
40
1
10
373.57142947614352
20
-93.506243467328517
30
0
10
373.46046946942954
20
-94.407768487927825
30
0
10
373.23855899274491
20
-95.128989458081548
30
0
0
SPLINE
5
111
100
AcDbEntity
8
0
100
AcDbSpline
70
0
71
2
72
6
73
3
74
0
42
0.000000001
43
0.0000000001
44
0.0000000001
40
0
40
0
40
0
40
1
40
1
40
1
10
373.23855899274491
20
-95.128989458081548
30
0
10
373.0166437476887
20
-95.850209236142391
30
0
10
372.39251159131663
20
-96.11373209953021
30
0
0
SPLINE
5
112
100
AcDbEntity
8
0
100
AcDbSpline
70
0
71
2
72
6
73
3
74
0
42
0.000000001
43
0.0000000001
44
0.0000000001
40
0
40
0
40
0
40
1
40
1
40
1
10
372.39251159131663
20
-96.11373209953021
30
0
10
371.76837705075866
20
-96.377254962918045
30
0
10
371.04715846479075
20
-96.210819721218542
30
0
0
SPLINE
5
113
100
AcDbEntity
8
0
100
AcDbSpline
70
0
71
2
72
6
73
3
74
0
42
0.000000001
43
0.0000000001
44
0.0000000001
40
0
40
0
40
0
40
1
40
1
40
1
10
371.04715846479075
20
-96.210819721218542
30
0
10
370.38141511380809
20
-96.072123289104624
30
0
10
370.00693343579906
20
-95.614426374431631
30
0
0
SPLINE
5
114
100
AcDbEntity
8
0
100
AcDbSpline
70
0
71
2
72
6
73
3
74
0
42
0.000000001
43
0.0000000001
44
0.0000000001
40
0
40
0
40
0
40
1
40
1
40
1
10
370.00693343579906
20
-95.614426374431631
30
0
10
369.63245414197587
20
-95.156728267665741
30
0
10
369.79888938367515
20
-94.407768487926432
30
0
0
SPLINE
5
115
100
AcDbEntity
8
0
100
AcDbSpline
70
0
71
2
72
6
73
3
74
0
42
0.000000001
43
0.0000000001
44
0.0000000001
40
0
40
0
40
0
40
1
40
1
40
1
10
369.79888938367515
20
-94.407768487926432
30
0
10
369.96532462537448
20
-93.686548709865576
30
0
10
370.04854224622414
20
-92.993066549297367
30
0
0
SPLINE
5
116
100
AcDbEntity
8
0
100
AcDbSpline
70
0
71
2
72
6
73
3
74
0
42
0.000000001
43
0.0000000001
44
0.0000000001
40
0
40
0
40
0
40
1
40
1
40
1
10
370.04854224622414
20
-92.993066549297367
30
0
10
370.13175986707381
20
-92.299585580822054
30
0
10
370.13175986707387
20
-91.495148181911532
30
0
0
LINE
5
117
100
AcDbEntity
8
0
100
AcDbLine
10
370.13175986707387
20
-91.495148181911532
30
0
11
370.13175986707392
21
-90.995840072628084
31
0
0
SPLINE
5
118
100
AcDbEntity
8
0
100
AcDbSpline
70
0
71
2
72
6
73
3
74
0
42
0.000000001
43
0.0000000001
44
0.0000000001
40
0
40
0
40
0
40
1
40
1
40
1
10
370.13175986707392
20
-90.995840072628084
30
0
10
370.13175986707392
20
-90.357839107509676
30
0
10
369.49375890195552
20
-90.357839107509434
30
0
0
LINE
5
119
100
AcDbEntity
8
0
100
AcDbLine
10
369.49375890195552
20
-90.357839107509434
30
0
11
357.2330101579447
21
-90.357839107504702
31
0
0
SPLINE
5
120
100
AcDbEntity
8
0
100
AcDbSpline
70
0
71
2
72
6
73
3
74
0
42
0.000000001
43
0.0000000001
44
0.0000000001
40
0
40
0
40
0
40
1
40
1
40
1
10
354.51456390321346
20
-100.51040315627075
30
0
10
353.87656114995571
20
-100.5104031562705
30
0
10
353.57142947614284
20
-100.06657624243678
30
0
0
SPLINE
5
121
100
AcDbEntity
8
0
100
AcDbSpline
70
0
71
2
72
6
73
3
74
0
42
0.000000001
43
0.0000000001
44
0.0000000001
40
0
40
0
40
0
40
1
40
1
40
1
10
353.57142947614284
20
-100.06657624243678
30
0
10
353.26629750430686
20
-99.62274813651014
30
0
10
353.26629750430692
20
-99.012484788884407
30
0
0
SPLINE
5
122
100
AcDbEntity
8
0
100
AcDbSpline
70
0
71
2
72
6
73
3
74
0
42
0.000000001
43
0.0000000001
44
0.0000000001
40
0
40
0
40
0
40
1
40
1
40
1
10
353.26629750430692
20
-99.012484788884407
30
0
10
353.26629750430698
20
-98.429960250844246
30
0
10
353.57142947614307
20
-97.98613214491786
30
0
0
SPLINE
5
123
100
AcDbEntity
8
0
100
AcDbSpline
70
0
71
2
72
6
73
3
74
0
42
0.000000001
43
0.0000000001
44
0.0000000001
40
0
40
0
40
0
40
1
40
1
40
1
10
353.57142947614307
20
-97.98613214491786
30
0
10
353.87656114995599
20
-97.542304038991446
30
0
10
354.51456390321374
20
-97.542304038991702
30
0
0
LINE
5
124
100
AcDbEntity
8
0
100
AcDbLine
10
354.5145639032138
20
-97.542304038991702
30
0
11
361.4493765681994
21
-97.542304038994359
31
0
0
LINE
5
125
100
AcDbEntity
8
0
100
AcDbLine
10
361.4493765681994
20
-97.542304038994359
30
0
11
361.44937656819968
21
-94.518726110451297
31
0
0
SPLINE
5
126
100
AcDbEntity
8
0
100
AcDbSpline
70
0
71
2
72
6
73
3
74
0
42
0.000000001
43
0.0000000001
44
0.0000000001
40
0
40
0
40
0
40
1
40
1
40
1
10
361.44937656819968
20
-94.518726110451297
30
0
10
361.4493765681998
20
-93.769766330711917
30
0
10
361.99029229581515
20
-93.409155845635198
30
0
0
SPLINE
5
127
100
AcDbEntity
8
0
100
AcDbSpline
70
0
71
2
72
6
73
3
74
0
42
0.000000001
43
0.0000000001
44
0.0000000001
40
0
40
0
40
0
40
1
40
1
40
1
10
361.99029229581515
20
-93.409155845635198
30
0
10
362.53120683133767
20
-93.048545360558506
30
0
10
363.22468779981301
20
-93.048545360558776
30
0
0
SPLINE
5
128
100
AcDbEntity
8
0
100
AcDbSpline
70
0
71
2
72
6
73
3
74
0
42
0.000000001
43
0.0000000001
44
0.0000000001
40
0
40
0
40
0
40
1
40
1
40
1
10
363.22468779981301
20
-93.048545360558776
30
0
10
363.91816996038125
20
-93.048545360559046
30
0
10
364.45908449590365
20
-93.409155845636164
30
0
0
SPLINE
5
129
100
AcDbEntity
8
0
100
AcDbSpline
70
0
71
2
72
6
73
3
74
0
42
0.000000001
43
0.0000000001
44
0.0000000001
40
0
40
0
40
0
40
1
40
1
40
1
10
364.45908449590365
20
-93.409155845636164
30
0
10
365.00000022351901
20
-93.769766330713281
30
0
10
365.0000002235189
20
-94.518726110452661
30
0
0
LINE
5
130
100
AcDbEntity
8
0
100
AcDbLine
10
365.0000002235189
20
-94.518726110452661
30
0
11
365.00000022351861
21
-97.542304038995752
31
0
0
LINE
5
131
100
AcDbEntity
8
0
100
AcDbLine
10
365.00000022351861
20
-97.542304038995752
30
0
11
375.48543475568414
21
-97.542304038999802
31
0
0
SPLINE
5
132
100
AcDbEntity
8
0
100
AcDbSpline
70
0
71
2
72
6
73
3
74
0
42
0.000000001
43
0.0000000001
44
0.0000000001
40
0
40
0
40
0
40
1
40
1
40
1
10
375.48543475568414
20
-97.542304038999788
30
0
10
376.12343810498834
20
-97.54230403900003
30
0
10
376.42857097089404
20
-97.986132144926671
30
0
0
SPLINE
5
133
100
AcDbEntity
8
0
100
AcDbSpline
70
0
71
2
72
6
73
3
74
0
42
0.000000001
43
0.0000000001
44
0.0000000001
40
0
40
0
40
0
40
1
40
1
40
1
10
376.42857097089404
20
-97.986132144926671
30
0
10
376.7337038367998
20
-98.429960250853284
30
0
10
376.73370383679975
20
-99.012484788893445
30
0
0
SPLINE
5
134
100
AcDbEntity
8
0
100
AcDbSpline
70
0
71
2
72
6
73
3
74
0
42
0.000000001
43
0.0000000001
44
0.0000000001
40
0
40
0
40
0
40
1
40
1
40
1
10
376.73370383679975
20
-99.012484788893445
30
0
10
376.73370383679969
20
-99.622748136519178
30
0
10
376.42857097089382
20
-100.06657624244559
30
0
0
SPLINE
5
135
100
AcDbEntity
8
0
100
AcDbSpline
70
0
71
2
72
6
73
3
74
0
42
0.000000001
43
0.0000000001
44
0.0000000001
40
0
40
0
40
0
40
1
40
1
40
1
10
376.42857097089382
20
-100.06657624244559
30
0
10
376.12343810498805
20
-100.51040315627908
30
0
10
375.48543475568385
20
-100.51040315627884
30
0
0
LINE
5
136
100
AcDbEntity
8
0
100
AcDbLine
10
375.48543475568385
20
-100.51040315627884
30
0
11
354.51456390321346
21
-100.51040315627075
31
0
0
SPLINE
5
137
100
AcDbEntity
8
0
100
AcDbSpline
70
0
71
2
72
6
73
3
74
0
42
0.000000001
43
0.0000000001
44
0.0000000001
40
0
40
0
40
0
40
1
40
1
40
1
10
373.73786471784115
20
-109.74757337569955
30
0
10
373.73786471784103
20
-111.05131769180062
30
0
10
373.22468779981125
20
-111.55062580108387
30
0
0
SPLINE
5
138
100
AcDbEntity
8
0
100
AcDbSpline
70
0
71
2
72
6
73
3
74
0
42
0.000000001
43
0.0000000001
44
0.0000000001
40
0
40
0
40
0
40
1
40
1
40
1
10
373.22468779981125
20
-111.55062580108387
30
0
10
372.71151088178135
20
-112.04993152618133
30
0
10
371.3800289481876
20
-112.04993152618081
30
0
0
LINE
5
139
100
AcDbEntity
8
0
100
AcDbLine
10
371.3800289481876
20
-112.04993152618081
30
0
11
358.61997269093968
21
-112.0499315261759
31
0
0
SPLINE
5
140
100
AcDbEntity
8
0
100
AcDbSpline
70
0
71
2
72
6
73
3
74
0
42
0.000000001
43
0.0000000001
44
0.0000000001
40
0
40
0
40
0
40
1
40
1
40
1
10
358.61997269093968
20
-112.0499315261759
30
0
10
357.28848837316013
20
-112.04993152617538
30
0
10
356.77531264722336
20
-111.55062580107753
30
0
0
SPLINE
5
141
100
AcDbEntity
8
0
100
AcDbSpline
70
0
71
2
72
6
73
3
74
0
42
0.000000001
43
0.0000000001
44
0.0000000001
40
0
40
0
40
0
40
1
40
1
40
1
10
356.77531264722336
20
-111.55062580107753
30
0
10
356.26213632524002
20
-111.05131769179388
30
0
10
356.26213632524014
20
-109.74757337569281
30
0
0
LINE
5
142
100
AcDbEntity
8
0
100
AcDbLine
10
356.26213632524014
20
-109.7475733756928
30
0
11
356.26213632524076
21
-103.42302465437933
31
0
0
SPLINE
5
143
100
AcDbEntity
8
0
100
AcDbSpline
70
0
71
2
72
6
73
3
74
0
42
0.000000001
43
0.0000000001
44
0.0000000001
40
0
40
0
40
0
40
1
40
1
40
1
10
356.26213632524076
20
-103.42302465437933
30
0
10
356.26213632524082
20
-102.70180368422552
30
0
10
356.80305145680973
20
-102.34119319914883
30
0
0
SPLINE
5
144
100
AcDbEntity
8
0
100
AcDbSpline
70
0
71
2
72
6
73
3
74
0
42
0.000000001
43
0.0000000001
44
0.0000000001
40
0
40
0
40
0
40
1
40
1
40
1
10
356.80305145680973
20
-102.34119319914883
30
0
10
357.3439671844252
20
-101.98058509825792
30
0
10
357.98196993768295
20
-101.98058509825816
30
0
0
SPLINE
5
145
100
AcDbEntity
8
0
100
AcDbSpline
70
0
71
2
72
6
73
3
74
0
42
0.000000001
43
0.0000000001
44
0.0000000001
40
0
40
0
40
0
40
1
40
1
40
1
10
357.98196993768295
20
-101.98058509825816
30
0
10
358.64771209657272
20
-101.98058509825843
30
0
10
359.18862842023441
20
-102.34119319914974
30
0
0
SPLINE
5
146
100
AcDbEntity
8
0
100
AcDbSpline
70
0
71
2
72
6
73
3
74
0
42
0.000000001
43
0.0000000001
44
0.0000000001
40
0
40
0
40
0
40
1
40
1
40
1
10
359.18862842023441
20
-102.34119319914974
30
0
10
359.72954295575687
20
-102.70180368422686
30
0
10
359.72954295575681
20
-103.42302465438067
30
0
0
LINE
5
147
100
AcDbEntity
8
0
100
AcDbLine
10
359.72954295575681
20
-103.42302465438067
30
0
11
359.7295429557567
21
-104.69902896880328
31
0
0
LINE
5
148
100
AcDbEntity
8
0
100
AcDbLine
10
359.7295429557567
20
-104.69902896880328
30
0
11
370.27045749127916
21
-104.69902896880734
31
0
0
LINE
5
149
100
AcDbEntity
8
0
100
AcDbLine
10
370.27045749127916
20
-104.69902896880734
30
0
11
370.27045749127927
21
-103.42302465438473
31
0
0
SPLINE
5
150
100
AcDbEntity
8
0
100
AcDbSpline
70
0
71
2
72
6
73
3
74
0
42
0.000000001
43
0.0000000001
44
0.0000000001
40
0
40
0
40
0
40
1
40
1
40
1
10
370.27045749127927
20
-103.42302465438473
30
0
10
370.27045749127933
20
-102.70180368423092
30
0
10
370.81137202680179
20
-102.34119319915422
30
0
0
SPLINE
5
151
100
AcDbEntity
8
0
100
AcDbSpline
70
0
71
2
72
6
73
3
74
0
42
0.000000001
43
0.0000000001
44
0.0000000001
40
0
40
0
40
0
40
1
40
1
40
1
10
370.81137202680179
20
-102.34119319915422
30
0
10
371.35228894651016
20
-101.98058509826332
30
0
10
371.99028991162857
20
-101.98058509826356
30
0
0
SPLINE
5
152
100
AcDbEntity
8
0
100
AcDbSpline
70
0
71
2
72
6
73
3
74
0
42
0.000000001
43
0.0000000001
44
0.0000000001
40
0
40
0
40
0
40
1
40
1
40
1
10
371.99028991162857
20
-101.98058509826356
30
0
10
372.65603087842544
20
-101.98058509826383
30
0
10
373.19695018231937
20
-102.34119319915514
30
0
0
SPLINE
5
153
100
AcDbEntity
8
0
100
AcDbSpline
70
0
71
2
72
6
73
3
74
0
42
0.000000001
43
0.0000000001
44
0.0000000001
40
0
40
0
40
0
40
1
40
1
40
1
10
373.19695018231937
20
-102.34119319915514
30
0
10
373.73786471784183
20
-102.70180368423226
30
0
10
373.73786471784177
20
-103.42302465438607
30
0
0
LINE
5
154
100
AcDbEntity
8
0
100
AcDbLine
10
373.73786471784177
20
-103.42302465438607
30
0
11
373.73786471784115
21
-109.74757337569955
31
0
0
SPLINE
5
155
100
AcDbEntity
8
0
100
AcDbSpline
70
0
71
2
72
6
73
3
74
0
42
0.000000001
43
0.0000000001
44
0.0000000001
40
0
40
0
40
0
40
1
40
1
40
1
10
369.85436938703066
20
-109.22052764892193
30
0
10
370.27045749127871
20
-109.22052764892209
30
0
10
370.27045749127876
20
-108.80443954467404
30
0
0
LINE
5
156
100
AcDbEntity
8
0
100
AcDbLine
10
370.27045749127876
20
-108.80443954467404
30
0
11
370.27045749127893
21
-107.4729552268945
31
0
0
LINE
5
157
100
AcDbEntity
8
0
100
AcDbLine
10
370.27045749127893
20
-107.4729552268945
30
0
11
359.72954295575641
21
-107.47295522689043
31
0
0
LINE
5
158
100
AcDbEntity
8
0
100
AcDbLine
10
359.72954295575641
20
-107.47295522689043
30
0
11
359.72954295575624
21
-108.80443954466998
31
0
0
SPLINE
5
159
100
AcDbEntity
8
0
100
AcDbSpline
70
0
71
2
72
6
73
3
74
0
42
0.000000001
43
0.0000000001
44
0.0000000001
40
0
40
0
40
0
40
1
40
1
40
1
10
359.72954295575624
20
-108.80443954466998
30
0
10
359.72954295575624
20
-109.22052764891802
30
0
10
360.14563106000429
20
-109.22052764891818
30
0
0
LINE
5
160
100
AcDbEntity
8
0
100
AcDbLine
10
360.14563106000429
20
-109.22052764891818
30
0
11
369.85436938703066
21
-109.22052764892193
31
0
0
ENDSEC
0
SECTION
2
OBJECTS
0
DICTIONARY
5
C
100
AcDbDictionary
3
ACAD_GROUP
350
D
3
ACAD_MLINESTYLE
350
17
0
DICTIONARY
5
D
100
AcDbDictionary
0
DICTIONARY
5
1A
330
C
100
AcDbDictionary
0
DICTIONARY
5
17
100
AcDbDictionary
0
ENDSEC
0
EOF
