0
SECTION
2
HEADER
9
$INSUNITS
70
4
9
$ACADVER
1
AC1014
9
$HANDSEED
5
FFFF
0
ENDSEC
0
SECTION
2
TABLES
0
TABLE
2
VPORT
5
8
100
AcDbSymbolTable
0
ENDTAB
0
TABLE
2
LTYPE
5
5
100
AcDbSymbolTable
0
LTYPE
5
14
100
AcDbSymbolTableRecord
100
AcDbLinetypeTableRecord
2
BYBLOCK
70
0
0
LTYPE
5
15
100
AcDbSymbolTableRecord
100
AcDbLinetypeTableRecord
2
BYLAYER
70
0
0
ENDTAB
0
TABLE
2
LAYER
5
2
100
AcDbSymbolTable
70
2
0
LAYER
5
50
100
AcDbSymbolTableRecord
100
AcDbLayerTableRecord
2
0
70
0
6
CONTINUOUS
0
ENDTAB
0
TABLE
2
STYLE
5
3
100
AcDbSymbolTable
70
1
0
STYLE
5
11
100
AcDbSymbolTableRecord
100
AcDbTextStyleTableRecord
2
STANDARD
70
0
0
ENDTAB
0
TABLE
2
VIEW
5
6
100
AcDbSymbolTable
70
0
0
ENDTAB
0
TABLE
2
UCS
5
7
100
AcDbSymbolTable
70
0
0
ENDTAB
0
TABLE
2
APPID
5
9
100
AcDbSymbolTable
70
2
0
APPID
5
12
100
AcDbSymbolTableRecord
100
AcDbRegAppTableRecord
2
ACAD
70
0
0
ENDTAB
0
TABLE
2
DIMSTYLE
5
A
100
AcDbSymbolTable
70
1
0
ENDTAB
0
TABLE
2
BLOCK_RECORD
5
1
100
AcDbSymbolTable
70
1
0
BLOCK_RECORD
5
1F
100
AcDbSymbolTableRecord
100
AcDbBlockTableRecord
2
*MODEL_SPACE
0
BLOCK_RECORD
5
1B
100
AcDbSymbolTableRecord
100
AcDbBlockTableRecord
2
*PAPER_SPACE
0
ENDTAB
0
ENDSEC
0
SECTION
2
BLOCKS
0
BLOCK
5
20
100
AcDbEntity
100
AcDbBlockBegin
2
*MODEL_SPACE
0
ENDBLK
5
21
100
AcDbEntity
100
AcDbBlockEnd
0
BLOCK
5
1C
100
AcDbEntity
100
AcDbBlockBegin
2
*PAPER_SPACE
0
ENDBLK
5
1D
100
AcDbEntity
100
AcDbBlockEnd
0
ENDSEC
0
SECTION
2
ENTITIES
0
LWPOLYLINE
5
100
100
AcDbEntity
8
0
100
AcDbPolyline
90
12
70
1
43
0.0
10
535
20
-171.99999999999994
42
-0.41421356237310336
10
540
20
-176.99999999999994
10
540
20
-198.99999999999991
42
-0.41421356237309503
10
537
20
-201.99999999999989
10
535
20
-201.99999999999989
10
535
20
-215.00000000000421
10
514.99999999997362
20
-215.00000000000423
10
515.00000000000182
20
-202.00000000000421
10
513
20
-201.99999999999989
42
-0.41421356237309503
10
510
20
-198.99999999999991
10
510
20
-176.99999999999994
42
-0.41421356237310336
10
515
20
-171.99999999999994
0
SPLINE
5
101
100
AcDbEntity
8
0
100
AcDbSpline
70
0
71
2
72
6
73
3
74
0
42
0.000000001
43
0.0000000001
44
0.0000000001
40
0
40
0
40
0
40
1
40
1
40
1
10
517.26074956357991
20
-179.13522911070177
30
0
10
516.62274681032216
20
-179.13522911070135
30
0
10
516.31761454046296
20
-178.69140100477463
30
0
0
SPLINE
5
102
100
AcDbEntity
8
0
100
AcDbSpline
70
0
71
2
72
6
73
3
74
0
42
0.000000001
43
0.0000000001
44
0.0000000001
40
0
40
0
40
0
40
1
40
1
40
1
10
516.31761454046296
20
-178.69140100477463
30
0
10
516.0124828666502
20
-178.24757289884789
30
0
10
516.01248286665032
20
-177.60957193372948
30
0
0
SPLINE
5
103
100
AcDbEntity
8
0
100
AcDbSpline
70
0
71
2
72
6
73
3
74
0
42
0.000000001
43
0.0000000001
44
0.0000000001
40
0
40
0
40
0
40
1
40
1
40
1
10
516.01248286665032
20
-177.60957193372948
30
0
10
516.01248286665054
20
-176.97156858442528
30
0
10
516.31761454046352
20
-176.527740478499
30
0
0
SPLINE
5
104
100
AcDbEntity
8
0
100
AcDbSpline
70
0
71
2
72
6
73
3
74
0
42
0.000000001
43
0.0000000001
44
0.0000000001
40
0
40
0
40
0
40
1
40
1
40
1
10
516.31761454046352
20
-176.527740478499
30
0
10
516.62274681032295
20
-176.08391237257268
30
0
10
517.2607495635807
20
-176.08391237257311
30
0
0
LINE
5
105
100
AcDbEntity
8
0
100
AcDbLine
10
517.2607495635807
20
-176.08391237257311
30
0
11
531.13037608564491
21
-176.08391237258289
31
0
0
SPLINE
5
106
100
AcDbEntity
8
0
100
AcDbSpline
70
0
71
2
72
6
73
3
74
0
42
0.000000001
43
0.0000000001
44
0.0000000001
40
0
40
0
40
0
40
1
40
1
40
1
10
531.13037608564491
20
-176.08391237258289
30
0
10
532.46185801923866
20
-176.08391237258382
30
0
10
532.97503493726833
20
-176.58321809768182
30
0
0
SPLINE
5
107
100
AcDbEntity
8
0
100
AcDbSpline
70
0
71
2
72
6
73
3
74
0
42
0.000000001
43
0.0000000001
44
0.0000000001
40
0
40
0
40
0
40
1
40
1
40
1
10
532.97503493726833
20
-176.58321809768182
30
0
10
533.48821185529789
20
-177.08252620696567
30
0
10
533.48821185529766
20
-178.38627052306674
30
0
0
LINE
5
108
100
AcDbEntity
8
0
100
AcDbLine
10
533.48821185529766
20
-178.38627052306674
30
0
11
533.4882118552971
21
-180.27253818511508
31
0
0
SPLINE
5
109
100
AcDbEntity
8
0
100
AcDbSpline
70
0
71
2
72
6
73
3
74
0
42
0.000000001
43
0.0000000001
44
0.0000000001
40
0
40
0
40
0
40
1
40
1
40
1
10
533.4882118552971
20
-180.27253818511508
30
0
10
533.48821185529664
20
-182.65811395644687
30
0
10
533.1830789893902
20
-184.89112567901134
30
0
0
SPLINE
5
110
100
AcDbEntity
8
0
100
AcDbSpline
70
0
71
2
72
6
73
3
74
0
42
0.000000001
43
0.0000000001
44
0.0000000001
40
0
40
0
40
0
40
1
40
1
40
1
10
529.74341176450639
20
-184.39181756972545
30
0
10
529.96532462537721
20
-182.43620109557401
30
0
10
529.96532462537766
20
-180.41123580931912
30
0
0
LINE
5
111
100
AcDbEntity
8
0
100
AcDbLine
10
529.96532462537766
20
-180.41123580931912
30
0
11
529.96532462537789
21
-179.77323246001492
31
0
0
SPLINE
5
112
100
AcDbEntity
8
0
100
AcDbSpline
70
0
71
2
72
6
73
3
74
0
42
0.000000001
43
0.0000000001
44
0.0000000001
40
0
40
0
40
0
40
1
40
1
40
1
10
529.96532462537789
20
-179.77323246001492
30
0
10
529.965324625378
20
-179.13522911071072
30
0
10
529.32732366025959
20
-179.13522911071027
30
0
0
LINE
5
113
100
AcDbEntity
8
0
100
AcDbLine
10
529.32732366025959
20
-179.13522911071027
30
0
11
517.26074956357991
21
-179.13522911070177
31
0
0
SPLINE
5
114
100
AcDbEntity
8
0
100
AcDbSpline
70
0
71
2
72
6
73
3
74
0
42
0.000000001
43
0.0000000001
44
0.0000000001
40
0
40
0
40
0
40
1
40
1
40
1
10
514.51456390321493
20
-190.28640937803385
30
0
10
513.87656114995718
20
-190.2864093780334
30
0
10
513.57142947614443
20
-189.84258127210666
30
0
0
SPLINE
5
115
100
AcDbEntity
8
0
100
AcDbSpline
70
0
71
2
72
6
73
3
74
0
42
0.000000001
43
0.0000000001
44
0.0000000001
40
0
40
0
40
0
40
1
40
1
40
1
10
513.57142947614443
20
-189.84258127210666
30
0
10
513.26629750430845
20
-189.39875316617992
30
0
10
513.26629750430857
20
-188.78848981855418
30
0
0
SPLINE
5
116
100
AcDbEntity
8
0
100
AcDbSpline
70
0
71
2
72
6
73
3
74
0
42
0.000000001
43
0.0000000001
44
0.0000000001
40
0
40
0
40
0
40
1
40
1
40
1
10
513.26629750430857
20
-188.78848981855418
30
0
10
513.2662975043088
20
-188.17822647092845
30
0
10
513.57142947614489
20
-187.73439836500216
30
0
0
SPLINE
5
117
100
AcDbEntity
8
0
100
AcDbSpline
70
0
71
2
72
6
73
3
74
0
42
0.000000001
43
0.0000000001
44
0.0000000001
40
0
40
0
40
0
40
1
40
1
40
1
10
513.57142947614489
20
-187.73439836500216
30
0
10
513.87656114995798
20
-187.29057025907588
30
0
10
514.51456390321573
20
-187.29057025907633
30
0
0
LINE
5
118
100
AcDbEntity
8
0
100
AcDbLine
10
514.51456390321573
20
-187.29057025907633
30
0
11
535.48543475568613
21
-187.29057025909106
31
0
0
SPLINE
5
119
100
AcDbEntity
8
0
100
AcDbSpline
70
0
71
2
72
6
73
3
74
0
42
0.000000001
43
0.0000000001
44
0.0000000001
40
0
40
0
40
0
40
1
40
1
40
1
10
535.48543475568613
20
-187.29057025909106
30
0
10
536.12343810499033
20
-187.29057025909154
30
0
10
536.42857097089586
20
-187.73439836501825
30
0
0
SPLINE
5
120
100
AcDbEntity
8
0
100
AcDbSpline
70
0
71
2
72
6
73
3
74
0
42
0.000000001
43
0.0000000001
44
0.0000000001
40
0
40
0
40
0
40
1
40
1
40
1
10
536.42857097089586
20
-187.73439836501825
30
0
10
536.73370383680162
20
-188.17822647094499
30
0
10
536.7337038368014
20
-188.78848981857072
30
0
0
SPLINE
5
121
100
AcDbEntity
8
0
100
AcDbSpline
70
0
71
2
72
6
73
3
74
0
42
0.000000001
43
0.0000000001
44
0.0000000001
40
0
40
0
40
0
40
1
40
1
40
1
10
536.7337038368014
20
-188.78848981857072
30
0
10
536.73370383680128
20
-189.39875316619646
30
0
10
536.42857097089541
20
-189.84258127212274
30
0
0
SPLINE
5
122
100
AcDbEntity
8
0
100
AcDbSpline
70
0
71
2
72
6
73
3
74
0
42
0.000000001
43
0.0000000001
44
0.0000000001
40
0
40
0
40
0
40
1
40
1
40
1
10
536.42857097089541
20
-189.84258127212274
30
0
10
536.12343810498953
20
-190.28640937804906
30
0
10
535.48543475568533
20
-190.28640937804857
30
0
0
LINE
5
123
100
AcDbEntity
8
0
100
AcDbLine
10
535.48543475568533
20
-190.28640937804857
30
0
11
526.77531264722586
21
-190.28640937804249
31
0
0
LINE
5
124
100
AcDbEntity
8
0
100
AcDbLine
10
526.77531264722586
20
-190.28640937804249
30
0
11
526.77531264722359
21
-199.46809959410695
31
0
0
SPLINE
5
125
100
AcDbEntity
8
0
100
AcDbSpline
70
0
71
2
72
6
73
3
74
0
42
0.000000001
43
0.0000000001
44
0.0000000001
40
0
40
0
40
0
40
1
40
1
40
1
10
526.77531264722359
20
-199.46809959410695
30
0
10
526.77531264722336
20
-200.24480056761769
30
0
10
526.234396919608
20
-200.6054086685084
30
0
0
SPLINE
5
126
100
AcDbEntity
8
0
100
AcDbSpline
70
0
71
2
72
6
73
3
74
0
42
0.000000001
43
0.0000000001
44
0.0000000001
40
0
40
0
40
0
40
1
40
1
40
1
10
526.234396919608
20
-200.6054086685084
30
0
10
525.69348119199253
20
-200.96601915358491
30
0
10
525.00000022351719
20
-200.96601915358445
30
0
0
SPLINE
5
127
100
AcDbEntity
8
0
100
AcDbSpline
70
0
71
2
72
6
73
3
74
0
42
0.000000001
43
0.0000000001
44
0.0000000001
40
0
40
0
40
0
40
1
40
1
40
1
10
525.00000022351719
20
-200.96601915358445
30
0
10
524.30651925504185
20
-200.96601915358394
30
0
10
523.76560352742661
20
-200.60540866850664
30
0
0
SPLINE
5
128
100
AcDbEntity
8
0
100
AcDbSpline
70
0
71
2
72
6
73
3
74
0
42
0.000000001
43
0.0000000001
44
0.0000000001
40
0
40
0
40
0
40
1
40
1
40
1
10
523.76560352742661
20
-200.60540866850664
30
0
10
523.22468779981125
20
-200.24480056761516
30
0
10
523.22468779981148
20
-199.46809959410442
30
0
0
LINE
5
129
100
AcDbEntity
8
0
100
AcDbLine
10
523.22468779981148
20
-199.46809959410442
30
0
11
523.22468779981375
21
-190.28640937803996
31
0
0
LINE
5
130
100
AcDbEntity
8
0
100
AcDbLine
10
523.22468779981375
20
-190.28640937803996
30
0
11
514.51456390321493
21
-190.28640937803385
31
0
0
LINE
5
131
100
AcDbEntity
8
0
100
AcDbLine
10
529.74341176450639
20
-184.39181756972545
30
0
11
533.1830789893902
21
-184.89112567901134
31
0
0
ENDSEC
0
SECTION
2
OBJECTS
0
DICTIONARY
5
C
100
AcDbDictionary
3
ACAD_GROUP
350
D
3
ACAD_MLINESTYLE
350
17
0
DICTIONARY
5
D
100
AcDbDictionary
0
DICTIONARY
5
1A
330
C
100
AcDbDictionary
0
DICTIONARY
5
17
100
AcDbDictionary
0
ENDSEC
0
EOF
