0
SECTION
2
HEADER
9
$INSUNITS
70
4
9
$ACADVER
1
AC1014
9
$HANDSEED
5
FFFF
0
ENDSEC
0
SECTION
2
TABLES
0
TABLE
2
VPORT
5
8
100
AcDbSymbolTable
0
ENDTAB
0
TABLE
2
LTYPE
5
5
100
AcDbSymbolTable
0
LTYPE
5
14
100
AcDbSymbolTableRecord
100
AcDbLinetypeTableRecord
2
BYBLOCK
70
0
0
LTYPE
5
15
100
AcDbSymbolTableRecord
100
AcDbLinetypeTableRecord
2
BYLAYER
70
0
0
ENDTAB
0
TABLE
2
LAYER
5
2
100
AcDbSymbolTable
70
2
0
LAYER
5
50
100
AcDbSymbolTableRecord
100
AcDbLayerTableRecord
2
0
70
0
6
CONTINUOUS
0
ENDTAB
0
TABLE
2
STYLE
5
3
100
AcDbSymbolTable
70
1
0
STYLE
5
11
100
AcDbSymbolTableRecord
100
AcDbTextStyleTableRecord
2
STANDARD
70
0
0
ENDTAB
0
TABLE
2
VIEW
5
6
100
AcDbSymbolTable
70
0
0
ENDTAB
0
TABLE
2
UCS
5
7
100
AcDbSymbolTable
70
0
0
ENDTAB
0
TABLE
2
APPID
5
9
100
AcDbSymbolTable
70
2
0
APPID
5
12
100
AcDbSymbolTableRecord
100
AcDbRegAppTableRecord
2
ACAD
70
0
0
ENDTAB
0
TABLE
2
DIMSTYLE
5
A
100
AcDbSymbolTable
70
1
0
ENDTAB
0
TABLE
2
BLOCK_RECORD
5
1
100
AcDbSymbolTable
70
1
0
BLOCK_RECORD
5
1F
100
AcDbSymbolTableRecord
100
AcDbBlockTableRecord
2
*MODEL_SPACE
0
BLOCK_RECORD
5
1B
100
AcDbSymbolTableRecord
100
AcDbBlockTableRecord
2
*PAPER_SPACE
0
ENDTAB
0
ENDSEC
0
SECTION
2
BLOCKS
0
BLOCK
5
20
100
AcDbEntity
100
AcDbBlockBegin
2
*MODEL_SPACE
0
ENDBLK
5
21
100
AcDbEntity
100
AcDbBlockEnd
0
BLOCK
5
1C
100
AcDbEntity
100
AcDbBlockBegin
2
*PAPER_SPACE
0
ENDBLK
5
1D
100
AcDbEntity
100
AcDbBlockEnd
0
ENDSEC
0
SECTION
2
ENTITIES
0
LWPOLYLINE
5
100
100
AcDbEntity
8
0
100
AcDbPolyline
90
12
70
1
43
0.0
10
353
20
18.000000000000011
42
-0.41421356237309681
10
350
20
21
10
350
20
42.999999999999986
42
-0.41421356237310336
10
355
20
47.999999999999986
10
375
20
47.999999999999986
42
-0.41421356237310336
10
380
20
42.999999999999986
10
380
20
21
42
-0.41421356237309681
10
377
20
17.999999999999993
10
375
20
17.999999999999993
10
375
20
4.9999999999998792
10
354.99999999989194
20
4.999999999983058
10
355.00000000000273
20
17.999999999983061
0
SPLINE
5
101
100
AcDbEntity
8
0
100
AcDbSpline
70
0
71
2
72
6
73
3
74
0
42
0.000000001
43
0.0000000001
44
0.0000000001
40
0
40
0
40
0
40
1
40
1
40
1
10
356.66435524821247
20
26.938972949984642
30
0
10
355.33287093043293
20
26.938972949984809
30
0
10
354.81969520449604
20
27.438281059268324
30
0
0
SPLINE
5
102
100
AcDbEntity
8
0
100
AcDbSpline
70
0
71
2
72
6
73
3
74
0
42
0.000000001
43
0.0000000001
44
0.0000000001
40
0
40
0
40
0
40
1
40
1
40
1
10
354.81969520449604
20
27.438281059268324
30
0
10
354.30651888251271
20
27.937586784366047
30
0
10
354.30651888251271
20
29.241331100467121
30
0
0
LINE
5
103
100
AcDbEntity
8
0
100
AcDbLine
10
354.30651888251271
20
29.241331100467114
30
0
11
354.30651888251253
21
41.418862819674885
31
0
0
SPLINE
5
104
100
AcDbEntity
8
0
100
AcDbSpline
70
0
71
2
72
6
73
3
74
0
42
0.000000001
43
0.0000000001
44
0.0000000001
40
0
40
0
40
0
40
1
40
1
40
1
10
354.30651888251253
20
41.418862819674885
30
0
10
354.30651888251253
20
42.195561408999829
30
0
10
354.84743401408139
20
42.55617189407667
30
0
0
SPLINE
5
105
100
AcDbEntity
8
0
100
AcDbSpline
70
0
71
2
72
6
73
3
74
0
42
0.000000001
43
0.0000000001
44
0.0000000001
40
0
40
0
40
0
40
1
40
1
40
1
10
354.84743401408139
20
42.55617189407667
30
0
10
355.38834974169674
20
42.916782379153503
30
0
10
356.08183071017208
20
42.916782379153418
30
0
0
SPLINE
5
106
100
AcDbEntity
8
0
100
AcDbSpline
70
0
71
2
72
6
73
3
74
0
42
0.000000001
43
0.0000000001
44
0.0000000001
40
0
40
0
40
0
40
1
40
1
40
1
10
356.08183071017208
20
42.916782379153418
30
0
10
356.80305168032589
20
42.916782379153318
30
0
10
357.3439668118948
20
42.556171894076357
30
0
0
SPLINE
5
107
100
AcDbEntity
8
0
100
AcDbSpline
70
0
71
2
72
6
73
3
74
0
42
0.000000001
43
0.0000000001
44
0.0000000001
40
0
40
0
40
0
40
1
40
1
40
1
10
357.3439668118948
20
42.556171894076357
30
0
10
357.88488194346377
20
42.195561408999382
30
0
10
357.88488194346377
20
41.41886281967443
30
0
0
LINE
5
108
100
AcDbEntity
8
0
100
AcDbLine
10
357.88488194346377
20
41.418862819674416
30
0
11
357.88488194346394
21
30.600555419924671
31
0
0
SPLINE
5
109
100
AcDbEntity
8
0
100
AcDbSpline
70
0
71
2
72
6
73
3
74
0
42
0.000000001
43
0.0000000001
44
0.0000000001
40
0
40
0
40
0
40
1
40
1
40
1
10
357.88488194346382
20
30.600555419924671
30
0
10
357.88488194346394
20
29.962552070620472
30
0
10
358.52288410067524
20
29.962552070620387
30
0
0
SPLINE
5
110
100
AcDbEntity
8
0
100
AcDbSpline
70
0
71
2
72
6
73
3
74
0
42
0.000000001
43
0.0000000001
44
0.0000000001
40
0
40
0
40
0
40
1
40
1
40
1
10
358.52288410067524
20
29.962552070620387
30
0
10
359.04992982745136
20
29.962552070620319
30
0
10
359.72954198718037
20
29.99028968811291
30
0
0
SPLINE
5
111
100
AcDbEntity
8
0
100
AcDbSpline
70
0
71
2
72
6
73
3
74
0
42
0.000000001
43
0.0000000001
44
0.0000000001
40
0
40
0
40
0
40
1
40
1
40
1
10
359.72954198718037
20
29.99028968811291
30
0
10
360.40915414690937
20
30.018029689791291
30
0
10
361.14424392580952
20
30.059638500215996
30
0
0
SPLINE
5
112
100
AcDbEntity
8
0
100
AcDbSpline
70
0
71
2
72
6
73
3
74
0
42
0.000000001
43
0.0000000001
44
0.0000000001
40
0
40
0
40
0
40
1
40
1
40
1
10
361.14424392580952
20
30.059638500215996
30
0
10
361.87933370470967
20
30.101247310640709
30
0
10
362.62829348444905
20
30.170596122743888
30
0
0
SPLINE
5
113
100
AcDbEntity
8
0
100
AcDbSpline
70
0
71
2
72
6
73
3
74
0
42
0.000000001
43
0.0000000001
44
0.0000000001
40
0
40
0
40
0
40
1
40
1
40
1
10
362.62829348444905
20
30.170596122743888
30
0
10
363.37725326418843
20
30.23994493484706
30
0
10
364.0429954230782
20
30.323162555696584
30
0
0
SPLINE
5
114
100
AcDbEntity
8
0
100
AcDbSpline
70
0
71
2
72
6
73
3
74
0
42
0.000000001
43
0.0000000001
44
0.0000000001
40
0
40
0
40
0
40
1
40
1
40
1
10
364.0429954230782
20
30.323162555696584
30
0
10
364.6809987723824
20
30.406380176546111
30
0
10
365.0416092574593
20
30.031898498537032
30
0
0
SPLINE
5
115
100
AcDbEntity
8
0
100
AcDbSpline
70
0
71
2
72
6
73
3
74
0
42
0.000000001
43
0.0000000001
44
0.0000000001
40
0
40
0
40
0
40
1
40
1
40
1
10
365.0416092574593
20
30.031898498537032
30
0
10
365.4022197425362
20
29.657419204713747
30
0
10
365.45769736170735
20
29.019415855409537
30
0
0
SPLINE
5
116
100
AcDbEntity
8
0
100
AcDbSpline
70
0
71
2
72
6
73
3
74
0
42
0.000000001
43
0.0000000001
44
0.0000000001
40
0
40
0
40
0
40
1
40
1
40
1
10
365.45769736170735
20
29.019415855409537
30
0
10
365.51317617297138
20
28.381414890291122
30
0
10
365.29126212000813
20
27.909846782686174
30
0
0
SPLINE
5
117
100
AcDbEntity
8
0
100
AcDbSpline
70
0
71
2
72
6
73
3
74
0
42
0.000000001
43
0.0000000001
44
0.0000000001
40
0
40
0
40
0
40
1
40
1
40
1
10
365.29126212000813
20
27.909846782686174
30
0
10
365.06934806704487
20
27.438281059267009
30
0
10
364.45908471941914
20
27.327323436739015
30
0
0
SPLINE
5
118
100
AcDbEntity
8
0
100
AcDbSpline
70
0
71
2
72
6
73
3
74
0
42
0.000000001
43
0.0000000001
44
0.0000000001
40
0
40
0
40
0
40
1
40
1
40
1
10
364.45908471941914
20
27.327323436739015
30
0
10
363.57142850756611
20
27.188628196718373
30
0
10
361.58807203173603
20
27.063799381258423
30
0
0
SPLINE
5
119
100
AcDbEntity
8
0
100
AcDbSpline
70
0
71
2
72
6
73
3
74
0
42
0.000000001
43
0.0000000001
44
0.0000000001
40
0
40
0
40
0
40
1
40
1
40
1
10
361.58807203173603
20
27.063799381258423
30
0
10
359.60471555590595
20
26.938972949984262
30
0
10
356.66435524821247
20
26.938972949984642
30
0
0
SPLINE
5
120
100
AcDbEntity
8
0
100
AcDbSpline
70
0
71
2
72
6
73
3
74
0
42
0.000000001
43
0.0000000001
44
0.0000000001
40
0
40
0
40
0
40
1
40
1
40
1
10
372.4202482402319
20
43.332870483399368
30
0
10
372.4202482402319
20
44.054091453553177
30
0
10
372.91955634951535
20
44.38696193695155
30
0
0
SPLINE
5
121
100
AcDbEntity
8
0
100
AcDbSpline
70
0
71
2
72
6
73
3
74
0
42
0.000000001
43
0.0000000001
44
0.0000000001
40
0
40
0
40
0
40
1
40
1
40
1
10
372.91955634951535
20
44.38696193695155
30
0
10
373.418862074613
20
44.719832420349931
30
0
10
374.0568654239172
20
44.719832420349839
30
0
0
SPLINE
5
122
100
AcDbEntity
8
0
100
AcDbSpline
70
0
71
2
72
6
73
3
74
0
42
0.000000001
43
0.0000000001
44
0.0000000001
40
0
40
0
40
0
40
1
40
1
40
1
10
374.0568654239172
20
44.719832420349839
30
0
10
374.69486638903561
20
44.719832420349761
30
0
10
375.19417211413327
20
44.386961936951259
30
0
0
SPLINE
5
123
100
AcDbEntity
8
0
100
AcDbSpline
70
0
71
2
72
6
73
3
74
0
42
0.000000001
43
0.0000000001
44
0.0000000001
40
0
40
0
40
0
40
1
40
1
40
1
10
375.19417211413327
20
44.386961936951259
30
0
10
375.69348022341671
20
44.054091453552758
30
0
10
375.69348022341671
20
43.332870483398949
30
0
0
LINE
5
124
100
AcDbEntity
8
0
100
AcDbLine
10
375.69348022341671
20
43.332870483398949
30
0
11
375.693480223417
21
21.862690925598656
31
0
0
SPLINE
5
125
100
AcDbEntity
8
0
100
AcDbSpline
70
0
71
2
72
6
73
3
74
0
42
0.000000001
43
0.0000000001
44
0.0000000001
40
0
40
0
40
0
40
1
40
1
40
1
10
375.693480223417
20
21.862690925598653
30
0
10
375.693480223417
20
21.141469955444844
30
0
10
375.19417211413355
20
20.808599472046474
30
0
0
SPLINE
5
126
100
AcDbEntity
8
0
100
AcDbSpline
70
0
71
2
72
6
73
3
74
0
42
0.000000001
43
0.0000000001
44
0.0000000001
40
0
40
0
40
0
40
1
40
1
40
1
10
375.19417211413355
20
20.808599472046474
30
0
10
374.69486638903589
20
20.4757289886481
30
0
10
374.05686542391749
20
20.475728988648182
30
0
0
SPLINE
5
127
100
AcDbEntity
8
0
100
AcDbSpline
70
0
71
2
72
6
73
3
74
0
42
0.000000001
43
0.0000000001
44
0.0000000001
40
0
40
0
40
0
40
1
40
1
40
1
10
374.05686542391749
20
20.475728988648182
30
0
10
373.41886207461329
20
20.475728988648264
30
0
10
372.91955634951563
20
20.808599472046765
30
0
0
SPLINE
5
128
100
AcDbEntity
8
0
100
AcDbSpline
70
0
71
2
72
6
73
3
74
0
42
0.000000001
43
0.0000000001
44
0.0000000001
40
0
40
0
40
0
40
1
40
1
40
1
10
372.91955634951563
20
20.808599472046765
30
0
10
372.42024824023218
20
21.141469955445267
30
0
10
372.42024824023218
20
21.862690925599075
30
0
0
LINE
5
129
100
AcDbEntity
8
0
100
AcDbLine
10
372.42024824023218
20
21.862690925599075
30
0
11
372.4202482402319
21
43.332870483399368
31
0
0
LINE
5
130
100
AcDbEntity
8
0
100
AcDbLine
10
367.20527097582772
20
34.262135505677868
30
0
11
363.34951445460274
21
34.262135505678359
31
0
0
SPLINE
5
131
100
AcDbEntity
8
0
100
AcDbSpline
70
0
71
2
72
6
73
3
74
0
42
0.000000001
43
0.0000000001
44
0.0000000001
40
0
40
0
40
0
40
1
40
1
40
1
10
363.34951445460274
20
34.262135505678366
30
0
10
362.71151229739144
20
34.262135505678444
30
0
10
362.40637943148568
20
34.705963611605
30
0
0
SPLINE
5
132
100
AcDbEntity
8
0
100
AcDbSpline
70
0
71
2
72
6
73
3
74
0
42
0.000000001
43
0.0000000001
44
0.0000000001
40
0
40
0
40
0
40
1
40
1
40
1
10
362.40637943148568
20
34.705963611605
30
0
10
362.10124775767281
20
35.149791717531549
30
0
10
362.10124775767281
20
35.760055065157282
30
0
0
SPLINE
5
133
100
AcDbEntity
8
0
100
AcDbSpline
70
0
71
2
72
6
73
3
74
0
42
0.000000001
43
0.0000000001
44
0.0000000001
40
0
40
0
40
0
40
1
40
1
40
1
10
362.10124775767281
20
35.760055065157282
30
0
10
362.10124775767281
20
36.398058414461481
30
0
10
362.40637943148562
20
36.841886520387959
30
0
0
SPLINE
5
134
100
AcDbEntity
8
0
100
AcDbSpline
70
0
71
2
72
6
73
3
74
0
42
0.000000001
43
0.0000000001
44
0.0000000001
40
0
40
0
40
0
40
1
40
1
40
1
10
362.40637943148562
20
36.841886520387959
30
0
10
362.71151229739138
20
37.28571462631443
30
0
10
363.34951445460268
20
37.285714626314352
30
0
0
LINE
5
135
100
AcDbEntity
8
0
100
AcDbLine
10
363.34951445460268
20
37.285714626314352
30
0
11
367.20527097582766
21
37.285714626313855
31
0
0
LINE
5
136
100
AcDbEntity
8
0
100
AcDbLine
10
367.20527097582766
20
37.285714626313855
30
0
11
367.2052709758276
21
43.055477619172741
31
0
0
SPLINE
5
137
100
AcDbEntity
8
0
100
AcDbSpline
70
0
71
2
72
6
73
3
74
0
42
0.000000001
43
0.0000000001
44
0.0000000001
40
0
40
0
40
0
40
1
40
1
40
1
10
367.2052709758276
20
43.055477619172741
30
0
10
367.2052709758276
20
43.77669858932655
30
0
10
367.70457670092526
20
44.109569072724923
30
0
0
SPLINE
5
138
100
AcDbEntity
8
0
100
AcDbSpline
70
0
71
2
72
6
73
3
74
0
42
0.000000001
43
0.0000000001
44
0.0000000001
40
0
40
0
40
0
40
1
40
1
40
1
10
367.70457670092526
20
44.109569072724923
30
0
10
368.20388361811581
20
44.442439556123297
30
0
10
368.84188577532711
20
44.442439556123219
30
0
0
SPLINE
5
139
100
AcDbEntity
8
0
100
AcDbSpline
70
0
71
2
72
6
73
3
74
0
42
0.000000001
43
0.0000000001
44
0.0000000001
40
0
40
0
40
0
40
1
40
1
40
1
10
368.84188577532711
20
44.442439556123219
30
0
10
369.45215150713864
20
44.442439556123141
30
0
10
369.95145723223629
20
44.109569072724639
30
0
0
SPLINE
5
140
100
AcDbEntity
8
0
100
AcDbSpline
70
0
71
2
72
6
73
3
74
0
42
0.000000001
43
0.0000000001
44
0.0000000001
40
0
40
0
40
0
40
1
40
1
40
1
10
369.95145723223629
20
44.109569072724639
30
0
10
370.45076295733395
20
43.776698589326131
30
0
10
370.45076295733395
20
43.055477619172322
30
0
0
LINE
5
141
100
AcDbEntity
8
0
100
AcDbLine
10
370.45076295733395
20
43.055477619172322
30
0
11
370.45076295733418
21
23.027740001679646
31
0
0
SPLINE
5
142
100
AcDbEntity
8
0
100
AcDbSpline
70
0
71
2
72
6
73
3
74
0
42
0.000000001
43
0.0000000001
44
0.0000000001
40
0
40
0
40
0
40
1
40
1
40
1
10
370.45076295733423
20
23.02774000167965
30
0
10
370.45076295733423
20
22.306519031525841
30
0
10
369.95145723223658
20
21.973648548127468
30
0
0
SPLINE
5
143
100
AcDbEntity
8
0
100
AcDbSpline
70
0
71
2
72
6
73
3
74
0
42
0.000000001
43
0.0000000001
44
0.0000000001
40
0
40
0
40
0
40
1
40
1
40
1
10
369.95145723223658
20
21.973648548127468
30
0
10
369.45215150713892
20
21.640775680543307
30
0
10
368.8418857753274
20
21.640775680543381
30
0
0
SPLINE
5
144
100
AcDbEntity
8
0
100
AcDbSpline
70
0
71
2
72
6
73
3
74
0
42
0.000000001
43
0.0000000001
44
0.0000000001
40
0
40
0
40
0
40
1
40
1
40
1
10
368.8418857753274
20
21.640775680543381
30
0
10
368.20388361811609
20
21.640775680543463
30
0
10
367.70457670092554
20
21.973648548127755
30
0
0
SPLINE
5
145
100
AcDbEntity
8
0
100
AcDbSpline
70
0
71
2
72
6
73
3
74
0
42
0.000000001
43
0.0000000001
44
0.0000000001
40
0
40
0
40
0
40
1
40
1
40
1
10
367.70457670092554
20
21.973648548127755
30
0
10
367.20527097582789
20
22.306519031526257
30
0
10
367.20527097582789
20
23.027740001680066
30
0
0
LINE
5
146
100
AcDbEntity
8
0
100
AcDbLine
10
367.20527097582789
20
23.027740001680066
30
0
11
367.20527097582772
21
34.262135505677868
31
0
0
ENDSEC
0
SECTION
2
OBJECTS
0
DICTIONARY
5
C
100
AcDbDictionary
3
ACAD_GROUP
350
D
3
ACAD_MLINESTYLE
350
17
0
DICTIONARY
5
D
100
AcDbDictionary
0
DICTIONARY
5
1A
330
C
100
AcDbDictionary
0
DICTIONARY
5
17
100
AcDbDictionary
0
ENDSEC
0
EOF
