0
SECTION
2
HEADER
9
$INSUNITS
70
4
9
$ACADVER
1
AC1014
9
$HANDSEED
5
FFFF
0
ENDSEC
0
SECTION
2
TABLES
0
TABLE
2
VPORT
5
8
100
AcDbSymbolTable
0
ENDTAB
0
TABLE
2
LTYPE
5
5
100
AcDbSymbolTable
0
LTYPE
5
14
100
AcDbSymbolTableRecord
100
AcDbLinetypeTableRecord
2
BYBLOCK
70
0
0
LTYPE
5
15
100
AcDbSymbolTableRecord
100
AcDbLinetypeTableRecord
2
BYLAYER
70
0
0
ENDTAB
0
TABLE
2
LAYER
5
2
100
AcDbSymbolTable
70
2
0
LAYER
5
50
100
AcDbSymbolTableRecord
100
AcDbLayerTableRecord
2
0
70
0
6
CONTINUOUS
0
ENDTAB
0
TABLE
2
STYLE
5
3
100
AcDbSymbolTable
70
1
0
STYLE
5
11
100
AcDbSymbolTableRecord
100
AcDbTextStyleTableRecord
2
STANDARD
70
0
0
ENDTAB
0
TABLE
2
VIEW
5
6
100
AcDbSymbolTable
70
0
0
ENDTAB
0
TABLE
2
UCS
5
7
100
AcDbSymbolTable
70
0
0
ENDTAB
0
TABLE
2
APPID
5
9
100
AcDbSymbolTable
70
2
0
APPID
5
12
100
AcDbSymbolTableRecord
100
AcDbRegAppTableRecord
2
ACAD
70
0
0
ENDTAB
0
TABLE
2
DIMSTYLE
5
A
100
AcDbSymbolTable
70
1
0
ENDTAB
0
TABLE
2
BLOCK_RECORD
5
1
100
AcDbSymbolTable
70
1
0
BLOCK_RECORD
5
1F
100
AcDbSymbolTableRecord
100
AcDbBlockTableRecord
2
*MODEL_SPACE
0
BLOCK_RECORD
5
1B
100
AcDbSymbolTableRecord
100
AcDbBlockTableRecord
2
*PAPER_SPACE
0
ENDTAB
0
ENDSEC
0
SECTION
2
BLOCKS
0
BLOCK
5
20
100
AcDbEntity
100
AcDbBlockBegin
2
*MODEL_SPACE
0
ENDBLK
5
21
100
AcDbEntity
100
AcDbBlockEnd
0
BLOCK
5
1C
100
AcDbEntity
100
AcDbBlockBegin
2
*PAPER_SPACE
0
ENDBLK
5
1D
100
AcDbEntity
100
AcDbBlockEnd
0
ENDSEC
0
SECTION
2
ENTITIES
0
LWPOLYLINE
5
100
100
AcDbEntity
8
0
100
AcDbPolyline
90
12
70
1
43
0.0
10
313
20
-25.999999999999993
42
-0.41421356237309681
10
310
20
-23.000000000000004
10
310
20
-1.00000000000001
42
-0.41421356237310336
10
315
20
3.9999999999999902
10
335
20
3.9999999999999902
42
-0.41421356237310336
10
340
20
-1.0000000000000098
10
340
20
-23.000000000000004
42
-0.41421356237309681
10
337
20
-26.000000000000011
10
335
20
-26.000000000000011
10
335
20
-39.000000000023448
10
314.99999999992377
20
-39.000000000023448
10
315.00000000000091
20
-26.000000000023455
0
SPLINE
5
101
100
AcDbEntity
8
0
100
AcDbSpline
70
0
71
2
72
6
73
3
74
0
42
0.000000001
43
0.0000000001
44
0.0000000001
40
0
40
0
40
0
40
1
40
1
40
1
10
318.16296800971037
20
-4.1622743606528445
30
0
10
317.52496525645262
20
-4.1622743606527335
30
0
10
317.52496525645262
20
-4.8002777099569327
30
0
0
LINE
5
102
100
AcDbEntity
8
0
100
AcDbLine
10
317.52496525645262
20
-4.8002777099569327
30
0
11
317.5249652564525
21
-13.510402202602197
31
0
0
SPLINE
5
103
100
AcDbEntity
8
0
100
AcDbSpline
70
0
71
2
72
6
73
3
74
0
42
0.000000001
43
0.0000000001
44
0.0000000001
40
0
40
0
40
0
40
1
40
1
40
1
10
317.5249652564525
20
-13.510402202602197
30
0
10
317.5249652564525
20
-14.148405551906396
30
0
10
318.16296800971026
20
-14.148405551906503
30
0
0
SPLINE
5
104
100
AcDbEntity
8
0
100
AcDbSpline
70
0
71
2
72
6
73
3
74
0
42
0.000000001
43
0.0000000001
44
0.0000000001
40
0
40
0
40
0
40
1
40
1
40
1
10
318.16296800971026
20
-14.148405551906503
30
0
10
320.52080437541002
20
-14.148405551906912
30
0
10
322.67059609293932
20
-14.023579120632871
30
0
0
SPLINE
5
105
100
AcDbEntity
8
0
100
AcDbSpline
70
0
71
2
72
6
73
3
74
0
42
0.000000001
43
0.0000000001
44
0.0000000001
40
0
40
0
40
0
40
1
40
1
40
1
10
322.67059609293932
20
-14.023579120632871
30
0
10
324.82038781046862
20
-13.898752689358824
30
0
10
326.8453530967235
20
-13.621359825131879
30
0
0
SPLINE
5
106
100
AcDbEntity
8
0
100
AcDbSpline
70
0
71
2
72
6
73
3
74
0
42
0.000000001
43
0.0000000001
44
0.0000000001
40
0
40
0
40
0
40
1
40
1
40
1
10
326.8453530967235
20
-13.621359825131879
30
0
10
327.4833564460277
20
-13.538142204282382
30
0
10
327.85783573985094
20
-13.926492691037815
30
0
0
SPLINE
5
107
100
AcDbEntity
8
0
100
AcDbSpline
70
0
71
2
72
6
73
3
74
0
42
0.000000001
43
0.0000000001
44
0.0000000001
40
0
40
0
40
0
40
1
40
1
40
1
10
327.85783573985094
20
-13.926492691037815
30
0
10
328.23231741785997
20
-14.314840793607463
30
0
10
328.28779265284533
20
-14.925104141233202
30
0
0
SPLINE
5
108
100
AcDbEntity
8
0
100
AcDbSpline
70
0
71
2
72
6
73
3
74
0
42
0.000000001
43
0.0000000001
44
0.0000000001
40
0
40
0
40
0
40
1
40
1
40
1
10
328.28779265284533
20
-14.925104141233202
30
0
10
328.34327265620226
20
-15.563107490537412
30
0
10
328.121358603239
20
-16.048544406888688
30
0
0
SPLINE
5
109
100
AcDbEntity
8
0
100
AcDbSpline
70
0
71
2
72
6
73
3
74
0
42
0.000000001
43
0.0000000001
44
0.0000000001
40
0
40
0
40
0
40
1
40
1
40
1
10
328.121358603239
20
-16.048544406888688
30
0
10
327.89944455027569
20
-16.533981323239971
30
0
10
327.28918120264996
20
-16.617198944089473
30
0
0
SPLINE
5
110
100
AcDbEntity
8
0
100
AcDbSpline
70
0
71
2
72
6
73
3
74
0
42
0.000000001
43
0.0000000001
44
0.0000000001
40
0
40
0
40
0
40
1
40
1
40
1
10
327.28918120264996
20
-16.617198944089473
30
0
10
326.4292649924754
20
-16.728154182431613
30
0
10
325.38904234766949
20
-16.82524299621317
30
0
0
SPLINE
5
111
100
AcDbEntity
8
0
100
AcDbSpline
70
0
71
2
72
6
73
3
74
0
42
0.000000001
43
0.0000000001
44
0.0000000001
40
0
40
0
40
0
40
1
40
1
40
1
10
325.38904234766949
20
-16.82524299621317
30
0
10
324.34882089495648
20
-16.92232942580894
30
0
10
323.01733657717693
20
-17.005549430844109
30
0
0
SPLINE
5
112
100
AcDbEntity
8
0
100
AcDbSpline
70
0
71
2
72
6
73
3
74
0
42
0.000000001
43
0.0000000001
44
0.0000000001
40
0
40
0
40
0
40
1
40
1
40
1
10
323.01733657717693
20
-17.005549430844109
30
0
10
321.68585225939739
20
-17.088767051693488
30
0
10
320.03536745905865
20
-17.130375862118008
30
0
0
SPLINE
5
113
100
AcDbEntity
8
0
100
AcDbSpline
70
0
71
2
72
6
73
3
74
0
42
0.000000001
43
0.0000000001
44
0.0000000001
40
0
40
0
40
0
40
1
40
1
40
1
10
320.03536745905865
20
-17.130375862118008
30
0
10
318.38488146662701
20
-17.171984672542528
30
0
10
316.33217737078655
20
-17.171984672542173
30
0
0
SPLINE
5
114
100
AcDbEntity
8
0
100
AcDbSpline
70
0
71
2
72
6
73
3
74
0
42
0.000000001
43
0.0000000001
44
0.0000000001
40
0
40
0
40
0
40
1
40
1
40
1
10
316.33217737078655
20
-17.171984672542173
30
0
10
315.00069305300701
20
-17.171984672541942
30
0
10
314.48751732707012
20
-16.672676563258406
30
0
0
SPLINE
5
115
100
AcDbEntity
8
0
100
AcDbSpline
70
0
71
2
72
6
73
3
74
0
42
0.000000001
43
0.0000000001
44
0.0000000001
40
0
40
0
40
0
40
1
40
1
40
1
10
314.48751732707012
20
-16.672676563258406
30
0
10
313.97434100508679
20
-16.173370838160661
30
0
10
313.97434100508684
20
-14.869626522059587
30
0
0
LINE
5
116
100
AcDbEntity
8
0
100
AcDbLine
10
313.97434100508684
20
-14.869626522059587
30
0
11
313.97434100508696
21
-3.4410533904983098
31
0
0
SPLINE
5
117
100
AcDbEntity
8
0
100
AcDbSpline
70
0
71
2
72
6
73
3
74
0
42
0.000000001
43
0.0000000001
44
0.0000000001
40
0
40
0
40
0
40
1
40
1
40
1
10
313.97434100508696
20
-3.441053390498312
30
0
10
313.97434100508696
20
-2.1373090743972387
30
0
10
314.48751732707029
20
-1.6380033492996715
30
0
0
SPLINE
5
118
100
AcDbEntity
8
0
100
AcDbSpline
70
0
71
2
72
6
73
3
74
0
42
0.000000001
43
0.0000000001
44
0.0000000001
40
0
40
0
40
0
40
1
40
1
40
1
10
314.48751732707029
20
-1.6380033492996715
30
0
10
315.00069305300718
20
-1.1386976242021041
30
0
10
316.33217737078672
20
-1.1386976242023339
30
0
0
LINE
5
119
100
AcDbEntity
8
0
100
AcDbLine
10
316.33217737078672
20
-1.1386976242023341
30
0
11
325.09778067469603
21
-1.1386976242038469
31
0
0
SPLINE
5
120
100
AcDbEntity
8
0
100
AcDbSpline
70
0
71
2
72
6
73
3
74
0
42
0.000000001
43
0.0000000001
44
0.0000000001
40
0
40
0
40
0
40
1
40
1
40
1
10
325.09778067469603
20
-1.138697624203846
30
0
10
325.73578402400022
20
-1.138697624203957
30
0
10
326.04091569781309
20
-1.5825257301305229
30
0
0
SPLINE
5
121
100
AcDbEntity
8
0
100
AcDbSpline
70
0
71
2
72
6
73
3
74
0
42
0.000000001
43
0.0000000001
44
0.0000000001
40
0
40
0
40
0
40
1
40
1
40
1
10
326.04091569781309
20
-1.5825257301305229
30
0
10
326.34604737162596
20
-2.0263514518712986
30
0
10
326.34604737162596
20
-2.6643548011754969
30
0
0
SPLINE
5
122
100
AcDbEntity
8
0
100
AcDbSpline
70
0
71
2
72
6
73
3
74
0
42
0.000000001
43
0.0000000001
44
0.0000000001
40
0
40
0
40
0
40
1
40
1
40
1
10
326.34604737162596
20
-2.6643548011754969
30
0
10
326.34604737162596
20
-3.2746181488012294
30
0
10
326.04091569781309
20
-3.7184462547276897
30
0
0
SPLINE
5
123
100
AcDbEntity
8
0
100
AcDbSpline
70
0
71
2
72
6
73
3
74
0
42
0.000000001
43
0.0000000001
44
0.0000000001
40
0
40
0
40
0
40
1
40
1
40
1
10
326.04091569781309
20
-3.7184462547276897
30
0
10
325.73578402400022
20
-4.1622743606541501
30
0
10
325.09778067469603
20
-4.1622743606540418
30
0
0
LINE
5
124
100
AcDbEntity
8
0
100
AcDbLine
10
325.09778067469603
20
-4.1622743606540418
30
0
11
318.16296800971037
21
-4.1622743606528445
31
0
0
SPLINE
5
125
100
AcDbEntity
8
0
100
AcDbSpline
70
0
71
2
72
6
73
3
74
0
42
0.000000001
43
0.0000000001
44
0.0000000001
40
0
40
0
40
0
40
1
40
1
40
1
10
335.74965044856071
20
-7.4632463455191616
30
0
10
336.41539618372917
20
-7.463246345519277
30
0
10
336.72052428126335
20
-7.9070744514458413
30
0
0
SPLINE
5
126
100
AcDbEntity
8
0
100
AcDbSpline
70
0
71
2
72
6
73
3
74
0
42
0.000000001
43
0.0000000001
44
0.0000000001
40
0
40
0
40
0
40
1
40
1
40
1
10
336.72052428126335
20
-7.9070744514458413
30
0
10
337.02565714716911
20
-8.3509025573724074
30
0
10
337.02565714716911
20
-8.9889059066766066
30
0
0
SPLINE
5
127
100
AcDbEntity
8
0
100
AcDbSpline
70
0
71
2
72
6
73
3
74
0
42
0.000000001
43
0.0000000001
44
0.0000000001
40
0
40
0
40
0
40
1
40
1
40
1
10
337.02565714716911
20
-8.9889059066766066
30
0
10
337.02565714716911
20
-9.6269068717950148
30
0
10
336.72052428126335
20
-10.084606170653604
30
0
0
SPLINE
5
128
100
AcDbEntity
8
0
100
AcDbSpline
70
0
71
2
72
6
73
3
74
0
42
0.000000001
43
0.0000000001
44
0.0000000001
40
0
40
0
40
0
40
1
40
1
40
1
10
336.72052428126335
20
-10.084606170653604
30
0
10
336.41539618372917
20
-10.542303085326406
30
0
10
335.74965044856071
20
-10.54230308532629
30
0
0
LINE
5
129
100
AcDbEntity
8
0
100
AcDbLine
10
335.74965044856071
20
-10.54230308532629
30
0
11
333.14216181635857
21
-10.542303085325839
31
0
0
LINE
5
130
100
AcDbEntity
8
0
100
AcDbLine
10
333.14216181635857
20
-10.542303085325839
30
0
11
333.14216181635845
21
-22.026351451872472
31
0
0
SPLINE
5
131
100
AcDbEntity
8
0
100
AcDbSpline
70
0
71
2
72
6
73
3
74
0
42
0.000000001
43
0.0000000001
44
0.0000000001
40
0
40
0
40
0
40
1
40
1
40
1
10
333.14216181635845
20
-22.026351451872472
30
0
10
333.14216181635834
20
-22.803050041197423
30
0
10
332.60124728083588
20
-23.163660526274231
30
0
0
SPLINE
5
132
100
AcDbEntity
8
0
100
AcDbSpline
70
0
71
2
72
6
73
3
74
0
42
0.000000001
43
0.0000000001
44
0.0000000001
40
0
40
0
40
0
40
1
40
1
40
1
10
332.60124728083588
20
-23.163660526274231
30
0
10
332.06033274531342
20
-23.524271011351043
30
0
10
331.36684939265228
20
-23.524271011350923
30
0
0
SPLINE
5
133
100
AcDbEntity
8
0
100
AcDbSpline
70
0
71
2
72
6
73
3
74
0
42
0.000000001
43
0.0000000001
44
0.0000000001
40
0
40
0
40
0
40
1
40
1
40
1
10
331.36684939265228
20
-23.524271011350923
30
0
10
330.67337080836273
20
-23.524271011350805
30
0
10
330.13245627284027
20
-23.163660526273805
30
0
0
SPLINE
5
134
100
AcDbEntity
8
0
100
AcDbSpline
70
0
71
2
72
6
73
3
74
0
42
0.000000001
43
0.0000000001
44
0.0000000001
40
0
40
0
40
0
40
1
40
1
40
1
10
330.13245627284027
20
-23.163660526273805
30
0
10
329.59153935313202
20
-22.803050041196808
30
0
10
329.59153935313213
20
-22.026351451871857
30
0
0
LINE
5
135
100
AcDbEntity
8
0
100
AcDbLine
10
329.59153935313213
20
-22.026351451871861
30
0
11
329.59153935313236
21
-0.77808713912772109
31
0
0
SPLINE
5
136
100
AcDbEntity
8
0
100
AcDbSpline
70
0
71
2
72
6
73
3
74
0
42
0.000000001
43
0.0000000001
44
0.0000000001
40
0
40
0
40
0
40
1
40
1
40
1
10
329.5915393531323
20
-0.77808713912771776
30
0
10
329.5915393531323
20
-0.0013861656169755765
30
0
10
330.13245627284056
20
0.35922193527404445
30
0
0
SPLINE
5
137
100
AcDbEntity
8
0
100
AcDbSpline
70
0
71
2
72
6
73
3
74
0
42
0.000000001
43
0.0000000001
44
0.0000000001
40
0
40
0
40
0
40
1
40
1
40
1
10
330.13245627284056
20
0.35922193527404445
30
0
10
330.67337080836302
20
0.71983242035085548
30
0
10
331.36684939265257
20
0.71983242035073558
30
0
0
SPLINE
5
138
100
AcDbEntity
8
0
100
AcDbSpline
70
0
71
2
72
6
73
3
74
0
42
0.000000001
43
0.0000000001
44
0.0000000001
40
0
40
0
40
0
40
1
40
1
40
1
10
331.36684939265257
20
0.71983242035073558
30
0
10
332.0603327453137
20
0.71983242035061568
30
0
10
332.60124728083616
20
0.35922193527361812
30
0
0
SPLINE
5
139
100
AcDbEntity
8
0
100
AcDbSpline
70
0
71
2
72
6
73
3
74
0
42
0.000000001
43
0.0000000001
44
0.0000000001
40
0
40
0
40
0
40
1
40
1
40
1
10
332.60124728083616
20
0.35922193527361812
30
0
10
333.14216181635862
20
-0.0013861656175884196
30
0
10
333.14216181635862
20
-0.77808713912833061
30
0
0
LINE
5
140
100
AcDbEntity
8
0
100
AcDbLine
10
333.14216181635862
20
-0.7780871391283305
30
0
11
333.14216181635857
21
-7.4632463455187104
31
0
0
LINE
5
141
100
AcDbEntity
8
0
100
AcDbLine
10
333.14216181635857
20
-7.4632463455187104
30
0
11
335.74965044856071
21
-7.4632463455191616
31
0
0
ENDSEC
0
SECTION
2
OBJECTS
0
DICTIONARY
5
C
100
AcDbDictionary
3
ACAD_GROUP
350
D
3
ACAD_MLINESTYLE
350
17
0
DICTIONARY
5
D
100
AcDbDictionary
0
DICTIONARY
5
1A
330
C
100
AcDbDictionary
0
DICTIONARY
5
17
100
AcDbDictionary
0
ENDSEC
0
EOF
