0
SECTION
2
HEADER
9
$INSUNITS
70
4
9
$ACADVER
1
AC1014
9
$HANDSEED
5
FFFF
0
ENDSEC
0
SECTION
2
TABLES
0
TABLE
2
VPORT
5
8
100
AcDbSymbolTable
0
ENDTAB
0
TABLE
2
LTYPE
5
5
100
AcDbSymbolTable
0
LTYPE
5
14
100
AcDbSymbolTableRecord
100
AcDbLinetypeTableRecord
2
BYBLOCK
70
0
0
LTYPE
5
15
100
AcDbSymbolTableRecord
100
AcDbLinetypeTableRecord
2
BYLAYER
70
0
0
ENDTAB
0
TABLE
2
LAYER
5
2
100
AcDbSymbolTable
70
2
0
LAYER
5
50
100
AcDbSymbolTableRecord
100
AcDbLayerTableRecord
2
0
70
0
6
CONTINUOUS
0
ENDTAB
0
TABLE
2
STYLE
5
3
100
AcDbSymbolTable
70
1
0
STYLE
5
11
100
AcDbSymbolTableRecord
100
AcDbTextStyleTableRecord
2
STANDARD
70
0
0
ENDTAB
0
TABLE
2
VIEW
5
6
100
AcDbSymbolTable
70
0
0
ENDTAB
0
TABLE
2
UCS
5
7
100
AcDbSymbolTable
70
0
0
ENDTAB
0
TABLE
2
APPID
5
9
100
AcDbSymbolTable
70
2
0
APPID
5
12
100
AcDbSymbolTableRecord
100
AcDbRegAppTableRecord
2
ACAD
70
0
0
ENDTAB
0
TABLE
2
DIMSTYLE
5
A
100
AcDbSymbolTable
70
1
0
ENDTAB
0
TABLE
2
BLOCK_RECORD
5
1
100
AcDbSymbolTable
70
1
0
BLOCK_RECORD
5
1F
100
AcDbSymbolTableRecord
100
AcDbBlockTableRecord
2
*MODEL_SPACE
0
BLOCK_RECORD
5
1B
100
AcDbSymbolTableRecord
100
AcDbBlockTableRecord
2
*PAPER_SPACE
0
ENDTAB
0
ENDSEC
0
SECTION
2
BLOCKS
0
BLOCK
5
20
100
AcDbEntity
100
AcDbBlockBegin
2
*MODEL_SPACE
0
ENDBLK
5
21
100
AcDbEntity
100
AcDbBlockEnd
0
BLOCK
5
1C
100
AcDbEntity
100
AcDbBlockBegin
2
*PAPER_SPACE
0
ENDBLK
5
1D
100
AcDbEntity
100
AcDbBlockEnd
0
ENDSEC
0
SECTION
2
ENTITIES
0
LWPOLYLINE
5
100
100
AcDbEntity
8
0
100
AcDbPolyline
90
12
70
1
43
0.0
10
353
20
-70
42
-0.41421356237309681
10
350
20
-67.000000000000014
10
350
20
-45.000000000000014
42
-0.41421356237310336
10
355
20
-40.000000000000014
10
375
20
-40.000000000000014
42
-0.41421356237310336
10
380
20
-45.000000000000014
10
380
20
-67.000000000000014
42
-0.41421356237309681
10
377
20
-70.000000000000014
10
375
20
-70.000000000000014
10
375
20
-83.0000000000216
10
354.99999999984374
20
-83.00000000003422
10
354.99999999999721
20
-70.00000000003422
0
SPLINE
5
101
100
AcDbEntity
8
0
100
AcDbSpline
70
0
71
2
72
6
73
3
74
0
42
0.000000001
43
0.0000000001
44
0.0000000001
40
0
40
0
40
0
40
1
40
1
40
1
10
359.11927849054405
20
-46.302360296242675
30
0
10
358.48127633333274
20
-46.302360296242469
30
0
10
358.48127633333274
20
-46.940363645546668
30
0
0
LINE
5
102
100
AcDbEntity
8
0
100
AcDbLine
10
358.48127633333274
20
-46.940363645546668
30
0
11
358.48127633333257
21
-51.600556373589271
31
0
0
SPLINE
5
103
100
AcDbEntity
8
0
100
AcDbSpline
70
0
71
2
72
6
73
3
74
0
42
0.000000001
43
0.0000000001
44
0.0000000001
40
0
40
0
40
0
40
1
40
1
40
1
10
358.48127633333257
20
-51.600556373589271
30
0
10
358.48127633333252
20
-52.23855972289347
30
0
10
359.11927849054382
20
-52.238559722893676
30
0
0
SPLINE
5
104
100
AcDbEntity
8
0
100
AcDbSpline
70
0
71
2
72
6
73
3
74
0
42
0.000000001
43
0.0000000001
44
0.0000000001
40
0
40
0
40
0
40
1
40
1
40
1
10
359.11927849054382
20
-52.238559722893676
30
0
10
361.47711545229004
20
-52.238559722894436
30
0
10
363.62690716981933
20
-52.113733291620726
30
0
0
SPLINE
5
105
100
AcDbEntity
8
0
100
AcDbSpline
70
0
71
2
72
6
73
3
74
0
42
0.000000001
43
0.0000000001
44
0.0000000001
40
0
40
0
40
0
40
1
40
1
40
1
10
363.62690716981933
20
-52.113733291620726
30
0
10
365.77669888734869
20
-51.988906860347008
30
0
10
367.80166417360357
20
-51.711513996120367
30
0
0
SPLINE
5
106
100
AcDbEntity
8
0
100
AcDbSpline
70
0
71
2
72
6
73
3
74
0
42
0.000000001
43
0.0000000001
44
0.0000000001
40
0
40
0
40
0
40
1
40
1
40
1
10
367.80166417360357
20
-51.711513996120367
30
0
10
368.43966633081487
20
-51.628296375270963
30
0
10
368.81414562463806
20
-51.988906860347996
30
0
0
SPLINE
5
107
100
AcDbEntity
8
0
100
AcDbSpline
70
0
71
2
72
6
73
3
74
0
42
0.000000001
43
0.0000000001
44
0.0000000001
40
0
40
0
40
0
40
1
40
1
40
1
10
368.81414562463806
20
-51.988906860347996
30
0
10
369.18862730264709
20
-52.349516153332125
30
0
10
369.24410492181823
20
-52.959779500957879
30
0
0
SPLINE
5
108
100
AcDbEntity
8
0
100
AcDbSpline
70
0
71
2
72
6
73
3
74
0
42
0.000000001
43
0.0000000001
44
0.0000000001
40
0
40
0
40
0
40
1
40
1
40
1
10
369.24410492181823
20
-52.959779500957879
30
0
10
369.29958492517517
20
-53.597782850262092
30
0
10
369.0776696801189
20
-54.069349765774106
30
0
0
SPLINE
5
109
100
AcDbEntity
8
0
100
AcDbSpline
70
0
71
2
72
6
73
3
74
0
42
0.000000001
43
0.0000000001
44
0.0000000001
40
0
40
0
40
0
40
1
40
1
40
1
10
369.0776696801189
20
-54.069349765774106
30
0
10
368.85575443506275
20
-54.54091668128612
30
0
10
368.24549347162281
20
-54.624135494228419
30
0
0
SPLINE
5
110
100
AcDbEntity
8
0
100
AcDbSpline
70
0
71
2
72
6
73
3
74
0
42
0.000000001
43
0.0000000001
44
0.0000000001
40
0
40
0
40
0
40
1
40
1
40
1
10
368.24549347162281
20
-54.624135494228419
30
0
10
367.38557606935535
20
-54.735091924663323
30
0
10
366.34535342454944
20
-54.832179546351831
30
0
0
SPLINE
5
111
100
AcDbEntity
8
0
100
AcDbSpline
70
0
71
2
72
6
73
3
74
0
42
0.000000001
43
0.0000000001
44
0.0000000001
40
0
40
0
40
0
40
1
40
1
40
1
10
366.34535342454944
20
-54.832179546351831
30
0
10
365.30513197183643
20
-54.92926716804034
30
0
10
363.97364765405689
20
-55.012484788889523
30
0
0
SPLINE
5
112
100
AcDbEntity
8
0
100
AcDbSpline
70
0
71
2
72
6
73
3
74
0
42
0.000000001
43
0.0000000001
44
0.0000000001
40
0
40
0
40
0
40
1
40
1
40
1
10
363.97364765405689
20
-55.012484788889523
30
0
10
362.64216333627735
20
-55.095702409738692
30
0
10
360.9916785359386
20
-55.137311220162964
30
0
0
SPLINE
5
113
100
AcDbEntity
8
0
100
AcDbSpline
70
0
71
2
72
6
73
3
74
0
42
0.000000001
43
0.0000000001
44
0.0000000001
40
0
40
0
40
0
40
1
40
1
40
1
10
360.9916785359386
20
-55.137311220162964
30
0
10
359.34119373559986
20
-55.178920030587228
30
0
10
357.28848844766651
20
-55.178920030586568
30
0
0
SPLINE
5
114
100
AcDbEntity
8
0
100
AcDbSpline
70
0
71
2
72
6
73
3
74
0
42
0.000000001
43
0.0000000001
44
0.0000000001
40
0
40
0
40
0
40
1
40
1
40
1
10
357.28848844766651
20
-55.178920030586568
30
0
10
355.95700472593342
20
-55.178920030586134
30
0
10
355.44382840395008
20
-54.679613113395419
30
0
0
SPLINE
5
115
100
AcDbEntity
8
0
100
AcDbSpline
70
0
71
2
72
6
73
3
74
0
42
0.000000001
43
0.0000000001
44
0.0000000001
40
0
40
0
40
0
40
1
40
1
40
1
10
355.44382840395008
20
-54.679613113395419
30
0
10
354.93065267801319
20
-54.180307388297599
30
0
10
354.9306526780133
20
-52.87656188010363
30
0
0
LINE
5
116
100
AcDbEntity
8
0
100
AcDbLine
10
354.9306526780133
20
-52.87656188010363
30
0
11
354.93065267801353
21
-45.664356946937126
31
0
0
SPLINE
5
117
100
AcDbEntity
8
0
100
AcDbSpline
70
0
71
2
72
6
73
3
74
0
42
0.000000001
43
0.0000000001
44
0.0000000001
40
0
40
0
40
0
40
1
40
1
40
1
10
354.93065267801353
20
-45.664356946937126
30
0
10
354.93065267801364
20
-44.360612630836052
30
0
10
355.44382840395053
20
-43.861305713645663
30
0
0
SPLINE
5
118
100
AcDbEntity
8
0
100
AcDbSpline
70
0
71
2
72
6
73
3
74
0
42
0.000000001
43
0.0000000001
44
0.0000000001
40
0
40
0
40
0
40
1
40
1
40
1
10
355.44382840395053
20
-43.861305713645663
30
0
10
355.95700472593393
20
-43.361997604362379
30
0
10
357.28848844766702
20
-43.361997604362813
30
0
0
LINE
5
119
100
AcDbEntity
8
0
100
AcDbLine
10
357.28848844766702
20
-43.361997604362813
30
0
11
365.83217769861307
21
-43.361997604365584
31
0
0
SPLINE
5
120
100
AcDbEntity
8
0
100
AcDbSpline
70
0
71
2
72
6
73
3
74
0
42
0.000000001
43
0.0000000001
44
0.0000000001
40
0
40
0
40
0
40
1
40
1
40
1
10
365.83217769861307
20
-43.361997604365577
30
0
10
366.47018104791727
20
-43.361997604365783
30
0
10
366.77531272173013
20
-43.805825710292403
30
0
0
SPLINE
5
121
100
AcDbEntity
8
0
100
AcDbSpline
70
0
71
2
72
6
73
3
74
0
42
0.000000001
43
0.0000000001
44
0.0000000001
40
0
40
0
40
0
40
1
40
1
40
1
10
366.77531272173013
20
-43.805825710292403
30
0
10
367.08044439554294
20
-44.249655008311912
30
0
10
367.08044439554294
20
-44.832180738444968
30
0
0
SPLINE
5
122
100
AcDbEntity
8
0
100
AcDbSpline
70
0
71
2
72
6
73
3
74
0
42
0.000000001
43
0.0000000001
44
0.0000000001
40
0
40
0
40
0
40
1
40
1
40
1
10
367.08044439554294
20
-44.832180738444968
30
0
10
367.08044439554283
20
-45.414704084392234
30
0
10
366.77531272172996
20
-45.858532190318648
30
0
0
SPLINE
5
123
100
AcDbEntity
8
0
100
AcDbSpline
70
0
71
2
72
6
73
3
74
0
42
0.000000001
43
0.0000000001
44
0.0000000001
40
0
40
0
40
0
40
1
40
1
40
1
10
366.77531272172996
20
-45.858532190318648
30
0
10
366.47018104791709
20
-46.302360296245055
30
0
10
365.8321776986129
20
-46.302360296244849
30
0
0
LINE
5
124
100
AcDbEntity
8
0
100
AcDbLine
10
365.8321776986129
20
-46.302360296244849
30
0
11
359.11927849054405
21
-46.302360296242675
31
0
0
SPLINE
5
125
100
AcDbEntity
8
0
100
AcDbSpline
70
0
71
2
72
6
73
3
74
0
42
0.000000001
43
0.0000000001
44
0.0000000001
40
0
40
0
40
0
40
1
40
1
40
1
10
371.54646307230081
20
-43.778088092801269
30
0
10
371.54646307230081
20
-43.001387119290527
30
0
10
372.08737999200906
20
-42.640779018399584
30
0
0
SPLINE
5
126
100
AcDbEntity
8
0
100
AcDbSpline
70
0
71
2
72
6
73
3
74
0
42
0.000000001
43
0.0000000001
44
0.0000000001
40
0
40
0
40
0
40
1
40
1
40
1
10
372.08737999200906
20
-42.640779018399584
30
0
10
372.62829452753152
20
-42.280168533322858
30
0
10
373.32177311182107
20
-42.280168533323078
30
0
0
SPLINE
5
127
100
AcDbEntity
8
0
100
AcDbSpline
70
0
71
2
72
6
73
3
74
0
42
0.000000001
43
0.0000000001
44
0.0000000001
40
0
40
0
40
0
40
1
40
1
40
1
10
373.32177311182107
20
-42.280168533323078
30
0
10
373.98751884698953
20
-42.280168533323305
30
0
10
374.52843338251199
20
-42.64077901840038
30
0
0
SPLINE
5
128
100
AcDbEntity
8
0
100
AcDbSpline
70
0
71
2
72
6
73
3
74
0
42
0.000000001
43
0.0000000001
44
0.0000000001
40
0
40
0
40
0
40
1
40
1
40
1
10
374.52843338251199
20
-42.64077901840038
30
0
10
375.06934791803445
20
-43.001387119291664
30
0
10
375.06934791803445
20
-43.778088092802406
30
0
0
LINE
5
129
100
AcDbEntity
8
0
100
AcDbLine
10
375.06934791803445
20
-43.778088092802406
30
0
11
375.06934791803405
21
-54.180307388304115
31
0
0
SPLINE
5
130
100
AcDbEntity
8
0
100
AcDbSpline
70
0
71
2
72
6
73
3
74
0
42
0.000000001
43
0.0000000001
44
0.0000000001
40
0
40
0
40
0
40
1
40
1
40
1
10
375.06934791803394
20
-54.180307388304115
30
0
10
375.06934791803394
20
-54.957005977629066
30
0
10
374.52843338251142
20
-55.3176164627058
30
0
0
SPLINE
5
131
100
AcDbEntity
8
0
100
AcDbSpline
70
0
71
2
72
6
73
3
74
0
42
0.000000001
43
0.0000000001
44
0.0000000001
40
0
40
0
40
0
40
1
40
1
40
1
10
374.52843338251142
20
-55.3176164627058
30
0
10
373.98751884698896
20
-55.678226947782534
30
0
10
373.32177311182051
20
-55.678226947782306
30
0
0
SPLINE
5
132
100
AcDbEntity
8
0
100
AcDbSpline
70
0
71
2
72
6
73
3
74
0
42
0.000000001
43
0.0000000001
44
0.0000000001
40
0
40
0
40
0
40
1
40
1
40
1
10
373.32177311182051
20
-55.678226947782306
30
0
10
372.62829452753095
20
-55.678226947782086
30
0
10
372.08737999200849
20
-55.317616462705004
30
0
0
SPLINE
5
133
100
AcDbEntity
8
0
100
AcDbSpline
70
0
71
2
72
6
73
3
74
0
42
0.000000001
43
0.0000000001
44
0.0000000001
40
0
40
0
40
0
40
1
40
1
40
1
10
372.08737999200849
20
-55.317616462705004
30
0
10
371.5464630723003
20
-54.957005977627929
30
0
10
371.5464630723003
20
-54.180307388302978
30
0
0
LINE
5
134
100
AcDbEntity
8
0
100
AcDbLine
10
371.5464630723003
20
-54.180307388302971
30
0
11
371.54646307230047
21
-50.407768487927612
31
0
0
LINE
5
135
100
AcDbEntity
8
0
100
AcDbLine
10
371.54646307230047
20
-50.407768487927612
30
0
11
366.69209510088018
21
-50.407768487926042
31
0
0
SPLINE
5
136
100
AcDbEntity
8
0
100
AcDbSpline
70
0
71
2
72
6
73
3
74
0
42
0.000000001
43
0.0000000001
44
0.0000000001
40
0
40
0
40
0
40
1
40
1
40
1
10
366.69209510088018
20
-50.407768487926035
30
0
10
366.05409175157598
20
-50.407768487925829
30
0
10
365.74896007776317
20
-49.963941574092118
30
0
0
SPLINE
5
137
100
AcDbEntity
8
0
100
AcDbSpline
70
0
71
2
72
6
73
3
74
0
42
0.000000001
43
0.0000000001
44
0.0000000001
40
0
40
0
40
0
40
1
40
1
40
1
10
365.74896007776317
20
-49.963941574092118
30
0
10
365.44382840395031
20
-49.520113468165505
30
0
10
365.44382840395031
20
-48.937588930125344
30
0
0
SPLINE
5
138
100
AcDbEntity
8
0
100
AcDbSpline
70
0
71
2
72
6
73
3
74
0
42
0.000000001
43
0.0000000001
44
0.0000000001
40
0
40
0
40
0
40
1
40
1
40
1
10
365.44382840395031
20
-48.937588930125344
30
0
10
365.44382840395036
20
-48.355064392085183
30
0
10
365.74896007776323
20
-47.911237478251664
30
0
0
SPLINE
5
139
100
AcDbEntity
8
0
100
AcDbSpline
70
0
71
2
72
6
73
3
74
0
42
0.000000001
43
0.0000000001
44
0.0000000001
40
0
40
0
40
0
40
1
40
1
40
1
10
365.74896007776323
20
-47.911237478251664
30
0
10
366.0540917515761
20
-47.467409372325243
30
0
10
366.69209510088029
20
-47.467409372325449
30
0
0
LINE
5
140
100
AcDbEntity
8
0
100
AcDbLine
10
366.69209510088029
20
-47.467409372325449
30
0
11
371.54646307230058
21
-47.467409372327019
31
0
0
LINE
5
141
100
AcDbEntity
8
0
100
AcDbLine
10
371.54646307230058
20
-47.467409372327019
30
0
11
371.54646307230081
21
-43.778088092801269
31
0
0
SPLINE
5
142
100
AcDbEntity
8
0
100
AcDbSpline
70
0
71
2
72
6
73
3
74
0
42
0.000000001
43
0.0000000001
44
0.0000000001
40
0
40
0
40
0
40
1
40
1
40
1
10
362.78085976839094
20
-56.704578399652675
30
0
10
363.47434073686628
20
-56.70457839965291
30
0
10
363.93203884363203
20
-56.80166721343479
30
0
0
SPLINE
5
143
100
AcDbEntity
8
0
100
AcDbSpline
70
0
71
2
72
6
73
3
74
0
42
0.000000001
43
0.0000000001
44
0.0000000001
40
0
40
0
40
0
40
1
40
1
40
1
10
363.93203884363203
20
-56.80166721343479
30
0
10
364.38973695039778
20
-56.898753643030879
30
0
10
364.66712862253212
20
-57.162275314326145
30
0
0
SPLINE
5
144
100
AcDbEntity
8
0
100
AcDbSpline
70
0
71
2
72
6
73
3
74
0
42
0.000000001
43
0.0000000001
44
0.0000000001
40
0
40
0
40
0
40
1
40
1
40
1
10
364.66712862253212
20
-57.162275314326145
30
0
10
364.94452148675941
20
-57.425799369807187
30
0
10
365.04160910844826
20
-57.869627475733729
30
0
0
SPLINE
5
145
100
AcDbEntity
8
0
100
AcDbSpline
70
0
71
2
72
6
73
3
74
0
42
0.000000001
43
0.0000000001
44
0.0000000001
40
0
40
0
40
0
40
1
40
1
40
1
10
365.04160910844826
20
-57.869627475733729
30
0
10
365.1386967301371
20
-58.313455581660278
30
0
10
365.13869673013699
20
-59.00693655013562
30
0
0
LINE
5
146
100
AcDbEntity
8
0
100
AcDbLine
10
365.13869673013699
20
-59.00693655013562
30
0
11
365.13869673013693
21
-61.392512321467407
31
0
0
SPLINE
5
147
100
AcDbEntity
8
0
100
AcDbSpline
70
0
71
2
72
6
73
3
74
0
42
0.000000001
43
0.0000000001
44
0.0000000001
40
0
40
0
40
0
40
1
40
1
40
1
10
365.13869673013693
20
-61.392512321467407
30
0
10
365.13869673013687
20
-62.085993289942749
30
0
10
365.04160910844803
20
-62.529821395869227
30
0
0
SPLINE
5
148
100
AcDbEntity
8
0
100
AcDbSpline
70
0
71
2
72
6
73
3
74
0
42
0.000000001
43
0.0000000001
44
0.0000000001
40
0
40
0
40
0
40
1
40
1
40
1
10
365.04160910844803
20
-62.529821395869227
30
0
10
364.94452148675919
20
-62.973649501795713
30
0
10
364.66712862253189
20
-63.237171173090793
30
0
0
SPLINE
5
149
100
AcDbEntity
8
0
100
AcDbSpline
70
0
71
2
72
6
73
3
74
0
42
0.000000001
43
0.0000000001
44
0.0000000001
40
0
40
0
40
0
40
1
40
1
40
1
10
364.66712862253189
20
-63.237171173090793
30
0
10
364.38973695039749
20
-63.500695228571651
30
0
10
363.93203884363169
20
-63.597781658167456
30
0
0
SPLINE
5
150
100
AcDbEntity
8
0
100
AcDbSpline
70
0
71
2
72
6
73
3
74
0
42
0.000000001
43
0.0000000001
44
0.0000000001
40
0
40
0
40
0
40
1
40
1
40
1
10
363.93203884363169
20
-63.597781658167456
30
0
10
363.47434073686594
20
-63.694868087763261
30
0
10
362.7808597683906
20
-63.694868087763027
30
0
0
LINE
5
151
100
AcDbEntity
8
0
100
AcDbLine
10
362.78085976839054
20
-63.694868087763027
30
0
11
360.22884875535959
21
-63.694868087762202
31
0
0
SPLINE
5
152
100
AcDbEntity
8
0
100
AcDbSpline
70
0
71
2
72
6
73
3
74
0
42
0.000000001
43
0.0000000001
44
0.0000000001
40
0
40
0
40
0
40
1
40
1
40
1
10
360.22884875535959
20
-63.694868087762202
30
0
10
359.64632421731943
20
-63.694868087762018
30
0
10
359.64632421731943
20
-64.277393817895074
30
0
0
LINE
5
153
100
AcDbEntity
8
0
100
AcDbLine
10
359.64632421731943
20
-64.277393817895074
30
0
11
359.64632421731943
21
-64.748959541314264
31
0
0
SPLINE
5
154
100
AcDbEntity
8
0
100
AcDbSpline
70
0
71
2
72
6
73
3
74
0
42
0.000000001
43
0.0000000001
44
0.0000000001
40
0
40
0
40
0
40
1
40
1
40
1
10
359.64632421731943
20
-64.748959541314264
30
0
10
359.64632421731937
20
-65.33148527144732
30
0
10
360.22884875535954
20
-65.331485271447505
30
0
0
SPLINE
5
155
100
AcDbEntity
8
0
100
AcDbSpline
70
0
71
2
72
6
73
3
74
0
42
0.000000001
43
0.0000000001
44
0.0000000001
40
0
40
0
40
0
40
1
40
1
40
1
10
360.22884875535954
20
-65.331485271447505
30
0
10
361.39389783143986
20
-65.331485271447889
30
0
10
362.50346809625614
20
-65.276007652277102
30
0
0
SPLINE
5
156
100
AcDbEntity
8
0
100
AcDbSpline
70
0
71
2
72
6
73
3
74
0
42
0.000000001
43
0.0000000001
44
0.0000000001
40
0
40
0
40
0
40
1
40
1
40
1
10
362.50346809625614
20
-65.276007652277102
30
0
10
363.61303716897953
20
-65.220527648920523
30
0
10
364.41747575998301
20
-65.137310028071184
30
0
0
SPLINE
5
157
100
AcDbEntity
8
0
100
AcDbSpline
70
0
71
2
72
6
73
3
74
0
42
0.000000001
43
0.0000000001
44
0.0000000001
40
0
40
0
40
0
40
1
40
1
40
1
10
364.41747575998301
20
-65.137310028071184
30
0
10
365.02773910760874
20
-65.081832408900226
30
0
10
365.31900197267521
20
-65.456311702723568
30
0
0
SPLINE
5
158
100
AcDbEntity
8
0
100
AcDbSpline
70
0
71
2
72
6
73
3
74
0
42
0.000000001
43
0.0000000001
44
0.0000000001
40
0
40
0
40
0
40
1
40
1
40
1
10
365.31900197267521
20
-65.456311702723568
30
0
10
365.61026364564884
20
-65.830790996546909
30
0
10
365.66574245691288
20
-66.385576725001513
30
0
0
SPLINE
5
159
100
AcDbEntity
8
0
100
AcDbSpline
70
0
71
2
72
6
73
3
74
0
42
0.000000001
43
0.0000000001
44
0.0000000001
40
0
40
0
40
0
40
1
40
1
40
1
10
365.66574245691288
20
-66.385576725001513
30
0
10
365.72122126817681
20
-66.940362453456117
30
0
10
365.47156721353508
20
-67.356450557704079
30
0
0
SPLINE
5
160
100
AcDbEntity
8
0
100
AcDbSpline
70
0
71
2
72
6
73
3
74
0
42
0.000000001
43
0.0000000001
44
0.0000000001
40
0
40
0
40
0
40
1
40
1
40
1
10
365.47156721353508
20
-67.356450557704079
30
0
10
365.22191435098625
20
-67.772538661952055
30
0
10
364.63938981294609
20
-67.85575628280148
30
0
0
SPLINE
5
161
100
AcDbEntity
8
0
100
AcDbSpline
70
0
71
2
72
6
73
3
74
0
42
0.000000001
43
0.0000000001
44
0.0000000001
40
0
40
0
40
0
40
1
40
1
40
1
10
364.63938981294609
20
-67.85575628280148
30
0
10
363.89043003320671
20
-67.9667139053293
30
0
10
362.44798928499199
20
-68.036062717432117
30
0
0
SPLINE
5
162
100
AcDbEntity
8
0
100
AcDbSpline
70
0
71
2
72
6
73
3
74
0
42
0.000000001
43
0.0000000001
44
0.0000000001
40
0
40
0
40
0
40
1
40
1
40
1
10
362.44798928499199
20
-68.036062717432117
30
0
10
361.00554853677727
20
-68.105409145349128
30
0
10
358.7864080071447
20
-68.105409145348403
30
0
0
SPLINE
5
163
100
AcDbEntity
8
0
100
AcDbSpline
70
0
71
2
72
6
73
3
74
0
42
0.000000001
43
0.0000000001
44
0.0000000001
40
0
40
0
40
0
40
1
40
1
40
1
10
358.7864080071447
20
-68.105409145348403
30
0
10
357.42718487977959
20
-68.105409145347963
30
0
10
356.92787855863548
20
-67.619972228996488
30
0
0
SPLINE
5
164
100
AcDbEntity
8
0
100
AcDbSpline
70
0
71
2
72
6
73
3
74
0
42
0.000000001
43
0.0000000001
44
0.0000000001
40
0
40
0
40
0
40
1
40
1
40
1
10
356.92787855863548
20
-67.619972228996488
30
0
10
356.42857164144493
20
-67.134535312644999
30
0
10
356.42857164144505
20
-65.803053379051249
30
0
0
LINE
5
165
100
AcDbEntity
8
0
100
AcDbLine
10
356.42857164144505
20
-65.803053379051249
30
0
11
356.4285716414451
21
-63.417477607719462
31
0
0
SPLINE
5
166
100
AcDbEntity
8
0
100
AcDbSpline
70
0
71
2
72
6
73
3
74
0
42
0.000000001
43
0.0000000001
44
0.0000000001
40
0
40
0
40
0
40
1
40
1
40
1
10
356.42857164144516
20
-63.417477607719462
30
0
10
356.42857164144516
20
-62.72399663924412
30
0
10
356.525659263134
20
-62.280168533317649
30
0
0
SPLINE
5
167
100
AcDbEntity
8
0
100
AcDbSpline
70
0
71
2
72
6
73
3
74
0
42
0.000000001
43
0.0000000001
44
0.0000000001
40
0
40
0
40
0
40
1
40
1
40
1
10
356.525659263134
20
-62.280168533317649
30
0
10
356.62274628877645
20
-61.836340427391164
30
0
10
356.90013915300375
20
-61.572816371910299
30
0
0
SPLINE
5
168
100
AcDbEntity
8
0
100
AcDbSpline
70
0
71
2
72
6
73
3
74
0
42
0.000000001
43
0.0000000001
44
0.0000000001
40
0
40
0
40
0
40
1
40
1
40
1
10
356.90013915300375
20
-61.572816371910299
30
0
10
357.1775314211846
20
-61.309294700615226
30
0
10
357.62135952711111
20
-61.21220588683363
30
0
0
SPLINE
5
169
100
AcDbEntity
8
0
100
AcDbSpline
70
0
71
2
72
6
73
3
74
0
42
0.000000001
43
0.0000000001
44
0.0000000001
40
0
40
0
40
0
40
1
40
1
40
1
10
357.62135952711111
20
-61.21220588683363
30
0
10
358.06518703699118
20
-61.115119457237824
30
0
10
358.78640800714498
20
-61.115119457238052
30
0
0
LINE
5
170
100
AcDbEntity
8
0
100
AcDbLine
10
358.78640800714504
20
-61.115119457238052
30
0
11
361.33841902017599
21
-61.115119457238876
31
0
0
SPLINE
5
171
100
AcDbEntity
8
0
100
AcDbSpline
70
0
71
2
72
6
73
3
74
0
42
0.000000001
43
0.0000000001
44
0.0000000001
40
0
40
0
40
0
40
1
40
1
40
1
10
361.33841902017599
20
-61.11511945723889
30
0
10
361.92094355821615
20
-61.115119457239061
30
0
10
361.92094355821615
20
-60.532593727106004
30
0
0
LINE
5
172
100
AcDbEntity
8
0
100
AcDbLine
10
361.92094355821615
20
-60.532593727106004
30
0
11
361.92094355821615
21
-60.061028003686815
31
0
0
SPLINE
5
173
100
AcDbEntity
8
0
100
AcDbSpline
70
0
71
2
72
6
73
3
74
0
42
0.000000001
43
0.0000000001
44
0.0000000001
40
0
40
0
40
0
40
1
40
1
40
1
10
361.92094355821621
20
-60.061028003686815
30
0
10
361.92094355821621
20
-59.478502273553758
30
0
10
361.33841902017605
20
-59.478502273553588
30
0
0
LINE
5
174
100
AcDbEntity
8
0
100
AcDbLine
10
361.33841902017605
20
-59.478502273553588
30
0
11
357.53814190626156
21
-59.478502273552351
31
0
0
SPLINE
5
175
100
AcDbEntity
8
0
100
AcDbSpline
70
0
71
2
72
6
73
3
74
0
42
0.000000001
43
0.0000000001
44
0.0000000001
40
0
40
0
40
0
40
1
40
1
40
1
10
357.53814190626156
20
-59.478502273552351
30
0
10
356.92787855863583
20
-59.478502273552145
30
0
10
356.65048569440853
20
-59.062414169304006
30
0
0
SPLINE
5
176
100
AcDbEntity
8
0
100
AcDbSpline
70
0
71
2
72
6
73
3
74
0
42
0.000000001
43
0.0000000001
44
0.0000000001
40
0
40
0
40
0
40
1
40
1
40
1
10
356.65048569440853
20
-59.062414169304006
30
0
10
356.37309342622768
20
-58.646326065055874
30
0
10
356.3730934262278
20
-58.091540336601284
30
0
0
SPLINE
5
177
100
AcDbEntity
8
0
100
AcDbSpline
70
0
71
2
72
6
73
3
74
0
42
0.000000001
43
0.0000000001
44
0.0000000001
40
0
40
0
40
0
40
1
40
1
40
1
10
356.3730934262278
20
-58.091540336601284
30
0
10
356.3730934262278
20
-57.536754608146694
30
0
10
356.65048569440864
20
-57.120666503898732
30
0
0
SPLINE
5
178
100
AcDbEntity
8
0
100
AcDbSpline
70
0
71
2
72
6
73
3
74
0
42
0.000000001
43
0.0000000001
44
0.0000000001
40
0
40
0
40
0
40
1
40
1
40
1
10
356.65048569440864
20
-57.120666503898732
30
0
10
356.927878558636
20
-56.704578399650778
30
0
10
357.53814190626173
20
-56.704578399650984
30
0
0
LINE
5
179
100
AcDbEntity
8
0
100
AcDbLine
10
357.53814190626173
20
-56.704578399650984
30
0
11
362.78085976839094
21
-56.704578399652675
31
0
0
LINE
5
180
100
AcDbEntity
8
0
100
AcDbLine
10
369.63245540857321
20
-60.255203247067008
30
0
11
371.96255356073385
21
-60.255203247067762
31
0
0
LINE
5
181
100
AcDbEntity
8
0
100
AcDbLine
10
371.96255356073385
20
-60.255203247067762
30
0
11
371.96255356073391
21
-57.952845096585584
31
0
0
SPLINE
5
182
100
AcDbEntity
8
0
100
AcDbSpline
70
0
71
2
72
6
73
3
74
0
42
0.000000001
43
0.0000000001
44
0.0000000001
40
0
40
0
40
0
40
1
40
1
40
1
10
371.96255356073402
20
-57.952845096585584
30
0
10
371.96255356073402
20
-57.287101745602918
30
0
10
372.44798809289955
20
-56.968102455136759
30
0
0
SPLINE
5
183
100
AcDbEntity
8
0
100
AcDbSpline
70
0
71
2
72
6
73
3
74
0
42
0.000000001
43
0.0000000001
44
0.0000000001
40
0
40
0
40
0
40
1
40
1
40
1
10
372.44798809289955
20
-56.968102455136759
30
0
10
372.93342739343672
20
-56.649100780484822
30
0
10
373.51595073938398
20
-56.649100780485014
30
0
0
SPLINE
5
184
100
AcDbEntity
8
0
100
AcDbSpline
70
0
71
2
72
6
73
3
74
0
42
0.000000001
43
0.0000000001
44
0.0000000001
40
0
40
0
40
0
40
1
40
1
40
1
10
373.51595073938398
20
-56.649100780485014
30
0
10
374.09847408533125
20
-56.649100780485199
30
0
10
374.58390861749672
20
-56.968102455137455
30
0
0
SPLINE
5
185
100
AcDbEntity
8
0
100
AcDbSpline
70
0
71
2
72
6
73
3
74
0
42
0.000000001
43
0.0000000001
44
0.0000000001
40
0
40
0
40
0
40
1
40
1
40
1
10
374.58390861749672
20
-56.968102455137455
30
0
10
375.06934791803383
20
-57.28710174560392
30
0
10
375.06934791803383
20
-57.952845096586586
30
0
0
LINE
5
186
100
AcDbEntity
8
0
100
AcDbLine
10
375.06934791803383
20
-57.9528450965866
30
0
11
375.06934791803349
21
-65.747573375700355
31
0
0
SPLINE
5
187
100
AcDbEntity
8
0
100
AcDbSpline
70
0
71
2
72
6
73
3
74
0
42
0.000000001
43
0.0000000001
44
0.0000000001
40
0
40
0
40
0
40
1
40
1
40
1
10
375.06934791803349
20
-65.747573375700355
30
0
10
375.06934791803349
20
-66.441054344175697
30
0
10
374.97225910425163
20
-66.884882450102182
30
0
0
SPLINE
5
188
100
AcDbEntity
8
0
100
AcDbSpline
70
0
71
2
72
6
73
3
74
0
42
0.000000001
43
0.0000000001
44
0.0000000001
40
0
40
0
40
0
40
1
40
1
40
1
10
374.97225910425163
20
-66.884882450102182
30
0
10
374.8751702904699
20
-67.328710556028668
30
0
10
374.59777981042839
20
-67.592234611509539
30
0
0
SPLINE
5
189
100
AcDbEntity
8
0
100
AcDbSpline
70
0
71
2
72
6
73
3
74
0
42
0.000000001
43
0.0000000001
44
0.0000000001
40
0
40
0
40
0
40
1
40
1
40
1
10
374.59777981042839
20
-67.592234611509539
30
0
10
374.32038933038689
20
-67.855756282804606
30
0
10
373.86268764734245
20
-67.952845096586202
30
0
0
SPLINE
5
190
100
AcDbEntity
8
0
100
AcDbSpline
70
0
71
2
72
6
73
3
74
0
42
0.000000001
43
0.0000000001
44
0.0000000001
40
0
40
0
40
0
40
1
40
1
40
1
10
373.86268764734245
20
-67.952845096586202
30
0
10
373.4049907326696
20
-68.049931526182007
30
0
10
372.71151214838005
20
-68.04993152618178
30
0
0
LINE
5
191
100
AcDbEntity
8
0
100
AcDbLine
10
372.71151214838005
20
-68.04993152618178
30
0
11
368.88349682092644
21
-68.049931526180529
31
0
0
SPLINE
5
192
100
AcDbEntity
8
0
100
AcDbSpline
70
0
71
2
72
6
73
3
74
0
42
0.000000001
43
0.0000000001
44
0.0000000001
40
0
40
0
40
0
40
1
40
1
40
1
10
368.88349682092644
20
-68.049931526180529
30
0
10
368.16227585077263
20
-68.049931526180302
30
0
10
367.71844655275322
20
-67.952845096584213
30
0
0
SPLINE
5
193
100
AcDbEntity
8
0
100
AcDbSpline
70
0
71
2
72
6
73
3
74
0
42
0.000000001
43
0.0000000001
44
0.0000000001
40
0
40
0
40
0
40
1
40
1
40
1
10
367.71844655275322
20
-67.952845096584213
30
0
10
367.27461844682671
20
-67.855756282802332
30
0
10
366.99722677469231
20
-67.592234611507081
30
0
0
SPLINE
5
194
100
AcDbEntity
8
0
100
AcDbSpline
70
0
71
2
72
6
73
3
74
0
42
0.000000001
43
0.0000000001
44
0.0000000001
40
0
40
0
40
0
40
1
40
1
40
1
10
366.99722677469231
20
-67.592234611507081
30
0
10
366.71983391046501
20
-67.328710556026024
30
0
10
366.62274628877617
20
-66.884882450099482
30
0
0
SPLINE
5
195
100
AcDbEntity
8
0
100
AcDbSpline
70
0
71
2
72
6
73
3
74
0
42
0.000000001
43
0.0000000001
44
0.0000000001
40
0
40
0
40
0
40
1
40
1
40
1
10
366.62274628877617
20
-66.884882450099482
30
0
10
366.52565866708744
20
-66.441054344172926
30
0
10
366.52565866708744
20
-65.747573375697584
30
0
0
LINE
5
196
100
AcDbEntity
8
0
100
AcDbLine
10
366.52565866708744
20
-65.747573375697584
30
0
11
366.52565866708778
21
-57.952845096583815
31
0
0
SPLINE
5
197
100
AcDbEntity
8
0
100
AcDbSpline
70
0
71
2
72
6
73
3
74
0
42
0.000000001
43
0.0000000001
44
0.0000000001
40
0
40
0
40
0
40
1
40
1
40
1
10
366.52565866708778
20
-57.952845096583815
30
0
10
366.52565866708778
20
-57.287101745601149
30
0
10
367.01109558343916
20
-56.968102455135003
30
0
0
SPLINE
5
198
100
AcDbEntity
8
0
100
AcDbSpline
70
0
71
2
72
6
73
3
74
0
42
0.000000001
43
0.0000000001
44
0.0000000001
40
0
40
0
40
0
40
1
40
1
40
1
10
367.01109558343916
20
-56.968102455135003
30
0
10
367.49653249979048
20
-56.649100780483067
30
0
10
368.07905822992353
20
-56.649100780483252
30
0
0
SPLINE
5
199
100
AcDbEntity
8
0
100
AcDbSpline
70
0
71
2
72
6
73
3
74
0
42
0.000000001
43
0.0000000001
44
0.0000000001
40
0
40
0
40
0
40
1
40
1
40
1
10
368.07905822992353
20
-56.649100780483252
30
0
10
368.6615815758708
20
-56.649100780483437
30
0
10
369.14701849222206
20
-56.968102455135693
30
0
0
SPLINE
5
200
100
AcDbEntity
8
0
100
AcDbSpline
70
0
71
2
72
6
73
3
74
0
42
0.000000001
43
0.0000000001
44
0.0000000001
40
0
40
0
40
0
40
1
40
1
40
1
10
369.14701849222206
20
-56.968102455135693
30
0
10
369.63245540857338
20
-57.287101745602165
30
0
10
369.63245540857338
20
-57.952845096584831
30
0
0
LINE
5
201
100
AcDbEntity
8
0
100
AcDbLine
10
369.63245540857338
20
-57.952845096584838
30
0
11
369.63245540857321
21
-60.255203247067008
31
0
0
SPLINE
5
202
100
AcDbEntity
8
0
100
AcDbSpline
70
0
71
2
72
6
73
3
74
0
42
0.000000001
43
0.0000000001
44
0.0000000001
40
0
40
0
40
0
40
1
40
1
40
1
10
371.35228782892216
20
-65.386962890622243
30
0
10
371.71289831399906
20
-65.386962890622371
30
0
10
371.83772474527348
20
-65.262136459348
30
0
0
SPLINE
5
203
100
AcDbEntity
8
0
100
AcDbSpline
70
0
71
2
72
6
73
3
74
0
42
0.000000001
43
0.0000000001
44
0.0000000001
40
0
40
0
40
0
40
1
40
1
40
1
10
371.83772474527348
20
-65.262136459348
30
0
10
371.96255356073368
20
-65.137310028073628
30
0
10
371.96255356073374
20
-64.776699542996724
30
0
0
LINE
5
204
100
AcDbEntity
8
0
100
AcDbLine
10
371.96255356073374
20
-64.776699542996724
30
0
11
371.9625535607338
21
-62.86269187926991
31
0
0
LINE
5
205
100
AcDbEntity
8
0
100
AcDbLine
10
371.9625535607338
20
-62.86269187926991
30
0
11
369.63245540857315
21
-62.862691879269157
31
0
0
LINE
5
206
100
AcDbEntity
8
0
100
AcDbLine
10
369.63245540857315
20
-62.862691879269157
30
0
11
369.63245540857309
21
-64.776699542995971
31
0
0
SPLINE
5
207
100
AcDbEntity
8
0
100
AcDbSpline
70
0
71
2
72
6
73
3
74
0
42
0.000000001
43
0.0000000001
44
0.0000000001
40
0
40
0
40
0
40
1
40
1
40
1
10
369.63245540857309
20
-64.776699542995971
30
0
10
369.63245540857304
20
-65.137310028072875
30
0
10
369.75728183984745
20
-65.262136459347317
30
0
0
SPLINE
5
208
100
AcDbEntity
8
0
100
AcDbSpline
70
0
71
2
72
6
73
3
74
0
42
0.000000001
43
0.0000000001
44
0.0000000001
40
0
40
0
40
0
40
1
40
1
40
1
10
369.75728183984745
20
-65.262136459347317
30
0
10
369.88210827112187
20
-65.386962890621774
30
0
10
370.24271875619877
20
-65.386962890621888
30
0
0
LINE
5
209
100
AcDbEntity
8
0
100
AcDbLine
10
370.24271875619877
20
-65.386962890621888
30
0
11
371.35228782892216
21
-65.386962890622243
31
0
0
ENDSEC
0
SECTION
2
OBJECTS
0
DICTIONARY
5
C
100
AcDbDictionary
3
ACAD_GROUP
350
D
3
ACAD_MLINESTYLE
350
17
0
DICTIONARY
5
D
100
AcDbDictionary
0
DICTIONARY
5
1A
330
C
100
AcDbDictionary
0
DICTIONARY
5
17
100
AcDbDictionary
0
ENDSEC
0
EOF
