0
SECTION
2
HEADER
9
$INSUNITS
70
4
9
$ACADVER
1
AC1014
9
$HANDSEED
5
FFFF
0
ENDSEC
0
SECTION
2
TABLES
0
TABLE
2
VPORT
5
8
100
AcDbSymbolTable
0
ENDTAB
0
TABLE
2
LTYPE
5
5
100
AcDbSymbolTable
0
LTYPE
5
14
100
AcDbSymbolTableRecord
100
AcDbLinetypeTableRecord
2
BYBLOCK
70
0
0
LTYPE
5
15
100
AcDbSymbolTableRecord
100
AcDbLinetypeTableRecord
2
BYLAYER
70
0
0
ENDTAB
0
TABLE
2
LAYER
5
2
100
AcDbSymbolTable
70
2
0
LAYER
5
50
100
AcDbSymbolTableRecord
100
AcDbLayerTableRecord
2
0
70
0
6
CONTINUOUS
0
ENDTAB
0
TABLE
2
STYLE
5
3
100
AcDbSymbolTable
70
1
0
STYLE
5
11
100
AcDbSymbolTableRecord
100
AcDbTextStyleTableRecord
2
STANDARD
70
0
0
ENDTAB
0
TABLE
2
VIEW
5
6
100
AcDbSymbolTable
70
0
0
ENDTAB
0
TABLE
2
UCS
5
7
100
AcDbSymbolTable
70
0
0
ENDTAB
0
TABLE
2
APPID
5
9
100
AcDbSymbolTable
70
2
0
APPID
5
12
100
AcDbSymbolTableRecord
100
AcDbRegAppTableRecord
2
ACAD
70
0
0
ENDTAB
0
TABLE
2
DIMSTYLE
5
A
100
AcDbSymbolTable
70
1
0
ENDTAB
0
TABLE
2
BLOCK_RECORD
5
1
100
AcDbSymbolTable
70
1
0
BLOCK_RECORD
5
1F
100
AcDbSymbolTableRecord
100
AcDbBlockTableRecord
2
*MODEL_SPACE
0
BLOCK_RECORD
5
1B
100
AcDbSymbolTableRecord
100
AcDbBlockTableRecord
2
*PAPER_SPACE
0
ENDTAB
0
ENDSEC
0
SECTION
2
BLOCKS
0
BLOCK
5
20
100
AcDbEntity
100
AcDbBlockBegin
2
*MODEL_SPACE
0
ENDBLK
5
21
100
AcDbEntity
100
AcDbBlockEnd
0
BLOCK
5
1C
100
AcDbEntity
100
AcDbBlockBegin
2
*PAPER_SPACE
0
ENDBLK
5
1D
100
AcDbEntity
100
AcDbBlockEnd
0
ENDSEC
0
SECTION
2
ENTITIES
0
LWPOLYLINE
5
100
100
AcDbEntity
8
0
100
AcDbPolyline
90
12
70
1
43
0.0
10
353
20
106.00000000000001
42
-0.41421356237309681
10
350
20
109
10
350
20
131
42
-0.41421356237310336
10
355
20
136
10
375
20
136
42
-0.41421356237310336
10
380
20
131
10
380
20
109
42
-0.41421356237309681
10
377
20
106
10
375
20
106
10
375
20
92.999999999999858
10
354.99999999994725
20
92.999999999991445
10
355.00000000000307
20
105.99999999999147
0
SPLINE
5
101
100
AcDbEntity
8
0
100
AcDbSpline
70
0
71
2
72
6
73
3
74
0
42
0.000000001
43
0.0000000001
44
0.0000000001
40
0
40
0
40
0
40
1
40
1
40
1
10
360.53398154675932
20
129.58668327331543
30
0
10
359.89597819745512
20
129.58668327331543
30
0
10
359.89597819745512
20
128.94867992401123
30
0
0
LINE
5
102
100
AcDbEntity
8
0
100
AcDbLine
10
359.89597819745512
20
128.94867992401123
30
0
11
359.89597819745512
21
125.53675270080568
31
0
0
SPLINE
5
103
100
AcDbEntity
8
0
100
AcDbSpline
70
0
71
2
72
6
73
3
74
0
42
0.000000001
43
0.0000000001
44
0.0000000001
40
0
40
0
40
0
40
1
40
1
40
1
10
359.89597819745512
20
125.53675270080568
30
0
10
359.89597819745512
20
124.89874935150148
30
0
10
360.53398154675932
20
124.89874935150148
30
0
0
LINE
5
104
100
AcDbEntity
8
0
100
AcDbLine
10
360.53398154675932
20
124.89874935150148
30
0
11
372.62829326093168
21
124.89874935150144
31
0
0
SPLINE
5
105
100
AcDbEntity
8
0
100
AcDbSpline
70
0
71
2
72
6
73
3
74
0
42
0.000000001
43
0.0000000001
44
0.0000000001
40
0
40
0
40
0
40
1
40
1
40
1
10
372.62829326093168
20
124.89874935150144
30
0
10
373.26629661023588
20
124.89874935150144
30
0
10
373.57142947614165
20
124.45492124557492
30
0
0
SPLINE
5
106
100
AcDbEntity
8
0
100
AcDbSpline
70
0
71
2
72
6
73
3
74
0
42
0.000000001
43
0.0000000001
44
0.0000000001
40
0
40
0
40
0
40
1
40
1
40
1
10
373.57142947614165
20
124.45492124557492
30
0
10
373.87656234204741
20
124.01109313964841
30
0
10
373.87656234204741
20
123.40082979202268
30
0
0
SPLINE
5
107
100
AcDbEntity
8
0
100
AcDbSpline
70
0
71
2
72
6
73
3
74
0
42
0.000000001
43
0.0000000001
44
0.0000000001
40
0
40
0
40
0
40
1
40
1
40
1
10
373.87656234204741
20
123.40082979202268
30
0
10
373.87656234204746
20
122.79056644439694
30
0
10
373.5714294761417
20
122.34673833847043
30
0
0
SPLINE
5
108
100
AcDbEntity
8
0
100
AcDbSpline
70
0
71
2
72
6
73
3
74
0
42
0.000000001
43
0.0000000001
44
0.0000000001
40
0
40
0
40
0
40
1
40
1
40
1
10
373.5714294761417
20
122.34673833847043
30
0
10
373.26629661023594
20
121.90291023254392
30
0
10
372.62829326093174
20
121.90291023254392
30
0
0
LINE
5
109
100
AcDbEntity
8
0
100
AcDbLine
10
372.62829326093174
20
121.90291023254392
30
0
11
358.64771209657169
21
121.90291023254396
31
0
0
SPLINE
5
110
100
AcDbEntity
8
0
100
AcDbSpline
70
0
71
2
72
6
73
3
74
0
42
0.000000001
43
0.0000000001
44
0.0000000001
40
0
40
0
40
0
40
1
40
1
40
1
10
358.64771209657169
20
121.90291023254396
30
0
10
357.3162283748386
20
121.90291023254396
30
0
10
356.80305145680882
20
122.40221834182741
30
0
0
SPLINE
5
111
100
AcDbEntity
8
0
100
AcDbSpline
70
0
71
2
72
6
73
3
74
0
42
0.000000001
43
0.0000000001
44
0.0000000001
40
0
40
0
40
0
40
1
40
1
40
1
10
356.80305145680882
20
122.40221834182741
30
0
10
356.28987573087193
20
122.90152406692506
30
0
10
356.28987573087193
20
124.20526838302614
30
0
0
LINE
5
112
100
AcDbEntity
8
0
100
AcDbLine
10
356.28987573087193
20
124.20526838302615
30
0
11
356.28987573087193
21
130.28016424179077
31
0
0
SPLINE
5
113
100
AcDbEntity
8
0
100
AcDbSpline
70
0
71
2
72
6
73
3
74
0
42
0.000000001
43
0.0000000001
44
0.0000000001
40
0
40
0
40
0
40
1
40
1
40
1
10
356.28987573087187
20
130.28016424179077
30
0
10
356.28987573087187
20
131.58391094207764
30
0
10
356.80305145680876
20
132.08321666717529
30
0
0
SPLINE
5
114
100
AcDbEntity
8
0
100
AcDbSpline
70
0
71
2
72
6
73
3
74
0
42
0.000000001
43
0.0000000001
44
0.0000000001
40
0
40
0
40
0
40
1
40
1
40
1
10
356.80305145680876
20
132.08321666717529
30
0
10
357.31622837483854
20
132.58252239227295
30
0
10
358.64771209657164
20
132.58252239227295
30
0
0
LINE
5
115
100
AcDbEntity
8
0
100
AcDbLine
10
358.64771209657164
20
132.58252239227295
30
0
11
372.35090278089018
21
132.58252239227292
31
0
0
SPLINE
5
116
100
AcDbEntity
8
0
100
AcDbSpline
70
0
71
2
72
6
73
3
74
0
42
0.000000001
43
0.0000000001
44
0.0000000001
40
0
40
0
40
0
40
1
40
1
40
1
10
372.35090278089018
20
132.58252239227292
30
0
10
372.9889013618228
20
132.58252239227292
30
0
10
373.29403422772856
20
132.13869428634641
30
0
0
SPLINE
5
117
100
AcDbEntity
8
0
100
AcDbSpline
70
0
71
2
72
6
73
3
74
0
42
0.000000001
43
0.0000000001
44
0.0000000001
40
0
40
0
40
0
40
1
40
1
40
1
10
373.29403422772856
20
132.13869428634641
30
0
10
373.59916709363432
20
131.69486618041989
30
0
10
373.59916709363432
20
131.08460283279416
30
0
0
SPLINE
5
118
100
AcDbEntity
8
0
100
AcDbSpline
70
0
71
2
72
6
73
3
74
0
42
0.000000001
43
0.0000000001
44
0.0000000001
40
0
40
0
40
0
40
1
40
1
40
1
10
373.59916709363432
20
131.08460283279416
30
0
10
373.59916709363432
20
130.47433948516843
30
0
10
373.29403422772856
20
130.03051137924191
30
0
0
SPLINE
5
119
100
AcDbEntity
8
0
100
AcDbSpline
70
0
71
2
72
6
73
3
74
0
42
0.000000001
43
0.0000000001
44
0.0000000001
40
0
40
0
40
0
40
1
40
1
40
1
10
373.29403422772856
20
130.03051137924191
30
0
10
372.9889013618228
20
129.5866832733154
30
0
10
372.35090278089018
20
129.5866832733154
30
0
0
LINE
5
120
100
AcDbEntity
8
0
100
AcDbLine
10
372.35090278089018
20
129.5866832733154
30
0
11
360.53398154675932
21
129.58668327331543
31
0
0
SPLINE
5
121
100
AcDbEntity
8
0
100
AcDbSpline
70
0
71
2
72
6
73
3
74
0
42
0.000000001
43
0.0000000001
44
0.0000000001
40
0
40
0
40
0
40
1
40
1
40
1
10
354.51456390321232
20
116.27184486389162
30
0
10
353.87656114995457
20
116.27184486389162
30
0
10
353.5714294761417
20
116.71567058563234
30
0
0
SPLINE
5
122
100
AcDbEntity
8
0
100
AcDbSpline
70
0
71
2
72
6
73
3
74
0
42
0.000000001
43
0.0000000001
44
0.0000000001
40
0
40
0
40
0
40
1
40
1
40
1
10
353.5714294761417
20
116.71567058563234
30
0
10
353.26629750430561
20
117.15949869155885
30
0
10
353.26629750430561
20
117.76976203918458
30
0
0
SPLINE
5
123
100
AcDbEntity
8
0
100
AcDbSpline
70
0
71
2
72
6
73
3
74
0
42
0.000000001
43
0.0000000001
44
0.0000000001
40
0
40
0
40
0
40
1
40
1
40
1
10
353.26629750430561
20
117.76976203918458
30
0
10
353.26629750430561
20
118.38002538681032
30
0
10
353.5714294761417
20
118.82385349273683
30
0
0
SPLINE
5
124
100
AcDbEntity
8
0
100
AcDbSpline
70
0
71
2
72
6
73
3
74
0
42
0.000000001
43
0.0000000001
44
0.0000000001
40
0
40
0
40
0
40
1
40
1
40
1
10
353.5714294761417
20
118.82385349273683
30
0
10
353.87656114995457
20
119.26768159866334
30
0
10
354.51456390321232
20
119.26768159866334
30
0
0
LINE
5
125
100
AcDbEntity
8
0
100
AcDbLine
10
354.51456390321243
20
119.26768159866334
30
0
11
375.48543475568272
21
119.26768159866329
31
0
0
SPLINE
5
126
100
AcDbEntity
8
0
100
AcDbSpline
70
0
71
2
72
6
73
3
74
0
42
0.000000001
43
0.0000000001
44
0.0000000001
40
0
40
0
40
0
40
1
40
1
40
1
10
375.48543475568272
20
119.2676815986633
30
0
10
376.12343810498692
20
119.2676815986633
30
0
10
376.42857097089268
20
118.82385349273677
30
0
0
SPLINE
5
127
100
AcDbEntity
8
0
100
AcDbSpline
70
0
71
2
72
6
73
3
74
0
42
0.000000001
43
0.0000000001
44
0.0000000001
40
0
40
0
40
0
40
1
40
1
40
1
10
376.42857097089268
20
118.82385349273677
30
0
10
376.73370383679844
20
118.38002538681026
30
0
10
376.73370383679844
20
117.76976203918453
30
0
0
SPLINE
5
128
100
AcDbEntity
8
0
100
AcDbSpline
70
0
71
2
72
6
73
3
74
0
42
0.000000001
43
0.0000000001
44
0.0000000001
40
0
40
0
40
0
40
1
40
1
40
1
10
376.73370383679844
20
117.76976203918453
30
0
10
376.73370383679844
20
117.1594986915588
30
0
10
376.42857097089268
20
116.71567058563228
30
0
0
SPLINE
5
129
100
AcDbEntity
8
0
100
AcDbSpline
70
0
71
2
72
6
73
3
74
0
42
0.000000001
43
0.0000000001
44
0.0000000001
40
0
40
0
40
0
40
1
40
1
40
1
10
376.42857097089268
20
116.71567058563228
30
0
10
376.12343810498692
20
116.27184486389157
30
0
10
375.48543475568272
20
116.27184486389157
30
0
0
LINE
5
130
100
AcDbEntity
8
0
100
AcDbLine
10
375.48543475568272
20
116.27184486389157
30
0
11
366.77531264722325
21
116.2718448638916
31
0
0
LINE
5
131
100
AcDbEntity
8
0
100
AcDbLine
10
366.77531264722325
20
116.2718448638916
30
0
11
366.77531264722325
21
109.03189992904663
31
0
0
SPLINE
5
132
100
AcDbEntity
8
0
100
AcDbSpline
70
0
71
2
72
6
73
3
74
0
42
0.000000001
43
0.0000000001
44
0.0000000001
40
0
40
0
40
0
40
1
40
1
40
1
10
366.77531264722325
20
109.03189992904663
30
0
10
366.77531264722325
20
108.25520133972168
30
0
10
366.23439691960789
20
107.89459085464478
30
0
0
SPLINE
5
133
100
AcDbEntity
8
0
100
AcDbSpline
70
0
71
2
72
6
73
3
74
0
42
0.000000001
43
0.0000000001
44
0.0000000001
40
0
40
0
40
0
40
1
40
1
40
1
10
366.23439691960789
20
107.89459085464478
30
0
10
365.69348119199253
20
107.53398036956787
30
0
10
365.00000022351719
20
107.53398036956787
30
0
0
SPLINE
5
134
100
AcDbEntity
8
0
100
AcDbSpline
70
0
71
2
72
6
73
3
74
0
42
0.000000001
43
0.0000000001
44
0.0000000001
40
0
40
0
40
0
40
1
40
1
40
1
10
365.00000022351719
20
107.53398036956787
30
0
10
364.30651925504185
20
107.53398036956787
30
0
10
363.76560352742649
20
107.89459085464478
30
0
0
SPLINE
5
135
100
AcDbEntity
8
0
100
AcDbSpline
70
0
71
2
72
6
73
3
74
0
42
0.000000001
43
0.0000000001
44
0.0000000001
40
0
40
0
40
0
40
1
40
1
40
1
10
363.76560352742649
20
107.89459085464478
30
0
10
363.22468779981114
20
108.25520133972168
30
0
10
363.22468779981114
20
109.03189992904663
30
0
0
LINE
5
136
100
AcDbEntity
8
0
100
AcDbLine
10
363.22468779981114
20
109.03189992904663
30
0
11
363.22468779981114
21
116.2718448638916
31
0
0
LINE
5
137
100
AcDbEntity
8
0
100
AcDbLine
10
363.22468779981114
20
116.2718448638916
30
0
11
354.51456390321232
21
116.27184486389162
31
0
0
ENDSEC
0
SECTION
2
OBJECTS
0
DICTIONARY
5
C
100
AcDbDictionary
3
ACAD_GROUP
350
D
3
ACAD_MLINESTYLE
350
17
0
DICTIONARY
5
D
100
AcDbDictionary
0
DICTIONARY
5
1A
330
C
100
AcDbDictionary
0
DICTIONARY
5
17
100
AcDbDictionary
0
ENDSEC
0
EOF
