0
SECTION
2
HEADER
9
$INSUNITS
70
4
9
$ACADVER
1
AC1014
9
$HANDSEED
5
FFFF
0
ENDSEC
0
SECTION
2
TABLES
0
TABLE
2
VPORT
5
8
100
AcDbSymbolTable
0
ENDTAB
0
TABLE
2
LTYPE
5
5
100
AcDbSymbolTable
0
LTYPE
5
14
100
AcDbSymbolTableRecord
100
AcDbLinetypeTableRecord
2
BYBLOCK
70
0
0
LTYPE
5
15
100
AcDbSymbolTableRecord
100
AcDbLinetypeTableRecord
2
BYLAYER
70
0
0
ENDTAB
0
TABLE
2
LAYER
5
2
100
AcDbSymbolTable
70
2
0
LAYER
5
50
100
AcDbSymbolTableRecord
100
AcDbLayerTableRecord
2
0
70
0
6
CONTINUOUS
0
ENDTAB
0
TABLE
2
STYLE
5
3
100
AcDbSymbolTable
70
1
0
STYLE
5
11
100
AcDbSymbolTableRecord
100
AcDbTextStyleTableRecord
2
STANDARD
70
0
0
ENDTAB
0
TABLE
2
VIEW
5
6
100
AcDbSymbolTable
70
0
0
ENDTAB
0
TABLE
2
UCS
5
7
100
AcDbSymbolTable
70
0
0
ENDTAB
0
TABLE
2
APPID
5
9
100
AcDbSymbolTable
70
2
0
APPID
5
12
100
AcDbSymbolTableRecord
100
AcDbRegAppTableRecord
2
ACAD
70
0
0
ENDTAB
0
TABLE
2
DIMSTYLE
5
A
100
AcDbSymbolTable
70
1
0
ENDTAB
0
TABLE
2
BLOCK_RECORD
5
1
100
AcDbSymbolTable
70
1
0
BLOCK_RECORD
5
1F
100
AcDbSymbolTableRecord
100
AcDbBlockTableRecord
2
*MODEL_SPACE
0
BLOCK_RECORD
5
1B
100
AcDbSymbolTableRecord
100
AcDbBlockTableRecord
2
*PAPER_SPACE
0
ENDTAB
0
ENDSEC
0
SECTION
2
BLOCKS
0
BLOCK
5
20
100
AcDbEntity
100
AcDbBlockBegin
2
*MODEL_SPACE
0
ENDBLK
5
21
100
AcDbEntity
100
AcDbBlockEnd
0
BLOCK
5
1C
100
AcDbEntity
100
AcDbBlockBegin
2
*PAPER_SPACE
0
ENDBLK
5
1D
100
AcDbEntity
100
AcDbBlockEnd
0
ENDSEC
0
SECTION
2
ENTITIES
0
LWPOLYLINE
5
100
100
AcDbEntity
8
0
100
AcDbPolyline
90
12
70
1
43
0.0
10
575
20
180
42
-0.41421356237310336
10
580
20
175
10
580
20
153
42
-0.41421356237309681
10
577
20
150
10
575
20
150
10
575
20
136.99999999999568
10
554.99999999997362
20
136.99999999999568
10
555.00000000000182
20
149.99999999999568
10
553
20
150.00000000000003
42
-0.41421356237309681
10
550
20
153
10
550
20
175
42
-0.41421356237310336
10
555
20
180
0
SPLINE
5
101
100
AcDbEntity
8
0
100
AcDbSpline
70
0
71
2
72
6
73
3
74
0
42
0.000000001
43
0.0000000001
44
0.0000000001
40
0
40
0
40
0
40
1
40
1
40
1
10
573.68238471448399
20
168.42648983001706
30
0
10
573.68238471448399
20
167.12274551391599
30
0
10
573.1692077964542
20
166.62343859672544
30
0
0
SPLINE
5
102
100
AcDbEntity
8
0
100
AcDbSpline
70
0
71
2
72
6
73
3
74
0
42
0.000000001
43
0.0000000001
44
0.0000000001
40
0
40
0
40
0
40
1
40
1
40
1
10
573.1692077964542
20
166.62343859672544
30
0
10
572.65603087842442
20
166.12413167953488
30
0
10
571.32454894483067
20
166.12413167953491
30
0
0
LINE
5
103
100
AcDbEntity
8
0
100
AcDbLine
10
571.32454894483067
20
166.12413167953491
30
0
11
558.67545150220371
21
166.12413167953494
31
0
0
SPLINE
5
104
100
AcDbEntity
8
0
100
AcDbSpline
70
0
71
2
72
6
73
3
74
0
42
0.000000001
43
0.0000000001
44
0.0000000001
40
0
40
0
40
0
40
1
40
1
40
1
10
558.67545150220371
20
166.12413167953491
30
0
10
557.34396718442417
20
166.12413167953491
30
0
10
556.83079145848728
20
166.62343859672546
30
0
0
SPLINE
5
105
100
AcDbEntity
8
0
100
AcDbSpline
70
0
71
2
72
6
73
3
74
0
42
0.000000001
43
0.0000000001
44
0.0000000001
40
0
40
0
40
0
40
1
40
1
40
1
10
556.83079145848728
20
166.62343859672546
30
0
10
556.3176145404575
20
167.12274551391602
30
0
10
556.3176145404575
20
168.42648983001709
30
0
0
LINE
5
106
100
AcDbEntity
8
0
100
AcDbLine
10
556.3176145404575
20
168.42648983001712
30
0
11
556.3176145404575
21
175.19486784934998
31
0
0
SPLINE
5
107
100
AcDbEntity
8
0
100
AcDbSpline
70
0
71
2
72
6
73
3
74
0
42
0.000000001
43
0.0000000001
44
0.0000000001
40
0
40
0
40
0
40
1
40
1
40
1
10
556.3176145404575
20
175.19486784935
30
0
10
556.3176145404575
20
175.91608762741092
30
0
10
556.85853026807285
20
176.276695728302
30
0
0
SPLINE
5
108
100
AcDbEntity
8
0
100
AcDbSpline
70
0
71
2
72
6
73
3
74
0
42
0.000000001
43
0.0000000001
44
0.0000000001
40
0
40
0
40
0
40
1
40
1
40
1
10
556.85853026807285
20
176.276695728302
30
0
10
557.39944599568821
20
176.6373085975647
30
0
10
558.03744874894596
20
176.6373085975647
30
0
0
SPLINE
5
109
100
AcDbEntity
8
0
100
AcDbSpline
70
0
71
2
72
6
73
3
74
0
42
0.000000001
43
0.0000000001
44
0.0000000001
40
0
40
0
40
0
40
1
40
1
40
1
10
558.03744874894596
20
176.6373085975647
30
0
10
558.70319090783573
20
176.6373085975647
30
0
10
559.24410603940464
20
176.276695728302
30
0
0
SPLINE
5
110
100
AcDbEntity
8
0
100
AcDbSpline
70
0
71
2
72
6
73
3
74
0
42
0.000000001
43
0.0000000001
44
0.0000000001
40
0
40
0
40
0
40
1
40
1
40
1
10
559.24410603940464
20
176.276695728302
30
0
10
559.7850205749271
20
175.91608762741089
30
0
10
559.7850205749271
20
175.19486784934998
30
0
0
LINE
5
111
100
AcDbEntity
8
0
100
AcDbLine
10
559.7850205749271
20
175.19486784934995
30
0
11
559.7850205749271
21
173.66920828819275
31
0
0
LINE
5
112
100
AcDbEntity
8
0
100
AcDbLine
10
559.7850205749271
20
173.66920828819275
30
0
11
570.21497987210728
21
173.66920828819272
31
0
0
LINE
5
113
100
AcDbEntity
8
0
100
AcDbLine
10
570.21497987210728
20
173.66920828819272
30
0
11
570.21497987210728
21
175.19486784934998
31
0
0
SPLINE
5
114
100
AcDbEntity
8
0
100
AcDbSpline
70
0
71
2
72
6
73
3
74
0
42
0.000000001
43
0.0000000001
44
0.0000000001
40
0
40
0
40
0
40
1
40
1
40
1
10
570.21497987210728
20
175.19486784934998
30
0
10
570.21497987210728
20
175.91608762741089
30
0
10
570.75589440762974
20
176.276695728302
30
0
0
SPLINE
5
115
100
AcDbEntity
8
0
100
AcDbSpline
70
0
71
2
72
6
73
3
74
0
42
0.000000001
43
0.0000000001
44
0.0000000001
40
0
40
0
40
0
40
1
40
1
40
1
10
570.75589440762974
20
176.276695728302
30
0
10
571.29681132733799
20
176.6373085975647
30
0
10
571.9348122924564
20
176.63730859756467
30
0
0
SPLINE
5
116
100
AcDbEntity
8
0
100
AcDbSpline
70
0
71
2
72
6
73
3
74
0
42
0.000000001
43
0.0000000001
44
0.0000000001
40
0
40
0
40
0
40
1
40
1
40
1
10
571.9348122924564
20
176.63730859756467
30
0
10
572.60055564343907
20
176.63730859756467
30
0
10
573.14147017896153
20
176.27669572830197
30
0
0
SPLINE
5
117
100
AcDbEntity
8
0
100
AcDbSpline
70
0
71
2
72
6
73
3
74
0
42
0.000000001
43
0.0000000001
44
0.0000000001
40
0
40
0
40
0
40
1
40
1
40
1
10
573.14147017896153
20
176.27669572830197
30
0
10
573.68238471448399
20
175.91608762741086
30
0
10
573.68238471448399
20
175.19486784934995
30
0
0
LINE
5
118
100
AcDbEntity
8
0
100
AcDbLine
10
573.68238471448399
20
175.19486784934992
30
0
11
573.68238471448399
21
168.42648983001706
31
0
0
SPLINE
5
119
100
AcDbEntity
8
0
100
AcDbSpline
70
0
71
2
72
6
73
3
74
0
42
0.000000001
43
0.0000000001
44
0.0000000001
40
0
40
0
40
0
40
1
40
1
40
1
10
569.79888938367344
20
169.00901436805725
30
0
10
570.21497987210728
20
169.00901436805725
30
0
10
570.21497987210728
20
169.4251024723053
30
0
0
LINE
5
120
100
AcDbEntity
8
0
100
AcDbLine
10
570.21497987210728
20
169.4251024723053
30
0
11
570.21497987210728
21
170.78432559967041
31
0
0
LINE
5
121
100
AcDbEntity
8
0
100
AcDbLine
10
570.21497987210728
20
170.78432559967041
30
0
11
559.7850205749271
21
170.78432559967044
31
0
0
LINE
5
122
100
AcDbEntity
8
0
100
AcDbLine
10
559.7850205749271
20
170.78432559967044
30
0
11
559.7850205749271
21
169.4251024723053
31
0
0
SPLINE
5
123
100
AcDbEntity
8
0
100
AcDbSpline
70
0
71
2
72
6
73
3
74
0
42
0.000000001
43
0.0000000001
44
0.0000000001
40
0
40
0
40
0
40
1
40
1
40
1
10
559.7850205749271
20
169.4251024723053
30
0
10
559.7850205749271
20
169.00901436805725
30
0
10
560.20111106336094
20
169.00901436805725
30
0
0
LINE
5
124
100
AcDbEntity
8
0
100
AcDbLine
10
560.20111106336094
20
169.00901436805725
30
0
11
569.79888938367344
21
169.00901436805725
31
0
0
SPLINE
5
125
100
AcDbEntity
8
0
100
AcDbSpline
70
0
71
2
72
6
73
3
74
0
42
0.000000001
43
0.0000000001
44
0.0000000001
40
0
40
0
40
0
40
1
40
1
40
1
10
554.51456390321232
20
161.18654489517215
30
0
10
553.87656114995457
20
161.18654489517215
30
0
10
553.5714294761417
20
161.63037300109866
30
0
0
SPLINE
5
126
100
AcDbEntity
8
0
100
AcDbSpline
70
0
71
2
72
6
73
3
74
0
42
0.000000001
43
0.0000000001
44
0.0000000001
40
0
40
0
40
0
40
1
40
1
40
1
10
553.5714294761417
20
161.63037300109866
30
0
10
553.26629750430561
20
162.07420349121097
30
0
10
553.26629750430561
20
162.65672683715823
30
0
0
SPLINE
5
127
100
AcDbEntity
8
0
100
AcDbSpline
70
0
71
2
72
6
73
3
74
0
42
0.000000001
43
0.0000000001
44
0.0000000001
40
0
40
0
40
0
40
1
40
1
40
1
10
553.26629750430561
20
162.65672683715823
30
0
10
553.26629750430561
20
163.26698780059817
30
0
10
553.5714294761417
20
163.71081709861758
30
0
0
SPLINE
5
128
100
AcDbEntity
8
0
100
AcDbSpline
70
0
71
2
72
6
73
3
74
0
42
0.000000001
43
0.0000000001
44
0.0000000001
40
0
40
0
40
0
40
1
40
1
40
1
10
553.5714294761417
20
163.71081709861758
30
0
10
553.87656114995457
20
164.1546452045441
30
0
10
554.51456390321232
20
164.1546452045441
30
0
0
LINE
5
129
100
AcDbEntity
8
0
100
AcDbLine
10
554.51456390321243
20
164.1546452045441
30
0
11
575.48543475568272
21
164.15464520454407
31
0
0
SPLINE
5
130
100
AcDbEntity
8
0
100
AcDbSpline
70
0
71
2
72
6
73
3
74
0
42
0.000000001
43
0.0000000001
44
0.0000000001
40
0
40
0
40
0
40
1
40
1
40
1
10
575.48543475568272
20
164.15464520454404
30
0
10
576.12343810498692
20
164.15464520454404
30
0
10
576.42857097089268
20
163.71081709861753
30
0
0
SPLINE
5
131
100
AcDbEntity
8
0
100
AcDbSpline
70
0
71
2
72
6
73
3
74
0
42
0.000000001
43
0.0000000001
44
0.0000000001
40
0
40
0
40
0
40
1
40
1
40
1
10
576.42857097089268
20
163.71081709861753
30
0
10
576.73370383679844
20
163.26698780059812
30
0
10
576.73370383679844
20
162.65672683715817
30
0
0
SPLINE
5
132
100
AcDbEntity
8
0
100
AcDbSpline
70
0
71
2
72
6
73
3
74
0
42
0.000000001
43
0.0000000001
44
0.0000000001
40
0
40
0
40
0
40
1
40
1
40
1
10
576.73370383679844
20
162.65672683715817
30
0
10
576.73370383679844
20
162.07420349121091
30
0
10
576.42857097089268
20
161.6303730010986
30
0
0
SPLINE
5
133
100
AcDbEntity
8
0
100
AcDbSpline
70
0
71
2
72
6
73
3
74
0
42
0.000000001
43
0.0000000001
44
0.0000000001
40
0
40
0
40
0
40
1
40
1
40
1
10
576.42857097089268
20
161.6303730010986
30
0
10
576.12343810498692
20
161.18654489517209
30
0
10
575.48543475568272
20
161.18654489517209
30
0
0
LINE
5
134
100
AcDbEntity
8
0
100
AcDbLine
10
575.48543475568272
20
161.18654489517209
30
0
11
567.13592313230015
21
161.18654489517212
31
0
0
LINE
5
135
100
AcDbEntity
8
0
100
AcDbLine
10
567.13592313230015
20
161.18654489517212
30
0
11
567.13592313230015
21
158.19070816040039
31
0
0
SPLINE
5
136
100
AcDbEntity
8
0
100
AcDbSpline
70
0
71
2
72
6
73
3
74
0
42
0.000000001
43
0.0000000001
44
0.0000000001
40
0
40
0
40
0
40
1
40
1
40
1
10
567.13592313230015
20
158.19070816040039
30
0
10
567.13592313230015
20
157.46948719024658
30
0
10
566.62274621427036
20
157.15048551559448
30
0
0
SPLINE
5
137
100
AcDbEntity
8
0
100
AcDbSpline
70
0
71
2
72
6
73
3
74
0
42
0.000000001
43
0.0000000001
44
0.0000000001
40
0
40
0
40
0
40
1
40
1
40
1
10
566.62274621427036
20
157.15048551559448
30
0
10
566.10957048833347
20
156.83148384094238
30
0
10
565.36061070859409
20
156.83148384094238
30
0
0
SPLINE
5
138
100
AcDbEntity
8
0
100
AcDbSpline
70
0
71
2
72
6
73
3
74
0
42
0.000000001
43
0.0000000001
44
0.0000000001
40
0
40
0
40
0
40
1
40
1
40
1
10
565.36061070859409
20
156.83148384094238
30
0
10
564.63938973844029
20
156.83148384094238
30
0
10
564.1262140125034
20
157.15048551559448
30
0
0
SPLINE
5
139
100
AcDbEntity
8
0
100
AcDbSpline
70
0
71
2
72
6
73
3
74
0
42
0.000000001
43
0.0000000001
44
0.0000000001
40
0
40
0
40
0
40
1
40
1
40
1
10
564.1262140125034
20
157.15048551559448
30
0
10
563.61303828656651
20
157.46948719024658
30
0
10
563.61303828656651
20
158.19070816040039
30
0
0
LINE
5
140
100
AcDbEntity
8
0
100
AcDbLine
10
563.61303828656651
20
158.19070816040039
30
0
11
563.61303828656651
21
161.18654489517212
31
0
0
LINE
5
141
100
AcDbEntity
8
0
100
AcDbLine
10
563.61303828656651
20
161.18654489517212
30
0
11
554.51456390321232
21
161.18654489517215
31
0
0
SPLINE
5
142
100
AcDbEntity
8
0
100
AcDbSpline
70
0
71
2
72
6
73
3
74
0
42
0.000000001
43
0.0000000001
44
0.0000000001
40
0
40
0
40
0
40
1
40
1
40
1
10
572.9334261268375
20
154.58460330963132
30
0
10
573.5714294761417
20
154.58460330963132
30
0
10
573.87656234204746
20
154.1407775878906
30
0
0
SPLINE
5
143
100
AcDbEntity
8
0
100
AcDbSpline
70
0
71
2
72
6
73
3
74
0
42
0.000000001
43
0.0000000001
44
0.0000000001
40
0
40
0
40
0
40
1
40
1
40
1
10
573.87656234204746
20
154.1407775878906
30
0
10
574.18169043958164
20
153.69694709777829
30
0
10
574.18169043958164
20
153.08668375015256
30
0
0
SPLINE
5
144
100
AcDbEntity
8
0
100
AcDbSpline
70
0
71
2
72
6
73
3
74
0
42
0.000000001
43
0.0000000001
44
0.0000000001
40
0
40
0
40
0
40
1
40
1
40
1
10
574.18169043958164
20
153.08668375015256
30
0
10
574.18169043958164
20
152.47642040252683
30
0
10
573.87656234204746
20
152.0325946807861
30
0
0
SPLINE
5
145
100
AcDbEntity
8
0
100
AcDbSpline
70
0
71
2
72
6
73
3
74
0
42
0.000000001
43
0.0000000001
44
0.0000000001
40
0
40
0
40
0
40
1
40
1
40
1
10
573.87656234204746
20
152.0325946807861
30
0
10
573.5714294761417
20
151.5887641906738
30
0
10
572.9334261268375
20
151.5887641906738
30
0
0
LINE
5
146
100
AcDbEntity
8
0
100
AcDbLine
10
572.9334261268375
20
151.5887641906738
30
0
11
558.61997269093968
21
151.58876419067386
31
0
0
SPLINE
5
147
100
AcDbEntity
8
0
100
AcDbSpline
70
0
71
2
72
6
73
3
74
0
42
0.000000001
43
0.0000000001
44
0.0000000001
40
0
40
0
40
0
40
1
40
1
40
1
10
558.61997269093968
20
151.58876419067386
30
0
10
557.28848837316013
20
151.58876419067386
30
0
10
556.77531264722325
20
152.0880722999573
30
0
0
SPLINE
5
148
100
AcDbEntity
8
0
100
AcDbSpline
70
0
71
2
72
6
73
3
74
0
42
0.000000001
43
0.0000000001
44
0.0000000001
40
0
40
0
40
0
40
1
40
1
40
1
10
556.77531264722325
20
152.0880722999573
30
0
10
556.26213632523991
20
152.58737802505496
30
0
10
556.26213632523991
20
153.89112234115603
30
0
0
LINE
5
149
100
AcDbEntity
8
0
100
AcDbLine
10
556.26213632523991
20
153.89112234115603
30
0
11
556.26213632523991
21
157.96879291534427
31
0
0
SPLINE
5
150
100
AcDbEntity
8
0
100
AcDbSpline
70
0
71
2
72
6
73
3
74
0
42
0.000000001
43
0.0000000001
44
0.0000000001
40
0
40
0
40
0
40
1
40
1
40
1
10
556.26213632523991
20
157.96879291534427
30
0
10
556.26213632523991
20
158.74549150466922
30
0
10
556.80305145680882
20
159.10610198974612
30
0
0
SPLINE
5
151
100
AcDbEntity
8
0
100
AcDbSpline
70
0
71
2
72
6
73
3
74
0
42
0.000000001
43
0.0000000001
44
0.0000000001
40
0
40
0
40
0
40
1
40
1
40
1
10
556.80305145680882
20
159.10610198974612
30
0
10
557.34396718442417
20
159.46671247482303
30
0
10
558.06518755853153
20
159.46671247482303
30
0
0
SPLINE
5
152
100
AcDbEntity
8
0
100
AcDbSpline
70
0
71
2
72
6
73
3
74
0
42
0.000000001
43
0.0000000001
44
0.0000000001
40
0
40
0
40
0
40
1
40
1
40
1
10
558.06518755853153
20
159.46671247482303
30
0
10
558.75866912305332
20
159.46671247482303
30
0
10
559.29958485066868
20
159.10610198974612
30
0
0
SPLINE
5
153
100
AcDbEntity
8
0
100
AcDbSpline
70
0
71
2
72
6
73
3
74
0
42
0.000000001
43
0.0000000001
44
0.0000000001
40
0
40
0
40
0
40
1
40
1
40
1
10
559.29958485066868
20
159.10610198974612
30
0
10
559.84050057828404
20
158.74549150466919
30
0
10
559.84050057828404
20
157.96879291534424
30
0
0
LINE
5
154
100
AcDbEntity
8
0
100
AcDbLine
10
559.84050057828404
20
157.96879291534424
30
0
11
559.84050057828404
21
155.22260665893555
31
0
0
SPLINE
5
155
100
AcDbEntity
8
0
100
AcDbSpline
70
0
71
2
72
6
73
3
74
0
42
0.000000001
43
0.0000000001
44
0.0000000001
40
0
40
0
40
0
40
1
40
1
40
1
10
559.84050057828404
20
155.22260665893555
30
0
10
559.84050057828404
20
154.58460330963135
30
0
10
560.47850273549534
20
154.58460330963135
30
0
0
LINE
5
156
100
AcDbEntity
8
0
100
AcDbLine
10
560.47850273549534
20
154.58460330963135
30
0
11
572.9334261268375
21
154.58460330963132
31
0
0
ENDSEC
0
SECTION
2
OBJECTS
0
DICTIONARY
5
C
100
AcDbDictionary
3
ACAD_GROUP
350
D
3
ACAD_MLINESTYLE
350
17
0
DICTIONARY
5
D
100
AcDbDictionary
0
DICTIONARY
5
1A
330
C
100
AcDbDictionary
0
DICTIONARY
5
17
100
AcDbDictionary
0
ENDSEC
0
EOF
