0
SECTION
2
HEADER
9
$INSUNITS
70
4
9
$ACADVER
1
AC1014
9
$HANDSEED
5
FFFF
0
ENDSEC
0
SECTION
2
TABLES
0
TABLE
2
VPORT
5
8
100
AcDbSymbolTable
0
ENDTAB
0
TABLE
2
LTYPE
5
5
100
AcDbSymbolTable
0
LTYPE
5
14
100
AcDbSymbolTableRecord
100
AcDbLinetypeTableRecord
2
BYBLOCK
70
0
0
LTYPE
5
15
100
AcDbSymbolTableRecord
100
AcDbLinetypeTableRecord
2
BYLAYER
70
0
0
ENDTAB
0
TABLE
2
LAYER
5
2
100
AcDbSymbolTable
70
2
0
LAYER
5
50
100
AcDbSymbolTableRecord
100
AcDbLayerTableRecord
2
0
70
0
6
CONTINUOUS
0
ENDTAB
0
TABLE
2
STYLE
5
3
100
AcDbSymbolTable
70
1
0
STYLE
5
11
100
AcDbSymbolTableRecord
100
AcDbTextStyleTableRecord
2
STANDARD
70
0
0
ENDTAB
0
TABLE
2
VIEW
5
6
100
AcDbSymbolTable
70
0
0
ENDTAB
0
TABLE
2
UCS
5
7
100
AcDbSymbolTable
70
0
0
ENDTAB
0
TABLE
2
APPID
5
9
100
AcDbSymbolTable
70
2
0
APPID
5
12
100
AcDbSymbolTableRecord
100
AcDbRegAppTableRecord
2
ACAD
70
0
0
ENDTAB
0
TABLE
2
DIMSTYLE
5
A
100
AcDbSymbolTable
70
1
0
ENDTAB
0
TABLE
2
BLOCK_RECORD
5
1
100
AcDbSymbolTable
70
1
0
BLOCK_RECORD
5
1F
100
AcDbSymbolTableRecord
100
AcDbBlockTableRecord
2
*MODEL_SPACE
0
BLOCK_RECORD
5
1B
100
AcDbSymbolTableRecord
100
AcDbBlockTableRecord
2
*PAPER_SPACE
0
ENDTAB
0
ENDSEC
0
SECTION
2
BLOCKS
0
BLOCK
5
20
100
AcDbEntity
100
AcDbBlockBegin
2
*MODEL_SPACE
0
ENDBLK
5
21
100
AcDbEntity
100
AcDbBlockEnd
0
BLOCK
5
1C
100
AcDbEntity
100
AcDbBlockBegin
2
*PAPER_SPACE
0
ENDBLK
5
1D
100
AcDbEntity
100
AcDbBlockEnd
0
ENDSEC
0
SECTION
2
ENTITIES
0
LWPOLYLINE
5
100
100
AcDbEntity
8
0
100
AcDbPolyline
90
12
70
1
43
0.0
10
430
20
65
10
430
20
87
42
-0.41421356237310336
10
435
20
92
10
455
20
92
42
-0.41421356237310336
10
460
20
87
10
460
20
65
42
-0.41421356237309681
10
457
20
61.999999999999993
10
455
20
61.999999999999993
10
455
20
48.99999999999568
10
434.99999999997357
20
48.99999999999568
10
435.00000000000176
20
61.99999999999568
10
433
20
62.000000000000014
42
-0.41421356237309681
0
SPLINE
5
101
100
AcDbEntity
8
0
100
AcDbSpline
70
0
71
2
72
6
73
3
74
0
42
0.000000001
43
0.0000000001
44
0.0000000001
40
0
40
0
40
0
40
1
40
1
40
1
10
442.44798727333495
20
82.562412738801356
30
0
10
442.44798727333495
20
81.730234146119471
30
0
10
442.55894489586302
20
81.03675317764413
30
0
0
SPLINE
5
102
100
AcDbEntity
8
0
100
AcDbSpline
70
0
71
2
72
6
73
3
74
0
42
0.000000001
43
0.0000000001
44
0.0000000001
40
0
40
0
40
0
40
1
40
1
40
1
10
442.55894489586302
20
81.03675317764413
30
0
10
442.6699013262982
20
80.343272209168774
30
0
10
442.91955418884703
20
79.70526885986456
30
0
0
SPLINE
5
103
100
AcDbEntity
8
0
100
AcDbSpline
70
0
71
2
72
6
73
3
74
0
42
0.000000001
43
0.0000000001
44
0.0000000001
40
0
40
0
40
0
40
1
40
1
40
1
10
442.91955418884703
20
79.70526885986456
30
0
10
443.16920705139586
20
79.067267894746124
30
0
10
443.57142634689762
20
78.470873355866701
30
0
0
SPLINE
5
104
100
AcDbEntity
8
0
100
AcDbSpline
70
0
71
2
72
6
73
3
74
0
42
0.000000001
43
0.0000000001
44
0.0000000001
40
0
40
0
40
0
40
1
40
1
40
1
10
443.57142634689762
20
78.470873355866701
30
0
10
443.97364564239933
20
77.874478816987278
30
0
10
444.55617018043949
20
77.236475467683036
30
0
0
SPLINE
5
105
100
AcDbEntity
8
0
100
AcDbSpline
70
0
71
2
72
6
73
3
74
0
42
0.000000001
43
0.0000000001
44
0.0000000001
40
0
40
0
40
0
40
1
40
1
40
1
10
444.55617018043949
20
77.236475467683036
30
0
10
445.30512996017887
20
76.432036876679561
30
0
10
446.06795854866459
20
75.655338287354553
30
0
0
SPLINE
5
106
100
AcDbEntity
8
0
100
AcDbSpline
70
0
71
2
72
6
73
3
74
0
42
0.000000001
43
0.0000000001
44
0.0000000001
40
0
40
0
40
0
40
1
40
1
40
1
10
446.06795854866459
20
75.655338287354553
30
0
10
446.83078832924321
20
74.878639698029531
30
0
10
447.46879048645451
20
74.323856353760689
30
0
0
SPLINE
5
107
100
AcDbEntity
8
0
100
AcDbSpline
70
0
71
2
72
6
73
3
74
0
42
0.000000001
43
0.0000000001
44
0.0000000001
40
0
40
0
40
0
40
1
40
1
40
1
10
447.46879048645451
20
74.323856353760689
30
0
10
447.99583621323063
20
73.852288246155666
30
0
10
447.88487978279557
20
73.200416088105143
30
0
0
SPLINE
5
108
100
AcDbEntity
8
0
100
AcDbSpline
70
0
71
2
72
6
73
3
74
0
42
0.000000001
43
0.0000000001
44
0.0000000001
40
0
40
0
40
0
40
1
40
1
40
1
10
447.88487978279557
20
73.200416088105143
30
0
10
447.77392216026749
20
72.548543930054606
30
0
10
447.35783405601944
20
72.104715824128135
30
0
0
SPLINE
5
109
100
AcDbEntity
8
0
100
AcDbSpline
70
0
71
2
72
6
73
3
74
0
42
0.000000001
43
0.0000000001
44
0.0000000001
40
0
40
0
40
0
40
1
40
1
40
1
10
447.35783405601944
20
72.104715824128135
30
0
10
447.16365881264176
20
71.910540580750464
30
0
10
446.88626714050736
20
71.771842956543935
30
0
0
SPLINE
5
110
100
AcDbEntity
8
0
100
AcDbSpline
70
0
71
2
72
6
73
3
74
0
42
0.000000001
43
0.0000000001
44
0.0000000001
40
0
40
0
40
0
40
1
40
1
40
1
10
446.88626714050736
20
71.771842956543935
30
0
10
446.60887427628006
20
71.633147716523212
30
0
10
446.31761260330643
20
71.591538906098421
30
0
0
SPLINE
5
111
100
AcDbEntity
8
0
100
AcDbSpline
70
0
71
2
72
6
73
3
74
0
42
0.000000001
43
0.0000000001
44
0.0000000001
40
0
40
0
40
0
40
1
40
1
40
1
10
446.31761260330643
20
71.591538906098421
30
0
10
446.0263497382399
20
71.549930095673645
30
0
10
445.73508806526627
20
71.633147716523268
30
0
0
SPLINE
5
112
100
AcDbEntity
8
0
100
AcDbSpline
70
0
71
2
72
6
73
3
74
0
42
0.000000001
43
0.0000000001
44
0.0000000001
40
0
40
0
40
0
40
1
40
1
40
1
10
445.73508806526627
20
71.633147716523268
30
0
10
445.44382520019974
20
71.716365337372906
30
0
10
445.19417233765091
20
71.938278198243296
30
0
0
SPLINE
5
113
100
AcDbEntity
8
0
100
AcDbSpline
70
0
71
2
72
6
73
3
74
0
42
0.000000001
43
0.0000000001
44
0.0000000001
40
0
40
0
40
0
40
1
40
1
40
1
10
445.19417233765091
20
71.938278198243296
30
0
10
444.63938780128922
20
72.437586307526786
30
0
10
443.98751564323868
20
73.089458465577366
30
0
0
SPLINE
5
114
100
AcDbEntity
8
0
100
AcDbSpline
70
0
71
2
72
6
73
3
74
0
42
0.000000001
43
0.0000000001
44
0.0000000001
40
0
40
0
40
0
40
1
40
1
40
1
10
443.98751564323868
20
73.089458465577366
30
0
10
443.33564348518803
20
73.74133062362796
30
0
10
442.66990132629826
20
74.462551593781811
30
0
0
SPLINE
5
115
100
AcDbEntity
8
0
100
AcDbSpline
70
0
71
2
72
6
73
3
74
0
42
0.000000001
43
0.0000000001
44
0.0000000001
40
0
40
0
40
0
40
1
40
1
40
1
10
442.66990132629826
20
74.462551593781811
30
0
10
441.56033225357487
20
75.627600669862218
30
0
10
441.15811295807316
20
76.210124015809527
30
0
0
SPLINE
5
116
100
AcDbEntity
8
0
100
AcDbSpline
70
0
71
2
72
6
73
3
74
0
42
0.000000001
43
0.0000000001
44
0.0000000001
40
0
40
0
40
0
40
1
40
1
40
1
10
441.15811295807316
20
76.210124015809527
30
0
10
440.75589366257145
20
76.792647361756806
30
0
10
440.67267604172184
20
77.208737850190658
30
0
0
LINE
5
117
100
AcDbEntity
8
0
100
AcDbLine
10
440.67267604172179
20
77.208737850190644
30
0
11
440.64493604004338
21
77.208737850190658
31
0
0
SPLINE
5
118
100
AcDbEntity
8
0
100
AcDbSpline
70
0
71
2
72
6
73
3
74
0
42
0.000000001
43
0.0000000001
44
0.0000000001
40
0
40
0
40
0
40
1
40
1
40
1
10
440.64493604004338
20
77.208737850190658
30
0
10
440.58945842087223
20
76.959082603456054
30
0
10
440.47850079834416
20
76.709429740907225
30
0
0
SPLINE
5
119
100
AcDbEntity
8
0
100
AcDbSpline
70
0
71
2
72
6
73
3
74
0
42
0.000000001
43
0.0000000001
44
0.0000000001
40
0
40
0
40
0
40
1
40
1
40
1
10
440.47850079834416
20
76.709429740907225
30
0
10
440.36754436790898
20
76.459776878358412
30
0
10
440.13176031410649
20
76.126906394959988
30
0
0
SPLINE
5
120
100
AcDbEntity
8
0
100
AcDbSpline
70
0
71
2
72
6
73
3
74
0
42
0.000000001
43
0.0000000001
44
0.0000000001
40
0
40
0
40
0
40
1
40
1
40
1
10
440.13176031410649
20
76.126906394959988
30
0
10
439.89597745239689
20
75.794035911561565
30
0
10
439.53536696731999
20
75.377945423127755
30
0
0
SPLINE
5
121
100
AcDbEntity
8
0
100
AcDbSpline
70
0
71
2
72
6
73
3
74
0
42
0.000000001
43
0.0000000001
44
0.0000000001
40
0
40
0
40
0
40
1
40
1
40
1
10
439.53536696731999
20
75.377945423127755
30
0
10
439.17475648224308
20
74.961857318879737
30
0
10
438.61997134983494
20
74.379333972932514
30
0
0
SPLINE
5
122
100
AcDbEntity
8
0
100
AcDbSpline
70
0
71
2
72
6
73
3
74
0
42
0.000000001
43
0.0000000001
44
0.0000000001
40
0
40
0
40
0
40
1
40
1
40
1
10
438.61997134983494
20
74.379333972932514
30
0
10
437.95422919094528
20
73.658113002778762
30
0
10
437.24687881767716
20
72.964632034303477
30
0
0
SPLINE
5
123
100
AcDbEntity
8
0
100
AcDbSpline
70
0
71
2
72
6
73
3
74
0
42
0.000000001
43
0.0000000001
44
0.0000000001
40
0
40
0
40
0
40
1
40
1
40
1
10
437.24687881767716
20
72.964632034303477
30
0
10
436.53952784836258
20
72.271151065828178
30
0
10
435.70735044777359
20
71.494452476503298
30
0
0
SPLINE
5
124
100
AcDbEntity
8
0
100
AcDbSpline
70
0
71
2
72
6
73
3
74
0
42
0.000000001
43
0.0000000001
44
0.0000000001
40
0
40
0
40
0
40
1
40
1
40
1
10
435.70735044777359
20
71.494452476503298
30
0
10
435.18030472099747
20
71.02288436889836
30
0
10
434.52843256294693
20
71.203190803529765
30
0
0
SPLINE
5
125
100
AcDbEntity
8
0
100
AcDbSpline
70
0
71
2
72
6
73
3
74
0
42
0.000000001
43
0.0000000001
44
0.0000000001
40
0
40
0
40
0
40
1
40
1
40
1
10
434.52843256294693
20
71.203190803529765
30
0
10
433.87656010687317
20
71.383494853975364
30
0
10
433.4882108122107
20
71.799582958223439
30
0
0
SPLINE
5
126
100
AcDbEntity
8
0
100
AcDbSpline
70
0
71
2
72
6
73
3
74
0
42
0.000000001
43
0.0000000001
44
0.0000000001
40
0
40
0
40
0
40
1
40
1
40
1
10
433.4882108122107
20
71.799582958223439
30
0
10
433.0721221119162
20
72.271151065828448
30
0
10
433.04438270628418
20
72.909152030946856
30
0
0
SPLINE
5
127
100
AcDbEntity
8
0
100
AcDbSpline
70
0
71
2
72
6
73
3
74
0
42
0.000000001
43
0.0000000001
44
0.0000000001
40
0
40
0
40
0
40
1
40
1
40
1
10
433.04438270628418
20
72.909152030946856
30
0
10
433.01664359867539
20
73.547155380251056
30
0
10
433.51594991981938
20
74.018723487856008
30
0
0
SPLINE
5
128
100
AcDbEntity
8
0
100
AcDbSpline
70
0
71
2
72
6
73
3
74
0
42
0.000000001
43
0.0000000001
44
0.0000000001
40
0
40
0
40
0
40
1
40
1
40
1
10
433.51594991981938
20
74.018723487856008
30
0
10
435.23578353226139
20
75.599860668184235
30
0
10
436.73370309174015
20
77.236475467683633
30
0
0
SPLINE
5
129
100
AcDbEntity
8
0
100
AcDbSpline
70
0
71
2
72
6
73
3
74
0
42
0.000000001
43
0.0000000001
44
0.0000000001
40
0
40
0
40
0
40
1
40
1
40
1
10
436.73370309174015
20
77.236475467683633
30
0
10
437.31622703373387
20
77.874478816987789
30
0
10
437.71844573318913
20
78.470873355867155
30
0
0
SPLINE
5
130
100
AcDbEntity
8
0
100
AcDbSpline
70
0
71
2
72
6
73
3
74
0
42
0.000000001
43
0.0000000001
44
0.0000000001
40
0
40
0
40
0
40
1
40
1
40
1
10
437.71844573318913
20
78.470873355867155
30
0
10
438.12066502869078
20
79.067267894746522
30
0
10
438.37031848728606
20
79.705268859864901
30
0
0
SPLINE
5
131
100
AcDbEntity
8
0
100
AcDbSpline
70
0
71
2
72
6
73
3
74
0
42
0.000000001
43
0.0000000001
44
0.0000000001
40
0
40
0
40
0
40
1
40
1
40
1
10
438.37031848728606
20
79.705268859864901
30
0
10
438.61997134983488
20
80.343272209169086
30
0
10
438.73092837631651
20
81.036753177644414
30
0
0
SPLINE
5
132
100
AcDbEntity
8
0
100
AcDbSpline
70
0
71
2
72
6
73
3
74
0
42
0.000000001
43
0.0000000001
44
0.0000000001
40
0
40
0
40
0
40
1
40
1
40
1
10
438.73092837631651
20
81.036753177644414
30
0
10
438.84188540279814
20
81.730234146119756
30
0
10
438.84188540279814
20
82.56241273880164
30
0
0
LINE
5
133
100
AcDbEntity
8
0
100
AcDbLine
10
438.84188540279814
20
82.56241273880164
30
0
11
438.84188540279808
21
86.390428066255254
31
0
0
SPLINE
5
134
100
AcDbEntity
8
0
100
AcDbSpline
70
0
71
2
72
6
73
3
74
0
42
0.000000001
43
0.0000000001
44
0.0000000001
40
0
40
0
40
0
40
1
40
1
40
1
10
438.84188540279808
20
86.390428066255254
30
0
10
438.84188540279808
20
87.194866657258672
30
0
10
439.38280053436699
20
87.555477142335548
30
0
0
SPLINE
5
135
100
AcDbEntity
8
0
100
AcDbSpline
70
0
71
2
72
6
73
3
74
0
42
0.000000001
43
0.0000000001
44
0.0000000001
40
0
40
0
40
0
40
1
40
1
40
1
10
439.38280053436699
20
87.555477142335548
30
0
10
439.92371626198235
20
87.916087627412395
30
0
10
440.64493604004326
20
87.916087627412338
30
0
0
SPLINE
5
136
100
AcDbEntity
8
0
100
AcDbSpline
70
0
71
2
72
6
73
3
74
0
42
0.000000001
43
0.0000000001
44
0.0000000001
40
0
40
0
40
0
40
1
40
1
40
1
10
440.64493604004326
20
87.916087627412338
30
0
10
441.36615701019707
20
87.916087627412281
30
0
10
441.90707154571953
20
87.555477142335349
30
0
0
SPLINE
5
137
100
AcDbEntity
8
0
100
AcDbSpline
70
0
71
2
72
6
73
3
74
0
42
0.000000001
43
0.0000000001
44
0.0000000001
40
0
40
0
40
0
40
1
40
1
40
1
10
441.90707154571953
20
87.555477142335349
30
0
10
442.44798727333489
20
87.194866657258387
30
0
10
442.44798727333489
20
86.39042806625497
30
0
0
LINE
5
138
100
AcDbEntity
8
0
100
AcDbLine
10
442.44798727333489
20
86.390428066254984
30
0
11
442.44798727333495
21
82.562412738801356
31
0
0
SPLINE
5
139
100
AcDbEntity
8
0
100
AcDbSpline
70
0
71
2
72
6
73
3
74
0
42
0.000000001
43
0.0000000001
44
0.0000000001
40
0
40
0
40
0
40
1
40
1
40
1
10
455.70734687149474
20
81.036753177643121
30
0
10
456.3730902224774
20
81.036753177643064
30
0
10
456.67822070419737
20
80.592925071716536
30
0
0
SPLINE
5
140
100
AcDbEntity
8
0
100
AcDbSpline
70
0
71
2
72
6
73
3
74
0
42
0.000000001
43
0.0000000001
44
0.0000000001
40
0
40
0
40
0
40
1
40
1
40
1
10
456.67822070419737
20
80.592925071716536
30
0
10
456.98335357010313
20
80.14909696578998
30
0
10
456.98335357010313
20
79.511093616485795
30
0
0
SPLINE
5
141
100
AcDbEntity
8
0
100
AcDbSpline
70
0
71
2
72
6
73
3
74
0
42
0.000000001
43
0.0000000001
44
0.0000000001
40
0
40
0
40
0
40
1
40
1
40
1
10
456.98335357010313
20
79.511093616485795
30
0
10
456.98335357010313
20
78.873092651367386
30
0
10
456.67822070419743
20
78.415393352508758
30
0
0
SPLINE
5
142
100
AcDbEntity
8
0
100
AcDbSpline
70
0
71
2
72
6
73
3
74
0
42
0.000000001
43
0.0000000001
44
0.0000000001
40
0
40
0
40
0
40
1
40
1
40
1
10
456.67822070419743
20
78.415393352508758
30
0
10
456.37309022247746
20
77.957696437835935
30
0
10
455.70734687149479
20
77.957696437835992
30
0
0
LINE
5
143
100
AcDbEntity
8
0
100
AcDbLine
10
455.70734687149479
20
77.957696437835992
30
0
11
453.09985823929264
21
77.957696437836191
31
0
0
LINE
5
144
100
AcDbEntity
8
0
100
AcDbLine
10
453.09985823929264
20
77.957696437836191
30
0
11
453.09985823929281
21
66.473648071289546
31
0
0
SPLINE
5
145
100
AcDbEntity
8
0
100
AcDbSpline
70
0
71
2
72
6
73
3
74
0
42
0.000000001
43
0.0000000001
44
0.0000000001
40
0
40
0
40
0
40
1
40
1
40
1
10
453.09985823929281
20
66.473648071289546
30
0
10
453.09985823929281
20
65.696949481964594
30
0
10
452.55894370377035
20
65.336338996887747
30
0
0
SPLINE
5
146
100
AcDbEntity
8
0
100
AcDbSpline
70
0
71
2
72
6
73
3
74
0
42
0.000000001
43
0.0000000001
44
0.0000000001
40
0
40
0
40
0
40
1
40
1
40
1
10
452.55894370377035
20
65.336338996887747
30
0
10
452.01802916824789
20
64.975728511810885
30
0
10
451.32454581558676
20
64.975728511810928
30
0
0
SPLINE
5
147
100
AcDbEntity
8
0
100
AcDbSpline
70
0
71
2
72
6
73
3
74
0
42
0.000000001
43
0.0000000001
44
0.0000000001
40
0
40
0
40
0
40
1
40
1
40
1
10
451.32454581558676
20
64.975728511810928
30
0
10
450.63106484711142
20
64.975728511810985
30
0
10
450.09015031158896
20
65.336338996887932
30
0
0
SPLINE
5
148
100
AcDbEntity
8
0
100
AcDbSpline
70
0
71
2
72
6
73
3
74
0
42
0.000000001
43
0.0000000001
44
0.0000000001
40
0
40
0
40
0
40
1
40
1
40
1
10
450.09015031158896
20
65.336338996887932
30
0
10
449.5492333918807
20
65.696949481964879
30
0
10
449.5492333918807
20
66.47364807128983
30
0
0
LINE
5
149
100
AcDbEntity
8
0
100
AcDbLine
10
449.5492333918807
20
66.47364807128983
30
0
11
449.54923339188042
21
87.721912384033971
31
0
0
SPLINE
5
150
100
AcDbEntity
8
0
100
AcDbSpline
70
0
71
2
72
6
73
3
74
0
42
0.000000001
43
0.0000000001
44
0.0000000001
40
0
40
0
40
0
40
1
40
1
40
1
10
449.54923339188042
20
87.721912384033971
30
0
10
449.54923339188036
20
88.498613357544713
30
0
10
450.09015031158862
20
88.859221458435783
30
0
0
SPLINE
5
151
100
AcDbEntity
8
0
100
AcDbSpline
70
0
71
2
72
6
73
3
74
0
42
0.000000001
43
0.0000000001
44
0.0000000001
40
0
40
0
40
0
40
1
40
1
40
1
10
450.09015031158862
20
88.859221458435783
30
0
10
450.63106484711108
20
89.219831943512645
30
0
10
451.32454581558642
20
89.219831943512588
30
0
0
SPLINE
5
152
100
AcDbEntity
8
0
100
AcDbSpline
70
0
71
2
72
6
73
3
74
0
42
0.000000001
43
0.0000000001
44
0.0000000001
40
0
40
0
40
0
40
1
40
1
40
1
10
451.32454581558642
20
89.219831943512588
30
0
10
452.01802916824755
20
89.219831943512546
30
0
10
452.55894370377001
20
88.859221458435584
30
0
0
SPLINE
5
153
100
AcDbEntity
8
0
100
AcDbSpline
70
0
71
2
72
6
73
3
74
0
42
0.000000001
43
0.0000000001
44
0.0000000001
40
0
40
0
40
0
40
1
40
1
40
1
10
452.55894370377001
20
88.859221458435584
30
0
10
453.09985823929247
20
88.498613357544428
30
0
10
453.09985823929253
20
87.721912384033686
30
0
0
LINE
5
154
100
AcDbEntity
8
0
100
AcDbLine
10
453.09985823929253
20
87.721912384033672
30
0
11
453.09985823929259
21
81.036753177643305
31
0
0
LINE
5
155
100
AcDbEntity
8
0
100
AcDbLine
10
453.09985823929259
20
81.036753177643305
30
0
11
455.70734687149474
21
81.036753177643121
31
0
0
ENDSEC
0
SECTION
2
OBJECTS
0
DICTIONARY
5
C
100
AcDbDictionary
3
ACAD_GROUP
350
D
3
ACAD_MLINESTYLE
350
17
0
DICTIONARY
5
D
100
AcDbDictionary
0
DICTIONARY
5
1A
330
C
100
AcDbDictionary
0
DICTIONARY
5
17
100
AcDbDictionary
0
ENDSEC
0
EOF
