0
SECTION
2
HEADER
9
$INSUNITS
70
4
9
$ACADVER
1
AC1014
9
$HANDSEED
5
FFFF
0
ENDSEC
0
SECTION
2
TABLES
0
TABLE
2
VPORT
5
8
100
AcDbSymbolTable
0
ENDTAB
0
TABLE
2
LTYPE
5
5
100
AcDbSymbolTable
0
LTYPE
5
14
100
AcDbSymbolTableRecord
100
AcDbLinetypeTableRecord
2
BYBLOCK
70
0
0
LTYPE
5
15
100
AcDbSymbolTableRecord
100
AcDbLinetypeTableRecord
2
BYLAYER
70
0
0
ENDTAB
0
TABLE
2
LAYER
5
2
100
AcDbSymbolTable
70
2
0
LAYER
5
50
100
AcDbSymbolTableRecord
100
AcDbLayerTableRecord
2
0
70
0
6
CONTINUOUS
0
ENDTAB
0
TABLE
2
STYLE
5
3
100
AcDbSymbolTable
70
1
0
STYLE
5
11
100
AcDbSymbolTableRecord
100
AcDbTextStyleTableRecord
2
STANDARD
70
0
0
ENDTAB
0
TABLE
2
VIEW
5
6
100
AcDbSymbolTable
70
0
0
ENDTAB
0
TABLE
2
UCS
5
7
100
AcDbSymbolTable
70
0
0
ENDTAB
0
TABLE
2
APPID
5
9
100
AcDbSymbolTable
70
2
0
APPID
5
12
100
AcDbSymbolTableRecord
100
AcDbRegAppTableRecord
2
ACAD
70
0
0
ENDTAB
0
TABLE
2
DIMSTYLE
5
A
100
AcDbSymbolTable
70
1
0
ENDTAB
0
TABLE
2
BLOCK_RECORD
5
1
100
AcDbSymbolTable
70
1
0
BLOCK_RECORD
5
1F
100
AcDbSymbolTableRecord
100
AcDbBlockTableRecord
2
*MODEL_SPACE
0
BLOCK_RECORD
5
1B
100
AcDbSymbolTableRecord
100
AcDbBlockTableRecord
2
*PAPER_SPACE
0
ENDTAB
0
ENDSEC
0
SECTION
2
BLOCKS
0
BLOCK
5
20
100
AcDbEntity
100
AcDbBlockBegin
2
*MODEL_SPACE
0
ENDBLK
5
21
100
AcDbEntity
100
AcDbBlockEnd
0
BLOCK
5
1C
100
AcDbEntity
100
AcDbBlockBegin
2
*PAPER_SPACE
0
ENDBLK
5
1D
100
AcDbEntity
100
AcDbBlockEnd
0
ENDSEC
0
SECTION
2
ENTITIES
0
LWPOLYLINE
5
100
100
AcDbEntity
8
0
100
AcDbPolyline
90
12
70
1
43
0.0
10
510
20
42.999999999999986
42
-0.41421356237310336
10
515
20
47.999999999999986
10
535
20
47.999999999999986
42
-0.41421356237310336
10
540
20
42.999999999999986
10
540
20
21
42
-0.41421356237309681
10
537
20
17.999999999999993
10
535
20
17.999999999999993
10
535
20
4.9999999999956728
10
514.99999999997362
20
4.9999999999956746
10
515.00000000000182
20
17.999999999995676
10
513
20
18.000000000000011
42
-0.41421356237309681
10
510
20
21
0
SPLINE
5
101
100
AcDbEntity
8
0
100
AcDbSpline
70
0
71
2
72
6
73
3
74
0
42
0.000000001
43
0.0000000001
44
0.0000000001
40
0
40
0
40
0
40
1
40
1
40
1
10
522.447987273335
20
38.562412738803133
30
0
10
522.447987273335
20
37.730234146121248
30
0
10
522.55894489586308
20
37.036753177645878
30
0
0
SPLINE
5
102
100
AcDbEntity
8
0
100
AcDbSpline
70
0
71
2
72
6
73
3
74
0
42
0.000000001
43
0.0000000001
44
0.0000000001
40
0
40
0
40
0
40
1
40
1
40
1
10
522.55894489586308
20
37.036753177645878
30
0
10
522.66990132629826
20
36.343272209170514
30
0
10
522.91955418884709
20
35.705268859866273
30
0
0
SPLINE
5
103
100
AcDbEntity
8
0
100
AcDbSpline
70
0
71
2
72
6
73
3
74
0
42
0.000000001
43
0.0000000001
44
0.0000000001
40
0
40
0
40
0
40
1
40
1
40
1
10
522.91955418884709
20
35.705268859866273
30
0
10
523.16920705139592
20
35.067267894747822
30
0
10
523.57142634689762
20
34.470873355868356
30
0
0
SPLINE
5
104
100
AcDbEntity
8
0
100
AcDbSpline
70
0
71
2
72
6
73
3
74
0
42
0.000000001
43
0.0000000001
44
0.0000000001
40
0
40
0
40
0
40
1
40
1
40
1
10
523.57142634689762
20
34.470873355868356
30
0
10
523.97364564239933
20
33.874478816988891
30
0
10
524.55617018043949
20
33.236475467684585
30
0
0
SPLINE
5
105
100
AcDbEntity
8
0
100
AcDbSpline
70
0
71
2
72
6
73
3
74
0
42
0.000000001
43
0.0000000001
44
0.0000000001
40
0
40
0
40
0
40
1
40
1
40
1
10
524.55617018043949
20
33.236475467684585
30
0
10
525.30512996017887
20
32.432036876681039
30
0
10
526.06795854866459
20
31.655338287355946
30
0
0
SPLINE
5
106
100
AcDbEntity
8
0
100
AcDbSpline
70
0
71
2
72
6
73
3
74
0
42
0.000000001
43
0.0000000001
44
0.0000000001
40
0
40
0
40
0
40
1
40
1
40
1
10
526.06795854866459
20
31.655338287355946
30
0
10
526.83078832924332
20
30.878639698030863
30
0
10
527.46879048645462
20
30.323856353761954
30
0
0
SPLINE
5
107
100
AcDbEntity
8
0
100
AcDbSpline
70
0
71
2
72
6
73
3
74
0
42
0.000000001
43
0.0000000001
44
0.0000000001
40
0
40
0
40
0
40
1
40
1
40
1
10
527.46879048645462
20
30.323856353761954
30
0
10
527.99583621323075
20
29.852288246156881
30
0
10
527.88487978279557
20
29.200416088106358
30
0
0
SPLINE
5
108
100
AcDbEntity
8
0
100
AcDbSpline
70
0
71
2
72
6
73
3
74
0
42
0.000000001
43
0.0000000001
44
0.0000000001
40
0
40
0
40
0
40
1
40
1
40
1
10
527.88487978279557
20
29.200416088106358
30
0
10
527.77392216026749
20
28.548543930055843
30
0
10
527.35783405601944
20
28.104715824129404
30
0
0
SPLINE
5
109
100
AcDbEntity
8
0
100
AcDbSpline
70
0
71
2
72
6
73
3
74
0
42
0.000000001
43
0.0000000001
44
0.0000000001
40
0
40
0
40
0
40
1
40
1
40
1
10
527.35783405601944
20
28.104715824129404
30
0
10
527.16365881264176
20
27.910540580751753
30
0
10
526.88626714050736
20
27.771842956545257
30
0
0
SPLINE
5
110
100
AcDbEntity
8
0
100
AcDbSpline
70
0
71
2
72
6
73
3
74
0
42
0.000000001
43
0.0000000001
44
0.0000000001
40
0
40
0
40
0
40
1
40
1
40
1
10
526.88626714050736
20
27.771842956545257
30
0
10
526.60887427628006
20
27.633147716524554
30
0
10
526.31761260330643
20
27.591538906099803
30
0
0
SPLINE
5
111
100
AcDbEntity
8
0
100
AcDbSpline
70
0
71
2
72
6
73
3
74
0
42
0.000000001
43
0.0000000001
44
0.0000000001
40
0
40
0
40
0
40
1
40
1
40
1
10
526.31761260330643
20
27.591538906099803
30
0
10
526.0263497382399
20
27.549930095675048
30
0
10
525.73508806526627
20
27.633147716524711
30
0
0
SPLINE
5
112
100
AcDbEntity
8
0
100
AcDbSpline
70
0
71
2
72
6
73
3
74
0
42
0.000000001
43
0.0000000001
44
0.0000000001
40
0
40
0
40
0
40
1
40
1
40
1
10
525.73508806526627
20
27.633147716524711
30
0
10
525.44382520019974
20
27.716365337374373
30
0
10
525.19417233765091
20
27.938278198244781
30
0
0
SPLINE
5
113
100
AcDbEntity
8
0
100
AcDbSpline
70
0
71
2
72
6
73
3
74
0
42
0.000000001
43
0.0000000001
44
0.0000000001
40
0
40
0
40
0
40
1
40
1
40
1
10
525.19417233765091
20
27.938278198244781
30
0
10
524.63938780128922
20
28.437586307528324
30
0
10
523.98751564323868
20
29.089458465578979
30
0
0
SPLINE
5
114
100
AcDbEntity
8
0
100
AcDbSpline
70
0
71
2
72
6
73
3
74
0
42
0.000000001
43
0.0000000001
44
0.0000000001
40
0
40
0
40
0
40
1
40
1
40
1
10
523.98751564323868
20
29.089458465578979
30
0
10
523.33564348518814
20
29.741330623629629
30
0
10
522.66990132629837
20
30.462551593783559
30
0
0
SPLINE
5
115
100
AcDbEntity
8
0
100
AcDbSpline
70
0
71
2
72
6
73
3
74
0
42
0.000000001
43
0.0000000001
44
0.0000000001
40
0
40
0
40
0
40
1
40
1
40
1
10
522.66990132629837
20
30.462551593783559
30
0
10
521.56033225357487
20
31.627600669864076
30
0
10
521.15811295807316
20
32.210124015811409
30
0
0
SPLINE
5
116
100
AcDbEntity
8
0
100
AcDbSpline
70
0
71
2
72
6
73
3
74
0
42
0.000000001
43
0.0000000001
44
0.0000000001
40
0
40
0
40
0
40
1
40
1
40
1
10
521.15811295807316
20
32.210124015811409
30
0
10
520.75589366257145
20
32.792647361758746
30
0
10
520.67267604172184
20
33.208737850192598
30
0
0
LINE
5
117
100
AcDbEntity
8
0
100
AcDbLine
10
520.67267604172184
20
33.208737850192598
30
0
11
520.64493604004338
21
33.208737850192605
31
0
0
SPLINE
5
118
100
AcDbEntity
8
0
100
AcDbSpline
70
0
71
2
72
6
73
3
74
0
42
0.000000001
43
0.0000000001
44
0.0000000001
40
0
40
0
40
0
40
1
40
1
40
1
10
520.64493604004338
20
33.208737850192605
30
0
10
520.58945842087223
20
32.959082603458
30
0
10
520.47850079834416
20
32.709429740909187
30
0
0
SPLINE
5
119
100
AcDbEntity
8
0
100
AcDbSpline
70
0
71
2
72
6
73
3
74
0
42
0.000000001
43
0.0000000001
44
0.0000000001
40
0
40
0
40
0
40
1
40
1
40
1
10
520.47850079834416
20
32.709429740909187
30
0
10
520.36754436790898
20
32.45977687836038
30
0
10
520.13176031410649
20
32.126906394961985
30
0
0
SPLINE
5
120
100
AcDbEntity
8
0
100
AcDbSpline
70
0
71
2
72
6
73
3
74
0
42
0.000000001
43
0.0000000001
44
0.0000000001
40
0
40
0
40
0
40
1
40
1
40
1
10
520.13176031410649
20
32.126906394961985
30
0
10
519.89597745239689
20
31.79403591156359
30
0
10
519.53536696731999
20
31.377945423129816
30
0
0
SPLINE
5
121
100
AcDbEntity
8
0
100
AcDbSpline
70
0
71
2
72
6
73
3
74
0
42
0.000000001
43
0.0000000001
44
0.0000000001
40
0
40
0
40
0
40
1
40
1
40
1
10
519.53536696731999
20
31.377945423129816
30
0
10
519.1747564822432
20
30.961857318881837
30
0
10
518.61997134983505
20
30.379333972934667
30
0
0
SPLINE
5
122
100
AcDbEntity
8
0
100
AcDbSpline
70
0
71
2
72
6
73
3
74
0
42
0.000000001
43
0.0000000001
44
0.0000000001
40
0
40
0
40
0
40
1
40
1
40
1
10
518.61997134983505
20
30.379333972934667
30
0
10
517.95422919094528
20
29.658113002780979
30
0
10
517.24687881767716
20
28.964632034305762
30
0
0
SPLINE
5
123
100
AcDbEntity
8
0
100
AcDbSpline
70
0
71
2
72
6
73
3
74
0
42
0.000000001
43
0.0000000001
44
0.0000000001
40
0
40
0
40
0
40
1
40
1
40
1
10
517.24687881767716
20
28.964632034305762
30
0
10
516.53952784836258
20
28.271151065830548
30
0
10
515.70735044777359
20
27.494452476505742
30
0
0
SPLINE
5
124
100
AcDbEntity
8
0
100
AcDbSpline
70
0
71
2
72
6
73
3
74
0
42
0.000000001
43
0.0000000001
44
0.0000000001
40
0
40
0
40
0
40
1
40
1
40
1
10
515.70735044777359
20
27.494452476505742
30
0
10
515.18030472099747
20
27.022884368900858
30
0
10
514.52843256294693
20
27.203190803532319
30
0
0
SPLINE
5
125
100
AcDbEntity
8
0
100
AcDbSpline
70
0
71
2
72
6
73
3
74
0
42
0.000000001
43
0.0000000001
44
0.0000000001
40
0
40
0
40
0
40
1
40
1
40
1
10
514.52843256294693
20
27.203190803532319
30
0
10
513.87656010687317
20
27.383494853977993
30
0
10
513.4882108122107
20
27.799582958226111
30
0
0
SPLINE
5
126
100
AcDbEntity
8
0
100
AcDbSpline
70
0
71
2
72
6
73
3
74
0
42
0.000000001
43
0.0000000001
44
0.0000000001
40
0
40
0
40
0
40
1
40
1
40
1
10
513.4882108122107
20
27.799582958226111
30
0
10
513.0721221119162
20
28.271151065831162
30
0
10
513.04438270628418
20
28.909152030949578
30
0
0
SPLINE
5
127
100
AcDbEntity
8
0
100
AcDbSpline
70
0
71
2
72
6
73
3
74
0
42
0.000000001
43
0.0000000001
44
0.0000000001
40
0
40
0
40
0
40
1
40
1
40
1
10
513.04438270628418
20
28.909152030949578
30
0
10
513.01664359867539
20
29.547155380253784
30
0
10
513.51594991981949
20
30.018723487858672
30
0
0
SPLINE
5
128
100
AcDbEntity
8
0
100
AcDbSpline
70
0
71
2
72
6
73
3
74
0
42
0.000000001
43
0.0000000001
44
0.0000000001
40
0
40
0
40
0
40
1
40
1
40
1
10
513.51594991981949
20
30.018723487858672
30
0
10
515.23578353226139
20
31.599860668186732
30
0
10
516.73370309174015
20
33.236475467685977
30
0
0
SPLINE
5
129
100
AcDbEntity
8
0
100
AcDbSpline
70
0
71
2
72
6
73
3
74
0
42
0.000000001
43
0.0000000001
44
0.0000000001
40
0
40
0
40
0
40
1
40
1
40
1
10
516.73370309174015
20
33.236475467685977
30
0
10
517.31622703373387
20
33.874478816990077
30
0
10
517.71844573318913
20
34.470873355869401
30
0
0
SPLINE
5
130
100
AcDbEntity
8
0
100
AcDbSpline
70
0
71
2
72
6
73
3
74
0
42
0.000000001
43
0.0000000001
44
0.0000000001
40
0
40
0
40
0
40
1
40
1
40
1
10
517.71844573318913
20
34.470873355869401
30
0
10
518.12066502869084
20
35.067267894748717
30
0
10
518.37031848728611
20
35.705268859867083
30
0
0
SPLINE
5
131
100
AcDbEntity
8
0
100
AcDbSpline
70
0
71
2
72
6
73
3
74
0
42
0.000000001
43
0.0000000001
44
0.0000000001
40
0
40
0
40
0
40
1
40
1
40
1
10
518.37031848728611
20
35.705268859867083
30
0
10
518.61997134983494
20
36.343272209171232
30
0
10
518.73092837631657
20
37.03675317764656
30
0
0
SPLINE
5
132
100
AcDbEntity
8
0
100
AcDbSpline
70
0
71
2
72
6
73
3
74
0
42
0.000000001
43
0.0000000001
44
0.0000000001
40
0
40
0
40
0
40
1
40
1
40
1
10
518.73092837631657
20
37.03675317764656
30
0
10
518.8418854027982
20
37.730234146121887
30
0
10
518.8418854027982
20
38.562412738803772
30
0
0
LINE
5
133
100
AcDbEntity
8
0
100
AcDbLine
10
518.8418854027982
20
38.562412738803772
30
0
11
518.84188540279808
21
42.390428066257385
31
0
0
SPLINE
5
134
100
AcDbEntity
8
0
100
AcDbSpline
70
0
71
2
72
6
73
3
74
0
42
0.000000001
43
0.0000000001
44
0.0000000001
40
0
40
0
40
0
40
1
40
1
40
1
10
518.8418854027982
20
42.390428066257385
30
0
10
518.84188540279808
20
43.194866657260803
30
0
10
519.38280053436699
20
43.555477142337608
30
0
0
SPLINE
5
135
100
AcDbEntity
8
0
100
AcDbSpline
70
0
71
2
72
6
73
3
74
0
42
0.000000001
43
0.0000000001
44
0.0000000001
40
0
40
0
40
0
40
1
40
1
40
1
10
519.38280053436699
20
43.555477142337608
30
0
10
519.92371626198235
20
43.916087627414413
30
0
10
520.64493604004326
20
43.916087627414285
30
0
0
SPLINE
5
136
100
AcDbEntity
8
0
100
AcDbSpline
70
0
71
2
72
6
73
3
74
0
42
0.000000001
43
0.0000000001
44
0.0000000001
40
0
40
0
40
0
40
1
40
1
40
1
10
520.64493604004326
20
43.916087627414285
30
0
10
521.36615701019707
20
43.916087627414157
30
0
10
521.90707154571953
20
43.555477142337153
30
0
0
SPLINE
5
137
100
AcDbEntity
8
0
100
AcDbSpline
70
0
71
2
72
6
73
3
74
0
42
0.000000001
43
0.0000000001
44
0.0000000001
40
0
40
0
40
0
40
1
40
1
40
1
10
521.90707154571953
20
43.555477142337153
30
0
10
522.44798727333489
20
43.194866657260164
30
0
10
522.447987273335
20
42.390428066256746
30
0
0
LINE
5
138
100
AcDbEntity
8
0
100
AcDbLine
10
522.447987273335
20
42.390428066256732
30
0
11
522.447987273335
21
38.562412738803133
31
0
0
SPLINE
5
139
100
AcDbEntity
8
0
100
AcDbSpline
70
0
71
2
72
6
73
3
74
0
42
0.000000001
43
0.0000000001
44
0.0000000001
40
0
40
0
40
0
40
1
40
1
40
1
10
535.70734687149479
20
37.03675317764354
30
0
10
536.37309022247746
20
37.036753177643426
30
0
10
536.67822070419743
20
36.592925071716856
30
0
0
SPLINE
5
140
100
AcDbEntity
8
0
100
AcDbSpline
70
0
71
2
72
6
73
3
74
0
42
0.000000001
43
0.0000000001
44
0.0000000001
40
0
40
0
40
0
40
1
40
1
40
1
10
536.67822070419743
20
36.592925071716856
30
0
10
536.98335357010319
20
36.149096965790285
30
0
10
536.98335357010319
20
35.511093616486086
30
0
0
SPLINE
5
141
100
AcDbEntity
8
0
100
AcDbSpline
70
0
71
2
72
6
73
3
74
0
42
0.000000001
43
0.0000000001
44
0.0000000001
40
0
40
0
40
0
40
1
40
1
40
1
10
536.98335357010319
20
35.511093616486086
30
0
10
536.98335357010319
20
34.873092651367678
30
0
10
536.67822070419743
20
34.415393352509092
30
0
0
SPLINE
5
142
100
AcDbEntity
8
0
100
AcDbSpline
70
0
71
2
72
6
73
3
74
0
42
0.000000001
43
0.0000000001
44
0.0000000001
40
0
40
0
40
0
40
1
40
1
40
1
10
536.67822070419743
20
34.415393352509092
30
0
10
536.37309022247746
20
33.957696437836297
30
0
10
535.70734687149479
20
33.957696437836411
30
0
0
LINE
5
143
100
AcDbEntity
8
0
100
AcDbLine
10
535.70734687149479
20
33.957696437836411
30
0
11
533.09985823929264
21
33.957696437836873
31
0
0
LINE
5
144
100
AcDbEntity
8
0
100
AcDbLine
10
533.09985823929264
20
33.957696437836873
30
0
11
533.09985823929287
21
22.473648071290242
31
0
0
SPLINE
5
145
100
AcDbEntity
8
0
100
AcDbSpline
70
0
71
2
72
6
73
3
74
0
42
0.000000001
43
0.0000000001
44
0.0000000001
40
0
40
0
40
0
40
1
40
1
40
1
10
533.09985823929287
20
22.473648071290246
30
0
10
533.09985823929287
20
21.696949481965294
30
0
10
532.55894370377041
20
21.33633899688849
30
0
0
SPLINE
5
146
100
AcDbEntity
8
0
100
AcDbSpline
70
0
71
2
72
6
73
3
74
0
42
0.000000001
43
0.0000000001
44
0.0000000001
40
0
40
0
40
0
40
1
40
1
40
1
10
532.55894370377041
20
21.33633899688849
30
0
10
532.01802916824795
20
20.975728511811678
30
0
10
531.32454581558682
20
20.975728511811802
30
0
0
SPLINE
5
147
100
AcDbEntity
8
0
100
AcDbSpline
70
0
71
2
72
6
73
3
74
0
42
0.000000001
43
0.0000000001
44
0.0000000001
40
0
40
0
40
0
40
1
40
1
40
1
10
531.32454581558682
20
20.975728511811802
30
0
10
530.63106484711147
20
20.975728511811926
30
0
10
530.09015031158901
20
21.336338996888927
30
0
0
SPLINE
5
148
100
AcDbEntity
8
0
100
AcDbSpline
70
0
71
2
72
6
73
3
74
0
42
0.000000001
43
0.0000000001
44
0.0000000001
40
0
40
0
40
0
40
1
40
1
40
1
10
530.09015031158901
20
21.336338996888927
30
0
10
529.54923339188076
20
21.696949481965927
30
0
10
529.54923339188076
20
22.473648071290878
30
0
0
LINE
5
149
100
AcDbEntity
8
0
100
AcDbLine
10
529.54923339188076
20
22.473648071290874
30
0
11
529.54923339188042
21
43.721912384035015
31
0
0
SPLINE
5
150
100
AcDbEntity
8
0
100
AcDbSpline
70
0
71
2
72
6
73
3
74
0
42
0.000000001
43
0.0000000001
44
0.0000000001
40
0
40
0
40
0
40
1
40
1
40
1
10
529.54923339188042
20
43.721912384035015
30
0
10
529.54923339188042
20
44.498613357545757
30
0
10
530.09015031158867
20
44.859221458436771
30
0
0
SPLINE
5
151
100
AcDbEntity
8
0
100
AcDbSpline
70
0
71
2
72
6
73
3
74
0
42
0.000000001
43
0.0000000001
44
0.0000000001
40
0
40
0
40
0
40
1
40
1
40
1
10
530.09015031158867
20
44.859221458436771
30
0
10
530.63106484711113
20
45.219831943513583
30
0
10
531.32454581558648
20
45.219831943513462
30
0
0
SPLINE
5
152
100
AcDbEntity
8
0
100
AcDbSpline
70
0
71
2
72
6
73
3
74
0
42
0.000000001
43
0.0000000001
44
0.0000000001
40
0
40
0
40
0
40
1
40
1
40
1
10
531.32454581558648
20
45.219831943513462
30
0
10
532.01802916824761
20
45.219831943513341
30
0
10
532.55894370377007
20
44.859221458436338
30
0
0
SPLINE
5
153
100
AcDbEntity
8
0
100
AcDbSpline
70
0
71
2
72
6
73
3
74
0
42
0.000000001
43
0.0000000001
44
0.0000000001
40
0
40
0
40
0
40
1
40
1
40
1
10
532.55894370377007
20
44.859221458436338
30
0
10
533.09985823929253
20
44.498613357545125
30
0
10
533.09985823929253
20
43.721912384034383
30
0
0
LINE
5
154
100
AcDbEntity
8
0
100
AcDbLine
10
533.09985823929253
20
43.721912384034383
30
0
11
533.09985823929264
21
37.036753177644002
31
0
0
LINE
5
155
100
AcDbEntity
8
0
100
AcDbLine
10
533.09985823929264
20
37.036753177644002
30
0
11
535.70734687149479
21
37.03675317764354
31
0
0
ENDSEC
0
SECTION
2
OBJECTS
0
DICTIONARY
5
C
100
AcDbDictionary
3
ACAD_GROUP
350
D
3
ACAD_MLINESTYLE
350
17
0
DICTIONARY
5
D
100
AcDbDictionary
0
DICTIONARY
5
1A
330
C
100
AcDbDictionary
0
DICTIONARY
5
17
100
AcDbDictionary
0
ENDSEC
0
EOF
