0
SECTION
2
HEADER
9
$INSUNITS
70
4
9
$ACADVER
1
AC1014
9
$HANDSEED
5
FFFF
0
ENDSEC
0
SECTION
2
TABLES
0
TABLE
2
VPORT
5
8
100
AcDbSymbolTable
0
ENDTAB
0
TABLE
2
LTYPE
5
5
100
AcDbSymbolTable
0
LTYPE
5
14
100
AcDbSymbolTableRecord
100
AcDbLinetypeTableRecord
2
BYBLOCK
70
0
0
LTYPE
5
15
100
AcDbSymbolTableRecord
100
AcDbLinetypeTableRecord
2
BYLAYER
70
0
0
ENDTAB
0
TABLE
2
LAYER
5
2
100
AcDbSymbolTable
70
2
0
LAYER
5
50
100
AcDbSymbolTableRecord
100
AcDbLayerTableRecord
2
0
70
0
6
CONTINUOUS
0
ENDTAB
0
TABLE
2
STYLE
5
3
100
AcDbSymbolTable
70
1
0
STYLE
5
11
100
AcDbSymbolTableRecord
100
AcDbTextStyleTableRecord
2
STANDARD
70
0
0
ENDTAB
0
TABLE
2
VIEW
5
6
100
AcDbSymbolTable
70
0
0
ENDTAB
0
TABLE
2
UCS
5
7
100
AcDbSymbolTable
70
0
0
ENDTAB
0
TABLE
2
APPID
5
9
100
AcDbSymbolTable
70
2
0
APPID
5
12
100
AcDbSymbolTableRecord
100
AcDbRegAppTableRecord
2
ACAD
70
0
0
ENDTAB
0
TABLE
2
DIMSTYLE
5
A
100
AcDbSymbolTable
70
1
0
ENDTAB
0
TABLE
2
BLOCK_RECORD
5
1
100
AcDbSymbolTable
70
1
0
BLOCK_RECORD
5
1F
100
AcDbSymbolTableRecord
100
AcDbBlockTableRecord
2
*MODEL_SPACE
0
BLOCK_RECORD
5
1B
100
AcDbSymbolTableRecord
100
AcDbBlockTableRecord
2
*PAPER_SPACE
0
ENDTAB
0
ENDSEC
0
SECTION
2
BLOCKS
0
BLOCK
5
20
100
AcDbEntity
100
AcDbBlockBegin
2
*MODEL_SPACE
0
ENDBLK
5
21
100
AcDbEntity
100
AcDbBlockEnd
0
BLOCK
5
1C
100
AcDbEntity
100
AcDbBlockBegin
2
*PAPER_SPACE
0
ENDBLK
5
1D
100
AcDbEntity
100
AcDbBlockEnd
0
ENDSEC
0
SECTION
2
ENTITIES
0
LWPOLYLINE
5
100
100
AcDbEntity
8
0
100
AcDbPolyline
90
12
70
1
43
0.0
10
430
20
109
10
430
20
131
42
-0.41421356237310336
10
435
20
136
10
455
20
136
42
-0.41421356237310336
10
460
20
131
10
460
20
109
42
-0.41421356237309681
10
457
20
106
10
455
20
106
10
455
20
92.999999999995651
10
434.99999999997357
20
92.99999999999568
10
435.00000000000176
20
105.99999999999568
10
433
20
106.00000000000001
42
-0.41421356237309681
0
SPLINE
5
101
100
AcDbEntity
8
0
100
AcDbSpline
70
0
71
2
72
6
73
3
74
0
42
0.000000001
43
0.0000000001
44
0.0000000001
40
0
40
0
40
0
40
1
40
1
40
1
10
437.20527000725241
20
124.87031793594362
30
0
10
438.09292562305899
20
125.619277715683
30
0
10
438.46740551292868
20
126.5346727371216
30
0
0
SPLINE
5
102
100
AcDbEntity
8
0
100
AcDbSpline
70
0
71
2
72
6
73
3
74
0
42
0.000000001
43
0.0000000001
44
0.0000000001
40
0
40
0
40
0
40
1
40
1
40
1
10
438.46740551292868
20
126.5346727371216
30
0
10
438.84188540279837
20
127.45006775856019
30
0
10
438.84188540279837
20
128.6151168346405
30
0
0
LINE
5
103
100
AcDbEntity
8
0
100
AcDbLine
10
438.84188540279837
20
128.6151168346405
30
0
11
438.84188540279837
21
130.83425736427307
31
0
0
SPLINE
5
104
100
AcDbEntity
8
0
100
AcDbSpline
70
0
71
2
72
6
73
3
74
0
42
0.000000001
43
0.0000000001
44
0.0000000001
40
0
40
0
40
0
40
1
40
1
40
1
10
438.84188540279837
20
130.83425736427307
30
0
10
438.84188540279837
20
131.63869476318359
30
0
10
439.38280053436728
20
131.99930286407471
30
0
0
SPLINE
5
105
100
AcDbEntity
8
0
100
AcDbSpline
70
0
71
2
72
6
73
3
74
0
42
0.000000001
43
0.0000000001
44
0.0000000001
40
0
40
0
40
0
40
1
40
1
40
1
10
439.38280053436728
20
131.99930286407471
30
0
10
439.92371626198263
20
132.35991334915161
30
0
10
440.64493604004355
20
132.35991334915161
30
0
0
SPLINE
5
106
100
AcDbEntity
8
0
100
AcDbSpline
70
0
71
2
72
6
73
3
74
0
42
0.000000001
43
0.0000000001
44
0.0000000001
40
0
40
0
40
0
40
1
40
1
40
1
10
440.64493604004355
20
132.35991334915161
30
0
10
441.36615701019736
20
132.35991334915161
30
0
10
441.90707154571982
20
131.99930286407471
30
0
0
SPLINE
5
107
100
AcDbEntity
8
0
100
AcDbSpline
70
0
71
2
72
6
73
3
74
0
42
0.000000001
43
0.0000000001
44
0.0000000001
40
0
40
0
40
0
40
1
40
1
40
1
10
441.90707154571982
20
131.99930286407471
30
0
10
442.44798727333517
20
131.63869476318359
30
0
10
442.44798727333517
20
130.83425736427307
30
0
0
LINE
5
108
100
AcDbEntity
8
0
100
AcDbLine
10
442.44798727333517
20
130.83425736427307
30
0
11
442.44798727333517
21
128.72607445716858
31
0
0
SPLINE
5
109
100
AcDbEntity
8
0
100
AcDbSpline
70
0
71
2
72
6
73
3
74
0
42
0.000000001
43
0.0000000001
44
0.0000000001
40
0
40
0
40
0
40
1
40
1
40
1
10
442.44798727333517
20
128.72607445716858
30
0
10
442.44798727333517
20
127.56102538108826
30
0
10
442.82246775925131
20
126.64563035964966
30
0
0
SPLINE
5
110
100
AcDbEntity
8
0
100
AcDbSpline
70
0
71
2
72
6
73
3
74
0
42
0.000000001
43
0.0000000001
44
0.0000000001
40
0
40
0
40
0
40
1
40
1
40
1
10
442.82246775925131
20
126.64563035964966
30
0
10
443.19694705307455
20
125.73023533821106
30
0
10
444.08460326492758
20
124.98127555847168
30
0
0
SPLINE
5
111
100
AcDbEntity
8
0
100
AcDbSpline
70
0
71
2
72
6
73
3
74
0
42
0.000000001
43
0.0000000001
44
0.0000000001
40
0
40
0
40
0
40
1
40
1
40
1
10
444.08460326492758
20
124.98127555847168
30
0
10
444.99999828636618
20
124.2323157787323
30
0
10
445.80443568527676
20
123.63592123985291
30
0
0
SPLINE
5
112
100
AcDbEntity
8
0
100
AcDbSpline
70
0
71
2
72
6
73
3
74
0
42
0.000000001
43
0.0000000001
44
0.0000000001
40
0
40
0
40
0
40
1
40
1
40
1
10
445.80443568527676
20
123.63592123985291
30
0
10
446.60887427628018
20
123.03952789306641
30
0
10
447.24687643349148
20
122.56795978546143
30
0
0
SPLINE
5
113
100
AcDbEntity
8
0
100
AcDbSpline
70
0
71
2
72
6
73
3
74
0
42
0.000000001
43
0.0000000001
44
0.0000000001
40
0
40
0
40
0
40
1
40
1
40
1
10
447.24687643349148
20
122.56795978546143
30
0
10
447.82940097153164
20
122.15187168121335
30
0
10
447.85713978111721
20
121.55547714233396
30
0
0
SPLINE
5
114
100
AcDbEntity
8
0
100
AcDbSpline
70
0
71
2
72
6
73
3
74
0
42
0.000000001
43
0.0000000001
44
0.0000000001
40
0
40
0
40
0
40
1
40
1
40
1
10
447.85713978111721
20
121.55547714233396
30
0
10
447.88487978279568
20
120.95908379554746
30
0
10
447.4965304881332
20
120.43203806877133
30
0
0
SPLINE
5
115
100
AcDbEntity
8
0
100
AcDbSpline
70
0
71
2
72
6
73
3
74
0
42
0.000000001
43
0.0000000001
44
0.0000000001
40
0
40
0
40
0
40
1
40
1
40
1
10
447.4965304881332
20
120.43203806877133
30
0
10
447.33009405434109
20
120.21012401580811
30
0
10
447.09431119263149
20
120.02981877326965
30
0
0
SPLINE
5
116
100
AcDbEntity
8
0
100
AcDbSpline
70
0
71
2
72
6
73
3
74
0
42
0.000000001
43
0.0000000001
44
0.0000000001
40
0
40
0
40
0
40
1
40
1
40
1
10
447.09431119263149
20
120.02981877326965
30
0
10
446.858527138829
20
119.8495135307312
30
0
10
446.5811354666946
20
119.76629590988159
30
0
0
SPLINE
5
117
100
AcDbEntity
8
0
100
AcDbSpline
70
0
71
2
72
6
73
3
74
0
42
0.000000001
43
0.0000000001
44
0.0000000001
40
0
40
0
40
0
40
1
40
1
40
1
10
446.5811354666946
20
119.76629590988159
30
0
10
446.30374260246731
20
119.68307828903198
30
0
10
445.98474092781521
20
119.71081709861755
30
0
0
SPLINE
5
118
100
AcDbEntity
8
0
100
AcDbSpline
70
0
71
2
72
6
73
3
74
0
42
0.000000001
43
0.0000000001
44
0.0000000001
40
0
40
0
40
0
40
1
40
1
40
1
10
445.98474092781521
20
119.71081709861755
30
0
10
445.66573925316311
20
119.73855710029602
30
0
10
445.33286876976467
20
119.96047115325928
30
0
0
SPLINE
5
119
100
AcDbEntity
8
0
100
AcDbSpline
70
0
71
2
72
6
73
3
74
0
42
0.000000001
43
0.0000000001
44
0.0000000001
40
0
40
0
40
0
40
1
40
1
40
1
10
445.33286876976467
20
119.96047115325928
30
0
10
444.80582304298855
20
120.32108163833618
30
0
10
444.09847207367397
20
120.86199617385864
30
0
0
SPLINE
5
120
100
AcDbEntity
8
0
100
AcDbSpline
70
0
71
2
72
6
73
3
74
0
42
0.000000001
43
0.0000000001
44
0.0000000001
40
0
40
0
40
0
40
1
40
1
40
1
10
444.09847207367397
20
120.86199617385864
30
0
10
443.3911211043594
20
121.402911901474
30
0
10
442.55894489586331
20
122.06865406036377
30
0
0
SPLINE
5
121
100
AcDbEntity
8
0
100
AcDbSpline
70
0
71
2
72
6
73
3
74
0
42
0.000000001
43
0.0000000001
44
0.0000000001
40
0
40
0
40
0
40
1
40
1
40
1
10
442.55894489586331
20
122.06865406036377
30
0
10
441.5603322535751
20
122.87309265136719
30
0
10
441.18585176765896
20
123.31691956520081
30
0
0
SPLINE
5
122
100
AcDbEntity
8
0
100
AcDbSpline
70
0
71
2
72
6
73
3
74
0
42
0.000000001
43
0.0000000001
44
0.0000000001
40
0
40
0
40
0
40
1
40
1
40
1
10
441.18585176765896
20
123.31691956520081
30
0
10
440.81137128174277
20
123.76074767112733
30
0
10
440.70041485130758
20
124.14909696578981
30
0
0
LINE
5
123
100
AcDbEntity
8
0
100
AcDbLine
10
440.70041485130758
20
124.14909696578981
30
0
11
440.67267604172201
21
124.14909696578981
31
0
0
SPLINE
5
124
100
AcDbEntity
8
0
100
AcDbSpline
70
0
71
2
72
6
73
3
74
0
42
0.000000001
43
0.0000000001
44
0.0000000001
40
0
40
0
40
0
40
1
40
1
40
1
10
440.67267604172201
20
124.14909696578981
30
0
10
440.56171841919399
20
123.67753005027772
30
0
10
440.14563031494595
20
123.17822432518007
30
0
0
SPLINE
5
125
100
AcDbEntity
8
0
100
AcDbSpline
70
0
71
2
72
6
73
3
74
0
42
0.000000001
43
0.0000000001
44
0.0000000001
40
0
40
0
40
0
40
1
40
1
40
1
10
440.14563031494595
20
123.17822432518007
30
0
10
439.7295422106979
20
122.67891740798952
30
0
10
438.7309283763168
20
121.8744788169861
30
0
0
SPLINE
5
126
100
AcDbEntity
8
0
100
AcDbSpline
70
0
71
2
72
6
73
3
74
0
42
0.000000001
43
0.0000000001
44
0.0000000001
40
0
40
0
40
0
40
1
40
1
40
1
10
438.7309283763168
20
121.8744788169861
30
0
10
437.12205238640286
20
120.5984733104706
30
0
10
435.51317580044247
20
119.46116542816164
30
0
0
SPLINE
5
127
100
AcDbEntity
8
0
100
AcDbSpline
70
0
71
2
72
6
73
3
74
0
42
0.000000001
43
0.0000000001
44
0.0000000001
40
0
40
0
40
0
40
1
40
1
40
1
10
435.51317580044247
20
119.46116542816164
30
0
10
434.90291245281674
20
119.01733493804933
30
0
10
434.29264850914456
20
119.25312137603761
30
0
0
SPLINE
5
128
100
AcDbEntity
8
0
100
AcDbSpline
70
0
71
2
72
6
73
3
74
0
42
0.000000001
43
0.0000000001
44
0.0000000001
40
0
40
0
40
0
40
1
40
1
40
1
10
434.29264850914456
20
119.25312137603761
30
0
10
433.68238545954205
20
119.48890304565431
30
0
10
433.37725378572918
20
119.96047115325929
30
0
0
SPLINE
5
129
100
AcDbEntity
8
0
100
AcDbSpline
70
0
71
2
72
6
73
3
74
0
42
0.000000001
43
0.0000000001
44
0.0000000001
40
0
40
0
40
0
40
1
40
1
40
1
10
433.37725378572918
20
119.96047115325929
30
0
10
433.0166435986755
20
120.45977687835695
30
0
10
433.0166435986755
20
121.09778022766115
30
0
0
SPLINE
5
130
100
AcDbEntity
8
0
100
AcDbSpline
70
0
71
2
72
6
73
3
74
0
42
0.000000001
43
0.0000000001
44
0.0000000001
40
0
40
0
40
0
40
1
40
1
40
1
10
433.0166435986755
20
121.09778022766115
30
0
10
433.0166435986755
20
121.73578238487245
30
0
10
433.65464635193325
20
122.17961049079896
30
0
0
SPLINE
5
131
100
AcDbEntity
8
0
100
AcDbSpline
70
0
71
2
72
6
73
3
74
0
42
0.000000001
43
0.0000000001
44
0.0000000001
40
0
40
0
40
0
40
1
40
1
40
1
10
433.65464635193325
20
122.17961049079896
30
0
10
434.59778018295742
20
122.84535264968873
30
0
10
435.44382758438564
20
123.48335599899293
30
0
0
SPLINE
5
132
100
AcDbEntity
8
0
100
AcDbSpline
70
0
71
2
72
6
73
3
74
0
42
0.000000001
43
0.0000000001
44
0.0000000001
40
0
40
0
40
0
40
1
40
1
40
1
10
435.44382758438564
20
123.48335599899293
30
0
10
436.28987498581387
20
124.12135815620424
30
0
10
437.20527000725241
20
124.87031793594362
30
0
0
SPLINE
5
133
100
AcDbEntity
8
0
100
AcDbSpline
70
0
71
2
72
6
73
3
74
0
42
0.000000001
43
0.0000000001
44
0.0000000001
40
0
40
0
40
0
40
1
40
1
40
1
10
455.70734687149496
20
127.53328537940976
30
0
10
456.37309022247763
20
127.53328537940975
30
0
10
456.6782207041976
20
127.08945846557613
30
0
0
SPLINE
5
134
100
AcDbEntity
8
0
100
AcDbSpline
70
0
71
2
72
6
73
3
74
0
42
0.000000001
43
0.0000000001
44
0.0000000001
40
0
40
0
40
0
40
1
40
1
40
1
10
456.6782207041976
20
127.08945846557613
30
0
10
456.98335357010336
20
126.64563035964962
30
0
10
456.98335357010336
20
126.00762701034542
30
0
0
SPLINE
5
135
100
AcDbEntity
8
0
100
AcDbSpline
70
0
71
2
72
6
73
3
74
0
42
0.000000001
43
0.0000000001
44
0.0000000001
40
0
40
0
40
0
40
1
40
1
40
1
10
456.98335357010336
20
126.00762701034542
30
0
10
456.98335357010336
20
125.36962485313411
30
0
10
456.6782207041976
20
124.91192674636837
30
0
0
SPLINE
5
136
100
AcDbEntity
8
0
100
AcDbSpline
70
0
71
2
72
6
73
3
74
0
42
0.000000001
43
0.0000000001
44
0.0000000001
40
0
40
0
40
0
40
1
40
1
40
1
10
456.6782207041976
20
124.91192674636837
30
0
10
456.37309022247763
20
124.45422983169551
30
0
10
455.70734687149496
20
124.45422983169553
30
0
0
LINE
5
137
100
AcDbEntity
8
0
100
AcDbLine
10
455.70734687149496
20
124.45422983169553
30
0
11
453.09985823929281
21
124.45422983169553
31
0
0
LINE
5
138
100
AcDbEntity
8
0
100
AcDbLine
10
453.09985823929281
20
124.45422983169553
30
0
11
453.09985823929281
21
120.0991675853729
31
0
0
SPLINE
5
139
100
AcDbEntity
8
0
100
AcDbSpline
70
0
71
2
72
6
73
3
74
0
42
0.000000001
43
0.0000000001
44
0.0000000001
40
0
40
0
40
0
40
1
40
1
40
1
10
453.09985823929287
20
120.0991675853729
30
0
10
453.09985823929287
20
119.32246780395505
30
0
10
452.55894370377041
20
118.96185731887815
30
0
0
SPLINE
5
140
100
AcDbEntity
8
0
100
AcDbSpline
70
0
71
2
72
6
73
3
74
0
42
0.000000001
43
0.0000000001
44
0.0000000001
40
0
40
0
40
0
40
1
40
1
40
1
10
452.55894370377041
20
118.96185731887815
30
0
10
452.01802916824795
20
118.60124683380124
30
0
10
451.32454581558682
20
118.60124683380124
30
0
0
SPLINE
5
141
100
AcDbEntity
8
0
100
AcDbSpline
70
0
71
2
72
6
73
3
74
0
42
0.000000001
43
0.0000000001
44
0.0000000001
40
0
40
0
40
0
40
1
40
1
40
1
10
451.32454581558682
20
118.60124683380124
30
0
10
450.63106484711147
20
118.60124683380124
30
0
10
450.09015031158901
20
118.96185731887815
30
0
0
SPLINE
5
142
100
AcDbEntity
8
0
100
AcDbSpline
70
0
71
2
72
6
73
3
74
0
42
0.000000001
43
0.0000000001
44
0.0000000001
40
0
40
0
40
0
40
1
40
1
40
1
10
450.09015031158901
20
118.96185731887815
30
0
10
449.54923339188076
20
119.32246780395505
30
0
10
449.54923339188076
20
120.0991675853729
30
0
0
LINE
5
143
100
AcDbEntity
8
0
100
AcDbLine
10
449.54923339188076
20
120.09916758537288
30
0
11
449.54923339188076
21
131.72191238403317
31
0
0
SPLINE
5
144
100
AcDbEntity
8
0
100
AcDbSpline
70
0
71
2
72
6
73
3
74
0
42
0.000000001
43
0.0000000001
44
0.0000000001
40
0
40
0
40
0
40
1
40
1
40
1
10
449.5492333918807
20
131.72191238403317
30
0
10
449.5492333918807
20
132.49861097335813
30
0
10
450.09015031158896
20
132.85922145843503
30
0
0
SPLINE
5
145
100
AcDbEntity
8
0
100
AcDbSpline
70
0
71
2
72
6
73
3
74
0
42
0.000000001
43
0.0000000001
44
0.0000000001
40
0
40
0
40
0
40
1
40
1
40
1
10
450.09015031158896
20
132.85922145843503
30
0
10
450.63106484711142
20
133.21983194351193
30
0
10
451.32454581558676
20
133.21983194351193
30
0
0
SPLINE
5
146
100
AcDbEntity
8
0
100
AcDbSpline
70
0
71
2
72
6
73
3
74
0
42
0.000000001
43
0.0000000001
44
0.0000000001
40
0
40
0
40
0
40
1
40
1
40
1
10
451.32454581558676
20
133.21983194351193
30
0
10
452.01802916824789
20
133.21983194351193
30
0
10
452.55894370377035
20
132.85922145843503
30
0
0
SPLINE
5
147
100
AcDbEntity
8
0
100
AcDbSpline
70
0
71
2
72
6
73
3
74
0
42
0.000000001
43
0.0000000001
44
0.0000000001
40
0
40
0
40
0
40
1
40
1
40
1
10
452.55894370377035
20
132.85922145843503
30
0
10
453.09985823929281
20
132.49861097335813
30
0
10
453.09985823929281
20
131.72191238403317
30
0
0
LINE
5
148
100
AcDbEntity
8
0
100
AcDbLine
10
453.09985823929281
20
131.72191238403317
30
0
11
453.09985823929281
21
127.53328537940976
31
0
0
LINE
5
149
100
AcDbEntity
8
0
100
AcDbLine
10
453.09985823929281
20
127.53328537940976
30
0
11
455.70734687149496
21
127.53328537940976
31
0
0
SPLINE
5
150
100
AcDbEntity
8
0
100
AcDbSpline
70
0
71
2
72
6
73
3
74
0
42
0.000000001
43
0.0000000001
44
0.0000000001
40
0
40
0
40
0
40
1
40
1
40
1
10
439.03606005012966
20
107.50554656982423
30
0
10
437.70457632839657
20
107.50554656982423
30
0
10
437.19140000641323
20
108.00485467910768
30
0
0
SPLINE
5
151
100
AcDbEntity
8
0
100
AcDbSpline
70
0
71
2
72
6
73
3
74
0
42
0.000000001
43
0.0000000001
44
0.0000000001
40
0
40
0
40
0
40
1
40
1
40
1
10
437.19140000641323
20
108.00485467910768
30
0
10
436.67822428047634
20
108.50416040420534
30
0
10
436.67822428047634
20
109.80790472030641
30
0
0
LINE
5
152
100
AcDbEntity
8
0
100
AcDbLine
10
436.67822428047634
20
109.80790472030642
30
0
11
436.67822428047634
21
115.27253723144533
31
0
0
SPLINE
5
153
100
AcDbEntity
8
0
100
AcDbSpline
70
0
71
2
72
6
73
3
74
0
42
0.000000001
43
0.0000000001
44
0.0000000001
40
0
40
0
40
0
40
1
40
1
40
1
10
436.67822428047634
20
115.27253723144533
30
0
10
436.67822428047634
20
116.5762815475464
30
0
10
437.19140000641323
20
117.07558727264406
30
0
0
SPLINE
5
154
100
AcDbEntity
8
0
100
AcDbSpline
70
0
71
2
72
6
73
3
74
0
42
0.000000001
43
0.0000000001
44
0.0000000001
40
0
40
0
40
0
40
1
40
1
40
1
10
437.19140000641323
20
117.07558727264406
30
0
10
437.70457632839657
20
117.5748953819275
30
0
10
439.03606005012966
20
117.5748953819275
30
0
0
LINE
5
155
100
AcDbEntity
8
0
100
AcDbLine
10
439.03606005012966
20
117.5748953819275
30
0
11
450.74202246963955
21
117.57489538192746
31
0
0
SPLINE
5
156
100
AcDbEntity
8
0
100
AcDbSpline
70
0
71
2
72
6
73
3
74
0
42
0.000000001
43
0.0000000001
44
0.0000000001
40
0
40
0
40
0
40
1
40
1
40
1
10
450.74202246963955
20
117.57489538192746
30
0
10
452.0735044032333
20
117.57489538192746
30
0
10
452.58668370544888
20
117.07558727264401
30
0
0
SPLINE
5
157
100
AcDbEntity
8
0
100
AcDbSpline
70
0
71
2
72
6
73
3
74
0
42
0.000000001
43
0.0000000001
44
0.0000000001
40
0
40
0
40
0
40
1
40
1
40
1
10
452.58668370544888
20
117.07558727264401
30
0
10
453.09985823929287
20
116.57628154754636
30
0
10
453.09985823929287
20
115.27253723144528
30
0
0
LINE
5
158
100
AcDbEntity
8
0
100
AcDbLine
10
453.09985823929287
20
115.27253723144527
30
0
11
453.09985823929287
21
109.80790472030637
31
0
0
SPLINE
5
159
100
AcDbEntity
8
0
100
AcDbSpline
70
0
71
2
72
6
73
3
74
0
42
0.000000001
43
0.0000000001
44
0.0000000001
40
0
40
0
40
0
40
1
40
1
40
1
10
453.09985823929287
20
109.80790472030637
30
0
10
453.09985823929287
20
108.50416040420529
30
0
10
452.58668370544888
20
108.00485467910764
30
0
0
SPLINE
5
160
100
AcDbEntity
8
0
100
AcDbSpline
70
0
71
2
72
6
73
3
74
0
42
0.000000001
43
0.0000000001
44
0.0000000001
40
0
40
0
40
0
40
1
40
1
40
1
10
452.58668370544888
20
108.00485467910764
30
0
10
452.0735044032333
20
107.50554656982419
30
0
10
450.74202246963955
20
107.50554656982419
30
0
0
LINE
5
161
100
AcDbEntity
8
0
100
AcDbLine
10
450.74202246963955
20
107.50554656982419
30
0
11
439.03606005012966
21
107.50554656982423
31
0
0
SPLINE
5
162
100
AcDbEntity
8
0
100
AcDbSpline
70
0
71
2
72
6
73
3
74
0
42
0.000000001
43
0.0000000001
44
0.0000000001
40
0
40
0
40
0
40
1
40
1
40
1
10
448.93897123634792
20
110.44590806961057
30
0
10
449.57697339355923
20
110.44590806961057
30
0
10
449.57697339355923
20
111.08391141891477
30
0
0
LINE
5
163
100
AcDbEntity
8
0
100
AcDbLine
10
449.57697339355923
20
111.08391141891477
30
0
11
449.57697339355923
21
113.99653291702268
31
0
0
SPLINE
5
164
100
AcDbEntity
8
0
100
AcDbSpline
70
0
71
2
72
6
73
3
74
0
42
0.000000001
43
0.0000000001
44
0.0000000001
40
0
40
0
40
0
40
1
40
1
40
1
10
449.57697339355923
20
113.99653291702268
30
0
10
449.57697339355923
20
114.63453388214108
30
0
10
448.93897123634792
20
114.63453388214108
30
0
0
LINE
5
165
100
AcDbEntity
8
0
100
AcDbLine
10
448.93897123634792
20
114.63453388214108
30
0
11
440.83911128342129
21
114.63453388214111
31
0
0
SPLINE
5
166
100
AcDbEntity
8
0
100
AcDbSpline
70
0
71
2
72
6
73
3
74
0
42
0.000000001
43
0.0000000001
44
0.0000000001
40
0
40
0
40
0
40
1
40
1
40
1
10
440.83911128342129
20
114.63453388214113
30
0
10
440.20110793411709
20
114.63453388214113
30
0
10
440.20110793411709
20
113.99653291702272
30
0
0
LINE
5
167
100
AcDbEntity
8
0
100
AcDbLine
10
440.20110793411709
20
113.99653291702272
30
0
11
440.20110793411709
21
111.08391141891481
31
0
0
SPLINE
5
168
100
AcDbEntity
8
0
100
AcDbSpline
70
0
71
2
72
6
73
3
74
0
42
0.000000001
43
0.0000000001
44
0.0000000001
40
0
40
0
40
0
40
1
40
1
40
1
10
440.20110793411709
20
111.08391141891481
30
0
10
440.20110793411709
20
110.44590806961061
30
0
10
440.83911128342129
20
110.44590806961061
30
0
0
LINE
5
169
100
AcDbEntity
8
0
100
AcDbLine
10
440.83911128342129
20
110.44590806961061
30
0
11
448.93897123634792
21
110.44590806961057
31
0
0
ENDSEC
0
SECTION
2
OBJECTS
0
DICTIONARY
5
C
100
AcDbDictionary
3
ACAD_GROUP
350
D
3
ACAD_MLINESTYLE
350
17
0
DICTIONARY
5
D
100
AcDbDictionary
0
DICTIONARY
5
1A
330
C
100
AcDbDictionary
0
DICTIONARY
5
17
100
AcDbDictionary
0
ENDSEC
0
EOF
