0
SECTION
2
HEADER
9
$INSUNITS
70
4
9
$ACADVER
1
AC1014
9
$HANDSEED
5
FFFF
0
ENDSEC
0
SECTION
2
TABLES
0
TABLE
2
VPORT
5
8
100
AcDbSymbolTable
0
ENDTAB
0
TABLE
2
LTYPE
5
5
100
AcDbSymbolTable
0
LTYPE
5
14
100
AcDbSymbolTableRecord
100
AcDbLinetypeTableRecord
2
BYBLOCK
70
0
0
LTYPE
5
15
100
AcDbSymbolTableRecord
100
AcDbLinetypeTableRecord
2
BYLAYER
70
0
0
ENDTAB
0
TABLE
2
LAYER
5
2
100
AcDbSymbolTable
70
2
0
LAYER
5
50
100
AcDbSymbolTableRecord
100
AcDbLayerTableRecord
2
0
70
0
6
CONTINUOUS
0
ENDTAB
0
TABLE
2
STYLE
5
3
100
AcDbSymbolTable
70
1
0
STYLE
5
11
100
AcDbSymbolTableRecord
100
AcDbTextStyleTableRecord
2
STANDARD
70
0
0
ENDTAB
0
TABLE
2
VIEW
5
6
100
AcDbSymbolTable
70
0
0
ENDTAB
0
TABLE
2
UCS
5
7
100
AcDbSymbolTable
70
0
0
ENDTAB
0
TABLE
2
APPID
5
9
100
AcDbSymbolTable
70
2
0
APPID
5
12
100
AcDbSymbolTableRecord
100
AcDbRegAppTableRecord
2
ACAD
70
0
0
ENDTAB
0
TABLE
2
DIMSTYLE
5
A
100
AcDbSymbolTable
70
1
0
ENDTAB
0
TABLE
2
BLOCK_RECORD
5
1
100
AcDbSymbolTable
70
1
0
BLOCK_RECORD
5
1F
100
AcDbSymbolTableRecord
100
AcDbBlockTableRecord
2
*MODEL_SPACE
0
BLOCK_RECORD
5
1B
100
AcDbSymbolTableRecord
100
AcDbBlockTableRecord
2
*PAPER_SPACE
0
ENDTAB
0
ENDSEC
0
SECTION
2
BLOCKS
0
BLOCK
5
20
100
AcDbEntity
100
AcDbBlockBegin
2
*MODEL_SPACE
0
ENDBLK
5
21
100
AcDbEntity
100
AcDbBlockEnd
0
BLOCK
5
1C
100
AcDbEntity
100
AcDbBlockBegin
2
*PAPER_SPACE
0
ENDBLK
5
1D
100
AcDbEntity
100
AcDbBlockEnd
0
ENDSEC
0
SECTION
2
ENTITIES
0
LWPOLYLINE
5
100
100
AcDbEntity
8
0
100
AcDbPolyline
90
12
70
1
43
0.0
10
535
20
48.99999999999568
10
535
20
61.999999999999993
10
537
20
61.999999999999993
42
0.41421356237309681
10
540
20
65
10
540
20
87
42
0.41421356237310336
10
535
20
92
10
515
20
92
42
0.41421356237310336
10
510
20
87
10
510
20
65
42
0.41421356237309681
10
513
20
62.000000000000014
10
515.00000000000182
20
61.99999999999568
10
514.99999999997362
20
48.99999999999568
0
SPLINE
5
101
100
AcDbEntity
8
0
100
AcDbSpline
70
0
71
2
72
6
73
3
74
0
42
0.000000001
43
0.0000000001
44
0.0000000001
40
0
40
0
40
0
40
1
40
1
40
1
10
517.20527000725224
20
80.870317935945607
30
0
10
518.09292562305882
20
81.619277715684916
30
0
10
518.46740551292851
20
82.534672737123472
30
0
0
SPLINE
5
102
100
AcDbEntity
8
0
100
AcDbSpline
70
0
71
2
72
6
73
3
74
0
42
0.000000001
43
0.0000000001
44
0.0000000001
40
0
40
0
40
0
40
1
40
1
40
1
10
518.46740551292851
20
82.534672737123472
30
0
10
518.84188540279808
20
83.450067758562042
30
0
10
518.84188540279808
20
84.615116834642365
30
0
0
LINE
5
103
100
AcDbEntity
8
0
100
AcDbLine
10
518.84188540279808
20
84.615116834642365
30
0
11
518.84188540279808
21
86.834257364274933
31
0
0
SPLINE
5
104
100
AcDbEntity
8
0
100
AcDbSpline
70
0
71
2
72
6
73
3
74
0
42
0.000000001
43
0.0000000001
44
0.0000000001
40
0
40
0
40
0
40
1
40
1
40
1
10
518.84188540279808
20
86.834257364274933
30
0
10
518.84188540279808
20
87.638694763185455
30
0
10
519.38280053436699
20
87.999302864076512
30
0
0
SPLINE
5
105
100
AcDbEntity
8
0
100
AcDbSpline
70
0
71
2
72
6
73
3
74
0
42
0.000000001
43
0.0000000001
44
0.0000000001
40
0
40
0
40
0
40
1
40
1
40
1
10
519.38280053436699
20
87.999302864076512
30
0
10
519.92371626198224
20
88.359913349153359
30
0
10
520.64493604004315
20
88.359913349153317
30
0
0
SPLINE
5
106
100
AcDbEntity
8
0
100
AcDbSpline
70
0
71
2
72
6
73
3
74
0
42
0.000000001
43
0.0000000001
44
0.0000000001
40
0
40
0
40
0
40
1
40
1
40
1
10
520.64493604004315
20
88.359913349153317
30
0
10
521.36615701019696
20
88.359913349153231
30
0
10
521.90707154571953
20
87.999302864076284
30
0
0
SPLINE
5
107
100
AcDbEntity
8
0
100
AcDbSpline
70
0
71
2
72
6
73
3
74
0
42
0.000000001
43
0.0000000001
44
0.0000000001
40
0
40
0
40
0
40
1
40
1
40
1
10
521.90707154571953
20
87.999302864076284
30
0
10
522.44798727333489
20
87.638694763185129
30
0
10
522.44798727333489
20
86.834257364274606
30
0
0
LINE
5
108
100
AcDbEntity
8
0
100
AcDbLine
10
522.44798727333489
20
86.834257364274606
30
0
11
522.44798727333489
21
84.726074457170114
31
0
0
SPLINE
5
109
100
AcDbEntity
8
0
100
AcDbSpline
70
0
71
2
72
6
73
3
74
0
42
0.000000001
43
0.0000000001
44
0.0000000001
40
0
40
0
40
0
40
1
40
1
40
1
10
522.44798727333489
20
84.726074457170114
30
0
10
522.44798727333489
20
83.561025381089792
30
0
10
522.82246775925114
20
82.645630359651165
30
0
0
SPLINE
5
110
100
AcDbEntity
8
0
100
AcDbSpline
70
0
71
2
72
6
73
3
74
0
42
0.000000001
43
0.0000000001
44
0.0000000001
40
0
40
0
40
0
40
1
40
1
40
1
10
522.82246775925114
20
82.645630359651165
30
0
10
523.19694705307438
20
81.730235338212523
30
0
10
524.08460326492741
20
80.981275558473058
30
0
0
SPLINE
5
111
100
AcDbEntity
8
0
100
AcDbSpline
70
0
71
2
72
6
73
3
74
0
42
0.000000001
43
0.0000000001
44
0.0000000001
40
0
40
0
40
0
40
1
40
1
40
1
10
524.08460326492741
20
80.981275558473058
30
0
10
524.99999828636601
20
80.232315778733607
30
0
10
525.80443568527653
20
79.635921239854142
30
0
0
SPLINE
5
112
100
AcDbEntity
8
0
100
AcDbSpline
70
0
71
2
72
6
73
3
74
0
42
0.000000001
43
0.0000000001
44
0.0000000001
40
0
40
0
40
0
40
1
40
1
40
1
10
525.80443568527653
20
79.635921239854142
30
0
10
526.60887427627995
20
79.039527893067557
30
0
10
527.24687643349125
20
78.567959785462534
30
0
0
SPLINE
5
113
100
AcDbEntity
8
0
100
AcDbSpline
70
0
71
2
72
6
73
3
74
0
42
0.000000001
43
0.0000000001
44
0.0000000001
40
0
40
0
40
0
40
1
40
1
40
1
10
527.24687643349125
20
78.567959785462534
30
0
10
527.82940097153141
20
78.151871681214431
30
0
10
527.85713978111698
20
77.555477142335022
30
0
0
SPLINE
5
114
100
AcDbEntity
8
0
100
AcDbSpline
70
0
71
2
72
6
73
3
74
0
42
0.000000001
43
0.0000000001
44
0.0000000001
40
0
40
0
40
0
40
1
40
1
40
1
10
527.85713978111698
20
77.555477142335022
30
0
10
527.88487978279545
20
76.959083795548523
30
0
10
527.49653048813298
20
76.432038068772442
30
0
0
SPLINE
5
115
100
AcDbEntity
8
0
100
AcDbSpline
70
0
71
2
72
6
73
3
74
0
42
0.000000001
43
0.0000000001
44
0.0000000001
40
0
40
0
40
0
40
1
40
1
40
1
10
527.49653048813298
20
76.432038068772442
30
0
10
527.33009405434086
20
76.2101240158092
30
0
10
527.09431119263127
20
76.029818773270762
30
0
0
SPLINE
5
116
100
AcDbEntity
8
0
100
AcDbSpline
70
0
71
2
72
6
73
3
74
0
42
0.000000001
43
0.0000000001
44
0.0000000001
40
0
40
0
40
0
40
1
40
1
40
1
10
527.09431119263127
20
76.029818773270762
30
0
10
526.85852713882878
20
75.849513530732338
30
0
10
526.58113546669438
20
75.766295909882757
30
0
0
SPLINE
5
117
100
AcDbEntity
8
0
100
AcDbSpline
70
0
71
2
72
6
73
3
74
0
42
0.000000001
43
0.0000000001
44
0.0000000001
40
0
40
0
40
0
40
1
40
1
40
1
10
526.58113546669438
20
75.766295909882757
30
0
10
526.30374260246708
20
75.683078289033162
30
0
10
525.98474092781498
20
75.710817098618776
30
0
0
SPLINE
5
118
100
AcDbEntity
8
0
100
AcDbSpline
70
0
71
2
72
6
73
3
74
0
42
0.000000001
43
0.0000000001
44
0.0000000001
40
0
40
0
40
0
40
1
40
1
40
1
10
525.98474092781498
20
75.710817098618776
30
0
10
525.66573925316288
20
75.738557100297271
30
0
10
525.33286876976445
20
75.960471153260556
30
0
0
SPLINE
5
119
100
AcDbEntity
8
0
100
AcDbSpline
70
0
71
2
72
6
73
3
74
0
42
0.000000001
43
0.0000000001
44
0.0000000001
40
0
40
0
40
0
40
1
40
1
40
1
10
525.33286876976445
20
75.960471153260556
30
0
10
524.80582304298832
20
76.321081638337503
30
0
10
524.09847207367375
20
76.861996173860035
30
0
0
SPLINE
5
120
100
AcDbEntity
8
0
100
AcDbSpline
70
0
71
2
72
6
73
3
74
0
42
0.000000001
43
0.0000000001
44
0.0000000001
40
0
40
0
40
0
40
1
40
1
40
1
10
524.09847207367375
20
76.861996173860035
30
0
10
523.39112110435917
20
77.402911901475449
30
0
10
522.55894489586308
20
78.06865406036529
30
0
0
SPLINE
5
121
100
AcDbEntity
8
0
100
AcDbSpline
70
0
71
2
72
6
73
3
74
0
42
0.000000001
43
0.0000000001
44
0.0000000001
40
0
40
0
40
0
40
1
40
1
40
1
10
522.55894489586308
20
78.06865406036529
30
0
10
521.56033225357487
20
78.873092651368793
30
0
10
521.18585176765873
20
79.316919565202454
30
0
0
SPLINE
5
122
100
AcDbEntity
8
0
100
AcDbSpline
70
0
71
2
72
6
73
3
74
0
42
0.000000001
43
0.0000000001
44
0.0000000001
40
0
40
0
40
0
40
1
40
1
40
1
10
521.18585176765873
20
79.316919565202454
30
0
10
520.81137128174259
20
79.760747671128996
30
0
10
520.70041485130741
20
80.1490969657915
30
0
0
LINE
5
123
100
AcDbEntity
8
0
100
AcDbLine
10
520.70041485130741
20
80.1490969657915
30
0
11
520.67267604172184
21
80.1490969657915
31
0
0
SPLINE
5
124
100
AcDbEntity
8
0
100
AcDbSpline
70
0
71
2
72
6
73
3
74
0
42
0.000000001
43
0.0000000001
44
0.0000000001
40
0
40
0
40
0
40
1
40
1
40
1
10
520.67267604172184
20
80.1490969657915
30
0
10
520.56171841919377
20
79.677530050279415
30
0
10
520.14563031494572
20
79.178224325181802
30
0
0
SPLINE
5
125
100
AcDbEntity
8
0
100
AcDbSpline
70
0
71
2
72
6
73
3
74
0
42
0.000000001
43
0.0000000001
44
0.0000000001
40
0
40
0
40
0
40
1
40
1
40
1
10
520.14563031494572
20
79.178224325181802
30
0
10
519.72954221069767
20
78.678917407991278
30
0
10
518.73092837631657
20
77.874478816987946
30
0
0
SPLINE
5
126
100
AcDbEntity
8
0
100
AcDbSpline
70
0
71
2
72
6
73
3
74
0
42
0.000000001
43
0.0000000001
44
0.0000000001
40
0
40
0
40
0
40
1
40
1
40
1
10
518.73092837631657
20
77.874478816987946
30
0
10
517.12205238640263
20
76.598473310472585
30
0
10
515.51317580044224
20
75.461165428163781
30
0
0
SPLINE
5
127
100
AcDbEntity
8
0
100
AcDbSpline
70
0
71
2
72
6
73
3
74
0
42
0.000000001
43
0.0000000001
44
0.0000000001
40
0
40
0
40
0
40
1
40
1
40
1
10
515.51317580044224
20
75.461165428163781
30
0
10
514.90291245281651
20
75.017334938051533
30
0
10
514.29264850914433
20
75.253121376039871
30
0
0
SPLINE
5
128
100
AcDbEntity
8
0
100
AcDbSpline
70
0
71
2
72
6
73
3
74
0
42
0.000000001
43
0.0000000001
44
0.0000000001
40
0
40
0
40
0
40
1
40
1
40
1
10
514.29264850914433
20
75.253121376039871
30
0
10
513.68238545954182
20
75.488903045656613
30
0
10
513.37725378572895
20
75.960471153261622
30
0
0
SPLINE
5
129
100
AcDbEntity
8
0
100
AcDbSpline
70
0
71
2
72
6
73
3
74
0
42
0.000000001
43
0.0000000001
44
0.0000000001
40
0
40
0
40
0
40
1
40
1
40
1
10
513.37725378572895
20
75.960471153261622
30
0
10
513.01664359867527
20
76.459776878359321
30
0
10
513.01664359867527
20
77.09778022766352
30
0
0
SPLINE
5
130
100
AcDbEntity
8
0
100
AcDbSpline
70
0
71
2
72
6
73
3
74
0
42
0.000000001
43
0.0000000001
44
0.0000000001
40
0
40
0
40
0
40
1
40
1
40
1
10
513.01664359867527
20
77.09778022766352
30
0
10
513.01664359867527
20
77.735782384874824
30
0
10
513.65464635193302
20
78.179610490801267
30
0
0
SPLINE
5
131
100
AcDbEntity
8
0
100
AcDbSpline
70
0
71
2
72
6
73
3
74
0
42
0.000000001
43
0.0000000001
44
0.0000000001
40
0
40
0
40
0
40
1
40
1
40
1
10
513.65464635193302
20
78.179610490801267
30
0
10
514.59778018295719
20
78.845352649690966
30
0
10
515.44382758438542
20
79.48335599899508
30
0
0
SPLINE
5
132
100
AcDbEntity
8
0
100
AcDbSpline
70
0
71
2
72
6
73
3
74
0
42
0.000000001
43
0.0000000001
44
0.0000000001
40
0
40
0
40
0
40
1
40
1
40
1
10
515.44382758438542
20
79.48335599899508
30
0
10
516.28987498581364
20
80.121358156206313
30
0
10
517.20527000725224
20
80.870317935945607
30
0
0
SPLINE
5
133
100
AcDbEntity
8
0
100
AcDbSpline
70
0
71
2
72
6
73
3
74
0
42
0.000000001
43
0.0000000001
44
0.0000000001
40
0
40
0
40
0
40
1
40
1
40
1
10
535.70734687149468
20
83.533285379410131
30
0
10
536.37309022247734
20
83.533285379410074
30
0
10
536.67822070419732
20
83.089458465576428
30
0
0
SPLINE
5
134
100
AcDbEntity
8
0
100
AcDbSpline
70
0
71
2
72
6
73
3
74
0
42
0.000000001
43
0.0000000001
44
0.0000000001
40
0
40
0
40
0
40
1
40
1
40
1
10
536.67822070419732
20
83.089458465576428
30
0
10
536.98335357010319
20
82.645630359649886
30
0
10
536.98335357010319
20
82.007627010345686
30
0
0
SPLINE
5
135
100
AcDbEntity
8
0
100
AcDbSpline
70
0
71
2
72
6
73
3
74
0
42
0.000000001
43
0.0000000001
44
0.0000000001
40
0
40
0
40
0
40
1
40
1
40
1
10
536.98335357010319
20
82.007627010345686
30
0
10
536.98335357010319
20
81.369624853134383
30
0
10
536.67822070419743
20
80.911926746368664
30
0
0
SPLINE
5
136
100
AcDbEntity
8
0
100
AcDbSpline
70
0
71
2
72
6
73
3
74
0
42
0.000000001
43
0.0000000001
44
0.0000000001
40
0
40
0
40
0
40
1
40
1
40
1
10
536.67822070419743
20
80.911926746368664
30
0
10
536.37309022247746
20
80.454229831695841
30
0
10
535.70734687149479
20
80.454229831695898
30
0
0
LINE
5
137
100
AcDbEntity
8
0
100
AcDbLine
10
535.70734687149479
20
80.454229831695898
30
0
11
533.09985823929264
21
80.454229831696139
31
0
0
LINE
5
138
100
AcDbEntity
8
0
100
AcDbLine
10
533.09985823929264
20
80.454229831696139
30
0
11
533.09985823929264
21
76.099167585373507
31
0
0
SPLINE
5
139
100
AcDbEntity
8
0
100
AcDbSpline
70
0
71
2
72
6
73
3
74
0
42
0.000000001
43
0.0000000001
44
0.0000000001
40
0
40
0
40
0
40
1
40
1
40
1
10
533.09985823929264
20
76.099167585373507
30
0
10
533.09985823929264
20
75.322467803955661
30
0
10
532.55894370377018
20
74.961857318878799
30
0
0
SPLINE
5
140
100
AcDbEntity
8
0
100
AcDbSpline
70
0
71
2
72
6
73
3
74
0
42
0.000000001
43
0.0000000001
44
0.0000000001
40
0
40
0
40
0
40
1
40
1
40
1
10
532.55894370377018
20
74.961857318878799
30
0
10
532.01802916824772
20
74.601246833801937
30
0
10
531.32454581558659
20
74.601246833802008
30
0
0
SPLINE
5
141
100
AcDbEntity
8
0
100
AcDbSpline
70
0
71
2
72
6
73
3
74
0
42
0.000000001
43
0.0000000001
44
0.0000000001
40
0
40
0
40
0
40
1
40
1
40
1
10
531.32454581558659
20
74.601246833802008
30
0
10
530.63106484711125
20
74.601246833802065
30
0
10
530.09015031158879
20
74.961857318879026
30
0
0
SPLINE
5
142
100
AcDbEntity
8
0
100
AcDbSpline
70
0
71
2
72
6
73
3
74
0
42
0.000000001
43
0.0000000001
44
0.0000000001
40
0
40
0
40
0
40
1
40
1
40
1
10
530.09015031158879
20
74.961857318879026
30
0
10
529.54923339188053
20
75.322467803955973
30
0
10
529.54923339188053
20
76.09916758537382
30
0
0
LINE
5
143
100
AcDbEntity
8
0
100
AcDbLine
10
529.54923339188053
20
76.09916758537382
30
0
11
529.54923339188042
21
87.721912384034098
31
0
0
SPLINE
5
144
100
AcDbEntity
8
0
100
AcDbSpline
70
0
71
2
72
6
73
3
74
0
42
0.000000001
43
0.0000000001
44
0.0000000001
40
0
40
0
40
0
40
1
40
1
40
1
10
529.54923339188042
20
87.721912384034098
30
0
10
529.54923339188031
20
88.49861097335905
30
0
10
530.09015031158856
20
88.859221458435911
30
0
0
SPLINE
5
145
100
AcDbEntity
8
0
100
AcDbSpline
70
0
71
2
72
6
73
3
74
0
42
0.000000001
43
0.0000000001
44
0.0000000001
40
0
40
0
40
0
40
1
40
1
40
1
10
530.09015031158856
20
88.859221458435911
30
0
10
530.63106484711102
20
89.219831943512759
30
0
10
531.32454581558636
20
89.219831943512702
30
0
0
SPLINE
5
146
100
AcDbEntity
8
0
100
AcDbSpline
70
0
71
2
72
6
73
3
74
0
42
0.000000001
43
0.0000000001
44
0.0000000001
40
0
40
0
40
0
40
1
40
1
40
1
10
531.32454581558636
20
89.219831943512702
30
0
10
532.01802916824749
20
89.219831943512631
30
0
10
532.55894370376996
20
88.85922145843567
30
0
0
SPLINE
5
147
100
AcDbEntity
8
0
100
AcDbSpline
70
0
71
2
72
6
73
3
74
0
42
0.000000001
43
0.0000000001
44
0.0000000001
40
0
40
0
40
0
40
1
40
1
40
1
10
532.55894370376996
20
88.85922145843567
30
0
10
533.09985823929242
20
88.498610973358737
30
0
10
533.09985823929253
20
87.721912384033786
30
0
0
LINE
5
148
100
AcDbEntity
8
0
100
AcDbLine
10
533.09985823929253
20
87.721912384033786
30
0
11
533.09985823929264
21
83.533285379410373
31
0
0
LINE
5
149
100
AcDbEntity
8
0
100
AcDbLine
10
533.09985823929264
20
83.533285379410373
30
0
11
535.70734687149468
21
83.533285379410131
31
0
0
SPLINE
5
150
100
AcDbEntity
8
0
100
AcDbSpline
70
0
71
2
72
6
73
3
74
0
42
0.000000001
43
0.0000000001
44
0.0000000001
40
0
40
0
40
0
40
1
40
1
40
1
10
519.03606005012966
20
63.505546569826059
30
0
10
517.70457632839657
20
63.50554656982618
30
0
10
517.19140000641323
20
64.00485467910967
30
0
0
SPLINE
5
151
100
AcDbEntity
8
0
100
AcDbSpline
70
0
71
2
72
6
73
3
74
0
42
0.000000001
43
0.0000000001
44
0.0000000001
40
0
40
0
40
0
40
1
40
1
40
1
10
517.19140000641323
20
64.00485467910967
30
0
10
516.67822428047634
20
64.504160404207369
30
0
10
516.67822428047634
20
65.807904720308443
30
0
0
LINE
5
152
100
AcDbEntity
8
0
100
AcDbLine
10
516.67822428047634
20
65.807904720308443
30
0
11
516.67822428047623
21
71.272537231447359
31
0
0
SPLINE
5
153
100
AcDbEntity
8
0
100
AcDbSpline
70
0
71
2
72
6
73
3
74
0
42
0.000000001
43
0.0000000001
44
0.0000000001
40
0
40
0
40
0
40
1
40
1
40
1
10
516.67822428047623
20
71.272537231447359
30
0
10
516.67822428047623
20
72.576281547548433
30
0
10
517.19140000641312
20
73.075587272646047
30
0
0
SPLINE
5
154
100
AcDbEntity
8
0
100
AcDbSpline
70
0
71
2
72
6
73
3
74
0
42
0.000000001
43
0.0000000001
44
0.0000000001
40
0
40
0
40
0
40
1
40
1
40
1
10
517.19140000641312
20
73.075587272646047
30
0
10
517.70457632839646
20
73.574895381929451
30
0
10
519.03606005012955
20
73.574895381929338
30
0
0
LINE
5
155
100
AcDbEntity
8
0
100
AcDbLine
10
519.03606005012955
20
73.574895381929338
30
0
11
530.74202246963944
21
73.574895381928272
31
0
0
SPLINE
5
156
100
AcDbEntity
8
0
100
AcDbSpline
70
0
71
2
72
6
73
3
74
0
42
0.000000001
43
0.0000000001
44
0.0000000001
40
0
40
0
40
0
40
1
40
1
40
1
10
530.74202246963932
20
73.574895381928286
30
0
10
532.07350440323307
20
73.574895381928158
30
0
10
532.58668370544876
20
73.075587272644668
30
0
0
SPLINE
5
157
100
AcDbEntity
8
0
100
AcDbSpline
70
0
71
2
72
6
73
3
74
0
42
0.000000001
43
0.0000000001
44
0.0000000001
40
0
40
0
40
0
40
1
40
1
40
1
10
532.58668370544876
20
73.075587272644668
30
0
10
533.09985823929276
20
72.576281547546969
30
0
10
533.09985823929276
20
71.272537231445895
30
0
0
LINE
5
158
100
AcDbEntity
8
0
100
AcDbLine
10
533.09985823929276
20
71.272537231445895
30
0
11
533.09985823929287
21
65.807904720306979
31
0
0
SPLINE
5
159
100
AcDbEntity
8
0
100
AcDbSpline
70
0
71
2
72
6
73
3
74
0
42
0.000000001
43
0.0000000001
44
0.0000000001
40
0
40
0
40
0
40
1
40
1
40
1
10
533.09985823929287
20
65.807904720306979
30
0
10
533.09985823929287
20
64.504160404205905
30
0
10
532.58668370544888
20
64.004854679108291
30
0
0
SPLINE
5
160
100
AcDbEntity
8
0
100
AcDbSpline
70
0
71
2
72
6
73
3
74
0
42
0.000000001
43
0.0000000001
44
0.0000000001
40
0
40
0
40
0
40
1
40
1
40
1
10
532.58668370544888
20
64.004854679108291
30
0
10
532.0735044032333
20
63.505546569824887
30
0
10
530.74202246963955
20
63.505546569825015
30
0
0
LINE
5
161
100
AcDbEntity
8
0
100
AcDbLine
10
530.74202246963955
20
63.505546569825015
30
0
11
519.03606005012966
21
63.505546569826059
31
0
0
SPLINE
5
162
100
AcDbEntity
8
0
100
AcDbSpline
70
0
71
2
72
6
73
3
74
0
42
0.000000001
43
0.0000000001
44
0.0000000001
40
0
40
0
40
0
40
1
40
1
40
1
10
528.93897123634792
20
66.445908069611548
30
0
10
529.57697339355923
20
66.445908069611491
30
0
10
529.57697339355923
20
67.08391141891569
30
0
0
LINE
5
163
100
AcDbEntity
8
0
100
AcDbLine
10
529.57697339355923
20
67.08391141891569
30
0
11
529.57697339355911
21
69.9965329170236
31
0
0
SPLINE
5
164
100
AcDbEntity
8
0
100
AcDbSpline
70
0
71
2
72
6
73
3
74
0
42
0.000000001
43
0.0000000001
44
0.0000000001
40
0
40
0
40
0
40
1
40
1
40
1
10
529.57697339355911
20
69.9965329170236
30
0
10
529.57697339355911
20
70.634533882142009
30
0
10
528.93897123634781
20
70.634533882142065
30
0
0
LINE
5
165
100
AcDbEntity
8
0
100
AcDbLine
10
528.93897123634781
20
70.634533882142065
30
0
11
520.83911128342118
21
70.63453388214279
31
0
0
SPLINE
5
166
100
AcDbEntity
8
0
100
AcDbSpline
70
0
71
2
72
6
73
3
74
0
42
0.000000001
43
0.0000000001
44
0.0000000001
40
0
40
0
40
0
40
1
40
1
40
1
10
520.83911128342118
20
70.63453388214279
30
0
10
520.20110793411698
20
70.634533882142847
30
0
10
520.20110793411698
20
69.996532917024439
30
0
0
LINE
5
167
100
AcDbEntity
8
0
100
AcDbLine
10
520.20110793411698
20
69.996532917024439
30
0
11
520.20110793411709
21
67.083911418916529
31
0
0
SPLINE
5
168
100
AcDbEntity
8
0
100
AcDbSpline
70
0
71
2
72
6
73
3
74
0
42
0.000000001
43
0.0000000001
44
0.0000000001
40
0
40
0
40
0
40
1
40
1
40
1
10
520.20110793411709
20
67.083911418916529
30
0
10
520.20110793411709
20
66.445908069612329
30
0
10
520.83911128342129
20
66.445908069612273
30
0
0
LINE
5
169
100
AcDbEntity
8
0
100
AcDbLine
10
520.83911128342129
20
66.445908069612273
30
0
11
528.93897123634792
21
66.445908069611548
31
0
0
ENDSEC
0
SECTION
2
OBJECTS
0
DICTIONARY
5
C
100
AcDbDictionary
3
ACAD_GROUP
350
D
3
ACAD_MLINESTYLE
350
17
0
DICTIONARY
5
D
100
AcDbDictionary
0
DICTIONARY
5
1A
330
C
100
AcDbDictionary
0
DICTIONARY
5
17
100
AcDbDictionary
0
ENDSEC
0
EOF
