0
SECTION
2
HEADER
9
$INSUNITS
70
4
9
$ACADVER
1
AC1014
9
$HANDSEED
5
FFFF
0
ENDSEC
0
SECTION
2
TABLES
0
TABLE
2
VPORT
5
8
100
AcDbSymbolTable
0
ENDTAB
0
TABLE
2
LTYPE
5
5
100
AcDbSymbolTable
0
LTYPE
5
14
100
AcDbSymbolTableRecord
100
AcDbLinetypeTableRecord
2
BYBLOCK
70
0
0
LTYPE
5
15
100
AcDbSymbolTableRecord
100
AcDbLinetypeTableRecord
2
BYLAYER
70
0
0
ENDTAB
0
TABLE
2
LAYER
5
2
100
AcDbSymbolTable
70
2
0
LAYER
5
50
100
AcDbSymbolTableRecord
100
AcDbLayerTableRecord
2
0
70
0
6
CONTINUOUS
0
ENDTAB
0
TABLE
2
STYLE
5
3
100
AcDbSymbolTable
70
1
0
STYLE
5
11
100
AcDbSymbolTableRecord
100
AcDbTextStyleTableRecord
2
STANDARD
70
0
0
ENDTAB
0
TABLE
2
VIEW
5
6
100
AcDbSymbolTable
70
0
0
ENDTAB
0
TABLE
2
UCS
5
7
100
AcDbSymbolTable
70
0
0
ENDTAB
0
TABLE
2
APPID
5
9
100
AcDbSymbolTable
70
2
0
APPID
5
12
100
AcDbSymbolTableRecord
100
AcDbRegAppTableRecord
2
ACAD
70
0
0
ENDTAB
0
TABLE
2
DIMSTYLE
5
A
100
AcDbSymbolTable
70
1
0
ENDTAB
0
TABLE
2
BLOCK_RECORD
5
1
100
AcDbSymbolTable
70
1
0
BLOCK_RECORD
5
1F
100
AcDbSymbolTableRecord
100
AcDbBlockTableRecord
2
*MODEL_SPACE
0
BLOCK_RECORD
5
1B
100
AcDbSymbolTableRecord
100
AcDbBlockTableRecord
2
*PAPER_SPACE
0
ENDTAB
0
ENDSEC
0
SECTION
2
BLOCKS
0
BLOCK
5
20
100
AcDbEntity
100
AcDbBlockBegin
2
*MODEL_SPACE
0
ENDBLK
5
21
100
AcDbEntity
100
AcDbBlockEnd
0
BLOCK
5
1C
100
AcDbEntity
100
AcDbBlockBegin
2
*PAPER_SPACE
0
ENDBLK
5
1D
100
AcDbEntity
100
AcDbBlockEnd
0
ENDSEC
0
SECTION
2
ENTITIES
0
LWPOLYLINE
5
100
100
AcDbEntity
8
0
100
AcDbPolyline
90
12
70
1
43
0.0
10
353
20
-25.999999999999993
42
-0.41421356237309681
10
350
20
-23.000000000000004
10
350
20
-1.00000000000001
42
-0.41421356237310336
10
355
20
3.9999999999999902
10
375
20
3.9999999999999902
42
-0.41421356237310336
10
380
20
-1.0000000000000098
10
380
20
-23.000000000000004
42
-0.41421356237309681
10
377
20
-26.000000000000011
10
375
20
-26.000000000000011
10
375
20
-39.000000000022091
10
354.99999999984476
20
-39.000000000034703
10
354.99999999999972
20
-26.000000000034703
0
SPLINE
5
101
100
AcDbEntity
8
0
100
AcDbSpline
70
0
71
2
72
6
73
3
74
0
42
0.000000001
43
0.0000000001
44
0.0000000001
40
0
40
0
40
0
40
1
40
1
40
1
10
362.79403656721399
20
-3.0513188838883587
30
0
10
362.79403656721377
20
-4.2995855808182899
30
0
10
363.16851705312985
20
-5.1872417926714931
30
0
0
SPLINE
5
102
100
AcDbEntity
8
0
100
AcDbSpline
70
0
71
2
72
6
73
3
74
0
42
0.000000001
43
0.0000000001
44
0.0000000001
40
0
40
0
40
0
40
1
40
1
40
1
10
363.16851705312985
20
-5.1872417926714931
30
0
10
363.54299634695292
20
-6.0748968124317981
30
0
10
364.43065255880583
20
-6.8515965938500596
30
0
0
SPLINE
5
103
100
AcDbEntity
8
0
100
AcDbSpline
70
0
71
2
72
6
73
3
74
0
42
0.000000001
43
0.0000000001
44
0.0000000001
40
0
40
0
40
0
40
1
40
1
40
1
10
364.43065255880583
20
-6.8515965938500596
30
0
10
365.34604758024432
20
-7.6282951831754371
30
0
10
366.12274616956915
20
-8.2385585308015319
30
0
0
SPLINE
5
104
100
AcDbEntity
8
0
100
AcDbSpline
70
0
71
2
72
6
73
3
74
0
42
0.000000001
43
0.0000000001
44
0.0000000001
40
0
40
0
40
0
40
1
40
1
40
1
10
366.12274616956915
20
-8.2385585308015319
30
0
10
366.89944475889405
20
-8.8488218784276267
30
0
10
367.53744810819819
20
-9.3203899860329038
30
0
0
SPLINE
5
105
100
AcDbEntity
8
0
100
AcDbSpline
70
0
71
2
72
6
73
3
74
0
42
0.000000001
43
0.0000000001
44
0.0000000001
40
0
40
0
40
0
40
1
40
1
40
1
10
367.53744810819819
20
-9.3203899860329038
30
0
10
368.11997264623824
20
-9.7364780902812242
30
0
10
368.13384145498452
20
-10.33287143706773
30
0
0
SPLINE
5
106
100
AcDbEntity
8
0
100
AcDbSpline
70
0
71
2
72
6
73
3
74
0
42
0.000000001
43
0.0000000001
44
0.0000000001
40
0
40
0
40
0
40
1
40
1
40
1
10
368.13384145498452
20
-10.33287143706773
30
0
10
368.1477114558237
20
-10.929265975947132
30
0
10
367.75936216116116
20
-11.456311702723072
30
0
0
SPLINE
5
107
100
AcDbEntity
8
0
100
AcDbSpline
70
0
71
2
72
6
73
3
74
0
42
0.000000001
43
0.0000000001
44
0.0000000001
40
0
40
0
40
0
40
1
40
1
40
1
10
367.75936216116116
20
-11.456311702723072
30
0
10
367.45423048734824
20
-11.900139808649444
30
0
10
366.84396713972239
20
-12.122053861612416
30
0
0
SPLINE
5
108
100
AcDbEntity
8
0
100
AcDbSpline
70
0
71
2
72
6
73
3
74
0
42
0.000000001
43
0.0000000001
44
0.0000000001
40
0
40
0
40
0
40
1
40
1
40
1
10
366.84396713972239
20
-12.122053861612416
30
0
10
366.23370379209666
20
-12.343967914575389
30
0
10
365.59570044279258
20
-11.900139808648579
30
0
0
SPLINE
5
109
100
AcDbEntity
8
0
100
AcDbSpline
70
0
71
2
72
6
73
3
74
0
42
0.000000001
43
0.0000000001
44
0.0000000001
40
0
40
0
40
0
40
1
40
1
40
1
10
365.59570044279258
20
-11.900139808648579
30
0
10
365.09639352560202
20
-11.53952932357144
30
0
10
364.36130374670199
20
-10.970874786370167
30
0
0
SPLINE
5
110
100
AcDbEntity
8
0
100
AcDbSpline
70
0
71
2
72
6
73
3
74
0
42
0.000000001
43
0.0000000001
44
0.0000000001
40
0
40
0
40
0
40
1
40
1
40
1
10
364.36130374670199
20
-10.970874786370167
30
0
10
363.6262139678019
20
-10.402220249168899
30
0
10
362.82177537679854
20
-9.708739280693182
30
0
0
SPLINE
5
111
100
AcDbEntity
8
0
100
AcDbSpline
70
0
71
2
72
6
73
3
74
0
42
0.000000001
43
0.0000000001
44
0.0000000001
40
0
40
0
40
0
40
1
40
1
40
1
10
362.82177537679854
20
-9.708739280693182
30
0
10
361.85090154409608
20
-8.9043006896893111
30
0
10
361.50416105985846
20
-8.4743425846018674
30
0
0
SPLINE
5
112
100
AcDbEntity
8
0
100
AcDbSpline
70
0
71
2
72
6
73
3
74
0
42
0.000000001
43
0.0000000001
44
0.0000000001
40
0
40
0
40
0
40
1
40
1
40
1
10
361.50416105985846
20
-8.4743425846018674
30
0
10
361.1574205756209
20
-8.0443844795144255
30
0
10
361.04646414518572
20
-7.6560339927590038
30
0
0
LINE
5
113
100
AcDbEntity
8
0
100
AcDbLine
10
361.04646414518572
20
-7.6560339927590038
30
0
11
361.01872414350726
21
-7.6560339927589904
31
0
0
SPLINE
5
114
100
AcDbEntity
8
0
100
AcDbSpline
70
0
71
2
72
6
73
3
74
0
42
0.000000001
43
0.0000000001
44
0.0000000001
40
0
40
0
40
0
40
1
40
1
40
1
10
361.01872414350726
20
-7.6560339927589904
30
0
10
360.96324652433611
20
-7.8779480457222206
30
0
10
360.85228890180804
20
-8.1137320995246593
30
0
0
SPLINE
5
115
100
AcDbEntity
8
0
100
AcDbSpline
70
0
71
2
72
6
73
3
74
0
42
0.000000001
43
0.0000000001
44
0.0000000001
40
0
40
0
40
0
40
1
40
1
40
1
10
360.85228890180804
20
-8.1137320995246593
30
0
10
360.74133247137274
20
-8.3495161533270981
30
0
10
360.53328722715577
20
-8.6130390167150637
30
0
0
SPLINE
5
116
100
AcDbEntity
8
0
100
AcDbSpline
70
0
71
2
72
6
73
3
74
0
42
0.000000001
43
0.0000000001
44
0.0000000001
40
0
40
0
40
0
40
1
40
1
40
1
10
360.53328722715577
20
-8.6130390167150637
30
0
10
360.32524317503174
20
-8.8765618801030257
30
0
10
359.99237269163325
20
-9.1816935539157374
30
0
0
SPLINE
5
117
100
AcDbEntity
8
0
100
AcDbSpline
70
0
71
2
72
6
73
3
74
0
42
0.000000001
43
0.0000000001
44
0.0000000001
40
0
40
0
40
0
40
1
40
1
40
1
10
359.99237269163325
20
-9.1816935539157374
30
0
10
359.65950101614192
20
-9.4868252277284508
30
0
10
359.16019529104415
20
-9.902913331976265
30
0
0
SPLINE
5
118
100
AcDbEntity
8
0
100
AcDbSpline
70
0
71
2
72
6
73
3
74
0
42
0.000000001
43
0.0000000001
44
0.0000000001
40
0
40
0
40
0
40
1
40
1
40
1
10
359.16019529104415
20
-9.902913331976265
30
0
10
357.55131810903714
20
-11.262136459340626
30
0
10
355.9701809287086
20
-12.399445533741744
30
0
0
SPLINE
5
119
100
AcDbEntity
8
0
100
AcDbSpline
70
0
71
2
72
6
73
3
74
0
42
0.000000001
43
0.0000000001
44
0.0000000001
40
0
40
0
40
0
40
1
40
1
40
1
10
355.9701809287086
20
-12.399445533741744
30
0
10
355.35991758108281
20
-12.84327363966797
30
0
10
354.73578423261785
20
-12.621360778797319
30
0
0
SPLINE
5
120
100
AcDbEntity
8
0
100
AcDbSpline
70
0
71
2
72
6
73
3
74
0
42
0.000000001
43
0.0000000001
44
0.0000000001
40
0
40
0
40
0
40
1
40
1
40
1
10
354.73578423261785
20
-12.621360778797319
30
0
10
354.11165148019938
20
-12.399445533740876
30
0
10
353.80651980638663
20
-11.955618619907115
30
0
0
SPLINE
5
121
100
AcDbEntity
8
0
100
AcDbSpline
70
0
71
2
72
6
73
3
74
0
42
0.000000001
43
0.0000000001
44
0.0000000001
40
0
40
0
40
0
40
1
40
1
40
1
10
353.80651980638663
20
-11.955618619907115
30
0
10
353.44590932130978
20
-11.456311702716395
30
0
10
353.43203991651706
20
-10.818308353412188
30
0
0
SPLINE
5
122
100
AcDbEntity
8
0
100
AcDbSpline
70
0
71
2
72
6
73
3
74
0
42
0.000000001
43
0.0000000001
44
0.0000000001
40
0
40
0
40
0
40
1
40
1
40
1
10
353.43203991651706
20
-10.818308353412188
30
0
10
353.4181702137011
20
-10.180306196200879
30
0
10
354.05617326498214
20
-9.7087392806890911
30
0
0
SPLINE
5
123
100
AcDbEntity
8
0
100
AcDbSpline
70
0
71
2
72
6
73
3
74
0
42
0.000000001
43
0.0000000001
44
0.0000000001
40
0
40
0
40
0
40
1
40
1
40
1
10
354.05617326498214
20
-9.7087392806890911
30
0
10
354.9715682864209
20
-9.0429971217997505
30
0
10
355.80374568700995
20
-8.3911249637496006
30
0
0
SPLINE
5
124
100
AcDbEntity
8
0
100
AcDbSpline
70
0
71
2
72
6
73
3
74
0
42
0.000000001
43
0.0000000001
44
0.0000000001
40
0
40
0
40
0
40
1
40
1
40
1
10
355.80374568700995
20
-8.3911249637496006
30
0
10
356.63592308759905
20
-7.7392516136065552
30
0
10
357.55131810903777
20
-6.9625530242820322
30
0
0
SPLINE
5
125
100
AcDbEntity
8
0
100
AcDbSpline
70
0
71
2
72
6
73
3
74
0
42
0.000000001
43
0.0000000001
44
0.0000000001
40
0
40
0
40
0
40
1
40
1
40
1
10
357.55131810903777
20
-6.9625530242820322
30
0
10
358.43897432089085
20
-6.185854434957494
30
0
10
358.81345480680716
20
-5.2981982231046416
30
0
0
SPLINE
5
126
100
AcDbEntity
8
0
100
AcDbSpline
70
0
71
2
72
6
73
3
74
0
42
0.000000001
43
0.0000000001
44
0.0000000001
40
0
40
0
40
0
40
1
40
1
40
1
10
358.81345480680716
20
-5.2981982231046416
30
0
10
359.18793410063051
20
-4.4105420112517884
30
0
10
359.18793410063074
20
-3.1622765064147518
30
0
0
LINE
5
127
100
AcDbEntity
8
0
100
AcDbLine
10
359.18793410063074
20
-3.1622765064147518
30
0
11
359.18793410063108
21
-0.66574311255488872
31
0
0
SPLINE
5
128
100
AcDbEntity
8
0
100
AcDbSpline
70
0
71
2
72
6
73
3
74
0
42
0.000000001
43
0.0000000001
44
0.0000000001
40
0
40
0
40
0
40
1
40
1
40
1
10
359.18793410063108
20
-0.66574311255489071
30
0
10
359.18793410063125
20
0.13869428635563175
30
0
10
359.72884982824661
20
0.49930477143228402
30
0
0
SPLINE
5
129
100
AcDbEntity
8
0
100
AcDbSpline
70
0
71
2
72
6
73
3
74
0
42
0.000000001
43
0.0000000001
44
0.0000000001
40
0
40
0
40
0
40
1
40
1
40
1
10
359.72884982824661
20
0.49930477143228402
30
0
10
360.26976436376913
20
0.85991287232314417
30
0
10
360.99098533392294
20
0.85991287232280778
30
0
0
SPLINE
5
130
100
AcDbEntity
8
0
100
AcDbSpline
70
0
71
2
72
6
73
3
74
0
42
0.000000001
43
0.0000000001
44
0.0000000001
40
0
40
0
40
0
40
1
40
1
40
1
10
360.99098533392294
20
0.85991287232280778
30
0
10
361.71220630407674
20
0.85991287232247138
30
0
10
362.25312083959915
20
0.49930477143110608
30
0
0
SPLINE
5
131
100
AcDbEntity
8
0
100
AcDbSpline
70
0
71
2
72
6
73
3
74
0
42
0.000000001
43
0.0000000001
44
0.0000000001
40
0
40
0
40
0
40
1
40
1
40
1
10
362.25312083959915
20
0.49930477143110608
30
0
10
362.7940365672145
20
0.13869428635394976
30
0
10
362.79403656721433
20
-0.6657431125565727
30
0
0
LINE
5
132
100
AcDbEntity
8
0
100
AcDbLine
10
362.79403656721433
20
-0.6657431125565727
30
0
11
362.79403656721399
21
-3.0513188838883587
31
0
0
SPLINE
5
133
100
AcDbEntity
8
0
100
AcDbSpline
70
0
71
2
72
6
73
3
74
0
42
0.000000001
43
0.0000000001
44
0.0000000001
40
0
40
0
40
0
40
1
40
1
40
1
10
367.50970929861302
20
-6.2413332462257642
30
0
10
366.87170594930882
20
-6.2413332462254667
30
0
10
366.56657427549601
20
-5.7975051402988109
30
0
0
SPLINE
5
134
100
AcDbEntity
8
0
100
AcDbSpline
70
0
71
2
72
6
73
3
74
0
42
0.000000001
43
0.0000000001
44
0.0000000001
40
0
40
0
40
0
40
1
40
1
40
1
10
366.56657427549601
20
-5.7975051402988109
30
0
10
366.26144260168326
20
-5.3536770343721525
30
0
10
366.26144260168331
20
-4.7434136867464201
30
0
0
SPLINE
5
135
100
AcDbEntity
8
0
100
AcDbSpline
70
0
71
2
72
6
73
3
74
0
42
0.000000001
43
0.0000000001
44
0.0000000001
40
0
40
0
40
0
40
1
40
1
40
1
10
366.26144260168331
20
-4.7434136867464201
30
0
10
366.26144260168348
20
-4.1054103374422208
30
0
10
366.56657427549641
20
-3.6615822315158519
30
0
0
SPLINE
5
136
100
AcDbEntity
8
0
100
AcDbSpline
70
0
71
2
72
6
73
3
74
0
42
0.000000001
43
0.0000000001
44
0.0000000001
40
0
40
0
40
0
40
1
40
1
40
1
10
366.56657427549641
20
-3.6615822315158519
30
0
10
366.87170594930933
20
-3.2177541255894804
30
0
10
367.50970929861353
20
-3.2177541255897779
30
0
0
LINE
5
137
100
AcDbEntity
8
0
100
AcDbLine
10
367.50970929861353
20
-3.2177541255897779
30
0
11
370.97711533308313
21
-3.2177541255913953
31
0
0
LINE
5
138
100
AcDbEntity
8
0
100
AcDbLine
10
370.97711533308313
20
-3.2177541255913953
30
0
11
370.97711533308365
21
0.22191190719974274
31
0
0
SPLINE
5
139
100
AcDbEntity
8
0
100
AcDbSpline
70
0
71
2
72
6
73
3
74
0
42
0.000000001
43
0.0000000001
44
0.0000000001
40
0
40
0
40
0
40
1
40
1
40
1
10
370.97711533308365
20
0.22191190719974219
30
0
10
370.9771153330837
20
0.99861049652469336
30
0
10
371.51802986860622
20
1.3592209816013456
30
0
0
SPLINE
5
140
100
AcDbEntity
8
0
100
AcDbSpline
70
0
71
2
72
6
73
3
74
0
42
0.000000001
43
0.0000000001
44
0.0000000001
40
0
40
0
40
0
40
1
40
1
40
1
10
371.51802986860622
20
1.3592209816013456
30
0
10
372.05894440412874
20
1.7198314666779968
30
0
10
372.75242775678987
20
1.7198314666776737
30
0
0
SPLINE
5
141
100
AcDbEntity
8
0
100
AcDbSpline
70
0
71
2
72
6
73
3
74
0
42
0.000000001
43
0.0000000001
44
0.0000000001
40
0
40
0
40
0
40
1
40
1
40
1
10
372.75242775678987
20
1.7198314666776737
30
0
10
373.41816872358675
20
1.7198314666773629
30
0
10
373.95908325910915
20
1.3592209816002065
30
0
0
SPLINE
5
142
100
AcDbEntity
8
0
100
AcDbSpline
70
0
71
2
72
6
73
3
74
0
42
0.000000001
43
0.0000000001
44
0.0000000001
40
0
40
0
40
0
40
1
40
1
40
1
10
373.95908325910915
20
1.3592209816002065
30
0
10
374.49999779463155
20
0.99861049652305023
30
0
10
374.4999977946315
20
0.22191190719809906
30
0
0
LINE
5
143
100
AcDbEntity
8
0
100
AcDbLine
10
374.4999977946315
20
0.22191190719809911
30
0
11
374.49999779462939
21
-13.536754608152242
31
0
0
SPLINE
5
144
100
AcDbEntity
8
0
100
AcDbSpline
70
0
71
2
72
6
73
3
74
0
42
0.000000001
43
0.0000000001
44
0.0000000001
40
0
40
0
40
0
40
1
40
1
40
1
10
374.49999779462939
20
-13.536754608152242
30
0
10
374.49999779462934
20
-14.313455581662984
30
0
10
373.95908325910682
20
-14.674063682553843
30
0
0
SPLINE
5
145
100
AcDbEntity
8
0
100
AcDbSpline
70
0
71
2
72
6
73
3
74
0
42
0.000000001
43
0.0000000001
44
0.0000000001
40
0
40
0
40
0
40
1
40
1
40
1
10
373.95908325910682
20
-14.674063682553843
30
0
10
373.4181687235843
20
-15.034674167630495
30
0
10
372.75242775678743
20
-15.034674167630184
30
0
0
SPLINE
5
146
100
AcDbEntity
8
0
100
AcDbSpline
70
0
71
2
72
6
73
3
74
0
42
0.000000001
43
0.0000000001
44
0.0000000001
40
0
40
0
40
0
40
1
40
1
40
1
10
372.75242775678743
20
-15.034674167630184
30
0
10
372.05894440412629
20
-15.034674167629859
30
0
10
371.51802986860389
20
-14.674063682552703
30
0
0
SPLINE
5
147
100
AcDbEntity
8
0
100
AcDbSpline
70
0
71
2
72
6
73
3
74
0
42
0.000000001
43
0.0000000001
44
0.0000000001
40
0
40
0
40
0
40
1
40
1
40
1
10
371.51802986860389
20
-14.674063682552703
30
0
10
370.97711533308149
20
-14.313455581661341
30
0
10
370.97711533308154
20
-13.536754608150599
30
0
0
LINE
5
148
100
AcDbEntity
8
0
100
AcDbLine
10
370.97711533308154
20
-13.5367546081506
30
0
11
370.97711533308262
21
-6.2413332462273816
31
0
0
LINE
5
149
100
AcDbEntity
8
0
100
AcDbLine
10
370.97711533308262
20
-6.2413332462273816
30
0
11
367.50970929861302
21
-6.2413332462257642
31
0
0
SPLINE
5
150
100
AcDbEntity
8
0
100
AcDbSpline
70
0
71
2
72
6
73
3
74
0
42
0.000000001
43
0.0000000001
44
0.0000000001
40
0
40
0
40
0
40
1
40
1
40
1
10
367.87031859159572
20
-15.367547035212134
30
0
10
367.87031859159555
20
-16.643551349634741
30
0
10
368.43897312879631
20
-17.392512321467283
30
0
0
SPLINE
5
151
100
AcDbEntity
8
0
100
AcDbSpline
70
0
71
2
72
6
73
3
74
0
42
0.000000001
43
0.0000000001
44
0.0000000001
40
0
40
0
40
0
40
1
40
1
40
1
10
368.43897312879631
20
-17.392512321467283
30
0
10
369.00762766599718
20
-18.141470909114034
30
0
10
370.08945912122783
20
-18.723994255061804
30
0
0
SPLINE
5
152
100
AcDbEntity
8
0
100
AcDbSpline
70
0
71
2
72
6
73
3
74
0
42
0.000000001
43
0.0000000001
44
0.0000000001
40
0
40
0
40
0
40
1
40
1
40
1
10
370.08945912122783
20
-18.723994255061804
30
0
10
371.25450581312225
20
-19.334259986873871
30
0
10
372.37794846296345
20
-19.875174522396858
30
0
0
SPLINE
5
153
100
AcDbEntity
8
0
100
AcDbSpline
70
0
71
2
72
6
73
3
74
0
42
0.000000001
43
0.0000000001
44
0.0000000001
40
0
40
0
40
0
40
1
40
1
40
1
10
372.37794846296345
20
-19.875174522396858
30
0
10
373.50138634443312
20
-20.416089057919841
30
0
10
374.77739304304146
20
-20.998614788053494
30
0
0
SPLINE
5
154
100
AcDbEntity
8
0
100
AcDbSpline
70
0
71
2
72
6
73
3
74
0
42
0.000000001
43
0.0000000001
44
0.0000000001
40
0
40
0
40
0
40
1
40
1
40
1
10
374.77739304304146
20
-20.998614788053494
30
0
10
375.35991638898861
20
-21.276005268095268
30
0
10
375.47087162733084
20
-21.858530998228378
30
0
0
SPLINE
5
155
100
AcDbEntity
8
0
100
AcDbSpline
70
0
71
2
72
6
73
3
74
0
42
0.000000001
43
0.0000000001
44
0.0000000001
40
0
40
0
40
0
40
1
40
1
40
1
10
375.47087162733084
20
-21.858530998228378
30
0
10
375.58183163404465
20
-22.441054344175694
30
0
10
375.3044363856315
20
-22.995840072630152
30
0
0
SPLINE
5
156
100
AcDbEntity
8
0
100
AcDbSpline
70
0
71
2
72
6
73
3
74
0
42
0.000000001
43
0.0000000001
44
0.0000000001
40
0
40
0
40
0
40
1
40
1
40
1
10
375.3044363856315
20
-22.995840072630152
30
0
10
375.02704590558994
20
-23.550625801084614
30
0
10
374.49999779462792
20
-23.814147472379538
30
0
0
SPLINE
5
157
100
AcDbEntity
8
0
100
AcDbSpline
70
0
71
2
72
6
73
3
74
0
42
0.000000001
43
0.0000000001
44
0.0000000001
40
0
40
0
40
0
40
1
40
1
40
1
10
374.49999779462792
20
-23.814147472379538
30
0
10
373.97295445203753
20
-24.077671527860247
30
0
10
373.30721348524071
20
-23.772538661954172
30
0
0
SPLINE
5
158
100
AcDbEntity
8
0
100
AcDbSpline
70
0
71
2
72
6
73
3
74
0
42
0.000000001
43
0.0000000001
44
0.0000000001
40
0
40
0
40
0
40
1
40
1
40
1
10
373.30721348524071
20
-23.772538661954172
30
0
10
372.14216202497471
20
-23.273232936855976
30
0
10
371.17128819227213
20
-22.787796020504203
30
0
0
SPLINE
5
159
100
AcDbEntity
8
0
100
AcDbSpline
70
0
71
2
72
6
73
3
74
0
42
0.000000001
43
0.0000000001
44
0.0000000001
40
0
40
0
40
0
40
1
40
1
40
1
10
371.17128819227213
20
-22.787796020504203
30
0
10
370.20041435956955
20
-22.30235910415243
30
0
10
369.25728291273123
20
-21.803050994868546
30
0
0
SPLINE
5
160
100
AcDbEntity
8
0
100
AcDbSpline
70
0
71
2
72
6
73
3
74
0
42
0.000000001
43
0.0000000001
44
0.0000000001
40
0
40
0
40
0
40
1
40
1
40
1
10
369.25728291273123
20
-21.803050994868546
30
0
10
368.36962550878536
20
-21.33148527144894
30
0
10
367.81484097242378
20
-20.970874786371777
30
0
0
SPLINE
5
161
100
AcDbEntity
8
0
100
AcDbSpline
70
0
71
2
72
6
73
3
74
0
42
0.000000001
43
0.0000000001
44
0.0000000001
40
0
40
0
40
0
40
1
40
1
40
1
10
367.81484097242378
20
-20.970874786371777
30
0
10
367.26005524396925
20
-20.610264301294613
30
0
10
366.89944475889234
20
-20.305133819574475
30
0
0
SPLINE
5
162
100
AcDbEntity
8
0
100
AcDbSpline
70
0
71
2
72
6
73
3
74
0
42
0.000000001
43
0.0000000001
44
0.0000000001
40
0
40
0
40
0
40
1
40
1
40
1
10
366.89944475889234
20
-20.305133819574475
30
0
10
366.53883546590839
20
-20.000000953668543
30
0
10
366.37239903211628
20
-19.736476898187512
30
0
0
SPLINE
5
163
100
AcDbEntity
8
0
100
AcDbSpline
70
0
71
2
72
6
73
3
74
0
42
0.000000001
43
0.0000000001
44
0.0000000001
40
0
40
0
40
0
40
1
40
1
40
1
10
366.37239903211628
20
-19.736476898187512
30
0
10
366.20596379041717
20
-19.472955226892267
30
0
10
366.12274616956756
20
-19.223302364343404
30
0
0
LINE
5
164
100
AcDbEntity
8
0
100
AcDbLine
10
366.12274616956756
20
-19.223302364343404
30
0
11
366.09500735998199
21
-19.22330236434339
31
0
0
SPLINE
5
165
100
AcDbEntity
8
0
100
AcDbSpline
70
0
71
2
72
6
73
3
74
0
42
0.000000001
43
0.0000000001
44
0.0000000001
40
0
40
0
40
0
40
1
40
1
40
1
10
366.09500735998199
20
-19.22330236434339
30
0
10
366.01178973913238
20
-19.500695228570642
30
0
10
365.84535330534015
20
-19.778085708612071
30
0
0
SPLINE
5
166
100
AcDbEntity
8
0
100
AcDbSpline
70
0
71
2
72
6
73
3
74
0
42
0.000000001
43
0.0000000001
44
0.0000000001
40
0
40
0
40
0
40
1
40
1
40
1
10
365.84535330534015
20
-19.778085708612071
30
0
10
365.67891806364094
20
-20.055478572839288
30
0
10
365.31830757856397
20
-20.374480247491217
30
0
0
SPLINE
5
167
100
AcDbEntity
8
0
100
AcDbSpline
70
0
71
2
72
6
73
3
74
0
42
0.000000001
43
0.0000000001
44
0.0000000001
40
0
40
0
40
0
40
1
40
1
40
1
10
365.31830757856397
20
-20.374480247491217
30
0
10
364.95769828557991
20
-20.69348192214315
30
0
10
364.37517374753975
20
-21.054092407219784
30
0
0
SPLINE
5
168
100
AcDbEntity
8
0
100
AcDbSpline
70
0
71
2
72
6
73
3
74
0
42
0.000000001
43
0.0000000001
44
0.0000000001
40
0
40
0
40
0
40
1
40
1
40
1
10
364.37517374753975
20
-21.054092407219784
30
0
10
363.79264920949947
20
-21.414702892296415
30
0
10
362.93273299932486
20
-21.886268615715206
30
0
0
SPLINE
5
169
100
AcDbEntity
8
0
100
AcDbSpline
70
0
71
2
72
6
73
3
74
0
42
0.000000001
43
0.0000000001
44
0.0000000001
40
0
40
0
40
0
40
1
40
1
40
1
10
362.93273299932486
20
-21.886268615715206
30
0
10
361.98959797620773
20
-22.385576724998213
30
0
10
361.01872414350504
20
-22.87101364134908
30
0
0
SPLINE
5
170
100
AcDbEntity
8
0
100
AcDbSpline
70
0
71
2
72
6
73
3
74
0
42
0.000000001
43
0.0000000001
44
0.0000000001
40
0
40
0
40
0
40
1
40
1
40
1
10
361.01872414350504
20
-22.87101364134908
30
0
10
360.04785031080235
20
-23.356450557699944
30
0
10
358.88280242681481
20
-23.855756282797053
30
0
0
SPLINE
5
171
100
AcDbEntity
8
0
100
AcDbSpline
70
0
71
2
72
6
73
3
74
0
42
0.000000001
43
0.0000000001
44
0.0000000001
40
0
40
0
40
0
40
1
40
1
40
1
10
358.88280242681481
20
-23.855756282797053
30
0
10
358.21706026792498
20
-24.160889148702505
30
0
10
357.69001454114891
20
-23.897365093221303
30
0
0
SPLINE
5
172
100
AcDbEntity
8
0
100
AcDbSpline
70
0
71
2
72
6
73
3
74
0
42
0.000000001
43
0.0000000001
44
0.0000000001
40
0
40
0
40
0
40
1
40
1
40
1
10
357.69001454114891
20
-23.897365093221303
30
0
10
357.16296881437279
20
-23.633843421925892
30
0
10
356.88557654619206
20
-23.079057693471171
30
0
0
SPLINE
5
173
100
AcDbEntity
8
0
100
AcDbSpline
70
0
71
2
72
6
73
3
74
0
42
0.000000001
43
0.0000000001
44
0.0000000001
40
0
40
0
40
0
40
1
40
1
40
1
10
356.88557654619206
20
-23.079057693471171
30
0
10
356.60818427801132
20
-22.496534347523777
30
0
10
356.71914070844656
20
-21.886268615712304
30
0
0
SPLINE
5
174
100
AcDbEntity
8
0
100
AcDbSpline
70
0
71
2
72
6
73
3
74
0
42
0.000000001
43
0.0000000001
44
0.0000000001
40
0
40
0
40
0
40
1
40
1
40
1
10
356.71914070844656
20
-21.886268615712304
30
0
10
356.83009833097469
20
-21.276005268086628
30
0
10
357.41262227296852
20
-20.998614788045394
30
0
0
SPLINE
5
175
100
AcDbEntity
8
0
100
AcDbSpline
70
0
71
2
72
6
73
3
74
0
42
0.000000001
43
0.0000000001
44
0.0000000001
40
0
40
0
40
0
40
1
40
1
40
1
10
357.41262227296852
20
-20.998614788045394
30
0
10
358.68862718343763
20
-20.416089057912931
30
0
10
359.81206744909321
20
-19.875174522390996
30
0
0
SPLINE
5
176
100
AcDbEntity
8
0
100
AcDbSpline
70
0
71
2
72
6
73
3
74
0
42
0.000000001
43
0.0000000001
44
0.0000000001
40
0
40
0
40
0
40
1
40
1
40
1
10
359.81206744909321
20
-19.875174522390996
30
0
10
360.93550652265594
20
-19.334259986869057
30
0
10
362.10055559873638
20
-18.723994255058077
30
0
0
SPLINE
5
177
100
AcDbEntity
8
0
100
AcDbSpline
70
0
71
2
72
6
73
3
74
0
42
0.000000001
43
0.0000000001
44
0.0000000001
40
0
40
0
40
0
40
1
40
1
40
1
10
362.10055559873638
20
-18.723994255058077
30
0
10
363.18238586187425
20
-18.141470909111316
30
0
10
363.75104039907524
20
-17.392512321465098
30
0
0
SPLINE
5
178
100
AcDbEntity
8
0
100
AcDbSpline
70
0
71
2
72
6
73
3
74
0
42
0.000000001
43
0.0000000001
44
0.0000000001
40
0
40
0
40
0
40
1
40
1
40
1
10
363.75104039907524
20
-17.392512321465098
30
0
10
364.31969493627633
20
-16.643551349633086
30
0
10
364.31969493627651
20
-15.367547035210478
30
0
0
LINE
5
179
100
AcDbEntity
8
0
100
AcDbLine
10
364.31969493627651
20
-15.367547035210478
30
0
11
364.31969493627656
21
-14.701803684227812
31
0
0
SPLINE
5
180
100
AcDbEntity
8
0
100
AcDbSpline
70
0
71
2
72
6
73
3
74
0
42
0.000000001
43
0.0000000001
44
0.0000000001
40
0
40
0
40
0
40
1
40
1
40
1
10
364.31969493627662
20
-14.701803684227812
30
0
10
364.31969493627668
20
-13.925105094902861
30
0
10
364.86061066389209
20
-13.564494609826209
30
0
0
SPLINE
5
181
100
AcDbEntity
8
0
100
AcDbSpline
70
0
71
2
72
6
73
3
74
0
42
0.000000001
43
0.0000000001
44
0.0000000001
40
0
40
0
40
0
40
1
40
1
40
1
10
364.86061066389209
20
-13.564494609826209
30
0
10
365.40152519941466
20
-13.203884124749559
30
0
10
366.0950073599829
20
-13.203884124749884
30
0
0
SPLINE
5
182
100
AcDbEntity
8
0
100
AcDbSpline
70
0
71
2
72
6
73
3
74
0
42
0.000000001
43
0.0000000001
44
0.0000000001
40
0
40
0
40
0
40
1
40
1
40
1
10
366.0950073599829
20
-13.203884124749884
30
0
10
366.78848832845824
20
-13.203884124750207
30
0
10
367.32940405607349
20
-13.56449460982736
30
0
0
SPLINE
5
183
100
AcDbEntity
8
0
100
AcDbSpline
70
0
71
2
72
6
73
3
74
0
42
0.000000001
43
0.0000000001
44
0.0000000001
40
0
40
0
40
0
40
1
40
1
40
1
10
367.32940405607349
20
-13.56449460982736
30
0
10
367.87031859159589
20
-13.925105094904517
30
0
10
367.87031859159583
20
-14.701803684229468
30
0
0
LINE
5
184
100
AcDbEntity
8
0
100
AcDbLine
10
367.87031859159583
20
-14.701803684229468
30
0
11
367.87031859159572
21
-15.367547035212134
31
0
0
ENDSEC
0
SECTION
2
OBJECTS
0
DICTIONARY
5
C
100
AcDbDictionary
3
ACAD_GROUP
350
D
3
ACAD_MLINESTYLE
350
17
0
DICTIONARY
5
D
100
AcDbDictionary
0
DICTIONARY
5
1A
330
C
100
AcDbDictionary
0
DICTIONARY
5
17
100
AcDbDictionary
0
ENDSEC
0
EOF
