0
SECTION
2
HEADER
9
$INSUNITS
70
4
9
$ACADVER
1
AC1014
9
$HANDSEED
5
FFFF
0
ENDSEC
0
SECTION
2
TABLES
0
TABLE
2
VPORT
5
8
100
AcDbSymbolTable
0
ENDTAB
0
TABLE
2
LTYPE
5
5
100
AcDbSymbolTable
0
LTYPE
5
14
100
AcDbSymbolTableRecord
100
AcDbLinetypeTableRecord
2
BYBLOCK
70
0
0
LTYPE
5
15
100
AcDbSymbolTableRecord
100
AcDbLinetypeTableRecord
2
BYLAYER
70
0
0
ENDTAB
0
TABLE
2
LAYER
5
2
100
AcDbSymbolTable
70
2
0
LAYER
5
50
100
AcDbSymbolTableRecord
100
AcDbLayerTableRecord
2
0
70
0
6
CONTINUOUS
0
ENDTAB
0
TABLE
2
STYLE
5
3
100
AcDbSymbolTable
70
1
0
STYLE
5
11
100
AcDbSymbolTableRecord
100
AcDbTextStyleTableRecord
2
STANDARD
70
0
0
ENDTAB
0
TABLE
2
VIEW
5
6
100
AcDbSymbolTable
70
0
0
ENDTAB
0
TABLE
2
UCS
5
7
100
AcDbSymbolTable
70
0
0
ENDTAB
0
TABLE
2
APPID
5
9
100
AcDbSymbolTable
70
2
0
APPID
5
12
100
AcDbSymbolTableRecord
100
AcDbRegAppTableRecord
2
ACAD
70
0
0
ENDTAB
0
TABLE
2
DIMSTYLE
5
A
100
AcDbSymbolTable
70
1
0
ENDTAB
0
TABLE
2
BLOCK_RECORD
5
1
100
AcDbSymbolTable
70
1
0
BLOCK_RECORD
5
1F
100
AcDbSymbolTableRecord
100
AcDbBlockTableRecord
2
*MODEL_SPACE
0
BLOCK_RECORD
5
1B
100
AcDbSymbolTableRecord
100
AcDbBlockTableRecord
2
*PAPER_SPACE
0
ENDTAB
0
ENDSEC
0
SECTION
2
BLOCKS
0
BLOCK
5
20
100
AcDbEntity
100
AcDbBlockBegin
2
*MODEL_SPACE
0
ENDBLK
5
21
100
AcDbEntity
100
AcDbBlockEnd
0
BLOCK
5
1C
100
AcDbEntity
100
AcDbBlockBegin
2
*PAPER_SPACE
0
ENDBLK
5
1D
100
AcDbEntity
100
AcDbBlockEnd
0
ENDSEC
0
SECTION
2
ENTITIES
0
LWPOLYLINE
5
100
100
AcDbEntity
8
0
100
AcDbPolyline
90
12
70
1
43
0.0
10
353
20
62.000000000000014
42
-0.41421356237309681
10
350
20
65
10
350
20
87
42
-0.41421356237310336
10
355
20
92
10
375
20
92
42
-0.41421356237310336
10
380
20
87
10
380
20
65
42
-0.41421356237309681
10
377
20
61.999999999999993
10
375
20
61.999999999999993
10
375
20
48.999999999999879
10
354.99999999992013
20
48.999999999987274
10
355.00000000000341
20
61.999999999987274
0
SPLINE
5
101
100
AcDbEntity
8
0
100
AcDbSpline
70
0
71
2
72
6
73
3
74
0
42
0.000000001
43
0.0000000001
44
0.0000000001
40
0
40
0
40
0
40
1
40
1
40
1
10
358.18932005762969
20
86.751732349398409
30
0
10
358.18932005762969
20
87.528430938723361
30
0
10
358.73023638129149
20
87.889041423800208
30
0
0
SPLINE
5
102
100
AcDbEntity
8
0
100
AcDbSpline
70
0
71
2
72
6
73
3
74
0
42
0.000000001
43
0.0000000001
44
0.0000000001
40
0
40
0
40
0
40
1
40
1
40
1
10
358.73023638129149
20
87.889041423800208
30
0
10
359.27115091681395
20
88.249651908877041
30
0
10
359.96463188528929
20
88.249651908876956
30
0
0
SPLINE
5
103
100
AcDbEntity
8
0
100
AcDbSpline
70
0
71
2
72
6
73
3
74
0
42
0.000000001
43
0.0000000001
44
0.0000000001
40
0
40
0
40
0
40
1
40
1
40
1
10
359.96463188528929
20
88.249651908876956
30
0
10
360.65811285376464
20
88.249651908876871
30
0
10
361.19902858137999
20
87.889041423799895
30
0
0
SPLINE
5
104
100
AcDbEntity
8
0
100
AcDbSpline
70
0
71
2
72
6
73
3
74
0
42
0.000000001
43
0.0000000001
44
0.0000000001
40
0
40
0
40
0
40
1
40
1
40
1
10
361.19902858137999
20
87.889041423799895
30
0
10
361.73994430899535
20
87.528430938722934
30
0
10
361.73994430899535
20
86.751732349397983
30
0
0
LINE
5
105
100
AcDbEntity
8
0
100
AcDbLine
10
361.73994430899535
20
86.751732349397983
30
0
11
361.73994430899546
21
82.785019397737827
31
0
0
SPLINE
5
106
100
AcDbEntity
8
0
100
AcDbSpline
70
0
71
2
72
6
73
3
74
0
42
0.000000001
43
0.0000000001
44
0.0000000001
40
0
40
0
40
0
40
1
40
1
40
1
10
361.73994430899546
20
82.785019397737827
30
0
10
361.73994430899552
20
81.120664596559848
30
0
10
362.10055479407242
20
79.927875518801002
30
0
0
SPLINE
5
107
100
AcDbEntity
8
0
100
AcDbSpline
70
0
71
2
72
6
73
3
74
0
42
0.000000001
43
0.0000000001
44
0.0000000001
40
0
40
0
40
0
40
1
40
1
40
1
10
362.10055479407242
20
79.927875518801002
30
0
10
362.46116527914944
20
78.735088825227962
30
0
10
363.34882029890957
20
77.653257369997135
30
0
0
SPLINE
5
108
100
AcDbEntity
8
0
100
AcDbSpline
70
0
71
2
72
6
73
3
74
0
42
0.000000001
43
0.0000000001
44
0.0000000001
40
0
40
0
40
0
40
1
40
1
40
1
10
363.34882029890957
20
77.653257369997135
30
0
10
363.98682364821377
20
76.848818778993646
30
0
10
364.63869580626437
20
76.127600193025543
30
0
0
SPLINE
5
109
100
AcDbEntity
8
0
100
AcDbSpline
70
0
71
2
72
6
73
3
74
0
42
0.000000001
43
0.0000000001
44
0.0000000001
40
0
40
0
40
0
40
1
40
1
40
1
10
364.63869580626437
20
76.127600193025543
30
0
10
365.2905679643149
20
75.406379222871664
30
0
10
365.76213487982699
20
74.87933349609547
30
0
0
SPLINE
5
110
100
AcDbEntity
8
0
100
AcDbSpline
70
0
71
2
72
6
73
3
74
0
42
0.000000001
43
0.0000000001
44
0.0000000001
40
0
40
0
40
0
40
1
40
1
40
1
10
365.76213487982699
20
74.87933349609547
30
0
10
366.23370298743197
20
74.380027770997756
30
0
10
366.13661536574318
20
73.714284420015105
30
0
0
SPLINE
5
111
100
AcDbEntity
8
0
100
AcDbSpline
70
0
71
2
72
6
73
3
74
0
42
0.000000001
43
0.0000000001
44
0.0000000001
40
0
40
0
40
0
40
1
40
1
40
1
10
366.13661536574318
20
73.714284420015105
30
0
10
366.03952774405434
20
73.048543453218244
30
0
10
365.59569963812783
20
72.66019296646293
30
0
0
SPLINE
5
112
100
AcDbEntity
8
0
100
AcDbSpline
70
0
71
2
72
6
73
3
74
0
42
0.000000001
43
0.0000000001
44
0.0000000001
40
0
40
0
40
0
40
1
40
1
40
1
10
365.59569963812783
20
72.66019296646293
30
0
10
365.12413272261574
20
72.24410486221494
30
0
10
364.48612937331154
20
72.230236053468673
30
0
0
SPLINE
5
113
100
AcDbEntity
8
0
100
AcDbSpline
70
0
71
2
72
6
73
3
74
0
42
0.000000001
43
0.0000000001
44
0.0000000001
40
0
40
0
40
0
40
1
40
1
40
1
10
364.48612937331154
20
72.230236053468673
30
0
10
363.84812721610024
20
72.216364860536629
30
0
10
363.37656030058815
20
72.687932968141666
30
0
0
SPLINE
5
114
100
AcDbEntity
8
0
100
AcDbSpline
70
0
71
2
72
6
73
3
74
0
42
0.000000001
43
0.0000000001
44
0.0000000001
40
0
40
0
40
0
40
1
40
1
40
1
10
363.37656030058815
20
72.687932968141666
30
0
10
363.04368862509682
20
73.048543453218613
30
0
10
362.5166428983207
20
73.63106679916595
30
0
0
SPLINE
5
115
100
AcDbEntity
8
0
100
AcDbSpline
70
0
71
2
72
6
73
3
74
0
42
0.000000001
43
0.0000000001
44
0.0000000001
40
0
40
0
40
0
40
1
40
1
40
1
10
362.5166428983207
20
73.63106679916595
30
0
10
361.98959717154452
20
74.213592529299063
30
0
10
361.49029144644686
20
74.823853492739062
30
0
0
SPLINE
5
116
100
AcDbEntity
8
0
100
AcDbSpline
70
0
71
2
72
6
73
3
74
0
42
0.000000001
43
0.0000000001
44
0.0000000001
40
0
40
0
40
0
40
1
40
1
40
1
10
361.49029144644686
20
74.823853492739062
30
0
10
361.07420215010592
20
75.323161602022566
30
0
10
360.79681047797152
20
75.711509704592174
30
0
0
SPLINE
5
117
100
AcDbEntity
8
0
100
AcDbSpline
70
0
71
2
72
6
73
3
74
0
42
0.000000001
43
0.0000000001
44
0.0000000001
40
0
40
0
40
0
40
1
40
1
40
1
10
360.79681047797152
20
75.711509704592174
30
0
10
360.51941761374422
20
76.099860191347588
30
0
10
360.35298237204501
20
76.391121864321235
30
0
0
SPLINE
5
118
100
AcDbEntity
8
0
100
AcDbSpline
70
0
71
2
72
6
73
3
74
0
42
0.000000001
43
0.0000000001
44
0.0000000001
40
0
40
0
40
0
40
1
40
1
40
1
10
360.35298237204501
20
76.391121864321235
30
0
10
360.18654593825283
20
76.682383537294896
30
0
10
360.10332831740322
20
76.904298782351063
30
0
0
SPLINE
5
119
100
AcDbEntity
8
0
100
AcDbSpline
70
0
71
2
72
6
73
3
74
0
42
0.000000001
43
0.0000000001
44
0.0000000001
40
0
40
0
40
0
40
1
40
1
40
1
10
360.10332831740322
20
76.904298782351063
30
0
10
360.02011069655362
20
77.126211643221424
30
0
10
359.99237188696804
20
77.348126888277591
30
0
0
LINE
5
120
100
AcDbEntity
8
0
100
AcDbLine
10
359.99237188696804
20
77.348126888277591
30
0
11
359.96463188528958
21
77.348126888277591
31
0
0
SPLINE
5
121
100
AcDbEntity
8
0
100
AcDbSpline
70
0
71
2
72
6
73
3
74
0
42
0.000000001
43
0.0000000001
44
0.0000000001
40
0
40
0
40
0
40
1
40
1
40
1
10
359.96463188528958
20
77.348126888277591
30
0
10
359.88141426443997
20
76.876558780672624
30
0
10
359.59015259146639
20
76.294035434725387
30
0
0
SPLINE
5
122
100
AcDbEntity
8
0
100
AcDbSpline
70
0
71
2
72
6
73
3
74
0
42
0.000000001
43
0.0000000001
44
0.0000000001
40
0
40
0
40
0
40
1
40
1
40
1
10
359.59015259146639
20
76.294035434725387
30
0
10
359.29889091849276
20
75.711509704592373
30
0
10
358.4389735162253
20
74.685158252718708
30
0
0
SPLINE
5
123
100
AcDbEntity
8
0
100
AcDbSpline
70
0
71
2
72
6
73
3
74
0
42
0.000000001
43
0.0000000001
44
0.0000000001
40
0
40
0
40
0
40
1
40
1
40
1
10
358.4389735162253
20
74.685158252718708
30
0
10
357.9396671950812
20
74.074894905093032
30
0
10
357.37101265788033
20
73.43689155578889
30
0
0
SPLINE
5
124
100
AcDbEntity
8
0
100
AcDbSpline
70
0
71
2
72
6
73
3
74
0
42
0.000000001
43
0.0000000001
44
0.0000000001
40
0
40
0
40
0
40
1
40
1
40
1
10
357.37101265788033
20
73.43689155578889
30
0
10
356.8023581206794
20
72.798888206484776
30
0
10
356.19209417700722
20
72.160887241366439
30
0
0
SPLINE
5
125
100
AcDbEntity
8
0
100
AcDbSpline
70
0
71
2
72
6
73
3
74
0
42
0.000000001
43
0.0000000001
44
0.0000000001
40
0
40
0
40
0
40
1
40
1
40
1
10
356.19209417700722
20
72.160887241366439
30
0
10
355.72052726149514
20
71.689319133761529
30
0
10
355.05478510260536
20
71.730927944186391
30
0
0
SPLINE
5
126
100
AcDbEntity
8
0
100
AcDbSpline
70
0
71
2
72
6
73
3
74
0
42
0.000000001
43
0.0000000001
44
0.0000000001
40
0
40
0
40
0
40
1
40
1
40
1
10
355.05478510260536
20
71.730927944186391
30
0
10
354.38904294371559
20
71.772536754611295
30
0
10
353.9729542434211
20
72.188627243045175
30
0
0
SPLINE
5
127
100
AcDbEntity
8
0
100
AcDbSpline
70
0
71
2
72
6
73
3
74
0
42
0.000000001
43
0.0000000001
44
0.0000000001
40
0
40
0
40
0
40
1
40
1
40
1
10
353.9729542434211
20
72.188627243045175
30
0
10
353.50138732790901
20
72.660192966464422
30
0
10
353.41816911101296
20
73.312065124514987
30
0
0
SPLINE
5
128
100
AcDbEntity
8
0
100
AcDbSpline
70
0
71
2
72
6
73
3
74
0
42
0.000000001
43
0.0000000001
44
0.0000000001
40
0
40
0
40
0
40
1
40
1
40
1
10
353.41816911101296
20
73.312065124514987
30
0
10
353.33495149016329
20
73.963937282565524
30
0
10
353.80651900172182
20
74.490983009341591
30
0
0
SPLINE
5
129
100
AcDbEntity
8
0
100
AcDbSpline
70
0
71
2
72
6
73
3
74
0
42
0.000000001
43
0.0000000001
44
0.0000000001
40
0
40
0
40
0
40
1
40
1
40
1
10
353.80651900172182
20
74.490983009341591
30
0
10
354.5554787814612
20
75.295421600344923
30
0
10
355.24895974993655
20
76.072120189669775
30
0
0
SPLINE
5
130
100
AcDbEntity
8
0
100
AcDbSpline
70
0
71
2
72
6
73
3
74
0
42
0.000000001
43
0.0000000001
44
0.0000000001
40
0
40
0
40
0
40
1
40
1
40
1
10
355.24895974993655
20
76.072120189669775
30
0
10
355.94244131445828
20
76.848818778994641
30
0
10
356.58044406771603
20
77.653257369997974
30
0
0
SPLINE
5
131
100
AcDbEntity
8
0
100
AcDbSpline
70
0
71
2
72
6
73
3
74
0
42
0.000000001
43
0.0000000001
44
0.0000000001
40
0
40
0
40
0
40
1
40
1
40
1
10
356.58044406771603
20
77.653257369997974
30
0
10
357.46809968352261
20
78.735088825228587
30
0
10
357.8287101685994
20
79.927875518801542
30
0
0
SPLINE
5
132
100
AcDbEntity
8
0
100
AcDbSpline
70
0
71
2
72
6
73
3
74
0
42
0.000000001
43
0.0000000001
44
0.0000000001
40
0
40
0
40
0
40
1
40
1
40
1
10
357.8287101685994
20
79.927875518801542
30
0
10
358.18932005762986
20
81.120664596560275
30
0
10
358.1893200576298
20
82.785019397738253
30
0
0
LINE
5
133
100
AcDbEntity
8
0
100
AcDbLine
10
358.1893200576298
20
82.785019397738253
30
0
11
358.18932005762969
21
86.751732349398409
31
0
0
SPLINE
5
134
100
AcDbEntity
8
0
100
AcDbSpline
70
0
71
2
72
6
73
3
74
0
42
0.000000001
43
0.0000000001
44
0.0000000001
40
0
40
0
40
0
40
1
40
1
40
1
10
372.39181646704589
20
88.332869529725016
30
0
10
372.39181646704589
20
89.054090499878825
30
0
10
372.89112219214348
20
89.38696098327722
30
0
0
SPLINE
5
135
100
AcDbEntity
8
0
100
AcDbSpline
70
0
71
2
72
6
73
3
74
0
42
0.000000001
43
0.0000000001
44
0.0000000001
40
0
40
0
40
0
40
1
40
1
40
1
10
372.89112219214348
20
89.38696098327722
30
0
10
373.39042791724114
20
89.719831466675572
30
0
10
374.02843126654534
20
89.719831466675515
30
0
0
SPLINE
5
136
100
AcDbEntity
8
0
100
AcDbSpline
70
0
71
2
72
6
73
3
74
0
42
0.000000001
43
0.0000000001
44
0.0000000001
40
0
40
0
40
0
40
1
40
1
40
1
10
374.02843126654534
20
89.719831466675515
30
0
10
374.66643461584954
20
89.719831466675416
30
0
10
375.1657403409472
20
89.386960983276936
30
0
0
SPLINE
5
137
100
AcDbEntity
8
0
100
AcDbSpline
70
0
71
2
72
6
73
3
74
0
42
0.000000001
43
0.0000000001
44
0.0000000001
40
0
40
0
40
0
40
1
40
1
40
1
10
375.1657403409472
20
89.386960983276936
30
0
10
375.66504606604491
20
89.054090499878413
30
0
10
375.66504606604491
20
88.332869529724604
30
0
0
LINE
5
138
100
AcDbEntity
8
0
100
AcDbLine
10
375.66504606604491
20
88.33286952972459
30
0
11
375.66504606604548
21
66.862689971924311
31
0
0
SPLINE
5
139
100
AcDbEntity
8
0
100
AcDbSpline
70
0
71
2
72
6
73
3
74
0
42
0.000000001
43
0.0000000001
44
0.0000000001
40
0
40
0
40
0
40
1
40
1
40
1
10
375.66504606604548
20
66.862689971924311
30
0
10
375.66504606604553
20
66.141469001770503
30
0
10
375.16574034094788
20
65.808598518372136
30
0
0
SPLINE
5
140
100
AcDbEntity
8
0
100
AcDbSpline
70
0
71
2
72
6
73
3
74
0
42
0.000000001
43
0.0000000001
44
0.0000000001
40
0
40
0
40
0
40
1
40
1
40
1
10
375.16574034094788
20
65.808598518372136
30
0
10
374.66643461585022
20
65.475728034973756
30
0
10
374.02843126654602
20
65.475728034973841
30
0
0
SPLINE
5
141
100
AcDbEntity
8
0
100
AcDbSpline
70
0
71
2
72
6
73
3
74
0
42
0.000000001
43
0.0000000001
44
0.0000000001
40
0
40
0
40
0
40
1
40
1
40
1
10
374.02843126654602
20
65.475728034973841
30
0
10
373.39042791724182
20
65.475728034973912
30
0
10
372.89112219214417
20
65.80859851837242
30
0
0
SPLINE
5
142
100
AcDbEntity
8
0
100
AcDbSpline
70
0
71
2
72
6
73
3
74
0
42
0.000000001
43
0.0000000001
44
0.0000000001
40
0
40
0
40
0
40
1
40
1
40
1
10
372.89112219214417
20
65.80859851837242
30
0
10
372.39181646704651
20
66.141469001770915
30
0
10
372.39181646704645
20
66.862689971924723
30
0
0
LINE
5
143
100
AcDbEntity
8
0
100
AcDbLine
10
372.39181646704645
20
66.862689971924723
30
0
11
372.39181646704589
21
88.332869529725016
31
0
0
SPLINE
5
144
100
AcDbEntity
8
0
100
AcDbSpline
70
0
71
2
72
6
73
3
74
0
42
0.000000001
43
0.0000000001
44
0.0000000001
40
0
40
0
40
0
40
1
40
1
40
1
10
367.34327206015502
20
88.055476665498347
30
0
10
367.34327206015502
20
88.776697635652155
30
0
10
367.84257897734557
20
89.109568119050536
30
0
0
SPLINE
5
145
100
AcDbEntity
8
0
100
AcDbSpline
70
0
71
2
72
6
73
3
74
0
42
0.000000001
43
0.0000000001
44
0.0000000001
40
0
40
0
40
0
40
1
40
1
40
1
10
367.84257897734557
20
89.109568119050536
30
0
10
368.34188589453606
20
89.442438602448902
30
0
10
368.97988924384026
20
89.442438602448831
30
0
0
SPLINE
5
146
100
AcDbEntity
8
0
100
AcDbSpline
70
0
71
2
72
6
73
3
74
0
42
0.000000001
43
0.0000000001
44
0.0000000001
40
0
40
0
40
0
40
1
40
1
40
1
10
368.97988924384026
20
89.442438602448831
30
0
10
369.5901502072802
20
89.44243860244876
30
0
10
370.08945831656371
20
89.109568119050252
30
0
0
SPLINE
5
147
100
AcDbEntity
8
0
100
AcDbSpline
70
0
71
2
72
6
73
3
74
0
42
0.000000001
43
0.0000000001
44
0.0000000001
40
0
40
0
40
0
40
1
40
1
40
1
10
370.08945831656371
20
89.109568119050252
30
0
10
370.58876642584715
20
88.776697635651772
30
0
10
370.58876642584715
20
88.055476665497963
30
0
0
LINE
5
148
100
AcDbEntity
8
0
100
AcDbLine
10
370.58876642584715
20
88.055476665497935
30
0
11
370.58876642584772
21
68.027739048005287
31
0
0
SPLINE
5
149
100
AcDbEntity
8
0
100
AcDbSpline
70
0
71
2
72
6
73
3
74
0
42
0.000000001
43
0.0000000001
44
0.0000000001
40
0
40
0
40
0
40
1
40
1
40
1
10
370.58876642584772
20
68.027739048005273
30
0
10
370.58876642584772
20
67.306518077851464
30
0
10
370.08945831656428
20
66.973647594453084
30
0
0
SPLINE
5
150
100
AcDbEntity
8
0
100
AcDbSpline
70
0
71
2
72
6
73
3
74
0
42
0.000000001
43
0.0000000001
44
0.0000000001
40
0
40
0
40
0
40
1
40
1
40
1
10
370.08945831656428
20
66.973647594453084
30
0
10
369.59015020728083
20
66.640774726868926
30
0
10
368.97988924384089
20
66.640774726868997
30
0
0
SPLINE
5
151
100
AcDbEntity
8
0
100
AcDbSpline
70
0
71
2
72
6
73
3
74
0
42
0.000000001
43
0.0000000001
44
0.0000000001
40
0
40
0
40
0
40
1
40
1
40
1
10
368.97988924384089
20
66.640774726868997
30
0
10
368.34188589453669
20
66.640774726869068
30
0
10
367.84257897734614
20
66.973647594453368
30
0
0
SPLINE
5
152
100
AcDbEntity
8
0
100
AcDbSpline
70
0
71
2
72
6
73
3
74
0
42
0.000000001
43
0.0000000001
44
0.0000000001
40
0
40
0
40
0
40
1
40
1
40
1
10
367.84257897734614
20
66.973647594453368
30
0
10
367.34327206015558
20
67.306518077851862
30
0
10
367.34327206015558
20
68.027739048005671
30
0
0
LINE
5
153
100
AcDbEntity
8
0
100
AcDbLine
10
367.34327206015558
20
68.027739048005671
30
0
11
367.3432720601553
21
79.428569793702692
31
0
0
LINE
5
154
100
AcDbEntity
8
0
100
AcDbLine
10
367.3432720601553
20
79.428569793702692
30
0
11
365.29056796431473
21
79.428569793702962
31
0
0
SPLINE
5
155
100
AcDbEntity
8
0
100
AcDbSpline
70
0
71
2
72
6
73
3
74
0
42
0.000000001
43
0.0000000001
44
0.0000000001
40
0
40
0
40
0
40
1
40
1
40
1
10
365.29056796431473
20
79.428569793702962
30
0
10
364.65256580710343
20
79.428569793703033
30
0
10
364.34743413329056
20
79.872397899629576
30
0
0
SPLINE
5
156
100
AcDbEntity
8
0
100
AcDbSpline
70
0
71
2
72
6
73
3
74
0
42
0.000000001
43
0.0000000001
44
0.0000000001
40
0
40
0
40
0
40
1
40
1
40
1
10
364.34743413329056
20
79.872397899629576
30
0
10
364.0423012673848
20
80.316226005556132
30
0
10
364.0423012673848
20
80.954229354860331
30
0
0
SPLINE
5
157
100
AcDbEntity
8
0
100
AcDbSpline
70
0
71
2
72
6
73
3
74
0
42
0.000000001
43
0.0000000001
44
0.0000000001
40
0
40
0
40
0
40
1
40
1
40
1
10
364.0423012673848
20
80.954229354860331
30
0
10
364.0423012673848
20
81.592230319978739
30
0
10
364.34743413329051
20
82.03605842590521
30
0
0
SPLINE
5
158
100
AcDbEntity
8
0
100
AcDbSpline
70
0
71
2
72
6
73
3
74
0
42
0.000000001
43
0.0000000001
44
0.0000000001
40
0
40
0
40
0
40
1
40
1
40
1
10
364.34743413329051
20
82.03605842590521
30
0
10
364.65256580710337
20
82.479886531831696
30
0
10
365.29056796431468
20
82.479886531831625
30
0
0
LINE
5
159
100
AcDbEntity
8
0
100
AcDbLine
10
365.29056796431473
20
82.479886531831625
30
0
11
367.34327206015513
21
82.479886531831369
31
0
0
LINE
5
160
100
AcDbEntity
8
0
100
AcDbLine
10
367.34327206015513
20
82.479886531831369
30
0
11
367.34327206015502
21
88.055476665498347
31
0
0
ENDSEC
0
SECTION
2
OBJECTS
0
DICTIONARY
5
C
100
AcDbDictionary
3
ACAD_GROUP
350
D
3
ACAD_MLINESTYLE
350
17
0
DICTIONARY
5
D
100
AcDbDictionary
0
DICTIONARY
5
1A
330
C
100
AcDbDictionary
0
DICTIONARY
5
17
100
AcDbDictionary
0
ENDSEC
0
EOF
