0
SECTION
2
HEADER
9
$INSUNITS
70
4
9
$ACADVER
1
AC1014
9
$HANDSEED
5
FFFF
0
ENDSEC
0
SECTION
2
TABLES
0
TABLE
2
VPORT
5
8
100
AcDbSymbolTable
0
ENDTAB
0
TABLE
2
LTYPE
5
5
100
AcDbSymbolTable
0
LTYPE
5
14
100
AcDbSymbolTableRecord
100
AcDbLinetypeTableRecord
2
BYBLOCK
70
0
0
LTYPE
5
15
100
AcDbSymbolTableRecord
100
AcDbLinetypeTableRecord
2
BYLAYER
70
0
0
ENDTAB
0
TABLE
2
LAYER
5
2
100
AcDbSymbolTable
70
2
0
LAYER
5
50
100
AcDbSymbolTableRecord
100
AcDbLayerTableRecord
2
0
70
0
6
CONTINUOUS
0
ENDTAB
0
TABLE
2
STYLE
5
3
100
AcDbSymbolTable
70
1
0
STYLE
5
11
100
AcDbSymbolTableRecord
100
AcDbTextStyleTableRecord
2
STANDARD
70
0
0
ENDTAB
0
TABLE
2
VIEW
5
6
100
AcDbSymbolTable
70
0
0
ENDTAB
0
TABLE
2
UCS
5
7
100
AcDbSymbolTable
70
0
0
ENDTAB
0
TABLE
2
APPID
5
9
100
AcDbSymbolTable
70
2
0
APPID
5
12
100
AcDbSymbolTableRecord
100
AcDbRegAppTableRecord
2
ACAD
70
0
0
ENDTAB
0
TABLE
2
DIMSTYLE
5
A
100
AcDbSymbolTable
70
1
0
ENDTAB
0
TABLE
2
BLOCK_RECORD
5
1
100
AcDbSymbolTable
70
1
0
BLOCK_RECORD
5
1F
100
AcDbSymbolTableRecord
100
AcDbBlockTableRecord
2
*MODEL_SPACE
0
BLOCK_RECORD
5
1B
100
AcDbSymbolTableRecord
100
AcDbBlockTableRecord
2
*PAPER_SPACE
0
ENDTAB
0
ENDSEC
0
SECTION
2
BLOCKS
0
BLOCK
5
20
100
AcDbEntity
100
AcDbBlockBegin
2
*MODEL_SPACE
0
ENDBLK
5
21
100
AcDbEntity
100
AcDbBlockEnd
0
BLOCK
5
1C
100
AcDbEntity
100
AcDbBlockBegin
2
*PAPER_SPACE
0
ENDBLK
5
1D
100
AcDbEntity
100
AcDbBlockEnd
0
ENDSEC
0
SECTION
2
ENTITIES
0
LWPOLYLINE
5
100
100
AcDbEntity
8
0
100
AcDbPolyline
90
12
70
1
43
0.0
10
393
20
150.00000000000003
42
-0.41421356237309681
10
390
20
153
10
390
20
175
42
-0.41421356237310336
10
395
20
180
10
415
20
180
42
-0.41421356237310336
10
420
20
175
10
420
20
153
42
-0.41421356237309681
10
417
20
150
10
415
20
150
10
415
20
136.99999999999989
10
394.9999999999734
20
136.99999999999568
10
395.00000000000176
20
149.99999999999568
0
SPLINE
5
101
100
AcDbEntity
8
0
100
AcDbSpline
70
0
71
2
72
6
73
3
74
0
42
0.000000001
43
0.0000000001
44
0.0000000001
40
0
40
0
40
0
40
1
40
1
40
1
10
404.09847393631907
20
171.03467226028442
30
0
10
404.09847393631907
20
170.20249605178833
30
0
10
404.22330036759348
20
169.5090126991272
30
0
0
SPLINE
5
102
100
AcDbEntity
8
0
100
AcDbSpline
70
0
71
2
72
6
73
3
74
0
42
0.000000001
43
0.0000000001
44
0.0000000001
40
0
40
0
40
0
40
1
40
1
40
1
10
404.22330036759348
20
169.5090126991272
30
0
10
404.3481267988679
20
168.81553173065186
30
0
10
404.59778085350968
20
168.17753076553345
30
0
0
SPLINE
5
103
100
AcDbEntity
8
0
100
AcDbSpline
70
0
71
2
72
6
73
3
74
0
42
0.000000001
43
0.0000000001
44
0.0000000001
40
0
40
0
40
0
40
1
40
1
40
1
10
404.59778085350968
20
168.17753076553345
30
0
10
404.8474337160585
20
167.53952741622925
30
0
10
405.24965301156021
20
166.94313287734985
30
0
0
SPLINE
5
104
100
AcDbEntity
8
0
100
AcDbSpline
70
0
71
2
72
6
73
3
74
0
42
0.000000001
43
0.0000000001
44
0.0000000001
40
0
40
0
40
0
40
1
40
1
40
1
10
405.24965301156021
20
166.94313287734985
30
0
10
405.65187230706192
20
166.34673833847046
30
0
10
406.23439565300919
20
165.70873737335205
30
0
0
SPLINE
5
105
100
AcDbEntity
8
0
100
AcDbSpline
70
0
71
2
72
6
73
3
74
0
42
0.000000001
43
0.0000000001
44
0.0000000001
40
0
40
0
40
0
40
1
40
1
40
1
10
406.23439565300919
20
165.70873737335205
30
0
10
406.98335543274857
20
164.90429878234863
30
0
10
407.74618521332718
20
164.12760019302368
30
0
0
SPLINE
5
106
100
AcDbEntity
8
0
100
AcDbSpline
70
0
71
2
72
6
73
3
74
0
42
0.000000001
43
0.0000000001
44
0.0000000001
40
0
40
0
40
0
40
1
40
1
40
1
10
407.74618521332718
20
164.12760019302368
30
0
10
408.50901499390579
20
163.35090160369873
30
0
10
409.1470171511171
20
162.79611587524414
30
0
0
SPLINE
5
107
100
AcDbEntity
8
0
100
AcDbSpline
70
0
71
2
72
6
73
3
74
0
42
0.000000001
43
0.0000000001
44
0.0000000001
40
0
40
0
40
0
40
1
40
1
40
1
10
409.1470171511171
20
162.79611587524414
30
0
10
409.67406287789322
20
162.32454776763916
30
0
10
409.56310525536514
20
161.67267560958862
30
0
0
SPLINE
5
108
100
AcDbEntity
8
0
100
AcDbSpline
70
0
71
2
72
6
73
3
74
0
42
0.000000001
43
0.0000000001
44
0.0000000001
40
0
40
0
40
0
40
1
40
1
40
1
10
409.56310525536514
20
161.67267560958862
30
0
10
409.45215001702286
20
161.02080345153809
30
0
10
409.03606191277481
20
160.57697534561157
30
0
0
SPLINE
5
109
100
AcDbEntity
8
0
100
AcDbSpline
70
0
71
2
72
6
73
3
74
0
42
0.000000001
43
0.0000000001
44
0.0000000001
40
0
40
0
40
0
40
1
40
1
40
1
10
409.03606191277481
20
160.57697534561157
30
0
10
408.84188428521134
20
160.38280010223389
30
0
10
408.56449261307694
20
160.24410486221313
30
0
0
SPLINE
5
110
100
AcDbEntity
8
0
100
AcDbSpline
70
0
71
2
72
6
73
3
74
0
42
0.000000001
43
0.0000000001
44
0.0000000001
40
0
40
0
40
0
40
1
40
1
40
1
10
408.56449261307694
20
160.24410486221313
30
0
10
408.28710094094254
20
160.10540723800659
30
0
10
407.99583807587601
20
160.06379842758179
30
0
0
SPLINE
5
111
100
AcDbEntity
8
0
100
AcDbSpline
70
0
71
2
72
6
73
3
74
0
42
0.000000001
43
0.0000000001
44
0.0000000001
40
0
40
0
40
0
40
1
40
1
40
1
10
407.99583807587601
20
160.06379842758179
30
0
10
407.70457640290238
20
160.02218961715698
30
0
10
407.41331472992874
20
160.10540723800659
30
0
0
SPLINE
5
112
100
AcDbEntity
8
0
100
AcDbSpline
70
0
71
2
72
6
73
3
74
0
42
0.000000001
43
0.0000000001
44
0.0000000001
40
0
40
0
40
0
40
1
40
1
40
1
10
407.41331472992874
20
160.10540723800659
30
0
10
407.12205186486221
20
160.18862724304199
30
0
10
406.87239900231339
20
160.41054010391235
30
0
0
SPLINE
5
113
100
AcDbEntity
8
0
100
AcDbSpline
70
0
71
2
72
6
73
3
74
0
42
0.000000001
43
0.0000000001
44
0.0000000001
40
0
40
0
40
0
40
1
40
1
40
1
10
406.87239900231339
20
160.41054010391235
30
0
10
406.31761446595169
20
160.90984582901001
30
0
10
405.66574111580826
20
161.56171798706055
30
0
0
SPLINE
5
114
100
AcDbEntity
8
0
100
AcDbSpline
70
0
71
2
72
6
73
3
74
0
42
0.000000001
43
0.0000000001
44
0.0000000001
40
0
40
0
40
0
40
1
40
1
40
1
10
405.66574111580826
20
161.56171798706055
30
0
10
405.01386895775772
20
162.21359252929688
30
0
10
404.34812679886795
20
162.93481111526489
30
0
0
SPLINE
5
115
100
AcDbEntity
8
0
100
AcDbSpline
70
0
71
2
72
6
73
3
74
0
42
0.000000001
43
0.0000000001
44
0.0000000001
40
0
40
0
40
0
40
1
40
1
40
1
10
404.34812679886795
20
162.93481111526489
30
0
10
403.23855772614456
20
164.09986019134521
30
0
10
402.82246842980362
20
164.69625473022461
30
0
0
SPLINE
5
116
100
AcDbEntity
8
0
100
AcDbSpline
70
0
71
2
72
6
73
3
74
0
42
0.000000001
43
0.0000000001
44
0.0000000001
40
0
40
0
40
0
40
1
40
1
40
1
10
402.82246842980362
20
164.69625473022461
30
0
10
402.40638032555557
20
165.29264688491821
30
0
10
402.32316270470596
20
165.70873737335205
30
0
0
LINE
5
117
100
AcDbEntity
8
0
100
AcDbLine
10
402.32316270470591
20
165.70873737335205
30
0
11
402.2954227030275
21
165.70873737335205
31
0
0
SPLINE
5
118
100
AcDbEntity
8
0
100
AcDbSpline
70
0
71
2
72
6
73
3
74
0
42
0.000000001
43
0.0000000001
44
0.0000000001
40
0
40
0
40
0
40
1
40
1
40
1
10
402.2954227030275
20
165.70873737335205
30
0
10
402.23994508385636
20
165.45908212661743
30
0
10
402.11511865258194
20
165.19556045532227
30
0
0
SPLINE
5
119
100
AcDbEntity
8
0
100
AcDbSpline
70
0
71
2
72
6
73
3
74
0
42
0.000000001
43
0.0000000001
44
0.0000000001
40
0
40
0
40
0
40
1
40
1
40
1
10
402.11511865258194
20
165.19556045532227
30
0
10
401.99029222130753
20
164.93203639984131
30
0
10
401.76837697625137
20
164.613037109375
30
0
0
SPLINE
5
120
100
AcDbEntity
8
0
100
AcDbSpline
70
0
71
2
72
6
73
3
74
0
42
0.000000001
43
0.0000000001
44
0.0000000001
40
0
40
0
40
0
40
1
40
1
40
1
10
401.76837697625137
20
164.613037109375
30
0
10
401.54646411538101
20
164.2940354347229
30
0
10
401.17198362946488
20
163.86407613754272
30
0
0
SPLINE
5
121
100
AcDbEntity
8
0
100
AcDbSpline
70
0
71
2
72
6
73
3
74
0
42
0.000000001
43
0.0000000001
44
0.0000000001
40
0
40
0
40
0
40
1
40
1
40
1
10
401.17198362946488
20
163.86407613754272
30
0
10
400.79750314354874
20
163.43411922454834
30
0
10
400.24271860718704
20
162.85159349441528
30
0
0
SPLINE
5
122
100
AcDbEntity
8
0
100
AcDbSpline
70
0
71
2
72
6
73
3
74
0
42
0.000000001
43
0.0000000001
44
0.0000000001
40
0
40
0
40
0
40
1
40
1
40
1
10
400.24271860718704
20
162.85159349441528
30
0
10
399.57697644829727
20
162.13037252426147
30
0
10
398.86962667107559
20
161.43689155578613
30
0
0
SPLINE
5
123
100
AcDbEntity
8
0
100
AcDbSpline
70
0
71
2
72
6
73
3
74
0
42
0.000000001
43
0.0000000001
44
0.0000000001
40
0
40
0
40
0
40
1
40
1
40
1
10
398.86962667107559
20
161.43689155578613
30
0
10
398.16227510571457
20
160.74341058731079
30
0
10
397.33009770512558
20
159.96671199798587
30
0
0
SPLINE
5
124
100
AcDbEntity
8
0
100
AcDbSpline
70
0
71
2
72
6
73
3
74
0
42
0.000000001
43
0.0000000001
44
0.0000000001
40
0
40
0
40
0
40
1
40
1
40
1
10
397.33009770512558
20
159.96671199798587
30
0
10
396.80305197834946
20
159.49514389038089
30
0
10
396.15117982029892
20
159.67545032501224
30
0
0
SPLINE
5
125
100
AcDbEntity
8
0
100
AcDbSpline
70
0
71
2
72
6
73
3
74
0
42
0.000000001
43
0.0000000001
44
0.0000000001
40
0
40
0
40
0
40
1
40
1
40
1
10
396.15117982029892
20
159.67545032501224
30
0
10
395.49930706620194
20
159.85575437545779
30
0
10
395.11095777153946
20
160.27184486389163
30
0
0
SPLINE
5
126
100
AcDbEntity
8
0
100
AcDbSpline
70
0
71
2
72
6
73
3
74
0
42
0.000000001
43
0.0000000001
44
0.0000000001
40
0
40
0
40
0
40
1
40
1
40
1
10
395.11095777153946
20
160.27184486389163
30
0
10
394.69486907124497
20
160.74341058731082
30
0
10
394.66712966561295
20
161.38141393661502
30
0
0
SPLINE
5
127
100
AcDbEntity
8
0
100
AcDbSpline
70
0
71
2
72
6
73
3
74
0
42
0.000000001
43
0.0000000001
44
0.0000000001
40
0
40
0
40
0
40
1
40
1
40
1
10
394.66712966561295
20
161.38141393661502
30
0
10
394.63939085602738
20
162.01941490173343
30
0
10
395.13869717717148
20
162.49098300933841
30
0
0
SPLINE
5
128
100
AcDbEntity
8
0
100
AcDbSpline
70
0
71
2
72
6
73
3
74
0
42
0.000000001
43
0.0000000001
44
0.0000000001
40
0
40
0
40
0
40
1
40
1
40
1
10
395.13869717717148
20
162.49098300933841
30
0
10
396.85853019356705
20
164.07212018966675
30
0
10
398.35644975304581
20
165.70873737335205
30
0
0
SPLINE
5
129
100
AcDbEntity
8
0
100
AcDbSpline
70
0
71
2
72
6
73
3
74
0
42
0.000000001
43
0.0000000001
44
0.0000000001
40
0
40
0
40
0
40
1
40
1
40
1
10
398.35644975304581
20
165.70873737335205
30
0
10
398.93897429108597
20
166.34673833847046
30
0
10
399.34119239449478
20
166.94313287734985
30
0
0
SPLINE
5
130
100
AcDbEntity
8
0
100
AcDbSpline
70
0
71
2
72
6
73
3
74
0
42
0.000000001
43
0.0000000001
44
0.0000000001
40
0
40
0
40
0
40
1
40
1
40
1
10
399.34119239449478
20
166.94313287734985
30
0
10
399.74341168999649
20
167.53952741622925
30
0
10
399.99306574463822
20
168.17753076553345
30
0
0
SPLINE
5
131
100
AcDbEntity
8
0
100
AcDbSpline
70
0
71
2
72
6
73
3
74
0
42
0.000000001
43
0.0000000001
44
0.0000000001
40
0
40
0
40
0
40
1
40
1
40
1
10
399.99306574463822
20
168.17753076553345
30
0
10
400.24271860718699
20
168.81553173065186
30
0
10
400.3675462305543
20
169.5090126991272
30
0
0
SPLINE
5
132
100
AcDbEntity
8
0
100
AcDbSpline
70
0
71
2
72
6
73
3
74
0
42
0.000000001
43
0.0000000001
44
0.0000000001
40
0
40
0
40
0
40
1
40
1
40
1
10
400.3675462305543
20
169.5090126991272
30
0
10
400.49237266182871
20
170.20249605178833
30
0
10
400.49237266182871
20
171.03467226028442
30
0
0
LINE
5
133
100
AcDbEntity
8
0
100
AcDbLine
10
400.49237266182871
20
171.03467226028445
30
0
11
400.49237266182871
21
174.91816759109497
31
0
0
SPLINE
5
134
100
AcDbEntity
8
0
100
AcDbSpline
70
0
71
2
72
6
73
3
74
0
42
0.000000001
43
0.0000000001
44
0.0000000001
40
0
40
0
40
0
40
1
40
1
40
1
10
400.49237266182871
20
174.91816759109497
30
0
10
400.49237266182871
20
175.72260618209839
30
0
10
401.03328719735117
20
176.08321666717529
30
0
0
SPLINE
5
135
100
AcDbEntity
8
0
100
AcDbSpline
70
0
71
2
72
6
73
3
74
0
42
0.000000001
43
0.0000000001
44
0.0000000001
40
0
40
0
40
0
40
1
40
1
40
1
10
401.03328719735117
20
176.08321666717529
30
0
10
401.57420292496653
20
176.4438271522522
30
0
10
402.29542270302744
20
176.4438271522522
30
0
0
SPLINE
5
136
100
AcDbEntity
8
0
100
AcDbSpline
70
0
71
2
72
6
73
3
74
0
42
0.000000001
43
0.0000000001
44
0.0000000001
40
0
40
0
40
0
40
1
40
1
40
1
10
402.29542270302744
20
176.4438271522522
30
0
10
403.01664367318125
20
176.4438271522522
30
0
10
403.55755820870371
20
176.08321666717529
30
0
0
SPLINE
5
137
100
AcDbEntity
8
0
100
AcDbSpline
70
0
71
2
72
6
73
3
74
0
42
0.000000001
43
0.0000000001
44
0.0000000001
40
0
40
0
40
0
40
1
40
1
40
1
10
403.55755820870371
20
176.08321666717529
30
0
10
404.09847393631907
20
175.72260618209839
30
0
10
404.09847393631907
20
174.91816759109497
30
0
0
LINE
5
138
100
AcDbEntity
8
0
100
AcDbLine
10
404.09847393631907
20
174.91816759109497
30
0
11
404.09847393631907
21
171.03467226028442
31
0
0
SPLINE
5
139
100
AcDbEntity
8
0
100
AcDbSpline
70
0
71
2
72
6
73
3
74
0
42
0.000000001
43
0.0000000001
44
0.0000000001
40
0
40
0
40
0
40
1
40
1
40
1
10
415.36061063408829
20
154.97364759445188
30
0
10
415.36061063408829
20
154.19694900512692
30
0
10
414.81969133019425
20
153.83633852005002
30
0
0
SPLINE
5
140
100
AcDbEntity
8
0
100
AcDbSpline
70
0
71
2
72
6
73
3
74
0
42
0.000000001
43
0.0000000001
44
0.0000000001
40
0
40
0
40
0
40
1
40
1
40
1
10
414.81969133019425
20
153.83633852005002
30
0
10
414.27877679467178
20
153.47572803497312
30
0
10
413.55755582451798
20
153.47572803497312
30
0
0
SPLINE
5
141
100
AcDbEntity
8
0
100
AcDbSpline
70
0
71
2
72
6
73
3
74
0
42
0.000000001
43
0.0000000001
44
0.0000000001
40
0
40
0
40
0
40
1
40
1
40
1
10
413.55755582451798
20
153.47572803497312
30
0
10
412.86407724022843
20
153.47572803497312
30
0
10
412.32316270470596
20
153.83633852005002
30
0
0
SPLINE
5
142
100
AcDbEntity
8
0
100
AcDbSpline
70
0
71
2
72
6
73
3
74
0
42
0.000000001
43
0.0000000001
44
0.0000000001
40
0
40
0
40
0
40
1
40
1
40
1
10
412.32316270470596
20
153.83633852005002
30
0
10
411.78224578499771
20
154.19694900512692
30
0
10
411.78224578499771
20
154.97364759445188
30
0
0
LINE
5
143
100
AcDbEntity
8
0
100
AcDbLine
10
411.78224578499771
20
154.97364759445188
30
0
11
411.78224578499766
21
176.22191190719604
31
0
0
SPLINE
5
144
100
AcDbEntity
8
0
100
AcDbSpline
70
0
71
2
72
6
73
3
74
0
42
0.000000001
43
0.0000000001
44
0.0000000001
40
0
40
0
40
0
40
1
40
1
40
1
10
411.78224578499766
20
176.22191190719602
30
0
10
411.78224578499766
20
176.99861288070676
30
0
10
412.32316270470591
20
177.35922098159787
30
0
0
SPLINE
5
145
100
AcDbEntity
8
0
100
AcDbSpline
70
0
71
2
72
6
73
3
74
0
42
0.000000001
43
0.0000000001
44
0.0000000001
40
0
40
0
40
0
40
1
40
1
40
1
10
412.32316270470591
20
177.35922098159787
30
0
10
412.86407724022837
20
177.71983146667478
30
0
10
413.55755582451792
20
177.71983146667478
30
0
0
SPLINE
5
146
100
AcDbEntity
8
0
100
AcDbSpline
70
0
71
2
72
6
73
3
74
0
42
0.000000001
43
0.0000000001
44
0.0000000001
40
0
40
0
40
0
40
1
40
1
40
1
10
413.55755582451792
20
177.71983146667478
30
0
10
414.27877679467173
20
177.71983146667478
30
0
10
414.81969133019419
20
177.35922098159787
30
0
0
SPLINE
5
147
100
AcDbEntity
8
0
100
AcDbSpline
70
0
71
2
72
6
73
3
74
0
42
0.000000001
43
0.0000000001
44
0.0000000001
40
0
40
0
40
0
40
1
40
1
40
1
10
414.81969133019419
20
177.35922098159787
30
0
10
415.36061063408823
20
176.99861288070676
30
0
10
415.36061063408823
20
176.22191190719602
30
0
0
LINE
5
148
100
AcDbEntity
8
0
100
AcDbLine
10
415.36061063408823
20
176.22191190719602
30
0
11
415.36061063408829
21
154.97364759445188
31
0
0
ENDSEC
0
SECTION
2
OBJECTS
0
DICTIONARY
5
C
100
AcDbDictionary
3
ACAD_GROUP
350
D
3
ACAD_MLINESTYLE
350
17
0
DICTIONARY
5
D
100
AcDbDictionary
0
DICTIONARY
5
1A
330
C
100
AcDbDictionary
0
DICTIONARY
5
17
100
AcDbDictionary
0
ENDSEC
0
EOF
