0
SECTION
2
HEADER
9
$INSUNITS
70
4
9
$ACADVER
1
AC1014
9
$HANDSEED
5
FFFF
0
ENDSEC
0
SECTION
2
TABLES
0
TABLE
2
VPORT
5
8
100
AcDbSymbolTable
0
ENDTAB
0
TABLE
2
LTYPE
5
5
100
AcDbSymbolTable
0
LTYPE
5
14
100
AcDbSymbolTableRecord
100
AcDbLinetypeTableRecord
2
BYBLOCK
70
0
0
LTYPE
5
15
100
AcDbSymbolTableRecord
100
AcDbLinetypeTableRecord
2
BYLAYER
70
0
0
ENDTAB
0
TABLE
2
LAYER
5
2
100
AcDbSymbolTable
70
2
0
LAYER
5
50
100
AcDbSymbolTableRecord
100
AcDbLayerTableRecord
2
0
70
0
6
CONTINUOUS
0
ENDTAB
0
TABLE
2
STYLE
5
3
100
AcDbSymbolTable
70
1
0
STYLE
5
11
100
AcDbSymbolTableRecord
100
AcDbTextStyleTableRecord
2
STANDARD
70
0
0
ENDTAB
0
TABLE
2
VIEW
5
6
100
AcDbSymbolTable
70
0
0
ENDTAB
0
TABLE
2
UCS
5
7
100
AcDbSymbolTable
70
0
0
ENDTAB
0
TABLE
2
APPID
5
9
100
AcDbSymbolTable
70
2
0
APPID
5
12
100
AcDbSymbolTableRecord
100
AcDbRegAppTableRecord
2
ACAD
70
0
0
ENDTAB
0
TABLE
2
DIMSTYLE
5
A
100
AcDbSymbolTable
70
1
0
ENDTAB
0
TABLE
2
BLOCK_RECORD
5
1
100
AcDbSymbolTable
70
1
0
BLOCK_RECORD
5
1F
100
AcDbSymbolTableRecord
100
AcDbBlockTableRecord
2
*MODEL_SPACE
0
BLOCK_RECORD
5
1B
100
AcDbSymbolTableRecord
100
AcDbBlockTableRecord
2
*PAPER_SPACE
0
ENDTAB
0
ENDSEC
0
SECTION
2
BLOCKS
0
BLOCK
5
20
100
AcDbEntity
100
AcDbBlockBegin
2
*MODEL_SPACE
0
ENDBLK
5
21
100
AcDbEntity
100
AcDbBlockEnd
0
BLOCK
5
1C
100
AcDbEntity
100
AcDbBlockBegin
2
*PAPER_SPACE
0
ENDBLK
5
1D
100
AcDbEntity
100
AcDbBlockEnd
0
ENDSEC
0
SECTION
2
ENTITIES
0
LWPOLYLINE
5
100
100
AcDbEntity
8
0
100
AcDbPolyline
90
12
70
1
43
0.0
10
470
20
153
10
470
20
175
42
-0.41421356237310336
10
475
20
180
10
495
20
180
42
-0.41421356237310336
10
500
20
175
10
500
20
153
42
-0.41421356237309681
10
497
20
150
10
495
20
150
10
495
20
136.99999999999568
10
474.99999999997357
20
136.99999999999568
10
475.00000000000176
20
149.99999999999568
10
473
20
150.00000000000003
42
-0.41421356237309681
0
SPLINE
5
101
100
AcDbEntity
8
0
100
AcDbSpline
70
0
71
2
72
6
73
3
74
0
42
0.000000001
43
0.0000000001
44
0.0000000001
40
0
40
0
40
0
40
1
40
1
40
1
10
478.32801654934872
20
169.48127508163452
30
0
10
479.2156721651553
20
170.2302348613739
30
0
10
479.60402265191067
20
171.15949869155884
30
0
0
SPLINE
5
102
100
AcDbEntity
8
0
100
AcDbSpline
70
0
71
2
72
6
73
3
74
0
42
0.000000001
43
0.0000000001
44
0.0000000001
40
0
40
0
40
0
40
1
40
1
40
1
10
479.60402265191067
20
171.15949869155884
30
0
10
479.99237075448025
20
172.08876490592957
30
0
10
479.99237075448025
20
173.2538115978241
30
0
0
LINE
5
103
100
AcDbEntity
8
0
100
AcDbLine
10
479.99237075448025
20
173.2538115978241
30
0
11
479.99237075448025
21
175.38973450660706
31
0
0
SPLINE
5
104
100
AcDbEntity
8
0
100
AcDbSpline
70
0
71
2
72
6
73
3
74
0
42
0.000000001
43
0.0000000001
44
0.0000000001
40
0
40
0
40
0
40
1
40
1
40
1
10
479.99237075448025
20
175.38973450660706
30
0
10
479.99237075448025
20
176.19417190551758
30
0
10
480.5332864820956
20
176.55478239059448
30
0
0
SPLINE
5
105
100
AcDbEntity
8
0
100
AcDbSpline
70
0
71
2
72
6
73
3
74
0
42
0.000000001
43
0.0000000001
44
0.0000000001
40
0
40
0
40
0
40
1
40
1
40
1
10
480.5332864820956
20
176.55478239059448
30
0
10
481.07420220971096
20
176.91539287567139
30
0
10
481.79542317986477
20
176.91539287567139
30
0
0
SPLINE
5
106
100
AcDbEntity
8
0
100
AcDbSpline
70
0
71
2
72
6
73
3
74
0
42
0.000000001
43
0.0000000001
44
0.0000000001
40
0
40
0
40
0
40
1
40
1
40
1
10
481.79542317986477
20
176.91539287567139
30
0
10
482.51664295792568
20
176.91539287567139
30
0
10
483.05755749344814
20
176.55478239059448
30
0
0
SPLINE
5
107
100
AcDbEntity
8
0
100
AcDbSpline
70
0
71
2
72
6
73
3
74
0
42
0.000000001
43
0.0000000001
44
0.0000000001
40
0
40
0
40
0
40
1
40
1
40
1
10
483.05755749344814
20
176.55478239059448
30
0
10
483.5984732210635
20
176.19417190551758
30
0
10
483.5984732210635
20
175.38973450660706
30
0
0
LINE
5
108
100
AcDbEntity
8
0
100
AcDbLine
10
483.5984732210635
20
175.38973450660706
30
0
11
483.5984732210635
21
173.36476922035217
31
0
0
SPLINE
5
109
100
AcDbEntity
8
0
100
AcDbSpline
70
0
71
2
72
6
73
3
74
0
42
0.000000001
43
0.0000000001
44
0.0000000001
40
0
40
0
40
0
40
1
40
1
40
1
10
483.5984732210635
20
173.36476922035217
30
0
10
483.5984732210635
20
172.19972014427185
30
0
10
483.98682251572598
20
171.27045631408691
30
0
0
SPLINE
5
110
100
AcDbEntity
8
0
100
AcDbSpline
70
0
71
2
72
6
73
3
74
0
42
0.000000001
43
0.0000000001
44
0.0000000001
40
0
40
0
40
0
40
1
40
1
40
1
10
483.98682251572598
20
171.27045631408691
30
0
10
484.37517181038845
20
170.34119129180908
30
0
10
485.26282802224148
20
169.5922315120697
30
0
0
SPLINE
5
111
100
AcDbEntity
8
0
100
AcDbSpline
70
0
71
2
72
6
73
3
74
0
42
0.000000001
43
0.0000000001
44
0.0000000001
40
0
40
0
40
0
40
1
40
1
40
1
10
485.26282802224148
20
169.5922315120697
30
0
10
486.17822304367996
20
168.84327173233032
30
0
10
486.98266163468338
20
168.24687838554382
30
0
0
SPLINE
5
112
100
AcDbEntity
8
0
100
AcDbSpline
70
0
71
2
72
6
73
3
74
0
42
0.000000001
43
0.0000000001
44
0.0000000001
40
0
40
0
40
0
40
1
40
1
40
1
10
486.98266163468338
20
168.24687838554382
30
0
10
487.7871002256868
20
167.65048384666443
30
0
10
488.4251023828981
20
167.17891693115234
30
0
0
SPLINE
5
113
100
AcDbEntity
8
0
100
AcDbSpline
70
0
71
2
72
6
73
3
74
0
42
0.000000001
43
0.0000000001
44
0.0000000001
40
0
40
0
40
0
40
1
40
1
40
1
10
488.4251023828981
20
167.17891693115234
30
0
10
489.00762811303116
20
166.7628276348114
30
0
10
489.03536573052384
20
166.1664342880249
30
0
0
SPLINE
5
114
100
AcDbEntity
8
0
100
AcDbSpline
70
0
71
2
72
6
73
3
74
0
42
0.000000001
43
0.0000000001
44
0.0000000001
40
0
40
0
40
0
40
1
40
1
40
1
10
489.03536573052384
20
166.1664342880249
30
0
10
489.0631057322023
20
165.5700409412384
30
0
10
488.67475524544693
20
165.04299402236938
30
0
0
SPLINE
5
115
100
AcDbEntity
8
0
100
AcDbSpline
70
0
71
2
72
6
73
3
74
0
42
0.000000001
43
0.0000000001
44
0.0000000001
40
0
40
0
40
0
40
1
40
1
40
1
10
488.67475524544693
20
165.04299402236938
30
0
10
488.50832000374771
20
164.82108116149902
30
0
10
488.27253714203812
20
164.64077591896057
30
0
0
SPLINE
5
116
100
AcDbEntity
8
0
100
AcDbSpline
70
0
71
2
72
6
73
3
74
0
42
0.000000001
43
0.0000000001
44
0.0000000001
40
0
40
0
40
0
40
1
40
1
40
1
10
488.27253714203812
20
164.64077591896057
30
0
10
488.03675308823563
20
164.46047067642212
30
0
10
487.75936022400833
20
164.37725305557251
30
0
0
SPLINE
5
117
100
AcDbEntity
8
0
100
AcDbSpline
70
0
71
2
72
6
73
3
74
0
42
0.000000001
43
0.0000000001
44
0.0000000001
40
0
40
0
40
0
40
1
40
1
40
1
10
487.75936022400833
20
164.37725305557251
30
0
10
487.48196855187393
20
164.2940354347229
30
0
10
487.16296687722183
20
164.32177424430847
30
0
0
SPLINE
5
118
100
AcDbEntity
8
0
100
AcDbSpline
70
0
71
2
72
6
73
3
74
0
42
0.000000001
43
0.0000000001
44
0.0000000001
40
0
40
0
40
0
40
1
40
1
40
1
10
487.16296687722183
20
164.32177424430847
30
0
10
486.84396520256973
20
164.34951305389404
30
0
10
486.5110947191713
20
164.5714271068573
30
0
0
SPLINE
5
119
100
AcDbEntity
8
0
100
AcDbSpline
70
0
71
2
72
6
73
3
74
0
42
0.000000001
43
0.0000000001
44
0.0000000001
40
0
40
0
40
0
40
1
40
1
40
1
10
486.5110947191713
20
164.5714271068573
30
0
10
485.98404899239517
20
164.9320375919342
30
0
10
485.2766980230806
20
165.47295331954956
30
0
0
SPLINE
5
120
100
AcDbEntity
8
0
100
AcDbSpline
70
0
71
2
72
6
73
3
74
0
42
0.000000001
43
0.0000000001
44
0.0000000001
40
0
40
0
40
0
40
1
40
1
40
1
10
485.2766980230806
20
165.47295331954956
30
0
10
484.56934705376602
20
166.01386785507202
30
0
10
483.73716965317703
20
166.67961001396179
30
0
0
SPLINE
5
121
100
AcDbEntity
8
0
100
AcDbSpline
70
0
71
2
72
6
73
3
74
0
42
0.000000001
43
0.0000000001
44
0.0000000001
40
0
40
0
40
0
40
1
40
1
40
1
10
483.73716965317703
20
166.67961001396179
30
0
10
482.73855701088883
20
167.48404860496521
30
0
10
482.35020652413345
20
167.94174671173096
30
0
0
SPLINE
5
122
100
AcDbEntity
8
0
100
AcDbSpline
70
0
71
2
72
6
73
3
74
0
42
0.000000001
43
0.0000000001
44
0.0000000001
40
0
40
0
40
0
40
1
40
1
40
1
10
482.35020652413345
20
167.94174671173096
30
0
10
481.96185842156387
20
168.39944362640381
30
0
10
481.8509007990358
20
168.78779292106628
30
0
0
LINE
5
123
100
AcDbEntity
8
0
100
AcDbLine
10
481.8509007990358
20
168.78779292106628
30
0
11
481.82316079735733
21
168.78779292106628
31
0
0
SPLINE
5
124
100
AcDbEntity
8
0
100
AcDbSpline
70
0
71
2
72
6
73
3
74
0
42
0.000000001
43
0.0000000001
44
0.0000000001
40
0
40
0
40
0
40
1
40
1
40
1
10
481.82316079735733
20
168.78779292106628
30
0
10
481.71220436692215
20
168.3162260055542
30
0
10
481.28224626183487
20
167.80305027961731
30
0
0
SPLINE
5
125
100
AcDbEntity
8
0
100
AcDbSpline
70
0
71
2
72
6
73
3
74
0
42
0.000000001
43
0.0000000001
44
0.0000000001
40
0
40
0
40
0
40
1
40
1
40
1
10
481.28224626183487
20
167.80305027961731
30
0
10
480.85228815674759
20
167.28987336158752
30
0
10
479.85367551445938
20
166.485435962677
30
0
0
SPLINE
5
126
100
AcDbEntity
8
0
100
AcDbSpline
70
0
71
2
72
6
73
3
74
0
42
0.000000001
43
0.0000000001
44
0.0000000001
40
0
40
0
40
0
40
1
40
1
40
1
10
479.85367551445938
20
166.485435962677
30
0
10
478.24479833245255
20
165.2094304561615
30
0
10
476.63592234253861
20
164.07212138175964
30
0
0
SPLINE
5
127
100
AcDbEntity
8
0
100
AcDbSpline
70
0
71
2
72
6
73
3
74
0
42
0.000000001
43
0.0000000001
44
0.0000000001
40
0
40
0
40
0
40
1
40
1
40
1
10
476.63592234253861
20
164.07212138175964
30
0
10
476.02565899491287
20
163.62829327583313
30
0
10
475.41539564728714
20
163.86407613754272
30
0
0
SPLINE
5
128
100
AcDbEntity
8
0
100
AcDbSpline
70
0
71
2
72
6
73
3
74
0
42
0.000000001
43
0.0000000001
44
0.0000000001
40
0
40
0
40
0
40
1
40
1
40
1
10
475.41539564728714
20
163.86407613754272
30
0
10
474.80513229966141
20
164.09986019134524
30
0
10
474.5000000298021
20
164.57142710685733
30
0
0
SPLINE
5
129
100
AcDbEntity
8
0
100
AcDbSpline
70
0
71
2
72
6
73
3
74
0
42
0.000000001
43
0.0000000001
44
0.0000000001
40
0
40
0
40
0
40
1
40
1
40
1
10
474.5000000298021
20
164.57142710685733
30
0
10
474.13939014077164
20
165.07073402404788
30
0
10
474.13939014077164
20
165.70873618125918
30
0
0
SPLINE
5
130
100
AcDbEntity
8
0
100
AcDbSpline
70
0
71
2
72
6
73
3
74
0
42
0.000000001
43
0.0000000001
44
0.0000000001
40
0
40
0
40
0
40
1
40
1
40
1
10
474.13939014077164
20
165.70873618125918
30
0
10
474.13939014077164
20
166.34673953056338
30
0
10
474.77739229798294
20
166.7905676364899
30
0
0
SPLINE
5
131
100
AcDbEntity
8
0
100
AcDbSpline
70
0
71
2
72
6
73
3
74
0
42
0.000000001
43
0.0000000001
44
0.0000000001
40
0
40
0
40
0
40
1
40
1
40
1
10
474.77739229798294
20
166.7905676364899
30
0
10
475.72052732110001
20
167.45630979537964
30
0
10
476.56657412648178
20
168.09431195259094
30
0
0
SPLINE
5
132
100
AcDbEntity
8
0
100
AcDbSpline
70
0
71
2
72
6
73
3
74
0
42
0.000000001
43
0.0000000001
44
0.0000000001
40
0
40
0
40
0
40
1
40
1
40
1
10
476.56657412648178
20
168.09431195259094
30
0
10
477.41262093186356
20
168.73231530189514
30
0
10
478.32801654934872
20
169.48127508163452
30
0
0
SPLINE
5
133
100
AcDbEntity
8
0
100
AcDbSpline
70
0
71
2
72
6
73
3
74
0
42
0.000000001
43
0.0000000001
44
0.0000000001
40
0
40
0
40
0
40
1
40
1
40
1
10
494.86060872673966
20
165.32038688659665
30
0
10
494.86060872673966
20
164.5436882972717
30
0
10
494.3196918070314
20
164.1830778121948
30
0
0
SPLINE
5
134
100
AcDbEntity
8
0
100
AcDbSpline
70
0
71
2
72
6
73
3
74
0
42
0.000000001
43
0.0000000001
44
0.0000000001
40
0
40
0
40
0
40
1
40
1
40
1
10
494.3196918070314
20
164.1830778121948
30
0
10
493.77877727150894
20
163.82246732711789
30
0
10
493.0852963030336
20
163.82246732711789
30
0
0
SPLINE
5
135
100
AcDbEntity
8
0
100
AcDbSpline
70
0
71
2
72
6
73
3
74
0
42
0.000000001
43
0.0000000001
44
0.0000000001
40
0
40
0
40
0
40
1
40
1
40
1
10
493.0852963030336
20
163.82246732711789
30
0
10
492.39181533455826
20
163.82246732711789
30
0
10
491.85089841485001
20
164.1830778121948
30
0
0
SPLINE
5
136
100
AcDbEntity
8
0
100
AcDbSpline
70
0
71
2
72
6
73
3
74
0
42
0.000000001
43
0.0000000001
44
0.0000000001
40
0
40
0
40
0
40
1
40
1
40
1
10
491.85089841485001
20
164.1830778121948
30
0
10
491.30998387932755
20
164.5436882972717
30
0
10
491.30998387932755
20
165.32038688659665
30
0
0
LINE
5
137
100
AcDbEntity
8
0
100
AcDbLine
10
491.30998387932755
20
165.32038688659662
30
0
11
491.30998387932755
21
176.22191190719602
31
0
0
SPLINE
5
138
100
AcDbEntity
8
0
100
AcDbSpline
70
0
71
2
72
6
73
3
74
0
42
0.000000001
43
0.0000000001
44
0.0000000001
40
0
40
0
40
0
40
1
40
1
40
1
10
491.30998387932766
20
176.22191190719602
30
0
10
491.30998387932766
20
176.99861049652097
30
0
10
491.85089841485012
20
177.35922098159787
30
0
0
SPLINE
5
139
100
AcDbEntity
8
0
100
AcDbSpline
70
0
71
2
72
6
73
3
74
0
42
0.000000001
43
0.0000000001
44
0.0000000001
40
0
40
0
40
0
40
1
40
1
40
1
10
491.85089841485012
20
177.35922098159787
30
0
10
492.39181533455837
20
177.71983146667478
30
0
10
493.08529630303372
20
177.71983146667478
30
0
0
SPLINE
5
140
100
AcDbEntity
8
0
100
AcDbSpline
70
0
71
2
72
6
73
3
74
0
42
0.000000001
43
0.0000000001
44
0.0000000001
40
0
40
0
40
0
40
1
40
1
40
1
10
493.08529630303372
20
177.71983146667478
30
0
10
493.77877727150906
20
177.71983146667478
30
0
10
494.31969180703152
20
177.35922098159787
30
0
0
SPLINE
5
141
100
AcDbEntity
8
0
100
AcDbSpline
70
0
71
2
72
6
73
3
74
0
42
0.000000001
43
0.0000000001
44
0.0000000001
40
0
40
0
40
0
40
1
40
1
40
1
10
494.31969180703152
20
177.35922098159787
30
0
10
494.86060872673977
20
176.99861049652097
30
0
10
494.86060872673977
20
176.22191190719602
30
0
0
LINE
5
142
100
AcDbEntity
8
0
100
AcDbLine
10
494.86060872673977
20
176.22191190719604
30
0
11
494.86060872673966
21
165.32038688659665
31
0
0
SPLINE
5
143
100
AcDbEntity
8
0
100
AcDbSpline
70
0
71
2
72
6
73
3
74
0
42
0.000000001
43
0.0000000001
44
0.0000000001
40
0
40
0
40
0
40
1
40
1
40
1
10
494.86060872673966
20
154.30790424346921
30
0
10
494.86060872673966
20
153.00415992736814
30
0
10
494.34743180870987
20
152.50485420227048
30
0
0
SPLINE
5
144
100
AcDbEntity
8
0
100
AcDbSpline
70
0
71
2
72
6
73
3
74
0
42
0.000000001
43
0.0000000001
44
0.0000000001
40
0
40
0
40
0
40
1
40
1
40
1
10
494.34743180870987
20
152.50485420227048
30
0
10
493.83425489068009
20
152.00554609298703
30
0
10
492.50277295708634
20
152.00554609298703
30
0
0
LINE
5
145
100
AcDbEntity
8
0
100
AcDbLine
10
492.50277295708634
20
152.00554609298703
30
0
11
480.51941648125626
21
152.00554609298709
31
0
0
SPLINE
5
146
100
AcDbEntity
8
0
100
AcDbSpline
70
0
71
2
72
6
73
3
74
0
42
0.000000001
43
0.0000000001
44
0.0000000001
40
0
40
0
40
0
40
1
40
1
40
1
10
480.51941648125626
20
152.00554609298706
30
0
10
479.18793335556961
20
152.00554609298706
30
0
10
478.67475762963272
20
152.50485420227051
30
0
0
SPLINE
5
147
100
AcDbEntity
8
0
100
AcDbSpline
70
0
71
2
72
6
73
3
74
0
42
0.000000001
43
0.0000000001
44
0.0000000001
40
0
40
0
40
0
40
1
40
1
40
1
10
478.67475762963272
20
152.50485420227051
30
0
10
478.16158071160294
20
153.00415992736819
30
0
10
478.16158071160294
20
154.30790424346927
30
0
0
LINE
5
148
100
AcDbEntity
8
0
100
AcDbLine
10
478.16158071160294
20
154.30790424346927
30
0
11
478.16158071160294
21
161.35367393493652
31
0
0
SPLINE
5
149
100
AcDbEntity
8
0
100
AcDbSpline
70
0
71
2
72
6
73
3
74
0
42
0.000000001
43
0.0000000001
44
0.0000000001
40
0
40
0
40
0
40
1
40
1
40
1
10
478.16158071160294
20
161.35367393493652
30
0
10
478.16158071160294
20
162.07489490509033
30
0
10
478.70249643921829
20
162.43550539016724
30
0
0
SPLINE
5
150
100
AcDbEntity
8
0
100
AcDbSpline
70
0
71
2
72
6
73
3
74
0
42
0.000000001
43
0.0000000001
44
0.0000000001
40
0
40
0
40
0
40
1
40
1
40
1
10
478.70249643921829
20
162.43550539016724
30
0
10
479.24341216683365
20
162.79611587524414
30
0
10
479.88141432404495
20
162.79611587524414
30
0
0
SPLINE
5
151
100
AcDbEntity
8
0
100
AcDbSpline
70
0
71
2
72
6
73
3
74
0
42
0.000000001
43
0.0000000001
44
0.0000000001
40
0
40
0
40
0
40
1
40
1
40
1
10
479.88141432404495
20
162.79611587524414
30
0
10
480.54715648293472
20
162.79611587524414
30
0
10
481.08807101845719
20
162.43550539016724
30
0
0
SPLINE
5
152
100
AcDbEntity
8
0
100
AcDbSpline
70
0
71
2
72
6
73
3
74
0
42
0.000000001
43
0.0000000001
44
0.0000000001
40
0
40
0
40
0
40
1
40
1
40
1
10
481.08807101845719
20
162.43550539016724
30
0
10
481.62898674607254
20
162.07489490509033
30
0
10
481.62898674607254
20
161.35367393493652
30
0
0
LINE
5
153
100
AcDbEntity
8
0
100
AcDbLine
10
481.62898674607254
20
161.35367393493652
30
0
11
481.62898674607254
21
159.52288389205933
31
0
0
LINE
5
154
100
AcDbEntity
8
0
100
AcDbLine
10
481.62898674607254
20
159.52288389205933
30
0
11
491.39320150017716
21
159.5228838920593
31
0
0
LINE
5
155
100
AcDbEntity
8
0
100
AcDbLine
10
491.39320150017716
20
159.5228838920593
30
0
11
491.39320150017716
21
161.35367393493652
31
0
0
SPLINE
5
156
100
AcDbEntity
8
0
100
AcDbSpline
70
0
71
2
72
6
73
3
74
0
42
0.000000001
43
0.0000000001
44
0.0000000001
40
0
40
0
40
0
40
1
40
1
40
1
10
491.39320150017716
20
161.3536739349365
30
0
10
491.39320150017716
20
162.0748949050903
30
0
10
491.93411603569962
20
162.43550539016721
30
0
0
SPLINE
5
157
100
AcDbEntity
8
0
100
AcDbSpline
70
0
71
2
72
6
73
3
74
0
42
0.000000001
43
0.0000000001
44
0.0000000001
40
0
40
0
40
0
40
1
40
1
40
1
10
491.93411603569962
20
162.43550539016721
30
0
10
492.47503295540787
20
162.79611587524411
30
0
10
493.11303392052628
20
162.79611587524411
30
0
0
SPLINE
5
158
100
AcDbEntity
8
0
100
AcDbSpline
70
0
71
2
72
6
73
3
74
0
42
0.000000001
43
0.0000000001
44
0.0000000001
40
0
40
0
40
0
40
1
40
1
40
1
10
493.11303392052628
20
162.79611587524411
30
0
10
493.77877727150894
20
162.79611587524411
30
0
10
494.3196918070314
20
162.43550539016721
30
0
0
SPLINE
5
159
100
AcDbEntity
8
0
100
AcDbSpline
70
0
71
2
72
6
73
3
74
0
42
0.000000001
43
0.0000000001
44
0.0000000001
40
0
40
0
40
0
40
1
40
1
40
1
10
494.3196918070314
20
162.43550539016721
30
0
10
494.86060872673966
20
162.0748949050903
30
0
10
494.86060872673966
20
161.3536739349365
30
0
0
LINE
5
160
100
AcDbEntity
8
0
100
AcDbLine
10
494.86060872673966
20
161.3536739349365
30
0
11
494.86060872673966
21
154.30790424346921
31
0
0
SPLINE
5
161
100
AcDbEntity
8
0
100
AcDbSpline
70
0
71
2
72
6
73
3
74
0
42
0.000000001
43
0.0000000001
44
0.0000000001
40
0
40
0
40
0
40
1
40
1
40
1
10
490.75519815087296
20
154.8626899719238
30
0
10
491.39320150017716
20
154.8626899719238
30
0
10
491.39320150017716
20
155.500693321228
30
0
0
LINE
5
162
100
AcDbEntity
8
0
100
AcDbLine
10
491.39320150017716
20
155.500693321228
30
0
11
491.39320150017716
21
156.72122001647946
31
0
0
LINE
5
163
100
AcDbEntity
8
0
100
AcDbLine
10
491.39320150017716
20
156.72122001647946
30
0
11
481.62898674607254
21
156.72122001647949
31
0
0
LINE
5
164
100
AcDbEntity
8
0
100
AcDbLine
10
481.62898674607254
20
156.72122001647949
30
0
11
481.62898674607254
21
155.50069332122803
31
0
0
SPLINE
5
165
100
AcDbEntity
8
0
100
AcDbSpline
70
0
71
2
72
6
73
3
74
0
42
0.000000001
43
0.0000000001
44
0.0000000001
40
0
40
0
40
0
40
1
40
1
40
1
10
481.62898674607254
20
155.50069332122803
30
0
10
481.62898674607254
20
154.86268997192383
30
0
10
482.26698890328385
20
154.86268997192383
30
0
0
LINE
5
166
100
AcDbEntity
8
0
100
AcDbLine
10
482.26698890328385
20
154.86268997192383
30
0
11
490.75519815087296
21
154.8626899719238
31
0
0
ENDSEC
0
SECTION
2
OBJECTS
0
DICTIONARY
5
C
100
AcDbDictionary
3
ACAD_GROUP
350
D
3
ACAD_MLINESTYLE
350
17
0
DICTIONARY
5
D
100
AcDbDictionary
0
DICTIONARY
5
1A
330
C
100
AcDbDictionary
0
DICTIONARY
5
17
100
AcDbDictionary
0
ENDSEC
0
EOF
