0
SECTION
2
HEADER
9
$INSUNITS
70
4
9
$ACADVER
1
AC1014
9
$HANDSEED
5
FFFF
0
ENDSEC
0
SECTION
2
TABLES
0
TABLE
2
VPORT
5
8
100
AcDbSymbolTable
0
ENDTAB
0
TABLE
2
LTYPE
5
5
100
AcDbSymbolTable
0
LTYPE
5
14
100
AcDbSymbolTableRecord
100
AcDbLinetypeTableRecord
2
BYBLOCK
70
0
0
LTYPE
5
15
100
AcDbSymbolTableRecord
100
AcDbLinetypeTableRecord
2
BYLAYER
70
0
0
ENDTAB
0
TABLE
2
LAYER
5
2
100
AcDbSymbolTable
70
2
0
LAYER
5
50
100
AcDbSymbolTableRecord
100
AcDbLayerTableRecord
2
0
70
0
6
CONTINUOUS
0
ENDTAB
0
TABLE
2
STYLE
5
3
100
AcDbSymbolTable
70
1
0
STYLE
5
11
100
AcDbSymbolTableRecord
100
AcDbTextStyleTableRecord
2
STANDARD
70
0
0
ENDTAB
0
TABLE
2
VIEW
5
6
100
AcDbSymbolTable
70
0
0
ENDTAB
0
TABLE
2
UCS
5
7
100
AcDbSymbolTable
70
0
0
ENDTAB
0
TABLE
2
APPID
5
9
100
AcDbSymbolTable
70
2
0
APPID
5
12
100
AcDbSymbolTableRecord
100
AcDbRegAppTableRecord
2
ACAD
70
0
0
ENDTAB
0
TABLE
2
DIMSTYLE
5
A
100
AcDbSymbolTable
70
1
0
ENDTAB
0
TABLE
2
BLOCK_RECORD
5
1
100
AcDbSymbolTable
70
1
0
BLOCK_RECORD
5
1F
100
AcDbSymbolTableRecord
100
AcDbBlockTableRecord
2
*MODEL_SPACE
0
BLOCK_RECORD
5
1B
100
AcDbSymbolTableRecord
100
AcDbBlockTableRecord
2
*PAPER_SPACE
0
ENDTAB
0
ENDSEC
0
SECTION
2
BLOCKS
0
BLOCK
5
20
100
AcDbEntity
100
AcDbBlockBegin
2
*MODEL_SPACE
0
ENDBLK
5
21
100
AcDbEntity
100
AcDbBlockEnd
0
BLOCK
5
1C
100
AcDbEntity
100
AcDbBlockBegin
2
*PAPER_SPACE
0
ENDBLK
5
1D
100
AcDbEntity
100
AcDbBlockEnd
0
ENDSEC
0
SECTION
2
ENTITIES
0
LWPOLYLINE
5
100
100
AcDbEntity
8
0
100
AcDbPolyline
90
12
70
1
43
0.0
10
313
20
-158
42
-0.41421356237309681
10
310
20
-155.00000000000003
10
310
20
-133.00000000000003
42
-0.41421356237310336
10
315
20
-128.00000000000003
10
335
20
-128.00000000000003
42
-0.41421356237310336
10
340
20
-133.00000000000003
10
340
20
-155.00000000000003
42
-0.41421356237309681
10
337
20
-158.00000000000003
10
335
20
-158.00000000000003
10
335
20
-171.0000000000235
10
314.99999999983811
20
-171.00000000003465
10
314.99999999998846
20
-158.00000000003467
0
SPLINE
5
101
100
AcDbEntity
8
0
100
AcDbSpline
70
0
71
2
72
6
73
3
74
0
42
0.000000001
43
0.0000000001
44
0.0000000001
40
0
40
0
40
0
40
1
40
1
40
1
10
313.16920995712496
20
-141.12760114668876
30
0
10
313.16920995712553
20
-136.99445295332939
30
0
10
314.83356475830379
20
-134.858530044547
30
0
0
SPLINE
5
102
100
AcDbEntity
8
0
100
AcDbSpline
70
0
71
2
72
6
73
3
74
0
42
0.000000001
43
0.0000000001
44
0.0000000001
40
0
40
0
40
0
40
1
40
1
40
1
10
314.83356475830379
20
-134.858530044547
30
0
10
316.4979201555285
20
-132.7226071357646
30
0
10
319.82662975788446
20
-132.72260713576577
30
0
0
SPLINE
5
103
100
AcDbEntity
8
0
100
AcDbSpline
70
0
71
2
72
6
73
3
74
0
42
0.000000001
43
0.0000000001
44
0.0000000001
40
0
40
0
40
0
40
1
40
1
40
1
10
319.82662975788446
20
-132.72260713576577
30
0
10
323.15533936024048
20
-132.72260713576691
30
0
10
324.81969416141806
20
-134.85853004455046
30
0
0
SPLINE
5
104
100
AcDbEntity
8
0
100
AcDbSpline
70
0
71
2
72
6
73
3
74
0
42
0.000000001
43
0.0000000001
44
0.0000000001
40
0
40
0
40
0
40
1
40
1
40
1
10
324.81969416141806
20
-134.85853004455046
30
0
10
326.48404896259581
20
-136.99445295333399
30
0
10
326.48404896259524
20
-141.12760114669337
30
0
0
SPLINE
5
105
100
AcDbEntity
8
0
100
AcDbSpline
70
0
71
2
72
6
73
3
74
0
42
0.000000001
43
0.0000000001
44
0.0000000001
40
0
40
0
40
0
40
1
40
1
40
1
10
326.48404896259524
20
-141.12760114669337
30
0
10
326.48404896259467
20
-145.26074934005274
30
0
10
324.81969416141635
20
-147.39667224883513
30
0
0
SPLINE
5
106
100
AcDbEntity
8
0
100
AcDbSpline
70
0
71
2
72
6
73
3
74
0
42
0.000000001
43
0.0000000001
44
0.0000000001
40
0
40
0
40
0
40
1
40
1
40
1
10
324.81969416141635
20
-147.39667224883513
30
0
10
323.15533936023814
20
-149.5325927734317
30
0
10
319.82662975788213
20
-149.53259277343057
30
0
0
SPLINE
5
107
100
AcDbEntity
8
0
100
AcDbSpline
70
0
71
2
72
6
73
3
74
0
42
0.000000001
43
0.0000000001
44
0.0000000001
40
0
40
0
40
0
40
1
40
1
40
1
10
319.82662975788213
20
-149.53259277343057
30
0
10
316.49792015552617
20
-149.5325927734294
30
0
10
314.83356475830203
20
-147.39667224883166
30
0
0
SPLINE
5
108
100
AcDbEntity
8
0
100
AcDbSpline
70
0
71
2
72
6
73
3
74
0
42
0.000000001
43
0.0000000001
44
0.0000000001
40
0
40
0
40
0
40
1
40
1
40
1
10
314.83356475830203
20
-147.39667224883166
30
0
10
313.16920995712439
20
-145.26074934004814
30
0
10
313.16920995712496
20
-141.12760114668876
30
0
0
SPLINE
5
109
100
AcDbEntity
8
0
100
AcDbSpline
70
0
71
2
72
6
73
3
74
0
42
0.000000001
43
0.0000000001
44
0.0000000001
40
0
40
0
40
0
40
1
40
1
40
1
10
323.07212173938967
20
-141.1276011466922
30
0
10
323.07212173939001
20
-138.49237251281158
30
0
10
322.35090076923643
20
-137.14701938628542
30
0
0
SPLINE
5
110
100
AcDbEntity
8
0
100
AcDbSpline
70
0
71
2
72
6
73
3
74
0
42
0.000000001
43
0.0000000001
44
0.0000000001
40
0
40
0
40
0
40
1
40
1
40
1
10
322.35090076923643
20
-137.14701938628542
30
0
10
321.62968099117569
20
-135.80166625975932
30
0
10
319.82662975788406
20
-135.80166625975869
30
0
0
SPLINE
5
111
100
AcDbEntity
8
0
100
AcDbSpline
70
0
71
2
72
6
73
3
74
0
42
0.000000001
43
0.0000000001
44
0.0000000001
40
0
40
0
40
0
40
1
40
1
40
1
10
319.82662975788406
20
-135.80166625975869
30
0
10
318.02357852459244
20
-135.80166625975806
30
0
10
317.30235815048491
20
-137.14701938628369
30
0
0
SPLINE
5
112
100
AcDbEntity
8
0
100
AcDbSpline
70
0
71
2
72
6
73
3
74
0
42
0.000000001
43
0.0000000001
44
0.0000000001
40
0
40
0
40
0
40
1
40
1
40
1
10
317.30235815048491
20
-137.14701938628369
30
0
10
316.58113777637732
20
-138.49237251280931
30
0
10
316.58113777637698
20
-141.12760114668993
30
0
0
SPLINE
5
113
100
AcDbEntity
8
0
100
AcDbSpline
70
0
71
2
72
6
73
3
74
0
42
0.000000001
43
0.0000000001
44
0.0000000001
40
0
40
0
40
0
40
1
40
1
40
1
10
316.58113777637698
20
-141.12760114668993
30
0
10
316.58113777637658
20
-143.76282978057054
30
0
10
317.30235815048377
20
-145.10818290709668
30
0
0
SPLINE
5
114
100
AcDbEntity
8
0
100
AcDbSpline
70
0
71
2
72
6
73
3
74
0
42
0.000000001
43
0.0000000001
44
0.0000000001
40
0
40
0
40
0
40
1
40
1
40
1
10
317.30235815048377
20
-145.10818290709668
30
0
10
318.0235785245909
20
-146.45353603362281
30
0
10
319.82662975788253
20
-146.45353603362344
30
0
0
SPLINE
5
115
100
AcDbEntity
8
0
100
AcDbSpline
70
0
71
2
72
6
73
3
74
0
42
0.000000001
43
0.0000000001
44
0.0000000001
40
0
40
0
40
0
40
1
40
1
40
1
10
319.82662975788253
20
-146.45353603362344
30
0
10
321.62968099117421
20
-146.45353603362406
30
0
10
322.3509007692353
20
-145.10818290709841
30
0
0
SPLINE
5
116
100
AcDbEntity
8
0
100
AcDbSpline
70
0
71
2
72
6
73
3
74
0
42
0.000000001
43
0.0000000001
44
0.0000000001
40
0
40
0
40
0
40
1
40
1
40
1
10
322.3509007692353
20
-145.10818290709841
30
0
10
323.07212173938927
20
-143.76282978057282
30
0
10
323.07212173938967
20
-141.1276011466922
30
0
0
SPLINE
5
117
100
AcDbEntity
8
0
100
AcDbSpline
70
0
71
2
72
6
73
3
74
0
42
0.000000001
43
0.0000000001
44
0.0000000001
40
0
40
0
40
0
40
1
40
1
40
1
10
335.55478394031758
20
-139.46324634551854
30
0
10
336.22052729130024
20
-139.46324634551877
30
0
10
336.52565777302021
20
-139.9070744514454
30
0
0
SPLINE
5
118
100
AcDbEntity
8
0
100
AcDbSpline
70
0
71
2
72
6
73
3
74
0
42
0.000000001
43
0.0000000001
44
0.0000000001
40
0
40
0
40
0
40
1
40
1
40
1
10
336.52565777302021
20
-139.9070744514454
30
0
10
336.83079063892592
20
-140.350902557372
30
0
10
336.83079063892581
20
-140.98890590667619
30
0
0
SPLINE
5
119
100
AcDbEntity
8
0
100
AcDbSpline
70
0
71
2
72
6
73
3
74
0
42
0.000000001
43
0.0000000001
44
0.0000000001
40
0
40
0
40
0
40
1
40
1
40
1
10
336.83079063892581
20
-140.98890590667619
30
0
10
336.83079063892569
20
-141.6269068717946
30
0
10
336.52565777301987
20
-142.08460617065316
30
0
0
SPLINE
5
120
100
AcDbEntity
8
0
100
AcDbSpline
70
0
71
2
72
6
73
3
74
0
42
0.000000001
43
0.0000000001
44
0.0000000001
40
0
40
0
40
0
40
1
40
1
40
1
10
336.52565777301987
20
-142.08460617065316
30
0
10
336.22052729129985
20
-142.5423030853259
30
0
10
335.55478394031718
20
-142.54230308532567
30
0
0
LINE
5
121
100
AcDbEntity
8
0
100
AcDbLine
10
335.55478394031718
20
-142.54230308532567
30
0
11
332.94729530811503
21
-142.54230308532476
31
0
0
LINE
5
122
100
AcDbEntity
8
0
100
AcDbLine
10
332.94729530811503
20
-142.54230308532476
30
0
11
332.94729530811338
21
-154.02635145187139
31
0
0
SPLINE
5
123
100
AcDbEntity
8
0
100
AcDbSpline
70
0
71
2
72
6
73
3
74
0
42
0.000000001
43
0.0000000001
44
0.0000000001
40
0
40
0
40
0
40
1
40
1
40
1
10
332.94729530811344
20
-154.02635145187139
30
0
10
332.94729530811333
20
-154.80305004119634
30
0
10
332.40637838840507
20
-155.16366052627308
30
0
0
SPLINE
5
124
100
AcDbEntity
8
0
100
AcDbSpline
70
0
71
2
72
6
73
3
74
0
42
0.000000001
43
0.0000000001
44
0.0000000001
40
0
40
0
40
0
40
1
40
1
40
1
10
332.40637838840507
20
-155.16366052627308
30
0
10
331.8654638528825
20
-155.52427101134978
30
0
10
331.17198288440716
20
-155.52427101134953
30
0
0
SPLINE
5
125
100
AcDbEntity
8
0
100
AcDbSpline
70
0
71
2
72
6
73
3
74
0
42
0.000000001
43
0.0000000001
44
0.0000000001
40
0
40
0
40
0
40
1
40
1
40
1
10
331.17198288440716
20
-155.52427101134953
30
0
10
330.47850191593182
20
-155.5242710113493
30
0
10
329.93758738040947
20
-155.1636605262722
30
0
0
SPLINE
5
126
100
AcDbEntity
8
0
100
AcDbSpline
70
0
71
2
72
6
73
3
74
0
42
0.000000001
43
0.0000000001
44
0.0000000001
40
0
40
0
40
0
40
1
40
1
40
1
10
329.93758738040947
20
-155.1636605262722
30
0
10
329.39667046070122
20
-154.80305004119512
30
0
10
329.39667046070133
20
-154.02635145187017
30
0
0
LINE
5
127
100
AcDbEntity
8
0
100
AcDbLine
10
329.39667046070133
20
-154.02635145187017
30
0
11
329.39667046070434
21
-132.77808713912603
31
0
0
SPLINE
5
128
100
AcDbEntity
8
0
100
AcDbSpline
70
0
71
2
72
6
73
3
74
0
42
0.000000001
43
0.0000000001
44
0.0000000001
40
0
40
0
40
0
40
1
40
1
40
1
10
329.39667046070434
20
-132.77808713912603
30
0
10
329.3966704607044
20
-132.00138616561529
30
0
10
329.93758738041271
20
-131.64077806472434
30
0
0
SPLINE
5
129
100
AcDbEntity
8
0
100
AcDbSpline
70
0
71
2
72
6
73
3
74
0
42
0.000000001
43
0.0000000001
44
0.0000000001
40
0
40
0
40
0
40
1
40
1
40
1
10
329.93758738041271
20
-131.64077806472434
30
0
10
330.47850191593523
20
-131.28016757964764
30
0
10
331.17198288441057
20
-131.28016757964789
30
0
0
SPLINE
5
130
100
AcDbEntity
8
0
100
AcDbSpline
70
0
71
2
72
6
73
3
74
0
42
0.000000001
43
0.0000000001
44
0.0000000001
40
0
40
0
40
0
40
1
40
1
40
1
10
331.17198288441057
20
-131.28016757964789
30
0
10
331.86546385288591
20
-131.28016757964812
30
0
10
332.40637838840831
20
-131.64077806472523
30
0
0
SPLINE
5
131
100
AcDbEntity
8
0
100
AcDbSpline
70
0
71
2
72
6
73
3
74
0
42
0.000000001
43
0.0000000001
44
0.0000000001
40
0
40
0
40
0
40
1
40
1
40
1
10
332.40637838840831
20
-131.64077806472523
30
0
10
332.94729530811651
20
-132.00138616561651
30
0
10
332.94729530811645
20
-132.77808713912725
30
0
0
LINE
5
132
100
AcDbEntity
8
0
100
AcDbLine
10
332.94729530811645
20
-132.77808713912725
30
0
11
332.94729530811549
21
-139.46324634551763
31
0
0
LINE
5
133
100
AcDbEntity
8
0
100
AcDbLine
10
332.94729530811549
20
-139.46324634551763
30
0
11
335.55478394031758
21
-139.46324634551854
31
0
0
ENDSEC
0
SECTION
2
OBJECTS
0
DICTIONARY
5
C
100
AcDbDictionary
3
ACAD_GROUP
350
D
3
ACAD_MLINESTYLE
350
17
0
DICTIONARY
5
D
100
AcDbDictionary
0
DICTIONARY
5
1A
330
C
100
AcDbDictionary
0
DICTIONARY
5
17
100
AcDbDictionary
0
ENDSEC
0
EOF
