0
SECTION
2
HEADER
9
$INSUNITS
70
4
9
$ACADVER
1
AC1014
9
$HANDSEED
5
FFFF
0
ENDSEC
0
SECTION
2
TABLES
0
TABLE
2
VPORT
5
8
100
AcDbSymbolTable
0
ENDTAB
0
TABLE
2
LTYPE
5
5
100
AcDbSymbolTable
0
LTYPE
5
14
100
AcDbSymbolTableRecord
100
AcDbLinetypeTableRecord
2
BYBLOCK
70
0
0
LTYPE
5
15
100
AcDbSymbolTableRecord
100
AcDbLinetypeTableRecord
2
BYLAYER
70
0
0
ENDTAB
0
TABLE
2
LAYER
5
2
100
AcDbSymbolTable
70
2
0
LAYER
5
50
100
AcDbSymbolTableRecord
100
AcDbLayerTableRecord
2
0
70
0
6
CONTINUOUS
0
ENDTAB
0
TABLE
2
STYLE
5
3
100
AcDbSymbolTable
70
1
0
STYLE
5
11
100
AcDbSymbolTableRecord
100
AcDbTextStyleTableRecord
2
STANDARD
70
0
0
ENDTAB
0
TABLE
2
VIEW
5
6
100
AcDbSymbolTable
70
0
0
ENDTAB
0
TABLE
2
UCS
5
7
100
AcDbSymbolTable
70
0
0
ENDTAB
0
TABLE
2
APPID
5
9
100
AcDbSymbolTable
70
2
0
APPID
5
12
100
AcDbSymbolTableRecord
100
AcDbRegAppTableRecord
2
ACAD
70
0
0
ENDTAB
0
TABLE
2
DIMSTYLE
5
A
100
AcDbSymbolTable
70
1
0
ENDTAB
0
TABLE
2
BLOCK_RECORD
5
1
100
AcDbSymbolTable
70
1
0
BLOCK_RECORD
5
1F
100
AcDbSymbolTableRecord
100
AcDbBlockTableRecord
2
*MODEL_SPACE
0
BLOCK_RECORD
5
1B
100
AcDbSymbolTableRecord
100
AcDbBlockTableRecord
2
*PAPER_SPACE
0
ENDTAB
0
ENDSEC
0
SECTION
2
BLOCKS
0
BLOCK
5
20
100
AcDbEntity
100
AcDbBlockBegin
2
*MODEL_SPACE
0
ENDBLK
5
21
100
AcDbEntity
100
AcDbBlockEnd
0
BLOCK
5
1C
100
AcDbEntity
100
AcDbBlockBegin
2
*PAPER_SPACE
0
ENDBLK
5
1D
100
AcDbEntity
100
AcDbBlockEnd
0
ENDSEC
0
SECTION
2
ENTITIES
0
LWPOLYLINE
5
100
100
AcDbEntity
8
0
100
AcDbPolyline
90
12
70
1
43
0.0
10
313
20
-70
42
-0.41421356237309681
10
310
20
-67.000000000000014
10
310
20
-45.000000000000014
42
-0.41421356237310336
10
315
20
-40.000000000000014
10
335
20
-40.000000000000014
42
-0.41421356237310336
10
340
20
-45.000000000000014
10
340
20
-67.000000000000014
42
-0.41421356237309681
10
337
20
-70.000000000000014
10
335
20
-70.000000000000014
10
335
20
-83.000000000023448
10
314.9999999998962
20
-83.000000000027185
10
314.99999999999778
20
-70.000000000027171
0
SPLINE
5
101
100
AcDbEntity
8
0
100
AcDbSpline
70
0
71
2
72
6
73
3
74
0
42
0.000000001
43
0.0000000001
44
0.0000000001
40
0
40
0
40
0
40
1
40
1
40
1
10
314.62552055716532
20
-53.127601146693536
30
0
10
314.62552055716543
20
-48.994452953334161
30
0
10
316.24826714396511
20
-46.8585300445515
30
0
0
SPLINE
5
102
100
AcDbEntity
8
0
100
AcDbSpline
70
0
71
2
72
6
73
3
74
0
42
0.000000001
43
0.0000000001
44
0.0000000001
40
0
40
0
40
0
40
1
40
1
40
1
10
316.24826714396511
20
-46.8585300445515
30
0
10
317.87101313471828
20
-44.722607135768833
30
0
10
321.1442439258102
20
-44.722607135769408
30
0
0
SPLINE
5
103
100
AcDbEntity
8
0
100
AcDbSpline
70
0
71
2
72
6
73
3
74
0
42
0.000000001
43
0.0000000001
44
0.0000000001
40
0
40
0
40
0
40
1
40
1
40
1
10
321.1442439258102
20
-44.722607135769408
30
0
10
324.41747590899502
20
-44.722607135769991
30
0
10
326.04022189974819
20
-46.858530044553241
30
0
0
SPLINE
5
104
100
AcDbEntity
8
0
100
AcDbSpline
70
0
71
2
72
6
73
3
74
0
42
0.000000001
43
0.0000000001
44
0.0000000001
40
0
40
0
40
0
40
1
40
1
40
1
10
326.04022189974819
20
-46.858530044553241
30
0
10
327.66296789050131
20
-48.994452953336484
30
0
10
327.66296789050114
20
-53.127601146695859
30
0
0
SPLINE
5
105
100
AcDbEntity
8
0
100
AcDbSpline
70
0
71
2
72
6
73
3
74
0
42
0.000000001
43
0.0000000001
44
0.0000000001
40
0
40
0
40
0
40
1
40
1
40
1
10
327.66296789050114
20
-53.127601146695859
30
0
10
327.66296789050108
20
-57.260749340055241
30
0
10
326.04022189974785
20
-59.396672248837909
30
0
0
SPLINE
5
106
100
AcDbEntity
8
0
100
AcDbSpline
70
0
71
2
72
6
73
3
74
0
42
0.000000001
43
0.0000000001
44
0.0000000001
40
0
40
0
40
0
40
1
40
1
40
1
10
326.04022189974785
20
-59.396672248837909
30
0
10
324.41747590899467
20
-61.532592773434786
30
0
10
321.14424392580986
20
-61.532592773434203
30
0
0
SPLINE
5
107
100
AcDbEntity
8
0
100
AcDbSpline
70
0
71
2
72
6
73
3
74
0
42
0.000000001
43
0.0000000001
44
0.0000000001
40
0
40
0
40
0
40
1
40
1
40
1
10
321.14424392580986
20
-61.532592773434203
30
0
10
317.87101313471788
20
-61.532592773433628
30
0
10
316.24826714396482
20
-59.396672248836168
30
0
0
SPLINE
5
108
100
AcDbEntity
8
0
100
AcDbSpline
70
0
71
2
72
6
73
3
74
0
42
0.000000001
43
0.0000000001
44
0.0000000001
40
0
40
0
40
0
40
1
40
1
40
1
10
316.24826714396482
20
-59.396672248836168
30
0
10
314.6255205571652
20
-57.260749340052911
30
0
10
314.62552055716532
20
-53.127601146693536
30
0
0
SPLINE
5
109
100
AcDbEntity
8
0
100
AcDbSpline
70
0
71
2
72
6
73
3
74
0
42
0.000000001
43
0.0000000001
44
0.0000000001
40
0
40
0
40
0
40
1
40
1
40
1
10
324.25104066729557
20
-53.127601146695255
30
0
10
324.25104066729568
20
-50.49237251281464
30
0
10
323.57142850756674
20
-49.147019386288648
30
0
0
SPLINE
5
110
100
AcDbEntity
8
0
100
AcDbSpline
70
0
71
2
72
6
73
3
74
0
42
0.000000001
43
0.0000000001
44
0.0000000001
40
0
40
0
40
0
40
1
40
1
40
1
10
323.57142850756674
20
-49.147019386288648
30
0
10
322.89181634783773
20
-47.801666259762641
30
0
10
321.14424392581014
20
-47.801666259762328
30
0
0
SPLINE
5
111
100
AcDbEntity
8
0
100
AcDbSpline
70
0
71
2
72
6
73
3
74
0
42
0.000000001
43
0.0000000001
44
0.0000000001
40
0
40
0
40
0
40
1
40
1
40
1
10
321.14424392581014
20
-47.801666259762328
30
0
10
319.39667150378256
20
-47.801666259762015
30
0
10
318.71705934405355
20
-49.147019386287774
30
0
0
SPLINE
5
112
100
AcDbEntity
8
0
100
AcDbSpline
70
0
71
2
72
6
73
3
74
0
42
0.000000001
43
0.0000000001
44
0.0000000001
40
0
40
0
40
0
40
1
40
1
40
1
10
318.71705934405355
20
-49.147019386287774
30
0
10
318.03744837641739
20
-50.492372512813539
30
0
10
318.03744837641733
20
-53.127601146694154
30
0
0
SPLINE
5
113
100
AcDbEntity
8
0
100
AcDbSpline
70
0
71
2
72
6
73
3
74
0
42
0.000000001
43
0.0000000001
44
0.0000000001
40
0
40
0
40
0
40
1
40
1
40
1
10
318.03744837641733
20
-53.127601146694154
30
0
10
318.03744837641727
20
-55.762829780574769
30
0
10
318.71705934405333
20
-57.108182907100762
30
0
0
SPLINE
5
114
100
AcDbEntity
8
0
100
AcDbSpline
70
0
71
2
72
6
73
3
74
0
42
0.000000001
43
0.0000000001
44
0.0000000001
40
0
40
0
40
0
40
1
40
1
40
1
10
318.71705934405333
20
-57.108182907100762
30
0
10
319.39667150378233
20
-58.453536033626762
30
0
10
321.14424392580992
20
-58.453536033627074
30
0
0
SPLINE
5
115
100
AcDbEntity
8
0
100
AcDbSpline
70
0
71
2
72
6
73
3
74
0
42
0.000000001
43
0.0000000001
44
0.0000000001
40
0
40
0
40
0
40
1
40
1
40
1
10
321.14424392580992
20
-58.453536033627074
30
0
10
322.8918163478375
20
-58.453536033627387
30
0
10
323.57142850756651
20
-57.108182907101636
30
0
0
SPLINE
5
116
100
AcDbEntity
8
0
100
AcDbSpline
70
0
71
2
72
6
73
3
74
0
42
0.000000001
43
0.0000000001
44
0.0000000001
40
0
40
0
40
0
40
1
40
1
40
1
10
323.57142850756651
20
-57.108182907101636
30
0
10
324.25104066729557
20
-55.762829780575871
30
0
10
324.25104066729557
20
-53.127601146695255
30
0
0
SPLINE
5
117
100
AcDbEntity
8
0
100
AcDbSpline
70
0
71
2
72
6
73
3
74
0
42
0.000000001
43
0.0000000001
44
0.0000000001
40
0
40
0
40
0
40
1
40
1
40
1
10
335.37447854876507
20
-66.026351451873012
30
0
10
335.37447854876507
20
-66.803050041197963
30
0
10
334.83356401324261
20
-67.163660526274768
30
0
0
SPLINE
5
118
100
AcDbEntity
8
0
100
AcDbSpline
70
0
71
2
72
6
73
3
74
0
42
0.000000001
43
0.0000000001
44
0.0000000001
40
0
40
0
40
0
40
1
40
1
40
1
10
334.83356401324261
20
-67.163660526274768
30
0
10
334.29264947772015
20
-67.524271011351573
30
0
10
333.62690612673748
20
-67.524271011351459
30
0
0
SPLINE
5
119
100
AcDbEntity
8
0
100
AcDbSpline
70
0
71
2
72
6
73
3
74
0
42
0.000000001
43
0.0000000001
44
0.0000000001
40
0
40
0
40
0
40
1
40
1
40
1
10
333.62690612673748
20
-67.524271011351459
30
0
10
332.96116515994061
20
-67.524271011351345
30
0
10
332.42024824023235
20
-67.163660526274342
30
0
0
SPLINE
5
120
100
AcDbEntity
8
0
100
AcDbSpline
70
0
71
2
72
6
73
3
74
0
42
0.000000001
43
0.0000000001
44
0.0000000001
40
0
40
0
40
0
40
1
40
1
40
1
10
332.42024824023235
20
-67.163660526274342
30
0
10
331.87933370470989
20
-66.803050041197338
30
0
10
331.87933370470989
20
-66.026351451872387
30
0
0
LINE
5
121
100
AcDbEntity
8
0
100
AcDbLine
10
331.87933370470989
20
-66.026351451872387
30
0
11
331.87933370471006
21
-57.676837444304034
31
0
0
LINE
5
122
100
AcDbEntity
8
0
100
AcDbLine
10
331.87933370471006
20
-57.676837444304034
30
0
11
329.43828031420713
21
-57.676837444303601
31
0
0
SPLINE
5
123
100
AcDbEntity
8
0
100
AcDbSpline
70
0
71
2
72
6
73
3
74
0
42
0.000000001
43
0.0000000001
44
0.0000000001
40
0
40
0
40
0
40
1
40
1
40
1
10
329.43828031420713
20
-57.676837444303601
30
0
10
328.80027696490293
20
-57.676837444303487
30
0
10
328.5090152919293
20
-57.233009338376917
30
0
0
SPLINE
5
124
100
AcDbEntity
8
0
100
AcDbSpline
70
0
71
2
72
6
73
3
74
0
42
0.000000001
43
0.0000000001
44
0.0000000001
40
0
40
0
40
0
40
1
40
1
40
1
10
328.5090152919293
20
-57.233009338376917
30
0
10
328.21775361895567
20
-56.789181232450346
30
0
10
328.21775361895567
20
-56.151180267331938
30
0
0
SPLINE
5
125
100
AcDbEntity
8
0
100
AcDbSpline
70
0
71
2
72
6
73
3
74
0
42
0.000000001
43
0.0000000001
44
0.0000000001
40
0
40
0
40
0
40
1
40
1
40
1
10
328.21775361895567
20
-56.151180267331938
30
0
10
328.21775361895573
20
-55.540916919706206
30
0
10
328.50901529192936
20
-55.097088813779749
30
0
0
SPLINE
5
126
100
AcDbEntity
8
0
100
AcDbSpline
70
0
71
2
72
6
73
3
74
0
42
0.000000001
43
0.0000000001
44
0.0000000001
40
0
40
0
40
0
40
1
40
1
40
1
10
328.50901529192936
20
-55.097088813779749
30
0
10
328.80027696490299
20
-54.653260707853292
30
0
10
329.43828031420719
20
-54.653260707853406
30
0
0
LINE
5
127
100
AcDbEntity
8
0
100
AcDbLine
10
329.43828031420719
20
-54.653260707853406
30
0
11
331.87933370471012
21
-54.653260707853839
31
0
0
LINE
5
128
100
AcDbEntity
8
0
100
AcDbLine
10
331.87933370471012
20
-54.653260707853839
30
0
11
331.87933370471023
21
-51.601941585539386
31
0
0
LINE
5
129
100
AcDbEntity
8
0
100
AcDbLine
10
331.87933370471023
20
-51.601941585539386
30
0
11
329.4382803142073
21
-51.601941585538952
31
0
0
SPLINE
5
130
100
AcDbEntity
8
0
100
AcDbSpline
70
0
71
2
72
6
73
3
74
0
42
0.000000001
43
0.0000000001
44
0.0000000001
40
0
40
0
40
0
40
1
40
1
40
1
10
329.4382803142073
20
-51.601941585538952
30
0
10
328.80027696490311
20
-51.601941585538839
30
0
10
328.50901529192947
20
-51.158113479612268
30
0
0
SPLINE
5
131
100
AcDbEntity
8
0
100
AcDbSpline
70
0
71
2
72
6
73
3
74
0
42
0.000000001
43
0.0000000001
44
0.0000000001
40
0
40
0
40
0
40
1
40
1
40
1
10
328.50901529192947
20
-51.158113479612268
30
0
10
328.21775361895584
20
-50.714285373685698
30
0
10
328.21775361895584
20
-50.07628440856729
30
0
0
SPLINE
5
132
100
AcDbEntity
8
0
100
AcDbSpline
70
0
71
2
72
6
73
3
74
0
42
0.000000001
43
0.0000000001
44
0.0000000001
40
0
40
0
40
0
40
1
40
1
40
1
10
328.21775361895584
20
-50.07628440856729
30
0
10
328.2177536189559
20
-49.466021060941557
30
0
10
328.50901529192953
20
-49.0221929550151
30
0
0
SPLINE
5
133
100
AcDbEntity
8
0
100
AcDbSpline
70
0
71
2
72
6
73
3
74
0
42
0.000000001
43
0.0000000001
44
0.0000000001
40
0
40
0
40
0
40
1
40
1
40
1
10
328.50901529192953
20
-49.0221929550151
30
0
10
328.80027696490316
20
-48.578364849088643
30
0
10
329.43828031420736
20
-48.578364849088757
30
0
0
LINE
5
134
100
AcDbEntity
8
0
100
AcDbLine
10
329.43828031420736
20
-48.578364849088757
30
0
11
331.87933370471029
21
-48.578364849089191
31
0
0
LINE
5
135
100
AcDbEntity
8
0
100
AcDbLine
10
331.87933370471029
20
-48.578364849089191
30
0
11
331.87933370471035
21
-44.778087139128253
31
0
0
SPLINE
5
136
100
AcDbEntity
8
0
100
AcDbSpline
70
0
71
2
72
6
73
3
74
0
42
0.000000001
43
0.0000000001
44
0.0000000001
40
0
40
0
40
0
40
1
40
1
40
1
10
331.87933370471035
20
-44.778087139128253
30
0
10
331.87933370471046
20
-44.001386165617511
30
0
10
332.42024824023292
20
-43.64077806472649
30
0
0
SPLINE
5
137
100
AcDbEntity
8
0
100
AcDbSpline
70
0
71
2
72
6
73
3
74
0
42
0.000000001
43
0.0000000001
44
0.0000000001
40
0
40
0
40
0
40
1
40
1
40
1
10
332.42024824023292
20
-43.64077806472649
30
0
10
332.96116515994117
20
-43.280167579649678
30
0
10
333.62690612673805
20
-43.280167579649806
30
0
0
SPLINE
5
138
100
AcDbEntity
8
0
100
AcDbSpline
70
0
71
2
72
6
73
3
74
0
42
0.000000001
43
0.0000000001
44
0.0000000001
40
0
40
0
40
0
40
1
40
1
40
1
10
333.62690612673805
20
-43.280167579649806
30
0
10
334.29264947772072
20
-43.28016757964992
30
0
10
334.83356401324318
20
-43.640778064726923
30
0
0
SPLINE
5
139
100
AcDbEntity
8
0
100
AcDbSpline
70
0
71
2
72
6
73
3
74
0
42
0.000000001
43
0.0000000001
44
0.0000000001
40
0
40
0
40
0
40
1
40
1
40
1
10
334.83356401324318
20
-43.640778064726923
30
0
10
335.37447854876564
20
-44.001386165618129
30
0
10
335.37447854876552
20
-44.778087139128871
30
0
0
LINE
5
140
100
AcDbEntity
8
0
100
AcDbLine
10
335.37447854876552
20
-44.778087139128871
30
0
11
335.37447854876507
21
-66.026351451873012
31
0
0
ENDSEC
0
SECTION
2
OBJECTS
0
DICTIONARY
5
C
100
AcDbDictionary
3
ACAD_GROUP
350
D
3
ACAD_MLINESTYLE
350
17
0
DICTIONARY
5
D
100
AcDbDictionary
0
DICTIONARY
5
1A
330
C
100
AcDbDictionary
0
DICTIONARY
5
17
100
AcDbDictionary
0
ENDSEC
0
EOF
