0
SECTION
2
HEADER
9
$INSUNITS
70
4
9
$ACADVER
1
AC1014
9
$HANDSEED
5
FFFF
0
ENDSEC
0
SECTION
2
TABLES
0
TABLE
2
VPORT
5
8
100
AcDbSymbolTable
0
ENDTAB
0
TABLE
2
LTYPE
5
5
100
AcDbSymbolTable
0
LTYPE
5
14
100
AcDbSymbolTableRecord
100
AcDbLinetypeTableRecord
2
BYBLOCK
70
0
0
LTYPE
5
15
100
AcDbSymbolTableRecord
100
AcDbLinetypeTableRecord
2
BYLAYER
70
0
0
ENDTAB
0
TABLE
2
LAYER
5
2
100
AcDbSymbolTable
70
2
0
LAYER
5
50
100
AcDbSymbolTableRecord
100
AcDbLayerTableRecord
2
0
70
0
6
CONTINUOUS
0
ENDTAB
0
TABLE
2
STYLE
5
3
100
AcDbSymbolTable
70
1
0
STYLE
5
11
100
AcDbSymbolTableRecord
100
AcDbTextStyleTableRecord
2
STANDARD
70
0
0
ENDTAB
0
TABLE
2
VIEW
5
6
100
AcDbSymbolTable
70
0
0
ENDTAB
0
TABLE
2
UCS
5
7
100
AcDbSymbolTable
70
0
0
ENDTAB
0
TABLE
2
APPID
5
9
100
AcDbSymbolTable
70
2
0
APPID
5
12
100
AcDbSymbolTableRecord
100
AcDbRegAppTableRecord
2
ACAD
70
0
0
ENDTAB
0
TABLE
2
DIMSTYLE
5
A
100
AcDbSymbolTable
70
1
0
ENDTAB
0
TABLE
2
BLOCK_RECORD
5
1
100
AcDbSymbolTable
70
1
0
BLOCK_RECORD
5
1F
100
AcDbSymbolTableRecord
100
AcDbBlockTableRecord
2
*MODEL_SPACE
0
BLOCK_RECORD
5
1B
100
AcDbSymbolTableRecord
100
AcDbBlockTableRecord
2
*PAPER_SPACE
0
ENDTAB
0
ENDSEC
0
SECTION
2
BLOCKS
0
BLOCK
5
20
100
AcDbEntity
100
AcDbBlockBegin
2
*MODEL_SPACE
0
ENDBLK
5
21
100
AcDbEntity
100
AcDbBlockEnd
0
BLOCK
5
1C
100
AcDbEntity
100
AcDbBlockBegin
2
*PAPER_SPACE
0
ENDBLK
5
1D
100
AcDbEntity
100
AcDbBlockEnd
0
ENDSEC
0
SECTION
2
ENTITIES
0
LWPOLYLINE
5
100
100
AcDbEntity
8
0
100
AcDbPolyline
90
12
70
1
43
0.0
10
313
20
150.00000000000003
42
-0.41421356237309681
10
310
20
153
10
310
20
175
42
-0.41421356237310336
10
315
20
180
10
335
20
180
42
-0.41421356237310336
10
340
20
175
10
340
20
153
42
-0.41421356237309681
10
337
20
150
10
335
20
150
10
335
20
136.99999999999989
10
314.9999999999734
20
136.99999999999568
10
315.00000000000176
20
149.99999999999568
0
SPLINE
5
101
100
AcDbEntity
8
0
100
AcDbSpline
70
0
71
2
72
6
73
3
74
0
42
0.000000001
43
0.0000000001
44
0.0000000001
40
0
40
0
40
0
40
1
40
1
40
1
10
314.34812769293757
20
170.61789155006412
30
0
10
314.34812769293757
20
171.89389586448672
30
0
10
314.76421639323206
20
172.97572731971744
30
0
0
SPLINE
5
102
100
AcDbEntity
8
0
100
AcDbSpline
70
0
71
2
72
6
73
3
74
0
42
0.000000001
43
0.0000000001
44
0.0000000001
40
0
40
0
40
0
40
1
40
1
40
1
10
314.76421639323206
20
172.97572731971744
30
0
10
315.180305689573
20
174.05755877494815
30
0
10
316.01248309016199
20
174.83425736427307
30
0
0
SPLINE
5
103
100
AcDbEntity
8
0
100
AcDbSpline
70
0
71
2
72
6
73
3
74
0
42
0.000000001
43
0.0000000001
44
0.0000000001
40
0
40
0
40
0
40
1
40
1
40
1
10
316.01248309016199
20
174.83425736427307
30
0
10
316.84466049075098
20
175.61095476150513
30
0
10
318.05131778120966
20
176.0409140586853
30
0
0
SPLINE
5
104
100
AcDbEntity
8
0
100
AcDbSpline
70
0
71
2
72
6
73
3
74
0
42
0.000000001
43
0.0000000001
44
0.0000000001
40
0
40
0
40
0
40
1
40
1
40
1
10
318.05131778120966
20
176.0409140586853
30
0
10
319.25797507166828
20
176.47087097167969
30
0
10
320.83911225199671
20
176.47087097167969
30
0
0
SPLINE
5
105
100
AcDbEntity
8
0
100
AcDbSpline
70
0
71
2
72
6
73
3
74
0
42
0.000000001
43
0.0000000001
44
0.0000000001
40
0
40
0
40
0
40
1
40
1
40
1
10
320.83911225199671
20
176.47087097167969
30
0
10
322.42024943232508
20
176.47087097167969
30
0
10
323.62690731883021
20
176.0409140586853
30
0
0
SPLINE
5
106
100
AcDbEntity
8
0
100
AcDbSpline
70
0
71
2
72
6
73
3
74
0
42
0.000000001
43
0.0000000001
44
0.0000000001
40
0
40
0
40
0
40
1
40
1
40
1
10
323.62690731883021
20
176.0409140586853
30
0
10
324.83356520533533
20
175.61095476150513
30
0
10
325.66574260592432
20
174.83425736427307
30
0
0
SPLINE
5
107
100
AcDbEntity
8
0
100
AcDbSpline
70
0
71
2
72
6
73
3
74
0
42
0.000000001
43
0.0000000001
44
0.0000000001
40
0
40
0
40
0
40
1
40
1
40
1
10
325.66574260592432
20
174.83425736427307
30
0
10
326.49792000651331
20
174.05755877494812
30
0
10
326.91400811076136
20
172.97572731971741
30
0
0
SPLINE
5
108
100
AcDbEntity
8
0
100
AcDbSpline
70
0
71
2
72
6
73
3
74
0
42
0.000000001
43
0.0000000001
44
0.0000000001
40
0
40
0
40
0
40
1
40
1
40
1
10
326.91400811076136
20
172.97572731971741
30
0
10
327.3300974071023
20
171.89389586448669
30
0
10
327.3300974071023
20
170.61789155006409
30
0
0
SPLINE
5
109
100
AcDbEntity
8
0
100
AcDbSpline
70
0
71
2
72
6
73
3
74
0
42
0.000000001
43
0.0000000001
44
0.0000000001
40
0
40
0
40
0
40
1
40
1
40
1
10
327.3300974071023
20
170.61789155006409
30
0
10
327.3300974071023
20
169.34188604354858
30
0
10
326.91400811076136
20
168.26005458831787
30
0
0
SPLINE
5
110
100
AcDbEntity
8
0
100
AcDbSpline
70
0
71
2
72
6
73
3
74
0
42
0.000000001
43
0.0000000001
44
0.0000000001
40
0
40
0
40
0
40
1
40
1
40
1
10
326.91400811076136
20
168.26005458831787
30
0
10
326.49792000651331
20
167.17822432518005
30
0
10
325.66574260592432
20
166.40152454376221
30
0
0
SPLINE
5
111
100
AcDbEntity
8
0
100
AcDbSpline
70
0
71
2
72
6
73
3
74
0
42
0.000000001
43
0.0000000001
44
0.0000000001
40
0
40
0
40
0
40
1
40
1
40
1
10
325.66574260592432
20
166.40152454376221
30
0
10
324.83356520533533
20
165.62482595443726
30
0
10
323.62690731883021
20
165.19486784934998
30
0
0
SPLINE
5
112
100
AcDbEntity
8
0
100
AcDbSpline
70
0
71
2
72
6
73
3
74
0
42
0.000000001
43
0.0000000001
44
0.0000000001
40
0
40
0
40
0
40
1
40
1
40
1
10
323.62690731883021
20
165.19486784934998
30
0
10
322.42024943232508
20
164.7649097442627
30
0
10
320.83911225199671
20
164.7649097442627
30
0
0
SPLINE
5
113
100
AcDbEntity
8
0
100
AcDbSpline
70
0
71
2
72
6
73
3
74
0
42
0.000000001
43
0.0000000001
44
0.0000000001
40
0
40
0
40
0
40
1
40
1
40
1
10
320.83911225199671
20
164.7649097442627
30
0
10
319.25797507166834
20
164.7649097442627
30
0
10
318.05131778120966
20
165.19486784934998
30
0
0
SPLINE
5
114
100
AcDbEntity
8
0
100
AcDbSpline
70
0
71
2
72
6
73
3
74
0
42
0.000000001
43
0.0000000001
44
0.0000000001
40
0
40
0
40
0
40
1
40
1
40
1
10
318.05131778120966
20
165.19486784934998
30
0
10
316.84466049075098
20
165.62482595443726
30
0
10
316.01248309016199
20
166.40152454376221
30
0
0
SPLINE
5
115
100
AcDbEntity
8
0
100
AcDbSpline
70
0
71
2
72
6
73
3
74
0
42
0.000000001
43
0.0000000001
44
0.0000000001
40
0
40
0
40
0
40
1
40
1
40
1
10
316.01248309016199
20
166.40152454376221
30
0
10
315.180305689573
20
167.17822432518008
30
0
10
314.76421639323206
20
168.2600545883179
30
0
0
SPLINE
5
116
100
AcDbEntity
8
0
100
AcDbSpline
70
0
71
2
72
6
73
3
74
0
42
0.000000001
43
0.0000000001
44
0.0000000001
40
0
40
0
40
0
40
1
40
1
40
1
10
314.76421639323206
20
168.2600545883179
30
0
10
314.34812769293757
20
169.34188604354861
30
0
10
314.34812769293757
20
170.61789155006412
30
0
0
SPLINE
5
117
100
AcDbEntity
8
0
100
AcDbSpline
70
0
71
2
72
6
73
3
74
0
42
0.000000001
43
0.0000000001
44
0.0000000001
40
0
40
0
40
0
40
1
40
1
40
1
10
323.94590780138941
20
170.61789155006409
30
0
10
323.94590780138941
20
171.22815489768982
30
0
10
323.76560375094385
20
171.76906943321228
30
0
0
SPLINE
5
118
100
AcDbEntity
8
0
100
AcDbSpline
70
0
71
2
72
6
73
3
74
0
42
0.000000001
43
0.0000000001
44
0.0000000001
40
0
40
0
40
0
40
1
40
1
40
1
10
323.76560375094385
20
171.76906943321228
30
0
10
323.5852985084054
20
172.30998635292053
30
0
10
323.21081802248926
20
172.72607445716858
30
0
0
SPLINE
5
119
100
AcDbEntity
8
0
100
AcDbSpline
70
0
71
2
72
6
73
3
74
0
42
0.000000001
43
0.0000000001
44
0.0000000001
40
0
40
0
40
0
40
1
40
1
40
1
10
323.21081802248926
20
172.72607445716858
30
0
10
322.83633872866602
20
173.14216256141663
30
0
10
322.25381299853296
20
173.37794661521912
30
0
0
SPLINE
5
120
100
AcDbEntity
8
0
100
AcDbSpline
70
0
71
2
72
6
73
3
74
0
42
0.000000001
43
0.0000000001
44
0.0000000001
40
0
40
0
40
0
40
1
40
1
40
1
10
322.25381299853296
20
173.37794661521912
30
0
10
321.6712896525857
20
173.61373066902161
30
0
10
320.83911225199671
20
173.61373066902161
30
0
0
SPLINE
5
121
100
AcDbEntity
8
0
100
AcDbSpline
70
0
71
2
72
6
73
3
74
0
42
0.000000001
43
0.0000000001
44
0.0000000001
40
0
40
0
40
0
40
1
40
1
40
1
10
320.83911225199671
20
173.61373066902161
30
0
10
320.00693485140772
20
173.61373066902161
30
0
10
319.41054031252833
20
173.37794661521912
30
0
0
SPLINE
5
122
100
AcDbEntity
8
0
100
AcDbSpline
70
0
71
2
72
6
73
3
74
0
42
0.000000001
43
0.0000000001
44
0.0000000001
40
0
40
0
40
0
40
1
40
1
40
1
10
319.41054031252833
20
173.37794661521912
30
0
10
318.81414696574183
20
173.14216256141663
30
0
10
318.43966707587214
20
172.72607445716858
30
0
0
SPLINE
5
123
100
AcDbEntity
8
0
100
AcDbSpline
70
0
71
2
72
6
73
3
74
0
42
0.000000001
43
0.0000000001
44
0.0000000001
40
0
40
0
40
0
40
1
40
1
40
1
10
318.43966707587214
20
172.72607445716858
30
0
10
318.06518718600245
20
172.30998635292053
30
0
10
317.89875194430323
20
171.76906943321228
30
0
0
SPLINE
5
124
100
AcDbEntity
8
0
100
AcDbSpline
70
0
71
2
72
6
73
3
74
0
42
0.000000001
43
0.0000000001
44
0.0000000001
40
0
40
0
40
0
40
1
40
1
40
1
10
317.89875194430323
20
171.76906943321228
30
0
10
317.73231610655756
20
171.22815489768982
30
0
10
317.73231610655756
20
170.61789155006409
30
0
0
SPLINE
5
125
100
AcDbEntity
8
0
100
AcDbSpline
70
0
71
2
72
6
73
3
74
0
42
0.000000001
43
0.0000000001
44
0.0000000001
40
0
40
0
40
0
40
1
40
1
40
1
10
317.73231610655756
20
170.61789155006409
30
0
10
317.73231610655756
20
170.00762701034546
30
0
10
317.89875194430323
20
169.466712474823
30
0
0
SPLINE
5
126
100
AcDbEntity
8
0
100
AcDbSpline
70
0
71
2
72
6
73
3
74
0
42
0.000000001
43
0.0000000001
44
0.0000000001
40
0
40
0
40
0
40
1
40
1
40
1
10
317.89875194430323
20
169.466712474823
30
0
10
318.06518718600245
20
168.92579674720764
30
0
10
318.43966707587214
20
168.5097074508667
30
0
0
SPLINE
5
127
100
AcDbEntity
8
0
100
AcDbSpline
70
0
71
2
72
6
73
3
74
0
42
0.000000001
43
0.0000000001
44
0.0000000001
40
0
40
0
40
0
40
1
40
1
40
1
10
318.43966707587214
20
168.5097074508667
30
0
10
318.81414696574183
20
168.09361934661865
30
0
10
319.41054031252833
20
167.85783529281616
30
0
0
SPLINE
5
128
100
AcDbEntity
8
0
100
AcDbSpline
70
0
71
2
72
6
73
3
74
0
42
0.000000001
43
0.0000000001
44
0.0000000001
40
0
40
0
40
0
40
1
40
1
40
1
10
319.41054031252833
20
167.85783529281616
30
0
10
320.00693485140772
20
167.62205243110657
30
0
10
320.83911225199671
20
167.62205243110657
30
0
0
SPLINE
5
129
100
AcDbEntity
8
0
100
AcDbSpline
70
0
71
2
72
6
73
3
74
0
42
0.000000001
43
0.0000000001
44
0.0000000001
40
0
40
0
40
0
40
1
40
1
40
1
10
320.83911225199671
20
167.62205243110657
30
0
10
321.6712896525857
20
167.62205243110657
30
0
10
322.25381299853296
20
167.85783529281616
30
0
0
SPLINE
5
130
100
AcDbEntity
8
0
100
AcDbSpline
70
0
71
2
72
6
73
3
74
0
42
0.000000001
43
0.0000000001
44
0.0000000001
40
0
40
0
40
0
40
1
40
1
40
1
10
322.25381299853296
20
167.85783529281616
30
0
10
322.83633872866602
20
168.09361934661865
30
0
10
323.21081802248926
20
168.5097074508667
30
0
0
SPLINE
5
131
100
AcDbEntity
8
0
100
AcDbSpline
70
0
71
2
72
6
73
3
74
0
42
0.000000001
43
0.0000000001
44
0.0000000001
40
0
40
0
40
0
40
1
40
1
40
1
10
323.21081802248926
20
168.5097074508667
30
0
10
323.5852985084054
20
168.92579674720764
30
0
10
323.76560375094385
20
169.466712474823
30
0
0
SPLINE
5
132
100
AcDbEntity
8
0
100
AcDbSpline
70
0
71
2
72
6
73
3
74
0
42
0.000000001
43
0.0000000001
44
0.0000000001
40
0
40
0
40
0
40
1
40
1
40
1
10
323.76560375094385
20
169.466712474823
30
0
10
323.94590780138941
20
170.00762701034546
30
0
10
323.94590780138941
20
170.61789155006409
30
0
0
SPLINE
5
133
100
AcDbEntity
8
0
100
AcDbSpline
70
0
71
2
72
6
73
3
74
0
42
0.000000001
43
0.0000000001
44
0.0000000001
40
0
40
0
40
0
40
1
40
1
40
1
10
329.10540983080836
20
171.20041489601135
30
0
10
328.46740648150416
20
171.20041489601135
30
0
10
328.20388361811609
20
171.63037419319153
30
0
0
SPLINE
5
134
100
AcDbEntity
8
0
100
AcDbSpline
70
0
71
2
72
6
73
3
74
0
42
0.000000001
43
0.0000000001
44
0.0000000001
40
0
40
0
40
0
40
1
40
1
40
1
10
328.20388361811609
20
171.63037419319153
30
0
10
327.94036075472803
20
172.06033110618591
30
0
10
327.94036075472803
20
172.67059445381165
30
0
0
SPLINE
5
135
100
AcDbEntity
8
0
100
AcDbSpline
70
0
71
2
72
6
73
3
74
0
42
0.000000001
43
0.0000000001
44
0.0000000001
40
0
40
0
40
0
40
1
40
1
40
1
10
327.94036075472803
20
172.67059445381165
30
0
10
327.94036075472803
20
173.28085780143738
30
0
10
328.20388361811609
20
173.71081709861755
30
0
0
SPLINE
5
136
100
AcDbEntity
8
0
100
AcDbSpline
70
0
71
2
72
6
73
3
74
0
42
0.000000001
43
0.0000000001
44
0.0000000001
40
0
40
0
40
0
40
1
40
1
40
1
10
328.20388361811609
20
173.71081709861755
30
0
10
328.46740648150416
20
174.14077639579773
30
0
10
329.10540983080836
20
174.14077639579773
30
0
0
LINE
5
137
100
AcDbEntity
8
0
100
AcDbLine
10
329.10540983080836
20
174.14077639579773
30
0
11
331.60194322466822
21
174.14077639579773
31
0
0
LINE
5
138
100
AcDbEntity
8
0
100
AcDbLine
10
331.60194322466822
20
174.14077639579773
30
0
11
331.60194322466822
21
175.72191238403317
31
0
0
SPLINE
5
139
100
AcDbEntity
8
0
100
AcDbSpline
70
0
71
2
72
6
73
3
74
0
42
0.000000001
43
0.0000000001
44
0.0000000001
40
0
40
0
40
0
40
1
40
1
40
1
10
331.60194322466822
20
175.72191238403317
30
0
10
331.60194322466822
20
176.49861097335813
30
0
10
332.14285776019068
20
176.85922145843503
30
0
0
SPLINE
5
140
100
AcDbEntity
8
0
100
AcDbSpline
70
0
71
2
72
6
73
3
74
0
42
0.000000001
43
0.0000000001
44
0.0000000001
40
0
40
0
40
0
40
1
40
1
40
1
10
332.14285776019068
20
176.85922145843503
30
0
10
332.68377229571314
20
177.21983194351193
30
0
10
333.34951326251002
20
177.21983194351193
30
0
0
SPLINE
5
141
100
AcDbEntity
8
0
100
AcDbSpline
70
0
71
2
72
6
73
3
74
0
42
0.000000001
43
0.0000000001
44
0.0000000001
40
0
40
0
40
0
40
1
40
1
40
1
10
333.34951326251002
20
177.21983194351193
30
0
10
334.01525661349268
20
177.21983194351193
30
0
10
334.55617114901514
20
176.85922145843503
30
0
0
SPLINE
5
142
100
AcDbEntity
8
0
100
AcDbSpline
70
0
71
2
72
6
73
3
74
0
42
0.000000001
43
0.0000000001
44
0.0000000001
40
0
40
0
40
0
40
1
40
1
40
1
10
334.55617114901514
20
176.85922145843503
30
0
10
335.0970856845376
20
176.49861097335813
30
0
10
335.0970856845376
20
175.72191238403317
30
0
0
LINE
5
143
100
AcDbEntity
8
0
100
AcDbLine
10
335.0970856845376
20
175.7219123840332
30
0
11
335.0970856845376
21
165.48612952232358
31
0
0
SPLINE
5
144
100
AcDbEntity
8
0
100
AcDbSpline
70
0
71
2
72
6
73
3
74
0
42
0.000000001
43
0.0000000001
44
0.0000000001
40
0
40
0
40
0
40
1
40
1
40
1
10
335.0970856845376
20
165.48612952232358
30
0
10
335.0970856845376
20
164.70943093299863
30
0
10
334.55617114901514
20
164.34882044792172
30
0
0
SPLINE
5
145
100
AcDbEntity
8
0
100
AcDbSpline
70
0
71
2
72
6
73
3
74
0
42
0.000000001
43
0.0000000001
44
0.0000000001
40
0
40
0
40
0
40
1
40
1
40
1
10
334.55617114901514
20
164.34882044792172
30
0
10
334.01525661349268
20
163.98820996284482
30
0
10
333.34951326251002
20
163.98820996284482
30
0
0
SPLINE
5
146
100
AcDbEntity
8
0
100
AcDbSpline
70
0
71
2
72
6
73
3
74
0
42
0.000000001
43
0.0000000001
44
0.0000000001
40
0
40
0
40
0
40
1
40
1
40
1
10
333.34951326251002
20
163.98820996284482
30
0
10
332.68377229571314
20
163.98820996284482
30
0
10
332.14285776019068
20
164.34882044792172
30
0
0
SPLINE
5
147
100
AcDbEntity
8
0
100
AcDbSpline
70
0
71
2
72
6
73
3
74
0
42
0.000000001
43
0.0000000001
44
0.0000000001
40
0
40
0
40
0
40
1
40
1
40
1
10
332.14285776019068
20
164.34882044792172
30
0
10
331.60194322466822
20
164.70943093299863
30
0
10
331.60194322466822
20
165.48612952232358
30
0
0
LINE
5
148
100
AcDbEntity
8
0
100
AcDbLine
10
331.60194322466822
20
165.48612952232355
30
0
11
331.60194322466822
21
166.78987503051755
31
0
0
LINE
5
149
100
AcDbEntity
8
0
100
AcDbLine
10
331.60194322466822
20
166.78987503051755
30
0
11
329.10540983080836
21
166.78987503051755
31
0
0
SPLINE
5
150
100
AcDbEntity
8
0
100
AcDbSpline
70
0
71
2
72
6
73
3
74
0
42
0.000000001
43
0.0000000001
44
0.0000000001
40
0
40
0
40
0
40
1
40
1
40
1
10
329.10540983080836
20
166.78987503051758
30
0
10
328.46740648150416
20
166.78987503051758
30
0
10
328.20388361811609
20
167.21983313560486
30
0
0
SPLINE
5
151
100
AcDbEntity
8
0
100
AcDbSpline
70
0
71
2
72
6
73
3
74
0
42
0.000000001
43
0.0000000001
44
0.0000000001
40
0
40
0
40
0
40
1
40
1
40
1
10
328.20388361811609
20
167.21983313560486
30
0
10
327.94036075472803
20
167.64979124069214
30
0
10
327.94036075472803
20
168.26005458831787
30
0
0
SPLINE
5
152
100
AcDbEntity
8
0
100
AcDbSpline
70
0
71
2
72
6
73
3
74
0
42
0.000000001
43
0.0000000001
44
0.0000000001
40
0
40
0
40
0
40
1
40
1
40
1
10
327.94036075472803
20
168.26005458831787
30
0
10
327.94036075472803
20
168.8703179359436
30
0
10
328.20388361811609
20
169.30027723312378
30
0
0
SPLINE
5
153
100
AcDbEntity
8
0
100
AcDbSpline
70
0
71
2
72
6
73
3
74
0
42
0.000000001
43
0.0000000001
44
0.0000000001
40
0
40
0
40
0
40
1
40
1
40
1
10
328.20388361811609
20
169.30027723312378
30
0
10
328.46740648150416
20
169.73023533821106
30
0
10
329.10540983080836
20
169.73023533821106
30
0
0
LINE
5
154
100
AcDbEntity
8
0
100
AcDbLine
10
329.10540983080836
20
169.73023533821106
30
0
11
331.60194322466822
21
169.73023533821106
31
0
0
LINE
5
155
100
AcDbEntity
8
0
100
AcDbLine
10
331.60194322466822
20
169.73023533821106
30
0
11
331.60194322466822
21
171.20041489601132
31
0
0
LINE
5
156
100
AcDbEntity
8
0
100
AcDbLine
10
331.60194322466822
20
171.20041489601132
30
0
11
329.10540983080836
21
171.20041489601135
31
0
0
SPLINE
5
157
100
AcDbEntity
8
0
100
AcDbSpline
70
0
71
2
72
6
73
3
74
0
42
0.000000001
43
0.0000000001
44
0.0000000001
40
0
40
0
40
0
40
1
40
1
40
1
10
330.9916774928567
20
158.49583864212033
30
0
10
331.62968084216089
20
158.49583864212033
30
0
10
331.62968084216089
20
159.13384199142453
30
0
0
LINE
5
158
100
AcDbEntity
8
0
100
AcDbLine
10
331.62968084216089
20
159.13384199142453
30
0
11
331.62968084216089
21
159.52219009399411
31
0
0
SPLINE
5
159
100
AcDbEntity
8
0
100
AcDbSpline
70
0
71
2
72
6
73
3
74
0
42
0.000000001
43
0.0000000001
44
0.0000000001
40
0
40
0
40
0
40
1
40
1
40
1
10
331.62968084216089
20
159.52219009399411
30
0
10
331.62968084216089
20
160.16019344329834
30
0
10
330.9916774928567
20
160.16019344329834
30
0
0
LINE
5
160
100
AcDbEntity
8
0
100
AcDbLine
10
330.9916774928567
20
160.16019344329834
30
0
11
319.45214912295313
21
160.16019344329837
31
0
0
SPLINE
5
161
100
AcDbEntity
8
0
100
AcDbSpline
70
0
71
2
72
6
73
3
74
0
42
0.000000001
43
0.0000000001
44
0.0000000001
40
0
40
0
40
0
40
1
40
1
40
1
10
319.45214912295319
20
160.16019344329834
30
0
10
318.84188577532746
20
160.16019344329834
30
0
10
318.5644929111001
20
160.59015274047852
30
0
0
SPLINE
5
162
100
AcDbEntity
8
0
100
AcDbSpline
70
0
71
2
72
6
73
3
74
0
42
0.000000001
43
0.0000000001
44
0.0000000001
40
0
40
0
40
0
40
1
40
1
40
1
10
318.5644929111001
20
160.59015274047852
30
0
10
318.28710123896576
20
161.02011203765869
30
0
10
318.2871012389657
20
161.57489538192749
30
0
0
SPLINE
5
163
100
AcDbEntity
8
0
100
AcDbSpline
70
0
71
2
72
6
73
3
74
0
42
0.000000001
43
0.0000000001
44
0.0000000001
40
0
40
0
40
0
40
1
40
1
40
1
10
318.2871012389657
20
161.57489538192749
30
0
10
318.2871012389657
20
162.12968111038208
30
0
10
318.5644929111001
20
162.54576921463013
30
0
0
SPLINE
5
164
100
AcDbEntity
8
0
100
AcDbSpline
70
0
71
2
72
6
73
3
74
0
42
0.000000001
43
0.0000000001
44
0.0000000001
40
0
40
0
40
0
40
1
40
1
40
1
10
318.5644929111001
20
162.54576921463013
30
0
10
318.8418857753274
20
162.96185970306396
30
0
10
319.45214912295313
20
162.96185970306396
30
0
0
LINE
5
165
100
AcDbEntity
8
0
100
AcDbLine
10
319.45214912295313
20
162.96185970306396
30
0
11
332.73925229907007
21
162.96185970306394
31
0
0
SPLINE
5
166
100
AcDbEntity
8
0
100
AcDbSpline
70
0
71
2
72
6
73
3
74
0
42
0.000000001
43
0.0000000001
44
0.0000000001
40
0
40
0
40
0
40
1
40
1
40
1
10
332.73925229907007
20
162.96185970306394
30
0
10
334.07073423266382
20
162.96185970306394
30
0
10
334.58390876650782
20
162.46255159378049
30
0
0
SPLINE
5
167
100
AcDbEntity
8
0
100
AcDbSpline
70
0
71
2
72
6
73
3
74
0
42
0.000000001
43
0.0000000001
44
0.0000000001
40
0
40
0
40
0
40
1
40
1
40
1
10
334.58390876650782
20
162.46255159378049
30
0
10
335.0970856845376
20
161.96324348449704
30
0
10
335.0970856845376
20
160.65949916839597
30
0
0
LINE
5
168
100
AcDbEntity
8
0
100
AcDbLine
10
335.0970856845376
20
160.65949916839597
30
0
11
335.0970856845376
21
158.10748815536496
31
0
0
SPLINE
5
169
100
AcDbEntity
8
0
100
AcDbSpline
70
0
71
2
72
6
73
3
74
0
42
0.000000001
43
0.0000000001
44
0.0000000001
40
0
40
0
40
0
40
1
40
1
40
1
10
335.0970856845376
20
158.10748815536496
30
0
10
335.0970856845376
20
156.80374383926389
30
0
10
334.58390876650782
20
156.30443811416623
30
0
0
SPLINE
5
170
100
AcDbEntity
8
0
100
AcDbSpline
70
0
71
2
72
6
73
3
74
0
42
0.000000001
43
0.0000000001
44
0.0000000001
40
0
40
0
40
0
40
1
40
1
40
1
10
334.58390876650782
20
156.30443811416623
30
0
10
334.07073423266382
20
155.80513238906858
30
0
10
332.73925229907007
20
155.80513238906858
30
0
0
LINE
5
171
100
AcDbEntity
8
0
100
AcDbLine
10
332.73925229907007
20
155.80513238906858
30
0
11
322.44798824191065
21
155.8051323890686
31
0
0
SPLINE
5
172
100
AcDbEntity
8
0
100
AcDbSpline
70
0
71
2
72
6
73
3
74
0
42
0.000000001
43
0.0000000001
44
0.0000000001
40
0
40
0
40
0
40
1
40
1
40
1
10
322.44798824191065
20
155.8051323890686
30
0
10
321.80998608469935
20
155.8051323890686
30
0
10
321.80998608469935
20
155.1671290397644
30
0
0
LINE
5
173
100
AcDbEntity
8
0
100
AcDbLine
10
321.80998608469935
20
155.1671290397644
30
0
11
321.80998608469935
21
154.77877855300903
31
0
0
SPLINE
5
174
100
AcDbEntity
8
0
100
AcDbSpline
70
0
71
2
72
6
73
3
74
0
42
0.000000001
43
0.0000000001
44
0.0000000001
40
0
40
0
40
0
40
1
40
1
40
1
10
321.80998608469935
20
154.77877855300903
30
0
10
321.80998608469935
20
154.14077758789062
30
0
10
322.44798824191065
20
154.14077758789062
30
0
0
LINE
5
175
100
AcDbEntity
8
0
100
AcDbLine
10
322.44798824191065
20
154.14077758789062
30
0
11
334.48682233691187
21
154.1407775878906
31
0
0
SPLINE
5
176
100
AcDbEntity
8
0
100
AcDbSpline
70
0
71
2
72
6
73
3
74
0
42
0.000000001
43
0.0000000001
44
0.0000000001
40
0
40
0
40
0
40
1
40
1
40
1
10
334.48682233691187
20
154.1407775878906
30
0
10
335.0970856845376
20
154.1407775878906
30
0
10
335.3744785487649
20
153.71081829071042
30
0
0
SPLINE
5
177
100
AcDbEntity
8
0
100
AcDbSpline
70
0
71
2
72
6
73
3
74
0
42
0.000000001
43
0.0000000001
44
0.0000000001
40
0
40
0
40
0
40
1
40
1
40
1
10
335.3744785487649
20
153.71081829071042
30
0
10
335.65187141299219
20
153.28085899353025
30
0
10
335.65187141299219
20
152.72607564926145
30
0
0
SPLINE
5
178
100
AcDbEntity
8
0
100
AcDbSpline
70
0
71
2
72
6
73
3
74
0
42
0.000000001
43
0.0000000001
44
0.0000000001
40
0
40
0
40
0
40
1
40
1
40
1
10
335.65187141299219
20
152.72607564926145
30
0
10
335.65187141299219
20
152.17128992080686
30
0
10
335.37447854876496
20
151.75520181655881
30
0
0
SPLINE
5
179
100
AcDbEntity
8
0
100
AcDbSpline
70
0
71
2
72
6
73
3
74
0
42
0.000000001
43
0.0000000001
44
0.0000000001
40
0
40
0
40
0
40
1
40
1
40
1
10
335.37447854876496
20
151.75520181655881
30
0
10
335.09708568453766
20
151.33911132812497
30
0
10
334.48682233691193
20
151.33911132812497
30
0
0
LINE
5
180
100
AcDbEntity
8
0
100
AcDbLine
10
334.48682233691193
20
151.33911132812497
30
0
11
320.70041581988312
21
151.339111328125
31
0
0
SPLINE
5
181
100
AcDbEntity
8
0
100
AcDbSpline
70
0
71
2
72
6
73
3
74
0
42
0.000000001
43
0.0000000001
44
0.0000000001
40
0
40
0
40
0
40
1
40
1
40
1
10
320.70041581988312
20
151.339111328125
30
0
10
319.36893150210358
20
151.339111328125
30
0
10
318.85575577616669
20
151.83841943740845
30
0
0
SPLINE
5
182
100
AcDbEntity
8
0
100
AcDbSpline
70
0
71
2
72
6
73
3
74
0
42
0.000000001
43
0.0000000001
44
0.0000000001
40
0
40
0
40
0
40
1
40
1
40
1
10
318.85575577616669
20
151.83841943740845
30
0
10
318.3425800502298
20
152.33772516250613
30
0
10
318.3425800502298
20
153.64146947860721
30
0
0
LINE
5
183
100
AcDbEntity
8
0
100
AcDbLine
10
318.3425800502298
20
153.64146947860721
30
0
11
318.3425800502298
21
156.19348049163821
31
0
0
SPLINE
5
184
100
AcDbEntity
8
0
100
AcDbSpline
70
0
71
2
72
6
73
3
74
0
42
0.000000001
43
0.0000000001
44
0.0000000001
40
0
40
0
40
0
40
1
40
1
40
1
10
318.3425800502298
20
156.19348049163821
30
0
10
318.3425800502298
20
157.49722480773929
30
0
10
318.85575577616669
20
157.99653291702271
30
0
0
SPLINE
5
185
100
AcDbEntity
8
0
100
AcDbSpline
70
0
71
2
72
6
73
3
74
0
42
0.000000001
43
0.0000000001
44
0.0000000001
40
0
40
0
40
0
40
1
40
1
40
1
10
318.85575577616669
20
157.99653291702271
30
0
10
319.36893150210358
20
158.49583864212036
30
0
10
320.70041581988306
20
158.49583864212036
30
0
0
LINE
5
186
100
AcDbEntity
8
0
100
AcDbLine
10
320.70041581988312
20
158.49583864212036
30
0
11
330.9916774928567
21
158.49583864212033
31
0
0
ENDSEC
0
SECTION
2
OBJECTS
0
DICTIONARY
5
C
100
AcDbDictionary
3
ACAD_GROUP
350
D
3
ACAD_MLINESTYLE
350
17
0
DICTIONARY
5
D
100
AcDbDictionary
0
DICTIONARY
5
1A
330
C
100
AcDbDictionary
0
DICTIONARY
5
17
100
AcDbDictionary
0
ENDSEC
0
EOF
