0
SECTION
2
HEADER
9
$INSUNITS
70
4
9
$ACADVER
1
AC1014
9
$HANDSEED
5
FFFF
0
ENDSEC
0
SECTION
2
TABLES
0
TABLE
2
VPORT
5
8
100
AcDbSymbolTable
0
ENDTAB
0
TABLE
2
LTYPE
5
5
100
AcDbSymbolTable
0
LTYPE
5
14
100
AcDbSymbolTableRecord
100
AcDbLinetypeTableRecord
2
BYBLOCK
70
0
0
LTYPE
5
15
100
AcDbSymbolTableRecord
100
AcDbLinetypeTableRecord
2
BYLAYER
70
0
0
ENDTAB
0
TABLE
2
LAYER
5
2
100
AcDbSymbolTable
70
2
0
LAYER
5
50
100
AcDbSymbolTableRecord
100
AcDbLayerTableRecord
2
0
70
0
6
CONTINUOUS
0
ENDTAB
0
TABLE
2
STYLE
5
3
100
AcDbSymbolTable
70
1
0
STYLE
5
11
100
AcDbSymbolTableRecord
100
AcDbTextStyleTableRecord
2
STANDARD
70
0
0
ENDTAB
0
TABLE
2
VIEW
5
6
100
AcDbSymbolTable
70
0
0
ENDTAB
0
TABLE
2
UCS
5
7
100
AcDbSymbolTable
70
0
0
ENDTAB
0
TABLE
2
APPID
5
9
100
AcDbSymbolTable
70
2
0
APPID
5
12
100
AcDbSymbolTableRecord
100
AcDbRegAppTableRecord
2
ACAD
70
0
0
ENDTAB
0
TABLE
2
DIMSTYLE
5
A
100
AcDbSymbolTable
70
1
0
ENDTAB
0
TABLE
2
BLOCK_RECORD
5
1
100
AcDbSymbolTable
70
1
0
BLOCK_RECORD
5
1F
100
AcDbSymbolTableRecord
100
AcDbBlockTableRecord
2
*MODEL_SPACE
0
BLOCK_RECORD
5
1B
100
AcDbSymbolTableRecord
100
AcDbBlockTableRecord
2
*PAPER_SPACE
0
ENDTAB
0
ENDSEC
0
SECTION
2
BLOCKS
0
BLOCK
5
20
100
AcDbEntity
100
AcDbBlockBegin
2
*MODEL_SPACE
0
ENDBLK
5
21
100
AcDbEntity
100
AcDbBlockEnd
0
BLOCK
5
1C
100
AcDbEntity
100
AcDbBlockBegin
2
*PAPER_SPACE
0
ENDBLK
5
1D
100
AcDbEntity
100
AcDbBlockEnd
0
ENDSEC
0
SECTION
2
ENTITIES
0
LWPOLYLINE
5
100
100
AcDbEntity
8
0
100
AcDbPolyline
90
12
70
1
43
0.0
10
430
20
21
10
430
20
42.999999999999986
42
-0.41421356237310336
10
435
20
47.999999999999986
10
455
20
47.999999999999986
42
-0.41421356237310336
10
460
20
42.999999999999986
10
460
20
21
42
-0.41421356237309681
10
457
20
17.999999999999993
10
455
20
17.999999999999993
10
455
20
4.9999999999956737
10
434.99999999997357
20
4.9999999999956746
10
435.00000000000176
20
17.999999999995676
10
433
20
18.000000000000011
42
-0.41421356237309681
0
SPLINE
5
101
100
AcDbEntity
8
0
100
AcDbSpline
70
0
71
2
72
6
73
3
74
0
42
0.000000001
43
0.0000000001
44
0.0000000001
40
0
40
0
40
0
40
1
40
1
40
1
10
436.2343969196076
20
37.314146041873677
30
0
10
436.2343969196076
20
38.978500843051656
30
0
10
436.84466026723334
20
40.268376350406299
30
0
0
SPLINE
5
102
100
AcDbEntity
8
0
100
AcDbSpline
70
0
71
2
72
6
73
3
74
0
42
0.000000001
43
0.0000000001
44
0.0000000001
40
0
40
0
40
0
40
1
40
1
40
1
10
436.84466026723334
20
40.268376350406299
30
0
10
437.45492421090552
20
41.558251857760943
30
0
10
438.57836388051459
20
42.445906877520905
30
0
0
SPLINE
5
103
100
AcDbEntity
8
0
100
AcDbSpline
70
0
71
2
72
6
73
3
74
0
42
0.000000001
43
0.0000000001
44
0.0000000001
40
0
40
0
40
0
40
1
40
1
40
1
10
438.57836388051459
20
42.445906877520905
30
0
10
439.70180295407715
20
43.333564281466657
30
0
10
441.32454894483033
20
43.79126119613926
30
0
0
SPLINE
5
104
100
AcDbEntity
8
0
100
AcDbSpline
70
0
71
2
72
6
73
3
74
0
42
0.000000001
43
0.0000000001
44
0.0000000001
40
0
40
0
40
0
40
1
40
1
40
1
10
441.32454894483033
20
43.79126119613926
30
0
10
442.9472961276764
20
44.248958110811863
30
0
10
445.00000022351685
20
44.248958110811557
30
0
0
SPLINE
5
105
100
AcDbEntity
8
0
100
AcDbSpline
70
0
71
2
72
6
73
3
74
0
42
0.000000001
43
0.0000000001
44
0.0000000001
40
0
40
0
40
0
40
1
40
1
40
1
10
445.00000022351685
20
44.248958110811557
30
0
10
447.02496550977173
20
44.248958110811252
30
0
10
448.66158150136414
20
43.791261196138151
30
0
0
SPLINE
5
106
100
AcDbEntity
8
0
100
AcDbSpline
70
0
71
2
72
6
73
3
74
0
42
0.000000001
43
0.0000000001
44
0.0000000001
40
0
40
0
40
0
40
1
40
1
40
1
10
448.66158150136414
20
43.791261196138151
30
0
10
450.29819749295655
20
43.333564281465051
30
0
10
451.42163775861212
20
42.445906877518951
30
0
0
SPLINE
5
107
100
AcDbEntity
8
0
100
AcDbSpline
70
0
71
2
72
6
73
3
74
0
42
0.000000001
43
0.0000000001
44
0.0000000001
40
0
40
0
40
0
40
1
40
1
40
1
10
451.42163775861212
20
42.445906877518951
30
0
10
452.54507564008185
20
41.558251857758648
30
0
10
453.15534137189337
20
40.268376350403827
30
0
0
SPLINE
5
108
100
AcDbEntity
8
0
100
AcDbSpline
70
0
71
2
72
6
73
3
74
0
42
0.000000001
43
0.0000000001
44
0.0000000001
40
0
40
0
40
0
40
1
40
1
40
1
10
453.15534137189337
20
40.268376350403827
30
0
10
453.76560233533331
20
38.978500843048998
30
0
10
453.76560233533331
20
37.31414604187102
30
0
0
SPLINE
5
109
100
AcDbEntity
8
0
100
AcDbSpline
70
0
71
2
72
6
73
3
74
0
42
0.000000001
43
0.0000000001
44
0.0000000001
40
0
40
0
40
0
40
1
40
1
40
1
10
453.76560233533331
20
37.31414604187102
30
0
10
453.76560233533337
20
35.649791240693041
30
0
10
453.15534137189343
20
34.359915733338397
30
0
0
SPLINE
5
110
100
AcDbEntity
8
0
100
AcDbSpline
70
0
71
2
72
6
73
3
74
0
42
0.000000001
43
0.0000000001
44
0.0000000001
40
0
40
0
40
0
40
1
40
1
40
1
10
453.15534137189343
20
34.359915733338397
30
0
10
452.5450756400819
20
33.070040225983746
30
0
10
451.42163775861218
20
32.182384014130896
30
0
0
SPLINE
5
111
100
AcDbEntity
8
0
100
AcDbSpline
70
0
71
2
72
6
73
3
74
0
42
0.000000001
43
0.0000000001
44
0.0000000001
40
0
40
0
40
0
40
1
40
1
40
1
10
451.42163775861218
20
32.182384014130896
30
0
10
450.29819749295666
20
31.294727802278036
30
0
10
448.66158150136437
20
30.837030887605433
30
0
0
SPLINE
5
112
100
AcDbEntity
8
0
100
AcDbSpline
70
0
71
2
72
6
73
3
74
0
42
0.000000001
43
0.0000000001
44
0.0000000001
40
0
40
0
40
0
40
1
40
1
40
1
10
448.66158150136437
20
30.837030887605433
30
0
10
447.02496550977196
20
30.37933397293283
30
0
10
445.00000022351708
20
30.379333972933139
30
0
0
SPLINE
5
113
100
AcDbEntity
8
0
100
AcDbSpline
70
0
71
2
72
6
73
3
74
0
42
0.000000001
43
0.0000000001
44
0.0000000001
40
0
40
0
40
0
40
1
40
1
40
1
10
445.00000022351708
20
30.379333972933139
30
0
10
442.94729612767662
20
30.379333972933452
30
0
10
441.32454894483055
20
30.837030887606545
30
0
0
SPLINE
5
114
100
AcDbEntity
8
0
100
AcDbSpline
70
0
71
2
72
6
73
3
74
0
42
0.000000001
43
0.0000000001
44
0.0000000001
40
0
40
0
40
0
40
1
40
1
40
1
10
441.32454894483055
20
30.837030887606545
30
0
10
439.70180295407727
20
31.294727802279645
30
0
10
438.57836388051464
20
32.182384014132843
30
0
0
SPLINE
5
115
100
AcDbEntity
8
0
100
AcDbSpline
70
0
71
2
72
6
73
3
74
0
42
0.000000001
43
0.0000000001
44
0.0000000001
40
0
40
0
40
0
40
1
40
1
40
1
10
438.57836388051464
20
32.182384014132843
30
0
10
437.45492421090557
20
33.070040225986041
30
0
10
436.84466026723339
20
34.35991573334087
30
0
0
SPLINE
5
116
100
AcDbEntity
8
0
100
AcDbSpline
70
0
71
2
72
6
73
3
74
0
42
0.000000001
43
0.0000000001
44
0.0000000001
40
0
40
0
40
0
40
1
40
1
40
1
10
436.84466026723339
20
34.35991573334087
30
0
10
436.23439691960766
20
35.649791240695698
30
0
10
436.2343969196076
20
37.314146041873677
30
0
0
SPLINE
5
117
100
AcDbEntity
8
0
100
AcDbSpline
70
0
71
2
72
6
73
3
74
0
42
0.000000001
43
0.0000000001
44
0.0000000001
40
0
40
0
40
0
40
1
40
1
40
1
10
450.21497987210699
20
37.314146041871552
30
0
10
450.21497987210699
20
38.146323442460542
30
0
10
449.92371581494757
20
38.867544412614393
30
0
0
SPLINE
5
118
100
AcDbEntity
8
0
100
AcDbSpline
70
0
71
2
72
6
73
3
74
0
42
0.000000001
43
0.0000000001
44
0.0000000001
40
0
40
0
40
0
40
1
40
1
40
1
10
449.92371581494757
20
38.867544412614393
30
0
10
449.63245414197394
20
39.588764190675356
30
0
10
448.99445198476263
20
40.115809917451571
30
0
0
SPLINE
5
119
100
AcDbEntity
8
0
100
AcDbSpline
70
0
71
2
72
6
73
3
74
0
42
0.000000001
43
0.0000000001
44
0.0000000001
40
0
40
0
40
0
40
1
40
1
40
1
10
448.99445198476263
20
40.115809917451571
30
0
10
448.35644982755133
20
40.642855644227794
30
0
10
447.37170599400946
20
40.947988510133712
30
0
0
SPLINE
5
120
100
AcDbEntity
8
0
100
AcDbSpline
70
0
71
2
72
6
73
3
74
0
42
0.000000001
43
0.0000000001
44
0.0000000001
40
0
40
0
40
0
40
1
40
1
40
1
10
447.37170599400946
20
40.947988510133712
30
0
10
446.38696335256049
20
41.25312018394672
30
0
10
445.00000022351691
20
41.253120183946933
30
0
0
SPLINE
5
121
100
AcDbEntity
8
0
100
AcDbSpline
70
0
71
2
72
6
73
3
74
0
42
0.000000001
43
0.0000000001
44
0.0000000001
40
0
40
0
40
0
40
1
40
1
40
1
10
445.00000022351691
20
41.253120183946933
30
0
10
443.61303828656622
20
41.253120183947146
30
0
10
442.62829445302435
20
40.947988510134429
30
0
0
SPLINE
5
122
100
AcDbEntity
8
0
100
AcDbSpline
70
0
71
2
72
6
73
3
74
0
42
0.000000001
43
0.0000000001
44
0.0000000001
40
0
40
0
40
0
40
1
40
1
40
1
10
442.62829445302435
20
40.947988510134429
30
0
10
441.64355061948248
20
40.642855644228817
30
0
10
441.00554846227118
20
40.115809917452793
30
0
0
SPLINE
5
123
100
AcDbEntity
8
0
100
AcDbSpline
70
0
71
2
72
6
73
3
74
0
42
0.000000001
43
0.0000000001
44
0.0000000001
40
0
40
0
40
0
40
1
40
1
40
1
10
441.00554846227118
20
40.115809917452793
30
0
10
440.36754630505988
20
39.588764190676763
30
0
10
440.07628343999335
20
38.867544412615892
30
0
0
SPLINE
5
124
100
AcDbEntity
8
0
100
AcDbSpline
70
0
71
2
72
6
73
3
74
0
42
0.000000001
43
0.0000000001
44
0.0000000001
40
0
40
0
40
0
40
1
40
1
40
1
10
440.07628343999335
20
38.867544412615892
30
0
10
439.78502057492682
20
38.146323442462126
30
0
10
439.78502057492682
20
37.314146041873137
30
0
0
SPLINE
5
125
100
AcDbEntity
8
0
100
AcDbSpline
70
0
71
2
72
6
73
3
74
0
42
0.000000001
43
0.0000000001
44
0.0000000001
40
0
40
0
40
0
40
1
40
1
40
1
10
439.78502057492682
20
37.314146041873137
30
0
10
439.78502057492688
20
36.481968641284148
30
0
10
440.0762834399934
20
35.760747671130297
30
0
0
SPLINE
5
126
100
AcDbEntity
8
0
100
AcDbSpline
70
0
71
2
72
6
73
3
74
0
42
0.000000001
43
0.0000000001
44
0.0000000001
40
0
40
0
40
0
40
1
40
1
40
1
10
440.0762834399934
20
35.760747671130297
30
0
10
440.36754630505993
20
35.039527893069341
30
0
10
441.00554846227124
20
34.512482166293125
30
0
0
SPLINE
5
127
100
AcDbEntity
8
0
100
AcDbSpline
70
0
71
2
72
6
73
3
74
0
42
0.000000001
43
0.0000000001
44
0.0000000001
40
0
40
0
40
0
40
1
40
1
40
1
10
441.00554846227124
20
34.512482166293125
30
0
10
441.64355061948254
20
33.985436439516903
30
0
10
442.62829445302441
20
33.680304765703887
30
0
0
SPLINE
5
128
100
AcDbEntity
8
0
100
AcDbSpline
70
0
71
2
72
6
73
3
74
0
42
0.000000001
43
0.0000000001
44
0.0000000001
40
0
40
0
40
0
40
1
40
1
40
1
10
442.62829445302441
20
33.680304765703887
30
0
10
443.61303828656628
20
33.375173091890872
30
0
10
445.00000022351696
20
33.375173091890659
30
0
0
SPLINE
5
129
100
AcDbEntity
8
0
100
AcDbSpline
70
0
71
2
72
6
73
3
74
0
42
0.000000001
43
0.0000000001
44
0.0000000001
40
0
40
0
40
0
40
1
40
1
40
1
10
445.00000022351696
20
33.375173091890659
30
0
10
446.38696335256054
20
33.375173091890446
30
0
10
447.37170599400952
20
33.68030476570317
30
0
0
SPLINE
5
130
100
AcDbEntity
8
0
100
AcDbSpline
70
0
71
2
72
6
73
3
74
0
42
0.000000001
43
0.0000000001
44
0.0000000001
40
0
40
0
40
0
40
1
40
1
40
1
10
447.37170599400952
20
33.68030476570317
30
0
10
448.35644982755139
20
33.98543643951588
30
0
10
448.99445198476269
20
34.512482166291903
30
0
0
SPLINE
5
131
100
AcDbEntity
8
0
100
AcDbSpline
70
0
71
2
72
6
73
3
74
0
42
0.000000001
43
0.0000000001
44
0.0000000001
40
0
40
0
40
0
40
1
40
1
40
1
10
448.99445198476269
20
34.512482166291903
30
0
10
449.63245414197399
20
35.039527893067934
30
0
10
449.92371581494763
20
35.760747671128797
30
0
0
SPLINE
5
132
100
AcDbEntity
8
0
100
AcDbSpline
70
0
71
2
72
6
73
3
74
0
42
0.000000001
43
0.0000000001
44
0.0000000001
40
0
40
0
40
0
40
1
40
1
40
1
10
449.92371581494763
20
35.760747671128797
30
0
10
450.21497987210705
20
36.481968641282563
30
0
10
450.21497987210699
20
37.314146041871552
30
0
0
SPLINE
5
133
100
AcDbEntity
8
0
100
AcDbSpline
70
0
71
2
72
6
73
3
74
0
42
0.000000001
43
0.0000000001
44
0.0000000001
40
0
40
0
40
0
40
1
40
1
40
1
10
434.51456390321226
20
23.250346660617836
30
0
10
433.87656114995451
20
23.250346660617932
30
0
10
433.57142947614165
20
23.694174766544492
30
0
0
SPLINE
5
134
100
AcDbEntity
8
0
100
AcDbSpline
70
0
71
2
72
6
73
3
74
0
42
0.000000001
43
0.0000000001
44
0.0000000001
40
0
40
0
40
0
40
1
40
1
40
1
10
433.57142947614165
20
23.694174766544492
30
0
10
433.26629750430556
20
24.138002872471056
30
0
10
433.26629750430556
20
24.748266220096788
30
0
0
SPLINE
5
135
100
AcDbEntity
8
0
100
AcDbSpline
70
0
71
2
72
6
73
3
74
0
42
0.000000001
43
0.0000000001
44
0.0000000001
40
0
40
0
40
0
40
1
40
1
40
1
10
433.26629750430556
20
24.748266220096788
30
0
10
433.26629750430556
20
25.35852956772252
30
0
10
433.57142947614159
20
25.802357673648984
30
0
0
SPLINE
5
136
100
AcDbEntity
8
0
100
AcDbSpline
70
0
71
2
72
6
73
3
74
0
42
0.000000001
43
0.0000000001
44
0.0000000001
40
0
40
0
40
0
40
1
40
1
40
1
10
433.57142947614159
20
25.802357673648984
30
0
10
433.87656114995445
20
26.246185779575452
30
0
10
434.51456390321221
20
26.246185779575356
30
0
0
LINE
5
137
100
AcDbEntity
8
0
100
AcDbLine
10
434.51456390321226
20
26.246185779575356
30
0
11
443.22468779981102
21
26.246185779574031
31
0
0
LINE
5
138
100
AcDbEntity
8
0
100
AcDbLine
10
446.77531264722313
20
26.246185779573494
30
0
11
455.4854347556826
21
26.246185779572173
31
0
0
SPLINE
5
139
100
AcDbEntity
8
0
100
AcDbSpline
70
0
71
2
72
6
73
3
74
0
42
0.000000001
43
0.0000000001
44
0.0000000001
40
0
40
0
40
0
40
1
40
1
40
1
10
455.4854347556826
20
26.246185779572173
30
0
10
456.1234381049868
20
26.246185779572073
30
0
10
456.42857097089257
20
25.802357673645517
30
0
0
SPLINE
5
140
100
AcDbEntity
8
0
100
AcDbSpline
70
0
71
2
72
6
73
3
74
0
42
0.000000001
43
0.0000000001
44
0.0000000001
40
0
40
0
40
0
40
1
40
1
40
1
10
456.42857097089257
20
25.802357673645517
30
0
10
456.73370383679838
20
25.358529567718954
30
0
10
456.73370383679838
20
24.748266220093221
30
0
0
SPLINE
5
141
100
AcDbEntity
8
0
100
AcDbSpline
70
0
71
2
72
6
73
3
74
0
42
0.000000001
43
0.0000000001
44
0.0000000001
40
0
40
0
40
0
40
1
40
1
40
1
10
456.73370383679838
20
24.748266220093221
30
0
10
456.73370383679838
20
24.138002872467489
30
0
10
456.42857097089262
20
23.694174766541025
30
0
0
SPLINE
5
142
100
AcDbEntity
8
0
100
AcDbSpline
70
0
71
2
72
6
73
3
74
0
42
0.000000001
43
0.0000000001
44
0.0000000001
40
0
40
0
40
0
40
1
40
1
40
1
10
456.42857097089262
20
23.694174766541025
30
0
10
456.12343810498686
20
23.250346660614554
30
0
10
455.48543475568266
20
23.250346660614653
30
0
0
LINE
5
143
100
AcDbEntity
8
0
100
AcDbLine
10
455.48543475568266
20
23.250346660614653
30
0
11
434.51456390321226
21
23.250346660617836
31
0
0
LINE
5
144
100
AcDbEntity
8
0
100
AcDbLine
10
446.77531264722313
20
26.246185779573494
30
0
11
446.7753126472237
21
29.835405940474331
31
0
0
LINE
5
145
100
AcDbEntity
8
0
100
AcDbLine
10
446.7753126472237
20
29.835405940474331
30
0
11
443.22468779981102
21
29.835405940474892
31
0
0
LINE
5
146
100
AcDbEntity
8
0
100
AcDbLine
10
443.22468779981102
20
29.835405940474892
30
0
11
443.22468779981102
21
26.246185779574031
31
0
0
ENDSEC
0
SECTION
2
OBJECTS
0
DICTIONARY
5
C
100
AcDbDictionary
3
ACAD_GROUP
350
D
3
ACAD_MLINESTYLE
350
17
0
DICTIONARY
5
D
100
AcDbDictionary
0
DICTIONARY
5
1A
330
C
100
AcDbDictionary
0
DICTIONARY
5
17
100
AcDbDictionary
0
ENDSEC
0
EOF
