0
SECTION
2
HEADER
9
$INSUNITS
70
4
9
$ACADVER
1
AC1014
9
$HANDSEED
5
FFFF
0
ENDSEC
0
SECTION
2
TABLES
0
TABLE
2
VPORT
5
8
100
AcDbSymbolTable
0
ENDTAB
0
TABLE
2
LTYPE
5
5
100
AcDbSymbolTable
0
LTYPE
5
14
100
AcDbSymbolTableRecord
100
AcDbLinetypeTableRecord
2
BYBLOCK
70
0
0
LTYPE
5
15
100
AcDbSymbolTableRecord
100
AcDbLinetypeTableRecord
2
BYLAYER
70
0
0
ENDTAB
0
TABLE
2
LAYER
5
2
100
AcDbSymbolTable
70
2
0
LAYER
5
50
100
AcDbSymbolTableRecord
100
AcDbLayerTableRecord
2
0
70
0
6
CONTINUOUS
0
ENDTAB
0
TABLE
2
STYLE
5
3
100
AcDbSymbolTable
70
1
0
STYLE
5
11
100
AcDbSymbolTableRecord
100
AcDbTextStyleTableRecord
2
STANDARD
70
0
0
ENDTAB
0
TABLE
2
VIEW
5
6
100
AcDbSymbolTable
70
0
0
ENDTAB
0
TABLE
2
UCS
5
7
100
AcDbSymbolTable
70
0
0
ENDTAB
0
TABLE
2
APPID
5
9
100
AcDbSymbolTable
70
2
0
APPID
5
12
100
AcDbSymbolTableRecord
100
AcDbRegAppTableRecord
2
ACAD
70
0
0
ENDTAB
0
TABLE
2
DIMSTYLE
5
A
100
AcDbSymbolTable
70
1
0
ENDTAB
0
TABLE
2
BLOCK_RECORD
5
1
100
AcDbSymbolTable
70
1
0
BLOCK_RECORD
5
1F
100
AcDbSymbolTableRecord
100
AcDbBlockTableRecord
2
*MODEL_SPACE
0
BLOCK_RECORD
5
1B
100
AcDbSymbolTableRecord
100
AcDbBlockTableRecord
2
*PAPER_SPACE
0
ENDTAB
0
ENDSEC
0
SECTION
2
BLOCKS
0
BLOCK
5
20
100
AcDbEntity
100
AcDbBlockBegin
2
*MODEL_SPACE
0
ENDBLK
5
21
100
AcDbEntity
100
AcDbBlockEnd
0
BLOCK
5
1C
100
AcDbEntity
100
AcDbBlockBegin
2
*PAPER_SPACE
0
ENDBLK
5
1D
100
AcDbEntity
100
AcDbBlockEnd
0
ENDSEC
0
SECTION
2
ENTITIES
0
LWPOLYLINE
5
100
100
AcDbEntity
8
0
100
AcDbPolyline
90
12
70
1
43
0.0
10
513
20
-25.999999999999993
42
-0.41421356237309681
10
510
20
-23.000000000000004
10
510
20
-1.00000000000001
42
-0.41421356237310336
10
515
20
3.9999999999999902
10
535
20
3.9999999999999902
42
-0.41421356237310336
10
540
20
-1.0000000000000098
10
540
20
-23.000000000000004
42
-0.41421356237309681
10
537
20
-26.000000000000011
10
535
20
-26.000000000000011
10
535
20
-39.000000000004327
10
514.99999999997181
20
-39.000000000004327
10
515.00000000000182
20
-26.000000000004327
0
SPLINE
5
101
100
AcDbEntity
8
0
100
AcDbSpline
70
0
71
2
72
6
73
3
74
0
42
0.000000001
43
0.0000000001
44
0.0000000001
40
0
40
0
40
0
40
1
40
1
40
1
10
516.234396919608
20
-6.6858539581215215
30
0
10
516.234396919608
20
-5.021499156943543
30
0
10
516.84466026723373
20
-3.731623649589022
30
0
0
SPLINE
5
102
100
AcDbEntity
8
0
100
AcDbSpline
70
0
71
2
72
6
73
3
74
0
42
0.000000001
43
0.0000000001
44
0.0000000001
40
0
40
0
40
0
40
1
40
1
40
1
10
516.84466026723373
20
-3.731623649589022
30
0
10
517.45492421090592
20
-2.4417481422345011
30
0
10
518.57836388051498
20
-1.5540931224747689
30
0
0
SPLINE
5
103
100
AcDbEntity
8
0
100
AcDbSpline
70
0
71
2
72
6
73
3
74
0
42
0.000000001
43
0.0000000001
44
0.0000000001
40
0
40
0
40
0
40
1
40
1
40
1
10
518.57836388051498
20
-1.5540931224747689
30
0
10
519.70180295407761
20
-0.66643571852924355
30
0
10
521.32454894483078
20
-0.20873880385696597
30
0
0
SPLINE
5
104
100
AcDbEntity
8
0
100
AcDbSpline
70
0
71
2
72
6
73
3
74
0
42
0.000000001
43
0.0000000001
44
0.0000000001
40
0
40
0
40
0
40
1
40
1
40
1
10
521.32454894483078
20
-0.20873880385696597
30
0
10
522.94729612767685
20
0.24895811081531161
30
0
10
525.0000002235173
20
0.24895811081458552
30
0
0
SPLINE
5
105
100
AcDbEntity
8
0
100
AcDbSpline
70
0
71
2
72
6
73
3
74
0
42
0.000000001
43
0.0000000001
44
0.0000000001
40
0
40
0
40
0
40
1
40
1
40
1
10
525.0000002235173
20
0.24895811081458552
30
0
10
527.02496550977219
20
0.24895811081386943
30
0
10
528.66158150136459
20
-0.20873880385956167
30
0
0
SPLINE
5
106
100
AcDbEntity
8
0
100
AcDbSpline
70
0
71
2
72
6
73
3
74
0
42
0.000000001
43
0.0000000001
44
0.0000000001
40
0
40
0
40
0
40
1
40
1
40
1
10
528.66158150136459
20
-0.20873880385956167
30
0
10
530.298197492957
20
-0.66643571853299166
30
0
10
531.42163775861252
20
-1.554093122479312
30
0
0
SPLINE
5
107
100
AcDbEntity
8
0
100
AcDbSpline
70
0
71
2
72
6
73
3
74
0
42
0.000000001
43
0.0000000001
44
0.0000000001
40
0
40
0
40
0
40
1
40
1
40
1
10
531.42163775861252
20
-1.554093122479312
30
0
10
532.54507564008225
20
-2.4417481422398413
30
0
10
533.15534137189377
20
-3.731623649594793
30
0
0
SPLINE
5
108
100
AcDbEntity
8
0
100
AcDbSpline
70
0
71
2
72
6
73
3
74
0
42
0.000000001
43
0.0000000001
44
0.0000000001
40
0
40
0
40
0
40
1
40
1
40
1
10
533.15534137189377
20
-3.731623649594793
30
0
10
533.76560233533371
20
-5.0214991569497442
30
0
10
533.76560233533371
20
-6.6858539581277228
30
0
0
SPLINE
5
109
100
AcDbEntity
8
0
100
AcDbSpline
70
0
71
2
72
6
73
3
74
0
42
0.000000001
43
0.0000000001
44
0.0000000001
40
0
40
0
40
0
40
1
40
1
40
1
10
533.76560233533371
20
-6.6858539581277228
30
0
10
533.76560233533371
20
-8.3502087593057013
30
0
10
533.15534137189377
20
-9.6400842666602227
30
0
0
SPLINE
5
110
100
AcDbEntity
8
0
100
AcDbSpline
70
0
71
2
72
6
73
3
74
0
42
0.000000001
43
0.0000000001
44
0.0000000001
40
0
40
0
40
0
40
1
40
1
40
1
10
533.15534137189377
20
-9.6400842666602227
30
0
10
532.54507564008225
20
-10.929959774014744
30
0
10
531.42163775861252
20
-11.817615985867373
30
0
0
SPLINE
5
111
100
AcDbEntity
8
0
100
AcDbSpline
70
0
71
2
72
6
73
3
74
0
42
0.000000001
43
0.0000000001
44
0.0000000001
40
0
40
0
40
0
40
1
40
1
40
1
10
531.42163775861252
20
-11.817615985867373
30
0
10
530.298197492957
20
-12.705272197720001
30
0
10
528.66158150136459
20
-13.162969112392272
30
0
0
SPLINE
5
112
100
AcDbEntity
8
0
100
AcDbSpline
70
0
71
2
72
6
73
3
74
0
42
0.000000001
43
0.0000000001
44
0.0000000001
40
0
40
0
40
0
40
1
40
1
40
1
10
528.66158150136459
20
-13.162969112392272
30
0
10
527.02496550977219
20
-13.620666027064544
30
0
10
525.0000002235173
20
-13.62066602706383
30
0
0
SPLINE
5
113
100
AcDbEntity
8
0
100
AcDbSpline
70
0
71
2
72
6
73
3
74
0
42
0.000000001
43
0.0000000001
44
0.0000000001
40
0
40
0
40
0
40
1
40
1
40
1
10
525.0000002235173
20
-13.62066602706383
30
0
10
522.94729612767685
20
-13.620666027063102
30
0
10
521.32454894483078
20
-13.162969112389678
30
0
0
SPLINE
5
114
100
AcDbEntity
8
0
100
AcDbSpline
70
0
71
2
72
6
73
3
74
0
42
0.000000001
43
0.0000000001
44
0.0000000001
40
0
40
0
40
0
40
1
40
1
40
1
10
521.32454894483078
20
-13.162969112389678
30
0
10
519.70180295407761
20
-12.705272197716253
30
0
10
518.57836388051498
20
-11.817615985862828
30
0
0
SPLINE
5
115
100
AcDbEntity
8
0
100
AcDbSpline
70
0
71
2
72
6
73
3
74
0
42
0.000000001
43
0.0000000001
44
0.0000000001
40
0
40
0
40
0
40
1
40
1
40
1
10
518.57836388051498
20
-11.817615985862828
30
0
10
517.45492421090592
20
-10.929959774009404
30
0
10
516.84466026723373
20
-9.6400842666544513
30
0
0
SPLINE
5
116
100
AcDbEntity
8
0
100
AcDbSpline
70
0
71
2
72
6
73
3
74
0
42
0.000000001
43
0.0000000001
44
0.0000000001
40
0
40
0
40
0
40
1
40
1
40
1
10
516.84466026723373
20
-9.6400842666544513
30
0
10
516.234396919608
20
-8.3502087592995
30
0
10
516.234396919608
20
-6.6858539581215215
30
0
0
SPLINE
5
117
100
AcDbEntity
8
0
100
AcDbSpline
70
0
71
2
72
6
73
3
74
0
42
0.000000001
43
0.0000000001
44
0.0000000001
40
0
40
0
40
0
40
1
40
1
40
1
10
530.21497987210739
20
-6.6858539581264669
30
0
10
530.21497987210739
20
-5.8536765575374776
30
0
10
529.92371581494797
20
-5.132455587383566
30
0
0
SPLINE
5
118
100
AcDbEntity
8
0
100
AcDbSpline
70
0
71
2
72
6
73
3
74
0
42
0.000000001
43
0.0000000001
44
0.0000000001
40
0
40
0
40
0
40
1
40
1
40
1
10
529.92371581494797
20
-5.132455587383566
30
0
10
529.63245414197434
20
-4.4112358093225517
30
0
10
528.99445198476303
20
-3.8841900825462017
30
0
0
SPLINE
5
119
100
AcDbEntity
8
0
100
AcDbSpline
70
0
71
2
72
6
73
3
74
0
42
0.000000001
43
0.0000000001
44
0.0000000001
40
0
40
0
40
0
40
1
40
1
40
1
10
528.99445198476303
20
-3.8841900825462017
30
0
10
528.35644982755173
20
-3.3571443557698522
30
0
10
527.37170599400986
20
-3.0520114898637418
30
0
0
SPLINE
5
120
100
AcDbEntity
8
0
100
AcDbSpline
70
0
71
2
72
6
73
3
74
0
42
0.000000001
43
0.0000000001
44
0.0000000001
40
0
40
0
40
0
40
1
40
1
40
1
10
527.37170599400986
20
-3.0520114898637418
30
0
10
526.38696335256088
20
-2.746879816050527
30
0
10
525.0000002235173
20
-2.7468798160500363
30
0
0
SPLINE
5
121
100
AcDbEntity
8
0
100
AcDbSpline
70
0
71
2
72
6
73
3
74
0
42
0.000000001
43
0.0000000001
44
0.0000000001
40
0
40
0
40
0
40
1
40
1
40
1
10
525.0000002235173
20
-2.7468798160500363
30
0
10
523.61303828656662
20
-2.7468798160495456
30
0
10
522.62829445302475
20
-3.0520114898620654
30
0
0
SPLINE
5
122
100
AcDbEntity
8
0
100
AcDbSpline
70
0
71
2
72
6
73
3
74
0
42
0.000000001
43
0.0000000001
44
0.0000000001
40
0
40
0
40
0
40
1
40
1
40
1
10
522.62829445302475
20
-3.0520114898620654
30
0
10
521.64355061948288
20
-3.3571443557674785
30
0
10
521.00554846227158
20
-3.8841900825433751
30
0
0
SPLINE
5
123
100
AcDbEntity
8
0
100
AcDbSpline
70
0
71
2
72
6
73
3
74
0
42
0.000000001
43
0.0000000001
44
0.0000000001
40
0
40
0
40
0
40
1
40
1
40
1
10
521.00554846227158
20
-3.8841900825433751
30
0
10
520.36754630506027
20
-4.4112358093192716
30
0
10
520.07628343999374
20
-5.1324555873800826
30
0
0
SPLINE
5
124
100
AcDbEntity
8
0
100
AcDbSpline
70
0
71
2
72
6
73
3
74
0
42
0.000000001
43
0.0000000001
44
0.0000000001
40
0
40
0
40
0
40
1
40
1
40
1
10
520.07628343999374
20
-5.1324555873800826
30
0
10
519.78502057492722
20
-5.853676557533789
30
0
10
519.78502057492722
20
-6.6858539581227783
30
0
0
SPLINE
5
125
100
AcDbEntity
8
0
100
AcDbSpline
70
0
71
2
72
6
73
3
74
0
42
0.000000001
43
0.0000000001
44
0.0000000001
40
0
40
0
40
0
40
1
40
1
40
1
10
519.78502057492722
20
-6.6858539581227783
30
0
10
519.78502057492722
20
-7.5180313587117675
30
0
10
520.07628343999374
20
-8.2392523288656783
30
0
0
SPLINE
5
126
100
AcDbEntity
8
0
100
AcDbSpline
70
0
71
2
72
6
73
3
74
0
42
0.000000001
43
0.0000000001
44
0.0000000001
40
0
40
0
40
0
40
1
40
1
40
1
10
520.07628343999374
20
-8.2392523288656783
30
0
10
520.36754630506027
20
-8.9604721069266944
30
0
10
521.00554846227158
20
-9.487517833703043
30
0
0
SPLINE
5
127
100
AcDbEntity
8
0
100
AcDbSpline
70
0
71
2
72
6
73
3
74
0
42
0.000000001
43
0.0000000001
44
0.0000000001
40
0
40
0
40
0
40
1
40
1
40
1
10
521.00554846227158
20
-9.487517833703043
30
0
10
521.64355061948288
20
-10.014563560479392
30
0
10
522.62829445302475
20
-10.319695234292608
30
0
0
SPLINE
5
128
100
AcDbEntity
8
0
100
AcDbSpline
70
0
71
2
72
6
73
3
74
0
42
0.000000001
43
0.0000000001
44
0.0000000001
40
0
40
0
40
0
40
1
40
1
40
1
10
522.62829445302475
20
-10.319695234292608
30
0
10
523.61303828656662
20
-10.62482690810582
30
0
10
525.0000002235173
20
-10.624826908106311
30
0
0
SPLINE
5
129
100
AcDbEntity
8
0
100
AcDbSpline
70
0
71
2
72
6
73
3
74
0
42
0.000000001
43
0.0000000001
44
0.0000000001
40
0
40
0
40
0
40
1
40
1
40
1
10
525.0000002235173
20
-10.624826908106311
30
0
10
526.38696335256088
20
-10.624826908106801
30
0
10
527.37170599400986
20
-10.319695234294283
30
0
0
SPLINE
5
130
100
AcDbEntity
8
0
100
AcDbSpline
70
0
71
2
72
6
73
3
74
0
42
0.000000001
43
0.0000000001
44
0.0000000001
40
0
40
0
40
0
40
1
40
1
40
1
10
527.37170599400986
20
-10.319695234294283
30
0
10
528.35644982755173
20
-10.014563560481767
30
0
10
528.99445198476303
20
-9.4875178337058692
30
0
0
SPLINE
5
131
100
AcDbEntity
8
0
100
AcDbSpline
70
0
71
2
72
6
73
3
74
0
42
0.000000001
43
0.0000000001
44
0.0000000001
40
0
40
0
40
0
40
1
40
1
40
1
10
528.99445198476303
20
-9.4875178337058692
30
0
10
529.63245414197434
20
-8.9604721069299735
30
0
10
529.92371581494797
20
-8.2392523288691617
30
0
0
SPLINE
5
132
100
AcDbEntity
8
0
100
AcDbSpline
70
0
71
2
72
6
73
3
74
0
42
0.000000001
43
0.0000000001
44
0.0000000001
40
0
40
0
40
0
40
1
40
1
40
1
10
529.92371581494797
20
-8.2392523288691617
30
0
10
530.21497987210739
20
-7.5180313587154561
30
0
10
530.21497987210739
20
-6.6858539581264669
30
0
0
SPLINE
5
133
100
AcDbEntity
8
0
100
AcDbSpline
70
0
71
2
72
6
73
3
74
0
42
0.000000001
43
0.0000000001
44
0.0000000001
40
0
40
0
40
0
40
1
40
1
40
1
10
514.51456390321232
20
-20.749653339377012
30
0
10
513.87656114995457
20
-20.749653339376792
30
0
10
513.5714294761417
20
-20.305825233450165
30
0
0
SPLINE
5
134
100
AcDbEntity
8
0
100
AcDbSpline
70
0
71
2
72
6
73
3
74
0
42
0.000000001
43
0.0000000001
44
0.0000000001
40
0
40
0
40
0
40
1
40
1
40
1
10
513.5714294761417
20
-20.305825233450165
30
0
10
513.26629750430561
20
-19.861997127523544
30
0
10
513.26629750430561
20
-19.251733779897812
30
0
0
SPLINE
5
135
100
AcDbEntity
8
0
100
AcDbSpline
70
0
71
2
72
6
73
3
74
0
42
0.000000001
43
0.0000000001
44
0.0000000001
40
0
40
0
40
0
40
1
40
1
40
1
10
513.26629750430561
20
-19.251733779897812
30
0
10
513.26629750430561
20
-18.641470432272079
30
0
10
513.5714294761417
20
-18.197642326345672
30
0
0
SPLINE
5
136
100
AcDbEntity
8
0
100
AcDbSpline
70
0
71
2
72
6
73
3
74
0
42
0.000000001
43
0.0000000001
44
0.0000000001
40
0
40
0
40
0
40
1
40
1
40
1
10
513.5714294761417
20
-18.197642326345672
30
0
10
513.87656114995457
20
-17.753814220419272
30
0
10
514.51456390321232
20
-17.753814220419493
30
0
0
LINE
5
137
100
AcDbEntity
8
0
100
AcDbLine
10
514.51456390321243
20
-17.753814220419493
30
0
11
523.22468779981114
21
-17.753814220422576
31
0
0
LINE
5
138
100
AcDbEntity
8
0
100
AcDbLine
10
526.77531264722325
20
-17.753814220423831
30
0
11
535.48543475568272
21
-17.753814220426914
31
0
0
SPLINE
5
139
100
AcDbEntity
8
0
100
AcDbSpline
70
0
71
2
72
6
73
3
74
0
42
0.000000001
43
0.0000000001
44
0.0000000001
40
0
40
0
40
0
40
1
40
1
40
1
10
535.48543475568272
20
-17.753814220426914
30
0
10
536.12343810498692
20
-17.753814220427138
30
0
10
536.42857097089268
20
-18.197642326353758
30
0
0
SPLINE
5
140
100
AcDbEntity
8
0
100
AcDbSpline
70
0
71
2
72
6
73
3
74
0
42
0.000000001
43
0.0000000001
44
0.0000000001
40
0
40
0
40
0
40
1
40
1
40
1
10
536.42857097089268
20
-18.197642326353758
30
0
10
536.73370383679844
20
-18.641470432280386
30
0
10
536.73370383679844
20
-19.251733779906118
30
0
0
SPLINE
5
141
100
AcDbEntity
8
0
100
AcDbSpline
70
0
71
2
72
6
73
3
74
0
42
0.000000001
43
0.0000000001
44
0.0000000001
40
0
40
0
40
0
40
1
40
1
40
1
10
536.73370383679844
20
-19.251733779906118
30
0
10
536.73370383679844
20
-19.861997127531851
30
0
10
536.42857097089268
20
-20.305825233458251
30
0
0
SPLINE
5
142
100
AcDbEntity
8
0
100
AcDbSpline
70
0
71
2
72
6
73
3
74
0
42
0.000000001
43
0.0000000001
44
0.0000000001
40
0
40
0
40
0
40
1
40
1
40
1
10
536.42857097089268
20
-20.305825233458251
30
0
10
536.12343810498692
20
-20.749653339384658
30
0
10
535.48543475568272
20
-20.749653339384434
30
0
0
LINE
5
143
100
AcDbEntity
8
0
100
AcDbLine
10
535.48543475568272
20
-20.749653339384434
30
0
11
514.51456390321232
21
-20.749653339377012
31
0
0
LINE
5
144
100
AcDbEntity
8
0
100
AcDbLine
10
526.77531264722325
20
-17.753814220423831
30
0
11
526.7753126472245
21
-14.238851701787329
31
0
0
LINE
5
145
100
AcDbEntity
8
0
100
AcDbLine
10
526.7753126472245
20
-14.238851701787329
30
0
11
523.22468779981114
21
-14.238851701786038
31
0
0
LINE
5
146
100
AcDbEntity
8
0
100
AcDbLine
10
523.22468779981114
20
-14.238851701786038
30
0
11
523.22468779981114
21
-17.753814220422576
31
0
0
ENDSEC
0
SECTION
2
OBJECTS
0
DICTIONARY
5
C
100
AcDbDictionary
3
ACAD_GROUP
350
D
3
ACAD_MLINESTYLE
350
17
0
DICTIONARY
5
D
100
AcDbDictionary
0
DICTIONARY
5
1A
330
C
100
AcDbDictionary
0
DICTIONARY
5
17
100
AcDbDictionary
0
ENDSEC
0
EOF
