0
SECTION
2
HEADER
9
$INSUNITS
70
4
9
$ACADVER
1
AC1014
9
$HANDSEED
5
FFFF
0
ENDSEC
0
SECTION
2
TABLES
0
TABLE
2
VPORT
5
8
100
AcDbSymbolTable
0
ENDTAB
0
TABLE
2
LTYPE
5
5
100
AcDbSymbolTable
0
LTYPE
5
14
100
AcDbSymbolTableRecord
100
AcDbLinetypeTableRecord
2
BYBLOCK
70
0
0
LTYPE
5
15
100
AcDbSymbolTableRecord
100
AcDbLinetypeTableRecord
2
BYLAYER
70
0
0
ENDTAB
0
TABLE
2
LAYER
5
2
100
AcDbSymbolTable
70
2
0
LAYER
5
50
100
AcDbSymbolTableRecord
100
AcDbLayerTableRecord
2
0
70
0
6
CONTINUOUS
0
ENDTAB
0
TABLE
2
STYLE
5
3
100
AcDbSymbolTable
70
1
0
STYLE
5
11
100
AcDbSymbolTableRecord
100
AcDbTextStyleTableRecord
2
STANDARD
70
0
0
ENDTAB
0
TABLE
2
VIEW
5
6
100
AcDbSymbolTable
70
0
0
ENDTAB
0
TABLE
2
UCS
5
7
100
AcDbSymbolTable
70
0
0
ENDTAB
0
TABLE
2
APPID
5
9
100
AcDbSymbolTable
70
2
0
APPID
5
12
100
AcDbSymbolTableRecord
100
AcDbRegAppTableRecord
2
ACAD
70
0
0
ENDTAB
0
TABLE
2
DIMSTYLE
5
A
100
AcDbSymbolTable
70
1
0
ENDTAB
0
TABLE
2
BLOCK_RECORD
5
1
100
AcDbSymbolTable
70
1
0
BLOCK_RECORD
5
1F
100
AcDbSymbolTableRecord
100
AcDbBlockTableRecord
2
*MODEL_SPACE
0
BLOCK_RECORD
5
1B
100
AcDbSymbolTableRecord
100
AcDbBlockTableRecord
2
*PAPER_SPACE
0
ENDTAB
0
ENDSEC
0
SECTION
2
BLOCKS
0
BLOCK
5
20
100
AcDbEntity
100
AcDbBlockBegin
2
*MODEL_SPACE
0
ENDBLK
5
21
100
AcDbEntity
100
AcDbBlockEnd
0
BLOCK
5
1C
100
AcDbEntity
100
AcDbBlockBegin
2
*PAPER_SPACE
0
ENDBLK
5
1D
100
AcDbEntity
100
AcDbBlockEnd
0
ENDSEC
0
SECTION
2
ENTITIES
0
LWPOLYLINE
5
100
100
AcDbEntity
8
0
100
AcDbPolyline
90
17
70
1
43
0.0
10
250
20
-188.5
10
250
20
-165
42
-0.41421356237310336
10
255
20
-160
10
275
20
-160
42
-0.41421356237310336
10
280
20
-165
10
279.99999999999994
20
-188.5
42
-0.41421356237309503
10
278.49999999999994
20
-190
10
278
20
-190
10
278
20
-202.99999999999829
10
267.00000000000796
20
-203.000000000005
10
267
20
-190.00000000000011
10
265
20
-190
10
263
20
-189.99999999999989
10
263.00000000000796
20
-203.00000000000747
10
251.99999999990752
20
-203.00000000001418
10
252
20
-190.00000000001418
10
251.49999999998937
20
-190
42
-0.41421356237102086
0
LINE
5
101
100
AcDbEntity
8
0
100
AcDbLine
10
265
20
-190
30
0
11
265
21
-160
31
0
0
SPLINE
5
102
100
AcDbEntity
8
0
100
AcDbSpline
70
0
71
2
72
6
73
3
74
0
42
0.000000001
43
0.0000000001
44
0.0000000001
40
0
40
0
40
0
40
1
40
1
40
1
10
268.33633817732334
20
-165.90846061706543
30
0
10
268.33633817732334
20
-165.1178914308548
30
0
10
268.6262134462595
20
-164.50520098209381
30
0
0
SPLINE
5
103
100
AcDbEntity
8
0
100
AcDbSpline
70
0
71
2
72
6
73
3
74
0
42
0.000000001
43
0.0000000001
44
0.0000000001
40
0
40
0
40
0
40
1
40
1
40
1
10
268.6262134462595
20
-164.50520098209381
30
0
10
268.91608841717243
20
-163.89250993728638
30
0
10
269.4497225433588
20
-163.47087383270264
30
0
0
SPLINE
5
104
100
AcDbEntity
8
0
100
AcDbSpline
70
0
71
2
72
6
73
3
74
0
42
0.000000001
43
0.0000000001
44
0.0000000001
40
0
40
0
40
0
40
1
40
1
40
1
10
269.4497225433588
20
-163.47087383270264
30
0
10
269.98335666954517
20
-163.04923713207245
30
0
10
270.75416035950184
20
-162.83183038234711
30
0
0
SPLINE
5
105
100
AcDbEntity
8
0
100
AcDbSpline
70
0
71
2
72
6
73
3
74
0
42
0.000000001
43
0.0000000001
44
0.0000000001
40
0
40
0
40
0
40
1
40
1
40
1
10
270.75416035950184
20
-162.83183038234711
30
0
10
271.5249652415514
20
-162.61442422866821
30
0
10
272.50000007450581
20
-162.61442422866821
30
0
0
SPLINE
5
106
100
AcDbEntity
8
0
100
AcDbSpline
70
0
71
2
72
6
73
3
74
0
42
0.000000001
43
0.0000000001
44
0.0000000001
40
0
40
0
40
0
40
1
40
1
40
1
10
272.50000007450581
20
-162.61442422866821
30
0
10
273.46185870468616
20
-162.61442422866821
30
0
10
274.2392510920763
20
-162.83183038234711
30
0
0
SPLINE
5
107
100
AcDbEntity
8
0
100
AcDbSpline
70
0
71
2
72
6
73
3
74
0
42
0.000000001
43
0.0000000001
44
0.0000000001
40
0
40
0
40
0
40
1
40
1
40
1
10
274.2392510920763
20
-162.83183038234711
30
0
10
275.01664347946644
20
-163.04923713207245
30
0
10
275.55027671158314
20
-163.47087383270264
30
0
0
SPLINE
5
108
100
AcDbEntity
8
0
100
AcDbSpline
70
0
71
2
72
6
73
3
74
0
42
0.000000001
43
0.0000000001
44
0.0000000001
40
0
40
0
40
0
40
1
40
1
40
1
10
275.55027671158314
20
-163.47087383270264
30
0
10
276.08391113579273
20
-163.89250993728638
30
0
10
276.37378640472889
20
-164.50520098209381
30
0
0
SPLINE
5
109
100
AcDbEntity
8
0
100
AcDbSpline
70
0
71
2
72
6
73
3
74
0
42
0.000000001
43
0.0000000001
44
0.0000000001
40
0
40
0
40
0
40
1
40
1
40
1
10
276.37378640472889
20
-164.50520098209381
30
0
10
276.66366048157215
20
-165.1178914308548
30
0
10
276.66366048157215
20
-165.90846061706543
30
0
0
SPLINE
5
110
100
AcDbEntity
8
0
100
AcDbSpline
70
0
71
2
72
6
73
3
74
0
42
0.000000001
43
0.0000000001
44
0.0000000001
40
0
40
0
40
0
40
1
40
1
40
1
10
276.66366048157215
20
-165.90846061706543
30
0
10
276.66366048157215
20
-166.69902920722961
30
0
10
276.37378640472889
20
-167.3117196559906
30
0
0
SPLINE
5
111
100
AcDbEntity
8
0
100
AcDbSpline
70
0
71
2
72
6
73
3
74
0
42
0.000000001
43
0.0000000001
44
0.0000000001
40
0
40
0
40
0
40
1
40
1
40
1
10
276.37378640472889
20
-167.3117196559906
30
0
10
276.08391113579273
20
-167.92441070079803
30
0
10
275.55027671158314
20
-168.34604680538177
30
0
0
SPLINE
5
112
100
AcDbEntity
8
0
100
AcDbSpline
70
0
71
2
72
6
73
3
74
0
42
0.000000001
43
0.0000000001
44
0.0000000001
40
0
40
0
40
0
40
1
40
1
40
1
10
275.55027671158314
20
-168.34604680538177
30
0
10
275.01664347946644
20
-168.76768410205841
30
0
10
274.2392510920763
20
-168.98508965969086
30
0
0
SPLINE
5
113
100
AcDbEntity
8
0
100
AcDbSpline
70
0
71
2
72
6
73
3
74
0
42
0.000000001
43
0.0000000001
44
0.0000000001
40
0
40
0
40
0
40
1
40
1
40
1
10
274.2392510920763
20
-168.98508965969086
30
0
10
273.46185870468616
20
-169.2024964094162
30
0
10
272.50000007450581
20
-169.2024964094162
30
0
0
SPLINE
5
114
100
AcDbEntity
8
0
100
AcDbSpline
70
0
71
2
72
6
73
3
74
0
42
0.000000001
43
0.0000000001
44
0.0000000001
40
0
40
0
40
0
40
1
40
1
40
1
10
272.50000007450581
20
-169.2024964094162
30
0
10
271.5249652415514
20
-169.2024964094162
30
0
10
270.75416035950184
20
-168.98508965969086
30
0
0
SPLINE
5
115
100
AcDbEntity
8
0
100
AcDbSpline
70
0
71
2
72
6
73
3
74
0
42
0.000000001
43
0.0000000001
44
0.0000000001
40
0
40
0
40
0
40
1
40
1
40
1
10
270.75416035950184
20
-168.98508965969086
30
0
10
269.98335666954517
20
-168.76768410205841
30
0
10
269.4497225433588
20
-168.34604680538177
30
0
0
SPLINE
5
116
100
AcDbEntity
8
0
100
AcDbSpline
70
0
71
2
72
6
73
3
74
0
42
0.000000001
43
0.0000000001
44
0.0000000001
40
0
40
0
40
0
40
1
40
1
40
1
10
269.4497225433588
20
-168.34604680538177
30
0
10
268.91608841717243
20
-167.92441070079803
30
0
10
268.6262134462595
20
-167.3117196559906
30
0
0
SPLINE
5
117
100
AcDbEntity
8
0
100
AcDbSpline
70
0
71
2
72
6
73
3
74
0
42
0.000000001
43
0.0000000001
44
0.0000000001
40
0
40
0
40
0
40
1
40
1
40
1
10
268.6262134462595
20
-167.3117196559906
30
0
10
268.33633817732334
20
-166.69902920722961
30
0
10
268.33633817732334
20
-165.90846061706543
30
0
0
SPLINE
5
118
100
AcDbEntity
8
0
100
AcDbSpline
70
0
71
2
72
6
73
3
74
0
42
0.000000001
43
0.0000000001
44
0.0000000001
40
0
40
0
40
0
40
1
40
1
40
1
10
274.97711487114429
20
-165.90846061706543
30
0
10
274.97711487114429
20
-165.51317572593689
30
0
10
274.83876533806324
20
-165.17059624195099
30
0
0
SPLINE
5
119
100
AcDbEntity
8
0
100
AcDbSpline
70
0
71
2
72
6
73
3
74
0
42
0.000000001
43
0.0000000001
44
0.0000000001
40
0
40
0
40
0
40
1
40
1
40
1
10
274.83876533806324
20
-165.17059624195099
30
0
10
274.70041580498219
20
-164.82801675796509
30
0
10
274.39736492931843
20
-164.57766950130463
30
0
0
SPLINE
5
120
100
AcDbEntity
8
0
100
AcDbSpline
70
0
71
2
72
6
73
3
74
0
42
0.000000001
43
0.0000000001
44
0.0000000001
40
0
40
0
40
0
40
1
40
1
40
1
10
274.39736492931843
20
-164.57766950130463
30
0
10
274.09431345760822
20
-164.32732284069061
30
0
10
273.62656004726887
20
-164.18238520622253
30
0
0
SPLINE
5
121
100
AcDbEntity
8
0
100
AcDbSpline
70
0
71
2
72
6
73
3
74
0
42
0.000000001
43
0.0000000001
44
0.0000000001
40
0
40
0
40
0
40
1
40
1
40
1
10
273.62656004726887
20
-164.18238520622253
30
0
10
273.15880723297596
20
-164.03744757175446
30
0
10
272.50000007450581
20
-164.03744757175446
30
0
0
SPLINE
5
122
100
AcDbEntity
8
0
100
AcDbSpline
70
0
71
2
72
6
73
3
74
0
42
0.000000001
43
0.0000000001
44
0.0000000001
40
0
40
0
40
0
40
1
40
1
40
1
10
272.50000007450581
20
-164.03744757175446
30
0
10
271.8411923199892
20
-164.03744757175446
30
0
10
271.3734395056963
20
-164.18238520622253
30
0
0
SPLINE
5
123
100
AcDbEntity
8
0
100
AcDbSpline
70
0
71
2
72
6
73
3
74
0
42
0.000000001
43
0.0000000001
44
0.0000000001
40
0
40
0
40
0
40
1
40
1
40
1
10
271.3734395056963
20
-164.18238520622253
30
0
10
270.90568609535694
20
-164.32732284069061
30
0
10
270.60263521969318
20
-164.57766950130463
30
0
0
SPLINE
5
124
100
AcDbEntity
8
0
100
AcDbSpline
70
0
71
2
72
6
73
3
74
0
42
0.000000001
43
0.0000000001
44
0.0000000001
40
0
40
0
40
0
40
1
40
1
40
1
10
270.60263521969318
20
-164.57766950130463
30
0
10
270.29958374798298
20
-164.82801675796509
30
0
10
270.16123421490192
20
-165.17059624195099
30
0
0
SPLINE
5
125
100
AcDbEntity
8
0
100
AcDbSpline
70
0
71
2
72
6
73
3
74
0
42
0.000000001
43
0.0000000001
44
0.0000000001
40
0
40
0
40
0
40
1
40
1
40
1
10
270.16123421490192
20
-165.17059624195099
30
0
10
270.02288468182087
20
-165.51317572593689
30
0
10
270.02288468182087
20
-165.90846061706543
30
0
0
SPLINE
5
126
100
AcDbEntity
8
0
100
AcDbSpline
70
0
71
2
72
6
73
3
74
0
42
0.000000001
43
0.0000000001
44
0.0000000001
40
0
40
0
40
0
40
1
40
1
40
1
10
270.02288468182087
20
-165.90846061706543
30
0
10
270.02288468182087
20
-166.30374491214752
30
0
10
270.16123421490192
20
-166.64632439613342
30
0
0
SPLINE
5
127
100
AcDbEntity
8
0
100
AcDbSpline
70
0
71
2
72
6
73
3
74
0
42
0.000000001
43
0.0000000001
44
0.0000000001
40
0
40
0
40
0
40
1
40
1
40
1
10
270.16123421490192
20
-166.64632439613342
30
0
10
270.29958374798298
20
-166.98890447616577
30
0
10
270.60263521969318
20
-167.23925113677979
30
0
0
SPLINE
5
128
100
AcDbEntity
8
0
100
AcDbSpline
70
0
71
2
72
6
73
3
74
0
42
0.000000001
43
0.0000000001
44
0.0000000001
40
0
40
0
40
0
40
1
40
1
40
1
10
270.60263521969318
20
-167.23925113677979
30
0
10
270.90568609535694
20
-167.4895977973938
30
0
10
271.3734395056963
20
-167.63453543186188
30
0
0
SPLINE
5
129
100
AcDbEntity
8
0
100
AcDbSpline
70
0
71
2
72
6
73
3
74
0
42
0.000000001
43
0.0000000001
44
0.0000000001
40
0
40
0
40
0
40
1
40
1
40
1
10
271.3734395056963
20
-167.63453543186188
30
0
10
271.8411923199892
20
-167.77947247028351
30
0
10
272.50000007450581
20
-167.77947247028351
30
0
0
SPLINE
5
130
100
AcDbEntity
8
0
100
AcDbSpline
70
0
71
2
72
6
73
3
74
0
42
0.000000001
43
0.0000000001
44
0.0000000001
40
0
40
0
40
0
40
1
40
1
40
1
10
272.50000007450581
20
-167.77947247028351
30
0
10
273.15880723297596
20
-167.77947247028351
30
0
10
273.62656004726887
20
-167.63453543186188
30
0
0
SPLINE
5
131
100
AcDbEntity
8
0
100
AcDbSpline
70
0
71
2
72
6
73
3
74
0
42
0.000000001
43
0.0000000001
44
0.0000000001
40
0
40
0
40
0
40
1
40
1
40
1
10
273.62656004726887
20
-167.63453543186188
30
0
10
274.09431345760822
20
-167.4895977973938
30
0
10
274.39736492931843
20
-167.23925113677979
30
0
0
SPLINE
5
132
100
AcDbEntity
8
0
100
AcDbSpline
70
0
71
2
72
6
73
3
74
0
42
0.000000001
43
0.0000000001
44
0.0000000001
40
0
40
0
40
0
40
1
40
1
40
1
10
274.39736492931843
20
-167.23925113677979
30
0
10
274.70041580498219
20
-166.98890447616577
30
0
10
274.83876533806324
20
-166.64632439613342
30
0
0
SPLINE
5
133
100
AcDbEntity
8
0
100
AcDbSpline
70
0
71
2
72
6
73
3
74
0
42
0.000000001
43
0.0000000001
44
0.0000000001
40
0
40
0
40
0
40
1
40
1
40
1
10
274.83876533806324
20
-166.64632439613342
30
0
10
274.97711487114429
20
-166.30374491214752
30
0
10
274.97711487114429
20
-165.90846061706543
30
0
0
SPLINE
5
134
100
AcDbEntity
8
0
100
AcDbSpline
70
0
71
2
72
6
73
3
74
0
42
0.000000001
43
0.0000000001
44
0.0000000001
40
0
40
0
40
0
40
1
40
1
40
1
10
267.51941718161106
20
-172.58876621723175
30
0
10
267.21636600792408
20
-172.58876621723175
30
0
10
267.07142822444439
20
-172.37794697284698
30
0
0
SPLINE
5
135
100
AcDbEntity
8
0
100
AcDbSpline
70
0
71
2
72
6
73
3
74
0
42
0.000000001
43
0.0000000001
44
0.0000000001
40
0
40
0
40
0
40
1
40
1
40
1
10
267.07142822444439
20
-172.37794697284698
30
0
10
266.92649073898792
20
-172.16712892055511
30
0
10
266.92649073898792
20
-171.87725365161896
30
0
0
SPLINE
5
136
100
AcDbEntity
8
0
100
AcDbSpline
70
0
71
2
72
6
73
3
74
0
42
0.000000001
43
0.0000000001
44
0.0000000001
40
0
40
0
40
0
40
1
40
1
40
1
10
266.92649073898792
20
-171.87725365161896
30
0
10
266.92649073898792
20
-171.5873783826828
30
0
10
267.07142822444439
20
-171.37656033039093
30
0
0
SPLINE
5
137
100
AcDbEntity
8
0
100
AcDbSpline
70
0
71
2
72
6
73
3
74
0
42
0.000000001
43
0.0000000001
44
0.0000000001
40
0
40
0
40
0
40
1
40
1
40
1
10
267.07142822444439
20
-171.37656033039093
30
0
10
267.21636600792408
20
-171.16574227809906
30
0
10
267.51941718161106
20
-171.16574227809906
30
0
0
LINE
5
138
100
AcDbEntity
8
0
100
AcDbLine
10
267.51941718161112
20
-171.16574227809906
30
0
11
271.65672667324543
21
-171.16574227809906
31
0
0
LINE
5
139
100
AcDbEntity
8
0
100
AcDbLine
10
273.34327287971973
20
-171.16574227809906
30
0
11
277.48058266937733
21
-171.16574227809906
31
0
0
SPLINE
5
140
100
AcDbEntity
8
0
100
AcDbSpline
70
0
71
2
72
6
73
3
74
0
42
0.000000001
43
0.0000000001
44
0.0000000001
40
0
40
0
40
0
40
1
40
1
40
1
10
277.48058266937733
20
-171.16574227809906
30
0
10
277.78363414108753
20
-171.16574227809906
30
0
10
277.92857117950916
20
-171.37656033039093
30
0
0
SPLINE
5
141
100
AcDbEntity
8
0
100
AcDbSpline
70
0
71
2
72
6
73
3
74
0
42
0.000000001
43
0.0000000001
44
0.0000000001
40
0
40
0
40
0
40
1
40
1
40
1
10
277.92857117950916
20
-171.37656033039093
30
0
10
278.07350821793079
20
-171.5873783826828
30
0
10
278.07350821793079
20
-171.87725365161896
30
0
0
SPLINE
5
142
100
AcDbEntity
8
0
100
AcDbSpline
70
0
71
2
72
6
73
3
74
0
42
0.000000001
43
0.0000000001
44
0.0000000001
40
0
40
0
40
0
40
1
40
1
40
1
10
278.07350821793079
20
-171.87725365161896
30
0
10
278.07350821793079
20
-172.16712892055511
30
0
10
277.92857117950916
20
-172.37794697284698
30
0
0
SPLINE
5
143
100
AcDbEntity
8
0
100
AcDbSpline
70
0
71
2
72
6
73
3
74
0
42
0.000000001
43
0.0000000001
44
0.0000000001
40
0
40
0
40
0
40
1
40
1
40
1
10
277.92857117950916
20
-172.37794697284698
30
0
10
277.78363414108753
20
-172.58876621723175
30
0
10
277.48058266937733
20
-172.58876621723175
30
0
0
LINE
5
144
100
AcDbEntity
8
0
100
AcDbLine
10
277.48058266937733
20
-172.58876621723175
30
0
11
267.51941718161106
21
-172.58876621723175
31
0
0
SPLINE
5
145
100
AcDbEntity
8
0
100
AcDbSpline
70
0
71
2
72
6
73
3
74
0
42
0.000000001
43
0.0000000001
44
0.0000000001
40
0
40
0
40
0
40
1
40
1
40
1
10
272.50000007450581
20
-179.55894410610199
30
0
10
273.35644908249378
20
-179.55894410610199
30
0
10
274.04160864651203
20
-179.67753112316132
30
0
0
SPLINE
5
146
100
AcDbEntity
8
0
100
AcDbSpline
70
0
71
2
72
6
73
3
74
0
42
0.000000001
43
0.0000000001
44
0.0000000001
40
0
40
0
40
0
40
1
40
1
40
1
10
274.04160864651203
20
-179.67753112316132
30
0
10
274.72676821053028
20
-179.79611575603485
30
0
10
275.20111031830311
20
-180.03987491130829
30
0
0
SPLINE
5
147
100
AcDbEntity
8
0
100
AcDbSpline
70
0
71
2
72
6
73
3
74
0
42
0.000000001
43
0.0000000001
44
0.0000000001
40
0
40
0
40
0
40
1
40
1
40
1
10
275.20111031830311
20
-180.03987491130829
30
0
10
275.67545123398304
20
-180.28363406658173
30
0
10
275.93238539993763
20
-180.66574037075043
30
0
0
SPLINE
5
148
100
AcDbEntity
8
0
100
AcDbSpline
70
0
71
2
72
6
73
3
74
0
42
0.000000001
43
0.0000000001
44
0.0000000001
40
0
40
0
40
0
40
1
40
1
40
1
10
275.93238539993763
20
-180.66574037075043
30
0
10
276.18931956589222
20
-181.04784905910492
30
0
10
276.18931956589222
20
-181.56171977519989
30
0
0
SPLINE
5
149
100
AcDbEntity
8
0
100
AcDbSpline
70
0
71
2
72
6
73
3
74
0
42
0.000000001
43
0.0000000001
44
0.0000000001
40
0
40
0
40
0
40
1
40
1
40
1
10
276.18931956589222
20
-181.56171977519989
30
0
10
276.18931956589222
20
-182.07558810710907
30
0
10
275.93238539993763
20
-182.45769679546356
30
0
0
SPLINE
5
150
100
AcDbEntity
8
0
100
AcDbSpline
70
0
71
2
72
6
73
3
74
0
42
0.000000001
43
0.0000000001
44
0.0000000001
40
0
40
0
40
0
40
1
40
1
40
1
10
275.93238539993763
20
-182.45769679546356
30
0
10
275.67545123398304
20
-182.83980548381805
30
0
10
275.20111031830311
20
-183.08356463909149
30
0
0
SPLINE
5
151
100
AcDbEntity
8
0
100
AcDbSpline
70
0
71
2
72
6
73
3
74
0
42
0.000000001
43
0.0000000001
44
0.0000000001
40
0
40
0
40
0
40
1
40
1
40
1
10
275.20111031830311
20
-183.08356463909149
30
0
10
274.72676821053028
20
-183.32732141017914
30
0
10
274.04160864651203
20
-183.44590842723846
30
0
0
SPLINE
5
152
100
AcDbEntity
8
0
100
AcDbSpline
70
0
71
2
72
6
73
3
74
0
42
0.000000001
43
0.0000000001
44
0.0000000001
40
0
40
0
40
0
40
1
40
1
40
1
10
274.04160864651203
20
-183.44590842723846
30
0
10
273.35644908249378
20
-183.564493060112
30
0
10
272.50000007450581
20
-183.564493060112
30
0
0
SPLINE
5
153
100
AcDbEntity
8
0
100
AcDbSpline
70
0
71
2
72
6
73
3
74
0
42
0.000000001
43
0.0000000001
44
0.0000000001
40
0
40
0
40
0
40
1
40
1
40
1
10
272.50000007450581
20
-183.564493060112
30
0
10
271.64355047047138
20
-183.564493060112
30
0
10
270.95839090645313
20
-183.44590842723846
30
0
0
SPLINE
5
154
100
AcDbEntity
8
0
100
AcDbSpline
70
0
71
2
72
6
73
3
74
0
42
0.000000001
43
0.0000000001
44
0.0000000001
40
0
40
0
40
0
40
1
40
1
40
1
10
270.95839090645313
20
-183.44590842723846
30
0
10
270.27323134243488
20
-183.32732141017914
30
0
10
269.7988898307085
20
-183.08356463909149
30
0
0
SPLINE
5
155
100
AcDbEntity
8
0
100
AcDbSpline
70
0
71
2
72
6
73
3
74
0
42
0.000000001
43
0.0000000001
44
0.0000000001
40
0
40
0
40
0
40
1
40
1
40
1
10
269.7988898307085
20
-183.08356463909149
30
0
10
269.32454891502857
20
-182.83980548381805
30
0
10
269.06761415302753
20
-182.45769679546356
30
0
0
SPLINE
5
156
100
AcDbEntity
8
0
100
AcDbSpline
70
0
71
2
72
6
73
3
74
0
42
0.000000001
43
0.0000000001
44
0.0000000001
40
0
40
0
40
0
40
1
40
1
40
1
10
269.06761415302753
20
-182.45769679546356
30
0
10
268.8106793910265
20
-182.07558810710907
30
0
10
268.8106793910265
20
-181.56171977519989
30
0
0
SPLINE
5
157
100
AcDbEntity
8
0
100
AcDbSpline
70
0
71
2
72
6
73
3
74
0
42
0.000000001
43
0.0000000001
44
0.0000000001
40
0
40
0
40
0
40
1
40
1
40
1
10
268.8106793910265
20
-181.56171977519989
30
0
10
268.8106793910265
20
-181.04784905910492
30
0
10
269.06761415302753
20
-180.66574037075043
30
0
0
SPLINE
5
158
100
AcDbEntity
8
0
100
AcDbSpline
70
0
71
2
72
6
73
3
74
0
42
0.000000001
43
0.0000000001
44
0.0000000001
40
0
40
0
40
0
40
1
40
1
40
1
10
269.06761415302753
20
-180.66574037075043
30
0
10
269.32454891502857
20
-180.28363406658173
30
0
10
269.7988898307085
20
-180.03987491130829
30
0
0
SPLINE
5
159
100
AcDbEntity
8
0
100
AcDbSpline
70
0
71
2
72
6
73
3
74
0
42
0.000000001
43
0.0000000001
44
0.0000000001
40
0
40
0
40
0
40
1
40
1
40
1
10
269.7988898307085
20
-180.03987491130829
30
0
10
270.27323134243488
20
-179.79611575603485
30
0
10
270.95839090645313
20
-179.67753112316132
30
0
0
SPLINE
5
160
100
AcDbEntity
8
0
100
AcDbSpline
70
0
71
2
72
6
73
3
74
0
42
0.000000001
43
0.0000000001
44
0.0000000001
40
0
40
0
40
0
40
1
40
1
40
1
10
270.95839090645313
20
-179.67753112316132
30
0
10
271.64355047047138
20
-179.55894410610199
30
0
10
272.50000007450581
20
-179.55894410610199
30
0
0
SPLINE
5
161
100
AcDbEntity
8
0
100
AcDbSpline
70
0
71
2
72
6
73
3
74
0
42
0.000000001
43
0.0000000001
44
0.0000000001
40
0
40
0
40
0
40
1
40
1
40
1
10
268.4153950959444
20
-179.07142817974091
30
0
10
268.1123436242342
20
-179.07142817974091
30
0
10
267.96740598976612
20
-178.86060893535614
30
0
0
SPLINE
5
162
100
AcDbEntity
8
0
100
AcDbSpline
70
0
71
2
72
6
73
3
74
0
42
0.000000001
43
0.0000000001
44
0.0000000001
40
0
40
0
40
0
40
1
40
1
40
1
10
267.96740598976612
20
-178.86060893535614
30
0
10
267.82246835529804
20
-178.64978969097137
30
0
10
267.82246835529804
20
-178.37309062480927
30
0
0
SPLINE
5
163
100
AcDbEntity
8
0
100
AcDbSpline
70
0
71
2
72
6
73
3
74
0
42
0.000000001
43
0.0000000001
44
0.0000000001
40
0
40
0
40
0
40
1
40
1
40
1
10
267.82246835529804
20
-178.37309062480927
30
0
10
267.82246835529804
20
-178.09639275074005
30
0
10
267.96740598976612
20
-177.88557469844818
30
0
0
SPLINE
5
164
100
AcDbEntity
8
0
100
AcDbSpline
70
0
71
2
72
6
73
3
74
0
42
0.000000001
43
0.0000000001
44
0.0000000001
40
0
40
0
40
0
40
1
40
1
40
1
10
267.96740598976612
20
-177.88557469844818
30
0
10
268.1123436242342
20
-177.67475664615631
30
0
10
268.4153950959444
20
-177.67475664615631
30
0
0
LINE
5
165
100
AcDbEntity
8
0
100
AcDbLine
10
268.41539509594446
20
-177.67475664615631
30
0
11
271.64355047047138
21
-177.67475664615631
31
0
0
LINE
5
166
100
AcDbEntity
8
0
100
AcDbLine
10
271.64355047047138
20
-177.67475664615631
30
0
11
271.64355047047138
21
-177.0686537027359
31
0
0
SPLINE
5
167
100
AcDbEntity
8
0
100
AcDbSpline
70
0
71
2
72
6
73
3
74
0
42
0.000000001
43
0.0000000001
44
0.0000000001
40
0
40
0
40
0
40
1
40
1
40
1
10
271.64355047047138
20
-177.0686537027359
30
0
10
271.64355047047138
20
-176.75242602825165
30
0
10
271.90048523247242
20
-176.59431278705597
30
0
0
SPLINE
5
168
100
AcDbEntity
8
0
100
AcDbSpline
70
0
71
2
72
6
73
3
74
0
42
0.000000001
43
0.0000000001
44
0.0000000001
40
0
40
0
40
0
40
1
40
1
40
1
10
271.90048523247242
20
-176.59431278705597
30
0
10
272.15741999447346
20
-176.4361983537674
30
0
10
272.50000007450581
20
-176.4361983537674
30
0
0
SPLINE
5
169
100
AcDbEntity
8
0
100
AcDbSpline
70
0
71
2
72
6
73
3
74
0
42
0.000000001
43
0.0000000001
44
0.0000000001
40
0
40
0
40
0
40
1
40
1
40
1
10
272.50000007450581
20
-176.4361983537674
30
0
10
272.84257955849171
20
-176.4361983537674
30
0
10
273.09951432049274
20
-176.59431278705597
30
0
0
SPLINE
5
170
100
AcDbEntity
8
0
100
AcDbSpline
70
0
71
2
72
6
73
3
74
0
42
0.000000001
43
0.0000000001
44
0.0000000001
40
0
40
0
40
0
40
1
40
1
40
1
10
273.09951432049274
20
-176.59431278705597
30
0
10
273.35644908249378
20
-176.75242602825165
30
0
10
273.35644908249378
20
-177.0686537027359
30
0
0
LINE
5
171
100
AcDbEntity
8
0
100
AcDbLine
10
273.35644908249378
20
-177.0686537027359
30
0
11
273.35644908249378
21
-177.67475664615631
31
0
0
LINE
5
172
100
AcDbEntity
8
0
100
AcDbLine
10
273.35644908249378
20
-177.67475664615631
30
0
11
276.58460326492786
21
-177.67475664615631
31
0
0
SPLINE
5
173
100
AcDbEntity
8
0
100
AcDbSpline
70
0
71
2
72
6
73
3
74
0
42
0.000000001
43
0.0000000001
44
0.0000000001
40
0
40
0
40
0
40
1
40
1
40
1
10
276.58460326492786
20
-177.67475664615631
30
0
10
276.88765473663807
20
-177.67475664615631
30
0
10
277.03259415924549
20
-177.88557469844818
30
0
0
SPLINE
5
174
100
AcDbEntity
8
0
100
AcDbSpline
70
0
71
2
72
6
73
3
74
0
42
0.000000001
43
0.0000000001
44
0.0000000001
40
0
40
0
40
0
40
1
40
1
40
1
10
277.03259415924549
20
-177.88557469844818
30
0
10
277.17753119766712
20
-178.09639275074005
30
0
10
277.17753119766712
20
-178.37309062480927
30
0
0
SPLINE
5
175
100
AcDbEntity
8
0
100
AcDbSpline
70
0
71
2
72
6
73
3
74
0
42
0.000000001
43
0.0000000001
44
0.0000000001
40
0
40
0
40
0
40
1
40
1
40
1
10
277.17753119766712
20
-178.37309062480927
30
0
10
277.17753119766712
20
-178.64978969097137
30
0
10
277.03259415924549
20
-178.86060893535614
30
0
0
SPLINE
5
176
100
AcDbEntity
8
0
100
AcDbSpline
70
0
71
2
72
6
73
3
74
0
42
0.000000001
43
0.0000000001
44
0.0000000001
40
0
40
0
40
0
40
1
40
1
40
1
10
277.03259415924549
20
-178.86060893535614
30
0
10
276.88765473663807
20
-179.07142817974091
30
0
10
276.58460326492786
20
-179.07142817974091
30
0
0
LINE
5
177
100
AcDbEntity
8
0
100
AcDbLine
10
276.58460326492786
20
-179.07142817974091
30
0
11
268.4153950959444
21
-179.07142817974091
31
0
0
SPLINE
5
178
100
AcDbEntity
8
0
100
AcDbSpline
70
0
71
2
72
6
73
3
74
0
42
0.000000001
43
0.0000000001
44
0.0000000001
40
0
40
0
40
0
40
1
40
1
40
1
10
272.50000007450581
20
-182.27322995662689
30
0
10
273.64632435142994
20
-182.27322995662689
30
0
10
274.10748966038227
20
-182.08876311779022
30
0
0
SPLINE
5
179
100
AcDbEntity
8
0
100
AcDbSpline
70
0
71
2
72
6
73
3
74
0
42
0.000000001
43
0.0000000001
44
0.0000000001
40
0
40
0
40
0
40
1
40
1
40
1
10
274.10748966038227
20
-182.08876311779022
30
0
10
274.56865437328815
20
-181.90429866313934
30
0
10
274.56865437328815
20
-181.56171977519989
30
0
0
SPLINE
5
180
100
AcDbEntity
8
0
100
AcDbSpline
70
0
71
2
72
6
73
3
74
0
42
0.000000001
43
0.0000000001
44
0.0000000001
40
0
40
0
40
0
40
1
40
1
40
1
10
274.56865437328815
20
-181.56171977519989
30
0
10
274.56865437328815
20
-181.23231589794159
30
0
10
274.10748966038227
20
-181.04126155376434
30
0
0
SPLINE
5
181
100
AcDbEntity
8
0
100
AcDbSpline
70
0
71
2
72
6
73
3
74
0
42
0.000000001
43
0.0000000001
44
0.0000000001
40
0
40
0
40
0
40
1
40
1
40
1
10
274.10748966038227
20
-181.04126155376434
30
0
10
273.64632435142994
20
-180.8502072095871
30
0
10
272.50000007450581
20
-180.8502072095871
30
0
0
SPLINE
5
182
100
AcDbEntity
8
0
100
AcDbSpline
70
0
71
2
72
6
73
3
74
0
42
0.000000001
43
0.0000000001
44
0.0000000001
40
0
40
0
40
0
40
1
40
1
40
1
10
272.50000007450581
20
-180.8502072095871
30
0
10
271.35367520153522
20
-180.8502072095871
30
0
10
270.89250989258289
20
-181.04126155376434
30
0
0
SPLINE
5
183
100
AcDbEntity
8
0
100
AcDbSpline
70
0
71
2
72
6
73
3
74
0
42
0.000000001
43
0.0000000001
44
0.0000000001
40
0
40
0
40
0
40
1
40
1
40
1
10
270.89250989258289
20
-181.04126155376434
30
0
10
270.43134517967701
20
-181.23231589794159
30
0
10
270.43134517967701
20
-181.56171977519989
30
0
0
SPLINE
5
184
100
AcDbEntity
8
0
100
AcDbSpline
70
0
71
2
72
6
73
3
74
0
42
0.000000001
43
0.0000000001
44
0.0000000001
40
0
40
0
40
0
40
1
40
1
40
1
10
270.43134517967701
20
-181.56171977519989
30
0
10
270.43134517967701
20
-181.90429866313934
30
0
10
270.89250989258289
20
-182.08876311779022
30
0
0
SPLINE
5
185
100
AcDbEntity
8
0
100
AcDbSpline
70
0
71
2
72
6
73
3
74
0
42
0.000000001
43
0.0000000001
44
0.0000000001
40
0
40
0
40
0
40
1
40
1
40
1
10
270.89250989258289
20
-182.08876311779022
30
0
10
271.35367520153522
20
-182.27322995662689
30
0
10
272.50000007450581
20
-182.27322995662689
30
0
0
LINE
5
186
100
AcDbEntity
8
0
100
AcDbLine
10
273.34327287971973
20
-185.48820912837982
30
0
11
273.34327287971973
21
-188.43966662883759
31
0
0
SPLINE
5
187
100
AcDbEntity
8
0
100
AcDbSpline
70
0
71
2
72
6
73
3
74
0
42
0.000000001
43
0.0000000001
44
0.0000000001
40
0
40
0
40
0
40
1
40
1
40
1
10
273.34327287971973
20
-188.43966662883759
30
0
10
273.34327287971973
20
-188.80859792232513
30
0
10
273.0863381177187
20
-188.97988736629486
30
0
0
SPLINE
5
188
100
AcDbEntity
8
0
100
AcDbSpline
70
0
71
2
72
6
73
3
74
0
42
0.000000001
43
0.0000000001
44
0.0000000001
40
0
40
0
40
0
40
1
40
1
40
1
10
273.0863381177187
20
-188.97988736629486
30
0
10
272.82940335571766
20
-189.15117919445038
30
0
10
272.50000007450581
20
-189.15117919445038
30
0
0
SPLINE
5
189
100
AcDbEntity
8
0
100
AcDbSpline
70
0
71
2
72
6
73
3
74
0
42
0.000000001
43
0.0000000001
44
0.0000000001
40
0
40
0
40
0
40
1
40
1
40
1
10
272.50000007450581
20
-189.15117919445038
30
0
10
272.17059619724751
20
-189.15117919445038
30
0
10
271.91366143524647
20
-188.97988736629486
30
0
0
SPLINE
5
190
100
AcDbEntity
8
0
100
AcDbSpline
70
0
71
2
72
6
73
3
74
0
42
0.000000001
43
0.0000000001
44
0.0000000001
40
0
40
0
40
0
40
1
40
1
40
1
10
271.91366143524647
20
-188.97988736629486
30
0
10
271.65672667324543
20
-188.80859792232513
30
0
10
271.65672667324543
20
-188.43966662883759
30
0
0
LINE
5
191
100
AcDbEntity
8
0
100
AcDbLine
10
271.65672667324543
20
-188.43966662883759
30
0
11
271.65672667324543
21
-185.48820912837982
31
0
0
LINE
5
192
100
AcDbEntity
8
0
100
AcDbLine
10
271.65672667324543
20
-185.48820912837982
30
0
11
267.51941718161106
21
-185.48820912837982
31
0
0
SPLINE
5
193
100
AcDbEntity
8
0
100
AcDbSpline
70
0
71
2
72
6
73
3
74
0
42
0.000000001
43
0.0000000001
44
0.0000000001
40
0
40
0
40
0
40
1
40
1
40
1
10
267.51941718161106
20
-185.48820912837982
30
0
10
267.21636600792408
20
-185.48820912837982
30
0
10
267.07142822444439
20
-185.27739226818085
30
0
0
SPLINE
5
194
100
AcDbEntity
8
0
100
AcDbSpline
70
0
71
2
72
6
73
3
74
0
42
0.000000001
43
0.0000000001
44
0.0000000001
40
0
40
0
40
0
40
1
40
1
40
1
10
267.07142822444439
20
-185.27739226818085
30
0
10
266.92649073898792
20
-185.06657302379608
30
0
10
266.92649073898792
20
-184.78987395763397
30
0
0
SPLINE
5
195
100
AcDbEntity
8
0
100
AcDbSpline
70
0
71
2
72
6
73
3
74
0
42
0.000000001
43
0.0000000001
44
0.0000000001
40
0
40
0
40
0
40
1
40
1
40
1
10
266.92649073898792
20
-184.78987395763397
30
0
10
266.92649073898792
20
-184.51317489147186
30
0
10
267.07142822444439
20
-184.3023556470871
30
0
0
SPLINE
5
196
100
AcDbEntity
8
0
100
AcDbSpline
70
0
71
2
72
6
73
3
74
0
42
0.000000001
43
0.0000000001
44
0.0000000001
40
0
40
0
40
0
40
1
40
1
40
1
10
267.07142822444439
20
-184.3023556470871
30
0
10
267.21636600792408
20
-184.09153878688812
30
0
10
267.51941718161106
20
-184.09153878688812
30
0
0
LINE
5
197
100
AcDbEntity
8
0
100
AcDbLine
10
267.51941718161112
20
-184.09153878688812
30
0
11
277.48058266937733
21
-184.09153878688812
31
0
0
SPLINE
5
198
100
AcDbEntity
8
0
100
AcDbSpline
70
0
71
2
72
6
73
3
74
0
42
0.000000001
43
0.0000000001
44
0.0000000001
40
0
40
0
40
0
40
1
40
1
40
1
10
277.48058266937733
20
-184.09153878688812
30
0
10
277.78363414108753
20
-184.09153878688812
30
0
10
277.92857117950916
20
-184.3023556470871
30
0
0
SPLINE
5
199
100
AcDbEntity
8
0
100
AcDbSpline
70
0
71
2
72
6
73
3
74
0
42
0.000000001
43
0.0000000001
44
0.0000000001
40
0
40
0
40
0
40
1
40
1
40
1
10
277.92857117950916
20
-184.3023556470871
30
0
10
278.07350821793079
20
-184.51317489147186
30
0
10
278.07350821793079
20
-184.78987395763397
30
0
0
SPLINE
5
200
100
AcDbEntity
8
0
100
AcDbSpline
70
0
71
2
72
6
73
3
74
0
42
0.000000001
43
0.0000000001
44
0.0000000001
40
0
40
0
40
0
40
1
40
1
40
1
10
278.07350821793079
20
-184.78987395763397
30
0
10
278.07350821793079
20
-185.06657302379608
30
0
10
277.92857117950916
20
-185.27739226818085
30
0
0
SPLINE
5
201
100
AcDbEntity
8
0
100
AcDbSpline
70
0
71
2
72
6
73
3
74
0
42
0.000000001
43
0.0000000001
44
0.0000000001
40
0
40
0
40
0
40
1
40
1
40
1
10
277.92857117950916
20
-185.27739226818085
30
0
10
277.78363414108753
20
-185.48820912837982
30
0
10
277.48058266937733
20
-185.48820912837982
30
0
0
LINE
5
202
100
AcDbEntity
8
0
100
AcDbLine
10
277.48058266937733
20
-185.48820912837982
30
0
11
273.34327287971973
21
-185.48820912837982
31
0
0
SPLINE
5
203
100
AcDbEntity
8
0
100
AcDbSpline
70
0
71
2
72
6
73
3
74
0
42
0.000000001
43
0.0000000001
44
0.0000000001
40
0
40
0
40
0
40
1
40
1
40
1
10
253.33633817732334
20
-165.90846061706543
30
0
10
253.33633817732334
20
-165.1178914308548
30
0
10
253.6262134462595
20
-164.50520098209381
30
0
0
SPLINE
5
204
100
AcDbEntity
8
0
100
AcDbSpline
70
0
71
2
72
6
73
3
74
0
42
0.000000001
43
0.0000000001
44
0.0000000001
40
0
40
0
40
0
40
1
40
1
40
1
10
253.6262134462595
20
-164.50520098209381
30
0
10
253.91608841717243
20
-163.89250993728638
30
0
10
254.4497225433588
20
-163.47087383270264
30
0
0
SPLINE
5
205
100
AcDbEntity
8
0
100
AcDbSpline
70
0
71
2
72
6
73
3
74
0
42
0.000000001
43
0.0000000001
44
0.0000000001
40
0
40
0
40
0
40
1
40
1
40
1
10
254.4497225433588
20
-163.47087383270264
30
0
10
254.98335666954517
20
-163.04923713207245
30
0
10
255.75416035950184
20
-162.83183038234711
30
0
0
SPLINE
5
206
100
AcDbEntity
8
0
100
AcDbSpline
70
0
71
2
72
6
73
3
74
0
42
0.000000001
43
0.0000000001
44
0.0000000001
40
0
40
0
40
0
40
1
40
1
40
1
10
255.75416035950184
20
-162.83183038234711
30
0
10
256.5249652415514
20
-162.61442422866821
30
0
10
257.50000007450581
20
-162.61442422866821
30
0
0
SPLINE
5
207
100
AcDbEntity
8
0
100
AcDbSpline
70
0
71
2
72
6
73
3
74
0
42
0.000000001
43
0.0000000001
44
0.0000000001
40
0
40
0
40
0
40
1
40
1
40
1
10
257.50000007450581
20
-162.61442422866821
30
0
10
258.46185870468616
20
-162.61442422866821
30
0
10
259.2392510920763
20
-162.83183038234711
30
0
0
SPLINE
5
208
100
AcDbEntity
8
0
100
AcDbSpline
70
0
71
2
72
6
73
3
74
0
42
0.000000001
43
0.0000000001
44
0.0000000001
40
0
40
0
40
0
40
1
40
1
40
1
10
259.2392510920763
20
-162.83183038234711
30
0
10
260.01664347946644
20
-163.04923713207245
30
0
10
260.55027671158314
20
-163.47087383270264
30
0
0
SPLINE
5
209
100
AcDbEntity
8
0
100
AcDbSpline
70
0
71
2
72
6
73
3
74
0
42
0.000000001
43
0.0000000001
44
0.0000000001
40
0
40
0
40
0
40
1
40
1
40
1
10
260.55027671158314
20
-163.47087383270264
30
0
10
261.08391113579273
20
-163.89250993728638
30
0
10
261.37378640472889
20
-164.50520098209381
30
0
0
SPLINE
5
210
100
AcDbEntity
8
0
100
AcDbSpline
70
0
71
2
72
6
73
3
74
0
42
0.000000001
43
0.0000000001
44
0.0000000001
40
0
40
0
40
0
40
1
40
1
40
1
10
261.37378640472889
20
-164.50520098209381
30
0
10
261.66366048157215
20
-165.1178914308548
30
0
10
261.66366048157215
20
-165.90846061706543
30
0
0
SPLINE
5
211
100
AcDbEntity
8
0
100
AcDbSpline
70
0
71
2
72
6
73
3
74
0
42
0.000000001
43
0.0000000001
44
0.0000000001
40
0
40
0
40
0
40
1
40
1
40
1
10
261.66366048157215
20
-165.90846061706543
30
0
10
261.66366048157215
20
-166.69902920722961
30
0
10
261.37378640472889
20
-167.3117196559906
30
0
0
SPLINE
5
212
100
AcDbEntity
8
0
100
AcDbSpline
70
0
71
2
72
6
73
3
74
0
42
0.000000001
43
0.0000000001
44
0.0000000001
40
0
40
0
40
0
40
1
40
1
40
1
10
261.37378640472889
20
-167.3117196559906
30
0
10
261.08391113579273
20
-167.92441070079803
30
0
10
260.55027671158314
20
-168.34604680538177
30
0
0
SPLINE
5
213
100
AcDbEntity
8
0
100
AcDbSpline
70
0
71
2
72
6
73
3
74
0
42
0.000000001
43
0.0000000001
44
0.0000000001
40
0
40
0
40
0
40
1
40
1
40
1
10
260.55027671158314
20
-168.34604680538177
30
0
10
260.01664347946644
20
-168.76768410205841
30
0
10
259.2392510920763
20
-168.98508965969086
30
0
0
SPLINE
5
214
100
AcDbEntity
8
0
100
AcDbSpline
70
0
71
2
72
6
73
3
74
0
42
0.000000001
43
0.0000000001
44
0.0000000001
40
0
40
0
40
0
40
1
40
1
40
1
10
259.2392510920763
20
-168.98508965969086
30
0
10
258.46185870468616
20
-169.2024964094162
30
0
10
257.50000007450581
20
-169.2024964094162
30
0
0
SPLINE
5
215
100
AcDbEntity
8
0
100
AcDbSpline
70
0
71
2
72
6
73
3
74
0
42
0.000000001
43
0.0000000001
44
0.0000000001
40
0
40
0
40
0
40
1
40
1
40
1
10
257.50000007450581
20
-169.2024964094162
30
0
10
256.5249652415514
20
-169.2024964094162
30
0
10
255.75416035950184
20
-168.98508965969086
30
0
0
SPLINE
5
216
100
AcDbEntity
8
0
100
AcDbSpline
70
0
71
2
72
6
73
3
74
0
42
0.000000001
43
0.0000000001
44
0.0000000001
40
0
40
0
40
0
40
1
40
1
40
1
10
255.75416035950184
20
-168.98508965969086
30
0
10
254.98335666954517
20
-168.76768410205841
30
0
10
254.4497225433588
20
-168.34604680538177
30
0
0
SPLINE
5
217
100
AcDbEntity
8
0
100
AcDbSpline
70
0
71
2
72
6
73
3
74
0
42
0.000000001
43
0.0000000001
44
0.0000000001
40
0
40
0
40
0
40
1
40
1
40
1
10
254.4497225433588
20
-168.34604680538177
30
0
10
253.91608841717243
20
-167.92441070079803
30
0
10
253.6262134462595
20
-167.3117196559906
30
0
0
SPLINE
5
218
100
AcDbEntity
8
0
100
AcDbSpline
70
0
71
2
72
6
73
3
74
0
42
0.000000001
43
0.0000000001
44
0.0000000001
40
0
40
0
40
0
40
1
40
1
40
1
10
253.6262134462595
20
-167.3117196559906
30
0
10
253.33633817732334
20
-166.69902920722961
30
0
10
253.33633817732334
20
-165.90846061706543
30
0
0
SPLINE
5
219
100
AcDbEntity
8
0
100
AcDbSpline
70
0
71
2
72
6
73
3
74
0
42
0.000000001
43
0.0000000001
44
0.0000000001
40
0
40
0
40
0
40
1
40
1
40
1
10
259.97711487114429
20
-165.90846061706543
30
0
10
259.97711487114429
20
-165.51317572593689
30
0
10
259.83876533806324
20
-165.17059624195099
30
0
0
SPLINE
5
220
100
AcDbEntity
8
0
100
AcDbSpline
70
0
71
2
72
6
73
3
74
0
42
0.000000001
43
0.0000000001
44
0.0000000001
40
0
40
0
40
0
40
1
40
1
40
1
10
259.83876533806324
20
-165.17059624195099
30
0
10
259.70041580498219
20
-164.82801675796509
30
0
10
259.39736492931843
20
-164.57766950130463
30
0
0
SPLINE
5
221
100
AcDbEntity
8
0
100
AcDbSpline
70
0
71
2
72
6
73
3
74
0
42
0.000000001
43
0.0000000001
44
0.0000000001
40
0
40
0
40
0
40
1
40
1
40
1
10
259.39736492931843
20
-164.57766950130463
30
0
10
259.09431345760822
20
-164.32732284069061
30
0
10
258.62656004726887
20
-164.18238520622253
30
0
0
SPLINE
5
222
100
AcDbEntity
8
0
100
AcDbSpline
70
0
71
2
72
6
73
3
74
0
42
0.000000001
43
0.0000000001
44
0.0000000001
40
0
40
0
40
0
40
1
40
1
40
1
10
258.62656004726887
20
-164.18238520622253
30
0
10
258.15880723297596
20
-164.03744757175446
30
0
10
257.50000007450581
20
-164.03744757175446
30
0
0
SPLINE
5
223
100
AcDbEntity
8
0
100
AcDbSpline
70
0
71
2
72
6
73
3
74
0
42
0.000000001
43
0.0000000001
44
0.0000000001
40
0
40
0
40
0
40
1
40
1
40
1
10
257.50000007450581
20
-164.03744757175446
30
0
10
256.8411923199892
20
-164.03744757175446
30
0
10
256.3734395056963
20
-164.18238520622253
30
0
0
SPLINE
5
224
100
AcDbEntity
8
0
100
AcDbSpline
70
0
71
2
72
6
73
3
74
0
42
0.000000001
43
0.0000000001
44
0.0000000001
40
0
40
0
40
0
40
1
40
1
40
1
10
256.3734395056963
20
-164.18238520622253
30
0
10
255.90568609535694
20
-164.32732284069061
30
0
10
255.60263521969318
20
-164.57766950130463
30
0
0
SPLINE
5
225
100
AcDbEntity
8
0
100
AcDbSpline
70
0
71
2
72
6
73
3
74
0
42
0.000000001
43
0.0000000001
44
0.0000000001
40
0
40
0
40
0
40
1
40
1
40
1
10
255.60263521969318
20
-164.57766950130463
30
0
10
255.29958374798298
20
-164.82801675796509
30
0
10
255.16123421490192
20
-165.17059624195099
30
0
0
SPLINE
5
226
100
AcDbEntity
8
0
100
AcDbSpline
70
0
71
2
72
6
73
3
74
0
42
0.000000001
43
0.0000000001
44
0.0000000001
40
0
40
0
40
0
40
1
40
1
40
1
10
255.16123421490192
20
-165.17059624195099
30
0
10
255.02288468182087
20
-165.51317572593689
30
0
10
255.02288468182087
20
-165.90846061706543
30
0
0
SPLINE
5
227
100
AcDbEntity
8
0
100
AcDbSpline
70
0
71
2
72
6
73
3
74
0
42
0.000000001
43
0.0000000001
44
0.0000000001
40
0
40
0
40
0
40
1
40
1
40
1
10
255.02288468182087
20
-165.90846061706543
30
0
10
255.02288468182087
20
-166.30374491214752
30
0
10
255.16123421490192
20
-166.64632439613342
30
0
0
SPLINE
5
228
100
AcDbEntity
8
0
100
AcDbSpline
70
0
71
2
72
6
73
3
74
0
42
0.000000001
43
0.0000000001
44
0.0000000001
40
0
40
0
40
0
40
1
40
1
40
1
10
255.16123421490192
20
-166.64632439613342
30
0
10
255.29958374798298
20
-166.98890447616577
30
0
10
255.60263521969318
20
-167.23925113677979
30
0
0
SPLINE
5
229
100
AcDbEntity
8
0
100
AcDbSpline
70
0
71
2
72
6
73
3
74
0
42
0.000000001
43
0.0000000001
44
0.0000000001
40
0
40
0
40
0
40
1
40
1
40
1
10
255.60263521969318
20
-167.23925113677979
30
0
10
255.90568609535694
20
-167.4895977973938
30
0
10
256.3734395056963
20
-167.63453543186188
30
0
0
SPLINE
5
230
100
AcDbEntity
8
0
100
AcDbSpline
70
0
71
2
72
6
73
3
74
0
42
0.000000001
43
0.0000000001
44
0.0000000001
40
0
40
0
40
0
40
1
40
1
40
1
10
256.3734395056963
20
-167.63453543186188
30
0
10
256.8411923199892
20
-167.77947247028351
30
0
10
257.50000007450581
20
-167.77947247028351
30
0
0
SPLINE
5
231
100
AcDbEntity
8
0
100
AcDbSpline
70
0
71
2
72
6
73
3
74
0
42
0.000000001
43
0.0000000001
44
0.0000000001
40
0
40
0
40
0
40
1
40
1
40
1
10
257.50000007450581
20
-167.77947247028351
30
0
10
258.15880723297596
20
-167.77947247028351
30
0
10
258.62656004726887
20
-167.63453543186188
30
0
0
SPLINE
5
232
100
AcDbEntity
8
0
100
AcDbSpline
70
0
71
2
72
6
73
3
74
0
42
0.000000001
43
0.0000000001
44
0.0000000001
40
0
40
0
40
0
40
1
40
1
40
1
10
258.62656004726887
20
-167.63453543186188
30
0
10
259.09431345760822
20
-167.4895977973938
30
0
10
259.39736492931843
20
-167.23925113677979
30
0
0
SPLINE
5
233
100
AcDbEntity
8
0
100
AcDbSpline
70
0
71
2
72
6
73
3
74
0
42
0.000000001
43
0.0000000001
44
0.0000000001
40
0
40
0
40
0
40
1
40
1
40
1
10
259.39736492931843
20
-167.23925113677979
30
0
10
259.70041580498219
20
-166.98890447616577
30
0
10
259.83876533806324
20
-166.64632439613342
30
0
0
SPLINE
5
234
100
AcDbEntity
8
0
100
AcDbSpline
70
0
71
2
72
6
73
3
74
0
42
0.000000001
43
0.0000000001
44
0.0000000001
40
0
40
0
40
0
40
1
40
1
40
1
10
259.83876533806324
20
-166.64632439613342
30
0
10
259.97711487114429
20
-166.30374491214752
30
0
10
259.97711487114429
20
-165.90846061706543
30
0
0
SPLINE
5
235
100
AcDbEntity
8
0
100
AcDbSpline
70
0
71
2
72
6
73
3
74
0
42
0.000000001
43
0.0000000001
44
0.0000000001
40
0
40
0
40
0
40
1
40
1
40
1
10
252.51941718161106
20
-172.58876621723175
30
0
10
252.21636600792408
20
-172.58876621723175
30
0
10
252.07142822444439
20
-172.37794697284698
30
0
0
SPLINE
5
236
100
AcDbEntity
8
0
100
AcDbSpline
70
0
71
2
72
6
73
3
74
0
42
0.000000001
43
0.0000000001
44
0.0000000001
40
0
40
0
40
0
40
1
40
1
40
1
10
252.07142822444439
20
-172.37794697284698
30
0
10
251.92649073898792
20
-172.16712892055511
30
0
10
251.92649073898792
20
-171.87725365161896
30
0
0
SPLINE
5
237
100
AcDbEntity
8
0
100
AcDbSpline
70
0
71
2
72
6
73
3
74
0
42
0.000000001
43
0.0000000001
44
0.0000000001
40
0
40
0
40
0
40
1
40
1
40
1
10
251.92649073898792
20
-171.87725365161896
30
0
10
251.92649073898792
20
-171.5873783826828
30
0
10
252.07142822444439
20
-171.37656033039093
30
0
0
SPLINE
5
238
100
AcDbEntity
8
0
100
AcDbSpline
70
0
71
2
72
6
73
3
74
0
42
0.000000001
43
0.0000000001
44
0.0000000001
40
0
40
0
40
0
40
1
40
1
40
1
10
252.07142822444439
20
-171.37656033039093
30
0
10
252.21636600792408
20
-171.16574227809906
30
0
10
252.51941718161106
20
-171.16574227809906
30
0
0
LINE
5
239
100
AcDbEntity
8
0
100
AcDbLine
10
252.51941718161109
20
-171.16574227809906
30
0
11
256.65672667324543
21
-171.16574227809906
31
0
0
LINE
5
240
100
AcDbEntity
8
0
100
AcDbLine
10
256.65672667324543
20
-171.16574227809906
30
0
11
256.65672667324543
21
-169.7163662314415
31
0
0
LINE
5
241
100
AcDbEntity
8
0
100
AcDbLine
10
258.34327287971973
20
-169.7163662314415
30
0
11
258.34327287971973
21
-171.16574227809906
31
0
0
LINE
5
242
100
AcDbEntity
8
0
100
AcDbLine
10
258.34327287971973
20
-171.16574227809906
30
0
11
262.48058266937733
21
-171.16574227809906
31
0
0
SPLINE
5
243
100
AcDbEntity
8
0
100
AcDbSpline
70
0
71
2
72
6
73
3
74
0
42
0.000000001
43
0.0000000001
44
0.0000000001
40
0
40
0
40
0
40
1
40
1
40
1
10
262.48058266937733
20
-171.16574227809906
30
0
10
262.78363414108753
20
-171.16574227809906
30
0
10
262.92857117950916
20
-171.37656033039093
30
0
0
SPLINE
5
244
100
AcDbEntity
8
0
100
AcDbSpline
70
0
71
2
72
6
73
3
74
0
42
0.000000001
43
0.0000000001
44
0.0000000001
40
0
40
0
40
0
40
1
40
1
40
1
10
262.92857117950916
20
-171.37656033039093
30
0
10
263.07350821793079
20
-171.5873783826828
30
0
10
263.07350821793079
20
-171.87725365161896
30
0
0
SPLINE
5
245
100
AcDbEntity
8
0
100
AcDbSpline
70
0
71
2
72
6
73
3
74
0
42
0.000000001
43
0.0000000001
44
0.0000000001
40
0
40
0
40
0
40
1
40
1
40
1
10
263.07350821793079
20
-171.87725365161896
30
0
10
263.07350821793079
20
-172.16712892055511
30
0
10
262.92857117950916
20
-172.37794697284698
30
0
0
SPLINE
5
246
100
AcDbEntity
8
0
100
AcDbSpline
70
0
71
2
72
6
73
3
74
0
42
0.000000001
43
0.0000000001
44
0.0000000001
40
0
40
0
40
0
40
1
40
1
40
1
10
262.92857117950916
20
-172.37794697284698
30
0
10
262.78363414108753
20
-172.58876621723175
30
0
10
262.48058266937733
20
-172.58876621723175
30
0
0
LINE
5
247
100
AcDbEntity
8
0
100
AcDbLine
10
262.48058266937733
20
-172.58876621723175
30
0
11
252.51941718161106
21
-172.58876621723175
31
0
0
LINE
5
248
100
AcDbEntity
8
0
100
AcDbLine
10
256.5644932538271
20
-178.92648875713348
30
0
11
256.5644932538271
21
-179.55894649028778
31
0
0
SPLINE
5
249
100
AcDbEntity
8
0
100
AcDbSpline
70
0
71
2
72
6
73
3
74
0
42
0.000000001
43
0.0000000001
44
0.0000000001
40
0
40
0
40
0
40
1
40
1
40
1
10
256.5644932538271
20
-179.55894649028778
30
0
10
256.5644932538271
20
-180.1650470495224
30
0
10
256.76213569939137
20
-180.59327304363251
30
0
0
SPLINE
5
250
100
AcDbEntity
8
0
100
AcDbSpline
70
0
71
2
72
6
73
3
74
0
42
0.000000001
43
0.0000000001
44
0.0000000001
40
0
40
0
40
0
40
1
40
1
40
1
10
256.76213569939137
20
-180.59327304363251
30
0
10
256.95977754890919
20
-181.02149665355682
30
0
10
257.38141424953938
20
-181.39043033123016
30
0
0
SPLINE
5
251
100
AcDbEntity
8
0
100
AcDbSpline
70
0
71
2
72
6
73
3
74
0
42
0.000000001
43
0.0000000001
44
0.0000000001
40
0
40
0
40
0
40
1
40
1
40
1
10
257.38141424953938
20
-181.39043033123016
30
0
10
257.81622715294361
20
-181.75935924053192
30
0
10
258.18515904247761
20
-182.04923570156097
30
0
0
SPLINE
5
252
100
AcDbEntity
8
0
100
AcDbSpline
70
0
71
2
72
6
73
3
74
0
42
0.000000001
43
0.0000000001
44
0.0000000001
40
0
40
0
40
0
40
1
40
1
40
1
10
258.18515904247761
20
-182.04923570156097
30
0
10
258.5540909320116
20
-182.33911216259003
30
0
10
258.83078999817371
20
-182.549929022789
30
0
0
SPLINE
5
253
100
AcDbEntity
8
0
100
AcDbSpline
70
0
71
2
72
6
73
3
74
0
42
0.000000001
43
0.0000000001
44
0.0000000001
40
0
40
0
40
0
40
1
40
1
40
1
10
258.83078999817371
20
-182.549929022789
30
0
10
259.09431286156178
20
-182.76074826717377
30
0
10
259.10748906433582
20
-183.03744733333588
30
0
0
SPLINE
5
254
100
AcDbEntity
8
0
100
AcDbSpline
70
0
71
2
72
6
73
3
74
0
42
0.000000001
43
0.0000000001
44
0.0000000001
40
0
40
0
40
0
40
1
40
1
40
1
10
259.10748906433582
20
-183.03744733333588
30
0
10
259.12066526710987
20
-183.31414639949799
30
0
10
258.9361996203661
20
-183.564493060112
30
0
0
SPLINE
5
255
100
AcDbEntity
8
0
100
AcDbSpline
70
0
71
2
72
6
73
3
74
0
42
0.000000001
43
0.0000000001
44
0.0000000001
40
0
40
0
40
0
40
1
40
1
40
1
10
258.9361996203661
20
-183.564493060112
30
0
10
258.79126198589802
20
-183.77531230449677
30
0
10
258.49479861557484
20
-183.88071954250336
30
0
0
SPLINE
5
256
100
AcDbEntity
8
0
100
AcDbSpline
70
0
71
2
72
6
73
3
74
0
42
0.000000001
43
0.0000000001
44
0.0000000001
40
0
40
0
40
0
40
1
40
1
40
1
10
258.49479861557484
20
-183.88071954250336
30
0
10
258.19833524525166
20
-183.98612916469574
30
0
10
257.9084599763155
20
-183.77531230449677
30
0
0
SPLINE
5
257
100
AcDbEntity
8
0
100
AcDbSpline
70
0
71
2
72
6
73
3
74
0
42
0.000000001
43
0.0000000001
44
0.0000000001
40
0
40
0
40
0
40
1
40
1
40
1
10
257.9084599763155
20
-183.77531230449677
30
0
10
257.68446572124958
20
-183.61719787120819
30
0
10
257.34188564121723
20
-183.34708631038666
30
0
0
SPLINE
5
258
100
AcDbEntity
8
0
100
AcDbSpline
70
0
71
2
72
6
73
3
74
0
42
0.000000001
43
0.0000000001
44
0.0000000001
40
0
40
0
40
0
40
1
40
1
40
1
10
257.34188564121723
20
-183.34708631038666
30
0
10
256.99930615723133
20
-183.07697474956512
30
0
10
256.61719806492329
20
-182.74757087230682
30
0
0
SPLINE
5
259
100
AcDbEntity
8
0
100
AcDbSpline
70
0
71
2
72
6
73
3
74
0
42
0.000000001
43
0.0000000001
44
0.0000000001
40
0
40
0
40
0
40
1
40
1
40
1
10
256.61719806492329
20
-182.74757087230682
30
0
10
256.15603275597095
20
-182.36546456813812
30
0
10
255.9781552106142
20
-182.15464532375336
30
0
0
SPLINE
5
260
100
AcDbEntity
8
0
100
AcDbSpline
70
0
71
2
72
6
73
3
74
0
42
0.000000001
43
0.0000000001
44
0.0000000001
40
0
40
0
40
0
40
1
40
1
40
1
10
255.9781552106142
20
-182.15464532375336
30
0
10
255.80027766525745
20
-181.94382846355438
30
0
10
255.74757285416126
20
-181.74618422985077
30
0
0
LINE
5
261
100
AcDbEntity
8
0
100
AcDbLine
10
255.74757285416126
20
-181.74618422985077
30
0
11
255.73439665138721
21
-181.74618422985077
31
0
0
SPLINE
5
262
100
AcDbEntity
8
0
100
AcDbSpline
70
0
71
2
72
6
73
3
74
0
42
0.000000001
43
0.0000000001
44
0.0000000001
40
0
40
0
40
0
40
1
40
1
40
1
10
255.73439665138721
20
-181.74618422985077
30
0
10
255.68169184029102
20
-181.97017848491669
30
0
10
255.4840499907732
20
-182.21393764019012
30
0
0
SPLINE
5
263
100
AcDbEntity
8
0
100
AcDbSpline
70
0
71
2
72
6
73
3
74
0
42
0.000000001
43
0.0000000001
44
0.0000000001
40
0
40
0
40
0
40
1
40
1
40
1
10
255.4840499907732
20
-182.21393764019012
30
0
10
255.28640754520893
20
-182.45769679546356
30
0
10
254.8252422362566
20
-182.83980548381805
30
0
0
SPLINE
5
264
100
AcDbEntity
8
0
100
AcDbSpline
70
0
71
2
72
6
73
3
74
0
42
0.000000001
43
0.0000000001
44
0.0000000001
40
0
40
0
40
0
40
1
40
1
40
1
10
254.8252422362566
20
-182.83980548381805
30
0
10
254.44313414394855
20
-183.16920936107635
30
0
10
254.07420225441456
20
-183.45908343791962
30
0
0
SPLINE
5
265
100
AcDbEntity
8
0
100
AcDbSpline
70
0
71
2
72
6
73
3
74
0
42
0.000000001
43
0.0000000001
44
0.0000000001
40
0
40
0
40
0
40
1
40
1
40
1
10
254.07420225441456
20
-183.45908343791962
30
0
10
253.70527036488056
20
-183.74895989894867
30
0
10
253.33633817732334
20
-184.01248157024384
30
0
0
SPLINE
5
266
100
AcDbEntity
8
0
100
AcDbSpline
70
0
71
2
72
6
73
3
74
0
42
0.000000001
43
0.0000000001
44
0.0000000001
40
0
40
0
40
0
40
1
40
1
40
1
10
253.33633817732334
20
-184.01248157024384
30
0
10
253.04646290838718
20
-184.2233008146286
30
0
10
252.74999983608723
20
-184.11789119243622
30
0
0
SPLINE
5
267
100
AcDbEntity
8
0
100
AcDbSpline
70
0
71
2
72
6
73
3
74
0
42
0.000000001
43
0.0000000001
44
0.0000000001
40
0
40
0
40
0
40
1
40
1
40
1
10
252.74999983608723
20
-184.11789119243622
30
0
10
252.45353646576405
20
-184.01248157024384
30
0
10
252.30859883129597
20
-183.80166232585907
30
0
0
SPLINE
5
268
100
AcDbEntity
8
0
100
AcDbSpline
70
0
71
2
72
6
73
3
74
0
42
0.000000001
43
0.0000000001
44
0.0000000001
40
0
40
0
40
0
40
1
40
1
40
1
10
252.30859883129597
20
-183.80166232585907
30
0
10
252.13730908930302
20
-183.564493060112
30
0
10
252.13072098791599
20
-183.26144158840179
30
0
0
SPLINE
5
269
100
AcDbEntity
8
0
100
AcDbSpline
70
0
71
2
72
6
73
3
74
0
42
0.000000001
43
0.0000000001
44
0.0000000001
40
0
40
0
40
0
40
1
40
1
40
1
10
252.13072098791599
20
-183.26144158840179
30
0
10
252.12413288652897
20
-182.95839011669159
30
0
10
252.42718406021595
20
-182.73439586162567
30
0
0
SPLINE
5
270
100
AcDbEntity
8
0
100
AcDbSpline
70
0
71
2
72
6
73
3
74
0
42
0.000000001
43
0.0000000001
44
0.0000000001
40
0
40
0
40
0
40
1
40
1
40
1
10
252.42718406021595
20
-182.73439586162567
30
0
10
252.84882076084614
20
-182.43134438991547
30
0
10
253.23751695454121
20
-182.12170541286469
30
0
0
SPLINE
5
271
100
AcDbEntity
8
0
100
AcDbSpline
70
0
71
2
72
6
73
3
74
0
42
0.000000001
43
0.0000000001
44
0.0000000001
40
0
40
0
40
0
40
1
40
1
40
1
10
253.23751695454121
20
-182.12170541286469
30
0
10
253.62621314823627
20
-181.81206405162811
30
0
10
254.06102605164051
20
-181.44313514232635
30
0
0
SPLINE
5
272
100
AcDbEntity
8
0
100
AcDbSpline
70
0
71
2
72
6
73
3
74
0
42
0.000000001
43
0.0000000001
44
0.0000000001
40
0
40
0
40
0
40
1
40
1
40
1
10
254.06102605164051
20
-181.44313514232635
30
0
10
254.4826627522707
20
-181.07420146465302
30
0
10
254.68030519783497
20
-180.6459778547287
30
0
0
SPLINE
5
273
100
AcDbEntity
8
0
100
AcDbSpline
70
0
71
2
72
6
73
3
74
0
42
0.000000001
43
0.0000000001
44
0.0000000001
40
0
40
0
40
0
40
1
40
1
40
1
10
254.68030519783497
20
-180.6459778547287
30
0
10
254.87794704735279
20
-180.21775186061859
30
0
10
254.87794704735279
20
-179.61164891719818
30
0
0
LINE
5
274
100
AcDbEntity
8
0
100
AcDbLine
10
254.87794704735279
20
-179.61164891719818
30
0
11
254.87794704735279
21
-178.92648875713348
31
0
0
LINE
5
275
100
AcDbEntity
8
0
100
AcDbLine
10
254.87794704735279
20
-178.92648875713348
30
0
11
252.94105388224125
21
-178.92648875713348
31
0
0
SPLINE
5
276
100
AcDbEntity
8
0
100
AcDbSpline
70
0
71
2
72
6
73
3
74
0
42
0.000000001
43
0.0000000001
44
0.0000000001
40
0
40
0
40
0
40
1
40
1
40
1
10
252.94105388224125
20
-178.92648875713348
30
0
10
252.63800241053104
20
-178.92648875713348
30
0
10
252.49306507408619
20
-178.71567189693451
30
0
0
SPLINE
5
277
100
AcDbEntity
8
0
100
AcDbSpline
70
0
71
2
72
6
73
3
74
0
42
0.000000001
43
0.0000000001
44
0.0000000001
40
0
40
0
40
0
40
1
40
1
40
1
10
252.49306507408619
20
-178.71567189693451
30
0
10
252.34812743961811
20
-178.50485265254974
30
0
10
252.34812743961811
20
-178.21497738361359
30
0
0
SPLINE
5
278
100
AcDbEntity
8
0
100
AcDbSpline
70
0
71
2
72
6
73
3
74
0
42
0.000000001
43
0.0000000001
44
0.0000000001
40
0
40
0
40
0
40
1
40
1
40
1
10
252.34812743961811
20
-178.21497738361359
30
0
10
252.34812743961811
20
-177.91192591190338
30
0
10
252.49306507408619
20
-177.70110785961151
30
0
0
SPLINE
5
279
100
AcDbEntity
8
0
100
AcDbSpline
70
0
71
2
72
6
73
3
74
0
42
0.000000001
43
0.0000000001
44
0.0000000001
40
0
40
0
40
0
40
1
40
1
40
1
10
252.49306507408619
20
-177.70110785961151
30
0
10
252.63800241053104
20
-177.49028980731964
30
0
10
252.94105388224125
20
-177.49028980731964
30
0
0
LINE
5
280
100
AcDbEntity
8
0
100
AcDbLine
10
252.94105388224125
20
-177.49028980731964
30
0
11
258.36962528526783
21
-177.49028980731964
31
0
0
SPLINE
5
281
100
AcDbEntity
8
0
100
AcDbSpline
70
0
71
2
72
6
73
3
74
0
42
0.000000001
43
0.0000000001
44
0.0000000001
40
0
40
0
40
0
40
1
40
1
40
1
10
258.36962528526783
20
-177.49028980731964
30
0
10
258.67267616093159
20
-177.49028980731964
30
0
10
258.81761379539967
20
-177.70110785961151
30
0
0
SPLINE
5
282
100
AcDbEntity
8
0
100
AcDbSpline
70
0
71
2
72
6
73
3
74
0
42
0.000000001
43
0.0000000001
44
0.0000000001
40
0
40
0
40
0
40
1
40
1
40
1
10
258.81761379539967
20
-177.70110785961151
30
0
10
258.96255142986774
20
-177.91192591190338
30
0
10
258.96255142986774
20
-178.21497738361359
30
0
0
SPLINE
5
283
100
AcDbEntity
8
0
100
AcDbSpline
70
0
71
2
72
6
73
3
74
0
42
0.000000001
43
0.0000000001
44
0.0000000001
40
0
40
0
40
0
40
1
40
1
40
1
10
258.96255142986774
20
-178.21497738361359
30
0
10
258.96255142986774
20
-178.50485265254974
30
0
10
258.81761379539967
20
-178.71567189693451
30
0
0
SPLINE
5
284
100
AcDbEntity
8
0
100
AcDbSpline
70
0
71
2
72
6
73
3
74
0
42
0.000000001
43
0.0000000001
44
0.0000000001
40
0
40
0
40
0
40
1
40
1
40
1
10
258.81761379539967
20
-178.71567189693451
30
0
10
258.67267616093159
20
-178.92648875713348
30
0
10
258.36962528526783
20
-178.92648875713348
30
0
0
LINE
5
285
100
AcDbEntity
8
0
100
AcDbLine
10
258.36962528526783
20
-178.92648875713348
30
0
11
256.5644932538271
21
-178.92648875713348
31
0
0
LINE
5
286
100
AcDbEntity
8
0
100
AcDbLine
10
260.42510338127613
20
-181.28502070903778
30
0
11
258.88349480926991
21
-181.28502070903778
31
0
0
SPLINE
5
287
100
AcDbEntity
8
0
100
AcDbSpline
70
0
71
2
72
6
73
3
74
0
42
0.000000001
43
0.0000000001
44
0.0000000001
40
0
40
0
40
0
40
1
40
1
40
1
10
258.88349480926991
20
-181.28502070903778
30
0
10
258.5804433375597
20
-181.28502070903778
30
0
10
258.43550570309162
20
-181.07420146465302
30
0
0
SPLINE
5
288
100
AcDbEntity
8
0
100
AcDbSpline
70
0
71
2
72
6
73
3
74
0
42
0.000000001
43
0.0000000001
44
0.0000000001
40
0
40
0
40
0
40
1
40
1
40
1
10
258.43550570309162
20
-181.07420146465302
30
0
10
258.29056806862354
20
-180.86338222026825
30
0
10
258.29056806862354
20
-180.57350814342499
30
0
0
SPLINE
5
289
100
AcDbEntity
8
0
100
AcDbSpline
70
0
71
2
72
6
73
3
74
0
42
0.000000001
43
0.0000000001
44
0.0000000001
40
0
40
0
40
0
40
1
40
1
40
1
10
258.29056806862354
20
-180.57350814342499
30
0
10
258.29056806862354
20
-180.27045667171478
30
0
10
258.43550570309162
20
-180.05963981151581
30
0
0
SPLINE
5
290
100
AcDbEntity
8
0
100
AcDbSpline
70
0
71
2
72
6
73
3
74
0
42
0.000000001
43
0.0000000001
44
0.0000000001
40
0
40
0
40
0
40
1
40
1
40
1
10
258.43550570309162
20
-180.05963981151581
30
0
10
258.5804433375597
20
-179.84882056713104
30
0
10
258.88349480926991
20
-179.84882056713104
30
0
0
LINE
5
291
100
AcDbEntity
8
0
100
AcDbLine
10
258.88349480926996
20
-179.84882056713104
30
0
11
260.42510338127613
21
-179.84882056713104
31
0
0
LINE
5
292
100
AcDbEntity
8
0
100
AcDbLine
10
260.42510338127613
20
-179.84882056713104
30
0
11
260.42510338127613
21
-177.4244087934494
31
0
0
SPLINE
5
293
100
AcDbEntity
8
0
100
AcDbSpline
70
0
71
2
72
6
73
3
74
0
42
0.000000001
43
0.0000000001
44
0.0000000001
40
0
40
0
40
0
40
1
40
1
40
1
10
260.42510338127613
20
-177.4244087934494
30
0
10
260.42510338127613
20
-177.05547749996185
30
0
10
260.68203873932362
20
-176.88418686389923
30
0
0
SPLINE
5
294
100
AcDbEntity
8
0
100
AcDbSpline
70
0
71
2
72
6
73
3
74
0
42
0.000000001
43
0.0000000001
44
0.0000000001
40
0
40
0
40
0
40
1
40
1
40
1
10
260.68203873932362
20
-176.88418686389923
30
0
10
260.93897290527821
20
-176.7128974199295
30
0
10
261.26837678253651
20
-176.7128974199295
30
0
0
SPLINE
5
295
100
AcDbEntity
8
0
100
AcDbSpline
70
0
71
2
72
6
73
3
74
0
42
0.000000001
43
0.0000000001
44
0.0000000001
40
0
40
0
40
0
40
1
40
1
40
1
10
261.26837678253651
20
-176.7128974199295
30
0
10
261.58460564911366
20
-176.7128974199295
30
0
10
261.84153981506824
20
-176.88418686389923
30
0
0
SPLINE
5
296
100
AcDbEntity
8
0
100
AcDbSpline
70
0
71
2
72
6
73
3
74
0
42
0.000000001
43
0.0000000001
44
0.0000000001
40
0
40
0
40
0
40
1
40
1
40
1
10
261.84153981506824
20
-176.88418686389923
30
0
10
262.09847398102283
20
-177.05547749996185
30
0
10
262.09847398102283
20
-177.4244087934494
30
0
0
LINE
5
297
100
AcDbEntity
8
0
100
AcDbLine
10
262.09847398102283
20
-177.4244087934494
30
0
11
262.09847398102283
21
-184.98751580715179
31
0
0
SPLINE
5
298
100
AcDbEntity
8
0
100
AcDbSpline
70
0
71
2
72
6
73
3
74
0
42
0.000000001
43
0.0000000001
44
0.0000000001
40
0
40
0
40
0
40
1
40
1
40
1
10
262.09847398102283
20
-184.98751580715179
30
0
10
262.09847398102283
20
-185.35644948482513
30
0
10
261.84153981506824
20
-185.52773892879486
30
0
0
SPLINE
5
299
100
AcDbEntity
8
0
100
AcDbSpline
70
0
71
2
72
6
73
3
74
0
42
0.000000001
43
0.0000000001
44
0.0000000001
40
0
40
0
40
0
40
1
40
1
40
1
10
261.84153981506824
20
-185.52773892879486
30
0
10
261.58460564911366
20
-185.69902837276459
30
0
10
261.26837678253651
20
-185.69902837276459
30
0
0
SPLINE
5
300
100
AcDbEntity
8
0
100
AcDbSpline
70
0
71
2
72
6
73
3
74
0
42
0.000000001
43
0.0000000001
44
0.0000000001
40
0
40
0
40
0
40
1
40
1
40
1
10
261.26837678253651
20
-185.69902837276459
30
0
10
260.93897290527821
20
-185.69902837276459
30
0
10
260.68203873932362
20
-185.52773892879486
30
0
0
SPLINE
5
301
100
AcDbEntity
8
0
100
AcDbSpline
70
0
71
2
72
6
73
3
74
0
42
0.000000001
43
0.0000000001
44
0.0000000001
40
0
40
0
40
0
40
1
40
1
40
1
10
260.68203873932362
20
-185.52773892879486
30
0
10
260.42510338127613
20
-185.35644948482513
30
0
10
260.42510338127613
20
-184.98751580715179
30
0
0
LINE
5
302
100
AcDbEntity
8
0
100
AcDbLine
10
260.42510338127613
20
-184.98751580715182
30
0
11
260.42510338127613
21
-181.28502070903778
31
0
0
SPLINE
5
303
100
AcDbEntity
8
0
100
AcDbSpline
70
0
71
2
72
6
73
3
74
0
42
0.000000001
43
0.0000000001
44
0.0000000001
40
0
40
0
40
0
40
1
40
1
40
1
10
255.23370333015919
20
-188.83495032787323
30
0
10
254.60124798119068
20
-188.83495032787323
30
0
10
254.35748942196369
20
-188.59778106212616
30
0
0
SPLINE
5
304
100
AcDbEntity
8
0
100
AcDbSpline
70
0
71
2
72
6
73
3
74
0
42
0.000000001
43
0.0000000001
44
0.0000000001
40
0
40
0
40
0
40
1
40
1
40
1
10
254.35748942196369
20
-188.59778106212616
30
0
10
254.11373056471348
20
-188.3606094121933
30
0
10
254.11373056471348
20
-187.74133145809174
30
0
0
LINE
5
305
100
AcDbEntity
8
0
100
AcDbLine
10
254.11373056471348
20
-187.74133145809176
30
0
11
254.11373056471348
21
-185.25103986263275
31
0
0
SPLINE
5
306
100
AcDbEntity
8
0
100
AcDbSpline
70
0
71
2
72
6
73
3
74
0
42
0.000000001
43
0.0000000001
44
0.0000000001
40
0
40
0
40
0
40
1
40
1
40
1
10
254.11373056471348
20
-185.25103986263275
30
0
10
254.11373056471348
20
-184.8821085691452
30
0
10
254.37066532671452
20
-184.71081674098969
30
0
0
SPLINE
5
307
100
AcDbEntity
8
0
100
AcDbSpline
70
0
71
2
72
6
73
3
74
0
42
0.000000001
43
0.0000000001
44
0.0000000001
40
0
40
0
40
0
40
1
40
1
40
1
10
254.37066532671452
20
-184.71081674098969
30
0
10
254.62760038673878
20
-184.53952729701996
30
0
10
254.97018046677113
20
-184.53952729701996
30
0
0
SPLINE
5
308
100
AcDbEntity
8
0
100
AcDbSpline
70
0
71
2
72
6
73
3
74
0
42
0.000000001
43
0.0000000001
44
0.0000000001
40
0
40
0
40
0
40
1
40
1
40
1
10
254.97018046677113
20
-184.53952729701996
30
0
10
255.29958374798298
20
-184.53952729701996
30
0
10
255.55651850998402
20
-184.71081674098969
30
0
0
SPLINE
5
309
100
AcDbEntity
8
0
100
AcDbSpline
70
0
71
2
72
6
73
3
74
0
42
0.000000001
43
0.0000000001
44
0.0000000001
40
0
40
0
40
0
40
1
40
1
40
1
10
255.55651850998402
20
-184.71081674098969
30
0
10
255.81345327198505
20
-184.8821085691452
30
0
10
255.81345327198505
20
-185.25103986263275
30
0
0
LINE
5
310
100
AcDbEntity
8
0
100
AcDbLine
10
255.81345327198505
20
-185.25103986263278
30
0
11
255.81345327198505
21
-187.09569871425629
31
0
0
SPLINE
5
311
100
AcDbEntity
8
0
100
AcDbSpline
70
0
71
2
72
6
73
3
74
0
42
0.000000001
43
0.0000000001
44
0.0000000001
40
0
40
0
40
0
40
1
40
1
40
1
10
255.81345327198505
20
-187.09569871425629
30
0
10
255.81345327198505
20
-187.39875018596649
30
0
10
256.11650474369526
20
-187.39875018596649
30
0
0
LINE
5
312
100
AcDbEntity
8
0
100
AcDbLine
10
256.11650474369526
20
-187.39875018596649
30
0
11
261.79542250931263
21
-187.39875018596649
31
0
0
SPLINE
5
313
100
AcDbEntity
8
0
100
AcDbSpline
70
0
71
2
72
6
73
3
74
0
42
0.000000001
43
0.0000000001
44
0.0000000001
40
0
40
0
40
0
40
1
40
1
40
1
10
261.79542250931263
20
-187.39875018596649
30
0
10
262.09847398102283
20
-187.39875018596649
30
0
10
262.24341101944447
20
-187.60956943035126
30
0
0
SPLINE
5
314
100
AcDbEntity
8
0
100
AcDbSpline
70
0
71
2
72
6
73
3
74
0
42
0.000000001
43
0.0000000001
44
0.0000000001
40
0
40
0
40
0
40
1
40
1
40
1
10
262.24341101944447
20
-187.60956943035126
30
0
10
262.38835044205189
20
-187.82038867473602
30
0
10
262.38835044205189
20
-188.12343776226044
30
0
0
SPLINE
5
315
100
AcDbEntity
8
0
100
AcDbSpline
70
0
71
2
72
6
73
3
74
0
42
0.000000001
43
0.0000000001
44
0.0000000001
40
0
40
0
40
0
40
1
40
1
40
1
10
262.38835044205189
20
-188.12343776226044
30
0
10
262.38835044205189
20
-188.41331422328949
30
0
10
262.24341101944447
20
-188.62413108348846
30
0
0
SPLINE
5
316
100
AcDbEntity
8
0
100
AcDbSpline
70
0
71
2
72
6
73
3
74
0
42
0.000000001
43
0.0000000001
44
0.0000000001
40
0
40
0
40
0
40
1
40
1
40
1
10
262.24341101944447
20
-188.62413108348846
30
0
10
262.09847398102283
20
-188.83495032787323
30
0
10
261.79542250931263
20
-188.83495032787323
30
0
0
LINE
5
317
100
AcDbEntity
8
0
100
AcDbLine
10
261.79542250931263
20
-188.83495032787323
30
0
11
255.23370333015919
21
-188.83495032787323
31
0
0
LINE
5
318
100
AcDbEntity
8
0
100
AcDbLine
10
256.65672667324543
20
-169.7163662314415
30
0
11
258.34327287971973
21
-169.7163662314415
31
0
0
LINE
5
319
100
AcDbEntity
8
0
100
AcDbLine
10
271.65672667324543
20
-169.7163662314415
30
0
11
273.34327287971973
21
-169.7163662314415
31
0
0
LINE
5
320
100
AcDbEntity
8
0
100
AcDbLine
10
271.65672667324543
20
-171.16574227809906
30
0
11
271.65672667324543
21
-169.7163662314415
31
0
0
LINE
5
321
100
AcDbEntity
8
0
100
AcDbLine
10
273.34327287971973
20
-169.7163662314415
30
0
11
273.34327287971973
21
-171.16574227809906
31
0
0
ENDSEC
0
SECTION
2
OBJECTS
0
DICTIONARY
5
C
100
AcDbDictionary
3
ACAD_GROUP
350
D
3
ACAD_MLINESTYLE
350
17
0
DICTIONARY
5
D
100
AcDbDictionary
0
DICTIONARY
5
1A
330
C
100
AcDbDictionary
0
DICTIONARY
5
17
100
AcDbDictionary
0
ENDSEC
0
EOF
