0
SECTION
2
HEADER
9
$INSUNITS
70
4
9
$ACADVER
1
AC1014
9
$HANDSEED
5
FFFF
0
ENDSEC
0
SECTION
2
TABLES
0
TABLE
2
VPORT
5
8
100
AcDbSymbolTable
0
ENDTAB
0
TABLE
2
LTYPE
5
5
100
AcDbSymbolTable
0
LTYPE
5
14
100
AcDbSymbolTableRecord
100
AcDbLinetypeTableRecord
2
BYBLOCK
70
0
0
LTYPE
5
15
100
AcDbSymbolTableRecord
100
AcDbLinetypeTableRecord
2
BYLAYER
70
0
0
ENDTAB
0
TABLE
2
LAYER
5
2
100
AcDbSymbolTable
70
2
0
LAYER
5
50
100
AcDbSymbolTableRecord
100
AcDbLayerTableRecord
2
0
70
0
6
CONTINUOUS
0
ENDTAB
0
TABLE
2
STYLE
5
3
100
AcDbSymbolTable
70
1
0
STYLE
5
11
100
AcDbSymbolTableRecord
100
AcDbTextStyleTableRecord
2
STANDARD
70
0
0
ENDTAB
0
TABLE
2
VIEW
5
6
100
AcDbSymbolTable
70
0
0
ENDTAB
0
TABLE
2
UCS
5
7
100
AcDbSymbolTable
70
0
0
ENDTAB
0
TABLE
2
APPID
5
9
100
AcDbSymbolTable
70
2
0
APPID
5
12
100
AcDbSymbolTableRecord
100
AcDbRegAppTableRecord
2
ACAD
70
0
0
ENDTAB
0
TABLE
2
DIMSTYLE
5
A
100
AcDbSymbolTable
70
1
0
ENDTAB
0
TABLE
2
BLOCK_RECORD
5
1
100
AcDbSymbolTable
70
1
0
BLOCK_RECORD
5
1F
100
AcDbSymbolTableRecord
100
AcDbBlockTableRecord
2
*MODEL_SPACE
0
BLOCK_RECORD
5
1B
100
AcDbSymbolTableRecord
100
AcDbBlockTableRecord
2
*PAPER_SPACE
0
ENDTAB
0
ENDSEC
0
SECTION
2
BLOCKS
0
BLOCK
5
20
100
AcDbEntity
100
AcDbBlockBegin
2
*MODEL_SPACE
0
ENDBLK
5
21
100
AcDbEntity
100
AcDbBlockEnd
0
BLOCK
5
1C
100
AcDbEntity
100
AcDbBlockBegin
2
*PAPER_SPACE
0
ENDBLK
5
1D
100
AcDbEntity
100
AcDbBlockEnd
0
ENDSEC
0
SECTION
2
ENTITIES
0
LWPOLYLINE
5
100
100
AcDbEntity
8
0
100
AcDbPolyline
90
12
70
1
43
0.0
10
513
20
-70
42
-0.41421356237309681
10
510
20
-67.000000000000014
10
510
20
-45.000000000000014
42
-0.41421356237310336
10
515
20
-40.000000000000014
10
535
20
-40.000000000000014
42
-0.41421356237310336
10
540
20
-45.000000000000014
10
540
20
-67.000000000000014
42
-0.41421356237309681
10
537
20
-70.000000000000014
10
535
20
-70.000000000000014
10
535
20
-83.000000000004349
10
514.99999999997181
20
-83.000000000004349
10
515.00000000000182
20
-70.000000000004334
0
SPLINE
5
101
100
AcDbEntity
8
0
100
AcDbSpline
70
0
71
2
72
6
73
3
74
0
42
0.000000001
43
0.0000000001
44
0.0000000001
40
0
40
0
40
0
40
1
40
1
40
1
10
516.31761454045818
20
-48.300278186789768
30
0
10
516.31761454045829
20
-47.024273872367161
30
0
10
516.91400907933769
20
-46.081137657157413
30
0
0
SPLINE
5
102
100
AcDbEntity
8
0
100
AcDbSpline
70
0
71
2
72
6
73
3
74
0
42
0.000000001
43
0.0000000001
44
0.0000000001
40
0
40
0
40
0
40
1
40
1
40
1
10
516.91400907933769
20
-46.081137657157413
30
0
10
517.51040302217075
20
-45.138003826133456
30
0
10
518.63384269177982
20
-44.51387166976177
30
0
0
SPLINE
5
103
100
AcDbEntity
8
0
100
AcDbSpline
70
0
71
2
72
6
73
3
74
0
42
0.000000001
43
0.0000000001
44
0.0000000001
40
0
40
0
40
0
40
1
40
1
40
1
10
518.63384269177982
20
-44.51387166976177
30
0
10
519.75728295743534
20
-43.889737129204313
30
0
10
521.36615894734928
20
-43.598475456231249
30
0
0
SPLINE
5
104
100
AcDbEntity
8
0
100
AcDbSpline
70
0
71
2
72
6
73
3
74
0
42
0.000000001
43
0.0000000001
44
0.0000000001
40
0
40
0
40
0
40
1
40
1
40
1
10
521.36615894734928
20
-43.598475456231249
30
0
10
522.97503493726322
20
-43.307213783258192
30
0
10
525.0000002235181
20
-43.307213783258902
30
0
0
SPLINE
5
105
100
AcDbEntity
8
0
100
AcDbSpline
70
0
71
2
72
6
73
3
74
0
42
0.000000001
43
0.0000000001
44
0.0000000001
40
0
40
0
40
0
40
1
40
1
40
1
10
525.0000002235181
20
-43.307213783258902
30
0
10
527.02496550977298
20
-43.30721378325962
30
0
10
528.63384269177982
20
-43.598475456233821
30
0
0
SPLINE
5
106
100
AcDbEntity
8
0
100
AcDbSpline
70
0
71
2
72
6
73
3
74
0
42
0.000000001
43
0.0000000001
44
0.0000000001
40
0
40
0
40
0
40
1
40
1
40
1
10
528.63384269177982
20
-43.598475456233821
30
0
10
530.24271987378665
20
-43.889737129208022
30
0
10
531.36615775525638
20
-44.513871669766289
30
0
0
SPLINE
5
107
100
AcDbEntity
8
0
100
AcDbSpline
70
0
71
2
72
6
73
3
74
0
42
0.000000001
43
0.0000000001
44
0.0000000001
40
0
40
0
40
0
40
1
40
1
40
1
10
531.36615775525638
20
-44.513871669766289
30
0
10
532.48959563672611
20
-45.138003826138757
30
0
10
533.08599017560539
20
-46.08113765716314
30
0
0
SPLINE
5
108
100
AcDbEntity
8
0
100
AcDbSpline
70
0
71
2
72
6
73
3
74
0
42
0.000000001
43
0.0000000001
44
0.0000000001
40
0
40
0
40
0
40
1
40
1
40
1
10
533.08599017560539
20
-46.08113765716314
30
0
10
533.68238471448478
20
-47.0242738723733
30
0
10
533.68238471448467
20
-48.300278186795907
30
0
0
SPLINE
5
109
100
AcDbEntity
8
0
100
AcDbSpline
70
0
71
2
72
6
73
3
74
0
42
0.000000001
43
0.0000000001
44
0.0000000001
40
0
40
0
40
0
40
1
40
1
40
1
10
533.68238471448467
20
-48.300278186795907
30
0
10
533.68238471448467
20
-49.604022502896981
30
0
10
533.08599017560527
20
-50.5332875251746
30
0
0
SPLINE
5
110
100
AcDbEntity
8
0
100
AcDbSpline
70
0
71
2
72
6
73
3
74
0
42
0.000000001
43
0.0000000001
44
0.0000000001
40
0
40
0
40
0
40
1
40
1
40
1
10
533.08599017560527
20
-50.5332875251746
30
0
10
532.48959563672588
20
-51.462552547452233
30
0
10
531.36615775525604
20
-52.086687088009697
30
0
0
SPLINE
5
111
100
AcDbEntity
8
0
100
AcDbSpline
70
0
71
2
72
6
73
3
74
0
42
0.000000001
43
0.0000000001
44
0.0000000001
40
0
40
0
40
0
40
1
40
1
40
1
10
531.36615775525604
20
-52.086687088009697
30
0
10
530.24271987378631
20
-52.710819244381362
30
0
10
528.63384269177948
20
-53.002080917354427
30
0
0
SPLINE
5
112
100
AcDbEntity
8
0
100
AcDbSpline
70
0
71
2
72
6
73
3
74
0
42
0.000000001
43
0.0000000001
44
0.0000000001
40
0
40
0
40
0
40
1
40
1
40
1
10
528.63384269177948
20
-53.002080917354427
30
0
10
527.02496550977264
20
-53.293342590327491
30
0
10
525.00000022351776
20
-53.293342590326773
30
0
0
SPLINE
5
113
100
AcDbEntity
8
0
100
AcDbSpline
70
0
71
2
72
6
73
3
74
0
42
0.000000001
43
0.0000000001
44
0.0000000001
40
0
40
0
40
0
40
1
40
1
40
1
10
525.00000022351776
20
-53.293342590326773
30
0
10
522.97503493726288
20
-53.293342590326063
30
0
10
521.36615894734894
20
-53.002080917351854
30
0
0
SPLINE
5
114
100
AcDbEntity
8
0
100
AcDbSpline
70
0
71
2
72
6
73
3
74
0
42
0.000000001
43
0.0000000001
44
0.0000000001
40
0
40
0
40
0
40
1
40
1
40
1
10
521.36615894734894
20
-53.002080917351854
30
0
10
519.757282957435
20
-52.710819244377653
30
0
10
518.63384269177948
20
-52.086687088005178
30
0
0
SPLINE
5
115
100
AcDbEntity
8
0
100
AcDbSpline
70
0
71
2
72
6
73
3
74
0
42
0.000000001
43
0.0000000001
44
0.0000000001
40
0
40
0
40
0
40
1
40
1
40
1
10
518.63384269177948
20
-52.086687088005178
30
0
10
517.51040302217052
20
-51.462552547446933
30
0
10
516.91400907933757
20
-50.533287525168888
30
0
0
SPLINE
5
116
100
AcDbEntity
8
0
100
AcDbSpline
70
0
71
2
72
6
73
3
74
0
42
0.000000001
43
0.0000000001
44
0.0000000001
40
0
40
0
40
0
40
1
40
1
40
1
10
516.91400907933757
20
-50.533287525168888
30
0
10
516.31761454045818
20
-49.604022502890842
30
0
10
516.31761454045818
20
-48.300278186789768
30
0
0
SPLINE
5
117
100
AcDbEntity
8
0
100
AcDbSpline
70
0
71
2
72
6
73
3
74
0
42
0.000000001
43
0.0000000001
44
0.0000000001
40
0
40
0
40
0
40
1
40
1
40
1
10
530.15950225293682
20
-48.300278186794671
30
0
10
530.15950225293693
20
-47.301664352413567
30
0
10
528.96671317517814
20
-46.733009815212213
30
0
0
SPLINE
5
118
100
AcDbEntity
8
0
100
AcDbSpline
70
0
71
2
72
6
73
3
74
0
42
0.000000001
43
0.0000000001
44
0.0000000001
40
0
40
0
40
0
40
1
40
1
40
1
10
528.96671317517814
20
-46.733009815212213
30
0
10
527.77392528951225
20
-46.164355278010866
30
0
10
525.00000022351799
20
-46.164355278009879
30
0
0
SPLINE
5
119
100
AcDbEntity
8
0
100
AcDbSpline
70
0
71
2
72
6
73
3
74
0
42
0.000000001
43
0.0000000001
44
0.0000000001
40
0
40
0
40
0
40
1
40
1
40
1
10
525.00000022351799
20
-46.164355278009879
30
0
10
522.22607515752372
20
-46.164355278008898
30
0
10
521.03328727185783
20
-46.7330098152094
30
0
0
SPLINE
5
120
100
AcDbEntity
8
0
100
AcDbSpline
70
0
71
2
72
6
73
3
74
0
42
0.000000001
43
0.0000000001
44
0.0000000001
40
0
40
0
40
0
40
1
40
1
40
1
10
521.03328727185783
20
-46.7330098152094
30
0
10
519.84050057828483
20
-47.301664352409901
30
0
10
519.84050057828472
20
-48.300278186791004
30
0
0
SPLINE
5
121
100
AcDbEntity
8
0
100
AcDbSpline
70
0
71
2
72
6
73
3
74
0
42
0.000000001
43
0.0000000001
44
0.0000000001
40
0
40
0
40
0
40
1
40
1
40
1
10
519.84050057828472
20
-48.300278186791004
30
0
10
519.84050057828472
20
-49.298892021172108
30
0
10
521.03328727185772
20
-49.867546558373462
30
0
0
SPLINE
5
122
100
AcDbEntity
8
0
100
AcDbSpline
70
0
71
2
72
6
73
3
74
0
42
0.000000001
43
0.0000000001
44
0.0000000001
40
0
40
0
40
0
40
1
40
1
40
1
10
521.03328727185772
20
-49.867546558373462
30
0
10
522.22607515752361
20
-50.436201095574816
30
0
10
525.00000022351787
20
-50.436201095575797
30
0
0
SPLINE
5
123
100
AcDbEntity
8
0
100
AcDbSpline
70
0
71
2
72
6
73
3
74
0
42
0.000000001
43
0.0000000001
44
0.0000000001
40
0
40
0
40
0
40
1
40
1
40
1
10
525.00000022351787
20
-50.436201095575797
30
0
10
527.77392528951214
20
-50.436201095576784
30
0
10
528.96671317517803
20
-49.867546558376276
30
0
0
SPLINE
5
124
100
AcDbEntity
8
0
100
AcDbSpline
70
0
71
2
72
6
73
3
74
0
42
0.000000001
43
0.0000000001
44
0.0000000001
40
0
40
0
40
0
40
1
40
1
40
1
10
528.96671317517803
20
-49.867546558376276
30
0
10
530.15950225293682
20
-49.298892021175774
30
0
10
530.15950225293682
20
-48.300278186794671
30
0
0
SPLINE
5
125
100
AcDbEntity
8
0
100
AcDbSpline
70
0
71
2
72
6
73
3
74
0
42
0.000000001
43
0.0000000001
44
0.0000000001
40
0
40
0
40
0
40
1
40
1
40
1
10
535.51317714154743
20
-54.735784530638114
30
0
10
536.15118049085163
20
-54.735784530638341
30
0
10
536.44244216382526
20
-55.165743827818616
30
0
0
SPLINE
5
126
100
AcDbEntity
8
0
100
AcDbSpline
70
0
71
2
72
6
73
3
74
0
42
0.000000001
43
0.0000000001
44
0.0000000001
40
0
40
0
40
0
40
1
40
1
40
1
10
536.44244216382526
20
-55.165743827818616
30
0
10
536.7337038367989
20
-55.595700740813108
30
0
10
536.7337038367989
20
-56.20596408843884
30
0
0
SPLINE
5
127
100
AcDbEntity
8
0
100
AcDbSpline
70
0
71
2
72
6
73
3
74
0
42
0.000000001
43
0.0000000001
44
0.0000000001
40
0
40
0
40
0
40
1
40
1
40
1
10
536.7337038367989
20
-56.20596408843884
30
0
10
536.7337038367989
20
-56.788489818571897
30
0
10
536.44244216382526
20
-57.218446731566175
30
0
0
SPLINE
5
128
100
AcDbEntity
8
0
100
AcDbSpline
70
0
71
2
72
6
73
3
74
0
42
0.000000001
43
0.0000000001
44
0.0000000001
40
0
40
0
40
0
40
1
40
1
40
1
10
536.44244216382526
20
-57.218446731566175
30
0
10
536.15118049085163
20
-57.648406028746244
30
0
10
535.51317714154743
20
-57.648406028746024
30
0
0
LINE
5
129
100
AcDbEntity
8
0
100
AcDbLine
10
535.51317714154743
20
-57.648406028746024
30
0
11
530.15950225293659
21
-57.648406028744134
31
0
0
LINE
5
130
100
AcDbEntity
8
0
100
AcDbLine
10
526.7753126472237
20
-57.648406028742926
30
0
11
523.22468779981159
21
-57.648406028741661
31
0
0
LINE
5
131
100
AcDbEntity
8
0
100
AcDbLine
10
519.84050057828449
20
-57.648406028740467
30
0
11
514.48682449758076
21
-57.648406028738577
31
0
0
SPLINE
5
132
100
AcDbEntity
8
0
100
AcDbSpline
70
0
71
2
72
6
73
3
74
0
42
0.000000001
43
0.0000000001
44
0.0000000001
40
0
40
0
40
0
40
1
40
1
40
1
10
514.48682449758076
20
-57.648406028738577
30
0
10
513.848821744323
20
-57.648406028738357
30
0
10
513.55755977332615
20
-57.218446731558075
30
0
0
SPLINE
5
133
100
AcDbEntity
8
0
100
AcDbSpline
70
0
71
2
72
6
73
3
74
0
42
0.000000001
43
0.0000000001
44
0.0000000001
40
0
40
0
40
0
40
1
40
1
40
1
10
513.55755977332615
20
-57.218446731558075
30
0
10
513.26629750430607
20
-56.788489818563583
30
0
10
513.26629750430607
20
-56.205964088430527
30
0
0
SPLINE
5
134
100
AcDbEntity
8
0
100
AcDbSpline
70
0
71
2
72
6
73
3
74
0
42
0.000000001
43
0.0000000001
44
0.0000000001
40
0
40
0
40
0
40
1
40
1
40
1
10
513.26629750430607
20
-56.205964088430527
30
0
10
513.26629750430607
20
-55.595700740804794
30
0
10
513.55755977332615
20
-55.165743827810516
30
0
0
SPLINE
5
135
100
AcDbEntity
8
0
100
AcDbSpline
70
0
71
2
72
6
73
3
74
0
42
0.000000001
43
0.0000000001
44
0.0000000001
40
0
40
0
40
0
40
1
40
1
40
1
10
513.55755977332615
20
-55.165743827810516
30
0
10
513.848821744323
20
-54.735784530630447
30
0
10
514.48682449758076
20
-54.735784530630667
30
0
0
LINE
5
136
100
AcDbEntity
8
0
100
AcDbLine
10
514.48682449758087
20
-54.735784530630667
30
0
11
535.51317714154743
21
-54.735784530638114
31
0
0
SPLINE
5
137
100
AcDbEntity
8
0
100
AcDbSpline
70
0
71
2
72
6
73
3
74
0
42
0.000000001
43
0.0000000001
44
0.0000000001
40
0
40
0
40
0
40
1
40
1
40
1
10
530.18723987042904
20
-63.723301887508782
30
0
10
530.18723987042904
20
-63.085298538204583
30
0
10
529.54923652112484
20
-63.08529853820437
30
0
0
LINE
5
138
100
AcDbEntity
8
0
100
AcDbLine
10
529.54923652112484
20
-63.08529853820437
30
0
11
517.14979253709316
21
-63.085298538199979
31
0
0
SPLINE
5
139
100
AcDbEntity
8
0
100
AcDbSpline
70
0
71
2
72
6
73
3
74
0
42
0.000000001
43
0.0000000001
44
0.0000000001
40
0
40
0
40
0
40
1
40
1
40
1
10
517.14979253709316
20
-63.085298538199972
30
0
10
516.51178978383541
20
-63.085298538199751
30
0
10
516.22052751481533
20
-62.655339241019462
30
0
0
SPLINE
5
140
100
AcDbEntity
8
0
100
AcDbSpline
70
0
71
2
72
6
73
3
74
0
42
0.000000001
43
0.0000000001
44
0.0000000001
40
0
40
0
40
0
40
1
40
1
40
1
10
516.22052751481533
20
-62.655339241019462
30
0
10
515.92926524579536
20
-62.225382328024978
30
0
10
515.92926524579536
20
-61.615118980399245
30
0
0
SPLINE
5
141
100
AcDbEntity
8
0
100
AcDbSpline
70
0
71
2
72
6
73
3
74
0
42
0.000000001
43
0.0000000001
44
0.0000000001
40
0
40
0
40
0
40
1
40
1
40
1
10
515.92926524579536
20
-61.615118980399245
30
0
10
515.92926524579536
20
-61.004855632773513
30
0
10
516.22052751481544
20
-60.574896335593436
30
0
0
SPLINE
5
142
100
AcDbEntity
8
0
100
AcDbSpline
70
0
71
2
72
6
73
3
74
0
42
0.000000001
43
0.0000000001
44
0.0000000001
40
0
40
0
40
0
40
1
40
1
40
1
10
516.22052751481544
20
-60.574896335593436
30
0
10
516.51178978383552
20
-60.144939422599165
30
0
10
517.14979253709328
20
-60.144939422599386
30
0
0
LINE
5
143
100
AcDbEntity
8
0
100
AcDbLine
10
517.14979253709328
20
-60.144939422599386
30
0
11
531.38002894818794
21
-60.144939422604423
31
0
0
SPLINE
5
144
100
AcDbEntity
8
0
100
AcDbSpline
70
0
71
2
72
6
73
3
74
0
42
0.000000001
43
0.0000000001
44
0.0000000001
40
0
40
0
40
0
40
1
40
1
40
1
10
531.38002894818794
20
-60.144939422604423
30
0
10
532.71151088178169
20
-60.144939422604899
30
0
10
533.22468779981148
20
-60.644245147702733
30
0
0
SPLINE
5
145
100
AcDbEntity
8
0
100
AcDbSpline
70
0
71
2
72
6
73
3
74
0
42
0.000000001
43
0.0000000001
44
0.0000000001
40
0
40
0
40
0
40
1
40
1
40
1
10
533.22468779981148
20
-60.644245147702733
30
0
10
533.73786471784126
20
-61.143550872800567
30
0
10
533.73786471784115
20
-62.447295188901641
30
0
0
LINE
5
146
100
AcDbEntity
8
0
100
AcDbLine
10
533.73786471784115
20
-62.447295188901641
30
0
11
533.73786471784103
21
-67.468099594114051
31
0
0
SPLINE
5
147
100
AcDbEntity
8
0
100
AcDbSpline
70
0
71
2
72
6
73
3
74
0
42
0.000000001
43
0.0000000001
44
0.0000000001
40
0
40
0
40
0
40
1
40
1
40
1
10
533.73786471784103
20
-67.468099594114051
30
0
10
533.73786471784103
20
-68.244800567624793
30
0
10
533.19695018231846
20
-68.605408668515707
30
0
0
SPLINE
5
148
100
AcDbEntity
8
0
100
AcDbSpline
70
0
71
2
72
6
73
3
74
0
42
0.000000001
43
0.0000000001
44
0.0000000001
40
0
40
0
40
0
40
1
40
1
40
1
10
533.19695018231846
20
-68.605408668515707
30
0
10
532.65603087842442
20
-68.966019153592427
30
0
10
531.96255229413487
20
-68.966019153592185
30
0
0
SPLINE
5
149
100
AcDbEntity
8
0
100
AcDbSpline
70
0
71
2
72
6
73
3
74
0
42
0.000000001
43
0.0000000001
44
0.0000000001
40
0
40
0
40
0
40
1
40
1
40
1
10
531.96255229413487
20
-68.966019153592185
30
0
10
531.26907132565952
20
-68.96601915359193
30
0
10
530.72815440595127
20
-68.605408668514826
30
0
0
SPLINE
5
150
100
AcDbEntity
8
0
100
AcDbSpline
70
0
71
2
72
6
73
3
74
0
42
0.000000001
43
0.0000000001
44
0.0000000001
40
0
40
0
40
0
40
1
40
1
40
1
10
530.72815440595127
20
-68.605408668514826
30
0
10
530.18723987042893
20
-68.244800567623528
30
0
10
530.18723987042893
20
-67.468099594112786
30
0
0
LINE
5
151
100
AcDbEntity
8
0
100
AcDbLine
10
530.18723987042893
20
-67.468099594112786
30
0
11
530.18723987042904
21
-63.723301887508782
31
0
0
LINE
5
152
100
AcDbEntity
8
0
100
AcDbLine
10
530.15950225293659
20
-57.648406028744134
30
0
11
530.15950225293579
21
-59.779774509151821
31
0
0
LINE
5
153
100
AcDbEntity
8
0
100
AcDbLine
10
530.15950225293579
20
-59.779774509151821
30
0
11
526.7753126472237
21
-59.779774509150585
31
0
0
LINE
5
154
100
AcDbEntity
8
0
100
AcDbLine
10
526.7753126472237
20
-59.779774509150585
30
0
11
526.7753126472237
21
-57.648406028742926
31
0
0
LINE
5
155
100
AcDbEntity
8
0
100
AcDbLine
10
523.22468779981159
20
-57.648406028741661
30
0
11
523.22468779981079
21
-59.779774509150585
31
0
0
LINE
5
156
100
AcDbEntity
8
0
100
AcDbLine
10
523.22468779981079
20
-59.779774509150585
30
0
11
519.84050057828449
21
-59.779774509149341
31
0
0
LINE
5
157
100
AcDbEntity
8
0
100
AcDbLine
10
519.84050057828449
20
-59.779774509149341
30
0
11
519.84050057828449
21
-57.648406028740467
31
0
0
ENDSEC
0
SECTION
2
OBJECTS
0
DICTIONARY
5
C
100
AcDbDictionary
3
ACAD_GROUP
350
D
3
ACAD_MLINESTYLE
350
17
0
DICTIONARY
5
D
100
AcDbDictionary
0
DICTIONARY
5
1A
330
C
100
AcDbDictionary
0
DICTIONARY
5
17
100
AcDbDictionary
0
ENDSEC
0
EOF
