0
SECTION
2
HEADER
9
$INSUNITS
70
4
9
$ACADVER
1
AC1014
9
$HANDSEED
5
FFFF
0
ENDSEC
0
SECTION
2
TABLES
0
TABLE
2
VPORT
5
8
100
AcDbSymbolTable
0
ENDTAB
0
TABLE
2
LTYPE
5
5
100
AcDbSymbolTable
0
LTYPE
5
14
100
AcDbSymbolTableRecord
100
AcDbLinetypeTableRecord
2
BYBLOCK
70
0
0
LTYPE
5
15
100
AcDbSymbolTableRecord
100
AcDbLinetypeTableRecord
2
BYLAYER
70
0
0
ENDTAB
0
TABLE
2
LAYER
5
2
100
AcDbSymbolTable
70
2
0
LAYER
5
50
100
AcDbSymbolTableRecord
100
AcDbLayerTableRecord
2
0
70
0
6
CONTINUOUS
0
ENDTAB
0
TABLE
2
STYLE
5
3
100
AcDbSymbolTable
70
1
0
STYLE
5
11
100
AcDbSymbolTableRecord
100
AcDbTextStyleTableRecord
2
STANDARD
70
0
0
ENDTAB
0
TABLE
2
VIEW
5
6
100
AcDbSymbolTable
70
0
0
ENDTAB
0
TABLE
2
UCS
5
7
100
AcDbSymbolTable
70
0
0
ENDTAB
0
TABLE
2
APPID
5
9
100
AcDbSymbolTable
70
2
0
APPID
5
12
100
AcDbSymbolTableRecord
100
AcDbRegAppTableRecord
2
ACAD
70
0
0
ENDTAB
0
TABLE
2
DIMSTYLE
5
A
100
AcDbSymbolTable
70
1
0
ENDTAB
0
TABLE
2
BLOCK_RECORD
5
1
100
AcDbSymbolTable
70
1
0
BLOCK_RECORD
5
1F
100
AcDbSymbolTableRecord
100
AcDbBlockTableRecord
2
*MODEL_SPACE
0
BLOCK_RECORD
5
1B
100
AcDbSymbolTableRecord
100
AcDbBlockTableRecord
2
*PAPER_SPACE
0
ENDTAB
0
ENDSEC
0
SECTION
2
BLOCKS
0
BLOCK
5
20
100
AcDbEntity
100
AcDbBlockBegin
2
*MODEL_SPACE
0
ENDBLK
5
21
100
AcDbEntity
100
AcDbBlockEnd
0
BLOCK
5
1C
100
AcDbEntity
100
AcDbBlockBegin
2
*PAPER_SPACE
0
ENDBLK
5
1D
100
AcDbEntity
100
AcDbBlockEnd
0
ENDSEC
0
SECTION
2
ENTITIES
0
LWPOLYLINE
5
100
100
AcDbEntity
8
0
100
AcDbPolyline
90
12
70
1
43
0.0
10
433
20
150.00000000000003
42
-0.41421356237309681
10
430
20
153
10
430
20
175
42
-0.41421356237310336
10
435
20
180
10
455
20
180
42
-0.41421356237310336
10
460
20
175
10
460
20
153
42
-0.41421356237309681
10
457
20
150
10
455
20
150
10
455
20
136.99999999999989
10
434.9999999999734
20
136.99999999999568
10
435.00000000000176
20
149.99999999999568
0
SPLINE
5
101
100
AcDbEntity
8
0
100
AcDbSpline
70
0
71
2
72
6
73
3
74
0
42
0.000000001
43
0.0000000001
44
0.0000000001
40
0
40
0
40
0
40
1
40
1
40
1
10
434.79195609688736
20
167.37239837646487
30
0
10
434.7919560968873
20
171.50554656982425
30
0
10
436.45631089806528
20
173.65533828735352
30
0
0
SPLINE
5
102
100
AcDbEntity
8
0
100
AcDbSpline
70
0
71
2
72
6
73
3
74
0
42
0.000000001
43
0.0000000001
44
0.0000000001
40
0
40
0
40
0
40
1
40
1
40
1
10
436.45631089806528
20
173.65533828735352
30
0
10
438.12066569924326
20
175.80513000488281
30
0
10
441.47711530327769
20
175.80513000488281
30
0
0
SPLINE
5
103
100
AcDbEntity
8
0
100
AcDbSpline
70
0
71
2
72
6
73
3
74
0
42
0.000000001
43
0.0000000001
44
0.0000000001
40
0
40
0
40
0
40
1
40
1
40
1
10
441.47711530327769
20
175.80513000488281
30
0
10
444.83356490731211
20
175.80513000488281
30
0
10
446.49791970849009
20
173.65533828735352
30
0
0
SPLINE
5
104
100
AcDbEntity
8
0
100
AcDbSpline
70
0
71
2
72
6
73
3
74
0
42
0.000000001
43
0.0000000001
44
0.0000000001
40
0
40
0
40
0
40
1
40
1
40
1
10
446.49791970849009
20
173.65533828735352
30
0
10
448.16227450966807
20
171.50554656982422
30
0
10
448.16227450966812
20
167.37239837646484
30
0
0
SPLINE
5
105
100
AcDbEntity
8
0
100
AcDbSpline
70
0
71
2
72
6
73
3
74
0
42
0.000000001
43
0.0000000001
44
0.0000000001
40
0
40
0
40
0
40
1
40
1
40
1
10
448.16227450966812
20
167.37239837646484
30
0
10
448.16227450966812
20
163.23925018310547
30
0
10
446.49791970849014
20
161.08945846557617
30
0
0
SPLINE
5
106
100
AcDbEntity
8
0
100
AcDbSpline
70
0
71
2
72
6
73
3
74
0
42
0.000000001
43
0.0000000001
44
0.0000000001
40
0
40
0
40
0
40
1
40
1
40
1
10
446.49791970849014
20
161.08945846557617
30
0
10
444.83356490731217
20
158.93966674804688
30
0
10
441.47711530327774
20
158.93966674804688
30
0
0
SPLINE
5
107
100
AcDbEntity
8
0
100
AcDbSpline
70
0
71
2
72
6
73
3
74
0
42
0.000000001
43
0.0000000001
44
0.0000000001
40
0
40
0
40
0
40
1
40
1
40
1
10
441.47711530327774
20
158.93966674804688
30
0
10
438.12066569924332
20
158.9396667480469
30
0
10
436.45631089806534
20
161.08945846557617
30
0
0
SPLINE
5
108
100
AcDbEntity
8
0
100
AcDbSpline
70
0
71
2
72
6
73
3
74
0
42
0.000000001
43
0.0000000001
44
0.0000000001
40
0
40
0
40
0
40
1
40
1
40
1
10
436.45631089806534
20
161.08945846557617
30
0
10
434.79195609688736
20
163.2392501831055
30
0
10
434.79195609688736
20
167.37239837646487
30
0
0
SPLINE
5
109
100
AcDbEntity
8
0
100
AcDbSpline
70
0
71
2
72
6
73
3
74
0
42
0.000000001
43
0.0000000001
44
0.0000000001
40
0
40
0
40
0
40
1
40
1
40
1
10
444.75034609436966
20
167.37239837646484
30
0
10
444.7503460943696
20
170.00762701034546
30
0
10
444.02912631630869
20
171.36685132980347
30
0
0
SPLINE
5
110
100
AcDbEntity
8
0
100
AcDbSpline
70
0
71
2
72
6
73
3
74
0
42
0.000000001
43
0.0000000001
44
0.0000000001
40
0
40
0
40
0
40
1
40
1
40
1
10
444.02912631630869
20
171.36685132980347
30
0
10
443.30790534615488
20
172.72607326507568
30
0
10
441.47711530327769
20
172.72607326507568
30
0
0
SPLINE
5
111
100
AcDbEntity
8
0
100
AcDbSpline
70
0
71
2
72
6
73
3
74
0
42
0.000000001
43
0.0000000001
44
0.0000000001
40
0
40
0
40
0
40
1
40
1
40
1
10
441.47711530327769
20
172.72607326507568
30
0
10
439.64632406830759
20
172.72607326507568
30
0
10
438.92510429024668
20
171.36685132980347
30
0
0
SPLINE
5
112
100
AcDbEntity
8
0
100
AcDbSpline
70
0
71
2
72
6
73
3
74
0
42
0.000000001
43
0.0000000001
44
0.0000000001
40
0
40
0
40
0
40
1
40
1
40
1
10
438.92510429024668
20
171.36685132980347
30
0
10
438.20388391613932
20
170.00762701034546
30
0
10
438.20388391613938
20
167.37239837646484
30
0
0
SPLINE
5
113
100
AcDbEntity
8
0
100
AcDbSpline
70
0
71
2
72
6
73
3
74
0
42
0.000000001
43
0.0000000001
44
0.0000000001
40
0
40
0
40
0
40
1
40
1
40
1
10
438.20388391613938
20
167.37239837646484
30
0
10
438.20388391613938
20
164.73716974258423
30
0
10
438.92510429024674
20
163.37794542312622
30
0
0
SPLINE
5
114
100
AcDbEntity
8
0
100
AcDbSpline
70
0
71
2
72
6
73
3
74
0
42
0.000000001
43
0.0000000001
44
0.0000000001
40
0
40
0
40
0
40
1
40
1
40
1
10
438.92510429024674
20
163.37794542312622
30
0
10
439.64632406830765
20
162.018723487854
30
0
10
441.47711530327774
20
162.018723487854
30
0
0
SPLINE
5
115
100
AcDbEntity
8
0
100
AcDbSpline
70
0
71
2
72
6
73
3
74
0
42
0.000000001
43
0.0000000001
44
0.0000000001
40
0
40
0
40
0
40
1
40
1
40
1
10
441.47711530327774
20
162.018723487854
30
0
10
443.30790534615494
20
162.018723487854
30
0
10
444.02912631630875
20
163.37794542312622
30
0
0
SPLINE
5
116
100
AcDbEntity
8
0
100
AcDbSpline
70
0
71
2
72
6
73
3
74
0
42
0.000000001
43
0.0000000001
44
0.0000000001
40
0
40
0
40
0
40
1
40
1
40
1
10
444.02912631630875
20
163.37794542312622
30
0
10
444.75034609436966
20
164.73716974258423
30
0
10
444.75034609436966
20
167.37239837646484
30
0
0
SPLINE
5
117
100
AcDbEntity
8
0
100
AcDbSpline
70
0
71
2
72
6
73
3
74
0
42
0.000000001
43
0.0000000001
44
0.0000000001
40
0
40
0
40
0
40
1
40
1
40
1
10
455.20804300904251
20
154.47364807128903
30
0
10
455.20804300904251
20
153.69694948196408
30
0
10
454.66712847352005
20
153.33633899688718
30
0
0
SPLINE
5
118
100
AcDbEntity
8
0
100
AcDbSpline
70
0
71
2
72
6
73
3
74
0
42
0.000000001
43
0.0000000001
44
0.0000000001
40
0
40
0
40
0
40
1
40
1
40
1
10
454.66712847352005
20
153.33633899688718
30
0
10
454.1262115538118
20
152.97572851181027
30
0
10
453.40499296784378
20
152.97572851181027
30
0
0
SPLINE
5
119
100
AcDbEntity
8
0
100
AcDbSpline
70
0
71
2
72
6
73
3
74
0
42
0.000000001
43
0.0000000001
44
0.0000000001
40
0
40
0
40
0
40
1
40
1
40
1
10
453.40499296784378
20
152.97572851181027
30
0
10
452.71150961518265
20
152.97572851181027
30
0
10
452.17059507966019
20
153.33633899688718
30
0
0
SPLINE
5
120
100
AcDbEntity
8
0
100
AcDbSpline
70
0
71
2
72
6
73
3
74
0
42
0.000000001
43
0.0000000001
44
0.0000000001
40
0
40
0
40
0
40
1
40
1
40
1
10
452.17059507966019
20
153.33633899688718
30
0
10
451.62968054413773
20
153.69694948196408
30
0
10
451.62968054413773
20
154.47364807128903
30
0
0
LINE
5
121
100
AcDbEntity
8
0
100
AcDbLine
10
451.62968054413773
20
154.47364807128903
30
0
11
451.62968054413767
21
175.7219123840332
31
0
0
SPLINE
5
122
100
AcDbEntity
8
0
100
AcDbSpline
70
0
71
2
72
6
73
3
74
0
42
0.000000001
43
0.0000000001
44
0.0000000001
40
0
40
0
40
0
40
1
40
1
40
1
10
451.62968054413767
20
175.72191238403317
30
0
10
451.62968054413767
20
176.49861335754392
30
0
10
452.17059507966013
20
176.85922145843503
30
0
0
SPLINE
5
123
100
AcDbEntity
8
0
100
AcDbSpline
70
0
71
2
72
6
73
3
74
0
42
0.000000001
43
0.0000000001
44
0.0000000001
40
0
40
0
40
0
40
1
40
1
40
1
10
452.17059507966013
20
176.85922145843503
30
0
10
452.71150961518259
20
177.21983194351193
30
0
10
453.40499296784373
20
177.21983194351193
30
0
0
SPLINE
5
124
100
AcDbEntity
8
0
100
AcDbSpline
70
0
71
2
72
6
73
3
74
0
42
0.000000001
43
0.0000000001
44
0.0000000001
40
0
40
0
40
0
40
1
40
1
40
1
10
453.40499296784373
20
177.21983194351193
30
0
10
454.12621155381174
20
177.21983194351193
30
0
10
454.66712847351999
20
176.85922145843503
30
0
0
SPLINE
5
125
100
AcDbEntity
8
0
100
AcDbSpline
70
0
71
2
72
6
73
3
74
0
42
0.000000001
43
0.0000000001
44
0.0000000001
40
0
40
0
40
0
40
1
40
1
40
1
10
454.66712847351999
20
176.85922145843503
30
0
10
455.20804300904246
20
176.49861335754392
30
0
10
455.20804300904246
20
175.72191238403317
30
0
0
LINE
5
126
100
AcDbEntity
8
0
100
AcDbLine
10
455.20804300904246
20
175.72191238403317
30
0
11
455.20804300904251
21
154.47364807128903
31
0
0
ENDSEC
0
SECTION
2
OBJECTS
0
DICTIONARY
5
C
100
AcDbDictionary
3
ACAD_GROUP
350
D
3
ACAD_MLINESTYLE
350
17
0
DICTIONARY
5
D
100
AcDbDictionary
0
DICTIONARY
5
1A
330
C
100
AcDbDictionary
0
DICTIONARY
5
17
100
AcDbDictionary
0
ENDSEC
0
EOF
