0
SECTION
2
HEADER
9
$INSUNITS
70
4
9
$ACADVER
1
AC1014
9
$HANDSEED
5
FFFF
0
ENDSEC
0
SECTION
2
TABLES
0
TABLE
2
VPORT
5
8
100
AcDbSymbolTable
0
ENDTAB
0
TABLE
2
LTYPE
5
5
100
AcDbSymbolTable
0
LTYPE
5
14
100
AcDbSymbolTableRecord
100
AcDbLinetypeTableRecord
2
BYBLOCK
70
0
0
LTYPE
5
15
100
AcDbSymbolTableRecord
100
AcDbLinetypeTableRecord
2
BYLAYER
70
0
0
ENDTAB
0
TABLE
2
LAYER
5
2
100
AcDbSymbolTable
70
2
0
LAYER
5
50
100
AcDbSymbolTableRecord
100
AcDbLayerTableRecord
2
0
70
0
6
CONTINUOUS
0
ENDTAB
0
TABLE
2
STYLE
5
3
100
AcDbSymbolTable
70
1
0
STYLE
5
11
100
AcDbSymbolTableRecord
100
AcDbTextStyleTableRecord
2
STANDARD
70
0
0
ENDTAB
0
TABLE
2
VIEW
5
6
100
AcDbSymbolTable
70
0
0
ENDTAB
0
TABLE
2
UCS
5
7
100
AcDbSymbolTable
70
0
0
ENDTAB
0
TABLE
2
APPID
5
9
100
AcDbSymbolTable
70
2
0
APPID
5
12
100
AcDbSymbolTableRecord
100
AcDbRegAppTableRecord
2
ACAD
70
0
0
ENDTAB
0
TABLE
2
DIMSTYLE
5
A
100
AcDbSymbolTable
70
1
0
ENDTAB
0
TABLE
2
BLOCK_RECORD
5
1
100
AcDbSymbolTable
70
1
0
BLOCK_RECORD
5
1F
100
AcDbSymbolTableRecord
100
AcDbBlockTableRecord
2
*MODEL_SPACE
0
BLOCK_RECORD
5
1B
100
AcDbSymbolTableRecord
100
AcDbBlockTableRecord
2
*PAPER_SPACE
0
ENDTAB
0
ENDSEC
0
SECTION
2
BLOCKS
0
BLOCK
5
20
100
AcDbEntity
100
AcDbBlockBegin
2
*MODEL_SPACE
0
ENDBLK
5
21
100
AcDbEntity
100
AcDbBlockEnd
0
BLOCK
5
1C
100
AcDbEntity
100
AcDbBlockBegin
2
*PAPER_SPACE
0
ENDBLK
5
1D
100
AcDbEntity
100
AcDbBlockEnd
0
ENDSEC
0
SECTION
2
ENTITIES
0
LWPOLYLINE
5
100
100
AcDbEntity
8
0
100
AcDbPolyline
90
12
70
1
43
0.0
10
510
20
109
10
510
20
131
42
-0.41421356237310336
10
515
20
136
10
535
20
136
42
-0.41421356237310336
10
540
20
131
10
540
20
109
42
-0.41421356237309681
10
537
20
106
10
535
20
106
10
535
20
92.99999999999568
10
514.99999999997362
20
92.99999999999568
10
515.00000000000182
20
105.99999999999568
10
513
20
106.00000000000001
42
-0.41421356237309681
0
SPLINE
5
101
100
AcDbEntity
8
0
100
AcDbSpline
70
0
71
2
72
6
73
3
74
0
42
0.000000001
43
0.0000000001
44
0.0000000001
40
0
40
0
40
0
40
1
40
1
40
1
10
514.79195609688736
20
123.37239837646486
30
0
10
514.79195609688736
20
127.50554656982423
30
0
10
516.45631089806534
20
129.65533828735352
30
0
0
SPLINE
5
102
100
AcDbEntity
8
0
100
AcDbSpline
70
0
71
2
72
6
73
3
74
0
42
0.000000001
43
0.0000000001
44
0.0000000001
40
0
40
0
40
0
40
1
40
1
40
1
10
516.45631089806534
20
129.65533828735352
30
0
10
518.12066569924332
20
131.80513000488281
30
0
10
521.47711530327774
20
131.80513000488281
30
0
0
SPLINE
5
103
100
AcDbEntity
8
0
100
AcDbSpline
70
0
71
2
72
6
73
3
74
0
42
0.000000001
43
0.0000000001
44
0.0000000001
40
0
40
0
40
0
40
1
40
1
40
1
10
521.47711530327774
20
131.80513000488281
30
0
10
524.83356490731217
20
131.80513000488281
30
0
10
526.49791970849014
20
129.65533828735352
30
0
0
SPLINE
5
104
100
AcDbEntity
8
0
100
AcDbSpline
70
0
71
2
72
6
73
3
74
0
42
0.000000001
43
0.0000000001
44
0.0000000001
40
0
40
0
40
0
40
1
40
1
40
1
10
526.49791970849014
20
129.65533828735352
30
0
10
528.16227450966812
20
127.50554656982419
30
0
10
528.16227450966812
20
123.37239837646482
30
0
0
SPLINE
5
105
100
AcDbEntity
8
0
100
AcDbSpline
70
0
71
2
72
6
73
3
74
0
42
0.000000001
43
0.0000000001
44
0.0000000001
40
0
40
0
40
0
40
1
40
1
40
1
10
528.16227450966812
20
123.37239837646482
30
0
10
528.16227450966812
20
119.23925018310544
30
0
10
526.49791970849014
20
117.08945846557614
30
0
0
SPLINE
5
106
100
AcDbEntity
8
0
100
AcDbSpline
70
0
71
2
72
6
73
3
74
0
42
0.000000001
43
0.0000000001
44
0.0000000001
40
0
40
0
40
0
40
1
40
1
40
1
10
526.49791970849014
20
117.08945846557614
30
0
10
524.83356490731217
20
114.93966674804688
30
0
10
521.47711530327774
20
114.93966674804688
30
0
0
SPLINE
5
107
100
AcDbEntity
8
0
100
AcDbSpline
70
0
71
2
72
6
73
3
74
0
42
0.000000001
43
0.0000000001
44
0.0000000001
40
0
40
0
40
0
40
1
40
1
40
1
10
521.47711530327774
20
114.93966674804688
30
0
10
518.12066569924332
20
114.93966674804689
30
0
10
516.45631089806534
20
117.08945846557619
30
0
0
SPLINE
5
108
100
AcDbEntity
8
0
100
AcDbSpline
70
0
71
2
72
6
73
3
74
0
42
0.000000001
43
0.0000000001
44
0.0000000001
40
0
40
0
40
0
40
1
40
1
40
1
10
516.45631089806534
20
117.08945846557619
30
0
10
514.79195609688736
20
119.23925018310548
30
0
10
514.79195609688736
20
123.37239837646486
30
0
0
SPLINE
5
109
100
AcDbEntity
8
0
100
AcDbSpline
70
0
71
2
72
6
73
3
74
0
42
0.000000001
43
0.0000000001
44
0.0000000001
40
0
40
0
40
0
40
1
40
1
40
1
10
524.75034609436966
20
123.37239837646484
30
0
10
524.75034609436966
20
126.00762701034546
30
0
10
524.02912631630875
20
127.36685132980347
30
0
0
SPLINE
5
110
100
AcDbEntity
8
0
100
AcDbSpline
70
0
71
2
72
6
73
3
74
0
42
0.000000001
43
0.0000000001
44
0.0000000001
40
0
40
0
40
0
40
1
40
1
40
1
10
524.02912631630875
20
127.36685132980347
30
0
10
523.30790534615494
20
128.72607326507568
30
0
10
521.47711530327774
20
128.72607326507568
30
0
0
SPLINE
5
111
100
AcDbEntity
8
0
100
AcDbSpline
70
0
71
2
72
6
73
3
74
0
42
0.000000001
43
0.0000000001
44
0.0000000001
40
0
40
0
40
0
40
1
40
1
40
1
10
521.47711530327774
20
128.72607326507568
30
0
10
519.64632406830765
20
128.72607326507568
30
0
10
518.92510429024674
20
127.36685132980348
30
0
0
SPLINE
5
112
100
AcDbEntity
8
0
100
AcDbSpline
70
0
71
2
72
6
73
3
74
0
42
0.000000001
43
0.0000000001
44
0.0000000001
40
0
40
0
40
0
40
1
40
1
40
1
10
518.92510429024674
20
127.36685132980348
30
0
10
518.20388391613938
20
126.00762701034547
30
0
10
518.20388391613938
20
123.37239837646486
30
0
0
SPLINE
5
113
100
AcDbEntity
8
0
100
AcDbSpline
70
0
71
2
72
6
73
3
74
0
42
0.000000001
43
0.0000000001
44
0.0000000001
40
0
40
0
40
0
40
1
40
1
40
1
10
518.20388391613938
20
123.37239837646486
30
0
10
518.20388391613938
20
120.73716974258424
30
0
10
518.92510429024674
20
119.37794542312623
30
0
0
SPLINE
5
114
100
AcDbEntity
8
0
100
AcDbSpline
70
0
71
2
72
6
73
3
74
0
42
0.000000001
43
0.0000000001
44
0.0000000001
40
0
40
0
40
0
40
1
40
1
40
1
10
518.92510429024674
20
119.37794542312623
30
0
10
519.64632406830765
20
118.01872348785402
30
0
10
521.47711530327774
20
118.018723487854
30
0
0
SPLINE
5
115
100
AcDbEntity
8
0
100
AcDbSpline
70
0
71
2
72
6
73
3
74
0
42
0.000000001
43
0.0000000001
44
0.0000000001
40
0
40
0
40
0
40
1
40
1
40
1
10
521.47711530327774
20
118.018723487854
30
0
10
523.30790534615494
20
118.018723487854
30
0
10
524.02912631630875
20
119.37794542312622
30
0
0
SPLINE
5
116
100
AcDbEntity
8
0
100
AcDbSpline
70
0
71
2
72
6
73
3
74
0
42
0.000000001
43
0.0000000001
44
0.0000000001
40
0
40
0
40
0
40
1
40
1
40
1
10
524.02912631630875
20
119.37794542312622
30
0
10
524.75034609436966
20
120.73716974258423
30
0
10
524.75034609436966
20
123.37239837646484
30
0
0
SPLINE
5
117
100
AcDbEntity
8
0
100
AcDbSpline
70
0
71
2
72
6
73
3
74
0
42
0.000000001
43
0.0000000001
44
0.0000000001
40
0
40
0
40
0
40
1
40
1
40
1
10
535.20804300904251
20
110.47364807128903
30
0
10
535.20804300904251
20
109.69694948196408
30
0
10
534.66712847352005
20
109.33633899688718
30
0
0
SPLINE
5
118
100
AcDbEntity
8
0
100
AcDbSpline
70
0
71
2
72
6
73
3
74
0
42
0.000000001
43
0.0000000001
44
0.0000000001
40
0
40
0
40
0
40
1
40
1
40
1
10
534.66712847352005
20
109.33633899688718
30
0
10
534.1262115538118
20
108.97572851181027
30
0
10
533.40499296784378
20
108.97572851181027
30
0
0
SPLINE
5
119
100
AcDbEntity
8
0
100
AcDbSpline
70
0
71
2
72
6
73
3
74
0
42
0.000000001
43
0.0000000001
44
0.0000000001
40
0
40
0
40
0
40
1
40
1
40
1
10
533.40499296784378
20
108.97572851181027
30
0
10
532.71150961518265
20
108.97572851181027
30
0
10
532.17059507966019
20
109.33633899688718
30
0
0
SPLINE
5
120
100
AcDbEntity
8
0
100
AcDbSpline
70
0
71
2
72
6
73
3
74
0
42
0.000000001
43
0.0000000001
44
0.0000000001
40
0
40
0
40
0
40
1
40
1
40
1
10
532.17059507966019
20
109.33633899688718
30
0
10
531.62968054413773
20
109.69694948196408
30
0
10
531.62968054413773
20
110.47364807128903
30
0
0
LINE
5
121
100
AcDbEntity
8
0
100
AcDbLine
10
531.62968054413773
20
110.47364807128903
30
0
11
531.62968054413773
21
131.72191238403317
31
0
0
SPLINE
5
122
100
AcDbEntity
8
0
100
AcDbSpline
70
0
71
2
72
6
73
3
74
0
42
0.000000001
43
0.0000000001
44
0.0000000001
40
0
40
0
40
0
40
1
40
1
40
1
10
531.62968054413773
20
131.72191238403317
30
0
10
531.62968054413773
20
132.49861335754392
30
0
10
532.17059507966019
20
132.85922145843503
30
0
0
SPLINE
5
123
100
AcDbEntity
8
0
100
AcDbSpline
70
0
71
2
72
6
73
3
74
0
42
0.000000001
43
0.0000000001
44
0.0000000001
40
0
40
0
40
0
40
1
40
1
40
1
10
532.17059507966019
20
132.85922145843503
30
0
10
532.71150961518265
20
133.21983194351193
30
0
10
533.40499296784378
20
133.21983194351193
30
0
0
SPLINE
5
124
100
AcDbEntity
8
0
100
AcDbSpline
70
0
71
2
72
6
73
3
74
0
42
0.000000001
43
0.0000000001
44
0.0000000001
40
0
40
0
40
0
40
1
40
1
40
1
10
533.40499296784378
20
133.21983194351193
30
0
10
534.1262115538118
20
133.21983194351193
30
0
10
534.66712847352005
20
132.85922145843503
30
0
0
SPLINE
5
125
100
AcDbEntity
8
0
100
AcDbSpline
70
0
71
2
72
6
73
3
74
0
42
0.000000001
43
0.0000000001
44
0.0000000001
40
0
40
0
40
0
40
1
40
1
40
1
10
534.66712847352005
20
132.85922145843503
30
0
10
535.20804300904251
20
132.49861335754392
30
0
10
535.20804300904251
20
131.72191238403317
30
0
0
LINE
5
126
100
AcDbEntity
8
0
100
AcDbLine
10
535.20804300904251
20
131.72191238403315
30
0
11
535.20804300904251
21
110.47364807128903
31
0
0
ENDSEC
0
SECTION
2
OBJECTS
0
DICTIONARY
5
C
100
AcDbDictionary
3
ACAD_GROUP
350
D
3
ACAD_MLINESTYLE
350
17
0
DICTIONARY
5
D
100
AcDbDictionary
0
DICTIONARY
5
1A
330
C
100
AcDbDictionary
0
DICTIONARY
5
17
100
AcDbDictionary
0
ENDSEC
0
EOF
