0
SECTION
2
HEADER
9
$INSUNITS
70
4
9
$ACADVER
1
AC1014
9
$HANDSEED
5
FFFF
0
ENDSEC
0
SECTION
2
TABLES
0
TABLE
2
VPORT
5
8
100
AcDbSymbolTable
0
ENDTAB
0
TABLE
2
LTYPE
5
5
100
AcDbSymbolTable
0
LTYPE
5
14
100
AcDbSymbolTableRecord
100
AcDbLinetypeTableRecord
2
BYBLOCK
70
0
0
LTYPE
5
15
100
AcDbSymbolTableRecord
100
AcDbLinetypeTableRecord
2
BYLAYER
70
0
0
ENDTAB
0
TABLE
2
LAYER
5
2
100
AcDbSymbolTable
70
2
0
LAYER
5
50
100
AcDbSymbolTableRecord
100
AcDbLayerTableRecord
2
0
70
0
6
CONTINUOUS
0
ENDTAB
0
TABLE
2
STYLE
5
3
100
AcDbSymbolTable
70
1
0
STYLE
5
11
100
AcDbSymbolTableRecord
100
AcDbTextStyleTableRecord
2
STANDARD
70
0
0
ENDTAB
0
TABLE
2
VIEW
5
6
100
AcDbSymbolTable
70
0
0
ENDTAB
0
TABLE
2
UCS
5
7
100
AcDbSymbolTable
70
0
0
ENDTAB
0
TABLE
2
APPID
5
9
100
AcDbSymbolTable
70
2
0
APPID
5
12
100
AcDbSymbolTableRecord
100
AcDbRegAppTableRecord
2
ACAD
70
0
0
ENDTAB
0
TABLE
2
DIMSTYLE
5
A
100
AcDbSymbolTable
70
1
0
ENDTAB
0
TABLE
2
BLOCK_RECORD
5
1
100
AcDbSymbolTable
70
1
0
BLOCK_RECORD
5
1F
100
AcDbSymbolTableRecord
100
AcDbBlockTableRecord
2
*MODEL_SPACE
0
BLOCK_RECORD
5
1B
100
AcDbSymbolTableRecord
100
AcDbBlockTableRecord
2
*PAPER_SPACE
0
ENDTAB
0
ENDSEC
0
SECTION
2
BLOCKS
0
BLOCK
5
20
100
AcDbEntity
100
AcDbBlockBegin
2
*MODEL_SPACE
0
ENDBLK
5
21
100
AcDbEntity
100
AcDbBlockEnd
0
BLOCK
5
1C
100
AcDbEntity
100
AcDbBlockBegin
2
*PAPER_SPACE
0
ENDBLK
5
1D
100
AcDbEntity
100
AcDbBlockEnd
0
ENDSEC
0
SECTION
2
ENTITIES
0
LWPOLYLINE
5
100
100
AcDbEntity
8
0
100
AcDbPolyline
90
12
70
1
43
0.0
10
313
20
-114
42
-0.41421356237309681
10
310
20
-111.00000000000001
10
310
20
-89.000000000000028
42
-0.41421356237310336
10
315
20
-84.000000000000028
10
335
20
-84.000000000000028
42
-0.41421356237310336
10
340
20
-89.000000000000028
10
340
20
-111.00000000000001
42
-0.41421356237309681
10
337
20
-114.00000000000003
10
335
20
-114.00000000000003
10
335
20
-127.00000000002348
10
314.99999999986767
20
-127.00000000003094
10
314.99999999999363
20
-114.00000000003092
0
SPLINE
5
101
100
AcDbEntity
8
0
100
AcDbSpline
70
0
71
2
72
6
73
3
74
0
42
0.000000001
43
0.0000000001
44
0.0000000001
40
0
40
0
40
0
40
1
40
1
40
1
10
314.51456323266137
20
-92.88210892676716
30
0
10
314.51456323266143
20
-91.606104612344552
30
0
10
314.94452133774877
20
-90.524273157113953
30
0
0
SPLINE
5
102
100
AcDbEntity
8
0
100
AcDbSpline
70
0
71
2
72
6
73
3
74
0
42
0.000000001
43
0.0000000001
44
0.0000000001
40
0
40
0
40
0
40
1
40
1
40
1
10
314.94452133774877
20
-90.524273157113953
30
0
10
315.37448003888255
20
-89.442441701883325
30
0
10
316.22052684426444
20
-88.665743112558587
30
0
0
SPLINE
5
103
100
AcDbEntity
8
0
100
AcDbSpline
70
0
71
2
72
6
73
3
74
0
42
0.000000001
43
0.0000000001
44
0.0000000001
40
0
40
0
40
0
40
1
40
1
40
1
10
316.22052684426444
20
-88.665743112558587
30
0
10
317.06657424569266
20
-87.889045715326716
30
0
10
318.30097094178342
20
-87.459086418146825
30
0
0
SPLINE
5
104
100
AcDbEntity
8
0
100
AcDbSpline
70
0
71
2
72
6
73
3
74
0
42
0.000000001
43
0.0000000001
44
0.0000000001
40
0
40
0
40
0
40
1
40
1
40
1
10
318.30097094178342
20
-87.459086418146825
30
0
10
319.53536763787417
20
-87.029129505152724
30
0
10
321.17198362946652
20
-87.029129505153122
30
0
0
SPLINE
5
105
100
AcDbEntity
8
0
100
AcDbSpline
70
0
71
2
72
6
73
3
74
0
42
0.000000001
43
0.0000000001
44
0.0000000001
40
0
40
0
40
0
40
1
40
1
40
1
10
321.17198362946652
20
-87.029129505153122
30
0
10
322.78086081147336
20
-87.029129505153492
30
0
10
324.0291263163104
20
-87.459086418148161
30
0
0
SPLINE
5
106
100
AcDbEntity
8
0
100
AcDbSpline
70
0
71
2
72
6
73
3
74
0
42
0.000000001
43
0.0000000001
44
0.0000000001
40
0
40
0
40
0
40
1
40
1
40
1
10
324.0291263163104
20
-87.459086418148161
30
0
10
325.27739301324033
20
-87.889045715328649
30
0
10
326.12344041466849
20
-88.665743112560889
30
0
0
SPLINE
5
107
100
AcDbEntity
8
0
100
AcDbSpline
70
0
71
2
72
6
73
3
74
0
42
0.000000001
43
0.0000000001
44
0.0000000001
40
0
40
0
40
0
40
1
40
1
40
1
10
326.12344041466849
20
-88.665743112560889
30
0
10
326.9694878160966
20
-89.44244170188604
30
0
10
327.39944592118383
20
-90.524273157116852
30
0
0
SPLINE
5
108
100
AcDbEntity
8
0
100
AcDbSpline
70
0
71
2
72
6
73
3
74
0
42
0.000000001
43
0.0000000001
44
0.0000000001
40
0
40
0
40
0
40
1
40
1
40
1
10
327.39944592118383
20
-90.524273157116852
30
0
10
327.82940402627105
20
-91.606104612347664
30
0
10
327.82940402627099
20
-92.882108926770272
30
0
0
SPLINE
5
109
100
AcDbEntity
8
0
100
AcDbSpline
70
0
71
2
72
6
73
3
74
0
42
0.000000001
43
0.0000000001
44
0.0000000001
40
0
40
0
40
0
40
1
40
1
40
1
10
327.82940402627099
20
-92.882108926770272
30
0
10
327.82940402627094
20
-94.158114433285775
30
0
10
327.39944592118354
20
-95.239945888516388
30
0
0
SPLINE
5
110
100
AcDbEntity
8
0
100
AcDbSpline
70
0
71
2
72
6
73
3
74
0
42
0.000000001
43
0.0000000001
44
0.0000000001
40
0
40
0
40
0
40
1
40
1
40
1
10
327.39944592118354
20
-95.239945888516388
30
0
10
326.9694878160962
20
-96.321776151654106
30
0
10
326.12344041466793
20
-97.098475933071754
30
0
0
SPLINE
5
111
100
AcDbEntity
8
0
100
AcDbSpline
70
0
71
2
72
6
73
3
74
0
42
0.000000001
43
0.0000000001
44
0.0000000001
40
0
40
0
40
0
40
1
40
1
40
1
10
326.12344041466793
20
-97.098475933071754
30
0
10
325.27739301323959
20
-97.87517452239652
30
0
10
324.02912631630966
20
-98.305132627483488
30
0
0
SPLINE
5
112
100
AcDbEntity
8
0
100
AcDbSpline
70
0
71
2
72
6
73
3
74
0
42
0.000000001
43
0.0000000001
44
0.0000000001
40
0
40
0
40
0
40
1
40
1
40
1
10
324.02912631630966
20
-98.305132627483488
30
0
10
322.78086081147256
20
-98.735090732570484
30
0
10
321.17198362946573
20
-98.735090732570114
30
0
0
SPLINE
5
113
100
AcDbEntity
8
0
100
AcDbSpline
70
0
71
2
72
6
73
3
74
0
42
0.000000001
43
0.0000000001
44
0.0000000001
40
0
40
0
40
0
40
1
40
1
40
1
10
321.17198362946573
20
-98.735090732570114
30
0
10
319.53536763787338
20
-98.735090732569716
30
0
10
318.30097094178268
20
-98.305132627482152
30
0
0
SPLINE
5
114
100
AcDbEntity
8
0
100
AcDbSpline
70
0
71
2
72
6
73
3
74
0
42
0.000000001
43
0.0000000001
44
0.0000000001
40
0
40
0
40
0
40
1
40
1
40
1
10
318.30097094178268
20
-98.305132627482152
30
0
10
317.06657424569204
20
-97.875174522394587
30
0
10
316.22052684426387
20
-97.098475933069437
30
0
0
SPLINE
5
115
100
AcDbEntity
8
0
100
AcDbSpline
70
0
71
2
72
6
73
3
74
0
42
0.000000001
43
0.0000000001
44
0.0000000001
40
0
40
0
40
0
40
1
40
1
40
1
10
316.22052684426387
20
-97.098475933069437
30
0
10
315.3744800388821
20
-96.321776151651392
30
0
10
314.94452133774848
20
-95.239945888513489
30
0
0
SPLINE
5
116
100
AcDbEntity
8
0
100
AcDbSpline
70
0
71
2
72
6
73
3
74
0
42
0.000000001
43
0.0000000001
44
0.0000000001
40
0
40
0
40
0
40
1
40
1
40
1
10
314.94452133774848
20
-95.239945888513489
30
0
10
314.51456323266126
20
-94.158114433282663
30
0
10
314.51456323266137
20
-92.88210892676716
30
0
0
SPLINE
5
117
100
AcDbEntity
8
0
100
AcDbSpline
70
0
71
2
72
6
73
3
74
0
42
0.000000001
43
0.0000000001
44
0.0000000001
40
0
40
0
40
0
40
1
40
1
40
1
10
324.445215612651
20
-92.88210892676949
30
0
10
324.445215612651
20
-92.271845579143758
30
0
10
324.2649103701126
20
-91.73093104362124
30
0
0
SPLINE
5
118
100
AcDbEntity
8
0
100
AcDbSpline
70
0
71
2
72
6
73
3
74
0
42
0.000000001
43
0.0000000001
44
0.0000000001
40
0
40
0
40
0
40
1
40
1
40
1
10
324.2649103701126
20
-91.73093104362124
30
0
10
324.08460512757415
20
-91.19001412391296
30
0
10
323.6823858320725
20
-90.773926019664813
30
0
0
SPLINE
5
119
100
AcDbEntity
8
0
100
AcDbSpline
70
0
71
2
72
6
73
3
74
0
42
0.000000001
43
0.0000000001
44
0.0000000001
40
0
40
0
40
0
40
1
40
1
40
1
10
323.6823858320725
20
-90.773926019664813
30
0
10
323.28016653657079
20
-90.357837915416681
30
0
10
322.65603438019872
20
-90.122053861614035
30
0
0
SPLINE
5
120
100
AcDbEntity
8
0
100
AcDbSpline
70
0
71
2
72
6
73
3
74
0
42
0.000000001
43
0.0000000001
44
0.0000000001
40
0
40
0
40
0
40
1
40
1
40
1
10
322.65603438019872
20
-90.122053861614035
30
0
10
322.03189983964091
20
-89.886269807811402
30
0
10
321.17198362946635
20
-89.886269807811203
30
0
0
SPLINE
5
121
100
AcDbEntity
8
0
100
AcDbSpline
70
0
71
2
72
6
73
3
74
0
42
0.000000001
43
0.0000000001
44
0.0000000001
40
0
40
0
40
0
40
1
40
1
40
1
10
321.17198362946635
20
-89.886269807811203
30
0
10
320.28432741761333
20
-89.88626980781099
30
0
10
319.67406406998759
20
-90.122053861613338
30
0
0
SPLINE
5
122
100
AcDbEntity
8
0
100
AcDbSpline
70
0
71
2
72
6
73
3
74
0
42
0.000000001
43
0.0000000001
44
0.0000000001
40
0
40
0
40
0
40
1
40
1
40
1
10
319.67406406998759
20
-90.122053861613338
30
0
10
319.0638007223618
20
-90.357837915415686
30
0
10
318.6615814268601
20
-90.773926019663648
30
0
0
SPLINE
5
123
100
AcDbEntity
8
0
100
AcDbSpline
70
0
71
2
72
6
73
3
74
0
42
0.000000001
43
0.0000000001
44
0.0000000001
40
0
40
0
40
0
40
1
40
1
40
1
10
318.6615814268601
20
-90.773926019663648
30
0
10
318.25936213135839
20
-91.190014123911581
30
0
10
318.07905688881988
20
-91.730931043619805
30
0
0
SPLINE
5
124
100
AcDbEntity
8
0
100
AcDbSpline
70
0
71
2
72
6
73
3
74
0
42
0.000000001
43
0.0000000001
44
0.0000000001
40
0
40
0
40
0
40
1
40
1
40
1
10
318.07905688881988
20
-91.730931043619805
30
0
10
317.89875164628137
20
-92.271845579142223
30
0
10
317.89875164628137
20
-92.882108926767955
30
0
0
SPLINE
5
125
100
AcDbEntity
8
0
100
AcDbSpline
70
0
71
2
72
6
73
3
74
0
42
0.000000001
43
0.0000000001
44
0.0000000001
40
0
40
0
40
0
40
1
40
1
40
1
10
317.89875164628137
20
-92.882108926767955
30
0
10
317.89875164628131
20
-93.492373466486583
30
0
10
318.07905688881976
20
-94.033288002009087
30
0
0
SPLINE
5
126
100
AcDbEntity
8
0
100
AcDbSpline
70
0
71
2
72
6
73
3
74
0
42
0.000000001
43
0.0000000001
44
0.0000000001
40
0
40
0
40
0
40
1
40
1
40
1
10
318.07905688881976
20
-94.033288002009087
30
0
10
318.25936213135816
20
-94.574203729624472
30
0
10
318.66158142685981
20
-94.990293025965528
30
0
0
SPLINE
5
127
100
AcDbEntity
8
0
100
AcDbSpline
70
0
71
2
72
6
73
3
74
0
42
0.000000001
43
0.0000000001
44
0.0000000001
40
0
40
0
40
0
40
1
40
1
40
1
10
318.66158142685981
20
-94.990293025965528
30
0
10
319.06380072236152
20
-95.40638113021366
30
0
10
319.67406406998725
20
-95.642165184016292
30
0
0
SPLINE
5
128
100
AcDbEntity
8
0
100
AcDbSpline
70
0
71
2
72
6
73
3
74
0
42
0.000000001
43
0.0000000001
44
0.0000000001
40
0
40
0
40
0
40
1
40
1
40
1
10
319.67406406998725
20
-95.642165184016292
30
0
10
320.28432741761293
20
-95.877948045726029
30
0
10
321.17198362946596
20
-95.877948045726242
30
0
0
SPLINE
5
129
100
AcDbEntity
8
0
100
AcDbSpline
70
0
71
2
72
6
73
3
74
0
42
0.000000001
43
0.0000000001
44
0.0000000001
40
0
40
0
40
0
40
1
40
1
40
1
10
321.17198362946596
20
-95.877948045726242
30
0
10
322.03189983964052
20
-95.877948045726441
30
0
10
322.65603438019838
20
-95.642165184016989
30
0
0
SPLINE
5
130
100
AcDbEntity
8
0
100
AcDbSpline
70
0
71
2
72
6
73
3
74
0
42
0.000000001
43
0.0000000001
44
0.0000000001
40
0
40
0
40
0
40
1
40
1
40
1
10
322.65603438019838
20
-95.642165184016989
30
0
10
323.2801665365705
20
-95.406381130214655
30
0
10
323.68238583207221
20
-94.990293025966693
30
0
0
SPLINE
5
131
100
AcDbEntity
8
0
100
AcDbSpline
70
0
71
2
72
6
73
3
74
0
42
0.000000001
43
0.0000000001
44
0.0000000001
40
0
40
0
40
0
40
1
40
1
40
1
10
323.68238583207221
20
-94.990293025966693
30
0
10
324.08460512757392
20
-94.57420372962585
30
0
10
324.26491037011249
20
-94.033288002010522
30
0
0
SPLINE
5
132
100
AcDbEntity
8
0
100
AcDbSpline
70
0
71
2
72
6
73
3
74
0
42
0.000000001
43
0.0000000001
44
0.0000000001
40
0
40
0
40
0
40
1
40
1
40
1
10
324.26491037011249
20
-94.033288002010522
30
0
10
324.44521561265094
20
-93.492373466488118
30
0
10
324.445215612651
20
-92.88210892676949
30
0
0
SPLINE
5
133
100
AcDbEntity
8
0
100
AcDbSpline
70
0
71
2
72
6
73
3
74
0
42
0.000000001
43
0.0000000001
44
0.0000000001
40
0
40
0
40
0
40
1
40
1
40
1
10
334.93065252900192
20
-98.013870954512413
30
0
10
334.93065252900186
20
-98.790569543837364
30
0
10
334.38973560929361
20
-99.151180028914155
30
0
0
SPLINE
5
134
100
AcDbEntity
8
0
100
AcDbSpline
70
0
71
2
72
6
73
3
74
0
42
0.000000001
43
0.0000000001
44
0.0000000001
40
0
40
0
40
0
40
1
40
1
40
1
10
334.38973560929361
20
-99.151180028914155
30
0
10
333.84882107377115
20
-99.511790513990931
30
0
10
333.15534010529581
20
-99.511790513990775
30
0
0
SPLINE
5
135
100
AcDbEntity
8
0
100
AcDbSpline
70
0
71
2
72
6
73
3
74
0
42
0.000000001
43
0.0000000001
44
0.0000000001
40
0
40
0
40
0
40
1
40
1
40
1
10
333.15534010529581
20
-99.511790513990775
30
0
10
332.46185913682046
20
-99.51179051399059
30
0
10
331.92094221711221
20
-99.151180028913558
30
0
0
SPLINE
5
136
100
AcDbEntity
8
0
100
AcDbSpline
70
0
71
2
72
6
73
3
74
0
42
0.000000001
43
0.0000000001
44
0.0000000001
40
0
40
0
40
0
40
1
40
1
40
1
10
331.92094221711221
20
-99.151180028913558
30
0
10
331.38002768158975
20
-98.79056954383654
30
0
10
331.38002768158981
20
-98.013870954511589
30
0
0
LINE
5
137
100
AcDbEntity
8
0
100
AcDbLine
10
331.38002768158981
20
-98.013870954511589
30
0
11
331.38002768159055
21
-87.778088092801994
31
0
0
SPLINE
5
138
100
AcDbEntity
8
0
100
AcDbSpline
70
0
71
2
72
6
73
3
74
0
42
0.000000001
43
0.0000000001
44
0.0000000001
40
0
40
0
40
0
40
1
40
1
40
1
10
331.38002768159055
20
-87.778088092801994
30
0
10
331.38002768159055
20
-87.001389503477043
30
0
10
331.92094221711307
20
-86.640779018400252
30
0
0
SPLINE
5
139
100
AcDbEntity
8
0
100
AcDbSpline
70
0
71
2
72
6
73
3
74
0
42
0.000000001
43
0.0000000001
44
0.0000000001
40
0
40
0
40
0
40
1
40
1
40
1
10
331.92094221711307
20
-86.640779018400252
30
0
10
332.46185913682132
20
-86.280168533323476
30
0
10
333.15534010529666
20
-86.280168533323661
30
0
0
SPLINE
5
140
100
AcDbEntity
8
0
100
AcDbSpline
70
0
71
2
72
6
73
3
74
0
42
0.000000001
43
0.0000000001
44
0.0000000001
40
0
40
0
40
0
40
1
40
1
40
1
10
333.15534010529666
20
-86.280168533323661
30
0
10
333.848821073772
20
-86.280168533323817
30
0
10
334.38973560929446
20
-86.640779018400849
30
0
0
SPLINE
5
141
100
AcDbEntity
8
0
100
AcDbSpline
70
0
71
2
72
6
73
3
74
0
42
0.000000001
43
0.0000000001
44
0.0000000001
40
0
40
0
40
0
40
1
40
1
40
1
10
334.38973560929446
20
-86.640779018400849
30
0
10
334.93065252900266
20
-87.001389503477867
30
0
10
334.93065252900266
20
-87.778088092802818
30
0
0
LINE
5
142
100
AcDbEntity
8
0
100
AcDbLine
10
334.93065252900266
20
-87.778088092802818
30
0
11
334.93065252900192
21
-98.013870954512413
31
0
0
SPLINE
5
143
100
AcDbEntity
8
0
100
AcDbSpline
70
0
71
2
72
6
73
3
74
0
42
0.000000001
43
0.0000000001
44
0.0000000001
40
0
40
0
40
0
40
1
40
1
40
1
10
330.82524195313482
20
-105.00416183471471
30
0
10
331.46324530243902
20
-105.00416183471485
30
0
10
331.46324530243902
20
-104.36615848541065
30
0
0
LINE
5
144
100
AcDbEntity
8
0
100
AcDbLine
10
331.46324530243902
20
-104.36615848541065
30
0
11
331.46324530243902
21
-103.97781038284107
31
0
0
SPLINE
5
145
100
AcDbEntity
8
0
100
AcDbSpline
70
0
71
2
72
6
73
3
74
0
42
0.000000001
43
0.0000000001
44
0.0000000001
40
0
40
0
40
0
40
1
40
1
40
1
10
331.46324530243908
20
-103.97781038284107
30
0
10
331.46324530243908
20
-103.33980703353687
30
0
10
330.82524195313488
20
-103.33980703353673
30
0
0
LINE
5
146
100
AcDbEntity
8
0
100
AcDbLine
10
330.82524195313488
20
-103.33980703353673
30
0
11
319.39667120575939
21
-103.33980703353406
31
0
0
SPLINE
5
147
100
AcDbEntity
8
0
100
AcDbSpline
70
0
71
2
72
6
73
3
74
0
42
0.000000001
43
0.0000000001
44
0.0000000001
40
0
40
0
40
0
40
1
40
1
40
1
10
319.39667120575939
20
-103.33980703353404
30
0
10
318.78640785813366
20
-103.3398070335339
30
0
10
318.50901499390642
20
-102.90985012053946
30
0
0
SPLINE
5
148
100
AcDbEntity
8
0
100
AcDbSpline
70
0
71
2
72
6
73
3
74
0
42
0.000000001
43
0.0000000001
44
0.0000000001
40
0
40
0
40
0
40
1
40
1
40
1
10
318.50901499390642
20
-102.90985012053946
30
0
10
318.23162272572563
20
-102.47989082335921
30
0
10
318.23162272572563
20
-101.92510509490462
30
0
0
SPLINE
5
149
100
AcDbEntity
8
0
100
AcDbSpline
70
0
71
2
72
6
73
3
74
0
42
0.000000001
43
0.0000000001
44
0.0000000001
40
0
40
0
40
0
40
1
40
1
40
1
10
318.23162272572563
20
-101.92510509490462
30
0
10
318.23162272572569
20
-101.37031936645003
30
0
10
318.50901499390653
20
-100.95423126220206
30
0
0
SPLINE
5
150
100
AcDbEntity
8
0
100
AcDbSpline
70
0
71
2
72
6
73
3
74
0
42
0.000000001
43
0.0000000001
44
0.0000000001
40
0
40
0
40
0
40
1
40
1
40
1
10
318.50901499390653
20
-100.95423126220206
30
0
10
318.78640785813388
20
-100.53814315795407
30
0
10
319.39667120575962
20
-100.53814315795421
30
0
0
LINE
5
151
100
AcDbEntity
8
0
100
AcDbLine
10
319.39667120575962
20
-100.53814315795421
30
0
11
332.57281675934848
21
-100.53814315795728
31
0
0
SPLINE
5
152
100
AcDbEntity
8
0
100
AcDbSpline
70
0
71
2
72
6
73
3
74
0
42
0.000000001
43
0.0000000001
44
0.0000000001
40
0
40
0
40
0
40
1
40
1
40
1
10
332.57281675934848
20
-100.53814315795731
30
0
10
333.90429869294223
20
-100.53814315795762
30
0
10
334.41747561097196
20
-101.03744888305539
30
0
0
SPLINE
5
153
100
AcDbEntity
8
0
100
AcDbSpline
70
0
71
2
72
6
73
3
74
0
42
0.000000001
43
0.0000000001
44
0.0000000001
40
0
40
0
40
0
40
1
40
1
40
1
10
334.41747561097196
20
-101.03744888305539
30
0
10
334.93065252900175
20
-101.53675460815316
30
0
10
334.93065252900169
20
-102.84049892425423
30
0
0
LINE
5
154
100
AcDbEntity
8
0
100
AcDbLine
10
334.93065252900169
20
-102.84049892425426
30
0
11
334.93065252900152
21
-105.39251232147103
31
0
0
SPLINE
5
155
100
AcDbEntity
8
0
100
AcDbSpline
70
0
71
2
72
6
73
3
74
0
42
0.000000001
43
0.0000000001
44
0.0000000001
40
0
40
0
40
0
40
1
40
1
40
1
10
334.93065252900146
20
-105.39251232147103
30
0
10
334.93065252900135
20
-106.69625663757211
30
0
10
334.41747561097156
20
-107.19556236266965
30
0
0
SPLINE
5
156
100
AcDbEntity
8
0
100
AcDbSpline
70
0
71
2
72
6
73
3
74
0
42
0.000000001
43
0.0000000001
44
0.0000000001
40
0
40
0
40
0
40
1
40
1
40
1
10
334.41747561097156
20
-107.19556236266965
30
0
10
333.90429869294172
20
-107.69486808776719
30
0
10
332.57281675934797
20
-107.69486808776688
30
0
0
LINE
5
157
100
AcDbEntity
8
0
100
AcDbLine
10
332.57281675934797
20
-107.69486808776688
30
0
11
322.39251032471662
21
-107.69486808776449
31
0
0
SPLINE
5
158
100
AcDbEntity
8
0
100
AcDbSpline
70
0
71
2
72
6
73
3
74
0
42
0.000000001
43
0.0000000001
44
0.0000000001
40
0
40
0
40
0
40
1
40
1
40
1
10
322.39251032471662
20
-107.69486808776449
30
0
10
321.75450816750532
20
-107.69486808776435
30
0
10
321.75450816750532
20
-108.33287143706855
30
0
0
LINE
5
159
100
AcDbEntity
8
0
100
AcDbLine
10
321.75450816750532
20
-108.33287143706855
30
0
11
321.75450816750532
21
-108.72122192382392
31
0
0
SPLINE
5
160
100
AcDbEntity
8
0
100
AcDbSpline
70
0
71
2
72
6
73
3
74
0
42
0.000000001
43
0.0000000001
44
0.0000000001
40
0
40
0
40
0
40
1
40
1
40
1
10
321.75450816750526
20
-108.72122192382392
30
0
10
321.75450816750526
20
-109.35922527312812
30
0
10
322.39251032471657
20
-109.35922527312826
30
0
0
LINE
5
161
100
AcDbEntity
8
0
100
AcDbLine
10
322.39251032471657
20
-109.35922527312826
30
0
11
334.3203891813755
21
-109.35922527313105
31
0
0
SPLINE
5
162
100
AcDbEntity
8
0
100
AcDbSpline
70
0
71
2
72
6
73
3
74
0
42
0.000000001
43
0.0000000001
44
0.0000000001
40
0
40
0
40
0
40
1
40
1
40
1
10
334.3203891813755
20
-109.35922527313105
30
0
10
334.93065252900124
20
-109.35922527313119
30
0
10
335.20804300904268
20
-109.78918218612563
30
0
0
SPLINE
5
163
100
AcDbEntity
8
0
100
AcDbSpline
70
0
71
2
72
6
73
3
74
0
42
0.000000001
43
0.0000000001
44
0.0000000001
40
0
40
0
40
0
40
1
40
1
40
1
10
335.20804300904268
20
-109.78918218612563
30
0
10
335.48543587326998
20
-110.21914148330588
30
0
10
335.48543587326992
20
-110.77392482757467
30
0
0
SPLINE
5
164
100
AcDbEntity
8
0
100
AcDbSpline
70
0
71
2
72
6
73
3
74
0
42
0.000000001
43
0.0000000001
44
0.0000000001
40
0
40
0
40
0
40
1
40
1
40
1
10
335.48543587326992
20
-110.77392482757467
30
0
10
335.48543587326992
20
-111.32871055602926
30
0
10
335.20804300904251
20
-111.74479866027724
30
0
0
SPLINE
5
165
100
AcDbEntity
8
0
100
AcDbSpline
70
0
71
2
72
6
73
3
74
0
42
0.000000001
43
0.0000000001
44
0.0000000001
40
0
40
0
40
0
40
1
40
1
40
1
10
335.20804300904251
20
-111.74479866027724
30
0
10
334.93065252900101
20
-112.16088914871102
30
0
10
334.32038918137528
20
-112.16088914871088
30
0
0
LINE
5
166
100
AcDbEntity
8
0
100
AcDbLine
10
334.32038918137528
20
-112.16088914871088
30
0
11
320.64493790268875
21
-112.16088914870768
31
0
0
SPLINE
5
167
100
AcDbEntity
8
0
100
AcDbSpline
70
0
71
2
72
6
73
3
74
0
42
0.000000001
43
0.0000000001
44
0.0000000001
40
0
40
0
40
0
40
1
40
1
40
1
10
320.64493790268875
20
-112.16088914870768
30
0
10
319.31345358490921
20
-112.16088914870737
30
0
10
318.80027666687948
20
-111.66158103942379
30
0
0
SPLINE
5
168
100
AcDbEntity
8
0
100
AcDbSpline
70
0
71
2
72
6
73
3
74
0
42
0.000000001
43
0.0000000001
44
0.0000000001
40
0
40
0
40
0
40
1
40
1
40
1
10
318.80027666687948
20
-111.66158103942379
30
0
10
318.28710213303555
20
-111.16227531432602
30
0
10
318.2871021330356
20
-109.85853099822495
30
0
0
LINE
5
169
100
AcDbEntity
8
0
100
AcDbLine
10
318.2871021330356
20
-109.85853099822494
30
0
11
318.28710213303577
21
-107.30651998519394
31
0
0
SPLINE
5
170
100
AcDbEntity
8
0
100
AcDbSpline
70
0
71
2
72
6
73
3
74
0
42
0.000000001
43
0.0000000001
44
0.0000000001
40
0
40
0
40
0
40
1
40
1
40
1
10
318.28710213303577
20
-107.30651998519394
30
0
10
318.28710213303583
20
-106.00277566909287
30
0
10
318.80027666687988
20
-105.50346755980954
30
0
0
SPLINE
5
171
100
AcDbEntity
8
0
100
AcDbSpline
70
0
71
2
72
6
73
3
74
0
42
0.000000001
43
0.0000000001
44
0.0000000001
40
0
40
0
40
0
40
1
40
1
40
1
10
318.80027666687988
20
-105.50346755980954
30
0
10
319.31345358490967
20
-105.00416183471201
30
0
10
320.64493790268926
20
-105.00416183471232
30
0
0
LINE
5
172
100
AcDbEntity
8
0
100
AcDbLine
10
320.64493790268932
20
-105.00416183471232
30
0
11
330.82524195313482
21
-105.00416183471471
31
0
0
ENDSEC
0
SECTION
2
OBJECTS
0
DICTIONARY
5
C
100
AcDbDictionary
3
ACAD_GROUP
350
D
3
ACAD_MLINESTYLE
350
17
0
DICTIONARY
5
D
100
AcDbDictionary
0
DICTIONARY
5
1A
330
C
100
AcDbDictionary
0
DICTIONARY
5
17
100
AcDbDictionary
0
ENDSEC
0
EOF
