0
SECTION
2
HEADER
9
$INSUNITS
70
4
9
$ACADVER
1
AC1014
9
$HANDSEED
5
FFFF
0
ENDSEC
0
SECTION
2
TABLES
0
TABLE
2
VPORT
5
8
100
AcDbSymbolTable
0
ENDTAB
0
TABLE
2
LTYPE
5
5
100
AcDbSymbolTable
0
LTYPE
5
14
100
AcDbSymbolTableRecord
100
AcDbLinetypeTableRecord
2
BYBLOCK
70
0
0
LTYPE
5
15
100
AcDbSymbolTableRecord
100
AcDbLinetypeTableRecord
2
BYLAYER
70
0
0
ENDTAB
0
TABLE
2
LAYER
5
2
100
AcDbSymbolTable
70
2
0
LAYER
5
50
100
AcDbSymbolTableRecord
100
AcDbLayerTableRecord
2
0
70
0
6
CONTINUOUS
0
ENDTAB
0
TABLE
2
STYLE
5
3
100
AcDbSymbolTable
70
1
0
STYLE
5
11
100
AcDbSymbolTableRecord
100
AcDbTextStyleTableRecord
2
STANDARD
70
0
0
ENDTAB
0
TABLE
2
VIEW
5
6
100
AcDbSymbolTable
70
0
0
ENDTAB
0
TABLE
2
UCS
5
7
100
AcDbSymbolTable
70
0
0
ENDTAB
0
TABLE
2
APPID
5
9
100
AcDbSymbolTable
70
2
0
APPID
5
12
100
AcDbSymbolTableRecord
100
AcDbRegAppTableRecord
2
ACAD
70
0
0
ENDTAB
0
TABLE
2
DIMSTYLE
5
A
100
AcDbSymbolTable
70
1
0
ENDTAB
0
TABLE
2
BLOCK_RECORD
5
1
100
AcDbSymbolTable
70
1
0
BLOCK_RECORD
5
1F
100
AcDbSymbolTableRecord
100
AcDbBlockTableRecord
2
*MODEL_SPACE
0
BLOCK_RECORD
5
1B
100
AcDbSymbolTableRecord
100
AcDbBlockTableRecord
2
*PAPER_SPACE
0
ENDTAB
0
ENDSEC
0
SECTION
2
BLOCKS
0
BLOCK
5
20
100
AcDbEntity
100
AcDbBlockBegin
2
*MODEL_SPACE
0
ENDBLK
5
21
100
AcDbEntity
100
AcDbBlockEnd
0
BLOCK
5
1C
100
AcDbEntity
100
AcDbBlockBegin
2
*PAPER_SPACE
0
ENDBLK
5
1D
100
AcDbEntity
100
AcDbBlockEnd
0
ENDSEC
0
SECTION
2
ENTITIES
0
LWPOLYLINE
5
100
100
AcDbEntity
8
0
100
AcDbPolyline
90
12
70
1
43
0.0
10
510
20
153
10
510
20
175
42
-0.41421356237310336
10
515
20
180
10
535
20
180
42
-0.41421356237310336
10
540
20
175
10
540
20
153
42
-0.41421356237309681
10
537
20
150
10
535
20
150
10
535
20
136.99999999999568
10
514.99999999997362
20
136.99999999999568
10
515.00000000000182
20
149.99999999999568
10
513
20
150.00000000000003
42
-0.41421356237309681
0
SPLINE
5
101
100
AcDbEntity
8
0
100
AcDbSpline
70
0
71
2
72
6
73
3
74
0
42
0.000000001
43
0.0000000001
44
0.0000000001
40
0
40
0
40
0
40
1
40
1
40
1
10
514.51456323266007
20
170.61789155006412
30
0
10
514.51456323266007
20
171.89389586448672
30
0
10
514.94452133774735
20
172.97572731971744
30
0
0
SPLINE
5
102
100
AcDbEntity
8
0
100
AcDbSpline
70
0
71
2
72
6
73
3
74
0
42
0.000000001
43
0.0000000001
44
0.0000000001
40
0
40
0
40
0
40
1
40
1
40
1
10
514.94452133774735
20
172.97572731971744
30
0
10
515.37448003888107
20
174.05755877494815
30
0
10
516.22052684426285
20
174.83425736427307
30
0
0
SPLINE
5
103
100
AcDbEntity
8
0
100
AcDbSpline
70
0
71
2
72
6
73
3
74
0
42
0.000000001
43
0.0000000001
44
0.0000000001
40
0
40
0
40
0
40
1
40
1
40
1
10
516.22052684426285
20
174.83425736427307
30
0
10
517.06657424569107
20
175.61095476150513
30
0
10
518.30097094178177
20
176.0409140586853
30
0
0
SPLINE
5
104
100
AcDbEntity
8
0
100
AcDbSpline
70
0
71
2
72
6
73
3
74
0
42
0.000000001
43
0.0000000001
44
0.0000000001
40
0
40
0
40
0
40
1
40
1
40
1
10
518.30097094178177
20
176.0409140586853
30
0
10
519.53536763787247
20
176.47087097167969
30
0
10
521.17198362946488
20
176.47087097167969
30
0
0
SPLINE
5
105
100
AcDbEntity
8
0
100
AcDbSpline
70
0
71
2
72
6
73
3
74
0
42
0.000000001
43
0.0000000001
44
0.0000000001
40
0
40
0
40
0
40
1
40
1
40
1
10
521.17198362946488
20
176.47087097167969
30
0
10
522.78086081147171
20
176.47087097167969
30
0
10
524.02912631630875
20
176.0409140586853
30
0
0
SPLINE
5
106
100
AcDbEntity
8
0
100
AcDbSpline
70
0
71
2
72
6
73
3
74
0
42
0.000000001
43
0.0000000001
44
0.0000000001
40
0
40
0
40
0
40
1
40
1
40
1
10
524.02912631630875
20
176.0409140586853
30
0
10
525.27739301323868
20
175.61095476150513
30
0
10
526.1234404146669
20
174.83425736427307
30
0
0
SPLINE
5
107
100
AcDbEntity
8
0
100
AcDbSpline
70
0
71
2
72
6
73
3
74
0
42
0.000000001
43
0.0000000001
44
0.0000000001
40
0
40
0
40
0
40
1
40
1
40
1
10
526.1234404146669
20
174.83425736427307
30
0
10
526.96948781609512
20
174.05755877494812
30
0
10
527.39944592118241
20
172.97572731971741
30
0
0
SPLINE
5
108
100
AcDbEntity
8
0
100
AcDbSpline
70
0
71
2
72
6
73
3
74
0
42
0.000000001
43
0.0000000001
44
0.0000000001
40
0
40
0
40
0
40
1
40
1
40
1
10
527.39944592118241
20
172.97572731971741
30
0
10
527.82940402626969
20
171.89389586448669
30
0
10
527.82940402626969
20
170.61789155006409
30
0
0
SPLINE
5
109
100
AcDbEntity
8
0
100
AcDbSpline
70
0
71
2
72
6
73
3
74
0
42
0.000000001
43
0.0000000001
44
0.0000000001
40
0
40
0
40
0
40
1
40
1
40
1
10
527.82940402626969
20
170.61789155006409
30
0
10
527.82940402626969
20
169.34188604354858
30
0
10
527.39944592118241
20
168.26005458831787
30
0
0
SPLINE
5
110
100
AcDbEntity
8
0
100
AcDbSpline
70
0
71
2
72
6
73
3
74
0
42
0.000000001
43
0.0000000001
44
0.0000000001
40
0
40
0
40
0
40
1
40
1
40
1
10
527.39944592118241
20
168.26005458831787
30
0
10
526.96948781609512
20
167.17822432518005
30
0
10
526.1234404146669
20
166.40152454376221
30
0
0
SPLINE
5
111
100
AcDbEntity
8
0
100
AcDbSpline
70
0
71
2
72
6
73
3
74
0
42
0.000000001
43
0.0000000001
44
0.0000000001
40
0
40
0
40
0
40
1
40
1
40
1
10
526.1234404146669
20
166.40152454376221
30
0
10
525.27739301323868
20
165.62482595443726
30
0
10
524.02912631630875
20
165.19486784934998
30
0
0
SPLINE
5
112
100
AcDbEntity
8
0
100
AcDbSpline
70
0
71
2
72
6
73
3
74
0
42
0.000000001
43
0.0000000001
44
0.0000000001
40
0
40
0
40
0
40
1
40
1
40
1
10
524.02912631630875
20
165.19486784934998
30
0
10
522.78086081147171
20
164.7649097442627
30
0
10
521.17198362946488
20
164.7649097442627
30
0
0
SPLINE
5
113
100
AcDbEntity
8
0
100
AcDbSpline
70
0
71
2
72
6
73
3
74
0
42
0.000000001
43
0.0000000001
44
0.0000000001
40
0
40
0
40
0
40
1
40
1
40
1
10
521.17198362946488
20
164.7649097442627
30
0
10
519.53536763787247
20
164.7649097442627
30
0
10
518.30097094178177
20
165.19486784934998
30
0
0
SPLINE
5
114
100
AcDbEntity
8
0
100
AcDbSpline
70
0
71
2
72
6
73
3
74
0
42
0.000000001
43
0.0000000001
44
0.0000000001
40
0
40
0
40
0
40
1
40
1
40
1
10
518.30097094178177
20
165.19486784934998
30
0
10
517.06657424569107
20
165.62482595443726
30
0
10
516.22052684426285
20
166.40152454376221
30
0
0
SPLINE
5
115
100
AcDbEntity
8
0
100
AcDbSpline
70
0
71
2
72
6
73
3
74
0
42
0.000000001
43
0.0000000001
44
0.0000000001
40
0
40
0
40
0
40
1
40
1
40
1
10
516.22052684426285
20
166.40152454376221
30
0
10
515.37448003888107
20
167.17822432518005
30
0
10
514.94452133774735
20
168.2600545883179
30
0
0
SPLINE
5
116
100
AcDbEntity
8
0
100
AcDbSpline
70
0
71
2
72
6
73
3
74
0
42
0.000000001
43
0.0000000001
44
0.0000000001
40
0
40
0
40
0
40
1
40
1
40
1
10
514.94452133774735
20
168.2600545883179
30
0
10
514.51456323266007
20
169.34188604354861
30
0
10
514.51456323266007
20
170.61789155006412
30
0
0
SPLINE
5
117
100
AcDbEntity
8
0
100
AcDbSpline
70
0
71
2
72
6
73
3
74
0
42
0.000000001
43
0.0000000001
44
0.0000000001
40
0
40
0
40
0
40
1
40
1
40
1
10
524.44521561264969
20
170.61789155006409
30
0
10
524.44521561264969
20
171.22815489768982
30
0
10
524.26491037011124
20
171.76906943321228
30
0
0
SPLINE
5
118
100
AcDbEntity
8
0
100
AcDbSpline
70
0
71
2
72
6
73
3
74
0
42
0.000000001
43
0.0000000001
44
0.0000000001
40
0
40
0
40
0
40
1
40
1
40
1
10
524.26491037011124
20
171.76906943321228
30
0
10
524.08460512757279
20
172.30998635292053
30
0
10
523.68238583207108
20
172.72607445716858
30
0
0
SPLINE
5
119
100
AcDbEntity
8
0
100
AcDbSpline
70
0
71
2
72
6
73
3
74
0
42
0.000000001
43
0.0000000001
44
0.0000000001
40
0
40
0
40
0
40
1
40
1
40
1
10
523.68238583207108
20
172.72607445716858
30
0
10
523.28016653656937
20
173.14216256141663
30
0
10
522.6560343801973
20
173.37794661521912
30
0
0
SPLINE
5
120
100
AcDbEntity
8
0
100
AcDbSpline
70
0
71
2
72
6
73
3
74
0
42
0.000000001
43
0.0000000001
44
0.0000000001
40
0
40
0
40
0
40
1
40
1
40
1
10
522.6560343801973
20
173.37794661521912
30
0
10
522.03189983963944
20
173.61373066902161
30
0
10
521.17198362946488
20
173.61373066902161
30
0
0
SPLINE
5
121
100
AcDbEntity
8
0
100
AcDbSpline
70
0
71
2
72
6
73
3
74
0
42
0.000000001
43
0.0000000001
44
0.0000000001
40
0
40
0
40
0
40
1
40
1
40
1
10
521.17198362946488
20
173.61373066902161
30
0
10
520.28432741761185
20
173.61373066902161
30
0
10
519.67406406998612
20
173.37794661521912
30
0
0
SPLINE
5
122
100
AcDbEntity
8
0
100
AcDbSpline
70
0
71
2
72
6
73
3
74
0
42
0.000000001
43
0.0000000001
44
0.0000000001
40
0
40
0
40
0
40
1
40
1
40
1
10
519.67406406998612
20
173.37794661521912
30
0
10
519.06380072236038
20
173.14216256141663
30
0
10
518.66158142685867
20
172.72607445716858
30
0
0
SPLINE
5
123
100
AcDbEntity
8
0
100
AcDbSpline
70
0
71
2
72
6
73
3
74
0
42
0.000000001
43
0.0000000001
44
0.0000000001
40
0
40
0
40
0
40
1
40
1
40
1
10
518.66158142685867
20
172.72607445716858
30
0
10
518.25936213135697
20
172.30998635292053
30
0
10
518.07905688881851
20
171.76906943321228
30
0
0
SPLINE
5
124
100
AcDbEntity
8
0
100
AcDbSpline
70
0
71
2
72
6
73
3
74
0
42
0.000000001
43
0.0000000001
44
0.0000000001
40
0
40
0
40
0
40
1
40
1
40
1
10
518.07905688881851
20
171.76906943321228
30
0
10
517.89875164628006
20
171.22815489768982
30
0
10
517.89875164628006
20
170.61789155006409
30
0
0
SPLINE
5
125
100
AcDbEntity
8
0
100
AcDbSpline
70
0
71
2
72
6
73
3
74
0
42
0.000000001
43
0.0000000001
44
0.0000000001
40
0
40
0
40
0
40
1
40
1
40
1
10
517.89875164628006
20
170.61789155006409
30
0
10
517.89875164628006
20
170.00762701034546
30
0
10
518.07905688881851
20
169.466712474823
30
0
0
SPLINE
5
126
100
AcDbEntity
8
0
100
AcDbSpline
70
0
71
2
72
6
73
3
74
0
42
0.000000001
43
0.0000000001
44
0.0000000001
40
0
40
0
40
0
40
1
40
1
40
1
10
518.07905688881851
20
169.466712474823
30
0
10
518.25936213135697
20
168.92579674720764
30
0
10
518.66158142685867
20
168.5097074508667
30
0
0
SPLINE
5
127
100
AcDbEntity
8
0
100
AcDbSpline
70
0
71
2
72
6
73
3
74
0
42
0.000000001
43
0.0000000001
44
0.0000000001
40
0
40
0
40
0
40
1
40
1
40
1
10
518.66158142685867
20
168.5097074508667
30
0
10
519.06380072236038
20
168.09361934661865
30
0
10
519.67406406998612
20
167.85783529281616
30
0
0
SPLINE
5
128
100
AcDbEntity
8
0
100
AcDbSpline
70
0
71
2
72
6
73
3
74
0
42
0.000000001
43
0.0000000001
44
0.0000000001
40
0
40
0
40
0
40
1
40
1
40
1
10
519.67406406998612
20
167.85783529281616
30
0
10
520.28432741761185
20
167.62205243110657
30
0
10
521.17198362946488
20
167.62205243110657
30
0
0
SPLINE
5
129
100
AcDbEntity
8
0
100
AcDbSpline
70
0
71
2
72
6
73
3
74
0
42
0.000000001
43
0.0000000001
44
0.0000000001
40
0
40
0
40
0
40
1
40
1
40
1
10
521.17198362946488
20
167.62205243110657
30
0
10
522.03189983963944
20
167.62205243110657
30
0
10
522.6560343801973
20
167.85783529281616
30
0
0
SPLINE
5
130
100
AcDbEntity
8
0
100
AcDbSpline
70
0
71
2
72
6
73
3
74
0
42
0.000000001
43
0.0000000001
44
0.0000000001
40
0
40
0
40
0
40
1
40
1
40
1
10
522.6560343801973
20
167.85783529281616
30
0
10
523.28016653656937
20
168.09361934661865
30
0
10
523.68238583207108
20
168.5097074508667
30
0
0
SPLINE
5
131
100
AcDbEntity
8
0
100
AcDbSpline
70
0
71
2
72
6
73
3
74
0
42
0.000000001
43
0.0000000001
44
0.0000000001
40
0
40
0
40
0
40
1
40
1
40
1
10
523.68238583207108
20
168.5097074508667
30
0
10
524.08460512757279
20
168.92579674720764
30
0
10
524.26491037011124
20
169.466712474823
30
0
0
SPLINE
5
132
100
AcDbEntity
8
0
100
AcDbSpline
70
0
71
2
72
6
73
3
74
0
42
0.000000001
43
0.0000000001
44
0.0000000001
40
0
40
0
40
0
40
1
40
1
40
1
10
524.26491037011124
20
169.466712474823
30
0
10
524.44521561264969
20
170.00762701034546
30
0
10
524.44521561264969
20
170.61789155006409
30
0
0
SPLINE
5
133
100
AcDbEntity
8
0
100
AcDbSpline
70
0
71
2
72
6
73
3
74
0
42
0.000000001
43
0.0000000001
44
0.0000000001
40
0
40
0
40
0
40
1
40
1
40
1
10
534.93065252900101
20
165.48612952232358
30
0
10
534.93065252900101
20
164.70943093299863
30
0
10
534.38973560929276
20
164.34882044792172
30
0
0
SPLINE
5
134
100
AcDbEntity
8
0
100
AcDbSpline
70
0
71
2
72
6
73
3
74
0
42
0.000000001
43
0.0000000001
44
0.0000000001
40
0
40
0
40
0
40
1
40
1
40
1
10
534.38973560929276
20
164.34882044792172
30
0
10
533.8488210737703
20
163.98820996284482
30
0
10
533.15534010529495
20
163.98820996284482
30
0
0
SPLINE
5
135
100
AcDbEntity
8
0
100
AcDbSpline
70
0
71
2
72
6
73
3
74
0
42
0.000000001
43
0.0000000001
44
0.0000000001
40
0
40
0
40
0
40
1
40
1
40
1
10
533.15534010529495
20
163.98820996284482
30
0
10
532.46185913681961
20
163.98820996284482
30
0
10
531.92094221711136
20
164.34882044792172
30
0
0
SPLINE
5
136
100
AcDbEntity
8
0
100
AcDbSpline
70
0
71
2
72
6
73
3
74
0
42
0.000000001
43
0.0000000001
44
0.0000000001
40
0
40
0
40
0
40
1
40
1
40
1
10
531.92094221711136
20
164.34882044792172
30
0
10
531.3800276815889
20
164.70943093299863
30
0
10
531.3800276815889
20
165.48612952232358
30
0
0
LINE
5
137
100
AcDbEntity
8
0
100
AcDbLine
10
531.3800276815889
20
165.48612952232355
30
0
11
531.3800276815889
21
175.72191238403317
31
0
0
SPLINE
5
138
100
AcDbEntity
8
0
100
AcDbSpline
70
0
71
2
72
6
73
3
74
0
42
0.000000001
43
0.0000000001
44
0.0000000001
40
0
40
0
40
0
40
1
40
1
40
1
10
531.3800276815889
20
175.72191238403317
30
0
10
531.3800276815889
20
176.49861097335813
30
0
10
531.92094221711136
20
176.85922145843503
30
0
0
SPLINE
5
139
100
AcDbEntity
8
0
100
AcDbSpline
70
0
71
2
72
6
73
3
74
0
42
0.000000001
43
0.0000000001
44
0.0000000001
40
0
40
0
40
0
40
1
40
1
40
1
10
531.92094221711136
20
176.85922145843503
30
0
10
532.46185913681961
20
177.21983194351193
30
0
10
533.15534010529495
20
177.21983194351193
30
0
0
SPLINE
5
140
100
AcDbEntity
8
0
100
AcDbSpline
70
0
71
2
72
6
73
3
74
0
42
0.000000001
43
0.0000000001
44
0.0000000001
40
0
40
0
40
0
40
1
40
1
40
1
10
533.15534010529495
20
177.21983194351193
30
0
10
533.8488210737703
20
177.21983194351193
30
0
10
534.38973560929276
20
176.85922145843503
30
0
0
SPLINE
5
141
100
AcDbEntity
8
0
100
AcDbSpline
70
0
71
2
72
6
73
3
74
0
42
0.000000001
43
0.0000000001
44
0.0000000001
40
0
40
0
40
0
40
1
40
1
40
1
10
534.38973560929276
20
176.85922145843503
30
0
10
534.93065252900101
20
176.49861097335813
30
0
10
534.93065252900101
20
175.72191238403317
30
0
0
LINE
5
142
100
AcDbEntity
8
0
100
AcDbLine
10
534.93065252900101
20
175.7219123840332
30
0
11
534.93065252900101
21
165.48612952232358
31
0
0
SPLINE
5
143
100
AcDbEntity
8
0
100
AcDbSpline
70
0
71
2
72
6
73
3
74
0
42
0.000000001
43
0.0000000001
44
0.0000000001
40
0
40
0
40
0
40
1
40
1
40
1
10
530.82524195313431
20
158.49583864212033
30
0
10
531.46324530243851
20
158.49583864212033
30
0
10
531.46324530243851
20
159.13384199142453
30
0
0
LINE
5
144
100
AcDbEntity
8
0
100
AcDbLine
10
531.46324530243851
20
159.13384199142453
30
0
11
531.46324530243851
21
159.52219009399411
31
0
0
SPLINE
5
145
100
AcDbEntity
8
0
100
AcDbSpline
70
0
71
2
72
6
73
3
74
0
42
0.000000001
43
0.0000000001
44
0.0000000001
40
0
40
0
40
0
40
1
40
1
40
1
10
531.46324530243851
20
159.52219009399411
30
0
10
531.46324530243851
20
160.16019344329834
30
0
10
530.82524195313431
20
160.16019344329834
30
0
0
LINE
5
146
100
AcDbEntity
8
0
100
AcDbLine
10
530.82524195313431
20
160.16019344329834
30
0
11
519.39667120575882
21
160.16019344329837
31
0
0
SPLINE
5
147
100
AcDbEntity
8
0
100
AcDbSpline
70
0
71
2
72
6
73
3
74
0
42
0.000000001
43
0.0000000001
44
0.0000000001
40
0
40
0
40
0
40
1
40
1
40
1
10
519.39667120575882
20
160.16019344329834
30
0
10
518.78640785813309
20
160.16019344329834
30
0
10
518.50901499390579
20
160.59015274047852
30
0
0
SPLINE
5
148
100
AcDbEntity
8
0
100
AcDbSpline
70
0
71
2
72
6
73
3
74
0
42
0.000000001
43
0.0000000001
44
0.0000000001
40
0
40
0
40
0
40
1
40
1
40
1
10
518.50901499390579
20
160.59015274047852
30
0
10
518.23162272572495
20
161.02011203765869
30
0
10
518.23162272572495
20
161.57489538192749
30
0
0
SPLINE
5
149
100
AcDbEntity
8
0
100
AcDbSpline
70
0
71
2
72
6
73
3
74
0
42
0.000000001
43
0.0000000001
44
0.0000000001
40
0
40
0
40
0
40
1
40
1
40
1
10
518.23162272572495
20
161.57489538192749
30
0
10
518.23162272572495
20
162.12968111038208
30
0
10
518.50901499390579
20
162.54576921463013
30
0
0
SPLINE
5
150
100
AcDbEntity
8
0
100
AcDbSpline
70
0
71
2
72
6
73
3
74
0
42
0.000000001
43
0.0000000001
44
0.0000000001
40
0
40
0
40
0
40
1
40
1
40
1
10
518.50901499390579
20
162.54576921463013
30
0
10
518.78640785813309
20
162.96185970306396
30
0
10
519.39667120575882
20
162.96185970306396
30
0
0
LINE
5
151
100
AcDbEntity
8
0
100
AcDbLine
10
519.39667120575882
20
162.96185970306396
30
0
11
532.57281675934769
21
162.96185970306394
31
0
0
SPLINE
5
152
100
AcDbEntity
8
0
100
AcDbSpline
70
0
71
2
72
6
73
3
74
0
42
0.000000001
43
0.0000000001
44
0.0000000001
40
0
40
0
40
0
40
1
40
1
40
1
10
532.57281675934769
20
162.96185970306394
30
0
10
533.90429869294144
20
162.96185970306394
30
0
10
534.41747561097122
20
162.46255159378049
30
0
0
SPLINE
5
153
100
AcDbEntity
8
0
100
AcDbSpline
70
0
71
2
72
6
73
3
74
0
42
0.000000001
43
0.0000000001
44
0.0000000001
40
0
40
0
40
0
40
1
40
1
40
1
10
534.41747561097122
20
162.46255159378049
30
0
10
534.93065252900101
20
161.96324348449704
30
0
10
534.93065252900101
20
160.65949916839597
30
0
0
LINE
5
154
100
AcDbEntity
8
0
100
AcDbLine
10
534.93065252900101
20
160.65949916839597
30
0
11
534.93065252900101
21
158.10748815536496
31
0
0
SPLINE
5
155
100
AcDbEntity
8
0
100
AcDbSpline
70
0
71
2
72
6
73
3
74
0
42
0.000000001
43
0.0000000001
44
0.0000000001
40
0
40
0
40
0
40
1
40
1
40
1
10
534.93065252900101
20
158.10748815536496
30
0
10
534.93065252900101
20
156.80374383926389
30
0
10
534.41747561097122
20
156.30443811416623
30
0
0
SPLINE
5
156
100
AcDbEntity
8
0
100
AcDbSpline
70
0
71
2
72
6
73
3
74
0
42
0.000000001
43
0.0000000001
44
0.0000000001
40
0
40
0
40
0
40
1
40
1
40
1
10
534.41747561097122
20
156.30443811416623
30
0
10
533.90429869294144
20
155.80513238906858
30
0
10
532.57281675934769
20
155.80513238906858
30
0
0
LINE
5
157
100
AcDbEntity
8
0
100
AcDbLine
10
532.57281675934769
20
155.80513238906858
30
0
11
522.39251032471634
21
155.8051323890686
31
0
0
SPLINE
5
158
100
AcDbEntity
8
0
100
AcDbSpline
70
0
71
2
72
6
73
3
74
0
42
0.000000001
43
0.0000000001
44
0.0000000001
40
0
40
0
40
0
40
1
40
1
40
1
10
522.39251032471634
20
155.8051323890686
30
0
10
521.75450816750504
20
155.8051323890686
30
0
10
521.75450816750504
20
155.1671290397644
30
0
0
LINE
5
159
100
AcDbEntity
8
0
100
AcDbLine
10
521.75450816750504
20
155.1671290397644
30
0
11
521.75450816750504
21
154.77877855300903
31
0
0
SPLINE
5
160
100
AcDbEntity
8
0
100
AcDbSpline
70
0
71
2
72
6
73
3
74
0
42
0.000000001
43
0.0000000001
44
0.0000000001
40
0
40
0
40
0
40
1
40
1
40
1
10
521.75450816750504
20
154.77877855300903
30
0
10
521.75450816750504
20
154.14077758789062
30
0
10
522.39251032471634
20
154.14077758789062
30
0
0
LINE
5
161
100
AcDbEntity
8
0
100
AcDbLine
10
522.39251032471634
20
154.14077758789062
30
0
11
534.32038918137528
21
154.1407775878906
31
0
0
SPLINE
5
162
100
AcDbEntity
8
0
100
AcDbSpline
70
0
71
2
72
6
73
3
74
0
42
0.000000001
43
0.0000000001
44
0.0000000001
40
0
40
0
40
0
40
1
40
1
40
1
10
534.32038918137528
20
154.1407775878906
30
0
10
534.93065252900101
20
154.1407775878906
30
0
10
535.20804300904251
20
153.71081829071042
30
0
0
SPLINE
5
163
100
AcDbEntity
8
0
100
AcDbSpline
70
0
71
2
72
6
73
3
74
0
42
0.000000001
43
0.0000000001
44
0.0000000001
40
0
40
0
40
0
40
1
40
1
40
1
10
535.20804300904251
20
153.71081829071042
30
0
10
535.48543587326981
20
153.28085899353025
30
0
10
535.48543587326981
20
152.72607564926145
30
0
0
SPLINE
5
164
100
AcDbEntity
8
0
100
AcDbSpline
70
0
71
2
72
6
73
3
74
0
42
0.000000001
43
0.0000000001
44
0.0000000001
40
0
40
0
40
0
40
1
40
1
40
1
10
535.48543587326981
20
152.72607564926145
30
0
10
535.48543587326981
20
152.17128992080686
30
0
10
535.20804300904251
20
151.75520181655881
30
0
0
SPLINE
5
165
100
AcDbEntity
8
0
100
AcDbSpline
70
0
71
2
72
6
73
3
74
0
42
0.000000001
43
0.0000000001
44
0.0000000001
40
0
40
0
40
0
40
1
40
1
40
1
10
535.20804300904251
20
151.75520181655881
30
0
10
534.93065252900101
20
151.33911132812497
30
0
10
534.32038918137528
20
151.33911132812497
30
0
0
LINE
5
166
100
AcDbEntity
8
0
100
AcDbLine
10
534.32038918137528
20
151.33911132812497
30
0
11
520.64493790268875
21
151.339111328125
31
0
0
SPLINE
5
167
100
AcDbEntity
8
0
100
AcDbSpline
70
0
71
2
72
6
73
3
74
0
42
0.000000001
43
0.0000000001
44
0.0000000001
40
0
40
0
40
0
40
1
40
1
40
1
10
520.64493790268875
20
151.339111328125
30
0
10
519.31345358490921
20
151.339111328125
30
0
10
518.80027666687943
20
151.83841943740845
30
0
0
SPLINE
5
168
100
AcDbEntity
8
0
100
AcDbSpline
70
0
71
2
72
6
73
3
74
0
42
0.000000001
43
0.0000000001
44
0.0000000001
40
0
40
0
40
0
40
1
40
1
40
1
10
518.80027666687943
20
151.83841943740845
30
0
10
518.28710213303543
20
152.33772516250613
30
0
10
518.28710213303543
20
153.64146947860721
30
0
0
LINE
5
169
100
AcDbEntity
8
0
100
AcDbLine
10
518.28710213303543
20
153.64146947860721
30
0
11
518.28710213303543
21
156.19348049163821
31
0
0
SPLINE
5
170
100
AcDbEntity
8
0
100
AcDbSpline
70
0
71
2
72
6
73
3
74
0
42
0.000000001
43
0.0000000001
44
0.0000000001
40
0
40
0
40
0
40
1
40
1
40
1
10
518.28710213303543
20
156.19348049163821
30
0
10
518.28710213303543
20
157.49722480773929
30
0
10
518.80027666687943
20
157.99653291702271
30
0
0
SPLINE
5
171
100
AcDbEntity
8
0
100
AcDbSpline
70
0
71
2
72
6
73
3
74
0
42
0.000000001
43
0.0000000001
44
0.0000000001
40
0
40
0
40
0
40
1
40
1
40
1
10
518.80027666687943
20
157.99653291702271
30
0
10
519.31345358490921
20
158.49583864212036
30
0
10
520.64493790268875
20
158.49583864212036
30
0
0
LINE
5
172
100
AcDbEntity
8
0
100
AcDbLine
10
520.64493790268887
20
158.49583864212036
30
0
11
530.82524195313431
21
158.49583864212033
31
0
0
ENDSEC
0
SECTION
2
OBJECTS
0
DICTIONARY
5
C
100
AcDbDictionary
3
ACAD_GROUP
350
D
3
ACAD_MLINESTYLE
350
17
0
DICTIONARY
5
D
100
AcDbDictionary
0
DICTIONARY
5
1A
330
C
100
AcDbDictionary
0
DICTIONARY
5
17
100
AcDbDictionary
0
ENDSEC
0
EOF
