0
SECTION
2
HEADER
9
$INSUNITS
70
4
9
$ACADVER
1
AC1014
9
$HANDSEED
5
FFFF
0
ENDSEC
0
SECTION
2
TABLES
0
TABLE
2
VPORT
5
8
100
AcDbSymbolTable
0
ENDTAB
0
TABLE
2
LTYPE
5
5
100
AcDbSymbolTable
0
LTYPE
5
14
100
AcDbSymbolTableRecord
100
AcDbLinetypeTableRecord
2
BYBLOCK
70
0
0
LTYPE
5
15
100
AcDbSymbolTableRecord
100
AcDbLinetypeTableRecord
2
BYLAYER
70
0
0
ENDTAB
0
TABLE
2
LAYER
5
2
100
AcDbSymbolTable
70
2
0
LAYER
5
50
100
AcDbSymbolTableRecord
100
AcDbLayerTableRecord
2
0
70
0
6
CONTINUOUS
0
ENDTAB
0
TABLE
2
STYLE
5
3
100
AcDbSymbolTable
70
1
0
STYLE
5
11
100
AcDbSymbolTableRecord
100
AcDbTextStyleTableRecord
2
STANDARD
70
0
0
ENDTAB
0
TABLE
2
VIEW
5
6
100
AcDbSymbolTable
70
0
0
ENDTAB
0
TABLE
2
UCS
5
7
100
AcDbSymbolTable
70
0
0
ENDTAB
0
TABLE
2
APPID
5
9
100
AcDbSymbolTable
70
2
0
APPID
5
12
100
AcDbSymbolTableRecord
100
AcDbRegAppTableRecord
2
ACAD
70
0
0
ENDTAB
0
TABLE
2
DIMSTYLE
5
A
100
AcDbSymbolTable
70
1
0
ENDTAB
0
TABLE
2
BLOCK_RECORD
5
1
100
AcDbSymbolTable
70
1
0
BLOCK_RECORD
5
1F
100
AcDbSymbolTableRecord
100
AcDbBlockTableRecord
2
*MODEL_SPACE
0
BLOCK_RECORD
5
1B
100
AcDbSymbolTableRecord
100
AcDbBlockTableRecord
2
*PAPER_SPACE
0
ENDTAB
0
ENDSEC
0
SECTION
2
BLOCKS
0
BLOCK
5
20
100
AcDbEntity
100
AcDbBlockBegin
2
*MODEL_SPACE
0
ENDBLK
5
21
100
AcDbEntity
100
AcDbBlockEnd
0
BLOCK
5
1C
100
AcDbEntity
100
AcDbBlockBegin
2
*PAPER_SPACE
0
ENDBLK
5
1D
100
AcDbEntity
100
AcDbBlockEnd
0
ENDSEC
0
SECTION
2
ENTITIES
0
LWPOLYLINE
5
100
100
AcDbEntity
8
0
100
AcDbPolyline
90
12
70
1
43
0.0
10
535
20
-84.000000000000028
42
-0.41421356237310336
10
540
20
-89.000000000000028
10
540
20
-111.00000000000001
42
-0.41421356237309681
10
537
20
-114.00000000000003
10
535
20
-114.00000000000003
10
535
20
-127.00000000000436
10
515.00000000000182
20
-127.00000000000003
10
515.00000000000182
20
-114.00000000000003
10
513
20
-114.00000000000003
42
-0.41421356237309503
10
510
20
-111.00000000000006
10
510
20
-88.999999999999943
42
-0.41421356237309503
10
514.99999999999989
20
-84.000000000000028
0
SPLINE
5
101
100
AcDbEntity
8
0
100
AcDbSpline
70
0
71
2
72
6
73
3
74
0
42
0.000000001
43
0.0000000001
44
0.0000000001
40
0
40
0
40
0
40
1
40
1
40
1
10
515.23474350571723
20
-92.411234617226825
30
0
10
514.59674075245948
20
-92.411234617226654
30
0
10
514.29160907864662
20
-91.967406511300055
30
0
0
SPLINE
5
102
100
AcDbEntity
8
0
100
AcDbSpline
70
0
71
2
72
6
73
3
74
0
42
0.000000001
43
0.0000000001
44
0.0000000001
40
0
40
0
40
0
40
1
40
1
40
1
10
514.29160907864662
20
-91.967406511300055
30
0
10
513.98647680878742
20
-91.523578405373456
30
0
10
513.98647680878742
20
-90.913315057747724
30
0
0
SPLINE
5
103
100
AcDbEntity
8
0
100
AcDbSpline
70
0
71
2
72
6
73
3
74
0
42
0.000000001
43
0.0000000001
44
0.0000000001
40
0
40
0
40
0
40
1
40
1
40
1
10
513.98647680878742
20
-90.913315057747724
30
0
10
513.98647680878742
20
-90.303051710121991
30
0
10
514.29160907864673
20
-89.859223604195563
30
0
0
SPLINE
5
104
100
AcDbEntity
8
0
100
AcDbSpline
70
0
71
2
72
6
73
3
74
0
42
0.000000001
43
0.0000000001
44
0.0000000001
40
0
40
0
40
0
40
1
40
1
40
1
10
514.29160907864673
20
-89.859223604195563
30
0
10
514.5967407524596
20
-89.415395498269135
30
0
10
515.23474350571735
20
-89.415395498269305
30
0
0
LINE
5
105
100
AcDbEntity
8
0
100
AcDbLine
10
515.23474350571746
20
-89.415395498269305
30
0
11
519.56206575036151
21
-89.415395498270527
31
0
0
LINE
5
106
100
AcDbEntity
8
0
100
AcDbLine
10
519.56206575036151
20
-89.415395498270527
30
0
11
519.56206575036163
21
-87.723304271692768
31
0
0
SPLINE
5
107
100
AcDbEntity
8
0
100
AcDbSpline
70
0
71
2
72
6
73
3
74
0
42
0.000000001
43
0.0000000001
44
0.0000000001
40
0
40
0
40
0
40
1
40
1
40
1
10
519.56206575036163
20
-87.723304271692768
30
0
10
519.56206575036174
20
-86.946603298182026
30
0
10
520.10298267006999
20
-86.585995197291055
30
0
0
SPLINE
5
108
100
AcDbEntity
8
0
100
AcDbSpline
70
0
71
2
72
6
73
3
74
0
42
0.000000001
43
0.0000000001
44
0.0000000001
40
0
40
0
40
0
40
1
40
1
40
1
10
520.10298267006999
20
-86.585995197291055
30
0
10
520.64389720559245
20
-86.225384712214307
30
0
10
521.33737817406779
20
-86.225384712214492
30
0
0
SPLINE
5
109
100
AcDbEntity
8
0
100
AcDbSpline
70
0
71
2
72
6
73
3
74
0
42
0.000000001
43
0.0000000001
44
0.0000000001
40
0
40
0
40
0
40
1
40
1
40
1
10
521.33737817406779
20
-86.225384712214492
30
0
10
522.03085914254314
20
-86.225384712214691
30
0
10
522.57177487015849
20
-86.585995197291737
30
0
0
SPLINE
5
110
100
AcDbEntity
8
0
100
AcDbSpline
70
0
71
2
72
6
73
3
74
0
42
0.000000001
43
0.0000000001
44
0.0000000001
40
0
40
0
40
0
40
1
40
1
40
1
10
522.57177487015849
20
-86.585995197291737
30
0
10
523.11269059777385
20
-86.946603298183021
30
0
10
523.11269059777374
20
-87.723304271693763
30
0
0
LINE
5
111
100
AcDbEntity
8
0
100
AcDbLine
10
523.11269059777374
20
-87.723304271693777
30
0
11
523.11269059777362
21
-89.415395498271522
31
0
0
LINE
5
112
100
AcDbEntity
8
0
100
AcDbLine
10
523.11269059777362
20
-89.415395498271522
30
0
11
527.16262117028339
21
-89.415395498272659
31
0
0
SPLINE
5
113
100
AcDbEntity
8
0
100
AcDbSpline
70
0
71
2
72
6
73
3
74
0
42
0.000000001
43
0.0000000001
44
0.0000000001
40
0
40
0
40
0
40
1
40
1
40
1
10
527.16262117028339
20
-89.41539549827263
30
0
10
527.80062332749469
20
-89.415395498272815
30
0
10
528.10575500130756
20
-89.859223604199414
30
0
0
SPLINE
5
114
100
AcDbEntity
8
0
100
AcDbSpline
70
0
71
2
72
6
73
3
74
0
42
0.000000001
43
0.0000000001
44
0.0000000001
40
0
40
0
40
0
40
1
40
1
40
1
10
528.10575500130756
20
-89.859223604199414
30
0
10
528.41088667512042
20
-90.303051710126013
30
0
10
528.41088667512042
20
-90.913315057751745
30
0
0
SPLINE
5
115
100
AcDbEntity
8
0
100
AcDbSpline
70
0
71
2
72
6
73
3
74
0
42
0.000000001
43
0.0000000001
44
0.0000000001
40
0
40
0
40
0
40
1
40
1
40
1
10
528.41088667512042
20
-90.913315057751745
30
0
10
528.41088667512042
20
-91.523578405377478
30
0
10
528.10575500130744
20
-91.967406511303906
30
0
0
SPLINE
5
116
100
AcDbEntity
8
0
100
AcDbSpline
70
0
71
2
72
6
73
3
74
0
42
0.000000001
43
0.0000000001
44
0.0000000001
40
0
40
0
40
0
40
1
40
1
40
1
10
528.10575500130744
20
-91.967406511303906
30
0
10
527.80062332749458
20
-92.411234617230335
30
0
10
527.16262117028327
20
-92.41123461723015
30
0
0
LINE
5
117
100
AcDbEntity
8
0
100
AcDbLine
10
527.16262117028327
20
-92.41123461723015
30
0
11
523.11269059777351
21
-92.411234617229013
31
0
0
LINE
5
118
100
AcDbEntity
8
0
100
AcDbLine
10
523.11269059777351
20
-92.411234617229013
30
0
11
523.11269059777351
21
-92.910541534419593
31
0
0
SPLINE
5
119
100
AcDbEntity
8
0
100
AcDbSpline
70
0
71
2
72
6
73
3
74
0
42
0.000000001
43
0.0000000001
44
0.0000000001
40
0
40
0
40
0
40
1
40
1
40
1
10
523.11269059777351
20
-92.910541534419593
30
0
10
523.11269059777351
20
-93.798197746272621
30
0
10
523.45943108201106
20
-94.408461093898438
30
0
0
SPLINE
5
120
100
AcDbEntity
8
0
100
AcDbSpline
70
0
71
2
72
6
73
3
74
0
42
0.000000001
43
0.0000000001
44
0.0000000001
40
0
40
0
40
0
40
1
40
1
40
1
10
523.45943108201106
20
-94.408461093898438
30
0
10
523.80617156624874
20
-95.01872444152427
30
0
10
524.66608896851608
20
-95.573510169979102
30
0
0
SPLINE
5
121
100
AcDbEntity
8
0
100
AcDbSpline
70
0
71
2
72
6
73
3
74
0
42
0.000000001
43
0.0000000001
44
0.0000000001
40
0
40
0
40
0
40
1
40
1
40
1
10
524.66608896851608
20
-95.573510169979102
30
0
10
525.66470161080429
20
-96.239251136776261
30
0
10
526.44140020012924
20
-96.71081924438144
30
0
0
SPLINE
5
122
100
AcDbEntity
8
0
100
AcDbSpline
70
0
71
2
72
6
73
3
74
0
42
0.000000001
43
0.0000000001
44
0.0000000001
40
0
40
0
40
0
40
1
40
1
40
1
10
526.44140020012924
20
-96.71081924438144
30
0
10
527.21809998154708
20
-97.182386159893753
30
0
10
527.74514570832321
20
-97.487517833706761
30
0
0
SPLINE
5
123
100
AcDbEntity
8
0
100
AcDbSpline
70
0
71
2
72
6
73
3
74
0
42
0.000000001
43
0.0000000001
44
0.0000000001
40
0
40
0
40
0
40
1
40
1
40
1
10
527.74514570832321
20
-97.487517833706761
30
0
10
528.35540905594894
20
-97.848128318783836
30
0
10
528.4247566759592
20
-98.444521665570349
30
0
0
SPLINE
5
124
100
AcDbEntity
8
0
100
AcDbSpline
70
0
71
2
72
6
73
3
74
0
42
0.000000001
43
0.0000000001
44
0.0000000001
40
0
40
0
40
0
40
1
40
1
40
1
10
528.4247566759592
20
-98.444521665570349
30
0
10
528.49410429596958
20
-99.040916204449758
30
0
10
528.1889726221566
20
-99.567961931225824
30
0
0
SPLINE
5
125
100
AcDbEntity
8
0
100
AcDbSpline
70
0
71
2
72
6
73
3
74
0
42
0.000000001
43
0.0000000001
44
0.0000000001
40
0
40
0
40
0
40
1
40
1
40
1
10
528.1889726221566
20
-99.567961931225824
30
0
10
527.9115809500222
20
-100.03952884673781
30
0
10
527.34292641282127
20
-100.28918170928648
30
0
0
SPLINE
5
126
100
AcDbEntity
8
0
100
AcDbSpline
70
0
71
2
72
6
73
3
74
0
42
0.000000001
43
0.0000000001
44
0.0000000001
40
0
40
0
40
0
40
1
40
1
40
1
10
527.34292641282127
20
-100.28918170928648
30
0
10
526.77427187562034
20
-100.53883457183515
30
0
10
526.10852971673057
20
-100.15048646926539
30
0
0
SPLINE
5
127
100
AcDbEntity
8
0
100
AcDbSpline
70
0
71
2
72
6
73
3
74
0
42
0.000000001
43
0.0000000001
44
0.0000000001
40
0
40
0
40
0
40
1
40
1
40
1
10
526.10852971673057
20
-100.15048646926539
30
0
10
525.05443826317833
20
-99.567961931224929
30
0
10
523.52877870202121
20
-98.569348096843399
30
0
0
SPLINE
5
128
100
AcDbEntity
8
0
100
AcDbSpline
70
0
71
2
72
6
73
3
74
0
42
0.000000001
43
0.0000000001
44
0.0000000001
40
0
40
0
40
0
40
1
40
1
40
1
10
523.52877870202121
20
-98.569348096843399
30
0
10
522.39146962761947
20
-97.848128318782159
30
0
10
521.98925033211776
20
-97.459779024119584
30
0
0
SPLINE
5
129
100
AcDbEntity
8
0
100
AcDbSpline
70
0
71
2
72
6
73
3
74
0
42
0.000000001
43
0.0000000001
44
0.0000000001
40
0
40
0
40
0
40
1
40
1
40
1
10
521.98925033211776
20
-97.459779024119584
30
0
10
521.58703103661605
20
-97.071429729457009
30
0
10
521.4483357965953
20
-96.683079242701595
30
0
0
LINE
5
130
100
AcDbEntity
8
0
100
AcDbLine
10
521.4483357965953
20
-96.683079242701595
30
0
11
521.42059579491684
21
-96.683079242701595
31
0
0
SPLINE
5
131
100
AcDbEntity
8
0
100
AcDbSpline
70
0
71
2
72
6
73
3
74
0
42
0.000000001
43
0.0000000001
44
0.0000000001
40
0
40
0
40
0
40
1
40
1
40
1
10
521.42059579491684
20
-96.683079242701581
30
0
10
521.28190055489608
20
-97.126907348628052
30
0
10
520.79646363854476
20
-97.584605455393657
30
0
0
SPLINE
5
132
100
AcDbEntity
8
0
100
AcDbSpline
70
0
71
2
72
6
73
3
74
0
42
0.000000001
43
0.0000000001
44
0.0000000001
40
0
40
0
40
0
40
1
40
1
40
1
10
520.79646363854476
20
-97.584605455393657
30
0
10
520.31102672219345
20
-98.04230237006638
30
0
10
519.17371764779148
20
-98.763523340219876
30
0
0
SPLINE
5
133
100
AcDbEntity
8
0
100
AcDbSpline
70
0
71
2
72
6
73
3
74
0
42
0.000000001
43
0.0000000001
44
0.0000000001
40
0
40
0
40
0
40
1
40
1
40
1
10
519.17371764779148
20
-98.763523340219876
30
0
10
518.34153965115604
20
-99.318307876581343
30
0
10
517.62031868100212
20
-99.748267173761306
30
0
0
SPLINE
5
134
100
AcDbEntity
8
0
100
AcDbSpline
70
0
71
2
72
6
73
3
74
0
42
0.000000001
43
0.0000000001
44
0.0000000001
40
0
40
0
40
0
40
1
40
1
40
1
10
517.62031868100212
20
-99.748267173761306
30
0
10
516.89909830689476
20
-100.17822527884839
30
0
10
516.01144209504173
20
-100.6775321960387
30
0
0
SPLINE
5
135
100
AcDbEntity
8
0
100
AcDbSpline
70
0
71
2
72
6
73
3
74
0
42
0.000000001
43
0.0000000001
44
0.0000000001
40
0
40
0
40
0
40
1
40
1
40
1
10
516.01144209504173
20
-100.6775321960387
30
0
10
515.67857161164329
20
-100.87170505523049
30
0
10
515.35956993699119
20
-100.87170505523041
30
0
0
SPLINE
5
136
100
AcDbEntity
8
0
100
AcDbSpline
70
0
71
2
72
6
73
3
74
0
42
0.000000001
43
0.0000000001
44
0.0000000001
40
0
40
0
40
0
40
1
40
1
40
1
10
515.35956993699119
20
-100.87170505523041
30
0
10
515.04056885838554
20
-100.87170505523032
30
0
10
514.77704539895103
20
-100.76074981688797
30
0
0
SPLINE
5
137
100
AcDbEntity
8
0
100
AcDbSpline
70
0
71
2
72
6
73
3
74
0
42
0.000000001
43
0.0000000001
44
0.0000000001
40
0
40
0
40
0
40
1
40
1
40
1
10
514.77704539895103
20
-100.76074981688797
30
0
10
514.51352253556297
20
-100.6497921943598
30
0
10
514.30547848343895
20
-100.44174814223572
30
0
0
SPLINE
5
138
100
AcDbEntity
8
0
100
AcDbSpline
70
0
71
2
72
6
73
3
74
0
42
0.000000001
43
0.0000000001
44
0.0000000001
40
0
40
0
40
0
40
1
40
1
40
1
10
514.30547848343895
20
-100.44174814223572
30
0
10
514.09743443131492
20
-100.23370409011164
30
0
10
513.95873799920128
20
-99.984050035469892
30
0
0
SPLINE
5
139
100
AcDbEntity
8
0
100
AcDbSpline
70
0
71
2
72
6
73
3
74
0
42
0.000000001
43
0.0000000001
44
0.0000000001
40
0
40
0
40
0
40
1
40
1
40
1
10
513.95873799920128
20
-99.984050035469892
30
0
10
513.65360632538852
20
-99.457004308693669
30
0
10
513.70908454060611
20
-98.860610961907184
30
0
0
SPLINE
5
140
100
AcDbEntity
8
0
100
AcDbSpline
70
0
71
2
72
6
73
3
74
0
42
0.000000001
43
0.0000000001
44
0.0000000001
40
0
40
0
40
0
40
1
40
1
40
1
10
513.70908454060611
20
-98.860610961907184
30
0
10
513.76456335187015
20
-98.264216423027818
30
0
10
514.43030491471359
20
-97.875867128365513
30
0
0
SPLINE
5
141
100
AcDbEntity
8
0
100
AcDbSpline
70
0
71
2
72
6
73
3
74
0
42
0.000000001
43
0.0000000001
44
0.0000000001
40
0
40
0
40
0
40
1
40
1
40
1
10
514.43030491471359
20
-97.875867128365513
30
0
10
515.31796112656662
20
-97.376561403268113
30
0
10
516.16400852799484
20
-96.863384485238555
30
0
0
SPLINE
5
142
100
AcDbEntity
8
0
100
AcDbSpline
70
0
71
2
72
6
73
3
74
0
42
0.000000001
43
0.0000000001
44
0.0000000001
40
0
40
0
40
0
40
1
40
1
40
1
10
516.16400852799484
20
-96.863384485238555
30
0
10
517.01005533337661
20
-96.350208759301921
30
0
10
518.00866857171127
20
-95.684466600412406
30
0
0
SPLINE
5
143
100
AcDbEntity
8
0
100
AcDbSpline
70
0
71
2
72
6
73
3
74
0
42
0.000000001
43
0.0000000001
44
0.0000000001
40
0
40
0
40
0
40
1
40
1
40
1
10
518.00866857171127
20
-95.684466600412406
30
0
10
518.86858478188594
20
-95.129682064050968
30
0
10
519.21532645821651
20
-94.519418716425321
30
0
0
SPLINE
5
144
100
AcDbEntity
8
0
100
AcDbSpline
70
0
71
2
72
6
73
3
74
0
42
0.000000001
43
0.0000000001
44
0.0000000001
40
0
40
0
40
0
40
1
40
1
40
1
10
519.21532645821651
20
-94.519418716425321
30
0
10
519.5620657503614
20
-93.909154176706807
30
0
10
519.5620657503614
20
-93.021499156946675
30
0
0
LINE
5
145
100
AcDbEntity
8
0
100
AcDbLine
10
519.5620657503614
20
-93.021499156946646
30
0
11
519.5620657503614
21
-92.411234617228047
31
0
0
LINE
5
146
100
AcDbEntity
8
0
100
AcDbLine
10
519.5620657503614
20
-92.411234617228047
30
0
11
515.23474350571723
21
-92.411234617226825
31
0
0
SPLINE
5
147
100
AcDbEntity
8
0
100
AcDbSpline
70
0
71
2
72
6
73
3
74
0
42
0.000000001
43
0.0000000001
44
0.0000000001
40
0
40
0
40
0
40
1
40
1
40
1
10
534.29160848259983
20
-99.068655014036949
30
0
10
534.29160848259971
20
-99.8453536033619
30
0
10
533.75069394707725
20
-100.20596408843866
30
0
0
SPLINE
5
148
100
AcDbEntity
8
0
100
AcDbSpline
70
0
71
2
72
6
73
3
74
0
42
0.000000001
43
0.0000000001
44
0.0000000001
40
0
40
0
40
0
40
1
40
1
40
1
10
533.75069394707725
20
-100.20596408843866
30
0
10
533.20977464318321
20
-100.56657457351541
30
0
10
532.51629605889366
20
-100.56657457351523
30
0
0
SPLINE
5
149
100
AcDbEntity
8
0
100
AcDbSpline
70
0
71
2
72
6
73
3
74
0
42
0.000000001
43
0.0000000001
44
0.0000000001
40
0
40
0
40
0
40
1
40
1
40
1
10
532.51629605889366
20
-100.56657457351523
30
0
10
531.82281509041832
20
-100.56657457351503
30
0
10
531.28189817071006
20
-100.20596408843798
30
0
0
SPLINE
5
150
100
AcDbEntity
8
0
100
AcDbSpline
70
0
71
2
72
6
73
3
74
0
42
0.000000001
43
0.0000000001
44
0.0000000001
40
0
40
0
40
0
40
1
40
1
40
1
10
531.28189817071006
20
-100.20596408843798
30
0
10
530.7409836351876
20
-99.845353603360934
30
0
10
530.74098363518772
20
-99.068655014035983
30
0
0
LINE
5
151
100
AcDbEntity
8
0
100
AcDbLine
10
530.74098363518772
20
-99.068655014035983
30
0
11
530.74098363518829
21
-88.278087615964694
31
0
0
SPLINE
5
152
100
AcDbEntity
8
0
100
AcDbSpline
70
0
71
2
72
6
73
3
74
0
42
0.000000001
43
0.0000000001
44
0.0000000001
40
0
40
0
40
0
40
1
40
1
40
1
10
530.74098363518829
20
-88.278087615964694
30
0
10
530.7409836351884
20
-87.501389026639742
30
0
10
531.28189817071086
20
-87.14077854156298
30
0
0
SPLINE
5
153
100
AcDbEntity
8
0
100
AcDbSpline
70
0
71
2
72
6
73
3
74
0
42
0.000000001
43
0.0000000001
44
0.0000000001
40
0
40
0
40
0
40
1
40
1
40
1
10
531.28189817071086
20
-87.14077854156298
30
0
10
531.82281509041911
20
-86.780168056486232
30
0
10
532.51629605889445
20
-86.780168056486417
30
0
0
SPLINE
5
154
100
AcDbEntity
8
0
100
AcDbSpline
70
0
71
2
72
6
73
3
74
0
42
0.000000001
43
0.0000000001
44
0.0000000001
40
0
40
0
40
0
40
1
40
1
40
1
10
532.51629605889445
20
-86.780168056486417
30
0
10
533.20977464318401
20
-86.780168056486602
30
0
10
533.75069394707805
20
-87.140778541563662
30
0
0
SPLINE
5
155
100
AcDbEntity
8
0
100
AcDbSpline
70
0
71
2
72
6
73
3
74
0
42
0.000000001
43
0.0000000001
44
0.0000000001
40
0
40
0
40
0
40
1
40
1
40
1
10
533.75069394707805
20
-87.140778541563662
30
0
10
534.29160848260051
20
-87.501389026640709
30
0
10
534.2916084826004
20
-88.27808761596566
30
0
0
LINE
5
156
100
AcDbEntity
8
0
100
AcDbLine
10
534.2916084826004
20
-88.27808761596566
30
0
11
534.29160848259983
21
-99.068655014036949
31
0
0
SPLINE
5
157
100
AcDbEntity
8
0
100
AcDbSpline
70
0
71
2
72
6
73
3
74
0
42
0.000000001
43
0.0000000001
44
0.0000000001
40
0
40
0
40
0
40
1
40
1
40
1
10
531.93377271294639
20
-101.59292602538883
30
0
10
533.26525464654014
20
-101.5929260253892
30
0
10
533.77843156456993
20
-102.092231750487
30
0
0
SPLINE
5
158
100
AcDbEntity
8
0
100
AcDbSpline
70
0
71
2
72
6
73
3
74
0
42
0.000000001
43
0.0000000001
44
0.0000000001
40
0
40
0
40
0
40
1
40
1
40
1
10
533.77843156456993
20
-102.092231750487
30
0
10
534.2916084825996
20
-102.59153985977062
30
0
10
534.29160848259949
20
-103.89528417587169
30
0
0
LINE
5
159
100
AcDbEntity
8
0
100
AcDbLine
10
534.29160848259949
20
-103.89528417587171
30
0
11
534.29160848259937
21
-106.11442470550426
31
0
0
SPLINE
5
160
100
AcDbEntity
8
0
100
AcDbSpline
70
0
71
2
72
6
73
3
74
0
42
0.000000001
43
0.0000000001
44
0.0000000001
40
0
40
0
40
0
40
1
40
1
40
1
10
534.29160848259937
20
-106.11442470550426
30
0
10
534.29160848259937
20
-107.41816902160534
30
0
10
533.77843156456959
20
-107.91747713088861
30
0
0
SPLINE
5
161
100
AcDbEntity
8
0
100
AcDbSpline
70
0
71
2
72
6
73
3
74
0
42
0.000000001
43
0.0000000001
44
0.0000000001
40
0
40
0
40
0
40
1
40
1
40
1
10
533.77843156456959
20
-107.91747713088861
30
0
10
533.2652546465398
20
-108.41678285598613
30
0
10
531.93377271294605
20
-108.41678285598576
30
0
0
LINE
5
162
100
AcDbEntity
8
0
100
AcDbLine
10
531.93377271294605
20
-108.41678285598576
30
0
11
521.50381341576588
21
-108.41678285598285
31
0
0
SPLINE
5
163
100
AcDbEntity
8
0
100
AcDbSpline
70
0
71
2
72
6
73
3
74
0
42
0.000000001
43
0.0000000001
44
0.0000000001
40
0
40
0
40
0
40
1
40
1
40
1
10
521.50381341576588
20
-108.41678285598285
30
0
10
521.08772531151783
20
-108.41678285598275
30
0
10
521.08772531151772
20
-108.83287096023079
30
0
0
LINE
5
164
100
AcDbEntity
8
0
100
AcDbLine
10
521.08772531151772
20
-108.83287096023079
30
0
11
521.0877253115176
21
-109.49861431121346
31
0
0
SPLINE
5
165
100
AcDbEntity
8
0
100
AcDbSpline
70
0
71
2
72
6
73
3
74
0
42
0.000000001
43
0.0000000001
44
0.0000000001
40
0
40
0
40
0
40
1
40
1
40
1
10
521.08772531151772
20
-109.49861431121346
30
0
10
521.08772531151772
20
-109.91470241546151
30
0
10
521.50381341576576
20
-109.9147024154616
30
0
0
LINE
5
166
100
AcDbEntity
8
0
100
AcDbLine
10
521.50381341576576
20
-109.9147024154616
30
0
11
533.70908513665199
21
-109.91470241546502
31
0
0
SPLINE
5
167
100
AcDbEntity
8
0
100
AcDbSpline
70
0
71
2
72
6
73
3
74
0
42
0.000000001
43
0.0000000001
44
0.0000000001
40
0
40
0
40
0
40
1
40
1
40
1
10
533.70908513665199
20
-109.91470241546502
30
0
10
534.29160848259926
20
-109.9147024154652
30
0
10
534.56899896264065
20
-110.3307905197133
30
0
0
SPLINE
5
168
100
AcDbEntity
8
0
100
AcDbSpline
70
0
71
2
72
6
73
3
74
0
42
0.000000001
43
0.0000000001
44
0.0000000001
40
0
40
0
40
0
40
1
40
1
40
1
10
534.56899896264065
20
-110.3307905197133
30
0
10
534.84639421105373
20
-110.74687862396144
30
0
10
534.84639421105373
20
-111.27392435073756
30
0
0
SPLINE
5
169
100
AcDbEntity
8
0
100
AcDbSpline
70
0
71
2
72
6
73
3
74
0
42
0.000000001
43
0.0000000001
44
0.0000000001
40
0
40
0
40
0
40
1
40
1
40
1
10
534.84639421105373
20
-111.27392435073756
30
0
10
534.84639421105373
20
-111.82871007919215
30
0
10
534.56899896264065
20
-112.24479818344011
30
0
0
SPLINE
5
170
100
AcDbEntity
8
0
100
AcDbSpline
70
0
71
2
72
6
73
3
74
0
42
0.000000001
43
0.0000000001
44
0.0000000001
40
0
40
0
40
0
40
1
40
1
40
1
10
534.56899896264065
20
-112.24479818344011
30
0
10
534.29160848259914
20
-112.66088867187389
30
0
10
533.70908513665188
20
-112.66088867187371
30
0
0
LINE
5
171
100
AcDbEntity
8
0
100
AcDbLine
10
533.70908513665188
20
-112.66088867187371
30
0
11
520.00589385628689
21
-112.66088867186988
31
0
0
SPLINE
5
172
100
AcDbEntity
8
0
100
AcDbSpline
70
0
71
2
72
6
73
3
74
0
42
0.000000001
43
0.0000000001
44
0.0000000001
40
0
40
0
40
0
40
1
40
1
40
1
10
520.00589385628689
20
-112.66088867186988
30
0
10
518.67441073060024
20
-112.66088867186951
30
0
10
518.16123440861691
20
-112.16158056258593
30
0
0
SPLINE
5
173
100
AcDbEntity
8
0
100
AcDbSpline
70
0
71
2
72
6
73
3
74
0
42
0.000000001
43
0.0000000001
44
0.0000000001
40
0
40
0
40
0
40
1
40
1
40
1
10
518.16123440861691
20
-112.16158056258593
30
0
10
517.64805808663357
20
-111.66227483748813
30
0
10
517.64805808663357
20
-110.35853052138705
30
0
0
LINE
5
174
100
AcDbEntity
8
0
100
AcDbLine
10
517.64805808663357
20
-110.35853052138704
30
0
11
517.6480580866338
21
-108.11164999007602
31
0
0
SPLINE
5
175
100
AcDbEntity
8
0
100
AcDbSpline
70
0
71
2
72
6
73
3
74
0
42
0.000000001
43
0.0000000001
44
0.0000000001
40
0
40
0
40
0
40
1
40
1
40
1
10
517.6480580866338
20
-108.11164999007602
30
0
10
517.6480580866338
20
-106.80790567397494
30
0
10
518.16123440861713
20
-106.30859994887743
30
0
0
SPLINE
5
176
100
AcDbEntity
8
0
100
AcDbSpline
70
0
71
2
72
6
73
3
74
0
42
0.000000001
43
0.0000000001
44
0.0000000001
40
0
40
0
40
0
40
1
40
1
40
1
10
518.16123440861713
20
-106.30859994887743
30
0
10
518.67441073060058
20
-105.80929422377992
30
0
10
520.00589385628723
20
-105.80929422378028
30
0
0
LINE
5
177
100
AcDbEntity
8
0
100
AcDbLine
10
520.00589385628723
20
-105.80929422378028
30
0
11
530.43585076928161
21
-105.8092942237832
31
0
0
SPLINE
5
178
100
AcDbEntity
8
0
100
AcDbSpline
70
0
71
2
72
6
73
3
74
0
42
0.000000001
43
0.0000000001
44
0.0000000001
40
0
40
0
40
0
40
1
40
1
40
1
10
530.43585076928161
20
-105.8092942237832
30
0
10
530.85194125771545
20
-105.80929422378331
30
0
10
530.85194125771545
20
-105.39320373534947
30
0
0
LINE
5
179
100
AcDbEntity
8
0
100
AcDbLine
10
530.85194125771545
20
-105.39320373534947
30
0
11
530.85194125771545
21
-104.75520277023107
31
0
0
SPLINE
5
180
100
AcDbEntity
8
0
100
AcDbSpline
70
0
71
2
72
6
73
3
74
0
42
0.000000001
43
0.0000000001
44
0.0000000001
40
0
40
0
40
0
40
1
40
1
40
1
10
530.85194125771545
20
-104.75520277023107
30
0
10
530.85194125771545
20
-104.33911228179723
30
0
10
530.43585076928161
20
-104.33911228179711
30
0
0
LINE
5
181
100
AcDbEntity
8
0
100
AcDbLine
10
530.43585076928161
20
-104.33911228179711
30
0
11
518.72988954186462
21
-104.33911228179385
31
0
0
SPLINE
5
182
100
AcDbEntity
8
0
100
AcDbSpline
70
0
71
2
72
6
73
3
74
0
42
0.000000001
43
0.0000000001
44
0.0000000001
40
0
40
0
40
0
40
1
40
1
40
1
10
518.72988954186462
20
-104.33911228179385
30
0
10
518.14736440777801
20
-104.33911228179369
30
0
10
517.86997213959717
20
-103.92302417754556
30
0
0
SPLINE
5
183
100
AcDbEntity
8
0
100
AcDbSpline
70
0
71
2
72
6
73
3
74
0
42
0.000000001
43
0.0000000001
44
0.0000000001
40
0
40
0
40
0
40
1
40
1
40
1
10
517.86997213959717
20
-103.92302417754556
30
0
10
517.59257987141632
20
-103.50693607329744
30
0
10
517.59257987141643
20
-102.95215034484285
30
0
0
SPLINE
5
184
100
AcDbEntity
8
0
100
AcDbSpline
70
0
71
2
72
6
73
3
74
0
42
0.000000001
43
0.0000000001
44
0.0000000001
40
0
40
0
40
0
40
1
40
1
40
1
10
517.59257987141643
20
-102.95215034484285
30
0
10
517.59257987141643
20
-102.42510461806673
30
0
10
517.86997213959739
20
-102.00901412963296
30
0
0
SPLINE
5
185
100
AcDbEntity
8
0
100
AcDbSpline
70
0
71
2
72
6
73
3
74
0
42
0.000000001
43
0.0000000001
44
0.0000000001
40
0
40
0
40
0
40
1
40
1
40
1
10
517.86997213959739
20
-102.00901412963296
30
0
10
518.14736440777824
20
-101.592926025385
30
0
10
518.72988954186485
20
-101.59292602538515
30
0
0
LINE
5
186
100
AcDbEntity
8
0
100
AcDbLine
10
518.72988954186485
20
-101.59292602538515
30
0
11
531.93377271294639
21
-101.59292602538883
31
0
0
ENDSEC
0
SECTION
2
OBJECTS
0
DICTIONARY
5
C
100
AcDbDictionary
3
ACAD_GROUP
350
D
3
ACAD_MLINESTYLE
350
17
0
DICTIONARY
5
D
100
AcDbDictionary
0
DICTIONARY
5
1A
330
C
100
AcDbDictionary
0
DICTIONARY
5
17
100
AcDbDictionary
0
ENDSEC
0
EOF
