0
SECTION
2
HEADER
9
$INSUNITS
70
4
9
$ACADVER
1
AC1014
9
$HANDSEED
5
FFFF
0
ENDSEC
0
SECTION
2
TABLES
0
TABLE
2
VPORT
5
8
100
AcDbSymbolTable
0
ENDTAB
0
TABLE
2
LTYPE
5
5
100
AcDbSymbolTable
0
LTYPE
5
14
100
AcDbSymbolTableRecord
100
AcDbLinetypeTableRecord
2
BYBLOCK
70
0
0
LTYPE
5
15
100
AcDbSymbolTableRecord
100
AcDbLinetypeTableRecord
2
BYLAYER
70
0
0
ENDTAB
0
TABLE
2
LAYER
5
2
100
AcDbSymbolTable
70
2
0
LAYER
5
50
100
AcDbSymbolTableRecord
100
AcDbLayerTableRecord
2
0
70
0
6
CONTINUOUS
0
ENDTAB
0
TABLE
2
STYLE
5
3
100
AcDbSymbolTable
70
1
0
STYLE
5
11
100
AcDbSymbolTableRecord
100
AcDbTextStyleTableRecord
2
STANDARD
70
0
0
ENDTAB
0
TABLE
2
VIEW
5
6
100
AcDbSymbolTable
70
0
0
ENDTAB
0
TABLE
2
UCS
5
7
100
AcDbSymbolTable
70
0
0
ENDTAB
0
TABLE
2
APPID
5
9
100
AcDbSymbolTable
70
2
0
APPID
5
12
100
AcDbSymbolTableRecord
100
AcDbRegAppTableRecord
2
ACAD
70
0
0
ENDTAB
0
TABLE
2
DIMSTYLE
5
A
100
AcDbSymbolTable
70
1
0
ENDTAB
0
TABLE
2
BLOCK_RECORD
5
1
100
AcDbSymbolTable
70
1
0
BLOCK_RECORD
5
1F
100
AcDbSymbolTableRecord
100
AcDbBlockTableRecord
2
*MODEL_SPACE
0
BLOCK_RECORD
5
1B
100
AcDbSymbolTableRecord
100
AcDbBlockTableRecord
2
*PAPER_SPACE
0
ENDTAB
0
ENDSEC
0
SECTION
2
BLOCKS
0
BLOCK
5
20
100
AcDbEntity
100
AcDbBlockBegin
2
*MODEL_SPACE
0
ENDBLK
5
21
100
AcDbEntity
100
AcDbBlockEnd
0
BLOCK
5
1C
100
AcDbEntity
100
AcDbBlockBegin
2
*PAPER_SPACE
0
ENDBLK
5
1D
100
AcDbEntity
100
AcDbBlockEnd
0
ENDSEC
0
SECTION
2
ENTITIES
0
LWPOLYLINE
5
100
100
AcDbEntity
8
0
100
AcDbPolyline
90
12
70
1
43
0.0
10
535
20
-128.00000000000003
42
-0.41421356237310336
10
540
20
-133.00000000000003
10
540
20
-155.00000000000003
42
-0.41421356237309681
10
537
20
-158.00000000000003
10
528.50000000000011
20
-158.00000000000003
10
528.50000000000011
20
-171.00000000000307
10
521.5
20
-171
10
521.5
20
-158.00000000000003
10
513
20
-158
42
-0.41421356237309681
10
510
20
-155.00000000000003
10
510
20
-133.00000000000003
42
-0.41421356237310336
10
515
20
-128.00000000000003
0
SPLINE
5
101
100
AcDbEntity
8
0
100
AcDbSpline
70
0
71
2
72
6
73
3
74
0
42
0.000000001
43
0.0000000001
44
0.0000000001
40
0
40
0
40
0
40
1
40
1
40
1
10
526.49791933596521
20
-131.97295713423858
30
0
10
527.13592268526941
20
-131.97295713423895
30
0
10
527.44105435908227
20
-132.41678524016567
30
0
0
SPLINE
5
102
100
AcDbEntity
8
0
100
AcDbSpline
70
0
71
2
72
6
73
3
74
0
42
0.000000001
43
0.0000000001
44
0.0000000001
40
0
40
0
40
0
40
1
40
1
40
1
10
527.44105435908227
20
-132.41678524016567
30
0
10
527.74618603289491
20
-132.86061215399945
30
0
10
527.74618603289491
20
-133.41539549826825
30
0
0
SPLINE
5
103
100
AcDbEntity
8
0
100
AcDbSpline
70
0
71
2
72
6
73
3
74
0
42
0.000000001
43
0.0000000001
44
0.0000000001
40
0
40
0
40
0
40
1
40
1
40
1
10
527.74618603289491
20
-133.41539549826825
30
0
10
527.7461860328948
20
-133.97018122672284
30
0
10
527.44105435908193
20
-134.40014052390285
30
0
0
SPLINE
5
104
100
AcDbEntity
8
0
100
AcDbSpline
70
0
71
2
72
6
73
3
74
0
42
0.000000001
43
0.0000000001
44
0.0000000001
40
0
40
0
40
0
40
1
40
1
40
1
10
527.44105435908193
20
-134.40014052390285
30
0
10
527.13592268526895
20
-134.83009743689703
30
0
10
526.49791933596475
20
-134.83009743689666
30
0
0
LINE
5
105
100
AcDbEntity
8
0
100
AcDbLine
10
526.49791933596475
20
-134.83009743689666
30
0
11
525.41608907282694
21
-134.83009743689598
31
0
0
LINE
5
106
100
AcDbEntity
8
0
100
AcDbLine
10
525.41608907282694
20
-134.83009743689598
30
0
11
525.41608907282603
21
-140.35020875929894
31
0
0
SPLINE
5
107
100
AcDbEntity
8
0
100
AcDbSpline
70
0
71
2
72
6
73
3
74
0
42
0.000000001
43
0.0000000001
44
0.0000000001
40
0
40
0
40
0
40
1
40
1
40
1
10
525.41608907282603
20
-140.35020875929894
30
0
10
525.74895955622446
20
-140.32246994971356
30
0
10
526.0818300396229
20
-140.28086113928896
30
0
0
SPLINE
5
108
100
AcDbEntity
8
0
100
AcDbSpline
70
0
71
2
72
6
73
3
74
0
42
0.000000001
43
0.0000000001
44
0.0000000001
40
0
40
0
40
0
40
1
40
1
40
1
10
526.0818300396229
20
-140.28086113928896
30
0
10
526.41470171511423
20
-140.23925113677149
30
0
10
526.77531220019114
20
-140.18377351760054
30
0
0
SPLINE
5
109
100
AcDbEntity
8
0
100
AcDbSpline
70
0
71
2
72
6
73
3
74
0
42
0.000000001
43
0.0000000001
44
0.0000000001
40
0
40
0
40
0
40
1
40
1
40
1
10
526.77531220019114
20
-140.18377351760054
30
0
10
527.41331435740244
20
-140.10055589675133
30
0
10
527.78779484331858
20
-140.46116518973557
30
0
0
SPLINE
5
110
100
AcDbEntity
8
0
100
AcDbSpline
70
0
71
2
72
6
73
3
74
0
42
0.000000001
43
0.0000000001
44
0.0000000001
40
0
40
0
40
0
40
1
40
1
40
1
10
527.78779484331858
20
-140.46116518973557
30
0
10
528.16227413714171
20
-140.8217756748127
30
0
10
528.21775294840575
20
-141.37656140326732
30
0
0
SPLINE
5
111
100
AcDbEntity
8
0
100
AcDbSpline
70
0
71
2
72
6
73
3
74
0
42
0.000000001
43
0.0000000001
44
0.0000000001
40
0
40
0
40
0
40
1
40
1
40
1
10
528.21775294840575
20
-141.37656140326732
30
0
10
528.27323175966967
20
-141.93134593962907
30
0
10
528.0513177067063
20
-142.43065285681948
30
0
0
SPLINE
5
112
100
AcDbEntity
8
0
100
AcDbSpline
70
0
71
2
72
6
73
3
74
0
42
0.000000001
43
0.0000000001
44
0.0000000001
40
0
40
0
40
0
40
1
40
1
40
1
10
528.0513177067063
20
-142.43065285681948
30
0
10
527.82940365374293
20
-142.92995858191699
30
0
10
527.2191403061172
20
-143.01317620276623
30
0
0
SPLINE
5
113
100
AcDbEntity
8
0
100
AcDbSpline
70
0
71
2
72
6
73
3
74
0
42
0.000000001
43
0.0000000001
44
0.0000000001
40
0
40
0
40
0
40
1
40
1
40
1
10
527.2191403061172
20
-143.01317620276623
30
0
10
525.97087360918727
20
-143.17961263655758
30
0
10
524.63938929140772
20
-143.29056906699194
30
0
0
SPLINE
5
114
100
AcDbEntity
8
0
100
AcDbSpline
70
0
71
2
72
6
73
3
74
0
42
0.000000001
43
0.0000000001
44
0.0000000001
40
0
40
0
40
0
40
1
40
1
40
1
10
524.63938929140772
20
-143.29056906699194
30
0
10
523.30790616572108
20
-143.40152668951919
30
0
10
521.75450779497828
20
-143.45700430868936
30
0
0
SPLINE
5
115
100
AcDbEntity
8
0
100
AcDbSpline
70
0
71
2
72
6
73
3
74
0
42
0.000000001
43
0.0000000001
44
0.0000000001
40
0
40
0
40
0
40
1
40
1
40
1
10
521.75450779497828
20
-143.45700430868936
30
0
10
520.20110942423548
20
-143.51248311995246
30
0
10
518.37031938135829
20
-143.5402219295369
30
0
0
SPLINE
5
116
100
AcDbEntity
8
0
100
AcDbSpline
70
0
71
2
72
6
73
3
74
0
42
0.000000001
43
0.0000000001
44
0.0000000001
40
0
40
0
40
0
40
1
40
1
40
1
10
518.37031938135829
20
-143.5402219295369
30
0
10
516.53952933848109
20
-143.56796193121423
30
0
10
514.29264999926295
20
-143.56796193121286
30
0
0
SPLINE
5
117
100
AcDbEntity
8
0
100
AcDbSpline
70
0
71
2
72
6
73
3
74
0
42
0.000000001
43
0.0000000001
44
0.0000000001
40
0
40
0
40
0
40
1
40
1
40
1
10
514.29264999926295
20
-143.56796193121286
30
0
10
513.65464694798197
20
-143.56796193121247
30
0
10
513.34951527416911
20
-143.13800382612501
30
0
0
SPLINE
5
118
100
AcDbEntity
8
0
100
AcDbSpline
70
0
71
2
72
6
73
3
74
0
42
0.000000001
43
0.0000000001
44
0.0000000001
40
0
40
0
40
0
40
1
40
1
40
1
10
513.34951527416911
20
-143.13800382612501
30
0
10
513.04438360035635
20
-142.70804452894464
30
0
10
513.04438360035635
20
-142.15325999258295
30
0
0
SPLINE
5
119
100
AcDbEntity
8
0
100
AcDbSpline
70
0
71
2
72
6
73
3
74
0
42
0.000000001
43
0.0000000001
44
0.0000000001
40
0
40
0
40
0
40
1
40
1
40
1
10
513.04438360035635
20
-142.15325999258295
30
0
10
513.04438360035647
20
-141.59847545622125
30
0
10
513.34951527416945
20
-141.15464735029494
30
0
0
SPLINE
5
120
100
AcDbEntity
8
0
100
AcDbSpline
70
0
71
2
72
6
73
3
74
0
42
0.000000001
43
0.0000000001
44
0.0000000001
40
0
40
0
40
0
40
1
40
1
40
1
10
513.34951527416945
20
-141.15464735029494
30
0
10
513.65464694798231
20
-140.71081924436859
30
0
10
514.29264999926329
20
-140.71081924436899
30
0
0
LINE
5
121
100
AcDbEntity
8
0
100
AcDbLine
10
514.2926499992634
20
-140.71081924436899
30
0
11
515.76283015311003
21
-140.7108192443699
31
0
0
LINE
5
122
100
AcDbEntity
8
0
100
AcDbLine
10
515.76283015311003
20
-140.7108192443699
30
0
11
515.76283015311105
21
-134.83009743689001
31
0
0
LINE
5
123
100
AcDbEntity
8
0
100
AcDbLine
10
515.76283015311105
20
-134.83009743689001
30
0
11
514.45908524096353
21
-134.83009743688922
31
0
0
SPLINE
5
124
100
AcDbEntity
8
0
100
AcDbSpline
70
0
71
2
72
6
73
3
74
0
42
0.000000001
43
0.0000000001
44
0.0000000001
40
0
40
0
40
0
40
1
40
1
40
1
10
514.45908524096353
20
-134.83009743688922
30
0
10
513.82108248770578
20
-134.83009743688885
30
0
10
513.51595081389303
20
-134.40014052389427
30
0
0
SPLINE
5
125
100
AcDbEntity
8
0
100
AcDbSpline
70
0
71
2
72
6
73
3
74
0
42
0.000000001
43
0.0000000001
44
0.0000000001
40
0
40
0
40
0
40
1
40
1
40
1
10
513.51595081389303
20
-134.40014052389427
30
0
10
513.21081914008016
20
-133.97018122671392
30
0
10
513.21081914008028
20
-133.41539549825933
30
0
0
SPLINE
5
126
100
AcDbEntity
8
0
100
AcDbSpline
70
0
71
2
72
6
73
3
74
0
42
0.000000001
43
0.0000000001
44
0.0000000001
40
0
40
0
40
0
40
1
40
1
40
1
10
513.21081914008028
20
-133.41539549825933
30
0
10
513.21081914008028
20
-132.86061215399053
30
0
10
513.51595081389337
20
-132.41678524015708
30
0
0
SPLINE
5
127
100
AcDbEntity
8
0
100
AcDbSpline
70
0
71
2
72
6
73
3
74
0
42
0.000000001
43
0.0000000001
44
0.0000000001
40
0
40
0
40
0
40
1
40
1
40
1
10
513.51595081389337
20
-132.41678524015708
30
0
10
513.82108248770624
20
-131.97295713423077
30
0
10
514.45908524096399
20
-131.97295713423114
30
0
0
LINE
5
128
100
AcDbEntity
8
0
100
AcDbLine
10
514.4590852409641
20
-131.97295713423114
30
0
11
526.49791933596521
21
-131.97295713423858
31
0
0
SPLINE
5
129
100
AcDbEntity
8
0
100
AcDbSpline
70
0
71
2
72
6
73
3
74
0
42
0.000000001
43
0.0000000001
44
0.0000000001
40
0
40
0
40
0
40
1
40
1
40
1
10
519.14701797068358
20
-140.68307924269351
30
0
10
520.61719872057677
20
-140.68307924269442
30
0
10
522.03189946711313
20
-140.59986162184569
30
0
0
LINE
5
130
100
AcDbEntity
8
0
100
AcDbLine
10
522.03189946711313
20
-140.59986162184569
30
0
11
522.03189946711404
21
-134.83009743689391
31
0
0
LINE
5
131
100
AcDbEntity
8
0
100
AcDbLine
10
522.03189946711404
20
-134.83009743689391
30
0
11
519.1470179706846
21
-134.83009743689212
31
0
0
LINE
5
132
100
AcDbEntity
8
0
100
AcDbLine
10
519.1470179706846
20
-134.83009743689212
30
0
11
519.14701797068358
21
-140.68307924269351
31
0
0
SPLINE
5
133
100
AcDbEntity
8
0
100
AcDbSpline
70
0
71
2
72
6
73
3
74
0
42
0.000000001
43
0.0000000001
44
0.0000000001
40
0
40
0
40
0
40
1
40
1
40
1
10
535.67961312830766
20
-135.93966889381147
30
0
10
536.34535409510454
20
-135.9396688938119
30
0
10
536.6504869610103
20
-136.38349699973861
30
0
0
SPLINE
5
134
100
AcDbEntity
8
0
100
AcDbSpline
70
0
71
2
72
6
73
3
74
0
42
0.000000001
43
0.0000000001
44
0.0000000001
40
0
40
0
40
0
40
1
40
1
40
1
10
536.6504869610103
20
-136.38349699973861
30
0
10
536.95561744273016
20
-136.8273239135724
30
0
10
536.95561744273004
20
-137.4653272628766
30
0
0
SPLINE
5
135
100
AcDbEntity
8
0
100
AcDbSpline
70
0
71
2
72
6
73
3
74
0
42
0.000000001
43
0.0000000001
44
0.0000000001
40
0
40
0
40
0
40
1
40
1
40
1
10
536.95561744273004
20
-137.4653272628766
30
0
10
536.95561744272993
20
-138.1033294200879
30
0
10
536.65048696100985
20
-138.56102752685348
30
0
0
SPLINE
5
136
100
AcDbEntity
8
0
100
AcDbSpline
70
0
71
2
72
6
73
3
74
0
42
0.000000001
43
0.0000000001
44
0.0000000001
40
0
40
0
40
0
40
1
40
1
40
1
10
536.65048696100985
20
-138.56102752685348
30
0
10
536.34535409510408
20
-139.01872444152613
30
0
10
535.67961312830721
20
-139.01872444152571
30
0
0
LINE
5
137
100
AcDbEntity
8
0
100
AcDbLine
10
535.67961312830721
20
-139.01872444152571
30
0
11
533.07212211191927
21
-139.01872444152411
31
0
0
LINE
5
138
100
AcDbEntity
8
0
100
AcDbLine
10
533.07212211191927
20
-139.01872444152411
30
0
11
533.0721221119187
21
-142.6803057193714
31
0
0
SPLINE
5
139
100
AcDbEntity
8
0
100
AcDbSpline
70
0
71
2
72
6
73
3
74
0
42
0.000000001
43
0.0000000001
44
0.0000000001
40
0
40
0
40
0
40
1
40
1
40
1
10
533.0721221119187
20
-142.6803057193714
30
0
10
533.07212211191859
20
-143.45700430869636
30
0
10
532.53120757639601
20
-143.81761479377292
30
0
0
SPLINE
5
140
100
AcDbEntity
8
0
100
AcDbSpline
70
0
71
2
72
6
73
3
74
0
42
0.000000001
43
0.0000000001
44
0.0000000001
40
0
40
0
40
0
40
1
40
1
40
1
10
532.53120757639601
20
-143.81761479377292
30
0
10
531.99029065668765
20
-144.17822527884948
30
0
10
531.29680968821231
20
-144.17822527884906
30
0
0
SPLINE
5
141
100
AcDbEntity
8
0
100
AcDbSpline
70
0
71
2
72
6
73
3
74
0
42
0.000000001
43
0.0000000001
44
0.0000000001
40
0
40
0
40
0
40
1
40
1
40
1
10
531.29680968821231
20
-144.17822527884906
30
0
10
530.60332871973696
20
-144.17822527884863
30
0
10
530.06241180002883
20
-143.81761479377138
30
0
0
SPLINE
5
142
100
AcDbEntity
8
0
100
AcDbSpline
70
0
71
2
72
6
73
3
74
0
42
0.000000001
43
0.0000000001
44
0.0000000001
40
0
40
0
40
0
40
1
40
1
40
1
10
530.06241180002883
20
-143.81761479377138
30
0
10
529.52149726450648
20
-143.45700430869417
30
0
10
529.52149726450659
20
-142.68030571936922
30
0
0
LINE
5
143
100
AcDbEntity
8
0
100
AcDbLine
10
529.52149726450659
20
-142.68030571936922
30
0
11
529.5214972645083
21
-132.2780876159604
31
0
0
SPLINE
5
144
100
AcDbEntity
8
0
100
AcDbSpline
70
0
71
2
72
6
73
3
74
0
42
0.000000001
43
0.0000000001
44
0.0000000001
40
0
40
0
40
0
40
1
40
1
40
1
10
529.5214972645083
20
-132.2780876159604
30
0
10
529.52149726450841
20
-131.50138902663545
30
0
10
530.06241180003087
20
-131.14077854155886
30
0
0
SPLINE
5
145
100
AcDbEntity
8
0
100
AcDbSpline
70
0
71
2
72
6
73
3
74
0
42
0.000000001
43
0.0000000001
44
0.0000000001
40
0
40
0
40
0
40
1
40
1
40
1
10
530.06241180003087
20
-131.14077854155886
30
0
10
530.60332871973924
20
-130.7801680564823
30
0
10
531.29680968821458
20
-130.78016805648272
30
0
0
SPLINE
5
146
100
AcDbEntity
8
0
100
AcDbSpline
70
0
71
2
72
6
73
3
74
0
42
0.000000001
43
0.0000000001
44
0.0000000001
40
0
40
0
40
0
40
1
40
1
40
1
10
531.29680968821458
20
-130.78016805648272
30
0
10
531.99029065668992
20
-130.78016805648315
30
0
10
532.53120757639806
20
-131.14077854156039
30
0
0
SPLINE
5
147
100
AcDbEntity
8
0
100
AcDbSpline
70
0
71
2
72
6
73
3
74
0
42
0.000000001
43
0.0000000001
44
0.0000000001
40
0
40
0
40
0
40
1
40
1
40
1
10
532.53120757639806
20
-131.14077854156039
30
0
10
533.07212211192052
20
-131.50138902663764
30
0
10
533.07212211192041
20
-132.27808761596259
30
0
0
LINE
5
148
100
AcDbEntity
8
0
100
AcDbLine
10
533.07212211192041
20
-132.27808761596259
30
0
11
533.07212211191984
21
-135.93966889380988
31
0
0
LINE
5
149
100
AcDbEntity
8
0
100
AcDbLine
10
533.07212211191984
20
-135.93966889380988
30
0
11
535.67961312830766
21
-135.93966889381147
31
0
0
SPLINE
5
150
100
AcDbEntity
8
0
100
AcDbSpline
70
0
71
2
72
6
73
3
74
0
42
0.000000001
43
0.0000000001
44
0.0000000001
40
0
40
0
40
0
40
1
40
1
40
1
10
528.99445153772933
20
-149.58737897872251
30
0
10
529.63245488703353
20
-149.58737897872291
30
0
10
529.63245488703353
20
-148.94937562941871
30
0
0
LINE
5
151
100
AcDbEntity
8
0
100
AcDbLine
10
529.63245488703353
20
-148.94937562941871
30
0
11
529.63245488703365
21
-148.64424514769874
31
0
0
SPLINE
5
152
100
AcDbEntity
8
0
100
AcDbSpline
70
0
71
2
72
6
73
3
74
0
42
0.000000001
43
0.0000000001
44
0.0000000001
40
0
40
0
40
0
40
1
40
1
40
1
10
529.63245488703365
20
-148.64424514769874
30
0
10
529.63245488703376
20
-148.00624179839454
30
0
10
528.99445153772956
20
-148.00624179839414
30
0
0
LINE
5
153
100
AcDbEntity
8
0
100
AcDbLine
10
528.99445153772956
20
-148.00624179839414
30
0
11
517.81553424894935
21
-148.00624179838726
31
0
0
SPLINE
5
154
100
AcDbEntity
8
0
100
AcDbSpline
70
0
71
2
72
6
73
3
74
0
42
0.000000001
43
0.0000000001
44
0.0000000001
40
0
40
0
40
0
40
1
40
1
40
1
10
517.81553424894935
20
-148.00624179838729
30
0
10
517.20527090132362
20
-148.0062417983869
30
0
10
516.92787863314277
20
-147.57628250120655
30
0
0
SPLINE
5
155
100
AcDbEntity
8
0
100
AcDbSpline
70
0
71
2
72
6
73
3
74
0
42
0.000000001
43
0.0000000001
44
0.0000000001
40
0
40
0
40
0
40
1
40
1
40
1
10
516.92787863314277
20
-147.57628250120655
30
0
10
516.65048576891559
20
-147.14632558821199
30
0
10
516.6504857689157
20
-146.5915398597574
30
0
0
SPLINE
5
156
100
AcDbEntity
8
0
100
AcDbSpline
70
0
71
2
72
6
73
3
74
0
42
0.000000001
43
0.0000000001
44
0.0000000001
40
0
40
0
40
0
40
1
40
1
40
1
10
516.6504857689157
20
-146.5915398597574
30
0
10
516.65048576891581
20
-146.03675651548861
30
0
10
516.92787863314311
20
-145.62066602705494
30
0
0
SPLINE
5
157
100
AcDbEntity
8
0
100
AcDbSpline
70
0
71
2
72
6
73
3
74
0
42
0.000000001
43
0.0000000001
44
0.0000000001
40
0
40
0
40
0
40
1
40
1
40
1
10
516.92787863314311
20
-145.62066602705494
30
0
10
517.20527090132407
20
-145.20457792280706
30
0
10
517.8155342489498
20
-145.20457792280746
30
0
0
LINE
5
158
100
AcDbEntity
8
0
100
AcDbLine
10
517.81553424894992
20
-145.20457792280746
30
0
11
530.71428634226493
21
-145.20457792281539
31
0
0
SPLINE
5
159
100
AcDbEntity
8
0
100
AcDbSpline
70
0
71
2
72
6
73
3
74
0
42
0.000000001
43
0.0000000001
44
0.0000000001
40
0
40
0
40
0
40
1
40
1
40
1
10
530.71428634226493
20
-145.20457792281539
30
0
10
532.04576827585868
20
-145.20457792281621
30
0
10
532.55894519388835
20
-145.70388364791418
30
0
0
SPLINE
5
160
100
AcDbEntity
8
0
100
AcDbSpline
70
0
71
2
72
6
73
3
74
0
42
0.000000001
43
0.0000000001
44
0.0000000001
40
0
40
0
40
0
40
1
40
1
40
1
10
532.55894519388835
20
-145.70388364791418
30
0
10
533.07212211191813
20
-146.20319175719794
30
0
10
533.07212211191791
20
-147.50693607329902
30
0
0
LINE
5
161
100
AcDbEntity
8
0
100
AcDbLine
10
533.07212211191791
20
-147.50693607329902
30
0
11
533.07212211191745
21
-149.97572946548041
31
0
0
SPLINE
5
162
100
AcDbEntity
8
0
100
AcDbSpline
70
0
71
2
72
6
73
3
74
0
42
0.000000001
43
0.0000000001
44
0.0000000001
40
0
40
0
40
0
40
1
40
1
40
1
10
533.07212211191745
20
-149.97572946548041
30
0
10
533.07212211191722
20
-151.27947378158149
30
0
10
532.55894519388744
20
-151.77877950667883
30
0
0
SPLINE
5
163
100
AcDbEntity
8
0
100
AcDbSpline
70
0
71
2
72
6
73
3
74
0
42
0.000000001
43
0.0000000001
44
0.0000000001
40
0
40
0
40
0
40
1
40
1
40
1
10
532.55894519388744
20
-151.77877950667883
30
0
10
532.04576827585754
20
-152.27808761596197
30
0
10
530.71428634226379
20
-152.27808761596114
30
0
0
LINE
5
164
100
AcDbEntity
8
0
100
AcDbLine
10
530.71428634226379
20
-152.27808761596114
30
0
11
520.78363396227417
21
-152.27808761595503
31
0
0
SPLINE
5
165
100
AcDbEntity
8
0
100
AcDbSpline
70
0
71
2
72
6
73
3
74
0
42
0.000000001
43
0.0000000001
44
0.0000000001
40
0
40
0
40
0
40
1
40
1
40
1
10
520.78363396227417
20
-152.278087615955
30
0
10
520.14563180506286
20
-152.27808761595463
30
0
10
520.14563180506275
20
-152.91608858107304
30
0
0
LINE
5
166
100
AcDbEntity
8
0
100
AcDbLine
10
520.14563180506275
20
-152.91608858107304
30
0
11
520.14563180506264
21
-153.2212214469788
31
0
0
SPLINE
5
167
100
AcDbEntity
8
0
100
AcDbSpline
70
0
71
2
72
6
73
3
74
0
42
0.000000001
43
0.0000000001
44
0.0000000001
40
0
40
0
40
0
40
1
40
1
40
1
10
520.14563180506264
20
-153.2212214469788
30
0
10
520.14563180506252
20
-153.85922241209721
30
0
10
520.78363396227383
20
-153.85922241209758
30
0
0
LINE
5
168
100
AcDbEntity
8
0
100
AcDbLine
10
520.78363396227383
20
-153.85922241209758
30
0
11
532.46185876429104
21
-153.85922241210477
31
0
0
SPLINE
5
169
100
AcDbEntity
8
0
100
AcDbSpline
70
0
71
2
72
6
73
3
74
0
42
0.000000001
43
0.0000000001
44
0.0000000001
40
0
40
0
40
0
40
1
40
1
40
1
10
532.46185876429104
20
-153.8592224121048
30
0
10
533.07212211191677
20
-153.85922241210517
30
0
10
533.34951497614406
20
-154.28918170928551
30
0
0
SPLINE
5
170
100
AcDbEntity
8
0
100
AcDbSpline
70
0
71
2
72
6
73
3
74
0
42
0.000000001
43
0.0000000001
44
0.0000000001
40
0
40
0
40
0
40
1
40
1
40
1
10
533.34951497614406
20
-154.28918170928551
30
0
10
533.62690784037125
20
-154.71914100646586
30
0
10
533.62690784037125
20
-155.27392435073466
30
0
0
SPLINE
5
171
100
AcDbEntity
8
0
100
AcDbSpline
70
0
71
2
72
6
73
3
74
0
42
0.000000001
43
0.0000000001
44
0.0000000001
40
0
40
0
40
0
40
1
40
1
40
1
10
533.62690784037125
20
-155.27392435073466
30
0
10
533.62690784037102
20
-155.82871007918925
30
0
10
533.34951497614372
20
-156.24479818343713
30
0
0
SPLINE
5
172
100
AcDbEntity
8
0
100
AcDbSpline
70
0
71
2
72
6
73
3
74
0
42
0.000000001
43
0.0000000001
44
0.0000000001
40
0
40
0
40
0
40
1
40
1
40
1
10
533.34951497614372
20
-156.24479818343713
30
0
10
533.07212211191643
20
-156.66088867187079
30
0
10
532.4618587642907
20
-156.66088867187042
30
0
0
LINE
5
173
100
AcDbEntity
8
0
100
AcDbLine
10
532.4618587642907
20
-156.66088867187042
30
0
11
519.06380034983147
21
-156.66088867186218
31
0
0
SPLINE
5
174
100
AcDbEntity
8
0
100
AcDbSpline
70
0
71
2
72
6
73
3
74
0
42
0.000000001
43
0.0000000001
44
0.0000000001
40
0
40
0
40
0
40
1
40
1
40
1
10
519.06380034983147
20
-156.66088867186215
30
0
10
517.73231662809837
20
-156.66088867186136
30
0
10
517.21914030611504
20
-156.16158056257757
30
0
0
SPLINE
5
175
100
AcDbEntity
8
0
100
AcDbSpline
70
0
71
2
72
6
73
3
74
0
42
0.000000001
43
0.0000000001
44
0.0000000001
40
0
40
0
40
0
40
1
40
1
40
1
10
517.21914030611504
20
-156.16158056257757
30
0
10
516.70596458017826
20
-155.6622748374796
30
0
10
516.70596458017849
20
-154.35853052137853
30
0
0
LINE
5
176
100
AcDbEntity
8
0
100
AcDbLine
10
516.70596458017849
20
-154.3585305213785
30
0
11
516.70596458017894
21
-151.88973712919713
31
0
0
SPLINE
5
177
100
AcDbEntity
8
0
100
AcDbSpline
70
0
71
2
72
6
73
3
74
0
42
0.000000001
43
0.0000000001
44
0.0000000001
40
0
40
0
40
0
40
1
40
1
40
1
10
516.70596458017894
20
-151.88973712919713
30
0
10
516.70596458017917
20
-150.58599281309606
30
0
10
517.21914030611606
20
-150.08668470381292
30
0
0
SPLINE
5
178
100
AcDbEntity
8
0
100
AcDbSpline
70
0
71
2
72
6
73
3
74
0
42
0.000000001
43
0.0000000001
44
0.0000000001
40
0
40
0
40
0
40
1
40
1
40
1
10
517.21914030611606
20
-150.08668470381292
30
0
10
517.73231662809951
20
-149.58737897871561
30
0
10
519.0638003498326
20
-149.5873789787164
30
0
0
LINE
5
179
100
AcDbEntity
8
0
100
AcDbLine
10
519.0638003498326
20
-149.5873789787164
30
0
11
528.99445153772933
21
-149.58737897872251
31
0
0
ENDSEC
0
SECTION
2
OBJECTS
0
DICTIONARY
5
C
100
AcDbDictionary
3
ACAD_GROUP
350
D
3
ACAD_MLINESTYLE
350
17
0
DICTIONARY
5
D
100
AcDbDictionary
0
DICTIONARY
5
1A
330
C
100
AcDbDictionary
0
DICTIONARY
5
17
100
AcDbDictionary
0
ENDSEC
0
EOF
