0
SECTION
2
HEADER
9
$INSUNITS
70
4
9
$ACADVER
1
AC1014
9
$HANDSEED
5
FFFF
0
ENDSEC
0
SECTION
2
TABLES
0
TABLE
2
VPORT
5
8
100
AcDbSymbolTable
0
ENDTAB
0
TABLE
2
LTYPE
5
5
100
AcDbSymbolTable
0
LTYPE
5
14
100
AcDbSymbolTableRecord
100
AcDbLinetypeTableRecord
2
BYBLOCK
70
0
0
LTYPE
5
15
100
AcDbSymbolTableRecord
100
AcDbLinetypeTableRecord
2
BYLAYER
70
0
0
ENDTAB
0
TABLE
2
LAYER
5
2
100
AcDbSymbolTable
70
2
0
LAYER
5
50
100
AcDbSymbolTableRecord
100
AcDbLayerTableRecord
2
0
70
0
6
CONTINUOUS
0
ENDTAB
0
TABLE
2
STYLE
5
3
100
AcDbSymbolTable
70
1
0
STYLE
5
11
100
AcDbSymbolTableRecord
100
AcDbTextStyleTableRecord
2
STANDARD
70
0
0
ENDTAB
0
TABLE
2
VIEW
5
6
100
AcDbSymbolTable
70
0
0
ENDTAB
0
TABLE
2
UCS
5
7
100
AcDbSymbolTable
70
0
0
ENDTAB
0
TABLE
2
APPID
5
9
100
AcDbSymbolTable
70
2
0
APPID
5
12
100
AcDbSymbolTableRecord
100
AcDbRegAppTableRecord
2
ACAD
70
0
0
ENDTAB
0
TABLE
2
DIMSTYLE
5
A
100
AcDbSymbolTable
70
1
0
ENDTAB
0
TABLE
2
BLOCK_RECORD
5
1
100
AcDbSymbolTable
70
1
0
BLOCK_RECORD
5
1F
100
AcDbSymbolTableRecord
100
AcDbBlockTableRecord
2
*MODEL_SPACE
0
BLOCK_RECORD
5
1B
100
AcDbSymbolTableRecord
100
AcDbBlockTableRecord
2
*PAPER_SPACE
0
ENDTAB
0
ENDSEC
0
SECTION
2
BLOCKS
0
BLOCK
5
20
100
AcDbEntity
100
AcDbBlockBegin
2
*MODEL_SPACE
0
ENDBLK
5
21
100
AcDbEntity
100
AcDbBlockEnd
0
BLOCK
5
1C
100
AcDbEntity
100
AcDbBlockBegin
2
*PAPER_SPACE
0
ENDBLK
5
1D
100
AcDbEntity
100
AcDbBlockEnd
0
ENDSEC
0
SECTION
2
ENTITIES
0
LWPOLYLINE
5
100
100
AcDbEntity
8
0
100
AcDbPolyline
90
12
70
1
43
0.0
10
380
20
175
10
380
20
153
42
-0.41421356237309681
10
377
20
150
10
375
20
150
10
375
20
136.99999999999991
10
355.00000000000011
20
136.99999999999989
10
355
20
149.99999999999989
10
353
20
150.00000000000003
42
-0.41421356237309681
10
350
20
153
10
350
20
175
42
-0.41421356237310336
10
355
20
180
10
375
20
180
42
-0.41421356237310336
0
SPLINE
5
101
100
AcDbEntity
8
0
100
AcDbSpline
70
0
71
2
72
6
73
3
74
0
42
0.000000001
43
0.0000000001
44
0.0000000001
40
0
40
0
40
0
40
1
40
1
40
1
10
360.61719901859732
20
170.75727939605713
30
0
10
363.47434170544119
20
170.75727939605713
30
0
10
365.09708769619436
20
169.49514389038086
30
0
0
SPLINE
5
102
100
AcDbEntity
8
0
100
AcDbSpline
70
0
71
2
72
6
73
3
74
0
42
0.000000001
43
0.0000000001
44
0.0000000001
40
0
40
0
40
0
40
1
40
1
40
1
10
365.09708769619436
20
169.49514389038086
30
0
10
366.7198336869476
20
168.23300838470459
30
0
10
366.7198336869476
20
166.04160785675049
30
0
0
SPLINE
5
103
100
AcDbEntity
8
0
100
AcDbSpline
70
0
71
2
72
6
73
3
74
0
42
0.000000001
43
0.0000000001
44
0.0000000001
40
0
40
0
40
0
40
1
40
1
40
1
10
366.7198336869476
20
166.04160785675049
30
0
10
366.7198336869476
20
163.85020732879639
30
0
10
365.09708769619442
20
162.58807182312012
30
0
0
SPLINE
5
104
100
AcDbEntity
8
0
100
AcDbSpline
70
0
71
2
72
6
73
3
74
0
42
0.000000001
43
0.0000000001
44
0.0000000001
40
0
40
0
40
0
40
1
40
1
40
1
10
365.09708769619442
20
162.58807182312012
30
0
10
363.47434170544125
20
161.32593631744385
30
0
10
360.61719901859738
20
161.32593631744385
30
0
0
SPLINE
5
105
100
AcDbEntity
8
0
100
AcDbSpline
70
0
71
2
72
6
73
3
74
0
42
0.000000001
43
0.0000000001
44
0.0000000001
40
0
40
0
40
0
40
1
40
1
40
1
10
360.61719901859738
20
161.32593631744385
30
0
10
357.76005573570706
20
161.32593631744385
30
0
10
356.13731034100033
20
162.58807182312012
30
0
0
SPLINE
5
106
100
AcDbEntity
8
0
100
AcDbSpline
70
0
71
2
72
6
73
3
74
0
42
0.000000001
43
0.0000000001
44
0.0000000001
40
0
40
0
40
0
40
1
40
1
40
1
10
356.13731034100033
20
162.58807182312012
30
0
10
354.51456375420071
20
163.85020732879642
30
0
10
354.51456375420071
20
166.04160785675052
30
0
0
SPLINE
5
107
100
AcDbEntity
8
0
100
AcDbSpline
70
0
71
2
72
6
73
3
74
0
42
0.000000001
43
0.0000000001
44
0.0000000001
40
0
40
0
40
0
40
1
40
1
40
1
10
354.51456375420071
20
166.04160785675052
30
0
10
354.51456375420071
20
168.23300838470462
30
0
10
356.13731034100027
20
169.49514389038089
30
0
0
SPLINE
5
108
100
AcDbEntity
8
0
100
AcDbSpline
70
0
71
2
72
6
73
3
74
0
42
0.000000001
43
0.0000000001
44
0.0000000001
40
0
40
0
40
0
40
1
40
1
40
1
10
356.13731034100027
20
169.49514389038089
30
0
10
357.760055735707
20
170.75727939605713
30
0
10
360.61719901859732
20
170.75727939605713
30
0
0
SPLINE
5
109
100
AcDbEntity
8
0
100
AcDbSpline
70
0
71
2
72
6
73
3
74
0
42
0.000000001
43
0.0000000001
44
0.0000000001
40
0
40
0
40
0
40
1
40
1
40
1
10
354.20943208038778
20
171.92232847213748
30
0
10
353.57142932713003
20
171.92232847213748
30
0
10
353.26629765331717
20
172.36615657806399
30
0
0
SPLINE
5
110
100
AcDbEntity
8
0
100
AcDbSpline
70
0
71
2
72
6
73
3
74
0
42
0.000000001
43
0.0000000001
44
0.0000000001
40
0
40
0
40
0
40
1
40
1
40
1
10
353.26629765331717
20
172.36615657806399
30
0
10
352.9611659795043
20
172.80998468399051
30
0
10
352.9611659795043
20
173.42024803161624
30
0
0
SPLINE
5
111
100
AcDbEntity
8
0
100
AcDbSpline
70
0
71
2
72
6
73
3
74
0
42
0.000000001
43
0.0000000001
44
0.0000000001
40
0
40
0
40
0
40
1
40
1
40
1
10
352.9611659795043
20
173.42024803161624
30
0
10
352.9611659795043
20
174.03051137924197
30
0
10
353.26629765331717
20
174.47433948516849
30
0
0
SPLINE
5
112
100
AcDbEntity
8
0
100
AcDbSpline
70
0
71
2
72
6
73
3
74
0
42
0.000000001
43
0.0000000001
44
0.0000000001
40
0
40
0
40
0
40
1
40
1
40
1
10
353.26629765331717
20
174.47433948516849
30
0
10
353.57142932713003
20
174.918167591095
30
0
10
354.20943208038778
20
174.918167591095
30
0
0
LINE
5
113
100
AcDbEntity
8
0
100
AcDbLine
10
354.20943208038784
20
174.918167591095
30
0
11
358.84188719093771
21
174.918167591095
31
0
0
LINE
5
114
100
AcDbEntity
8
0
100
AcDbLine
10
358.84188719093771
20
174.918167591095
30
0
11
358.84188719093771
21
176.27738952636719
31
0
0
SPLINE
5
115
100
AcDbEntity
8
0
100
AcDbSpline
70
0
71
2
72
6
73
3
74
0
42
0.000000001
43
0.0000000001
44
0.0000000001
40
0
40
0
40
0
40
1
40
1
40
1
10
358.84188719093771
20
176.27738952636719
30
0
10
358.84188719093771
20
177.05408811569214
30
0
10
359.38280232250662
20
177.41469860076904
30
0
0
SPLINE
5
116
100
AcDbEntity
8
0
100
AcDbSpline
70
0
71
2
72
6
73
3
74
0
42
0.000000001
43
0.0000000001
44
0.0000000001
40
0
40
0
40
0
40
1
40
1
40
1
10
359.38280232250662
20
177.41469860076904
30
0
10
359.92371685802908
20
177.77530908584595
30
0
10
360.61719901859732
20
177.77530908584595
30
0
0
SPLINE
5
117
100
AcDbEntity
8
0
100
AcDbSpline
70
0
71
2
72
6
73
3
74
0
42
0.000000001
43
0.0000000001
44
0.0000000001
40
0
40
0
40
0
40
1
40
1
40
1
10
360.61719901859732
20
177.77530908584595
30
0
10
361.31067998707266
20
177.77530908584595
30
0
10
361.85159571468802
20
177.41469860076904
30
0
0
SPLINE
5
118
100
AcDbEntity
8
0
100
AcDbSpline
70
0
71
2
72
6
73
3
74
0
42
0.000000001
43
0.0000000001
44
0.0000000001
40
0
40
0
40
0
40
1
40
1
40
1
10
361.85159571468802
20
177.41469860076904
30
0
10
362.39251025021048
20
177.05408811569214
30
0
10
362.39251025021048
20
176.27738952636719
30
0
0
LINE
5
119
100
AcDbEntity
8
0
100
AcDbLine
10
362.39251025021048
20
176.27738952636722
30
0
11
362.39251025021048
21
174.91816759109497
31
0
0
LINE
5
120
100
AcDbEntity
8
0
100
AcDbLine
10
362.39251025021048
20
174.91816759109497
30
0
11
366.74757249653311
21
174.91816759109497
31
0
0
SPLINE
5
121
100
AcDbEntity
8
0
100
AcDbSpline
70
0
71
2
72
6
73
3
74
0
42
0.000000001
43
0.0000000001
44
0.0000000001
40
0
40
0
40
0
40
1
40
1
40
1
10
366.74757249653311
20
174.91816759109497
30
0
10
367.38557584583731
20
174.91816759109497
30
0
10
367.69070751965018
20
174.47433948516846
30
0
0
SPLINE
5
122
100
AcDbEntity
8
0
100
AcDbSpline
70
0
71
2
72
6
73
3
74
0
42
0.000000001
43
0.0000000001
44
0.0000000001
40
0
40
0
40
0
40
1
40
1
40
1
10
367.69070751965018
20
174.47433948516846
30
0
10
367.99583919346304
20
174.03051137924194
30
0
10
367.99583919346304
20
173.42024803161621
30
0
0
SPLINE
5
123
100
AcDbEntity
8
0
100
AcDbSpline
70
0
71
2
72
6
73
3
74
0
42
0.000000001
43
0.0000000001
44
0.0000000001
40
0
40
0
40
0
40
1
40
1
40
1
10
367.99583919346304
20
173.42024803161621
30
0
10
367.99583919346304
20
172.80998468399048
30
0
10
367.69070751965018
20
172.36615657806396
30
0
0
SPLINE
5
124
100
AcDbEntity
8
0
100
AcDbSpline
70
0
71
2
72
6
73
3
74
0
42
0.000000001
43
0.0000000001
44
0.0000000001
40
0
40
0
40
0
40
1
40
1
40
1
10
367.69070751965018
20
172.36615657806396
30
0
10
367.38557584583731
20
171.92232847213745
30
0
10
366.74757249653311
20
171.92232847213745
30
0
0
LINE
5
125
100
AcDbEntity
8
0
100
AcDbLine
10
366.74757249653311
20
171.92232847213745
30
0
11
354.20943208038778
21
171.92232847213748
31
0
0
SPLINE
5
126
100
AcDbEntity
8
0
100
AcDbSpline
70
0
71
2
72
6
73
3
74
0
42
0.000000001
43
0.0000000001
44
0.0000000001
40
0
40
0
40
0
40
1
40
1
40
1
10
360.61719901859738
20
164.04438257217407
30
0
10
362.11511857807614
20
164.04438257217407
30
0
10
362.82246835529781
20
164.613037109375
30
0
0
SPLINE
5
127
100
AcDbEntity
8
0
100
AcDbSpline
70
0
71
2
72
6
73
3
74
0
42
0.000000001
43
0.0000000001
44
0.0000000001
40
0
40
0
40
0
40
1
40
1
40
1
10
362.82246835529781
20
164.613037109375
30
0
10
363.52982051670529
20
165.18169164657593
30
0
10
363.52982051670529
20
166.04160785675049
30
0
0
SPLINE
5
128
100
AcDbEntity
8
0
100
AcDbSpline
70
0
71
2
72
6
73
3
74
0
42
0.000000001
43
0.0000000001
44
0.0000000001
40
0
40
0
40
0
40
1
40
1
40
1
10
363.52982051670529
20
166.04160785675049
30
0
10
363.52982051670529
20
166.90152406692505
30
0
10
362.82246835529781
20
167.47017860412598
30
0
0
SPLINE
5
129
100
AcDbEntity
8
0
100
AcDbSpline
70
0
71
2
72
6
73
3
74
0
42
0.000000001
43
0.0000000001
44
0.0000000001
40
0
40
0
40
0
40
1
40
1
40
1
10
362.82246835529781
20
167.47017860412598
30
0
10
362.11511857807614
20
168.0388331413269
30
0
10
360.61719901859738
20
168.0388331413269
30
0
0
SPLINE
5
130
100
AcDbEntity
8
0
100
AcDbSpline
70
0
71
2
72
6
73
3
74
0
42
0.000000001
43
0.0000000001
44
0.0000000001
40
0
40
0
40
0
40
1
40
1
40
1
10
360.61719901859738
20
168.0388331413269
30
0
10
359.11927945911862
20
168.0388331413269
30
0
10
358.41192848980404
20
167.47017860412598
30
0
0
SPLINE
5
131
100
AcDbEntity
8
0
100
AcDbSpline
70
0
71
2
72
6
73
3
74
0
42
0.000000001
43
0.0000000001
44
0.0000000001
40
0
40
0
40
0
40
1
40
1
40
1
10
358.41192848980404
20
167.47017860412598
30
0
10
357.70457752048947
20
166.90152406692505
30
0
10
357.70457752048947
20
166.04160785675049
30
0
0
SPLINE
5
132
100
AcDbEntity
8
0
100
AcDbSpline
70
0
71
2
72
6
73
3
74
0
42
0.000000001
43
0.0000000001
44
0.0000000001
40
0
40
0
40
0
40
1
40
1
40
1
10
357.70457752048947
20
166.04160785675049
30
0
10
357.70457752048947
20
165.18169164657593
30
0
10
358.41192848980404
20
164.613037109375
30
0
0
SPLINE
5
133
100
AcDbEntity
8
0
100
AcDbSpline
70
0
71
2
72
6
73
3
74
0
42
0.000000001
43
0.0000000001
44
0.0000000001
40
0
40
0
40
0
40
1
40
1
40
1
10
358.41192848980404
20
164.613037109375
30
0
10
359.11927945911862
20
164.04438257217407
30
0
10
360.61719901859738
20
164.04438257217407
30
0
0
LINE
5
134
100
AcDbEntity
8
0
100
AcDbLine
10
373.1553376466033
20
170.47988653182981
30
0
11
375.79056628048392
21
170.47988653182981
31
0
0
SPLINE
5
135
100
AcDbEntity
8
0
100
AcDbSpline
70
0
71
2
72
6
73
3
74
0
42
0.000000001
43
0.0000000001
44
0.0000000001
40
0
40
0
40
0
40
1
40
1
40
1
10
375.79056628048392
20
170.47988653182981
30
0
10
376.42856962978811
20
170.47988653182981
30
0
10
376.73370249569388
20
170.03605842590329
30
0
0
SPLINE
5
136
100
AcDbEntity
8
0
100
AcDbSpline
70
0
71
2
72
6
73
3
74
0
42
0.000000001
43
0.0000000001
44
0.0000000001
40
0
40
0
40
0
40
1
40
1
40
1
10
376.73370249569388
20
170.03605842590329
30
0
10
377.03883297741385
20
169.59223031997678
30
0
10
377.03883297741385
20
168.95422935485837
30
0
0
SPLINE
5
137
100
AcDbEntity
8
0
100
AcDbSpline
70
0
71
2
72
6
73
3
74
0
42
0.000000001
43
0.0000000001
44
0.0000000001
40
0
40
0
40
0
40
1
40
1
40
1
10
377.03883297741385
20
168.95422935485837
30
0
10
377.03883297741385
20
168.31622600555417
30
0
10
376.73370249569388
20
167.87239789962766
30
0
0
SPLINE
5
138
100
AcDbEntity
8
0
100
AcDbSpline
70
0
71
2
72
6
73
3
74
0
42
0.000000001
43
0.0000000001
44
0.0000000001
40
0
40
0
40
0
40
1
40
1
40
1
10
376.73370249569388
20
167.87239789962766
30
0
10
376.42856962978811
20
167.42856979370114
30
0
10
375.79056628048392
20
167.42856979370114
30
0
0
LINE
5
139
100
AcDbEntity
8
0
100
AcDbLine
10
375.79056628048392
20
167.42856979370114
30
0
11
373.1553376466033
21
167.42856979370114
31
0
0
LINE
5
140
100
AcDbEntity
8
0
100
AcDbLine
10
373.1553376466033
20
167.42856979370114
30
0
11
373.1553376466033
21
160.02218961715695
31
0
0
SPLINE
5
141
100
AcDbEntity
8
0
100
AcDbSpline
70
0
71
2
72
6
73
3
74
0
42
0.000000001
43
0.0000000001
44
0.0000000001
40
0
40
0
40
0
40
1
40
1
40
1
10
373.15533764660336
20
160.02218961715695
30
0
10
373.15533764660336
20
159.245491027832
30
0
10
372.6144231110809
20
158.8848805427551
30
0
0
SPLINE
5
142
100
AcDbEntity
8
0
100
AcDbSpline
70
0
71
2
72
6
73
3
74
0
42
0.000000001
43
0.0000000001
44
0.0000000001
40
0
40
0
40
0
40
1
40
1
40
1
10
372.6144231110809
20
158.8848805427551
30
0
10
372.07350857555844
20
158.52427005767819
30
0
10
371.40776522457577
20
158.52427005767819
30
0
0
SPLINE
5
143
100
AcDbEntity
8
0
100
AcDbSpline
70
0
71
2
72
6
73
3
74
0
42
0.000000001
43
0.0000000001
44
0.0000000001
40
0
40
0
40
0
40
1
40
1
40
1
10
371.40776522457577
20
158.52427005767819
30
0
10
370.71428664028622
20
158.52427005767819
30
0
10
370.17337210476376
20
158.8848805427551
30
0
0
SPLINE
5
144
100
AcDbEntity
8
0
100
AcDbSpline
70
0
71
2
72
6
73
3
74
0
42
0.000000001
43
0.0000000001
44
0.0000000001
40
0
40
0
40
0
40
1
40
1
40
1
10
370.17337210476376
20
158.8848805427551
30
0
10
369.63245518505551
20
159.245491027832
30
0
10
369.63245518505551
20
160.02218961715698
30
0
0
LINE
5
145
100
AcDbEntity
8
0
100
AcDbLine
10
369.63245518505551
20
160.02218961715695
30
0
11
369.63245518505545
21
176.22191190719604
31
0
0
SPLINE
5
146
100
AcDbEntity
8
0
100
AcDbSpline
70
0
71
2
72
6
73
3
74
0
42
0.000000001
43
0.0000000001
44
0.0000000001
40
0
40
0
40
0
40
1
40
1
40
1
10
369.63245518505545
20
176.22191190719604
30
0
10
369.63245518505545
20
176.998610496521
30
0
10
370.1733721047637
20
177.3592209815979
30
0
0
SPLINE
5
147
100
AcDbEntity
8
0
100
AcDbSpline
70
0
71
2
72
6
73
3
74
0
42
0.000000001
43
0.0000000001
44
0.0000000001
40
0
40
0
40
0
40
1
40
1
40
1
10
370.1733721047637
20
177.3592209815979
30
0
10
370.71428664028616
20
177.7198314666748
30
0
10
371.40776522457571
20
177.7198314666748
30
0
0
SPLINE
5
148
100
AcDbEntity
8
0
100
AcDbSpline
70
0
71
2
72
6
73
3
74
0
42
0.000000001
43
0.0000000001
44
0.0000000001
40
0
40
0
40
0
40
1
40
1
40
1
10
371.40776522457571
20
177.7198314666748
30
0
10
372.07350857555838
20
177.71983146667478
30
0
10
372.61442311108084
20
177.35922098159787
30
0
0
SPLINE
5
149
100
AcDbEntity
8
0
100
AcDbSpline
70
0
71
2
72
6
73
3
74
0
42
0.000000001
43
0.0000000001
44
0.0000000001
40
0
40
0
40
0
40
1
40
1
40
1
10
372.61442311108084
20
177.35922098159787
30
0
10
373.1553376466033
20
176.99861049652097
30
0
10
373.1553376466033
20
176.22191190719602
30
0
0
LINE
5
150
100
AcDbEntity
8
0
100
AcDbLine
10
373.1553376466033
20
176.22191190719604
30
0
11
373.1553376466033
21
170.47988653182981
31
0
0
SPLINE
5
151
100
AcDbEntity
8
0
100
AcDbSpline
70
0
71
2
72
6
73
3
74
0
42
0.000000001
43
0.0000000001
44
0.0000000001
40
0
40
0
40
0
40
1
40
1
40
1
10
359.0915400534866
20
152.19972133636477
30
0
10
357.76005573570706
20
152.19972133636477
30
0
10
357.24688000977017
20
152.69902944564822
30
0
0
SPLINE
5
152
100
AcDbEntity
8
0
100
AcDbSpline
70
0
71
2
72
6
73
3
74
0
42
0.000000001
43
0.0000000001
44
0.0000000001
40
0
40
0
40
0
40
1
40
1
40
1
10
357.24688000977017
20
152.69902944564822
30
0
10
356.73370368778683
20
153.19833517074588
30
0
10
356.73370368778683
20
154.50207948684695
30
0
0
LINE
5
153
100
AcDbEntity
8
0
100
AcDbLine
10
356.73370368778683
20
154.50207948684695
30
0
11
356.73370368778683
21
158.69070529937747
31
0
0
SPLINE
5
154
100
AcDbEntity
8
0
100
AcDbSpline
70
0
71
2
72
6
73
3
74
0
42
0.000000001
43
0.0000000001
44
0.0000000001
40
0
40
0
40
0
40
1
40
1
40
1
10
356.73370368778683
20
158.69070529937747
30
0
10
356.73370368778683
20
159.46740627288821
30
0
10
357.27461941540219
20
159.82801437377933
30
0
0
SPLINE
5
155
100
AcDbEntity
8
0
100
AcDbSpline
70
0
71
2
72
6
73
3
74
0
42
0.000000001
43
0.0000000001
44
0.0000000001
40
0
40
0
40
0
40
1
40
1
40
1
10
357.27461941540219
20
159.82801437377933
30
0
10
357.81553454697109
20
160.18862724304199
30
0
10
358.53675492107845
20
160.18862724304199
30
0
0
SPLINE
5
156
100
AcDbEntity
8
0
100
AcDbSpline
70
0
71
2
72
6
73
3
74
0
42
0.000000001
43
0.0000000001
44
0.0000000001
40
0
40
0
40
0
40
1
40
1
40
1
10
358.53675492107845
20
160.18862724304199
30
0
10
359.23023648560024
20
160.18862724304199
30
0
10
359.77115161716915
20
159.8280143737793
30
0
0
SPLINE
5
157
100
AcDbEntity
8
0
100
AcDbSpline
70
0
71
2
72
6
73
3
74
0
42
0.000000001
43
0.0000000001
44
0.0000000001
40
0
40
0
40
0
40
1
40
1
40
1
10
359.77115161716915
20
159.8280143737793
30
0
10
360.31206734478451
20
159.46740627288818
30
0
10
360.31206734478451
20
158.69070529937744
30
0
0
LINE
5
158
100
AcDbEntity
8
0
100
AcDbLine
10
360.31206734478451
20
158.69070529937741
30
0
11
360.31206734478451
21
155.86130380630493
31
0
0
SPLINE
5
159
100
AcDbEntity
8
0
100
AcDbSpline
70
0
71
2
72
6
73
3
74
0
42
0.000000001
43
0.0000000001
44
0.0000000001
40
0
40
0
40
0
40
1
40
1
40
1
10
360.31206734478451
20
155.86130380630493
30
0
10
360.31206734478451
20
155.22330045700073
30
0
10
360.95007069408871
20
155.22330045700073
30
0
0
LINE
5
160
100
AcDbEntity
8
0
100
AcDbLine
10
360.95007069408871
20
155.22330045700073
30
0
11
372.51733668148495
21
155.2233004570007
31
0
0
SPLINE
5
161
100
AcDbEntity
8
0
100
AcDbSpline
70
0
71
2
72
6
73
3
74
0
42
0.000000001
43
0.0000000001
44
0.0000000001
40
0
40
0
40
0
40
1
40
1
40
1
10
372.51733668148495
20
155.2233004570007
30
0
10
373.15533764660336
20
155.2233004570007
30
0
10
373.46047051250912
20
154.77947235107419
30
0
0
SPLINE
5
162
100
AcDbEntity
8
0
100
AcDbSpline
70
0
71
2
72
6
73
3
74
0
42
0.000000001
43
0.0000000001
44
0.0000000001
40
0
40
0
40
0
40
1
40
1
40
1
10
373.46047051250912
20
154.77947235107419
30
0
10
373.76560099422909
20
154.33564424514768
30
0
10
373.76560099422909
20
153.69764089584348
30
0
0
SPLINE
5
163
100
AcDbEntity
8
0
100
AcDbSpline
70
0
71
2
72
6
73
3
74
0
42
0.000000001
43
0.0000000001
44
0.0000000001
40
0
40
0
40
0
40
1
40
1
40
1
10
373.76560099422909
20
153.69764089584348
30
0
10
373.76560099422909
20
153.08737754821775
30
0
10
373.46047051250912
20
152.64354944229123
30
0
0
SPLINE
5
164
100
AcDbEntity
8
0
100
AcDbSpline
70
0
71
2
72
6
73
3
74
0
42
0.000000001
43
0.0000000001
44
0.0000000001
40
0
40
0
40
0
40
1
40
1
40
1
10
373.46047051250912
20
152.64354944229123
30
0
10
373.15533764660336
20
152.19972133636472
30
0
10
372.51733668148495
20
152.19972133636472
30
0
0
LINE
5
165
100
AcDbEntity
8
0
100
AcDbLine
10
372.51733668148506
20
152.19972133636472
30
0
11
359.0915400534866
21
152.19972133636477
31
0
0
ENDSEC
0
SECTION
2
OBJECTS
0
DICTIONARY
5
C
100
AcDbDictionary
3
ACAD_GROUP
350
D
3
ACAD_MLINESTYLE
350
17
0
DICTIONARY
5
D
100
AcDbDictionary
0
DICTIONARY
5
1A
330
C
100
AcDbDictionary
0
DICTIONARY
5
17
100
AcDbDictionary
0
ENDSEC
0
EOF
