0
SECTION
2
HEADER
9
$INSUNITS
70
4
9
$ACADVER
1
AC1014
9
$HANDSEED
5
FFFF
0
ENDSEC
0
SECTION
2
TABLES
0
TABLE
2
VPORT
5
8
100
AcDbSymbolTable
0
ENDTAB
0
TABLE
2
LTYPE
5
5
100
AcDbSymbolTable
0
LTYPE
5
14
100
AcDbSymbolTableRecord
100
AcDbLinetypeTableRecord
2
BYBLOCK
70
0
0
LTYPE
5
15
100
AcDbSymbolTableRecord
100
AcDbLinetypeTableRecord
2
BYLAYER
70
0
0
ENDTAB
0
TABLE
2
LAYER
5
2
100
AcDbSymbolTable
70
2
0
LAYER
5
50
100
AcDbSymbolTableRecord
100
AcDbLayerTableRecord
2
0
70
0
6
CONTINUOUS
0
ENDTAB
0
TABLE
2
STYLE
5
3
100
AcDbSymbolTable
70
1
0
STYLE
5
11
100
AcDbSymbolTableRecord
100
AcDbTextStyleTableRecord
2
STANDARD
70
0
0
ENDTAB
0
TABLE
2
VIEW
5
6
100
AcDbSymbolTable
70
0
0
ENDTAB
0
TABLE
2
UCS
5
7
100
AcDbSymbolTable
70
0
0
ENDTAB
0
TABLE
2
APPID
5
9
100
AcDbSymbolTable
70
2
0
APPID
5
12
100
AcDbSymbolTableRecord
100
AcDbRegAppTableRecord
2
ACAD
70
0
0
ENDTAB
0
TABLE
2
DIMSTYLE
5
A
100
AcDbSymbolTable
70
1
0
ENDTAB
0
TABLE
2
BLOCK_RECORD
5
1
100
AcDbSymbolTable
70
1
0
BLOCK_RECORD
5
1F
100
AcDbSymbolTableRecord
100
AcDbBlockTableRecord
2
*MODEL_SPACE
0
BLOCK_RECORD
5
1B
100
AcDbSymbolTableRecord
100
AcDbBlockTableRecord
2
*PAPER_SPACE
0
ENDTAB
0
ENDSEC
0
SECTION
2
BLOCKS
0
BLOCK
5
20
100
AcDbEntity
100
AcDbBlockBegin
2
*MODEL_SPACE
0
ENDBLK
5
21
100
AcDbEntity
100
AcDbBlockEnd
0
BLOCK
5
1C
100
AcDbEntity
100
AcDbBlockBegin
2
*PAPER_SPACE
0
ENDBLK
5
1D
100
AcDbEntity
100
AcDbBlockEnd
0
ENDSEC
0
SECTION
2
ENTITIES
0
LWPOLYLINE
5
100
100
AcDbEntity
8
0
100
AcDbPolyline
90
12
70
1
43
0.0
10
353
20
-158
42
-0.41421356237309681
10
350
20
-155.00000000000003
10
350
20
-133.00000000000003
42
-0.41421356237310336
10
355
20
-128.00000000000003
10
375
20
-128.00000000000003
42
-0.41421356237310336
10
380
20
-133.00000000000003
10
380
20
-155.00000000000003
42
-0.41421356237309681
10
377
20
-158.00000000000003
10
375
20
-158.00000000000003
10
375
20
-171.00000000004272
10
354.99999999984664
20
-171.00000000004272
10
354.99999999998687
20
-158.00000000004269
0
SPLINE
5
101
100
AcDbEntity
8
0
100
AcDbSpline
70
0
71
2
72
6
73
3
74
0
42
0.000000001
43
0.0000000001
44
0.0000000001
40
0
40
0
40
0
40
1
40
1
40
1
10
357.26074956357786
20
-139.71220660208499
30
0
10
357.26074956357809
20
-138.74133276938235
30
0
10
357.80166469514711
20
-138.0478518009073
30
0
0
SPLINE
5
102
100
AcDbEntity
8
0
100
AcDbSpline
70
0
71
2
72
6
73
3
74
0
42
0.000000001
43
0.0000000001
44
0.0000000001
40
0
40
0
40
0
40
1
40
1
40
1
10
357.80166469514711
20
-138.0478518009073
30
0
10
358.34258042276258
20
-137.35437083243224
30
0
10
359.34119366109735
20
-136.92441272734544
30
0
0
SPLINE
5
103
100
AcDbEntity
8
0
100
AcDbSpline
70
0
71
2
72
6
73
3
74
0
42
0.000000001
43
0.0000000001
44
0.0000000001
40
0
40
0
40
0
40
1
40
1
40
1
10
359.34119366109735
20
-136.92441272734544
30
0
10
360.33980630338561
20
-136.49445462225867
30
0
10
361.7683770507611
20
-136.28641057013539
30
0
0
SPLINE
5
104
100
AcDbEntity
8
0
100
AcDbSpline
70
0
71
2
72
6
73
3
74
0
42
0.000000001
43
0.0000000001
44
0.0000000001
40
0
40
0
40
0
40
1
40
1
40
1
10
361.7683770507611
20
-136.28641057013539
30
0
10
363.19694899022954
20
-136.07836413382631
30
0
10
365.00000022352117
20
-136.07836413382722
30
0
0
SPLINE
5
105
100
AcDbEntity
8
0
100
AcDbSpline
70
0
71
2
72
6
73
3
74
0
42
0.000000001
43
0.0000000001
44
0.0000000001
40
0
40
0
40
0
40
1
40
1
40
1
10
365.00000022352117
20
-136.07836413382722
30
0
10
366.8030514568128
20
-136.07836413382816
30
0
10
368.23162339628112
20
-136.28641057013868
30
0
0
SPLINE
5
106
100
AcDbEntity
8
0
100
AcDbSpline
70
0
71
2
72
6
73
3
74
0
42
0.000000001
43
0.0000000001
44
0.0000000001
40
0
40
0
40
0
40
1
40
1
40
1
10
368.23162339628112
20
-136.28641057013868
30
0
10
369.66019414365661
20
-136.49445462226345
30
0
10
370.65880797803766
20
-136.92441272735124
30
0
0
SPLINE
5
107
100
AcDbEntity
8
0
100
AcDbSpline
70
0
71
2
72
6
73
3
74
0
42
0.000000001
43
0.0000000001
44
0.0000000001
40
0
40
0
40
0
40
1
40
1
40
1
10
370.65880797803766
20
-136.92441272735124
30
0
10
371.65741942823286
20
-137.35437083243903
30
0
10
372.1983339637552
20
-138.04785180091466
30
0
0
SPLINE
5
108
100
AcDbEntity
8
0
100
AcDbSpline
70
0
71
2
72
6
73
3
74
0
42
0.000000001
43
0.0000000001
44
0.0000000001
40
0
40
0
40
0
40
1
40
1
40
1
10
372.1983339637552
20
-138.04785180091466
30
0
10
372.73924849927755
20
-138.74133276939028
30
0
10
372.73924849927732
20
-139.71220660209292
30
0
0
SPLINE
5
109
100
AcDbEntity
8
0
100
AcDbSpline
70
0
71
2
72
6
73
3
74
0
42
0.000000001
43
0.0000000001
44
0.0000000001
40
0
40
0
40
0
40
1
40
1
40
1
10
372.73924849927732
20
-139.71220660209292
30
0
10
372.73924849927715
20
-140.68308043479556
30
0
10
372.19833396375458
20
-141.37656140327061
30
0
0
SPLINE
5
110
100
AcDbEntity
8
0
100
AcDbSpline
70
0
71
2
72
6
73
3
74
0
42
0.000000001
43
0.0000000001
44
0.0000000001
40
0
40
0
40
0
40
1
40
1
40
1
10
372.19833396375458
20
-141.37656140327061
30
0
10
371.65741942823195
20
-142.07004356383857
30
0
10
370.65880797803658
20
-142.50000166892534
30
0
0
SPLINE
5
111
100
AcDbEntity
8
0
100
AcDbSpline
70
0
71
2
72
6
73
3
74
0
42
0.000000001
43
0.0000000001
44
0.0000000001
40
0
40
0
40
0
40
1
40
1
40
1
10
370.65880797803658
20
-142.50000166892534
30
0
10
369.66019414365542
20
-142.9299597740121
30
0
10
368.23162339627982
20
-143.13800382613539
30
0
0
SPLINE
5
112
100
AcDbEntity
8
0
100
AcDbSpline
70
0
71
2
72
6
73
3
74
0
42
0.000000001
43
0.0000000001
44
0.0000000001
40
0
40
0
40
0
40
1
40
1
40
1
10
368.23162339627982
20
-143.13800382613539
30
0
10
366.80305145681143
20
-143.3460490703516
30
0
10
365.00000022351981
20
-143.34604907035066
30
0
0
SPLINE
5
113
100
AcDbEntity
8
0
100
AcDbSpline
70
0
71
2
72
6
73
3
74
0
42
0.000000001
43
0.0000000001
44
0.0000000001
40
0
40
0
40
0
40
1
40
1
40
1
10
365.00000022351981
20
-143.34604907035066
30
0
10
363.19694899022818
20
-143.34604907034975
30
0
10
361.7683770507598
20
-143.13800382613209
30
0
0
SPLINE
5
114
100
AcDbEntity
8
0
100
AcDbSpline
70
0
71
2
72
6
73
3
74
0
42
0.000000001
43
0.0000000001
44
0.0000000001
40
0
40
0
40
0
40
1
40
1
40
1
10
361.7683770507598
20
-143.13800382613209
30
0
10
360.33980630338442
20
-142.92995977400733
30
0
10
359.34119366109627
20
-142.50000166891954
30
0
0
SPLINE
5
115
100
AcDbEntity
8
0
100
AcDbSpline
70
0
71
2
72
6
73
3
74
0
42
0.000000001
43
0.0000000001
44
0.0000000001
40
0
40
0
40
0
40
1
40
1
40
1
10
359.34119366109627
20
-142.50000166891954
30
0
10
358.34258042276167
20
-142.07004356383177
30
0
10
357.80166469514648
20
-141.37656140326325
30
0
0
SPLINE
5
116
100
AcDbEntity
8
0
100
AcDbSpline
70
0
71
2
72
6
73
3
74
0
42
0.000000001
43
0.0000000001
44
0.0000000001
40
0
40
0
40
0
40
1
40
1
40
1
10
357.80166469514648
20
-141.37656140326325
30
0
10
357.26074956357769
20
-140.68308043478763
30
0
10
357.26074956357786
20
-139.71220660208499
30
0
0
SPLINE
5
117
100
AcDbEntity
8
0
100
AcDbSpline
70
0
71
2
72
6
73
3
74
0
42
0.000000001
43
0.0000000001
44
0.0000000001
40
0
40
0
40
0
40
1
40
1
40
1
10
369.32732366025755
20
-139.71220660209116
30
0
10
369.32732366025766
20
-139.15742206572946
30
0
10
368.35644982755514
20
-138.86615920066245
30
0
0
SPLINE
5
118
100
AcDbEntity
8
0
100
AcDbSpline
70
0
71
2
72
6
73
3
74
0
42
0.000000001
43
0.0000000001
44
0.0000000001
40
0
40
0
40
0
40
1
40
1
40
1
10
368.35644982755514
20
-138.86615920066245
30
0
10
367.3855759948525
20
-138.57489752768831
30
0
10
365.00000022352071
20
-138.57489752768709
30
0
0
SPLINE
5
119
100
AcDbEntity
8
0
100
AcDbSpline
70
0
71
2
72
6
73
3
74
0
42
0.000000001
43
0.0000000001
44
0.0000000001
40
0
40
0
40
0
40
1
40
1
40
1
10
365.00000022352071
20
-138.57489752768709
30
0
10
362.61442445218893
20
-138.57489752768586
30
0
10
361.64355061948629
20
-138.86615920065901
30
0
0
SPLINE
5
120
100
AcDbEntity
8
0
100
AcDbSpline
70
0
71
2
72
6
73
3
74
0
42
0.000000001
43
0.0000000001
44
0.0000000001
40
0
40
0
40
0
40
1
40
1
40
1
10
361.64355061948629
20
-138.86615920065901
30
0
10
360.67267678678354
20
-139.15742206572503
30
0
10
360.67267678678343
20
-139.71220660208672
30
0
0
SPLINE
5
121
100
AcDbEntity
8
0
100
AcDbSpline
70
0
71
2
72
6
73
3
74
0
42
0.000000001
43
0.0000000001
44
0.0000000001
40
0
40
0
40
0
40
1
40
1
40
1
10
360.67267678678343
20
-139.71220660208672
30
0
10
360.67267678678331
20
-140.26699233054131
30
0
10
361.64355061948589
20
-140.55825400351546
30
0
0
SPLINE
5
122
100
AcDbEntity
8
0
100
AcDbSpline
70
0
71
2
72
6
73
3
74
0
42
0.000000001
43
0.0000000001
44
0.0000000001
40
0
40
0
40
0
40
1
40
1
40
1
10
361.64355061948589
20
-140.55825400351546
30
0
10
362.61442445218847
20
-140.84951567648957
30
0
10
365.00000022352026
20
-140.8495156764908
30
0
0
SPLINE
5
123
100
AcDbEntity
8
0
100
AcDbSpline
70
0
71
2
72
6
73
3
74
0
42
0.000000001
43
0.0000000001
44
0.0000000001
40
0
40
0
40
0
40
1
40
1
40
1
10
365.00000022352026
20
-140.8495156764908
30
0
10
367.38557599485205
20
-140.84951567649202
30
0
10
368.35644982755474
20
-140.5582540035189
30
0
0
SPLINE
5
124
100
AcDbEntity
8
0
100
AcDbSpline
70
0
71
2
72
6
73
3
74
0
42
0.000000001
43
0.0000000001
44
0.0000000001
40
0
40
0
40
0
40
1
40
1
40
1
10
368.35644982755474
20
-140.5582540035189
30
0
10
369.32732366025743
20
-140.26699233054575
30
0
10
369.32732366025755
20
-139.71220660209116
30
0
0
LINE
5
125
100
AcDbEntity
8
0
100
AcDbLine
10
363.19694899023028
20
-132.50000166892153
30
0
11
363.19694899023045
21
-131.44590902327639
31
0
0
SPLINE
5
126
100
AcDbEntity
8
0
100
AcDbSpline
70
0
71
2
72
6
73
3
74
0
42
0.000000001
43
0.0000000001
44
0.0000000001
40
0
40
0
40
0
40
1
40
1
40
1
10
363.1969489902304
20
-131.44590902327639
30
0
10
363.19694899023057
20
-130.6969504356299
30
0
10
363.73786471784598
20
-130.33633995055328
30
0
0
SPLINE
5
127
100
AcDbEntity
8
0
100
AcDbSpline
70
0
71
2
72
6
73
3
74
0
42
0.000000001
43
0.0000000001
44
0.0000000001
40
0
40
0
40
0
40
1
40
1
40
1
10
363.73786471784598
20
-130.33633995055328
30
0
10
364.27878044546139
20
-129.97572946547663
30
0
10
365.00000022352231
20
-129.975729465477
30
0
0
SPLINE
5
128
100
AcDbEntity
8
0
100
AcDbSpline
70
0
71
2
72
6
73
3
74
0
42
0.000000001
43
0.0000000001
44
0.0000000001
40
0
40
0
40
0
40
1
40
1
40
1
10
365.00000022352231
20
-129.975729465477
30
0
10
365.72122119367612
20
-129.97572946547737
30
0
10
366.26213572919852
20
-130.33633995055456
30
0
0
SPLINE
5
129
100
AcDbEntity
8
0
100
AcDbSpline
70
0
71
2
72
6
73
3
74
0
42
0.000000001
43
0.0000000001
44
0.0000000001
40
0
40
0
40
0
40
1
40
1
40
1
10
366.26213572919852
20
-130.33633995055456
30
0
10
366.80305145681382
20
-130.69695043563175
30
0
10
366.80305145681365
20
-131.44590902327823
30
0
0
LINE
5
130
100
AcDbEntity
8
0
100
AcDbLine
10
366.80305145681365
20
-131.4459090232782
30
0
11
366.80305145681348
21
-132.50000166892337
31
0
0
LINE
5
131
100
AcDbEntity
8
0
100
AcDbLine
10
366.80305145681348
20
-132.50000166892337
30
0
11
373.65464709699603
21
-132.50000166892687
31
0
0
SPLINE
5
132
100
AcDbEntity
8
0
100
AcDbSpline
70
0
71
2
72
6
73
3
74
0
42
0.000000001
43
0.0000000001
44
0.0000000001
40
0
40
0
40
0
40
1
40
1
40
1
10
373.65464709699603
20
-132.50000166892687
30
0
10
374.26490806043597
20
-132.50000166892718
30
0
10
374.54230330884889
20
-132.91608977317537
30
0
0
SPLINE
5
133
100
AcDbEntity
8
0
100
AcDbSpline
70
0
71
2
72
6
73
3
74
0
42
0.000000001
43
0.0000000001
44
0.0000000001
40
0
40
0
40
0
40
1
40
1
40
1
10
374.54230330884889
20
-132.91608977317537
30
0
10
374.81969378889033
20
-133.33218026160935
30
0
10
374.81969378889028
20
-133.88696360587815
30
0
0
SPLINE
5
134
100
AcDbEntity
8
0
100
AcDbSpline
70
0
71
2
72
6
73
3
74
0
42
0.000000001
43
0.0000000001
44
0.0000000001
40
0
40
0
40
0
40
1
40
1
40
1
10
374.81969378889028
20
-133.88696360587815
30
0
10
374.81969378889011
20
-134.41400933265427
30
0
10
374.54230330884855
20
-134.83009982108797
30
0
0
SPLINE
5
135
100
AcDbEntity
8
0
100
AcDbSpline
70
0
71
2
72
6
73
3
74
0
42
0.000000001
43
0.0000000001
44
0.0000000001
40
0
40
0
40
0
40
1
40
1
40
1
10
374.54230330884855
20
-134.83009982108797
30
0
10
374.2649080604354
20
-135.24618792533587
30
0
10
373.65464709699546
20
-135.24618792533556
30
0
0
LINE
5
136
100
AcDbEntity
8
0
100
AcDbLine
10
373.65464709699546
20
-135.24618792533556
30
0
11
356.34535454214011
21
-135.24618792532669
31
0
0
SPLINE
5
137
100
AcDbEntity
8
0
100
AcDbSpline
70
0
71
2
72
6
73
3
74
0
42
0.000000001
43
0.0000000001
44
0.0000000001
40
0
40
0
40
0
40
1
40
1
40
1
10
356.34535454214011
20
-135.24618792532669
30
0
10
355.73509119451438
20
-135.24618792532638
30
0
10
355.45769833028714
20
-134.83009982107819
30
0
0
SPLINE
5
138
100
AcDbEntity
8
0
100
AcDbSpline
70
0
71
2
72
6
73
3
74
0
42
0.000000001
43
0.0000000001
44
0.0000000001
40
0
40
0
40
0
40
1
40
1
40
1
10
355.45769833028714
20
-134.83009982107819
30
0
10
355.18030546605991
20
-134.41400933264424
30
0
10
355.18030546606008
20
-133.88696360586812
30
0
0
SPLINE
5
139
100
AcDbEntity
8
0
100
AcDbSpline
70
0
71
2
72
6
73
3
74
0
42
0.000000001
43
0.0000000001
44
0.0000000001
40
0
40
0
40
0
40
1
40
1
40
1
10
355.18030546606008
20
-133.88696360586812
30
0
10
355.18030546606013
20
-133.33218026159932
30
0
10
355.45769833028749
20
-132.91608977316562
30
0
0
SPLINE
5
140
100
AcDbEntity
8
0
100
AcDbSpline
70
0
71
2
72
6
73
3
74
0
42
0.000000001
43
0.0000000001
44
0.0000000001
40
0
40
0
40
0
40
1
40
1
40
1
10
355.45769833028749
20
-132.91608977316562
30
0
10
355.73509119451495
20
-132.50000166891769
30
0
10
356.34535454214068
20
-132.500001668918
30
0
0
LINE
5
141
100
AcDbEntity
8
0
100
AcDbLine
10
356.34535454214068
20
-132.500001668918
30
0
11
363.19694899023028
21
-132.50000166892153
31
0
0
SPLINE
5
142
100
AcDbEntity
8
0
100
AcDbSpline
70
0
71
2
72
6
73
3
74
0
42
0.000000001
43
0.0000000001
44
0.0000000001
40
0
40
0
40
0
40
1
40
1
40
1
10
354.43134568631814
20
-147.56241369246135
30
0
10
353.82108263671563
20
-147.56241369246106
30
0
10
353.54369007051162
20
-147.14632558821285
30
0
0
SPLINE
5
143
100
AcDbEntity
8
0
100
AcDbSpline
70
0
71
2
72
6
73
3
74
0
42
0.000000001
43
0.0000000001
44
0.0000000001
40
0
40
0
40
0
40
1
40
1
40
1
10
353.54369007051162
20
-147.14632558821285
30
0
10
353.2662975043076
20
-146.73023509977889
30
0
10
353.26629750430766
20
-146.20319175718856
30
0
0
SPLINE
5
144
100
AcDbEntity
8
0
100
AcDbSpline
70
0
71
2
72
6
73
3
74
0
42
0.000000001
43
0.0000000001
44
0.0000000001
40
0
40
0
40
0
40
1
40
1
40
1
10
353.26629750430766
20
-146.20319175718856
30
0
10
353.26629750430783
20
-145.64840602873397
30
0
10
353.54369007051196
20
-145.23231792448604
30
0
0
SPLINE
5
145
100
AcDbEntity
8
0
100
AcDbSpline
70
0
71
2
72
6
73
3
74
0
42
0.000000001
43
0.0000000001
44
0.0000000001
40
0
40
0
40
0
40
1
40
1
40
1
10
353.54369007051196
20
-145.23231792448604
30
0
10
353.82108263671614
20
-144.81622982023816
30
0
10
354.43134568631865
20
-144.81622982023845
30
0
0
LINE
5
146
100
AcDbEntity
8
0
100
AcDbLine
10
354.43134568631865
20
-144.81622982023845
30
0
11
363.25242780149199
21
-144.81622982024297
31
0
0
LINE
5
147
100
AcDbEntity
8
0
100
AcDbLine
10
366.74757264554705
20
-144.81622982024473
30
0
11
375.56865237653471
21
-144.81622982024925
31
0
0
SPLINE
5
148
100
AcDbEntity
8
0
100
AcDbSpline
70
0
71
2
72
6
73
3
74
0
42
0.000000001
43
0.0000000001
44
0.0000000001
40
0
40
0
40
0
40
1
40
1
40
1
10
375.56865237653471
20
-144.81622982024925
30
0
10
376.17891810834624
20
-144.81622982024956
30
0
10
376.45630858838763
20
-145.23231792449775
30
0
0
SPLINE
5
149
100
AcDbEntity
8
0
100
AcDbSpline
70
0
71
2
72
6
73
3
74
0
42
0.000000001
43
0.0000000001
44
0.0000000001
40
0
40
0
40
0
40
1
40
1
40
1
10
376.45630858838763
20
-145.23231792449775
30
0
10
376.73370383680066
20
-145.64840602874594
30
0
10
376.73370383680049
20
-146.20319175720053
30
0
0
SPLINE
5
150
100
AcDbEntity
8
0
100
AcDbSpline
70
0
71
2
72
6
73
3
74
0
42
0.000000001
43
0.0000000001
44
0.0000000001
40
0
40
0
40
0
40
1
40
1
40
1
10
376.73370383680049
20
-146.20319175720053
30
0
10
376.73370383680043
20
-146.73023509979086
30
0
10
376.45630858838729
20
-147.14632558822456
30
0
0
SPLINE
5
151
100
AcDbEntity
8
0
100
AcDbSpline
70
0
71
2
72
6
73
3
74
0
42
0.000000001
43
0.0000000001
44
0.0000000001
40
0
40
0
40
0
40
1
40
1
40
1
10
376.45630858838729
20
-147.14632558822456
30
0
10
376.17891810834573
20
-147.56241369247246
30
0
10
375.5686523765342
20
-147.56241369247215
30
0
0
LINE
5
152
100
AcDbEntity
8
0
100
AcDbLine
10
375.56865237653415
20
-147.56241369247215
30
0
11
354.43134568631814
21
-147.56241369246135
31
0
0
LINE
5
153
100
AcDbEntity
8
0
100
AcDbLine
10
370.27045749127979
20
-150.19764232635006
30
0
11
370.2704574912799
21
-149.47642135619625
31
0
0
SPLINE
5
154
100
AcDbEntity
8
0
100
AcDbSpline
70
0
71
2
72
6
73
3
74
0
42
0.000000001
43
0.0000000001
44
0.0000000001
40
0
40
0
40
0
40
1
40
1
40
1
10
370.2704574912799
20
-149.47642135619625
30
0
10
370.27045749128001
20
-148.75520277022824
30
0
10
370.78363440930985
20
-148.42232990264426
30
0
0
SPLINE
5
155
100
AcDbEntity
8
0
100
AcDbSpline
70
0
71
2
72
6
73
3
74
0
42
0.000000001
43
0.0000000001
44
0.0000000001
40
0
40
0
40
0
40
1
40
1
40
1
10
370.78363440930985
20
-148.42232990264426
30
0
10
371.2968113273397
20
-148.08945941924608
30
0
10
371.9348122924581
20
-148.0894594192464
30
0
0
SPLINE
5
156
100
AcDbEntity
8
0
100
AcDbSpline
70
0
71
2
72
6
73
3
74
0
42
0.000000001
43
0.0000000001
44
0.0000000001
40
0
40
0
40
0
40
1
40
1
40
1
10
371.9348122924581
20
-148.0894594192464
30
0
10
372.57281325757651
20
-148.08945941924674
30
0
10
373.09986136853837
20
-148.42232990264546
30
0
0
SPLINE
5
157
100
AcDbEntity
8
0
100
AcDbSpline
70
0
71
2
72
6
73
3
74
0
42
0.000000001
43
0.0000000001
44
0.0000000001
40
0
40
0
40
0
40
1
40
1
40
1
10
373.09986136853837
20
-148.42232990264546
30
0
10
373.62690471112865
20
-148.75520277022994
30
0
10
373.62690471112853
20
-149.47642135619796
30
0
0
LINE
5
158
100
AcDbEntity
8
0
100
AcDbLine
10
373.62690471112853
20
-149.47642135619796
30
0
11
373.62690471112762
21
-154.30305290221847
31
0
0
SPLINE
5
159
100
AcDbEntity
8
0
100
AcDbSpline
70
0
71
2
72
6
73
3
74
0
42
0.000000001
43
0.0000000001
44
0.0000000001
40
0
40
0
40
0
40
1
40
1
40
1
10
373.62690471112762
20
-154.30305290221847
30
0
10
373.62690471112734
20
-155.60679721831954
30
0
10
373.11373256146908
20
-156.10610294341694
30
0
0
SPLINE
5
160
100
AcDbEntity
8
0
100
AcDbSpline
70
0
71
2
72
6
73
3
74
0
42
0.000000001
43
0.0000000001
44
0.0000000001
40
0
40
0
40
0
40
1
40
1
40
1
10
373.11373256146908
20
-156.10610294341694
30
0
10
372.60055564343924
20
-156.60540866851434
30
0
10
371.2690713256597
20
-156.60540866851366
30
0
0
LINE
5
161
100
AcDbEntity
8
0
100
AcDbLine
10
371.26907132565964
20
-156.60540866851366
30
0
11
358.73092971742147
21
-156.60540866850727
31
0
0
SPLINE
5
162
100
AcDbEntity
8
0
100
AcDbSpline
70
0
71
2
72
6
73
3
74
0
42
0.000000001
43
0.0000000001
44
0.0000000001
40
0
40
0
40
0
40
1
40
1
40
1
10
358.73092971742147
20
-156.60540866850727
30
0
10
357.39944599568838
20
-156.60540866850656
30
0
10
356.8862696737051
20
-156.10610294340864
30
0
0
SPLINE
5
163
100
AcDbEntity
8
0
100
AcDbSpline
70
0
71
2
72
6
73
3
74
0
42
0.000000001
43
0.0000000001
44
0.0000000001
40
0
40
0
40
0
40
1
40
1
40
1
10
356.8862696737051
20
-156.10610294340864
30
0
10
356.37309335172182
20
-155.60679721831073
30
0
10
356.3730933517221
20
-154.30305290220966
30
0
0
LINE
5
164
100
AcDbEntity
8
0
100
AcDbLine
10
356.3730933517221
20
-154.30305290220963
30
0
11
356.37309335172301
21
-149.47642135618915
31
0
0
SPLINE
5
165
100
AcDbEntity
8
0
100
AcDbSpline
70
0
71
2
72
6
73
3
74
0
42
0.000000001
43
0.0000000001
44
0.0000000001
40
0
40
0
40
0
40
1
40
1
40
1
10
356.37309335172296
20
-149.47642135618915
30
0
10
356.37309335172313
20
-148.75520277022113
30
0
10
356.88626967370652
20
-148.42232990263716
30
0
0
SPLINE
5
166
100
AcDbEntity
8
0
100
AcDbSpline
70
0
71
2
72
6
73
3
74
0
42
0.000000001
43
0.0000000001
44
0.0000000001
40
0
40
0
40
0
40
1
40
1
40
1
10
356.88626967370652
20
-148.42232990263716
30
0
10
357.39944599568992
20
-148.08945941923898
30
0
10
358.03744874894767
20
-148.08945941923932
30
0
0
SPLINE
5
167
100
AcDbEntity
8
0
100
AcDbSpline
70
0
71
2
72
6
73
3
74
0
42
0.000000001
43
0.0000000001
44
0.0000000001
40
0
40
0
40
0
40
1
40
1
40
1
10
358.03744874894767
20
-148.08945941923932
30
0
10
358.67545150220542
20
-148.08945941923963
30
0
10
359.20249722898149
20
-148.42232990263835
30
0
0
SPLINE
5
168
100
AcDbEntity
8
0
100
AcDbSpline
70
0
71
2
72
6
73
3
74
0
42
0.000000001
43
0.0000000001
44
0.0000000001
40
0
40
0
40
0
40
1
40
1
40
1
10
359.20249722898149
20
-148.42232990263835
30
0
10
359.72954295575755
20
-148.75520277022287
30
0
10
359.72954295575738
20
-149.47642135619088
30
0
0
LINE
5
169
100
AcDbEntity
8
0
100
AcDbLine
10
359.72954295575738
20
-149.47642135619088
30
0
11
359.72954295575727
21
-150.19764232634469
31
0
0
LINE
5
170
100
AcDbEntity
8
0
100
AcDbLine
10
359.72954295575727
20
-150.19764232634469
30
0
11
370.27045749127979
21
-150.19764232635006
31
0
0
SPLINE
5
171
100
AcDbEntity
8
0
100
AcDbSpline
70
0
71
2
72
6
73
3
74
0
42
0.000000001
43
0.0000000001
44
0.0000000001
40
0
40
0
40
0
40
1
40
1
40
1
10
359.7295429557567
20
-153.55409193037912
30
0
10
359.72954295575664
20
-153.97018003462716
30
0
10
360.14563106000469
20
-153.97018003462736
30
0
0
LINE
5
172
100
AcDbEntity
8
0
100
AcDbLine
10
360.14563106000469
20
-153.97018003462736
30
0
11
369.85436938703106
21
-153.97018003463234
31
0
0
SPLINE
5
173
100
AcDbEntity
8
0
100
AcDbSpline
70
0
71
2
72
6
73
3
74
0
42
0.000000001
43
0.0000000001
44
0.0000000001
40
0
40
0
40
0
40
1
40
1
40
1
10
369.85436938703106
20
-153.97018003463234
30
0
10
370.2704574912791
20
-153.97018003463253
30
0
10
370.27045749127916
20
-153.55409193038449
30
0
0
LINE
5
174
100
AcDbEntity
8
0
100
AcDbLine
10
370.27045749127916
20
-153.55409193038449
30
0
11
370.27045749127927
21
-152.805133342738
31
0
0
LINE
5
175
100
AcDbEntity
8
0
100
AcDbLine
10
370.27045749127927
20
-152.805133342738
30
0
11
359.72954295575681
21
-152.80513334273263
31
0
0
LINE
5
176
100
AcDbEntity
8
0
100
AcDbLine
10
359.72954295575681
20
-152.80513334273263
30
0
11
359.7295429557567
21
-153.55409193037912
31
0
0
LINE
5
177
100
AcDbEntity
8
0
100
AcDbLine
10
366.74757264554705
20
-144.81622982024473
30
0
11
366.74757264554785
21
-143.29154989241539
31
0
0
LINE
5
178
100
AcDbEntity
8
0
100
AcDbLine
10
363.25242780149199
20
-144.81622982024297
30
0
11
363.25242780149273
21
-143.29154989241368
31
0
0
ENDSEC
0
SECTION
2
OBJECTS
0
DICTIONARY
5
C
100
AcDbDictionary
3
ACAD_GROUP
350
D
3
ACAD_MLINESTYLE
350
17
0
DICTIONARY
5
D
100
AcDbDictionary
0
DICTIONARY
5
1A
330
C
100
AcDbDictionary
0
DICTIONARY
5
17
100
AcDbDictionary
0
ENDSEC
0
EOF
