%TF.GenerationSoftware,KiCad,Pcbnew,(5.1.10)-1*%
%TF.CreationDate,2021-07-25T13:07:42+09:00*%
%TF.ProjectId,MHGC,4d484743-2e6b-4696-9361-645f70636258,rev?*%
%TF.SameCoordinates,Original*%
%TF.FileFunction,Copper,L1,Top*%
%TF.FilePolarity,Positive*%
%FSLAX46Y46*%
G04 Gerber Fmt 4.6, Leading zero omitted, Abs format (unit mm)*
G04 Created by KiCad (PCBNEW (5.1.10)-1) date 2021-07-25 13:07:42*
%MOMM*%
%LPD*%
G01*
G04 APERTURE LIST*
%TA.AperFunction,ComponentPad*%
%ADD10O,0.900000X1.600000*%
%TD*%
%TA.AperFunction,ComponentPad*%
%ADD11O,1.250000X0.950000*%
%TD*%
%TA.AperFunction,SMDPad,CuDef*%
%ADD12R,0.400000X1.350000*%
%TD*%
%TA.AperFunction,SMDPad,CuDef*%
%ADD13R,0.850000X1.600000*%
%TD*%
%TA.AperFunction,ComponentPad*%
%ADD14C,1.879600*%
%TD*%
%TA.AperFunction,ComponentPad*%
%ADD15R,2.000000X3.000000*%
%TD*%
%TA.AperFunction,ComponentPad*%
%ADD16C,1.000000*%
%TD*%
%TA.AperFunction,ComponentPad*%
%ADD17O,1.700000X1.700000*%
%TD*%
%TA.AperFunction,ComponentPad*%
%ADD18R,1.700000X1.700000*%
%TD*%
%TA.AperFunction,SMDPad,CuDef*%
%ADD19R,1.600000X0.500000*%
%TD*%
%TA.AperFunction,ComponentPad*%
%ADD20C,1.500000*%
%TD*%
%TA.AperFunction,ComponentPad*%
%ADD21C,1.200000*%
%TD*%
%TA.AperFunction,ViaPad*%
%ADD22C,0.800000*%
%TD*%
%TA.AperFunction,Conductor*%
%ADD23C,0.400000*%
%TD*%
G04 APERTURE END LIST*
D10*
%TO.P,J2,*%
%TO.N,*%
X237800000Y-3000000D03*
X244800000Y-3000000D03*
D11*
X238800000Y-5700000D03*
X243800000Y-5700000D03*
D12*
%TO.P,J2,5*%
%TO.N,GND*%
X240000000Y-5700000D03*
%TO.P,J2,1*%
%TO.N,+5V*%
X242600000Y-5700000D03*
%TD*%
D13*
%TO.P,D14,2*%
%TO.N,Net-(D13-Pad1)*%
X148825000Y-31500000D03*
%TO.P,D14,1*%
%TO.N,Net-(D1-Pad1)*%
X151175000Y-31500000D03*
%TD*%
D14*
%TO.P,U1,JP1_1*%
%TO.N,Net-(U1-PadJP1_1)*%
X263350000Y-2760000D03*
%TO.P,U1,JP1_2*%
%TO.N,Net-(U1-PadJP1_2)*%
X260810000Y-2760000D03*
%TO.P,U1,JP1_3*%
%TO.N,Net-(U1-PadJP1_3)*%
X258270000Y-2760000D03*
%TO.P,U1,JP1_4*%
%TO.N,+5V*%
X255730000Y-2760000D03*
%TO.P,U1,JP1_5*%
%TO.N,GND*%
X253190000Y-2760000D03*
%TO.P,U1,JP1_6*%
X250650000Y-2760000D03*
%TO.P,U1,JP2_1*%
%TO.N,Net-(J1-Pad3)*%
X261699000Y-16603000D03*
%TO.P,U1,JP2_2*%
%TO.N,Net-(J1-Pad4)*%
X261699000Y-14063000D03*
%TO.P,U1,JP3_2*%
%TO.N,Net-(U1-PadJP3_2)*%
X261699000Y-24477000D03*
%TO.P,U1,JP3_1*%
%TO.N,Net-(U1-PadJP3_1)*%
X261699000Y-27017000D03*
%TO.P,U1,JP6_1*%
%TO.N,Net-(U1-PadJP6_1)*%
X264620000Y-5300000D03*
%TO.P,U1,JP6_2*%
%TO.N,GND*%
X264620000Y-7840000D03*
%TO.P,U1,JP6_3*%
%TO.N,Net-(U1-PadJP6_3)*%
X264620000Y-10380000D03*
%TO.P,U1,JP6_4*%
%TO.N,+5V*%
X264620000Y-12920000D03*
%TO.P,U1,JP6_5*%
%TO.N,Net-(U1-PadJP6_5)*%
X264620000Y-15460000D03*
%TO.P,U1,JP6_6*%
%TO.N,Net-(U1-PadJP6_6)*%
X264620000Y-18000000D03*
%TO.P,U1,JP6_7*%
%TO.N,Net-(U1-PadJP6_7)*%
X264620000Y-20540000D03*
%TO.P,U1,JP6_8*%
%TO.N,Net-(RV1-Pad2)*%
X264620000Y-23080000D03*
%TO.P,U1,JP6_9*%
%TO.N,Net-(SW2-Pad1)*%
X264620000Y-25620000D03*
%TO.P,U1,JP6_10*%
%TO.N,Net-(SW1-Pad1)*%
X264620000Y-28160000D03*
%TO.P,U1,JP6_11*%
%TO.N,Net-(R6-Pad1)*%
X264620000Y-30700000D03*
%TO.P,U1,JP6_12*%
%TO.N,Net-(R5-Pad1)*%
X264620000Y-33240000D03*
%TO.P,U1,JP7_1*%
%TO.N,Net-(R4-Pad1)*%
X249380000Y-33240000D03*
%TO.P,U1,JP7_2*%
%TO.N,Net-(U1-PadJP7_2)*%
X249380000Y-30700000D03*
%TO.P,U1,JP7_3*%
%TO.N,Net-(U1-PadJP7_3)*%
X249380000Y-28160000D03*
%TO.P,U1,JP7_4*%
%TO.N,Net-(R3-Pad1)*%
X249380000Y-25620000D03*
%TO.P,U1,JP7_5*%
%TO.N,Net-(R2-Pad1)*%
X249380000Y-23080000D03*
%TO.P,U1,JP7_6*%
%TO.N,Net-(U1-PadJP7_6)*%
X249380000Y-20540000D03*
%TO.P,U1,JP7_7*%
%TO.N,Net-(R1-Pad1)*%
X249380000Y-18000000D03*
%TO.P,U1,JP7_8*%
%TO.N,Net-(U1-PadJP7_8)*%
X249380000Y-15460000D03*
%TO.P,U1,JP7_9*%
%TO.N,GND*%
X249380000Y-12920000D03*
%TO.P,U1,JP7_10*%
%TO.N,Net-(U1-PadJP7_10)*%
X249380000Y-10380000D03*
%TO.P,U1,JP7_11*%
%TO.N,Net-(U1-PadJP7_11)*%
X249380000Y-7840000D03*
%TO.P,U1,JP7_12*%
%TO.N,Net-(U1-PadJP7_12)*%
X249380000Y-5300000D03*
%TD*%
D13*
%TO.P,D11,2*%
%TO.N,Net-(D1-Pad1)*%
X181825000Y-40500000D03*
%TO.P,D11,1*%
%TO.N,Net-(D11-Pad1)*%
X184175000Y-40500000D03*
%TD*%
%TO.P,D1,2*%
%TO.N,Net-(D1-Pad2)*%
X217175000Y-40500000D03*
%TO.P,D1,1*%
%TO.N,Net-(D1-Pad1)*%
X214825000Y-40500000D03*
%TD*%
%TO.P,D2,2*%
%TO.N,Net-(D1-Pad1)*%
X214825000Y-36000000D03*
%TO.P,D2,1*%
%TO.N,Net-(D1-Pad2)*%
X217175000Y-36000000D03*
%TD*%
%TO.P,D3,2*%
%TO.N,Net-(D1-Pad2)*%
X217175000Y-31500000D03*
%TO.P,D3,1*%
%TO.N,Net-(D11-Pad1)*%
X214825000Y-31500000D03*
%TD*%
%TO.P,D4,2*%
%TO.N,Net-(D11-Pad1)*%
X214825000Y-27000000D03*
%TO.P,D4,1*%
%TO.N,Net-(D1-Pad2)*%
X217175000Y-27000000D03*
%TD*%
%TO.P,D5,2*%
%TO.N,Net-(D1-Pad2)*%
X217175000Y-22500000D03*
%TO.P,D5,1*%
%TO.N,Net-(D13-Pad1)*%
X214825000Y-22500000D03*
%TD*%
%TO.P,D6,2*%
%TO.N,Net-(D13-Pad1)*%
X214825000Y-18000000D03*
%TO.P,D6,1*%
%TO.N,Net-(D1-Pad2)*%
X217175000Y-18000000D03*
%TD*%
%TO.P,D7,2*%
%TO.N,Net-(D1-Pad2)*%
X217175000Y-13500000D03*
%TO.P,D7,1*%
%TO.N,Net-(D15-Pad1)*%
X214825000Y-13500000D03*
%TD*%
%TO.P,D8,2*%
%TO.N,Net-(D15-Pad1)*%
X214825000Y-9000000D03*
%TO.P,D8,1*%
%TO.N,Net-(D1-Pad2)*%
X217175000Y-9000000D03*
%TD*%
%TO.P,D9,2*%
%TO.N,Net-(D1-Pad2)*%
X217175000Y-4500000D03*
%TO.P,D9,1*%
%TO.N,Net-(D10-Pad2)*%
X214825000Y-4500000D03*
%TD*%
%TO.P,D10,2*%
%TO.N,Net-(D10-Pad2)*%
X250175000Y-40500000D03*
%TO.P,D10,1*%
%TO.N,Net-(D1-Pad2)*%
X247825000Y-40500000D03*
%TD*%
%TO.P,D12,2*%
%TO.N,Net-(D11-Pad1)*%
X148825000Y-40500000D03*
%TO.P,D12,1*%
%TO.N,Net-(D1-Pad1)*%
X151175000Y-40500000D03*
%TD*%
%TO.P,D13,2*%
%TO.N,Net-(D1-Pad1)*%
X151175000Y-36000000D03*
%TO.P,D13,1*%
%TO.N,Net-(D13-Pad1)*%
X148825000Y-36000000D03*
%TD*%
%TO.P,D15,2*%
%TO.N,Net-(D1-Pad1)*%
X151175000Y-27000000D03*
%TO.P,D15,1*%
%TO.N,Net-(D15-Pad1)*%
X148825000Y-27000000D03*
%TD*%
%TO.P,D16,2*%
%TO.N,Net-(D15-Pad1)*%
X82825000Y-40500000D03*
%TO.P,D16,1*%
%TO.N,Net-(D1-Pad1)*%
X85175000Y-40500000D03*
%TD*%
%TO.P,D17,2*%
%TO.N,Net-(D1-Pad1)*%
X85175000Y-36000000D03*
%TO.P,D17,1*%
%TO.N,Net-(D10-Pad2)*%
X82825000Y-36000000D03*
%TD*%
%TO.P,D18,2*%
%TO.N,Net-(D10-Pad2)*%
X82825000Y-31500000D03*
%TO.P,D18,1*%
%TO.N,Net-(D1-Pad1)*%
X85175000Y-31500000D03*
%TD*%
%TO.P,D19,2*%
%TO.N,Net-(D11-Pad1)*%
X85175000Y-27000000D03*
%TO.P,D19,1*%
%TO.N,Net-(D13-Pad1)*%
X82825000Y-27000000D03*
%TD*%
%TO.P,D20,2*%
%TO.N,Net-(D13-Pad1)*%
X82825000Y-22500000D03*
%TO.P,D20,1*%
%TO.N,Net-(D11-Pad1)*%
X85175000Y-22500000D03*
%TD*%
%TO.P,D21,2*%
%TO.N,Net-(D11-Pad1)*%
X85175000Y-18000000D03*
%TO.P,D21,1*%
%TO.N,Net-(D15-Pad1)*%
X82825000Y-18000000D03*
%TD*%
%TO.P,D22,2*%
%TO.N,Net-(D15-Pad1)*%
X82825000Y-13500000D03*
%TO.P,D22,1*%
%TO.N,Net-(D11-Pad1)*%
X85175000Y-13500000D03*
%TD*%
%TO.P,D23,2*%
%TO.N,Net-(D11-Pad1)*%
X85175000Y-9000000D03*
%TO.P,D23,1*%
%TO.N,Net-(D10-Pad2)*%
X82825000Y-9000000D03*
%TD*%
%TO.P,D24,2*%
%TO.N,Net-(D10-Pad2)*%
X49825000Y-22500000D03*
%TO.P,D24,1*%
%TO.N,Net-(D11-Pad1)*%
X52175000Y-22500000D03*
%TD*%
%TO.P,D25,2*%
%TO.N,Net-(D15-Pad1)*%
X49825000Y-9000000D03*
%TO.P,D25,1*%
%TO.N,Net-(D13-Pad1)*%
X52175000Y-9000000D03*
%TD*%
%TO.P,D26,2*%
%TO.N,Net-(D13-Pad1)*%
X52175000Y-13500000D03*
%TO.P,D26,1*%
%TO.N,Net-(D15-Pad1)*%
X49825000Y-13500000D03*
%TD*%
%TO.P,D27,2*%
%TO.N,Net-(D10-Pad2)*%
X49825000Y-18000000D03*
%TO.P,D27,1*%
%TO.N,Net-(D13-Pad1)*%
X52175000Y-18000000D03*
%TD*%
%TO.P,D28,2*%
%TO.N,Net-(D13-Pad1)*%
X12325000Y-40500000D03*
%TO.P,D28,1*%
%TO.N,Net-(D10-Pad2)*%
X14675000Y-40500000D03*
%TD*%
%TO.P,D29,2*%
%TO.N,Net-(D10-Pad2)*%
X26675000Y-40500000D03*
%TO.P,D29,1*%
%TO.N,Net-(D15-Pad1)*%
X24325000Y-40500000D03*
%TD*%
%TO.P,D30,2*%
%TO.N,Net-(D15-Pad1)*%
X52175000Y-40500000D03*
%TO.P,D30,1*%
%TO.N,Net-(D10-Pad2)*%
X49825000Y-40500000D03*
%TD*%
%TO.P,D31,2*%
%TO.N,Net-(D11-Pad1)*%
X115825000Y-40500000D03*
%TO.P,D31,1*%
%TO.N,GND*%
X118175000Y-40500000D03*
%TD*%
D15*
%TO.P,RV1,*%
%TO.N,*%
X221030000Y-5000000D03*
X233630000Y-5000000D03*
D16*
%TO.P,RV1,3*%
%TO.N,GND*%
X223580000Y-8000000D03*
%TO.P,RV1,2*%
%TO.N,Net-(RV1-Pad2)*%
X227330000Y-8000000D03*
%TO.P,RV1,1*%
%TO.N,+5V*%
X231080000Y-8000000D03*
%TD*%
D17*
%TO.P,J1,4*%
%TO.N,Net-(J1-Pad4)*%
X174120000Y-3000000D03*
%TO.P,J1,3*%
%TO.N,Net-(J1-Pad3)*%
X171580000Y-3000000D03*
%TO.P,J1,2*%
%TO.N,+5V*%
X169040000Y-3000000D03*
D18*
%TO.P,J1,1*%
%TO.N,GND*%
X166500000Y-3000000D03*
%TD*%
D19*
%TO.P,R1,2*%
%TO.N,Net-(D10-Pad2)*%
X240030000Y-20700000D03*
%TO.P,R1,1*%
%TO.N,Net-(R1-Pad1)*%
X240030000Y-18000000D03*
%TD*%
%TO.P,R2,2*%
%TO.N,Net-(D15-Pad1)*%
X240030000Y-26750000D03*
%TO.P,R2,1*%
%TO.N,Net-(R2-Pad1)*%
X240030000Y-24050000D03*
%TD*%
%TO.P,R3,2*%
%TO.N,Net-(D13-Pad1)*%
X240030000Y-33100000D03*
%TO.P,R3,1*%
%TO.N,Net-(R3-Pad1)*%
X240030000Y-30400000D03*
%TD*%
%TO.P,R4,2*%
%TO.N,Net-(D11-Pad1)*%
X254500000Y-40720000D03*
%TO.P,R4,1*%
%TO.N,Net-(R4-Pad1)*%
X254500000Y-38020000D03*
%TD*%
%TO.P,R5,2*%
%TO.N,Net-(D1-Pad1)*%
X264620000Y-43260000D03*
%TO.P,R5,1*%
%TO.N,Net-(R5-Pad1)*%
X264620000Y-40560000D03*
%TD*%
%TO.P,R6,2*%
%TO.N,Net-(D1-Pad2)*%
X259500000Y-41990000D03*
%TO.P,R6,1*%
%TO.N,Net-(R6-Pad1)*%
X259500000Y-39290000D03*
%TD*%
D20*
%TO.P,SW1,*%
%TO.N,*%
X203510000Y-5250000D03*
X210510000Y-5250000D03*
D21*
%TO.P,SW1,2*%
%TO.N,GND*%
X204760000Y-2750000D03*
%TO.P,SW1,1*%
%TO.N,Net-(SW1-Pad1)*%
X209260000Y-2750000D03*
%TD*%
D20*
%TO.P,SW2,*%
%TO.N,*%
X193350000Y-5250000D03*
X200350000Y-5250000D03*
D21*
%TO.P,SW2,2*%
%TO.N,GND*%
X194600000Y-2750000D03*
%TO.P,SW2,1*%
%TO.N,Net-(SW2-Pad1)*%
X199100000Y-2750000D03*
%TD*%
D22*
%TO.N,Net-(D13-Pad1)*%
X148590000Y-29210000D03*
X153670000Y-29210000D03*
X226060000Y-33020000D03*
X212090000Y-24130000D03*
%TO.N,Net-(D15-Pad1)*%
X46990000Y-35560000D03*
X213360000Y-15240000D03*
X82550000Y-20320000D03*
X86360000Y-20320000D03*
X145720000Y-27000000D03*
X224870000Y-26750000D03*
X52175000Y-35665000D03*
X80150000Y-40500000D03*
X94920000Y-27000000D03*
%TO.N,Net-(D10-Pad2)*%
X77470000Y-29210000D03*
X78740000Y-10160000D03*
%TO.N,Net-(D11-Pad1)*%
X85090000Y-24130000D03*
X81280000Y-24130000D03*
X91440000Y-27940000D03*
X91440000Y-30480000D03*
X210820000Y-35560000D03*
X256540000Y-41910000D03*
X143510000Y-35560000D03*
X143510000Y-40640000D03*
%TO.N,GND*%
X118110000Y-38100000D03*
%TO.N,+5V*%
X245110000Y-7620000D03*
%TO.N,Net-(J1-Pad3)*%
X171450000Y-11430000D03*
%TO.N,Net-(J1-Pad4)*%
X173990000Y-10160000D03*
%TO.N,Net-(RV1-Pad2)*%
X227330000Y-19050000D03*
%TO.N,Net-(SW1-Pad1)*%
X209260000Y-18760000D03*
%TO.N,Net-(SW2-Pad1)*%
X199390000Y-20320000D03*
%TD*%
D23*
%TO.N,Net-(D1-Pad2)*%
X259500000Y-41990000D02*
X259500000Y-42760000D01*
X259500000Y-42760000D02*
X259080000Y-43180000D01*
X259080000Y-43180000D02*
X248920000Y-43180000D01*
X247825000Y-42085000D02*
X247825000Y-40500000D01*
X248920000Y-43180000D02*
X247825000Y-42085000D01*
X247825000Y-40500000D02*
X217175000Y-40500000D01*
X217175000Y-40500000D02*
X217175000Y-4500000D01*
%TO.N,Net-(D1-Pad1)*%
X264620000Y-43990000D02*
X264160000Y-44450000D01*
X264620000Y-43260000D02*
X264620000Y-43990000D01*
X264160000Y-44450000D02*
X215900000Y-44450000D01*
X215900000Y-44450000D02*
X214630000Y-43180000D01*
X214630000Y-36195000D02*
X214825000Y-36000000D01*
X214630000Y-38100000D02*
X182880000Y-38100000D01*
X214630000Y-43180000D02*
X214630000Y-38100000D01*
X214630000Y-38100000D02*
X214630000Y-36195000D01*
X182880000Y-38100000D02*
X181610000Y-39370000D01*
X181610000Y-39370000D02*
X181610000Y-40640000D01*
X85090000Y-31585000D02*
X85175000Y-31500000D01*
X85090000Y-41910000D02*
X85090000Y-31585000D01*
X86360000Y-43180000D02*
X85090000Y-41910000D01*
X121920000Y-43180000D02*
X86360000Y-43180000D01*
X127000000Y-38100000D02*
X121920000Y-43180000D01*
X151175000Y-38145000D02*
X151130000Y-38100000D01*
X151175000Y-40500000D02*
X151175000Y-38145000D01*
X151130000Y-38100000D02*
X127000000Y-38100000D01*
X182880000Y-38100000D02*
X151130000Y-38100000D01*
X151130000Y-27045000D02*
X151175000Y-27000000D01*
X151130000Y-38100000D02*
X151130000Y-27045000D01*
%TO.N,Net-(D13-Pad1)*%
X214825000Y-18000000D02*
X214825000Y-22500000D01*
X214825000Y-22500000D02*
X213720000Y-22500000D01*
X207010000Y-29210000D02*
X153670000Y-29210000D01*
X153670000Y-29210000D02*
X153670000Y-29210000D01*
X12325000Y-40500000D02*
X12325000Y-37205000D01*
X12325000Y-37205000D02*
X43180000Y-6350000D01*
X43180000Y-6350000D02*
X50800000Y-6350000D01*
X52175000Y-7725000D02*
X52175000Y-9000000D01*
X50800000Y-6350000D02*
X52175000Y-7725000D01*
X52175000Y-9000000D02*
X52175000Y-18000000D01*
X78325000Y-18000000D02*
X82825000Y-22500000D01*
X52175000Y-18000000D02*
X78325000Y-18000000D01*
X82825000Y-22500000D02*
X82825000Y-27000000D01*
X148825000Y-29445000D02*
X148590000Y-29210000D01*
X148825000Y-36000000D02*
X148825000Y-29445000D01*
X82825000Y-27665000D02*
X82825000Y-27000000D01*
X82550000Y-27940000D02*
X82825000Y-27665000D01*
X83820000Y-29210000D02*
X82550000Y-27940000D01*
X148590000Y-29210000D02*
X83820000Y-29210000D01*
X239950000Y-33020000D02*
X240030000Y-33100000D01*
X226060000Y-33020000D02*
X239950000Y-33020000D01*
X212090000Y-24130000D02*
X207010000Y-29210000D01*
X213720000Y-22500000D02*
X212090000Y-24130000D01*
%TO.N,Net-(D15-Pad1)*%
X214825000Y-9000000D02*
X214825000Y-13500000D01*
X214825000Y-13775000D02*
X213360000Y-15240000D01*
X214825000Y-13500000D02*
X214825000Y-13775000D01*
X49825000Y-9000000D02*
X49825000Y-13500000D01*
X49825000Y-13500000D02*
X48730000Y-13500000D01*
X48730000Y-13500000D02*
X48260000Y-13970000D01*
X24325000Y-36635000D02*
X24325000Y-40500000D01*
X25400000Y-35560000D02*
X24325000Y-36635000D01*
X82825000Y-40500000D02*
X80150000Y-40500000D01*
X148825000Y-27000000D02*
X145720000Y-27000000D01*
X145720000Y-27000000D02*
X94920000Y-27000000D01*
X93040000Y-27000000D02*
X86360000Y-20320000D01*
X240030000Y-26750000D02*
X224870000Y-26750000D01*
X224870000Y-26750000D02*
X224870000Y-26750000D01*
X82825000Y-20045000D02*
X82550000Y-20320000D01*
X82825000Y-13500000D02*
X82825000Y-20045000D01*
X46990000Y-35560000D02*
X48260000Y-34290000D01*
X48260000Y-13970000D02*
X48260000Y-34290000D01*
X25400000Y-35560000D02*
X46990000Y-35560000D01*
X52175000Y-40500000D02*
X52175000Y-35665000D01*
X52175000Y-35665000D02*
X52175000Y-35665000D01*
X80150000Y-40500000D02*
X52175000Y-40500000D01*
X94920000Y-27000000D02*
X93040000Y-27000000D01*
%TO.N,Net-(D10-Pad2)*%
X222630000Y-20700000D02*
X240030000Y-20700000D01*
X214825000Y-3615000D02*
X215900000Y-2540000D01*
X214825000Y-4500000D02*
X214825000Y-3615000D01*
X250175000Y-40500000D02*
X250175000Y-39355000D01*
X250175000Y-39355000D02*
X247650000Y-36830000D01*
X247650000Y-36830000D02*
X227330000Y-36830000D01*
X222630000Y-32130000D02*
X222630000Y-20700000D01*
X227330000Y-36830000D02*
X222630000Y-32130000D01*
X14675000Y-40500000D02*
X14675000Y-41345000D01*
X14675000Y-41345000D02*
X16510000Y-43180000D01*
X16510000Y-43180000D02*
X25400000Y-43180000D01*
X26675000Y-41905000D02*
X26675000Y-40500000D01*
X25400000Y-43180000D02*
X26675000Y-41905000D01*
X26675000Y-40500000D02*
X49825000Y-40500000D01*
X49825000Y-18000000D02*
X49825000Y-22500000D01*
X49825000Y-22500000D02*
X49825000Y-28235000D01*
X82825000Y-36000000D02*
X56320000Y-36000000D01*
X52365000Y-32045000D02*
X49825000Y-32045000D01*
X56320000Y-36000000D02*
X52365000Y-32045000D01*
X49825000Y-32045000D02*
X49825000Y-40500000D01*
X49825000Y-28235000D02*
X49825000Y-32045000D01*
X82825000Y-31500000D02*
X79760000Y-31500000D01*
X79760000Y-31500000D02*
X77470000Y-29210000D01*
X77470000Y-29210000D02*
X77470000Y-29210000D01*
X81665000Y-10160000D02*
X82825000Y-9000000D01*
X78740000Y-10160000D02*
X81665000Y-10160000D01*
X82825000Y-9000000D02*
X82825000Y-6075000D01*
X83820000Y-5080000D02*
X118110000Y-5080000D01*
X82825000Y-6075000D02*
X83820000Y-5080000D01*
X118110000Y-5080000D02*
X135890000Y-22860000D01*
X209550000Y-22860000D02*
X212090000Y-20320000D01*
X135890000Y-22860000D02*
X209550000Y-22860000D01*
X212090000Y-7235000D02*
X214825000Y-4500000D01*
X212090000Y-20320000D02*
X212090000Y-7235000D01*
X82825000Y-36000000D02*
X82825000Y-31500000D01*
X222630000Y-20700000D02*
X218440000Y-16510000D01*
X215900000Y-2540000D02*
X218440000Y-2540000D01*
X218440000Y-2540000D02*
X218440000Y-16510000D01*
%TO.N,Net-(D11-Pad1)*%
X214825000Y-31500000D02*
X214825000Y-31555000D01*
X214825000Y-27000000D02*
X214825000Y-31500000D01*
X85175000Y-24045000D02*
X85090000Y-24130000D01*
X85175000Y-9000000D02*
X85175000Y-24045000D01*
X85090000Y-26915000D02*
X85175000Y-27000000D01*
X85090000Y-24130000D02*
X85090000Y-26915000D01*
X90500000Y-27000000D02*
X91440000Y-27940000D01*
X85175000Y-27000000D02*
X90500000Y-27000000D01*
X91440000Y-30480000D02*
X91440000Y-38100000D01*
X91440000Y-38100000D02*
X93840000Y-40500000D01*
X214825000Y-31555000D02*
X210820000Y-35560000D01*
X210820000Y-35560000D02*
X210820000Y-35560000D01*
X254500000Y-40720000D02*
X255350000Y-40720000D01*
X255350000Y-40720000D02*
X256540000Y-41910000D01*
X256540000Y-41910000D02*
X256540000Y-41910000D01*
X53805000Y-24130000D02*
X52175000Y-22500000D01*
X81280000Y-24130000D02*
X53805000Y-24130000D01*
X113170000Y-40500000D02*
X113170000Y-37960000D01*
X93840000Y-40500000D02*
X113170000Y-40500000D01*
X113170000Y-40500000D02*
X115825000Y-40500000D01*
X113170000Y-37960000D02*
X115570000Y-35560000D01*
X115570000Y-35560000D02*
X143510000Y-35560000D01*
X143510000Y-35560000D02*
X143510000Y-35560000D01*
X184175000Y-41885000D02*
X184175000Y-40500000D01*
X182880000Y-43180000D02*
X184175000Y-41885000D01*
X143510000Y-40640000D02*
X146050000Y-43180000D01*
X148825000Y-40500000D02*
X148825000Y-42945000D01*
X148825000Y-42945000D02*
X149060000Y-43180000D01*
X149860000Y-43180000D02*
X182880000Y-43180000D01*
X146050000Y-43180000D02*
X149860000Y-43180000D01*
%TO.N,GND*%
X166500000Y-3000000D02*
X166500000Y-2410000D01*
X193499999Y-1649999D02*
X194600000Y-2750000D01*
X167260001Y-1649999D02*
X193499999Y-1649999D01*
X166500000Y-2410000D02*
X167260001Y-1649999D01*
X203280000Y-1270000D02*
X204760000Y-2750000D01*
X196080000Y-1270000D02*
X203280000Y-1270000D01*
X194600000Y-2750000D02*
X196080000Y-1270000D01*
X204760000Y-2750000D02*
X206240000Y-1270000D01*
X223580000Y-2600000D02*
X222250000Y-1270000D01*
X206240000Y-1270000D02*
X222250000Y-1270000D01*
X223580000Y-8000000D02*
X223580000Y-2600000D01*
X223580000Y-2600000D02*
X234890000Y-2600000D01*
X234890000Y-2600000D02*
X236100000Y-3810000D01*
X236100000Y-3810000D02*
X236100000Y-7500000D01*
X236100000Y-7500000D02*
X237490000Y-8890000D01*
X237490000Y-8890000D02*
X240030000Y-8890000D01*
X118175000Y-38165000D02*
X118110000Y-38100000D01*
X118175000Y-40500000D02*
X118175000Y-38165000D01*
X239949999Y-6775001D02*
X239949999Y-5700000D01*
X240030000Y-6855002D02*
X239949999Y-6775001D01*
X240030000Y-8890000D02*
X240030000Y-6855002D01*
X240030000Y-8890000D02*
X241300000Y-8890000D01*
X245330000Y-12920000D02*
X249380000Y-12920000D01*
X241300000Y-8890000D02*
X245330000Y-12920000D01*
%TO.N,+5V*%
X245110000Y-7620000D02*
X242570000Y-7620000D01*
X242570000Y-6855002D02*
X242650001Y-6775001D01*
X242650001Y-6775001D02*
X242650001Y-5700000D01*
X242570000Y-7620000D02*
X242570000Y-6855002D01*
%TO.N,Net-(J1-Pad3)*%
X171580000Y-11300000D02*
X171450000Y-11430000D01*
X171580000Y-3000000D02*
X171580000Y-11300000D01*
%TO.N,Net-(J1-Pad4)*%
X174120000Y-10030000D02*
X173990000Y-10160000D01*
X174120000Y-3000000D02*
X174120000Y-10030000D01*
%TO.N,Net-(R1-Pad1)*%
X249380000Y-18000000D02*
X240030000Y-18000000D01*
%TO.N,Net-(R2-Pad1)*%
X249380000Y-23080000D02*
X241000000Y-23080000D01*
X241000000Y-23080000D02*
X240030000Y-24050000D01*
%TO.N,Net-(R3-Pad1)*%
X249380000Y-25620000D02*
X247430000Y-25620000D01*
X247430000Y-25620000D02*
X242570000Y-30480000D01*
X240110000Y-30480000D02*
X240030000Y-30400000D01*
X242570000Y-30480000D02*
X240110000Y-30480000D01*
%TO.N,Net-(R4-Pad1)*%
X249380000Y-33240000D02*
X249380000Y-36020000D01*
X251380000Y-38020000D02*
X254500000Y-38020000D01*
X249380000Y-36020000D02*
X251380000Y-38020000D01*
%TO.N,Net-(R5-Pad1)*%
X264620000Y-33240000D02*
X264620000Y-40094990D01*
X264620000Y-40094990D02*
X264620000Y-40560000D01*
%TO.N,Net-(R6-Pad1)*%
X264620000Y-30700000D02*
X262670000Y-30700000D01*
X262670000Y-30700000D02*
X261620000Y-31750000D01*
X261620000Y-31750000D02*
X261620000Y-38100000D01*
X260430000Y-39290000D02*
X259500000Y-39290000D01*
X261620000Y-38100000D02*
X260430000Y-39290000D01*
%TO.N,Net-(RV1-Pad2)*%
X227330000Y-8000000D02*
X227330000Y-19050000D01*
X227330000Y-19050000D02*
X227330000Y-19050000D01*
%TO.N,Net-(SW1-Pad1)*%
X209260000Y-2750000D02*
X209260000Y-18760000D01*
X209260000Y-18760000D02*
X209260000Y-18760000D01*
%TO.N,Net-(SW2-Pad1)*%
X199100000Y-2750000D02*
X198120000Y-3730000D01*
X198120000Y-19050000D02*
X199390000Y-20320000D01*
X198120000Y-3730000D02*
X198120000Y-19050000D01*
%TD*%
M02*
