%TF.GenerationSoftware,KiCad,Pcbnew,(5.1.10)-1*%
%TF.CreationDate,2021-07-25T13:07:42+09:00*%
%TF.ProjectId,MHGC,4d484743-2e6b-4696-9361-645f70636258,rev?*%
%TF.SameCoordinates,Original*%
%TF.FileFunction,Paste,Top*%
%TF.FilePolarity,Positive*%
%FSLAX46Y46*%
G04 Gerber Fmt 4.6, Leading zero omitted, Abs format (unit mm)*
G04 Created by KiCad (PCBNEW (5.1.10)-1) date 2021-07-25 13:07:42*
%MOMM*%
%LPD*%
G01*
G04 APERTURE LIST*
%ADD10R,0.400000X1.350000*%
%ADD11R,0.850000X1.600000*%
%ADD12R,1.600000X0.500000*%
G04 APERTURE END LIST*
D10*
%TO.C,J2*%
X240000000Y-5700000D03*
X242600000Y-5700000D03*
%TD*%
D11*
%TO.C,D14*%
X148825000Y-31500000D03*
X151175000Y-31500000D03*
%TD*%
%TO.C,D11*%
X181825000Y-40500000D03*
X184175000Y-40500000D03*
%TD*%
%TO.C,D1*%
X217175000Y-40500000D03*
X214825000Y-40500000D03*
%TD*%
%TO.C,D2*%
X214825000Y-36000000D03*
X217175000Y-36000000D03*
%TD*%
%TO.C,D3*%
X217175000Y-31500000D03*
X214825000Y-31500000D03*
%TD*%
%TO.C,D4*%
X214825000Y-27000000D03*
X217175000Y-27000000D03*
%TD*%
%TO.C,D5*%
X217175000Y-22500000D03*
X214825000Y-22500000D03*
%TD*%
%TO.C,D6*%
X214825000Y-18000000D03*
X217175000Y-18000000D03*
%TD*%
%TO.C,D7*%
X217175000Y-13500000D03*
X214825000Y-13500000D03*
%TD*%
%TO.C,D8*%
X214825000Y-9000000D03*
X217175000Y-9000000D03*
%TD*%
%TO.C,D9*%
X217175000Y-4500000D03*
X214825000Y-4500000D03*
%TD*%
%TO.C,D10*%
X250175000Y-40500000D03*
X247825000Y-40500000D03*
%TD*%
%TO.C,D12*%
X148825000Y-40500000D03*
X151175000Y-40500000D03*
%TD*%
%TO.C,D13*%
X151175000Y-36000000D03*
X148825000Y-36000000D03*
%TD*%
%TO.C,D15*%
X151175000Y-27000000D03*
X148825000Y-27000000D03*
%TD*%
%TO.C,D16*%
X82825000Y-40500000D03*
X85175000Y-40500000D03*
%TD*%
%TO.C,D17*%
X85175000Y-36000000D03*
X82825000Y-36000000D03*
%TD*%
%TO.C,D18*%
X82825000Y-31500000D03*
X85175000Y-31500000D03*
%TD*%
%TO.C,D19*%
X85175000Y-27000000D03*
X82825000Y-27000000D03*
%TD*%
%TO.C,D20*%
X82825000Y-22500000D03*
X85175000Y-22500000D03*
%TD*%
%TO.C,D21*%
X85175000Y-18000000D03*
X82825000Y-18000000D03*
%TD*%
%TO.C,D22*%
X82825000Y-13500000D03*
X85175000Y-13500000D03*
%TD*%
%TO.C,D23*%
X85175000Y-9000000D03*
X82825000Y-9000000D03*
%TD*%
%TO.C,D24*%
X49825000Y-22500000D03*
X52175000Y-22500000D03*
%TD*%
%TO.C,D25*%
X49825000Y-9000000D03*
X52175000Y-9000000D03*
%TD*%
%TO.C,D26*%
X52175000Y-13500000D03*
X49825000Y-13500000D03*
%TD*%
%TO.C,D27*%
X49825000Y-18000000D03*
X52175000Y-18000000D03*
%TD*%
%TO.C,D28*%
X12325000Y-40500000D03*
X14675000Y-40500000D03*
%TD*%
%TO.C,D29*%
X26675000Y-40500000D03*
X24325000Y-40500000D03*
%TD*%
%TO.C,D30*%
X52175000Y-40500000D03*
X49825000Y-40500000D03*
%TD*%
%TO.C,D31*%
X115825000Y-40500000D03*
X118175000Y-40500000D03*
%TD*%
D12*
%TO.C,R1*%
X240030000Y-20700000D03*
X240030000Y-18000000D03*
%TD*%
%TO.C,R2*%
X240030000Y-26750000D03*
X240030000Y-24050000D03*
%TD*%
%TO.C,R3*%
X240030000Y-33100000D03*
X240030000Y-30400000D03*
%TD*%
%TO.C,R4*%
X254500000Y-40720000D03*
X254500000Y-38020000D03*
%TD*%
%TO.C,R5*%
X264620000Y-43260000D03*
X264620000Y-40560000D03*
%TD*%
%TO.C,R6*%
X259500000Y-41990000D03*
X259500000Y-39290000D03*
%TD*%
M02*
