M48
; DRILL file {KiCad (5.1.10)-1} date 07/25/21 13:07:53
; FORMAT={-:-/ absolute / metric / decimal}
; #@! TF.CreationDate,2021-07-25T13:07:53+09:00
; #@! TF.GenerationSoftware,Kicad,Pcbnew,(5.1.10)-1
; #@! TF.FileFunction,Plated,1,2,PTH
FMAT,2
METRIC
T1C0.400
T2C0.500
T3C0.550
T4C0.800
T5C1.000
T6C1.016
T7C1.050
T8C1.350
T9C1.800
%
G90
G05
T1
X46.99Y-35.56
X52.175Y-35.665
X77.47Y-29.21
X78.74Y-10.16
X80.15Y-40.5
X81.28Y-24.13
X82.55Y-20.32
X85.09Y-24.13
X86.36Y-20.32
X91.44Y-27.94
X91.44Y-30.48
X94.92Y-27.0
X118.11Y-38.1
X143.51Y-35.56
X143.51Y-40.64
X145.72Y-27.0
X148.59Y-29.21
X153.67Y-29.21
X171.45Y-11.43
X173.99Y-10.16
X199.39Y-20.32
X209.26Y-18.76
X210.82Y-35.56
X212.09Y-24.13
X213.36Y-15.24
X224.87Y-26.75
X226.06Y-33.02
X227.33Y-19.05
X245.11Y-7.62
X256.54Y-41.91
T4
X223.58Y-8.0
X227.33Y-8.0
X231.08Y-8.0
T5
X166.5Y-3.0
X169.04Y-3.0
X171.58Y-3.0
X174.12Y-3.0
T6
X249.38Y-5.3
X249.38Y-7.84
X249.38Y-10.38
X249.38Y-12.92
X249.38Y-15.46
X249.38Y-18.0
X249.38Y-20.54
X249.38Y-23.08
X249.38Y-25.62
X249.38Y-28.16
X249.38Y-30.7
X249.38Y-33.24
X250.65Y-2.76
X253.19Y-2.76
X255.73Y-2.76
X258.27Y-2.76
X260.81Y-2.76
X261.699Y-14.063
X261.699Y-16.603
X261.699Y-24.477
X261.699Y-27.017
X263.35Y-2.76
X264.62Y-5.3
X264.62Y-7.84
X264.62Y-10.38
X264.62Y-12.92
X264.62Y-15.46
X264.62Y-18.0
X264.62Y-20.54
X264.62Y-23.08
X264.62Y-25.62
X264.62Y-28.16
X264.62Y-30.7
X264.62Y-33.24
T7
X194.6Y-2.75
X199.1Y-2.75
X204.76Y-2.75
X209.26Y-2.75
T8
X193.35Y-5.25
X200.35Y-5.25
X203.51Y-5.25
X210.51Y-5.25
T2
G00X237.8Y-3.35
M15
G01X237.8Y-2.65
M16
G05
G00X244.8Y-3.35
M15
G01X244.8Y-2.65
M16
G05
T3
G00X238.95Y-5.7
M15
G01X238.65Y-5.7
M16
G05
G00X243.95Y-5.7
M15
G01X243.65Y-5.7
M16
G05
T9
G00X221.03Y-5.5
M15
G01X221.03Y-4.5
M16
G05
G00X233.63Y-5.5
M15
G01X233.63Y-4.5
M16
G05
T0
M30
