%TF.GenerationSoftware,KiCad,Pcbnew,(5.1.10)-1*%
%TF.CreationDate,2021-07-25T13:07:42+09:00*%
%TF.ProjectId,MHGC,4d484743-2e6b-4696-9361-645f70636258,rev?*%
%TF.SameCoordinates,Original*%
%TF.FileFunction,Copper,L2,Bot*%
%TF.FilePolarity,Positive*%
%FSLAX46Y46*%
G04 Gerber Fmt 4.6, Leading zero omitted, Abs format (unit mm)*
G04 Created by KiCad (PCBNEW (5.1.10)-1) date 2021-07-25 13:07:42*
%MOMM*%
%LPD*%
G01*
G04 APERTURE LIST*
%TA.AperFunction,ComponentPad*%
%ADD10O,0.900000X1.600000*%
%TD*%
%TA.AperFunction,ComponentPad*%
%ADD11O,1.250000X0.950000*%
%TD*%
%TA.AperFunction,ComponentPad*%
%ADD12C,1.879600*%
%TD*%
%TA.AperFunction,ComponentPad*%
%ADD13R,2.000000X3.000000*%
%TD*%
%TA.AperFunction,ComponentPad*%
%ADD14C,1.000000*%
%TD*%
%TA.AperFunction,ComponentPad*%
%ADD15O,1.700000X1.700000*%
%TD*%
%TA.AperFunction,ComponentPad*%
%ADD16R,1.700000X1.700000*%
%TD*%
%TA.AperFunction,ComponentPad*%
%ADD17C,1.500000*%
%TD*%
%TA.AperFunction,ComponentPad*%
%ADD18C,1.200000*%
%TD*%
%TA.AperFunction,ViaPad*%
%ADD19C,0.800000*%
%TD*%
%TA.AperFunction,Conductor*%
%ADD20C,0.400000*%
%TD*%
G04 APERTURE END LIST*
D10*
%TO.P,J2,*%
%TO.N,*%
X237800000Y-3000000D03*
X244800000Y-3000000D03*
D11*
X238800000Y-5700000D03*
X243800000Y-5700000D03*
%TD*%
D12*
%TO.P,U1,JP1_1*%
%TO.N,Net-(U1-PadJP1_1)*%
X263350000Y-2760000D03*
%TO.P,U1,JP1_2*%
%TO.N,Net-(U1-PadJP1_2)*%
X260810000Y-2760000D03*
%TO.P,U1,JP1_3*%
%TO.N,Net-(U1-PadJP1_3)*%
X258270000Y-2760000D03*
%TO.P,U1,JP1_4*%
%TO.N,+5V*%
X255730000Y-2760000D03*
%TO.P,U1,JP1_5*%
%TO.N,GND*%
X253190000Y-2760000D03*
%TO.P,U1,JP1_6*%
X250650000Y-2760000D03*
%TO.P,U1,JP2_1*%
%TO.N,Net-(J1-Pad3)*%
X261699000Y-16603000D03*
%TO.P,U1,JP2_2*%
%TO.N,Net-(J1-Pad4)*%
X261699000Y-14063000D03*
%TO.P,U1,JP3_2*%
%TO.N,Net-(U1-PadJP3_2)*%
X261699000Y-24477000D03*
%TO.P,U1,JP3_1*%
%TO.N,Net-(U1-PadJP3_1)*%
X261699000Y-27017000D03*
%TO.P,U1,JP6_1*%
%TO.N,Net-(U1-PadJP6_1)*%
X264620000Y-5300000D03*
%TO.P,U1,JP6_2*%
%TO.N,GND*%
X264620000Y-7840000D03*
%TO.P,U1,JP6_3*%
%TO.N,Net-(U1-PadJP6_3)*%
X264620000Y-10380000D03*
%TO.P,U1,JP6_4*%
%TO.N,+5V*%
X264620000Y-12920000D03*
%TO.P,U1,JP6_5*%
%TO.N,Net-(U1-PadJP6_5)*%
X264620000Y-15460000D03*
%TO.P,U1,JP6_6*%
%TO.N,Net-(U1-PadJP6_6)*%
X264620000Y-18000000D03*
%TO.P,U1,JP6_7*%
%TO.N,Net-(U1-PadJP6_7)*%
X264620000Y-20540000D03*
%TO.P,U1,JP6_8*%
%TO.N,Net-(RV1-Pad2)*%
X264620000Y-23080000D03*
%TO.P,U1,JP6_9*%
%TO.N,Net-(SW2-Pad1)*%
X264620000Y-25620000D03*
%TO.P,U1,JP6_10*%
%TO.N,Net-(SW1-Pad1)*%
X264620000Y-28160000D03*
%TO.P,U1,JP6_11*%
%TO.N,Net-(R6-Pad1)*%
X264620000Y-30700000D03*
%TO.P,U1,JP6_12*%
%TO.N,Net-(R5-Pad1)*%
X264620000Y-33240000D03*
%TO.P,U1,JP7_1*%
%TO.N,Net-(R4-Pad1)*%
X249380000Y-33240000D03*
%TO.P,U1,JP7_2*%
%TO.N,Net-(U1-PadJP7_2)*%
X249380000Y-30700000D03*
%TO.P,U1,JP7_3*%
%TO.N,Net-(U1-PadJP7_3)*%
X249380000Y-28160000D03*
%TO.P,U1,JP7_4*%
%TO.N,Net-(R3-Pad1)*%
X249380000Y-25620000D03*
%TO.P,U1,JP7_5*%
%TO.N,Net-(R2-Pad1)*%
X249380000Y-23080000D03*
%TO.P,U1,JP7_6*%
%TO.N,Net-(U1-PadJP7_6)*%
X249380000Y-20540000D03*
%TO.P,U1,JP7_7*%
%TO.N,Net-(R1-Pad1)*%
X249380000Y-18000000D03*
%TO.P,U1,JP7_8*%
%TO.N,Net-(U1-PadJP7_8)*%
X249380000Y-15460000D03*
%TO.P,U1,JP7_9*%
%TO.N,GND*%
X249380000Y-12920000D03*
%TO.P,U1,JP7_10*%
%TO.N,Net-(U1-PadJP7_10)*%
X249380000Y-10380000D03*
%TO.P,U1,JP7_11*%
%TO.N,Net-(U1-PadJP7_11)*%
X249380000Y-7840000D03*
%TO.P,U1,JP7_12*%
%TO.N,Net-(U1-PadJP7_12)*%
X249380000Y-5300000D03*
%TD*%
D13*
%TO.P,RV1,*%
%TO.N,*%
X221030000Y-5000000D03*
X233630000Y-5000000D03*
D14*
%TO.P,RV1,3*%
%TO.N,GND*%
X223580000Y-8000000D03*
%TO.P,RV1,2*%
%TO.N,Net-(RV1-Pad2)*%
X227330000Y-8000000D03*
%TO.P,RV1,1*%
%TO.N,+5V*%
X231080000Y-8000000D03*
%TD*%
D15*
%TO.P,J1,4*%
%TO.N,Net-(J1-Pad4)*%
X174120000Y-3000000D03*
%TO.P,J1,3*%
%TO.N,Net-(J1-Pad3)*%
X171580000Y-3000000D03*
%TO.P,J1,2*%
%TO.N,+5V*%
X169040000Y-3000000D03*
D16*
%TO.P,J1,1*%
%TO.N,GND*%
X166500000Y-3000000D03*
%TD*%
D17*
%TO.P,SW1,*%
%TO.N,*%
X203510000Y-5250000D03*
X210510000Y-5250000D03*
D18*
%TO.P,SW1,2*%
%TO.N,GND*%
X204760000Y-2750000D03*
%TO.P,SW1,1*%
%TO.N,Net-(SW1-Pad1)*%
X209260000Y-2750000D03*
%TD*%
D17*
%TO.P,SW2,*%
%TO.N,*%
X193350000Y-5250000D03*
X200350000Y-5250000D03*
D18*
%TO.P,SW2,2*%
%TO.N,GND*%
X194600000Y-2750000D03*
%TO.P,SW2,1*%
%TO.N,Net-(SW2-Pad1)*%
X199100000Y-2750000D03*
%TD*%
D19*
%TO.N,Net-(D13-Pad1)*%
X148590000Y-29210000D03*
X153670000Y-29210000D03*
X226060000Y-33020000D03*
X212090000Y-24130000D03*
%TO.N,Net-(D15-Pad1)*%
X46990000Y-35560000D03*
X213360000Y-15240000D03*
X82550000Y-20320000D03*
X86360000Y-20320000D03*
X145720000Y-27000000D03*
X224870000Y-26750000D03*
X52175000Y-35665000D03*
X80150000Y-40500000D03*
X94920000Y-27000000D03*
%TO.N,Net-(D10-Pad2)*%
X77470000Y-29210000D03*
X78740000Y-10160000D03*
%TO.N,Net-(D11-Pad1)*%
X85090000Y-24130000D03*
X81280000Y-24130000D03*
X91440000Y-27940000D03*
X91440000Y-30480000D03*
X210820000Y-35560000D03*
X256540000Y-41910000D03*
X143510000Y-35560000D03*
X143510000Y-40640000D03*
%TO.N,GND*%
X118110000Y-38100000D03*
%TO.N,+5V*%
X245110000Y-7620000D03*
%TO.N,Net-(J1-Pad3)*%
X171450000Y-11430000D03*
%TO.N,Net-(J1-Pad4)*%
X173990000Y-10160000D03*
%TO.N,Net-(RV1-Pad2)*%
X227330000Y-19050000D03*
%TO.N,Net-(SW1-Pad1)*%
X209260000Y-18760000D03*
%TO.N,Net-(SW2-Pad1)*%
X199390000Y-20320000D03*
%TD*%
D20*
%TO.N,Net-(D13-Pad1)*%
X153670000Y-29210000D02*
X148590000Y-29210000D01*
X226060000Y-33020000D02*
X226060000Y-33020000D01*
X212090000Y-27940000D02*
X217170000Y-33020000D01*
X217170000Y-33020000D02*
X226060000Y-33020000D01*
X212090000Y-24130000D02*
X212090000Y-27940000D01*
%TO.N,Net-(D15-Pad1)*%
X145720000Y-25730000D02*
X154940000Y-16510000D01*
X145720000Y-27000000D02*
X145720000Y-25730000D01*
X224870000Y-26750000D02*
X213360000Y-15240000D01*
X154940000Y-16510000D02*
X214630000Y-16510000D01*
X82550000Y-20320000D02*
X86360000Y-20320000D01*
X47095000Y-35665000D02*
X46990000Y-35560000D01*
X52175000Y-35665000D02*
X47095000Y-35665000D01*
X94920000Y-27000000D02*
X94920000Y-40970000D01*
X94920000Y-40970000D02*
X93980000Y-41910000D01*
X81560000Y-41910000D02*
X80150000Y-40500000D01*
X93980000Y-41910000D02*
X81560000Y-41910000D01*
%TO.N,Net-(D10-Pad2)*%
X77470000Y-29210000D02*
X77470000Y-11430000D01*
X77470000Y-11430000D02*
X78740000Y-10160000D01*
X78740000Y-10160000D02*
X78740000Y-10160000D01*
%TO.N,Net-(D11-Pad1)*%
X256540000Y-41910000D02*
X255270000Y-43180000D01*
X81280000Y-24130000D02*
X85090000Y-24130000D01*
X91440000Y-27940000D02*
X91440000Y-30480000D01*
X143510000Y-35560000D02*
X143510000Y-40640000D01*
X143510000Y-40640000D02*
X143510000Y-40640000D01*
X214630000Y-43180000D02*
X210820000Y-39370000D01*
X255270000Y-43180000D02*
X214630000Y-43180000D01*
X210820000Y-35560000D02*
X210820000Y-39370000D01*
X210820000Y-35560000D02*
X143510000Y-35560000D01*
%TO.N,GND*%
X153210000Y-3000000D02*
X118110000Y-38100000D01*
X166500000Y-3000000D02*
X153210000Y-3000000D01*
%TO.N,+5V*%
X244730000Y-8000000D02*
X231080000Y-8000000D01*
X171560001Y-9000001D02*
X221090001Y-9000001D01*
X221090001Y-9000001D02*
X222250000Y-10160000D01*
X169040000Y-6480000D02*
X171560001Y-9000001D01*
X169040000Y-3000000D02*
X169040000Y-6480000D01*
X245110000Y-7620000D02*
X245110000Y-7620000D01*
X245110000Y-7620000D02*
X245110000Y-7620000D01*
X245110000Y-7620000D02*
X245110000Y-7620000D01*
X245110000Y-7620000D02*
X244730000Y-8000000D01*
X228920000Y-10160000D02*
X228600000Y-10160000D01*
X231080000Y-8000000D02*
X228920000Y-10160000D01*
X222250000Y-10160000D02*
X228600000Y-10160000D01*
X245110000Y-7620000D02*
X246380000Y-6350000D01*
X246380000Y-6350000D02*
X246380000Y-2540000D01*
X246380000Y-2540000D02*
X247650000Y-1270000D01*
X247650000Y-1270000D02*
X255270000Y-1270000D01*
X255270000Y-2300000D02*
X255730000Y-2760000D01*
X255270000Y-1270000D02*
X255270000Y-2300000D01*
X255730000Y-2760000D02*
X255730000Y-6810000D01*
X255730000Y-6810000D02*
X260350000Y-11430000D01*
X263130000Y-11430000D02*
X264620000Y-12920000D01*
X260350000Y-11430000D02*
X263130000Y-11430000D01*
%TO.N,Net-(J1-Pad3)*%
X261699000Y-16603000D02*
X257810000Y-20492000D01*
X257810000Y-20492000D02*
X257810000Y-33020000D01*
X257810000Y-33020000D02*
X254000000Y-36830000D01*
X174359999Y-14339999D02*
X171450000Y-11430000D01*
X226429999Y-14339999D02*
X174359999Y-14339999D01*
X231140000Y-19050000D02*
X226429999Y-14339999D01*
X254000000Y-36830000D02*
X233680000Y-36830000D01*
X233680000Y-36830000D02*
X231140000Y-34290000D01*
X231140000Y-34290000D02*
X231140000Y-19050000D01*
%TO.N,Net-(J1-Pad4)*%
X261699000Y-14063000D02*
X258987000Y-14063000D01*
X258987000Y-14063000D02*
X254000000Y-19050000D01*
X254000000Y-19050000D02*
X254000000Y-33020000D01*
X254000000Y-33020000D02*
X251460000Y-35560000D01*
X251460000Y-35560000D02*
X237490000Y-35560000D01*
X237490000Y-35560000D02*
X233680000Y-31750000D01*
X233680000Y-31750000D02*
X233680000Y-17780000D01*
X233680000Y-17780000D02*
X228600000Y-12700000D01*
X176530000Y-12700000D02*
X173990000Y-10160000D01*
X228600000Y-12700000D02*
X176530000Y-12700000D01*
%TO.N,Net-(RV1-Pad2)*%
X263130000Y-21590000D02*
X264620000Y-23080000D01*
X259080000Y-22860000D02*
X260350000Y-21590000D01*
X259080000Y-35560000D02*
X259080000Y-22860000D01*
X256540000Y-38100000D02*
X259080000Y-35560000D01*
X229870000Y-38100000D02*
X256540000Y-38100000D01*
X227330000Y-35560000D02*
X229870000Y-38100000D01*
X260350000Y-21590000D02*
X263130000Y-21590000D01*
X227330000Y-19050000D02*
X227330000Y-35560000D01*
%TO.N,Net-(SW1-Pad1)*%
X209260000Y-27650000D02*
X209260000Y-18760000D01*
X264620000Y-28160000D02*
X262890000Y-29890000D01*
X262890000Y-29890000D02*
X262890000Y-38100000D01*
X262890000Y-38100000D02*
X261620000Y-39370000D01*
X220980000Y-39370000D02*
X209260000Y-27650000D01*
X261620000Y-39370000D02*
X220980000Y-39370000D01*
%TO.N,Net-(SW2-Pad1)*%
X264620000Y-25620000D02*
X266474990Y-27474990D01*
X199390000Y-20320000D02*
X199390000Y-20320000D01*
X266474990Y-27474990D02*
X266474990Y-39595010D01*
X266474990Y-39595010D02*
X265430000Y-40640000D01*
X265430000Y-40640000D02*
X219710000Y-40640000D01*
X219710000Y-40640000D02*
X199390000Y-20320000D01*
%TD*%
M02*
