0
SECTION
2
HEADER
9
$INSUNITS
70
4
9
$ACADVER
1
AC1014
9
$HANDSEED
5
FFFF
0
ENDSEC
0
SECTION
2
TABLES
0
TABLE
2
VPORT
5
8
100
AcDbSymbolTable
0
ENDTAB
0
TABLE
2
LTYPE
5
5
100
AcDbSymbolTable
0
LTYPE
5
14
100
AcDbSymbolTableRecord
100
AcDbLinetypeTableRecord
2
BYBLOCK
70
0
0
LTYPE
5
15
100
AcDbSymbolTableRecord
100
AcDbLinetypeTableRecord
2
BYLAYER
70
0
0
ENDTAB
0
TABLE
2
LAYER
5
2
100
AcDbSymbolTable
70
2
0
LAYER
5
50
100
AcDbSymbolTableRecord
100
AcDbLayerTableRecord
2
0
70
0
6
CONTINUOUS
0
ENDTAB
0
TABLE
2
STYLE
5
3
100
AcDbSymbolTable
70
1
0
STYLE
5
11
100
AcDbSymbolTableRecord
100
AcDbTextStyleTableRecord
2
STANDARD
70
0
0
ENDTAB
0
TABLE
2
VIEW
5
6
100
AcDbSymbolTable
70
0
0
ENDTAB
0
TABLE
2
UCS
5
7
100
AcDbSymbolTable
70
0
0
ENDTAB
0
TABLE
2
APPID
5
9
100
AcDbSymbolTable
70
2
0
APPID
5
12
100
AcDbSymbolTableRecord
100
AcDbRegAppTableRecord
2
ACAD
70
0
0
ENDTAB
0
TABLE
2
DIMSTYLE
5
A
100
AcDbSymbolTable
70
1
0
ENDTAB
0
TABLE
2
BLOCK_RECORD
5
1
100
AcDbSymbolTable
70
1
0
BLOCK_RECORD
5
1F
100
AcDbSymbolTableRecord
100
AcDbBlockTableRecord
2
*MODEL_SPACE
0
BLOCK_RECORD
5
1B
100
AcDbSymbolTableRecord
100
AcDbBlockTableRecord
2
*PAPER_SPACE
0
ENDTAB
0
ENDSEC
0
SECTION
2
BLOCKS
0
BLOCK
5
20
100
AcDbEntity
100
AcDbBlockBegin
2
*MODEL_SPACE
0
ENDBLK
5
21
100
AcDbEntity
100
AcDbBlockEnd
0
BLOCK
5
1C
100
AcDbEntity
100
AcDbBlockBegin
2
*PAPER_SPACE
0
ENDBLK
5
1D
100
AcDbEntity
100
AcDbBlockEnd
0
ENDSEC
0
SECTION
2
ENTITIES
0
LINE
5
100
100
AcDbEntity
8
0
100
AcDbLine
10
0
20
0
30
0
11
30.100000000000001
21
3.6861868654335325e-15
31
0
0
LINE
5
101
100
AcDbEntity
8
0
100
AcDbLine
10
30.100000000000001
20
3.6861868654335325e-15
30
0
11
30.100000000000001
21
-2.9999999999999964
31
0
0
LINE
5
102
100
AcDbEntity
8
0
100
AcDbLine
10
30.100000000000001
20
-2.9999999999999964
30
0
11
60.099999999999994
21
-2.9999999999999933
31
0
0
LINE
5
103
100
AcDbEntity
8
0
100
AcDbLine
10
60.099999999999994
20
-2.9999999999999933
30
0
11
60.099999999999994
21
7.2164496600635175e-15
31
0
0
LINE
5
104
100
AcDbEntity
8
0
100
AcDbLine
10
60.099999999999994
20
7.2164496600635175e-15
30
0
11
90.099999999999994
21
1.0890390057505578e-14
31
0
0
LINE
5
105
100
AcDbEntity
8
0
100
AcDbLine
10
90.099999999999994
20
1.0890390057505578e-14
30
0
11
90.099999999999994
21
-2.9999999999999893
31
0
0
LINE
5
106
100
AcDbEntity
8
0
100
AcDbLine
10
90.099999999999994
20
-2.9999999999999893
30
0
11
120.09999999999999
21
-2.9999999999999858
31
0
0
LINE
5
107
100
AcDbEntity
8
0
100
AcDbLine
10
120.09999999999999
20
-2.9999999999999858
30
0
11
120.09999999999999
21
0
31
0
0
LINE
5
108
100
AcDbEntity
8
0
100
AcDbLine
10
267.20000000000005
20
-2.7555981894874404e-14
30
0
11
237.10000000000002
21
-2.3869795029440866e-14
31
0
0
LINE
5
109
100
AcDbEntity
8
0
100
AcDbLine
10
237.10000000000002
20
-2.3869795029440866e-14
30
0
11
237.10000000000002
21
-3.000000000000024
31
0
0
LINE
5
110
100
AcDbEntity
8
0
100
AcDbLine
10
237.10000000000002
20
-3.000000000000024
30
0
11
207.10000000000002
21
-3.00000000000002
31
0
0
LINE
5
111
100
AcDbEntity
8
0
100
AcDbLine
10
207.10000000000002
20
-3.00000000000002
30
0
11
207.10000000000002
21
-1.9217062742194252e-14
31
0
0
LINE
5
112
100
AcDbEntity
8
0
100
AcDbLine
10
207.10000000000002
20
-1.9217062742194252e-14
30
0
11
177.10000000000002
21
-1.5543122344752192e-14
31
0
0
LINE
5
113
100
AcDbEntity
8
0
100
AcDbLine
10
177.10000000000002
20
-1.5543122344752192e-14
30
0
11
177.10000000000002
21
-3.000000000000016
31
0
0
LINE
5
114
100
AcDbEntity
8
0
100
AcDbLine
10
177.10000000000002
20
-3.000000000000016
30
0
11
147.10000000000002
21
-3.0000000000000124
31
0
0
LINE
5
115
100
AcDbEntity
8
0
100
AcDbLine
10
147.10000000000002
20
-3.0000000000000124
30
0
11
147.10000000000002
21
-4.9598195365467806e-15
31
0
0
LINE
5
116
100
AcDbEntity
8
0
100
AcDbLine
10
147.10000000000002
20
-4.9598195365467806e-15
30
0
11
120.09999999999999
21
0
31
0
0
LINE
5
117
100
AcDbEntity
8
0
100
AcDbLine
10
267.20000000000005
20
-2.7555981894874404e-14
30
0
11
267.20000000000005
21
10.099999999999973
31
0
0
LINE
5
118
100
AcDbEntity
8
0
100
AcDbLine
10
267.20000000000005
20
10.099999999999973
30
0
11
270.20000000000005
21
10.099999999999973
31
0
0
LINE
5
119
100
AcDbEntity
8
0
100
AcDbLine
10
270.20000000000005
20
10.099999999999973
30
0
11
270.20000000000005
21
20.099999999999998
31
0
0
LINE
5
120
100
AcDbEntity
8
0
100
AcDbLine
10
270.20000000000005
20
20.099999999999998
30
0
11
267.20000000000005
21
20.099999999999998
31
0
0
LINE
5
121
100
AcDbEntity
8
0
100
AcDbLine
10
267.20000000000005
20
45.200000000000003
30
0
11
267.20000000000005
21
35.100000000000009
31
0
0
LINE
5
122
100
AcDbEntity
8
0
100
AcDbLine
10
267.20000000000005
20
35.100000000000009
30
0
11
270.20000000000005
21
35.100000000000009
31
0
0
LINE
5
123
100
AcDbEntity
8
0
100
AcDbLine
10
270.20000000000005
20
35.100000000000009
30
0
11
270.20000000000005
21
25.099999999999998
31
0
0
LINE
5
124
100
AcDbEntity
8
0
100
AcDbLine
10
270.20000000000005
20
25.099999999999998
30
0
11
267.20000000000005
21
25.099999999999998
31
0
0
LINE
5
125
100
AcDbEntity
8
0
100
AcDbLine
10
267.20000000000005
20
25.099999999999998
30
0
11
267.20000000000005
21
20.099999999999998
31
0
0
LINE
5
126
100
AcDbEntity
8
0
100
AcDbLine
10
267.20000000000005
20
45.200000000000003
30
0
11
237.10000000000002
21
45.199999999999996
31
0
0
LINE
5
127
100
AcDbEntity
8
0
100
AcDbLine
10
237.10000000000002
20
45.199999999999996
30
0
11
237.10000000000002
21
48.199999999999996
31
0
0
LINE
5
128
100
AcDbEntity
8
0
100
AcDbLine
10
237.10000000000002
20
48.199999999999996
30
0
11
207.10000000000002
21
48.199999999999989
31
0
0
LINE
5
129
100
AcDbEntity
8
0
100
AcDbLine
10
207.10000000000002
20
48.199999999999989
30
0
11
207.10000000000002
21
45.199999999999989
31
0
0
LINE
5
130
100
AcDbEntity
8
0
100
AcDbLine
10
207.10000000000002
20
45.199999999999989
30
0
11
177.10000000000002
21
45.199999999999974
31
0
0
LINE
5
131
100
AcDbEntity
8
0
100
AcDbLine
10
177.10000000000002
20
45.199999999999974
30
0
11
177.10000000000002
21
48.199999999999974
31
0
0
LINE
5
132
100
AcDbEntity
8
0
100
AcDbLine
10
177.10000000000002
20
48.199999999999974
30
0
11
147.09999999999999
21
48.199999999999974
31
0
0
LINE
5
133
100
AcDbEntity
8
0
100
AcDbLine
10
147.09999999999999
20
48.199999999999974
30
0
11
147.09999999999999
21
45.199999999999996
31
0
0
LINE
5
134
100
AcDbEntity
8
0
100
AcDbLine
10
0
20
45.199999999999996
30
0
11
30.100000000000001
21
45.199999999999996
31
0
0
LINE
5
135
100
AcDbEntity
8
0
100
AcDbLine
10
30.100000000000001
20
45.199999999999996
30
0
11
30.100000000000001
21
48.199999999999996
31
0
0
LINE
5
136
100
AcDbEntity
8
0
100
AcDbLine
10
30.100000000000001
20
48.199999999999996
30
0
11
60.099999999999994
21
48.199999999999996
31
0
0
LINE
5
137
100
AcDbEntity
8
0
100
AcDbLine
10
60.099999999999994
20
48.199999999999996
30
0
11
60.099999999999994
21
45.199999999999996
31
0
0
LINE
5
138
100
AcDbEntity
8
0
100
AcDbLine
10
60.099999999999994
20
45.199999999999996
30
0
11
90.099999999999994
21
45.199999999999996
31
0
0
LINE
5
139
100
AcDbEntity
8
0
100
AcDbLine
10
90.099999999999994
20
45.199999999999996
30
0
11
90.099999999999994
21
48.199999999999996
31
0
0
LINE
5
140
100
AcDbEntity
8
0
100
AcDbLine
10
90.099999999999994
20
48.199999999999996
30
0
11
120.09999999999999
21
48.199999999999996
31
0
0
LINE
5
141
100
AcDbEntity
8
0
100
AcDbLine
10
120.09999999999999
20
48.199999999999996
30
0
11
120.09999999999999
21
45.199999999999996
31
0
0
LINE
5
142
100
AcDbEntity
8
0
100
AcDbLine
10
120.09999999999999
20
45.199999999999996
30
0
11
147.09999999999999
21
45.199999999999996
31
0
0
LINE
5
143
100
AcDbEntity
8
0
100
AcDbLine
10
0
20
0
30
0
11
0
21
10.1
31
0
0
LINE
5
144
100
AcDbEntity
8
0
100
AcDbLine
10
0
20
10.1
30
0
11
-3.0000000000000004
21
10.099999999999998
31
0
0
LINE
5
145
100
AcDbEntity
8
0
100
AcDbLine
10
-3.0000000000000004
20
10.099999999999998
30
0
11
-3.0000000000000004
21
20.099999999999998
31
0
0
LINE
5
146
100
AcDbEntity
8
0
100
AcDbLine
10
-3.0000000000000004
20
20.099999999999998
30
0
11
0
21
20.099999999999998
31
0
0
LINE
5
147
100
AcDbEntity
8
0
100
AcDbLine
10
0
20
45.199999999999996
30
0
11
0
21
35.099999999999994
31
0
0
LINE
5
148
100
AcDbEntity
8
0
100
AcDbLine
10
0
20
35.099999999999994
30
0
11
-3.0000000000000004
21
35.099999999999994
31
0
0
LINE
5
149
100
AcDbEntity
8
0
100
AcDbLine
10
-3.0000000000000004
20
35.099999999999994
30
0
11
-3.0000000000000004
21
25.099999999999998
31
0
0
LINE
5
150
100
AcDbEntity
8
0
100
AcDbLine
10
-3.0000000000000004
20
25.099999999999998
30
0
11
0
21
25.099999999999998
31
0
0
LINE
5
151
100
AcDbEntity
8
0
100
AcDbLine
10
0
20
25.099999999999998
30
0
11
0
21
20.099999999999998
31
0
0
ENDSEC
0
SECTION
2
OBJECTS
0
DICTIONARY
5
C
100
AcDbDictionary
3
ACAD_GROUP
350
D
3
ACAD_MLINESTYLE
350
17
0
DICTIONARY
5
D
100
AcDbDictionary
0
DICTIONARY
5
1A
330
C
100
AcDbDictionary
0
DICTIONARY
5
17
100
AcDbDictionary
0
ENDSEC
0
EOF
