0
SECTION
2
HEADER
9
$INSUNITS
70
4
9
$ACADVER
1
AC1014
9
$HANDSEED
5
FFFF
0
ENDSEC
0
SECTION
2
TABLES
0
TABLE
2
VPORT
5
8
100
AcDbSymbolTable
0
ENDTAB
0
TABLE
2
LTYPE
5
5
100
AcDbSymbolTable
0
LTYPE
5
14
100
AcDbSymbolTableRecord
100
AcDbLinetypeTableRecord
2
BYBLOCK
70
0
0
LTYPE
5
15
100
AcDbSymbolTableRecord
100
AcDbLinetypeTableRecord
2
BYLAYER
70
0
0
ENDTAB
0
TABLE
2
LAYER
5
2
100
AcDbSymbolTable
70
2
0
LAYER
5
50
100
AcDbSymbolTableRecord
100
AcDbLayerTableRecord
2
0
70
0
6
CONTINUOUS
0
ENDTAB
0
TABLE
2
STYLE
5
3
100
AcDbSymbolTable
70
1
0
STYLE
5
11
100
AcDbSymbolTableRecord
100
AcDbTextStyleTableRecord
2
STANDARD
70
0
0
ENDTAB
0
TABLE
2
VIEW
5
6
100
AcDbSymbolTable
70
0
0
ENDTAB
0
TABLE
2
UCS
5
7
100
AcDbSymbolTable
70
0
0
ENDTAB
0
TABLE
2
APPID
5
9
100
AcDbSymbolTable
70
2
0
APPID
5
12
100
AcDbSymbolTableRecord
100
AcDbRegAppTableRecord
2
ACAD
70
0
0
ENDTAB
0
TABLE
2
DIMSTYLE
5
A
100
AcDbSymbolTable
70
1
0
ENDTAB
0
TABLE
2
BLOCK_RECORD
5
1
100
AcDbSymbolTable
70
1
0
BLOCK_RECORD
5
1F
100
AcDbSymbolTableRecord
100
AcDbBlockTableRecord
2
*MODEL_SPACE
0
BLOCK_RECORD
5
1B
100
AcDbSymbolTableRecord
100
AcDbBlockTableRecord
2
*PAPER_SPACE
0
ENDTAB
0
ENDSEC
0
SECTION
2
BLOCKS
0
BLOCK
5
20
100
AcDbEntity
100
AcDbBlockBegin
2
*MODEL_SPACE
0
ENDBLK
5
21
100
AcDbEntity
100
AcDbBlockEnd
0
BLOCK
5
1C
100
AcDbEntity
100
AcDbBlockBegin
2
*PAPER_SPACE
0
ENDBLK
5
1D
100
AcDbEntity
100
AcDbBlockEnd
0
ENDSEC
0
SECTION
2
ENTITIES
0
LINE
5
100
100
AcDbEntity
8
0
100
AcDbLine
10
6.4320538065310569e-15
20
145.19999999999999
30
0
11
2.7213740051145848e-15
21
135.09999999999999
31
0
0
LINE
5
101
100
AcDbEntity
8
0
100
AcDbLine
10
6.6650695602198006e-16
20
125.09999999999999
30
0
11
9.7266865580881862e-16
21
120.09999999999999
31
0
0
LINE
5
102
100
AcDbEntity
8
0
100
AcDbLine
10
270.20000000000005
20
110.09999999999998
30
0
11
270.20000000000005
21
120.09999999999998
31
0
0
LINE
5
103
100
AcDbEntity
8
0
100
AcDbLine
10
-2.9999999999999978
20
135.09999999999999
30
0
11
-3
21
125.09999999999999
31
0
0
LINE
5
104
100
AcDbEntity
8
0
100
AcDbLine
10
60.100000000000009
20
145.19999999999993
30
0
11
90.100000000000023
21
145.19999999999993
31
0
0
LINE
5
105
100
AcDbEntity
8
0
100
AcDbLine
10
120.10000000000002
20
97
30
0
11
120.10000000000002
21
100
31
0
0
LINE
5
106
100
AcDbEntity
8
0
100
AcDbLine
10
90.100000000000023
20
97
30
0
11
120.10000000000002
21
97
31
0
0
LINE
5
107
100
AcDbEntity
8
0
100
AcDbLine
10
267.20000000000005
20
145.19999999999985
30
0
11
267.19999999999999
21
135.09999999999985
31
0
0
LINE
5
108
100
AcDbEntity
8
0
100
AcDbLine
10
120.10000000000004
20
145.19999999999987
30
0
11
147.10000000000002
21
145.19999999999987
31
0
0
LINE
5
109
100
AcDbEntity
8
0
100
AcDbLine
10
147.10000000000002
20
97
30
0
11
147.10000000000002
21
100
31
0
0
LINE
5
110
100
AcDbEntity
8
0
100
AcDbLine
10
207.10000000000002
20
100
30
0
11
177.10000000000002
21
100
31
0
0
LINE
5
111
100
AcDbEntity
8
0
100
AcDbLine
10
207.10000000000002
20
148.1999999999999
30
0
11
207.10000000000002
21
145.19999999999987
31
0
0
LINE
5
112
100
AcDbEntity
8
0
100
AcDbLine
10
267.20000000000005
20
99.999999999999986
30
0
11
267.20000000000005
21
110.09999999999998
31
0
0
LINE
5
113
100
AcDbEntity
8
0
100
AcDbLine
10
267.20000000000005
20
145.19999999999985
30
0
11
237.10000000000002
21
145.19999999999985
31
0
0
LINE
5
114
100
AcDbEntity
8
0
100
AcDbLine
10
207.10000000000002
20
145.19999999999987
30
0
11
177.10000000000002
21
145.19999999999987
31
0
0
LINE
5
115
100
AcDbEntity
8
0
100
AcDbLine
10
267.19999999999999
20
135.09999999999985
30
0
11
270.19999999999999
21
135.09999999999985
31
0
0
LINE
5
116
100
AcDbEntity
8
0
100
AcDbLine
10
237.10000000000002
20
99.999999999999986
30
0
11
237.10000000000002
21
96.999999999999972
31
0
0
LINE
5
117
100
AcDbEntity
8
0
100
AcDbLine
10
30.100000000000009
20
148.19999999999999
30
0
11
60.100000000000009
21
148.19999999999996
31
0
0
LINE
5
118
100
AcDbEntity
8
0
100
AcDbLine
10
0
20
100
30
0
11
30.100000000000001
21
100
31
0
0
LINE
5
119
100
AcDbEntity
8
0
100
AcDbLine
10
267.20000000000005
20
99.999999999999986
30
0
11
237.10000000000002
21
99.999999999999986
31
0
0
LINE
5
120
100
AcDbEntity
8
0
100
AcDbLine
10
60.099999999999994
20
97
30
0
11
60.099999999999994
21
100
31
0
0
LINE
5
121
100
AcDbEntity
8
0
100
AcDbLine
10
30.100000000000001
20
100
30
0
11
30.100000000000001
21
97
31
0
0
LINE
5
122
100
AcDbEntity
8
0
100
AcDbLine
10
6.4320538065310569e-15
20
145.19999999999999
30
0
11
30.100000000000009
21
145.19999999999999
31
0
0
LINE
5
123
100
AcDbEntity
8
0
100
AcDbLine
10
30.100000000000001
20
97
30
0
11
60.099999999999994
21
97
31
0
0
LINE
5
124
100
AcDbEntity
8
0
100
AcDbLine
10
-3
20
125.09999999999999
30
0
11
6.6650695602198006e-16
21
125.09999999999999
31
0
0
LINE
5
125
100
AcDbEntity
8
0
100
AcDbLine
10
30.100000000000009
20
145.19999999999999
30
0
11
30.100000000000009
21
148.19999999999999
31
0
0
LINE
5
126
100
AcDbEntity
8
0
100
AcDbLine
10
0
20
100
30
0
11
6.1844663356941262e-16
21
110.09999999999999
31
0
0
LINE
5
127
100
AcDbEntity
8
0
100
AcDbLine
10
2.7213740051145848e-15
20
135.09999999999999
30
0
11
-2.9999999999999978
21
135.09999999999999
31
0
0
LINE
5
128
100
AcDbEntity
8
0
100
AcDbLine
10
90.100000000000023
20
145.19999999999993
30
0
11
90.100000000000023
21
148.19999999999996
31
0
0
LINE
5
129
100
AcDbEntity
8
0
100
AcDbLine
10
270.19999999999999
20
125.09999999999985
30
0
11
267.19999999999999
21
125.09999999999989
31
0
0
LINE
5
130
100
AcDbEntity
8
0
100
AcDbLine
10
237.10000000000002
20
145.19999999999985
30
0
11
237.10000000000002
21
148.19999999999987
31
0
0
LINE
5
131
100
AcDbEntity
8
0
100
AcDbLine
10
237.10000000000002
20
148.19999999999987
30
0
11
207.10000000000002
21
148.1999999999999
31
0
0
LINE
5
132
100
AcDbEntity
8
0
100
AcDbLine
10
207.10000000000002
20
97
30
0
11
207.10000000000002
21
100
31
0
0
LINE
5
133
100
AcDbEntity
8
0
100
AcDbLine
10
237.10000000000002
20
96.999999999999972
30
0
11
207.10000000000002
21
97
31
0
0
LINE
5
134
100
AcDbEntity
8
0
100
AcDbLine
10
267.20000000000005
20
110.09999999999998
30
0
11
270.20000000000005
21
110.09999999999998
31
0
0
LINE
5
135
100
AcDbEntity
8
0
100
AcDbLine
10
270.20000000000005
20
120.09999999999998
30
0
11
267.19999999999999
21
120.09999999999999
31
0
0
LINE
5
136
100
AcDbEntity
8
0
100
AcDbLine
10
177.10000000000002
20
100
30
0
11
177.10000000000002
21
97
31
0
0
LINE
5
137
100
AcDbEntity
8
0
100
AcDbLine
10
270.19999999999999
20
135.09999999999985
30
0
11
270.19999999999999
21
125.09999999999985
31
0
0
LINE
5
138
100
AcDbEntity
8
0
100
AcDbLine
10
267.19999999999999
20
125.09999999999989
30
0
11
267.19999999999999
21
120.09999999999999
31
0
0
LINE
5
139
100
AcDbEntity
8
0
100
AcDbLine
10
177.10000000000002
20
145.19999999999987
30
0
11
177.10000000000002
21
148.1999999999999
31
0
0
LINE
5
140
100
AcDbEntity
8
0
100
AcDbLine
10
177.10000000000002
20
97
30
0
11
147.10000000000002
21
97
31
0
0
LINE
5
141
100
AcDbEntity
8
0
100
AcDbLine
10
177.10000000000002
20
148.1999999999999
30
0
11
147.10000000000002
21
148.1999999999999
31
0
0
LINE
5
142
100
AcDbEntity
8
0
100
AcDbLine
10
147.10000000000002
20
148.1999999999999
30
0
11
147.10000000000002
21
145.19999999999987
31
0
0
LINE
5
143
100
AcDbEntity
8
0
100
AcDbLine
10
90.100000000000023
20
100
30
0
11
90.100000000000023
21
97
31
0
0
LINE
5
144
100
AcDbEntity
8
0
100
AcDbLine
10
6.1844663356941262e-16
20
110.09999999999999
30
0
11
-3
21
110.09999999999999
31
0
0
LINE
5
145
100
AcDbEntity
8
0
100
AcDbLine
10
-3
20
110.09999999999999
30
0
11
-2.9999999999999991
21
120.09999999999999
31
0
0
LINE
5
146
100
AcDbEntity
8
0
100
AcDbLine
10
120.10000000000004
20
148.1999999999999
30
0
11
120.10000000000004
21
145.19999999999987
31
0
0
LINE
5
147
100
AcDbEntity
8
0
100
AcDbLine
10
-2.9999999999999991
20
120.09999999999999
30
0
11
9.7266865580881862e-16
21
120.09999999999999
31
0
0
LINE
5
148
100
AcDbEntity
8
0
100
AcDbLine
10
60.099999999999994
20
100
30
0
11
90.100000000000023
21
100
31
0
0
LINE
5
149
100
AcDbEntity
8
0
100
AcDbLine
10
147.10000000000002
20
100
30
0
11
120.10000000000002
21
100
31
0
0
LINE
5
150
100
AcDbEntity
8
0
100
AcDbLine
10
90.100000000000023
20
148.19999999999996
30
0
11
120.10000000000004
21
148.1999999999999
31
0
0
LINE
5
151
100
AcDbEntity
8
0
100
AcDbLine
10
60.100000000000009
20
148.19999999999996
30
0
11
60.100000000000009
21
145.19999999999993
31
0
0
LWPOLYLINE
5
152
100
AcDbEntity
8
0
100
AcDbPolyline
90
4
70
1
43
0.0
10
61.099999999999994
20
106.04999999999998
10
41.099999999999994
20
106.05000000000003
10
41.099999999999994
20
103.14999999999999
10
61.099999999999994
20
103.14999999999999
0
LWPOLYLINE
5
153
100
AcDbEntity
8
0
100
AcDbPolyline
90
4
70
1
43
0.0
10
16.100000000000001
20
106
10
5.0999999999999996
20
106
10
5.0999999999999996
20
103.10000000000001
10
16.099999999999991
20
103.10000000000001
0
LWPOLYLINE
5
154
100
AcDbEntity
8
0
100
AcDbPolyline
90
4
70
1
43
0.0
10
31.099999999999994
20
106
10
20.099999999999994
20
106
10
20.099999999999994
20
103.10000000000001
10
31.099999999999994
20
103.10000000000001
0
LWPOLYLINE
5
155
100
AcDbEntity
8
0
100
AcDbPolyline
90
4
70
1
43
0.0
10
94.099999999999994
20
103.14999999999999
10
94.099999999999994
20
106.04999999999998
10
74.099999999999994
20
106.05000000000003
10
74.099999999999994
20
103.14999999999999
0
LWPOLYLINE
5
156
100
AcDbEntity
8
0
100
AcDbPolyline
90
4
70
1
43
0.0
10
127.10000000000001
20
103.14999999999999
10
127.10000000000001
20
106.04999999999998
10
107.10000000000001
20
106.05000000000003
10
107.10000000000001
20
103.14999999999999
0
LWPOLYLINE
5
157
100
AcDbEntity
8
0
100
AcDbPolyline
90
4
70
1
43
0.0
10
160.09999999999997
20
103.14999999999999
10
160.09999999999997
20
106.04999999999998
10
140.10000000000002
20
106.05000000000003
10
140.10000000000002
20
103.14999999999999
0
LWPOLYLINE
5
158
100
AcDbEntity
8
0
100
AcDbPolyline
90
4
70
1
43
0.0
10
193.10000000000002
20
103.14999999999999
10
193.10000000000002
20
106.04999999999998
10
173.10000000000002
20
106.05000000000003
10
173.10000000000002
20
103.14999999999999
0
LWPOLYLINE
5
159
100
AcDbEntity
8
0
100
AcDbPolyline
90
4
70
1
43
0.0
10
226.09999999999999
20
103.14999999999999
10
226.09999999999999
20
106.04999999999998
10
206.09999999999999
20
106.05000000000003
10
206.09999999999999
20
103.14999999999999
0
LWPOLYLINE
5
160
100
AcDbEntity
8
0
100
AcDbPolyline
90
4
70
1
43
0.0
10
259.10000000000002
20
103.14999999999999
10
259.10000000000002
20
106.04999999999998
10
239.10000000000002
20
106.05000000000003
10
239.10000000000002
20
103.14999999999999
0
LWPOLYLINE
5
161
100
AcDbEntity
8
0
100
AcDbPolyline
90
4
70
1
43
0.0
10
94.099999999999994
20
107.64999999999999
10
94.099999999999994
20
110.54999999999998
10
74.099999999999994
20
110.55000000000001
10
74.099999999999994
20
107.64999999999999
0
LWPOLYLINE
5
162
100
AcDbEntity
8
0
100
AcDbPolyline
90
4
70
1
43
0.0
10
160.09999999999997
20
107.64999999999999
10
160.09999999999997
20
110.54999999999998
10
140.10000000000002
20
110.55000000000001
10
140.10000000000002
20
107.64999999999999
0
LWPOLYLINE
5
163
100
AcDbEntity
8
0
100
AcDbPolyline
90
4
70
1
43
0.0
10
226.09999999999999
20
107.64999999999999
10
226.09999999999999
20
110.54999999999998
10
206.09999999999999
20
110.55000000000001
10
206.09999999999999
20
107.64999999999999
0
LWPOLYLINE
5
164
100
AcDbEntity
8
0
100
AcDbPolyline
90
4
70
1
43
0.0
10
94.099999999999994
20
112.14999999999998
10
94.099999999999994
20
115.04999999999997
10
74.099999999999994
20
115.05000000000001
10
74.099999999999994
20
112.14999999999998
0
LWPOLYLINE
5
165
100
AcDbEntity
8
0
100
AcDbPolyline
90
4
70
1
43
0.0
10
160.09999999999997
20
112.14999999999998
10
160.09999999999997
20
115.04999999999997
10
140.10000000000002
20
115.05000000000001
10
140.10000000000002
20
112.14999999999998
0
LWPOLYLINE
5
166
100
AcDbEntity
8
0
100
AcDbPolyline
90
4
70
1
43
0.0
10
226.09999999999999
20
112.14999999999998
10
226.09999999999999
20
115.04999999999997
10
206.09999999999999
20
115.05000000000001
10
206.09999999999999
20
112.14999999999998
0
LWPOLYLINE
5
167
100
AcDbEntity
8
0
100
AcDbPolyline
90
4
70
1
43
0.0
10
94.099999999999994
20
116.64999999999998
10
94.099999999999994
20
119.54999999999997
10
74.099999999999994
20
119.55
10
74.099999999999994
20
116.64999999999998
0
LWPOLYLINE
5
168
100
AcDbEntity
8
0
100
AcDbPolyline
90
4
70
1
43
0.0
10
160.09999999999997
20
116.64999999999998
10
160.09999999999997
20
119.54999999999997
10
140.10000000000002
20
119.55
10
140.10000000000002
20
116.64999999999998
0
LWPOLYLINE
5
169
100
AcDbEntity
8
0
100
AcDbPolyline
90
4
70
1
43
0.0
10
226.09999999999999
20
116.64999999999998
10
226.09999999999999
20
119.54999999999997
10
206.09999999999999
20
119.55
10
206.09999999999999
20
116.64999999999998
0
LWPOLYLINE
5
170
100
AcDbEntity
8
0
100
AcDbPolyline
90
4
70
1
43
0.0
10
61.099999999999994
20
121.14999999999996
10
61.099999999999994
20
124.04999999999995
10
41.099999999999994
20
124.05
10
41.099999999999994
20
121.14999999999996
0
LWPOLYLINE
5
171
100
AcDbEntity
8
0
100
AcDbPolyline
90
4
70
1
43
0.0
10
94.099999999999994
20
121.14999999999996
10
94.099999999999994
20
124.04999999999995
10
74.099999999999994
20
124.05
10
74.099999999999994
20
121.14999999999996
0
LWPOLYLINE
5
172
100
AcDbEntity
8
0
100
AcDbPolyline
90
4
70
1
43
0.0
10
226.09999999999999
20
121.14999999999996
10
226.09999999999999
20
124.04999999999995
10
206.09999999999999
20
124.05
10
206.09999999999999
20
121.14999999999996
0
LWPOLYLINE
5
173
100
AcDbEntity
8
0
100
AcDbPolyline
90
4
70
1
43
0.0
10
61.099999999999994
20
125.64999999999996
10
61.099999999999994
20
128.54999999999995
10
41.099999999999994
20
128.54999999999998
10
41.099999999999994
20
125.64999999999996
0
LWPOLYLINE
5
174
100
AcDbEntity
8
0
100
AcDbPolyline
90
4
70
1
43
0.0
10
94.099999999999994
20
125.64999999999996
10
94.099999999999994
20
128.54999999999995
10
74.099999999999994
20
128.54999999999998
10
74.099999999999994
20
125.64999999999996
0
LWPOLYLINE
5
175
100
AcDbEntity
8
0
100
AcDbPolyline
90
4
70
1
43
0.0
10
226.09999999999999
20
125.64999999999996
10
226.09999999999999
20
128.54999999999995
10
206.09999999999999
20
128.54999999999998
10
206.09999999999999
20
125.64999999999996
0
LWPOLYLINE
5
176
100
AcDbEntity
8
0
100
AcDbPolyline
90
4
70
1
43
0.0
10
61.099999999999994
20
130.14999999999995
10
61.099999999999994
20
133.04999999999995
10
41.099999999999994
20
133.04999999999998
10
41.099999999999994
20
130.14999999999995
0
LWPOLYLINE
5
177
100
AcDbEntity
8
0
100
AcDbPolyline
90
4
70
1
43
0.0
10
94.099999999999994
20
130.14999999999995
10
94.099999999999994
20
133.04999999999995
10
74.099999999999994
20
133.04999999999998
10
74.099999999999994
20
130.14999999999995
0
LWPOLYLINE
5
178
100
AcDbEntity
8
0
100
AcDbPolyline
90
4
70
1
43
0.0
10
226.09999999999999
20
130.14999999999995
10
226.09999999999999
20
133.04999999999995
10
206.09999999999999
20
133.04999999999998
10
206.09999999999999
20
130.14999999999995
0
LWPOLYLINE
5
179
100
AcDbEntity
8
0
100
AcDbPolyline
90
4
70
1
43
0.0
10
61.099999999999994
20
134.64999999999995
10
61.099999999999994
20
137.54999999999993
10
41.099999999999994
20
137.54999999999998
10
41.099999999999994
20
134.64999999999995
0
LWPOLYLINE
5
180
100
AcDbEntity
8
0
100
AcDbPolyline
90
4
70
1
43
0.0
10
94.099999999999994
20
134.64999999999995
10
94.099999999999994
20
137.54999999999993
10
74.099999999999994
20
137.54999999999998
10
74.099999999999994
20
134.64999999999995
0
LWPOLYLINE
5
181
100
AcDbEntity
8
0
100
AcDbPolyline
90
4
70
1
43
0.0
10
226.09999999999999
20
134.64999999999995
10
226.09999999999999
20
137.54999999999993
10
206.09999999999999
20
137.54999999999998
10
206.09999999999999
20
134.64999999999995
0
LWPOLYLINE
5
182
100
AcDbEntity
8
0
100
AcDbPolyline
90
4
70
1
43
0.0
10
226.09999999999999
20
139.14999999999995
10
226.09999999999999
20
142.04999999999993
10
206.09999999999999
20
142.04999999999995
10
206.09999999999999
20
139.14999999999995
0
ENDSEC
0
SECTION
2
OBJECTS
0
DICTIONARY
5
C
100
AcDbDictionary
3
ACAD_GROUP
350
D
3
ACAD_MLINESTYLE
350
17
0
DICTIONARY
5
D
100
AcDbDictionary
0
DICTIONARY
5
1A
330
C
100
AcDbDictionary
0
DICTIONARY
5
17
100
AcDbDictionary
0
ENDSEC
0
EOF
