0
SECTION
2
HEADER
9
$INSUNITS
70
4
9
$ACADVER
1
AC1014
9
$HANDSEED
5
FFFF
0
ENDSEC
0
SECTION
2
TABLES
0
TABLE
2
VPORT
5
8
100
AcDbSymbolTable
0
ENDTAB
0
TABLE
2
LTYPE
5
5
100
AcDbSymbolTable
0
LTYPE
5
14
100
AcDbSymbolTableRecord
100
AcDbLinetypeTableRecord
2
BYBLOCK
70
0
0
LTYPE
5
15
100
AcDbSymbolTableRecord
100
AcDbLinetypeTableRecord
2
BYLAYER
70
0
0
ENDTAB
0
TABLE
2
LAYER
5
2
100
AcDbSymbolTable
70
2
0
LAYER
5
50
100
AcDbSymbolTableRecord
100
AcDbLayerTableRecord
2
0
70
0
6
CONTINUOUS
0
ENDTAB
0
TABLE
2
STYLE
5
3
100
AcDbSymbolTable
70
1
0
STYLE
5
11
100
AcDbSymbolTableRecord
100
AcDbTextStyleTableRecord
2
STANDARD
70
0
0
ENDTAB
0
TABLE
2
VIEW
5
6
100
AcDbSymbolTable
70
0
0
ENDTAB
0
TABLE
2
UCS
5
7
100
AcDbSymbolTable
70
0
0
ENDTAB
0
TABLE
2
APPID
5
9
100
AcDbSymbolTable
70
2
0
APPID
5
12
100
AcDbSymbolTableRecord
100
AcDbRegAppTableRecord
2
ACAD
70
0
0
ENDTAB
0
TABLE
2
DIMSTYLE
5
A
100
AcDbSymbolTable
70
1
0
ENDTAB
0
TABLE
2
BLOCK_RECORD
5
1
100
AcDbSymbolTable
70
1
0
BLOCK_RECORD
5
1F
100
AcDbSymbolTableRecord
100
AcDbBlockTableRecord
2
*MODEL_SPACE
0
BLOCK_RECORD
5
1B
100
AcDbSymbolTableRecord
100
AcDbBlockTableRecord
2
*PAPER_SPACE
0
ENDTAB
0
ENDSEC
0
SECTION
2
BLOCKS
0
BLOCK
5
20
100
AcDbEntity
100
AcDbBlockBegin
2
*MODEL_SPACE
0
ENDBLK
5
21
100
AcDbEntity
100
AcDbBlockEnd
0
BLOCK
5
1C
100
AcDbEntity
100
AcDbBlockBegin
2
*PAPER_SPACE
0
ENDBLK
5
1D
100
AcDbEntity
100
AcDbBlockEnd
0
ENDSEC
0
SECTION
2
ENTITIES
0
LINE
5
100
100
AcDbEntity
8
0
100
AcDbLine
10
6.4320538065310569e-15
20
145.19999999999999
30
0
11
2.7213740051145848e-15
21
135.09999999999999
31
0
0
LINE
5
101
100
AcDbEntity
8
0
100
AcDbLine
10
6.6650695602198006e-16
20
125.09999999999999
30
0
11
9.7266865580881862e-16
21
120.09999999999999
31
0
0
LINE
5
102
100
AcDbEntity
8
0
100
AcDbLine
10
270.20000000000005
20
110.09999999999998
30
0
11
270.20000000000005
21
120.09999999999998
31
0
0
LINE
5
103
100
AcDbEntity
8
0
100
AcDbLine
10
-2.9999999999999978
20
135.09999999999999
30
0
11
-3
21
125.09999999999999
31
0
0
LINE
5
104
100
AcDbEntity
8
0
100
AcDbLine
10
60.100000000000009
20
145.19999999999993
30
0
11
90.100000000000023
21
145.19999999999993
31
0
0
LINE
5
105
100
AcDbEntity
8
0
100
AcDbLine
10
120.10000000000002
20
97
30
0
11
120.10000000000002
21
100
31
0
0
LINE
5
106
100
AcDbEntity
8
0
100
AcDbLine
10
90.100000000000023
20
97
30
0
11
120.10000000000002
21
97
31
0
0
LINE
5
107
100
AcDbEntity
8
0
100
AcDbLine
10
267.20000000000005
20
145.19999999999985
30
0
11
267.19999999999999
21
135.09999999999985
31
0
0
LINE
5
108
100
AcDbEntity
8
0
100
AcDbLine
10
120.10000000000004
20
145.19999999999987
30
0
11
147.10000000000002
21
145.19999999999987
31
0
0
LINE
5
109
100
AcDbEntity
8
0
100
AcDbLine
10
147.10000000000002
20
97
30
0
11
147.10000000000002
21
100
31
0
0
LINE
5
110
100
AcDbEntity
8
0
100
AcDbLine
10
207.10000000000002
20
100
30
0
11
177.10000000000002
21
100
31
0
0
LINE
5
111
100
AcDbEntity
8
0
100
AcDbLine
10
207.10000000000002
20
148.1999999999999
30
0
11
207.10000000000002
21
145.19999999999987
31
0
0
LINE
5
112
100
AcDbEntity
8
0
100
AcDbLine
10
267.20000000000005
20
99.999999999999986
30
0
11
267.20000000000005
21
110.09999999999998
31
0
0
LINE
5
113
100
AcDbEntity
8
0
100
AcDbLine
10
267.20000000000005
20
145.19999999999985
30
0
11
237.10000000000002
21
145.19999999999985
31
0
0
LINE
5
114
100
AcDbEntity
8
0
100
AcDbLine
10
207.10000000000002
20
145.19999999999987
30
0
11
177.10000000000002
21
145.19999999999987
31
0
0
LINE
5
115
100
AcDbEntity
8
0
100
AcDbLine
10
267.19999999999999
20
135.09999999999985
30
0
11
270.19999999999999
21
135.09999999999985
31
0
0
LINE
5
116
100
AcDbEntity
8
0
100
AcDbLine
10
237.10000000000002
20
99.999999999999986
30
0
11
237.10000000000002
21
96.999999999999972
31
0
0
LINE
5
117
100
AcDbEntity
8
0
100
AcDbLine
10
30.100000000000009
20
148.19999999999999
30
0
11
60.100000000000009
21
148.19999999999996
31
0
0
LINE
5
118
100
AcDbEntity
8
0
100
AcDbLine
10
0
20
100
30
0
11
30.100000000000001
21
100
31
0
0
LINE
5
119
100
AcDbEntity
8
0
100
AcDbLine
10
267.20000000000005
20
99.999999999999986
30
0
11
237.10000000000002
21
99.999999999999986
31
0
0
LINE
5
120
100
AcDbEntity
8
0
100
AcDbLine
10
60.099999999999994
20
97
30
0
11
60.099999999999994
21
100
31
0
0
LINE
5
121
100
AcDbEntity
8
0
100
AcDbLine
10
30.100000000000001
20
100
30
0
11
30.100000000000001
21
97
31
0
0
LINE
5
122
100
AcDbEntity
8
0
100
AcDbLine
10
6.4320538065310569e-15
20
145.19999999999999
30
0
11
30.100000000000009
21
145.19999999999999
31
0
0
LINE
5
123
100
AcDbEntity
8
0
100
AcDbLine
10
30.100000000000001
20
97
30
0
11
60.099999999999994
21
97
31
0
0
LINE
5
124
100
AcDbEntity
8
0
100
AcDbLine
10
-3
20
125.09999999999999
30
0
11
6.6650695602198006e-16
21
125.09999999999999
31
0
0
LINE
5
125
100
AcDbEntity
8
0
100
AcDbLine
10
30.100000000000009
20
145.19999999999999
30
0
11
30.100000000000009
21
148.19999999999999
31
0
0
LINE
5
126
100
AcDbEntity
8
0
100
AcDbLine
10
0
20
100
30
0
11
6.1844663356941262e-16
21
110.09999999999999
31
0
0
LINE
5
127
100
AcDbEntity
8
0
100
AcDbLine
10
2.7213740051145848e-15
20
135.09999999999999
30
0
11
-2.9999999999999978
21
135.09999999999999
31
0
0
LINE
5
128
100
AcDbEntity
8
0
100
AcDbLine
10
90.100000000000023
20
145.19999999999993
30
0
11
90.100000000000023
21
148.19999999999996
31
0
0
LINE
5
129
100
AcDbEntity
8
0
100
AcDbLine
10
270.19999999999999
20
125.09999999999985
30
0
11
267.19999999999999
21
125.09999999999989
31
0
0
LINE
5
130
100
AcDbEntity
8
0
100
AcDbLine
10
237.10000000000002
20
145.19999999999985
30
0
11
237.10000000000002
21
148.19999999999987
31
0
0
LINE
5
131
100
AcDbEntity
8
0
100
AcDbLine
10
237.10000000000002
20
148.19999999999987
30
0
11
207.10000000000002
21
148.1999999999999
31
0
0
LINE
5
132
100
AcDbEntity
8
0
100
AcDbLine
10
207.10000000000002
20
97
30
0
11
207.10000000000002
21
100
31
0
0
LINE
5
133
100
AcDbEntity
8
0
100
AcDbLine
10
237.10000000000002
20
96.999999999999972
30
0
11
207.10000000000002
21
97
31
0
0
LINE
5
134
100
AcDbEntity
8
0
100
AcDbLine
10
267.20000000000005
20
110.09999999999998
30
0
11
270.20000000000005
21
110.09999999999998
31
0
0
LINE
5
135
100
AcDbEntity
8
0
100
AcDbLine
10
270.20000000000005
20
120.09999999999998
30
0
11
267.19999999999999
21
120.09999999999999
31
0
0
LINE
5
136
100
AcDbEntity
8
0
100
AcDbLine
10
177.10000000000002
20
100
30
0
11
177.10000000000002
21
97
31
0
0
LINE
5
137
100
AcDbEntity
8
0
100
AcDbLine
10
270.19999999999999
20
135.09999999999985
30
0
11
270.19999999999999
21
125.09999999999985
31
0
0
LINE
5
138
100
AcDbEntity
8
0
100
AcDbLine
10
267.19999999999999
20
125.09999999999989
30
0
11
267.19999999999999
21
120.09999999999999
31
0
0
LINE
5
139
100
AcDbEntity
8
0
100
AcDbLine
10
177.10000000000002
20
145.19999999999987
30
0
11
177.10000000000002
21
148.1999999999999
31
0
0
LINE
5
140
100
AcDbEntity
8
0
100
AcDbLine
10
177.10000000000002
20
97
30
0
11
147.10000000000002
21
97
31
0
0
LINE
5
141
100
AcDbEntity
8
0
100
AcDbLine
10
177.10000000000002
20
148.1999999999999
30
0
11
147.10000000000002
21
148.1999999999999
31
0
0
LINE
5
142
100
AcDbEntity
8
0
100
AcDbLine
10
147.10000000000002
20
148.1999999999999
30
0
11
147.10000000000002
21
145.19999999999987
31
0
0
LINE
5
143
100
AcDbEntity
8
0
100
AcDbLine
10
90.100000000000023
20
100
30
0
11
90.100000000000023
21
97
31
0
0
LINE
5
144
100
AcDbEntity
8
0
100
AcDbLine
10
6.1844663356941262e-16
20
110.09999999999999
30
0
11
-3
21
110.09999999999999
31
0
0
LINE
5
145
100
AcDbEntity
8
0
100
AcDbLine
10
-3
20
110.09999999999999
30
0
11
-2.9999999999999991
21
120.09999999999999
31
0
0
LINE
5
146
100
AcDbEntity
8
0
100
AcDbLine
10
120.10000000000004
20
148.1999999999999
30
0
11
120.10000000000004
21
145.19999999999987
31
0
0
LINE
5
147
100
AcDbEntity
8
0
100
AcDbLine
10
-2.9999999999999991
20
120.09999999999999
30
0
11
9.7266865580881862e-16
21
120.09999999999999
31
0
0
LINE
5
148
100
AcDbEntity
8
0
100
AcDbLine
10
60.099999999999994
20
100
30
0
11
90.100000000000023
21
100
31
0
0
LINE
5
149
100
AcDbEntity
8
0
100
AcDbLine
10
147.10000000000002
20
100
30
0
11
120.10000000000002
21
100
31
0
0
LINE
5
150
100
AcDbEntity
8
0
100
AcDbLine
10
90.100000000000023
20
148.19999999999996
30
0
11
120.10000000000004
21
148.1999999999999
31
0
0
LINE
5
151
100
AcDbEntity
8
0
100
AcDbLine
10
60.100000000000009
20
148.19999999999996
30
0
11
60.100000000000009
21
145.19999999999993
31
0
0
LWPOLYLINE
5
152
100
AcDbEntity
8
0
100
AcDbPolyline
90
4
70
1
43
0.0
10
61.050000000000011
20
106.02500000000003
10
41.150000000000013
20
106.02500000000006
10
41.150000000000006
20
103.17500000000003
10
61.050000000000004
20
103.17500000000001
0
LWPOLYLINE
5
153
100
AcDbEntity
8
0
100
AcDbPolyline
90
4
70
1
43
0.0
10
16.100000000000001
20
106.02500000000001
10
5.0999999999999996
20
106.02500000000001
10
5.0999999999999996
20
103.17500000000001
10
16.099999999999962
20
103.17500000000001
0
LWPOLYLINE
5
154
100
AcDbEntity
8
0
100
AcDbPolyline
90
4
70
1
43
0.0
10
31.100000000000001
20
106.02500000000003
10
20.100000000000001
20
106.02500000000003
10
20.099999999999994
20
103.17500000000001
10
31.099999999999994
20
103.17500000000001
0
LWPOLYLINE
5
155
100
AcDbEntity
8
0
100
AcDbPolyline
90
4
70
1
43
0.0
10
94.050000000000011
20
103.17500000000001
10
94.050000000000011
20
106.02500000000003
10
74.15000000000002
20
106.02500000000006
10
74.150000000000006
20
103.17500000000003
0
LWPOLYLINE
5
156
100
AcDbEntity
8
0
100
AcDbPolyline
90
4
70
1
43
0.0
10
127.05000000000001
20
103.17500000000001
10
127.05000000000001
20
106.02500000000003
10
107.15000000000003
20
106.02500000000006
10
107.15000000000002
20
103.17500000000003
0
LWPOLYLINE
5
157
100
AcDbEntity
8
0
100
AcDbPolyline
90
4
70
1
43
0.0
10
160.05000000000001
20
103.17500000000001
10
160.05000000000001
20
106.02500000000003
10
140.15000000000003
20
106.02500000000006
10
140.15000000000003
20
103.17500000000003
0
LWPOLYLINE
5
158
100
AcDbEntity
8
0
100
AcDbPolyline
90
4
70
1
43
0.0
10
193.05000000000004
20
103.17500000000001
10
193.05000000000004
20
106.02500000000003
10
173.15000000000003
20
106.02500000000006
10
173.15000000000003
20
103.17500000000003
0
LWPOLYLINE
5
159
100
AcDbEntity
8
0
100
AcDbPolyline
90
4
70
1
43
0.0
10
226.05000000000004
20
103.17500000000001
10
226.05000000000004
20
106.02500000000003
10
206.15000000000006
20
106.02500000000006
10
206.15000000000003
20
103.17500000000003
0
LWPOLYLINE
5
160
100
AcDbEntity
8
0
100
AcDbPolyline
90
4
70
1
43
0.0
10
259.05000000000007
20
103.17500000000001
10
259.05000000000007
20
106.02500000000003
10
239.15000000000006
20
106.02500000000006
10
239.15000000000006
20
103.17500000000003
0
LWPOLYLINE
5
161
100
AcDbEntity
8
0
100
AcDbPolyline
90
4
70
1
43
0.0
10
94.050000000000011
20
107.675
10
94.050000000000011
20
110.52500000000002
10
74.15000000000002
20
110.52500000000006
10
74.150000000000006
20
107.67500000000001
0
LWPOLYLINE
5
162
100
AcDbEntity
8
0
100
AcDbPolyline
90
4
70
1
43
0.0
10
160.05000000000001
20
107.675
10
160.05000000000001
20
110.52500000000002
10
140.15000000000003
20
110.52500000000006
10
140.15000000000003
20
107.67500000000001
0
LWPOLYLINE
5
163
100
AcDbEntity
8
0
100
AcDbPolyline
90
4
70
1
43
0.0
10
226.05000000000004
20
107.675
10
226.05000000000004
20
110.52500000000002
10
206.15000000000006
20
110.52500000000006
10
206.15000000000003
20
107.67500000000001
0
LWPOLYLINE
5
164
100
AcDbEntity
8
0
100
AcDbPolyline
90
4
70
1
43
0.0
10
94.050000000000011
20
112.175
10
94.050000000000011
20
115.02500000000001
10
74.15000000000002
20
115.02500000000005
10
74.150000000000006
20
112.17500000000001
0
LWPOLYLINE
5
165
100
AcDbEntity
8
0
100
AcDbPolyline
90
4
70
1
43
0.0
10
160.05000000000001
20
112.175
10
160.05000000000001
20
115.02500000000001
10
140.15000000000003
20
115.02500000000005
10
140.15000000000003
20
112.17500000000001
0
LWPOLYLINE
5
166
100
AcDbEntity
8
0
100
AcDbPolyline
90
4
70
1
43
0.0
10
226.05000000000004
20
112.175
10
226.05000000000004
20
115.02500000000001
10
206.15000000000006
20
115.02500000000005
10
206.15000000000003
20
112.17500000000001
0
LWPOLYLINE
5
167
100
AcDbEntity
8
0
100
AcDbPolyline
90
4
70
1
43
0.0
10
94.050000000000011
20
116.67499999999998
10
94.050000000000011
20
119.52500000000001
10
74.15000000000002
20
119.52500000000003
10
74.150000000000006
20
116.67500000000001
0
LWPOLYLINE
5
168
100
AcDbEntity
8
0
100
AcDbPolyline
90
4
70
1
43
0.0
10
160.05000000000001
20
116.67499999999998
10
160.05000000000001
20
119.52500000000001
10
140.15000000000003
20
119.52500000000003
10
140.15000000000003
20
116.67500000000001
0
LWPOLYLINE
5
169
100
AcDbEntity
8
0
100
AcDbPolyline
90
4
70
1
43
0.0
10
226.05000000000004
20
116.67499999999998
10
226.05000000000004
20
119.52500000000001
10
206.15000000000006
20
119.52500000000003
10
206.15000000000003
20
116.67500000000001
0
LWPOLYLINE
5
170
100
AcDbEntity
8
0
100
AcDbPolyline
90
4
70
1
43
0.0
10
61.050000000000004
20
121.17499999999998
10
61.050000000000011
20
124.02500000000001
10
41.150000000000013
20
124.02500000000003
10
41.150000000000006
20
121.175
0
LWPOLYLINE
5
171
100
AcDbEntity
8
0
100
AcDbPolyline
90
4
70
1
43
0.0
10
94.050000000000011
20
121.17499999999998
10
94.050000000000011
20
124.02500000000001
10
74.15000000000002
20
124.02500000000003
10
74.150000000000006
20
121.175
0
LWPOLYLINE
5
172
100
AcDbEntity
8
0
100
AcDbPolyline
90
4
70
1
43
0.0
10
226.05000000000004
20
121.17499999999998
10
226.05000000000004
20
124.02500000000001
10
206.15000000000006
20
124.02500000000003
10
206.15000000000003
20
121.175
0
LWPOLYLINE
5
173
100
AcDbEntity
8
0
100
AcDbPolyline
90
4
70
1
43
0.0
10
61.050000000000004
20
125.67499999999997
10
61.050000000000011
20
128.52499999999998
10
41.150000000000013
20
128.52500000000003
10
41.150000000000006
20
125.67499999999998
0
LWPOLYLINE
5
174
100
AcDbEntity
8
0
100
AcDbPolyline
90
4
70
1
43
0.0
10
94.050000000000011
20
125.67499999999997
10
94.050000000000011
20
128.52499999999998
10
74.15000000000002
20
128.52500000000003
10
74.150000000000006
20
125.67499999999998
0
LWPOLYLINE
5
175
100
AcDbEntity
8
0
100
AcDbPolyline
90
4
70
1
43
0.0
10
226.05000000000004
20
125.67499999999997
10
226.05000000000004
20
128.52499999999998
10
206.15000000000006
20
128.52500000000003
10
206.15000000000003
20
125.67499999999998
0
LWPOLYLINE
5
176
100
AcDbEntity
8
0
100
AcDbPolyline
90
4
70
1
43
0.0
10
61.050000000000004
20
130.17499999999995
10
61.050000000000011
20
133.02499999999998
10
41.150000000000013
20
133.02500000000003
10
41.150000000000006
20
130.17499999999998
0
LWPOLYLINE
5
177
100
AcDbEntity
8
0
100
AcDbPolyline
90
4
70
1
43
0.0
10
94.050000000000011
20
130.17499999999995
10
94.050000000000011
20
133.02499999999998
10
74.15000000000002
20
133.02500000000003
10
74.150000000000006
20
130.17499999999998
0
LWPOLYLINE
5
178
100
AcDbEntity
8
0
100
AcDbPolyline
90
4
70
1
43
0.0
10
226.05000000000004
20
130.17499999999995
10
226.05000000000004
20
133.02499999999998
10
206.15000000000006
20
133.02500000000003
10
206.15000000000003
20
130.17499999999998
0
LWPOLYLINE
5
179
100
AcDbEntity
8
0
100
AcDbPolyline
90
4
70
1
43
0.0
10
61.050000000000004
20
134.67499999999995
10
61.050000000000011
20
137.52499999999998
10
41.150000000000013
20
137.52500000000001
10
41.150000000000006
20
134.67499999999998
0
LWPOLYLINE
5
180
100
AcDbEntity
8
0
100
AcDbPolyline
90
4
70
1
43
0.0
10
94.050000000000011
20
134.67499999999995
10
94.050000000000011
20
137.52499999999998
10
74.15000000000002
20
137.52500000000001
10
74.150000000000006
20
134.67499999999998
0
LWPOLYLINE
5
181
100
AcDbEntity
8
0
100
AcDbPolyline
90
4
70
1
43
0.0
10
226.05000000000004
20
134.67499999999995
10
226.05000000000004
20
137.52499999999998
10
206.15000000000006
20
137.52500000000001
10
206.15000000000003
20
134.67499999999998
0
LWPOLYLINE
5
182
100
AcDbEntity
8
0
100
AcDbPolyline
90
4
70
1
43
0.0
10
226.05000000000004
20
139.17499999999995
10
226.05000000000004
20
142.02499999999998
10
206.15000000000006
20
142.02500000000001
10
206.15000000000003
20
139.17499999999995
0
SPLINE
5
183
100
AcDbEntity
8
0
100
AcDbSpline
70
0
71
2
72
6
73
3
74
0
42
0.000000001
43
0.0000000001
44
0.0000000001
40
0
40
0
40
0
40
1
40
1
40
1
10
105.20429559632615
20
137.27928061485278
30
0
10
106.28612585946397
20
137.27928061485278
30
0
10
107.09749885484055
20
137.02269275188434
30
0
0
SPLINE
5
184
100
AcDbEntity
8
0
100
AcDbSpline
70
0
71
2
72
6
73
3
74
0
42
0.000000001
43
0.0000000001
44
0.0000000001
40
0
40
0
40
0
40
1
40
1
40
1
10
107.09749885484055
20
137.02269275188434
30
0
10
107.90887185021714
20
136.76610488891589
30
0
10
108.46365757867173
20
136.20438475608813
30
0
0
SPLINE
5
185
100
AcDbEntity
8
0
100
AcDbSpline
70
0
71
2
72
6
73
3
74
0
42
0.000000001
43
0.0000000001
44
0.0000000001
40
0
40
0
40
0
40
1
40
1
40
1
10
108.46365757867173
20
136.20438475608813
30
0
10
109.01844211503342
20
135.64266462326037
30
0
10
109.29583378716782
20
134.75500841140735
30
0
0
SPLINE
5
186
100
AcDbEntity
8
0
100
AcDbSpline
70
0
71
2
72
6
73
3
74
0
42
0.000000001
43
0.0000000001
44
0.0000000001
40
0
40
0
40
0
40
1
40
1
40
1
10
109.29583378716782
20
134.75500841140735
30
0
10
109.57322665139512
20
133.86735339164721
30
0
10
109.57322665139512
20
132.60521669387805
30
0
0
LINE
5
187
100
AcDbEntity
8
0
100
AcDbLine
10
109.57322665139512
20
132.60521669387805
30
0
11
109.57322665139512
21
132.09204216003405
31
0
0
SPLINE
5
188
100
AcDbEntity
8
0
100
AcDbSpline
70
0
71
2
72
6
73
3
74
0
42
0.000000001
43
0.0000000001
44
0.0000000001
40
0
40
0
40
0
40
1
40
1
40
1
10
109.57322665139512
20
132.09204216003405
30
0
10
109.57322665139509
20
130.82990546226489
30
0
10
109.29583378716779
20
129.94224925041186
30
0
0
SPLINE
5
189
100
AcDbEntity
8
0
100
AcDbSpline
70
0
71
2
72
6
73
3
74
0
42
0.000000001
43
0.0000000001
44
0.0000000001
40
0
40
0
40
0
40
1
40
1
40
1
10
109.29583378716779
20
129.94224925041186
30
0
10
109.01844211503339
20
129.05459423065173
30
0
10
108.4636575786717
20
128.49287409782397
30
0
0
SPLINE
5
190
100
AcDbEntity
8
0
100
AcDbSpline
70
0
71
2
72
6
73
3
74
0
42
0.000000001
43
0.0000000001
44
0.0000000001
40
0
40
0
40
0
40
1
40
1
40
1
10
108.4636575786717
20
128.49287409782397
30
0
10
107.90887185021711
20
127.93115396499623
30
0
10
107.09749885484052
20
127.67456550598133
30
0
0
SPLINE
5
191
100
AcDbEntity
8
0
100
AcDbSpline
70
0
71
2
72
6
73
3
74
0
42
0.000000001
43
0.0000000001
44
0.0000000001
40
0
40
0
40
0
40
1
40
1
40
1
10
107.09749885484052
20
127.67456550598133
30
0
10
106.28612585946394
20
127.41797823905934
30
0
10
105.20429559632612
20
127.41797823905934
30
0
0
LINE
5
192
100
AcDbEntity
8
0
100
AcDbLine
10
105.20429559632611
20
127.41797823905934
30
0
11
102.91580685063673
21
127.41797823905934
31
0
0
SPLINE
5
193
100
AcDbEntity
8
0
100
AcDbSpline
70
0
71
2
72
6
73
3
74
0
42
0.000000001
43
0.0000000001
44
0.0000000001
40
0
40
0
40
0
40
1
40
1
40
1
10
102.91580685063673
20
127.41797823905934
30
0
10
102.2500652877934
20
127.41797823905934
30
0
10
101.99347682877851
20
127.66763110160817
30
0
0
SPLINE
5
194
100
AcDbEntity
8
0
100
AcDbSpline
70
0
71
2
72
6
73
3
74
0
42
0.000000001
43
0.0000000001
44
0.0000000001
40
0
40
0
40
0
40
1
40
1
40
1
10
101.99347682877851
20
127.66763110160817
30
0
10
101.73688896581007
20
127.91728396415699
30
0
10
101.73688896581007
20
128.56915731430041
30
0
0
LINE
5
195
100
AcDbEntity
8
0
100
AcDbLine
10
101.73688896581007
20
128.56915731430041
30
0
11
101.7368889658101
21
136.12810153961169
31
0
0
SPLINE
5
196
100
AcDbEntity
8
0
100
AcDbSpline
70
0
71
2
72
6
73
3
74
0
42
0.000000001
43
0.0000000001
44
0.0000000001
40
0
40
0
40
0
40
1
40
1
40
1
10
101.7368889658101
20
136.12810153961169
30
0
10
101.7368889658101
20
136.77997369766223
30
0
10
101.99347682877854
20
137.02962775230395
30
0
0
SPLINE
5
197
100
AcDbEntity
8
0
100
AcDbSpline
70
0
71
2
72
6
73
3
74
0
42
0.000000001
43
0.0000000001
44
0.0000000001
40
0
40
0
40
0
40
1
40
1
40
1
10
101.99347682877854
20
137.02962775230395
30
0
10
102.25006528779343
20
137.27928061485278
30
0
10
102.91580685063676
20
137.27928061485278
30
0
0
LINE
5
198
100
AcDbEntity
8
0
100
AcDbLine
10
102.91580685063676
20
137.27928061485278
30
0
11
105.20429559632615
21
137.27928061485278
31
0
0
LINE
5
199
100
AcDbEntity
8
0
100
AcDbLine
10
103.49833079263044
20
128.91589779853808
30
0
11
104.96851154252363
21
128.91589779853808
31
0
0
SPLINE
5
200
100
AcDbEntity
8
0
100
AcDbSpline
70
0
71
2
72
6
73
3
74
0
42
0.000000001
43
0.0000000001
44
0.0000000001
40
0
40
0
40
0
40
1
40
1
40
1
10
104.96851154252363
20
128.91589779853808
30
0
10
105.73134013100935
20
128.91589779853808
30
0
10
106.26532145425153
20
129.0823330402373
30
0
0
SPLINE
5
201
100
AcDbEntity
8
0
100
AcDbSpline
70
0
71
2
72
6
73
3
74
0
42
0.000000001
43
0.0000000001
44
0.0000000001
40
0
40
0
40
0
40
1
40
1
40
1
10
106.26532145425153
20
129.0823330402373
30
0
10
106.79930277749372
20
129.24876828193652
30
0
10
107.13910766526533
20
129.637117576599
30
0
0
SPLINE
5
202
100
AcDbEntity
8
0
100
AcDbSpline
70
0
71
2
72
6
73
3
74
0
42
0.000000001
43
0.0000000001
44
0.0000000001
40
0
40
0
40
0
40
1
40
1
40
1
10
107.13910766526533
20
129.637117576599
30
0
10
107.47891374512983
20
130.02546806335437
30
0
10
107.63147898598982
20
130.6565358161925
30
0
0
SPLINE
5
203
100
AcDbEntity
8
0
100
AcDbSpline
70
0
71
2
72
6
73
3
74
0
42
0.000000001
43
0.0000000001
44
0.0000000001
40
0
40
0
40
0
40
1
40
1
40
1
10
107.63147898598982
20
130.6565358161925
30
0
10
107.7840454189427
20
131.28760356903064
30
0
10
107.78404541894272
20
132.23073740005481
30
0
0
LINE
5
204
100
AcDbEntity
8
0
100
AcDbLine
10
107.78404541894272
20
132.23073740005481
30
0
11
107.78404541894272
21
132.4665214538573
31
0
0
SPLINE
5
205
100
AcDbEntity
8
0
100
AcDbSpline
70
0
71
2
72
6
73
3
74
0
42
0.000000001
43
0.0000000001
44
0.0000000001
40
0
40
0
40
0
40
1
40
1
40
1
10
107.78404541894272
20
132.4665214538573
30
0
10
107.78404541894272
20
133.39578647613513
30
0
10
107.63147898598984
20
134.03378863334643
30
0
0
SPLINE
5
206
100
AcDbEntity
8
0
100
AcDbSpline
70
0
71
2
72
6
73
3
74
0
42
0.000000001
43
0.0000000001
44
0.0000000001
40
0
40
0
40
0
40
1
40
1
40
1
10
107.63147898598984
20
134.03378863334643
30
0
10
107.47891374512986
20
134.67179079055774
30
0
10
107.13910766526536
20
135.06014127731311
30
0
0
SPLINE
5
207
100
AcDbEntity
8
0
100
AcDbSpline
70
0
71
2
72
6
73
3
74
0
42
0.000000001
43
0.0000000001
44
0.0000000001
40
0
40
0
40
0
40
1
40
1
40
1
10
107.13910766526536
20
135.06014127731311
30
0
10
106.79930277749375
20
135.44849057197558
30
0
10
106.26532145425156
20
135.6149258136748
30
0
0
SPLINE
5
208
100
AcDbEntity
8
0
100
AcDbSpline
70
0
71
2
72
6
73
3
74
0
42
0.000000001
43
0.0000000001
44
0.0000000001
40
0
40
0
40
0
40
1
40
1
40
1
10
106.26532145425156
20
135.6149258136748
30
0
10
105.73134013100938
20
135.78136224746692
30
0
10
104.96851154252366
20
135.78136224746692
30
0
0
LINE
5
209
100
AcDbEntity
8
0
100
AcDbLine
10
104.96851154252366
20
135.78136224746692
30
0
11
103.49833079263047
21
135.78136224746692
31
0
0
LINE
5
210
100
AcDbEntity
8
0
100
AcDbLine
10
103.49833079263047
20
135.78136224746692
30
0
11
103.49833079263044
21
128.91589779853808
31
0
0
SPLINE
5
211
100
AcDbEntity
8
0
100
AcDbSpline
70
0
71
2
72
6
73
3
74
0
42
0.000000001
43
0.0000000001
44
0.0000000001
40
0
40
0
40
0
40
1
40
1
40
1
10
114.53855105325059
20
134.94918365478503
30
0
10
116.23064585610703
20
134.94918365478503
30
0
10
117.1737796871312
20
134.02685422897326
30
0
0
SPLINE
5
212
100
AcDbEntity
8
0
100
AcDbSpline
70
0
71
2
72
6
73
3
74
0
42
0.000000001
43
0.0000000001
44
0.0000000001
40
0
40
0
40
0
40
1
40
1
40
1
10
117.1737796871312
20
134.02685422897326
30
0
10
118.11691590234116
20
133.1045248031615
30
0
10
118.11691590234113
20
131.30147237777697
30
0
0
LINE
5
213
100
AcDbEntity
8
0
100
AcDbLine
10
118.11691590234113
20
131.30147237777697
30
0
11
118.11691590234113
21
130.9547318935393
31
0
0
SPLINE
5
214
100
AcDbEntity
8
0
100
AcDbSpline
70
0
71
2
72
6
73
3
74
0
42
0.000000001
43
0.0000000001
44
0.0000000001
40
0
40
0
40
0
40
1
40
1
40
1
10
118.11691590234113
20
130.9547318935393
30
0
10
118.11691590234113
20
129.15168066024768
30
0
10
117.17377968713117
20
128.22935123443591
30
0
0
SPLINE
5
215
100
AcDbEntity
8
0
100
AcDbSpline
70
0
71
2
72
6
73
3
74
0
42
0.000000001
43
0.0000000001
44
0.0000000001
40
0
40
0
40
0
40
1
40
1
40
1
10
117.17377968713117
20
128.22935123443591
30
0
10
116.230645856107
20
127.30702061653126
30
0
10
114.53855105325056
20
127.30702061653126
30
0
0
SPLINE
5
216
100
AcDbEntity
8
0
100
AcDbSpline
70
0
71
2
72
6
73
3
74
0
42
0.000000001
43
0.0000000001
44
0.0000000001
40
0
40
0
40
0
40
1
40
1
40
1
10
114.53855105325056
20
127.30702061653126
30
0
10
112.84645744248701
20
127.30702061653126
30
0
10
111.90332361146284
20
128.22935123443591
30
0
0
SPLINE
5
217
100
AcDbEntity
8
0
100
AcDbSpline
70
0
71
2
72
6
73
3
74
0
42
0.000000001
43
0.0000000001
44
0.0000000001
40
0
40
0
40
0
40
1
40
1
40
1
10
111.90332361146284
20
128.22935123443591
30
0
10
110.96018858834577
20
129.15168066024768
30
0
10
110.96018858834577
20
130.9547318935393
30
0
0
LINE
5
218
100
AcDbEntity
8
0
100
AcDbLine
10
110.96018858834577
20
130.9547318935393
30
0
11
110.96018858834577
21
131.30147237777697
31
0
0
SPLINE
5
219
100
AcDbEntity
8
0
100
AcDbSpline
70
0
71
2
72
6
73
3
74
0
42
0.000000001
43
0.0000000001
44
0.0000000001
40
0
40
0
40
0
40
1
40
1
40
1
10
110.96018858834577
20
131.30147237777697
30
0
10
110.9601885883458
20
133.1045248031615
30
0
10
111.90332361146287
20
134.02685422897326
30
0
0
SPLINE
5
220
100
AcDbEntity
8
0
100
AcDbSpline
70
0
71
2
72
6
73
3
74
0
42
0.000000001
43
0.0000000001
44
0.0000000001
40
0
40
0
40
0
40
1
40
1
40
1
10
111.90332361146287
20
134.02685422897326
30
0
10
112.84645744248704
20
134.94918365478503
30
0
10
114.53855105325059
20
134.94918365478503
30
0
0
SPLINE
5
221
100
AcDbEntity
8
0
100
AcDbSpline
70
0
71
2
72
6
73
3
74
0
42
0.000000001
43
0.0000000001
44
0.0000000001
40
0
40
0
40
0
40
1
40
1
40
1
10
114.53855105325059
20
133.4235264778136
30
0
10
113.59541722222642
20
133.4235264778136
30
0
10
113.15852471276597
20
132.91034955978381
30
0
0
SPLINE
5
222
100
AcDbEntity
8
0
100
AcDbSpline
70
0
71
2
72
6
73
3
74
0
42
0.000000001
43
0.0000000001
44
0.0000000001
40
0
40
0
40
0
40
1
40
1
40
1
10
113.15852471276597
20
132.91034955978381
30
0
10
112.72163101121262
20
132.39717264175403
30
0
10
112.72163101121259
20
131.2737335681914
30
0
0
LINE
5
223
100
AcDbEntity
8
0
100
AcDbLine
10
112.72163101121259
20
131.2737335681914
30
0
11
112.72163101121259
21
130.98247189521777
31
0
0
SPLINE
5
224
100
AcDbEntity
8
0
100
AcDbSpline
70
0
71
2
72
6
73
3
74
0
42
0.000000001
43
0.0000000001
44
0.0000000001
40
0
40
0
40
0
40
1
40
1
40
1
10
112.72163101121259
20
130.98247189521777
30
0
10
112.72163101121259
20
129.85903162956225
30
0
10
113.15852471276594
20
129.34585590362536
30
0
0
SPLINE
5
225
100
AcDbEntity
8
0
100
AcDbSpline
70
0
71
2
72
6
73
3
74
0
42
0.000000001
43
0.0000000001
44
0.0000000001
40
0
40
0
40
0
40
1
40
1
40
1
10
113.15852471276594
20
129.34585590362536
30
0
10
113.59541722222639
20
128.83267898559558
30
0
10
114.53855105325056
20
128.83267898559558
30
0
0
SPLINE
5
226
100
AcDbEntity
8
0
100
AcDbSpline
70
0
71
2
72
6
73
3
74
0
42
0.000000001
43
0.0000000001
44
0.0000000001
40
0
40
0
40
0
40
1
40
1
40
1
10
114.53855105325056
20
128.83267898559558
30
0
10
115.48168488427473
20
128.83267898559558
30
0
10
115.91857977792097
20
129.34585590362536
30
0
0
SPLINE
5
227
100
AcDbEntity
8
0
100
AcDbSpline
70
0
71
2
72
6
73
3
74
0
42
0.000000001
43
0.0000000001
44
0.0000000001
40
0
40
0
40
0
40
1
40
1
40
1
10
115.91857977792097
20
129.34585590362536
30
0
10
116.35547228738142
20
129.85903162956225
30
0
10
116.35547228738142
20
130.98247189521777
30
0
0
LINE
5
228
100
AcDbEntity
8
0
100
AcDbLine
10
116.35547228738142
20
130.98247189521777
30
0
11
116.35547228738142
21
131.2737335681914
31
0
0
SPLINE
5
229
100
AcDbEntity
8
0
100
AcDbSpline
70
0
71
2
72
6
73
3
74
0
42
0.000000001
43
0.0000000001
44
0.0000000001
40
0
40
0
40
0
40
1
40
1
40
1
10
116.35547228738142
20
131.2737335681914
30
0
10
116.35547228738145
20
132.39717264175403
30
0
10
115.918579777921
20
132.91034955978381
30
0
0
SPLINE
5
230
100
AcDbEntity
8
0
100
AcDbSpline
70
0
71
2
72
6
73
3
74
0
42
0.000000001
43
0.0000000001
44
0.0000000001
40
0
40
0
40
0
40
1
40
1
40
1
10
115.918579777921
20
132.91034955978381
30
0
10
115.48168488427476
20
133.4235264778136
30
0
10
114.53855105325059
20
133.4235264778136
30
0
0
SPLINE
5
231
100
AcDbEntity
8
0
100
AcDbSpline
70
0
71
2
72
6
73
3
74
0
42
0.000000001
43
0.0000000001
44
0.0000000001
40
0
40
0
40
0
40
1
40
1
40
1
10
123.73411246224717
20
134.94918365478503
30
0
10
124.95463915749863
20
134.94918365478503
30
0
10
125.67586012765244
20
134.23489828109729
30
0
0
SPLINE
5
232
100
AcDbEntity
8
0
100
AcDbSpline
70
0
71
2
72
6
73
3
74
0
42
0.000000001
43
0.0000000001
44
0.0000000001
40
0
40
0
40
0
40
1
40
1
40
1
10
125.67586012765244
20
134.23489828109729
30
0
10
126.39708109780625
20
133.52061290740954
30
0
10
126.39708109780625
20
132.11978096961963
30
0
0
LINE
5
233
100
AcDbEntity
8
0
100
AcDbLine
10
126.39708109780625
20
132.11978096961963
30
0
11
126.39708109780622
21
128.06985039710986
31
0
0
SPLINE
5
234
100
AcDbEntity
8
0
100
AcDbSpline
70
0
71
2
72
6
73
3
74
0
42
0.000000001
43
0.0000000001
44
0.0000000001
40
0
40
0
40
0
40
1
40
1
40
1
10
126.39708109780622
20
128.06985039710986
30
0
10
126.39708109780622
20
127.69536991119374
30
0
10
126.13355942651106
20
127.51506586074818
30
0
0
SPLINE
5
235
100
AcDbEntity
8
0
100
AcDbSpline
70
0
71
2
72
6
73
3
74
0
42
0.000000001
43
0.0000000001
44
0.0000000001
40
0
40
0
40
0
40
1
40
1
40
1
10
126.13355942651106
20
127.51506586074818
30
0
10
125.8700353710301
20
127.33476061820973
30
0
10
125.52329369469953
20
127.33476061820973
30
0
0
SPLINE
5
236
100
AcDbEntity
8
0
100
AcDbSpline
70
0
71
2
72
6
73
3
74
0
42
0.000000001
43
0.0000000001
44
0.0000000001
40
0
40
0
40
0
40
1
40
1
40
1
10
125.52329369469953
20
127.33476061820973
30
0
10
125.19042321130109
20
127.33476061820973
30
0
10
124.91996594353986
20
127.51506586074818
30
0
0
SPLINE
5
237
100
AcDbEntity
8
0
100
AcDbSpline
70
0
71
2
72
6
73
3
74
0
42
0.000000001
43
0.0000000001
44
0.0000000001
40
0
40
0
40
0
40
1
40
1
40
1
10
124.91996594353986
20
127.51506586074818
30
0
10
124.64950867577863
20
127.69536991119374
30
0
10
124.64950867577863
20
128.06985039710986
30
0
0
LINE
5
238
100
AcDbEntity
8
0
100
AcDbLine
10
124.64950867577863
20
128.06985039710989
30
0
11
124.64950867577866
21
131.74530048370349
31
0
0
SPLINE
5
239
100
AcDbEntity
8
0
100
AcDbSpline
70
0
71
2
72
6
73
3
74
0
42
0.000000001
43
0.0000000001
44
0.0000000001
40
0
40
0
40
0
40
1
40
1
40
1
10
124.64950867577866
20
131.74530048370349
30
0
10
124.64950867577866
20
132.24460740089404
30
0
10
124.53855105325059
20
132.57054347991931
30
0
0
SPLINE
5
240
100
AcDbEntity
8
0
100
AcDbSpline
70
0
71
2
72
6
73
3
74
0
42
0.000000001
43
0.0000000001
44
0.0000000001
40
0
40
0
40
0
40
1
40
1
40
1
10
124.53855105325059
20
132.57054347991931
30
0
10
124.42759343072251
20
132.89647955894458
30
0
10
124.23342057153062
20
133.08372039794909
30
0
0
SPLINE
5
241
100
AcDbEntity
8
0
100
AcDbSpline
70
0
71
2
72
6
73
3
74
0
42
0.000000001
43
0.0000000001
44
0.0000000001
40
0
40
0
40
0
40
1
40
1
40
1
10
124.23342057153062
20
133.08372039794909
30
0
10
124.03924532815293
20
133.27096004486071
30
0
10
123.7687880603917
20
133.34724206924426
30
0
0
SPLINE
5
242
100
AcDbEntity
8
0
100
AcDbSpline
70
0
71
2
72
6
73
3
74
0
42
0.000000001
43
0.0000000001
44
0.0000000001
40
0
40
0
40
0
40
1
40
1
40
1
10
123.7687880603917
20
133.34724206924426
30
0
10
123.49832840844468
20
133.4235252857207
30
0
10
123.19319792672471
20
133.4235252857207
30
0
0
SPLINE
5
243
100
AcDbEntity
8
0
100
AcDbSpline
70
0
71
2
72
6
73
3
74
0
42
0.000000001
43
0.0000000001
44
0.0000000001
40
0
40
0
40
0
40
1
40
1
40
1
10
123.19319792672471
20
133.4235252857207
30
0
10
122.92967387124375
20
133.4235252857207
30
0
10
122.63841219827012
20
133.34030766487109
30
0
0
SPLINE
5
244
100
AcDbEntity
8
0
100
AcDbSpline
70
0
71
2
72
6
73
3
74
0
42
0.000000001
43
0.0000000001
44
0.0000000001
40
0
40
0
40
0
40
1
40
1
40
1
10
122.63841219827012
20
133.34030766487109
30
0
10
122.34715052529648
20
133.25709004402148
30
0
10
122.10443325921372
20
133.04904479980456
30
0
0
SPLINE
5
245
100
AcDbEntity
8
0
100
AcDbSpline
70
0
71
2
72
6
73
3
74
0
42
0.000000001
43
0.0000000001
44
0.0000000001
40
0
40
0
40
0
40
1
40
1
40
1
10
122.10443325921372
20
133.04904479980456
30
0
10
121.86171360894517
20
132.84100074768054
30
0
10
121.70221396371201
20
132.49426026344287
30
0
0
SPLINE
5
246
100
AcDbEntity
8
0
100
AcDbSpline
70
0
71
2
72
6
73
3
74
0
42
0.000000001
43
0.0000000001
44
0.0000000001
40
0
40
0
40
0
40
1
40
1
40
1
10
121.70221396371201
20
132.49426026344287
30
0
10
121.54271193429307
20
132.1475197792052
30
0
10
121.54271193429304
20
131.63434405326831
30
0
0
LINE
5
247
100
AcDbEntity
8
0
100
AcDbLine
10
121.54271193429304
20
131.63434405326831
30
0
11
121.54271193429302
21
128.06985039710986
31
0
0
SPLINE
5
248
100
AcDbEntity
8
0
100
AcDbSpline
70
0
71
2
72
6
73
3
74
0
42
0.000000001
43
0.0000000001
44
0.0000000001
40
0
40
0
40
0
40
1
40
1
40
1
10
121.54271193429304
20
128.06985039710986
30
0
10
121.54271193429304
20
127.69536991119374
30
0
10
121.27919026299787
20
127.51506586074818
30
0
0
SPLINE
5
249
100
AcDbEntity
8
0
100
AcDbSpline
70
0
71
2
72
6
73
3
74
0
42
0.000000001
43
0.0000000001
44
0.0000000001
40
0
40
0
40
0
40
1
40
1
40
1
10
121.27919026299787
20
127.51506586074818
30
0
10
121.01566620751692
20
127.33476061820973
30
0
10
120.66892691537214
20
127.33476061820973
30
0
0
SPLINE
5
250
100
AcDbEntity
8
0
100
AcDbSpline
70
0
71
2
72
6
73
3
74
0
42
0.000000001
43
0.0000000001
44
0.0000000001
40
0
40
0
40
0
40
1
40
1
40
1
10
120.66892691537214
20
127.33476061820973
30
0
10
120.33605404778791
20
127.33476061820973
30
0
10
120.06559678002668
20
127.51506586074818
30
0
0
SPLINE
5
251
100
AcDbEntity
8
0
100
AcDbSpline
70
0
71
2
72
6
73
3
74
0
42
0.000000001
43
0.0000000001
44
0.0000000001
40
0
40
0
40
0
40
1
40
1
40
1
10
120.06559678002668
20
127.51506586074818
30
0
10
119.79513951226545
20
127.69536991119374
30
0
10
119.79513951226545
20
128.06985039710986
30
0
0
LINE
5
252
100
AcDbEntity
8
0
100
AcDbLine
10
119.79513951226545
20
128.06985039710989
30
0
11
119.79513951226548
21
134.15861625671374
31
0
0
SPLINE
5
253
100
AcDbEntity
8
0
100
AcDbSpline
70
0
71
2
72
6
73
3
74
0
42
0.000000001
43
0.0000000001
44
0.0000000001
40
0
40
0
40
0
40
1
40
1
40
1
10
119.79513951226548
20
134.15861625671374
30
0
10
119.79513951226548
20
134.51922554969775
30
0
10
120.05172797128037
20
134.69259519577014
30
0
0
SPLINE
5
254
100
AcDbEntity
8
0
100
AcDbSpline
70
0
71
2
72
6
73
3
74
0
42
0.000000001
43
0.0000000001
44
0.0000000001
40
0
40
0
40
0
40
1
40
1
40
1
10
120.05172797128037
20
134.69259519577014
30
0
10
120.30831643029526
20
134.86596603393542
30
0
10
120.62731810494736
20
134.86596603393542
30
0
0
SPLINE
5
255
100
AcDbEntity
8
0
100
AcDbSpline
70
0
71
2
72
6
73
3
74
0
42
0.000000001
43
0.0000000001
44
0.0000000001
40
0
40
0
40
0
40
1
40
1
40
1
10
120.62731810494736
20
134.86596603393542
30
0
10
120.94631739541367
20
134.86596603393542
30
0
10
121.20290585442856
20
134.69259519577014
30
0
0
SPLINE
5
256
100
AcDbEntity
8
0
100
AcDbSpline
70
0
71
2
72
6
73
3
74
0
42
0.000000001
43
0.0000000001
44
0.0000000001
40
0
40
0
40
0
40
1
40
1
40
1
10
121.20290585442856
20
134.69259519577014
30
0
10
121.45949431344346
20
134.51922554969775
30
0
10
121.45949431344346
20
134.15861625671374
30
0
0
LINE
5
257
100
AcDbEntity
8
0
100
AcDbLine
10
121.45949431344346
20
134.15861625671374
30
0
11
121.45949431344346
21
133.90896220207202
31
0
0
LINE
5
258
100
AcDbEntity
8
0
100
AcDbLine
10
121.45949431344346
20
133.90896220207202
30
0
11
121.48723431512192
21
133.90896220207202
31
0
0
SPLINE
5
259
100
AcDbEntity
8
0
100
AcDbSpline
70
0
71
2
72
6
73
3
74
0
42
0.000000001
43
0.0000000001
44
0.0000000001
40
0
40
0
40
0
40
1
40
1
40
1
10
121.48723431512192
20
133.90896220207202
30
0
10
121.65366955682114
20
134.17248506546008
30
0
10
121.90332241936997
20
134.37359471321093
30
0
0
SPLINE
5
260
100
AcDbEntity
8
0
100
AcDbSpline
70
0
71
2
72
6
73
3
74
0
42
0.000000001
43
0.0000000001
44
0.0000000001
40
0
40
0
40
0
40
1
40
1
40
1
10
121.90332241936997
20
134.37359471321093
30
0
10
122.1529752819188
20
134.57470436096179
30
0
10
122.4511725513585
20
134.6995307922362
30
0
0
SPLINE
5
261
100
AcDbEntity
8
0
100
AcDbSpline
70
0
71
2
72
6
73
3
74
0
42
0.000000001
43
0.0000000001
44
0.0000000001
40
0
40
0
40
0
40
1
40
1
40
1
10
122.4511725513585
20
134.6995307922362
30
0
10
122.74936982079819
20
134.82435722351062
30
0
10
123.08224030419663
20
134.88677043914782
30
0
0
SPLINE
5
262
100
AcDbEntity
8
0
100
AcDbSpline
70
0
71
2
72
6
73
3
74
0
42
0.000000001
43
0.0000000001
44
0.0000000001
40
0
40
0
40
0
40
1
40
1
40
1
10
123.08224030419663
20
134.88677043914782
30
0
10
123.41511078759507
20
134.94918365478503
30
0
10
123.73411246224717
20
134.94918365478503
30
0
0
SPLINE
5
263
100
AcDbEntity
8
0
100
AcDbSpline
70
0
71
2
72
6
73
3
74
0
42
0.000000001
43
0.0000000001
44
0.0000000001
40
0
40
0
40
0
40
1
40
1
40
1
10
128.87974329873398
20
137.70923991203296
30
0
10
129.22648259087876
20
137.70923991203296
30
0
10
129.49694224282578
20
137.5289346694945
30
0
0
SPLINE
5
264
100
AcDbEntity
8
0
100
AcDbSpline
70
0
71
2
72
6
73
3
74
0
42
0.000000001
43
0.0000000001
44
0.0000000001
40
0
40
0
40
0
40
1
40
1
40
1
10
129.49694224282578
20
137.5289346694945
30
0
10
129.76739951058701
20
137.34862942695605
30
0
10
129.75353070184067
20
136.96028013229358
30
0
0
LINE
5
265
100
AcDbEntity
8
0
100
AcDbLine
10
129.75353070184067
20
136.9602801322936
30
0
11
129.6425730793126
21
134.99079246520984
31
0
0
SPLINE
5
266
100
AcDbEntity
8
0
100
AcDbSpline
70
0
71
2
72
6
73
3
74
0
42
0.000000001
43
0.0000000001
44
0.0000000001
40
0
40
0
40
0
40
1
40
1
40
1
10
129.6425730793126
20
134.99079246520984
30
0
10
129.60096426888779
20
134.24183387756335
30
0
10
128.87974329873398
20
134.24183387756335
30
0
0
SPLINE
5
267
100
AcDbEntity
8
0
100
AcDbSpline
70
0
71
2
72
6
73
3
74
0
42
0.000000001
43
0.0000000001
44
0.0000000001
40
0
40
0
40
0
40
1
40
1
40
1
10
128.87974329873398
20
134.24183387756335
30
0
10
128.15852232858018
20
134.24183387756335
30
0
10
128.11691351815537
20
134.99079246520984
30
0
0
LINE
5
268
100
AcDbEntity
8
0
100
AcDbLine
10
128.11691351815537
20
134.99079246520984
30
0
11
128.0059558956273
21
136.96028013229358
31
0
0
SPLINE
5
269
100
AcDbEntity
8
0
100
AcDbSpline
70
0
71
2
72
6
73
3
74
0
42
0.000000001
43
0.0000000001
44
0.0000000001
40
0
40
0
40
0
40
1
40
1
40
1
10
128.0059558956273
20
136.96028013229358
30
0
10
127.99208708688096
20
137.15445418357837
30
0
10
128.06143589898423
20
137.29315061569201
30
0
0
SPLINE
5
270
100
AcDbEntity
8
0
100
AcDbSpline
70
0
71
2
72
6
73
3
74
0
42
0.000000001
43
0.0000000001
44
0.0000000001
40
0
40
0
40
0
40
1
40
1
40
1
10
128.06143589898423
20
137.29315061569201
30
0
10
128.13078232690171
20
137.43184704780566
30
0
10
128.25560875817612
20
137.5289346694945
30
0
0
SPLINE
5
271
100
AcDbEntity
8
0
100
AcDbSpline
70
0
71
2
72
6
73
3
74
0
42
0.000000001
43
0.0000000001
44
0.0000000001
40
0
40
0
40
0
40
1
40
1
40
1
10
128.25560875817612
20
137.5289346694945
30
0
10
128.38043757363633
20
137.62602109909045
30
0
10
128.54687281533555
20
137.66762990951526
30
0
0
SPLINE
5
272
100
AcDbEntity
8
0
100
AcDbSpline
70
0
71
2
72
6
73
3
74
0
42
0.000000001
43
0.0000000001
44
0.0000000001
40
0
40
0
40
0
40
1
40
1
40
1
10
128.54687281533555
20
137.66762990951526
30
0
10
128.71330805703477
20
137.70923991203296
30
0
10
128.87974329873398
20
137.70923991203296
30
0
0
SPLINE
5
273
100
AcDbEntity
8
0
100
AcDbSpline
70
0
71
2
72
6
73
3
74
0
42
0.000000001
43
0.0000000001
44
0.0000000001
40
0
40
0
40
0
40
1
40
1
40
1
10
132.790978631223
20
136.82158370017993
30
0
10
133.13771553918198
20
136.82158370017993
30
0
10
133.40124436303452
20
136.64127845764148
30
0
0
SPLINE
5
274
100
AcDbEntity
8
0
100
AcDbSpline
70
0
71
2
72
6
73
3
74
0
42
0.000000001
43
0.0000000001
44
0.0000000001
40
0
40
0
40
0
40
1
40
1
40
1
10
133.40124436303452
20
136.64127845764148
30
0
10
133.6647636501439
20
136.46097440719592
30
0
10
133.6647636501439
20
136.07262392044055
30
0
0
LINE
5
275
100
AcDbEntity
8
0
100
AcDbLine
10
133.6647636501439
20
136.07262392044055
30
0
11
133.6647636501439
21
134.78274841308581
31
0
0
LINE
5
276
100
AcDbEntity
8
0
100
AcDbLine
10
133.6647636501439
20
134.78274841308581
30
0
11
135.12107201501206
21
134.78274841308581
31
0
0
SPLINE
5
277
100
AcDbEntity
8
0
100
AcDbSpline
70
0
71
2
72
6
73
3
74
0
42
0.000000001
43
0.0000000001
44
0.0000000001
40
0
40
0
40
0
40
1
40
1
40
1
10
135.12107201501206
20
134.78274841308581
30
0
10
135.44007607384995
20
134.78274841308581
30
0
10
135.58570691033677
20
134.56776995658862
30
0
0
SPLINE
5
278
100
AcDbEntity
8
0
100
AcDbSpline
70
0
71
2
72
6
73
3
74
0
42
0.000000001
43
0.0000000001
44
0.0000000001
40
0
40
0
40
0
40
1
40
1
40
1
10
135.58570691033677
20
134.56776995658862
30
0
10
135.73133774682358
20
134.35279150009143
30
0
10
135.73133774682358
20
134.0615286350249
30
0
0
SPLINE
5
279
100
AcDbEntity
8
0
100
AcDbSpline
70
0
71
2
72
6
73
3
74
0
42
0.000000001
43
0.0000000001
44
0.0000000001
40
0
40
0
40
0
40
1
40
1
40
1
10
135.73133774682358
20
134.0615286350249
30
0
10
135.73133774682358
20
133.77026576995837
30
0
10
135.58570691033677
20
133.55528731346118
30
0
0
SPLINE
5
280
100
AcDbEntity
8
0
100
AcDbSpline
70
0
71
2
72
6
73
3
74
0
42
0.000000001
43
0.0000000001
44
0.0000000001
40
0
40
0
40
0
40
1
40
1
40
1
10
135.58570691033677
20
133.55528731346118
30
0
10
135.44007607384995
20
133.34030885696399
30
0
10
135.12107201501206
20
133.34030885696399
30
0
0
LINE
5
281
100
AcDbEntity
8
0
100
AcDbLine
10
135.12107201501206
20
133.34030885696399
30
0
11
133.6647636501439
21
133.34030885696399
31
0
0
LINE
5
282
100
AcDbEntity
8
0
100
AcDbLine
10
133.6647636501439
20
133.34030885696399
30
0
11
133.66476365014387
21
129.6787263870238
31
0
0
SPLINE
5
283
100
AcDbEntity
8
0
100
AcDbSpline
70
0
71
2
72
6
73
3
74
0
42
0.000000001
43
0.0000000001
44
0.0000000001
40
0
40
0
40
0
40
1
40
1
40
1
10
133.66476365014387
20
129.6787263870238
30
0
10
133.66476365014387
20
128.79107017517077
30
0
10
134.34437580987287
20
128.79107017517077
30
0
0
SPLINE
5
284
100
AcDbEntity
8
0
100
AcDbSpline
70
0
71
2
72
6
73
3
74
0
42
0.000000001
43
0.0000000001
44
0.0000000001
40
0
40
0
40
0
40
1
40
1
40
1
10
134.34437580987287
20
128.79107017517077
30
0
10
134.66337510033918
20
128.79107017517077
30
0
10
134.98237915917707
20
128.90202779769885
30
0
0
SPLINE
5
285
100
AcDbEntity
8
0
100
AcDbSpline
70
0
71
2
72
6
73
3
74
0
42
0.000000001
43
0.0000000001
44
0.0000000001
40
0
40
0
40
0
40
1
40
1
40
1
10
134.98237915917707
20
128.90202779769885
30
0
10
135.20429440423322
20
128.97137541770923
30
0
10
135.42620964928938
20
128.87428898811328
30
0
0
SPLINE
5
286
100
AcDbEntity
8
0
100
AcDbSpline
70
0
71
2
72
6
73
3
74
0
42
0.000000001
43
0.0000000001
44
0.0000000001
40
0
40
0
40
0
40
1
40
1
40
1
10
135.42620964928938
20
128.87428898811328
30
0
10
135.64812012597395
20
128.77720136642444
30
0
10
135.75908013268781
20
128.4443296909331
30
0
0
SPLINE
5
287
100
AcDbEntity
8
0
100
AcDbSpline
70
0
71
2
72
6
73
3
74
0
42
0.000000001
43
0.0000000001
44
0.0000000001
40
0
40
0
40
0
40
1
40
1
40
1
10
135.75908013268781
20
128.4443296909331
30
0
10
135.85616417809797
20
128.15306801795947
30
0
10
135.76601334496809
20
127.90341515541066
30
0
0
SPLINE
5
288
100
AcDbEntity
8
0
100
AcDbSpline
70
0
71
2
72
6
73
3
74
0
42
0.000000001
43
0.0000000001
44
0.0000000001
40
0
40
0
40
0
40
1
40
1
40
1
10
135.76601334496809
20
127.90341515541066
30
0
10
135.6758625118382
20
127.65376110076893
30
0
10
135.41233845635725
20
127.54280467033375
30
0
0
SPLINE
5
289
100
AcDbEntity
8
0
100
AcDbSpline
70
0
71
2
72
6
73
3
74
0
42
0.000000001
43
0.0000000001
44
0.0000000001
40
0
40
0
40
0
40
1
40
1
40
1
10
135.41233845635725
20
127.54280467033375
30
0
10
135.16268082543684
20
127.43184704780568
30
0
10
134.84368153497053
20
127.36943383216847
30
0
0
SPLINE
5
290
100
AcDbEntity
8
0
100
AcDbSpline
70
0
71
2
72
6
73
3
74
0
42
0.000000001
43
0.0000000001
44
0.0000000001
40
0
40
0
40
0
40
1
40
1
40
1
10
134.84368153497053
20
127.36943383216847
30
0
10
134.52468224450422
20
127.30702061653126
30
0
10
134.19181176110578
20
127.30702061653126
30
0
0
SPLINE
5
291
100
AcDbEntity
8
0
100
AcDbSpline
70
0
71
2
72
6
73
3
74
0
42
0.000000001
43
0.0000000001
44
0.0000000001
40
0
40
0
40
0
40
1
40
1
40
1
10
134.19181176110578
20
127.30702061653126
30
0
10
132.95741387292219
20
127.30702061653126
30
0
10
132.43730374261213
20
127.92421956062306
30
0
0
SPLINE
5
292
100
AcDbEntity
8
0
100
AcDbSpline
70
0
71
2
72
6
73
3
74
0
42
0.000000001
43
0.0000000001
44
0.0000000001
40
0
40
0
40
0
40
1
40
1
40
1
10
132.43730374261213
20
127.92421956062306
30
0
10
131.91719122811628
20
128.54141731262195
30
0
10
131.91719122811628
20
129.76194400787341
30
0
0
LINE
5
293
100
AcDbEntity
8
0
100
AcDbLine
10
131.91719122811628
20
129.76194400787344
30
0
11
131.91719122811631
21
133.34030885696399
31
0
0
LINE
5
294
100
AcDbEntity
8
0
100
AcDbLine
10
131.91719122811631
20
133.34030885696399
30
0
11
131.22371025964097
21
133.34030885696399
31
0
0
SPLINE
5
295
100
AcDbEntity
8
0
100
AcDbSpline
70
0
71
2
72
6
73
3
74
0
42
0.000000001
43
0.0000000001
44
0.0000000001
40
0
40
0
40
0
40
1
40
1
40
1
10
131.22371025964097
20
133.34030885696399
30
0
10
130.90470858498887
20
133.34030885696399
30
0
10
130.75907774850205
20
133.55528731346118
30
0
0
SPLINE
5
296
100
AcDbEntity
8
0
100
AcDbSpline
70
0
71
2
72
6
73
3
74
0
42
0.000000001
43
0.0000000001
44
0.0000000001
40
0
40
0
40
0
40
1
40
1
40
1
10
130.75907774850205
20
133.55528731346118
30
0
10
130.61344691201523
20
133.77026576995837
30
0
10
130.61344691201523
20
134.0615286350249
30
0
0
SPLINE
5
297
100
AcDbEntity
8
0
100
AcDbSpline
70
0
71
2
72
6
73
3
74
0
42
0.000000001
43
0.0000000001
44
0.0000000001
40
0
40
0
40
0
40
1
40
1
40
1
10
130.61344691201523
20
134.0615286350249
30
0
10
130.61344691201523
20
134.35279150009143
30
0
10
130.75907774850205
20
134.56776995658862
30
0
0
SPLINE
5
298
100
AcDbEntity
8
0
100
AcDbSpline
70
0
71
2
72
6
73
3
74
0
42
0.000000001
43
0.0000000001
44
0.0000000001
40
0
40
0
40
0
40
1
40
1
40
1
10
130.75907774850205
20
134.56776995658862
30
0
10
130.90470858498887
20
134.78274841308581
30
0
10
131.22371025964097
20
134.78274841308581
30
0
0
LINE
5
299
100
AcDbEntity
8
0
100
AcDbLine
10
131.22371025964097
20
134.78274841308581
30
0
11
131.91719122811631
21
134.78274841308581
31
0
0
LINE
5
300
100
AcDbEntity
8
0
100
AcDbLine
10
131.91719122811631
20
134.78274841308581
30
0
11
131.91719122811631
21
136.07262392044055
31
0
0
SPLINE
5
301
100
AcDbEntity
8
0
100
AcDbSpline
70
0
71
2
72
6
73
3
74
0
42
0.000000001
43
0.0000000001
44
0.0000000001
40
0
40
0
40
0
40
1
40
1
40
1
10
131.91719122811631
20
136.07262392044055
30
0
10
131.91719122811631
20
136.46097440719592
30
0
10
132.18071528359727
20
136.64127845764148
30
0
0
SPLINE
5
302
100
AcDbEntity
8
0
100
AcDbSpline
70
0
71
2
72
6
73
3
74
0
42
0.000000001
43
0.0000000001
44
0.0000000001
40
0
40
0
40
0
40
1
40
1
40
1
10
132.18071528359727
20
136.64127845764148
30
0
10
132.44423695489243
20
136.82158370017993
30
0
10
132.790978631223
20
136.82158370017993
30
0
0
SPLINE
5
303
100
AcDbEntity
8
0
100
AcDbSpline
70
0
71
2
72
6
73
3
74
0
42
0.000000001
43
0.0000000001
44
0.0000000001
40
0
40
0
40
0
40
1
40
1
40
1
10
141.50110073968247
20
137.70923871994006
30
0
10
141.84784241601304
20
137.70923871994006
30
0
10
142.11136647149399
20
137.52893347740161
30
0
0
SPLINE
5
304
100
AcDbEntity
8
0
100
AcDbSpline
70
0
71
2
72
6
73
3
74
0
42
0.000000001
43
0.0000000001
44
0.0000000001
40
0
40
0
40
0
40
1
40
1
40
1
10
142.11136647149399
20
137.52893347740161
30
0
10
142.37489052697495
20
137.3486288309096
30
0
10
142.37489052697495
20
136.97414894103991
30
0
0
LINE
5
305
100
AcDbEntity
8
0
100
AcDbLine
10
142.37489052697495
20
136.97414894103991
30
0
11
142.37489052697495
21
134.03378863334643
31
0
0
SPLINE
5
306
100
AcDbEntity
8
0
100
AcDbSpline
70
0
71
2
72
6
73
3
74
0
42
0.000000001
43
0.0000000001
44
0.0000000001
40
0
40
0
40
0
40
1
40
1
40
1
10
142.37489052697495
20
134.03378863334643
30
0
10
142.55519219323472
20
134.29731149673449
30
0
10
142.82564946099595
20
134.47761673927295
30
0
0
SPLINE
5
307
100
AcDbEntity
8
0
100
AcDbSpline
70
0
71
2
72
6
73
3
74
0
42
0.000000001
43
0.0000000001
44
0.0000000001
40
0
40
0
40
0
40
1
40
1
40
1
10
142.82564946099595
20
134.47761673927295
30
0
10
143.09610672875718
20
134.6579219818114
30
0
10
143.38043518945054
20
134.76194400787341
30
0
0
SPLINE
5
308
100
AcDbEntity
8
0
100
AcDbSpline
70
0
71
2
72
6
73
3
74
0
42
0.000000001
43
0.0000000001
44
0.0000000001
40
0
40
0
40
0
40
1
40
1
40
1
10
143.38043518945054
20
134.76194400787341
30
0
10
143.6647636501439
20
134.86596603393542
30
0
10
143.94909211083726
20
134.90757484436023
30
0
0
SPLINE
5
309
100
AcDbEntity
8
0
100
AcDbSpline
70
0
71
2
72
6
73
3
74
0
42
0.000000001
43
0.0000000001
44
0.0000000001
40
0
40
0
40
0
40
1
40
1
40
1
10
143.94909211083726
20
134.90757484436023
30
0
10
144.23341580315903
20
134.94918365478503
30
0
10
144.46920224114731
20
134.94918365478503
30
0
0
SPLINE
5
310
100
AcDbEntity
8
0
100
AcDbSpline
70
0
71
2
72
6
73
3
74
0
42
0.000000001
43
0.0000000001
44
0.0000000001
40
0
40
0
40
0
40
1
40
1
40
1
10
144.46920224114731
20
134.94918365478503
30
0
10
145.98099060937241
20
134.94918365478503
30
0
10
146.71608277245835
20
134.02685422897326
30
0
0
SPLINE
5
311
100
AcDbEntity
8
0
100
AcDbSpline
70
0
71
2
72
6
73
3
74
0
42
0.000000001
43
0.0000000001
44
0.0000000001
40
0
40
0
40
0
40
1
40
1
40
1
10
146.71608277245835
20
134.02685422897326
30
0
10
147.45117016717271
20
133.1045236110686
30
0
10
147.45117016717268
20
131.31534237861621
30
0
0
LINE
5
312
100
AcDbEntity
8
0
100
AcDbLine
10
147.45117016717268
20
131.31534237861621
30
0
11
147.45117016717268
21
130.9547318935393
31
0
0
SPLINE
5
313
100
AcDbEntity
8
0
100
AcDbSpline
70
0
71
2
72
6
73
3
74
0
42
0.000000001
43
0.0000000001
44
0.0000000001
40
0
40
0
40
0
40
1
40
1
40
1
10
147.45117016717268
20
130.9547318935393
30
0
10
147.45117016717268
20
130.05320568084704
30
0
10
147.22925969048811
20
129.36666030883777
30
0
0
SPLINE
5
314
100
AcDbEntity
8
0
100
AcDbSpline
70
0
71
2
72
6
73
3
74
0
42
0.000000001
43
0.0000000001
44
0.0000000001
40
0
40
0
40
0
40
1
40
1
40
1
10
147.22925969048811
20
129.36666030883777
30
0
10
147.00734444543195
20
128.68011374473559
30
0
10
146.60512276574445
20
128.22241563796985
30
0
0
SPLINE
5
315
100
AcDbEntity
8
0
100
AcDbSpline
70
0
71
2
72
6
73
3
74
0
42
0.000000001
43
0.0000000001
44
0.0000000001
40
0
40
0
40
0
40
1
40
1
40
1
10
146.60512276574445
20
128.22241563796985
30
0
10
146.20290585442854
20
127.76471872329701
30
0
10
145.64118691369367
20
127.53587026596058
30
0
0
SPLINE
5
316
100
AcDbEntity
8
0
100
AcDbSpline
70
0
71
2
72
6
73
3
74
0
42
0.000000001
43
0.0000000001
44
0.0000000001
40
0
40
0
40
0
40
1
40
1
40
1
10
145.64118691369367
20
127.53587026596058
30
0
10
145.07946320458723
20
127.30702061653126
30
0
10
144.38598462029768
20
127.30702061653126
30
0
0
SPLINE
5
317
100
AcDbEntity
8
0
100
AcDbSpline
70
0
71
2
72
6
73
3
74
0
42
0.000000001
43
0.0000000001
44
0.0000000001
40
0
40
0
40
0
40
1
40
1
40
1
10
144.38598462029768
20
127.30702061653126
30
0
10
143.62315483971906
20
127.30702061653126
30
0
10
143.10997792168928
20
127.58441348075856
30
0
0
SPLINE
5
318
100
AcDbEntity
8
0
100
AcDbSpline
70
0
71
2
72
6
73
3
74
0
42
0.000000001
43
0.0000000001
44
0.0000000001
40
0
40
0
40
0
40
1
40
1
40
1
10
143.10997792168928
20
127.58441348075856
30
0
10
142.59680100365949
20
127.86180634498585
30
0
10
142.33328171655012
20
128.30563325881946
30
0
0
LINE
5
319
100
AcDbEntity
8
0
100
AcDbLine
10
142.33328171655012
20
128.30563325881948
30
0
11
142.29167290612531
21
128.30563325881946
31
0
0
LINE
5
320
100
AcDbEntity
8
0
100
AcDbLine
10
142.29167290612531
20
128.30563325881946
30
0
11
142.29167290612531
21
128.04211158752429
31
0
0
SPLINE
5
321
100
AcDbEntity
8
0
100
AcDbSpline
70
0
71
2
72
6
73
3
74
0
42
0.000000001
43
0.0000000001
44
0.0000000001
40
0
40
0
40
0
40
1
40
1
40
1
10
142.29167290612531
20
128.04211158752429
30
0
10
142.29167290612531
20
127.6815011024474
30
0
10
142.03508206292463
20
127.50813026428212
30
0
0
SPLINE
5
322
100
AcDbEntity
8
0
100
AcDbSpline
70
0
71
2
72
6
73
3
74
0
42
0.000000001
43
0.0000000001
44
0.0000000001
40
0
40
0
40
0
40
1
40
1
40
1
10
142.03508206292463
20
127.50813026428212
30
0
10
141.77849598809553
20
127.33476061820973
30
0
10
141.45949192925764
20
127.33476061820973
30
0
0
SPLINE
5
323
100
AcDbEntity
8
0
100
AcDbSpline
70
0
71
2
72
6
73
3
74
0
42
0.000000001
43
0.0000000001
44
0.0000000001
40
0
40
0
40
0
40
1
40
1
40
1
10
141.45949192925764
20
127.33476061820973
30
0
10
141.14049263879133
20
127.33476061820973
30
0
10
140.88390179559065
20
127.50813026428212
30
0
0
SPLINE
5
324
100
AcDbEntity
8
0
100
AcDbSpline
70
0
71
2
72
6
73
3
74
0
42
0.000000001
43
0.0000000001
44
0.0000000001
40
0
40
0
40
0
40
1
40
1
40
1
10
140.88390179559065
20
127.50813026428212
30
0
10
140.62731572076154
20
127.6815011024474
30
0
10
140.62731572076154
20
128.04211158752429
30
0
0
LINE
5
325
100
AcDbEntity
8
0
100
AcDbLine
10
140.62731572076154
20
128.04211158752429
30
0
11
140.62731572076154
21
136.97414894103991
31
0
0
SPLINE
5
326
100
AcDbEntity
8
0
100
AcDbSpline
70
0
71
2
72
6
73
3
74
0
42
0.000000001
43
0.0000000001
44
0.0000000001
40
0
40
0
40
0
40
1
40
1
40
1
10
140.62731572076157
20
136.97414894103991
30
0
10
140.62731572076157
20
137.3486288309096
30
0
10
140.8977729885228
20
137.52893347740161
30
0
0
SPLINE
5
327
100
AcDbEntity
8
0
100
AcDbSpline
70
0
71
2
72
6
73
3
74
0
42
0.000000001
43
0.0000000001
44
0.0000000001
40
0
40
0
40
0
40
1
40
1
40
1
10
140.8977729885228
20
137.52893347740161
30
0
10
141.16823025628403
20
137.70923871994006
30
0
10
141.50110073968247
20
137.70923871994006
30
0
0
SPLINE
5
328
100
AcDbEntity
8
0
100
AcDbSpline
70
0
71
2
72
6
73
3
74
0
42
0.000000001
43
0.0000000001
44
0.0000000001
40
0
40
0
40
0
40
1
40
1
40
1
10
144.12246056481675
20
133.45126409530627
30
0
10
143.24867554589585
20
133.45126409530627
30
0
10
142.79791184350327
20
132.94502277374255
30
0
0
SPLINE
5
329
100
AcDbEntity
8
0
100
AcDbSpline
70
0
71
2
72
6
73
3
74
0
42
0.000000001
43
0.0000000001
44
0.0000000001
40
0
40
0
40
0
40
1
40
1
40
1
10
142.79791184350327
20
132.94502277374255
30
0
10
142.34714814111067
20
132.43878145217883
30
0
10
142.34714814111067
20
131.64821286201465
30
0
0
LINE
5
330
100
AcDbEntity
8
0
100
AcDbLine
10
142.34714814111067
20
131.64821286201467
30
0
11
142.34714814111067
21
130.3583385467528
31
0
0
SPLINE
5
331
100
AcDbEntity
8
0
100
AcDbSpline
70
0
71
2
72
6
73
3
74
0
42
0.000000001
43
0.0000000001
44
0.0000000001
40
0
40
0
40
0
40
1
40
1
40
1
10
142.34714814111067
20
130.3583385467528
30
0
10
142.34714814111067
20
130.06707568168628
30
0
10
142.48584576531721
20
129.78968400955188
30
0
0
SPLINE
5
332
100
AcDbEntity
8
0
100
AcDbSpline
70
0
71
2
72
6
73
3
74
0
42
0.000000001
43
0.0000000001
44
0.0000000001
40
0
40
0
40
0
40
1
40
1
40
1
10
142.48584576531721
20
129.78968400955188
30
0
10
142.62454338952375
20
129.51229114532458
30
0
10
142.86032505914045
20
129.29037709236133
30
0
0
SPLINE
5
333
100
AcDbEntity
8
0
100
AcDbSpline
70
0
71
2
72
6
73
3
74
0
42
0.000000001
43
0.0000000001
44
0.0000000001
40
0
40
0
40
0
40
1
40
1
40
1
10
142.86032505914045
20
129.29037709236133
30
0
10
143.09610672875715
20
129.06846303939807
30
0
10
143.42898198052717
20
128.92976660728442
30
0
0
SPLINE
5
334
100
AcDbEntity
8
0
100
AcDbSpline
70
0
71
2
72
6
73
3
74
0
42
0.000000001
43
0.0000000001
44
0.0000000001
40
0
40
0
40
0
40
1
40
1
40
1
10
143.42898198052717
20
128.92976660728442
30
0
10
143.76185246392561
20
128.79107017517077
30
0
10
144.16406937524152
20
128.79107017517077
30
0
0
SPLINE
5
335
100
AcDbEntity
8
0
100
AcDbSpline
70
0
71
2
72
6
73
3
74
0
42
0.000000001
43
0.0000000001
44
0.0000000001
40
0
40
0
40
0
40
1
40
1
40
1
10
144.16406937524152
20
128.79107017517077
30
0
10
145.71746655389143
20
128.79107017517077
30
0
10
145.71746655389143
20
130.99634070396411
30
0
0
LINE
5
336
100
AcDbEntity
8
0
100
AcDbLine
10
145.71746655389143
20
130.99634070396411
30
0
11
145.71746655389143
21
131.2737335681914
31
0
0
SPLINE
5
337
100
AcDbEntity
8
0
100
AcDbSpline
70
0
71
2
72
6
73
3
74
0
42
0.000000001
43
0.0000000001
44
0.0000000001
40
0
40
0
40
0
40
1
40
1
40
1
10
145.71746655389143
20
131.2737335681914
30
0
10
145.71746655389143
20
132.35556383132922
30
0
10
145.35685845300034
20
132.90341396331775
30
0
0
SPLINE
5
338
100
AcDbEntity
8
0
100
AcDbSpline
70
0
71
2
72
6
73
3
74
0
42
0.000000001
43
0.0000000001
44
0.0000000001
40
0
40
0
40
0
40
1
40
1
40
1
10
145.35685845300034
20
132.90341396331775
30
0
10
144.99624558373765
20
133.45126409530627
30
0
10
144.12246056481675
20
133.45126409530627
30
0
0
SPLINE
5
339
100
AcDbEntity
8
0
100
AcDbSpline
70
0
71
2
72
6
73
3
74
0
42
0.000000001
43
0.0000000001
44
0.0000000001
40
0
40
0
40
0
40
1
40
1
40
1
10
152.18071289941147
20
133.50674409866321
30
0
10
151.30692788049058
20
133.50674409866321
30
0
10
150.87003537103013
20
133.04904599189746
30
0
0
SPLINE
5
340
100
AcDbEntity
8
0
100
AcDbSpline
70
0
71
2
72
6
73
3
74
0
42
0.000000001
43
0.0000000001
44
0.0000000001
40
0
40
0
40
0
40
1
40
1
40
1
10
150.87003537103013
20
133.04904599189746
30
0
10
150.43314286156968
20
132.59134788513171
30
0
10
150.43314286156965
20
131.88399691581714
30
0
0
LINE
5
341
100
AcDbEntity
8
0
100
AcDbLine
10
150.43314286156965
20
131.88399691581714
30
0
11
150.43314286156965
21
131.78690929412829
31
0
0
LINE
5
342
100
AcDbEntity
8
0
100
AcDbLine
10
150.43314286156965
20
131.78690929412829
30
0
11
153.87280770226789
21
131.78690929412829
31
0
0
LINE
5
343
100
AcDbEntity
8
0
100
AcDbLine
10
153.87280770226789
20
131.78690929412829
30
0
11
153.87280770226789
21
131.92560572624194
31
0
0
SPLINE
5
344
100
AcDbEntity
8
0
100
AcDbSpline
70
0
71
2
72
6
73
3
74
0
42
0.000000001
43
0.0000000001
44
0.0000000001
40
0
40
0
40
0
40
1
40
1
40
1
10
153.87280770226789
20
131.92560572624194
30
0
10
153.87280770226792
20
132.60521788597094
30
0
10
153.48445721551255
20
133.05598039627063
30
0
0
SPLINE
5
345
100
AcDbEntity
8
0
100
AcDbSpline
70
0
71
2
72
6
73
3
74
0
42
0.000000001
43
0.0000000001
44
0.0000000001
40
0
40
0
40
0
40
1
40
1
40
1
10
153.48445721551255
20
133.05598039627063
30
0
10
153.09610672875718
20
133.50674409866321
30
0
10
152.18071289941147
20
133.50674409866321
30
0
0
SPLINE
5
346
100
AcDbEntity
8
0
100
AcDbSpline
70
0
71
2
72
6
73
3
74
0
42
0.000000001
43
0.0000000001
44
0.0000000001
40
0
40
0
40
0
40
1
40
1
40
1
10
152.20845051690415
20
134.94918365478503
30
0
10
152.95741387292222
20
134.94918365478503
30
0
10
153.56767483636216
20
134.72727079391467
30
0
0
SPLINE
5
347
100
AcDbEntity
8
0
100
AcDbSpline
70
0
71
2
72
6
73
3
74
0
42
0.000000001
43
0.0000000001
44
0.0000000001
40
0
40
0
40
0
40
1
40
1
40
1
10
153.56767483636216
20
134.72727079391467
30
0
10
154.17794056817368
20
134.50535674095141
30
0
10
154.6217662899144
20
134.08926744461047
30
0
0
SPLINE
5
348
100
AcDbEntity
8
0
100
AcDbSpline
70
0
71
2
72
6
73
3
74
0
42
0.000000001
43
0.0000000001
44
0.0000000001
40
0
40
0
40
0
40
1
40
1
40
1
10
154.6217662899144
20
134.08926744461047
30
0
10
155.06559678002671
20
133.67317934036242
30
0
10
155.30831166192368
20
133.06291599273669
30
0
0
SPLINE
5
349
100
AcDbEntity
8
0
100
AcDbSpline
70
0
71
2
72
6
73
3
74
0
42
0.000000001
43
0.0000000001
44
0.0000000001
40
0
40
0
40
0
40
1
40
1
40
1
10
155.30831166192368
20
133.06291599273669
30
0
10
155.55103131219221
20
132.45265264511096
30
0
10
155.55103131219221
20
131.66208286285388
30
0
0
LINE
5
350
100
AcDbEntity
8
0
100
AcDbLine
10
155.55103131219221
20
131.66208286285391
30
0
11
155.55103131219221
21
131.63434405326831
31
0
0
SPLINE
5
351
100
AcDbEntity
8
0
100
AcDbSpline
70
0
71
2
72
6
73
3
74
0
42
0.000000001
43
0.0000000001
44
0.0000000001
40
0
40
0
40
0
40
1
40
1
40
1
10
155.55103131219221
20
131.63434405326831
30
0
10
155.55103131219221
20
130.98247189521777
30
0
10
155.29444523736311
20
130.73281784057605
30
0
0
SPLINE
5
352
100
AcDbEntity
8
0
100
AcDbSpline
70
0
71
2
72
6
73
3
74
0
42
0.000000001
43
0.0000000001
44
0.0000000001
40
0
40
0
40
0
40
1
40
1
40
1
10
155.29444523736311
20
130.73281784057605
30
0
10
155.03785439416242
20
130.48316497802722
30
0
10
154.37211342736555
20
130.48316497802722
30
0
0
LINE
5
353
100
AcDbEntity
8
0
100
AcDbLine
10
154.37211342736555
20
130.48316497802722
30
0
11
150.43314286156965
21
130.48316497802722
31
0
0
LINE
5
354
100
AcDbEntity
8
0
100
AcDbLine
10
150.43314286156965
20
130.48316497802722
30
0
11
150.43314286156965
21
130.45542616844165
31
0
0
SPLINE
5
355
100
AcDbEntity
8
0
100
AcDbSpline
70
0
71
2
72
6
73
3
74
0
42
0.000000001
43
0.0000000001
44
0.0000000001
40
0
40
0
40
0
40
1
40
1
40
1
10
150.43314286156965
20
130.45542616844165
30
0
10
150.43314286156965
20
129.70646638870227
30
0
10
150.89777298852277
20
129.23489828109729
30
0
0
SPLINE
5
356
100
AcDbEntity
8
0
100
AcDbSpline
70
0
71
2
72
6
73
3
74
0
42
0.000000001
43
0.0000000001
44
0.0000000001
40
0
40
0
40
0
40
1
40
1
40
1
10
150.89777298852277
20
129.23489828109729
30
0
10
151.36240788384748
20
128.7633313655852
30
0
10
152.29166813775373
20
128.7633313655852
30
0
0
SPLINE
5
357
100
AcDbEntity
8
0
100
AcDbSpline
70
0
71
2
72
6
73
3
74
0
42
0.000000001
43
0.0000000001
44
0.0000000001
40
0
40
0
40
0
40
1
40
1
40
1
10
152.29166813775373
20
128.7633313655852
30
0
10
152.87419625207258
20
128.7633313655852
30
0
10
153.31108876153303
20
128.85348458290088
30
0
0
SPLINE
5
358
100
AcDbEntity
8
0
100
AcDbSpline
70
0
71
2
72
6
73
3
74
0
42
0.000000001
43
0.0000000001
44
0.0000000001
40
0
40
0
40
0
40
1
40
1
40
1
10
153.31108876153303
20
128.85348458290088
30
0
10
153.74798127099348
20
128.94363660812365
30
0
10
154.20567818566633
20
129.15168066024768
30
0
0
SPLINE
5
359
100
AcDbEntity
8
0
100
AcDbSpline
70
0
71
2
72
6
73
3
74
0
42
0.000000001
43
0.0000000001
44
0.0000000001
40
0
40
0
40
0
40
1
40
1
40
1
10
154.20567818566633
20
129.15168066024768
30
0
10
154.48306866570783
20
129.27650709152209
30
0
10
154.74659272118879
20
129.18635506629931
30
0
0
SPLINE
5
360
100
AcDbEntity
8
0
100
AcDbSpline
70
0
71
2
72
6
73
3
74
0
42
0.000000001
43
0.0000000001
44
0.0000000001
40
0
40
0
40
0
40
1
40
1
40
1
10
154.74659272118879
20
129.18635506629931
30
0
10
155.01011677666975
20
129.09620304107654
30
0
10
155.13494320794416
20
128.80494017601001
30
0
0
SPLINE
5
361
100
AcDbEntity
8
0
100
AcDbSpline
70
0
71
2
72
6
73
3
74
0
42
0.000000001
43
0.0000000001
44
0.0000000001
40
0
40
0
40
0
40
1
40
1
40
1
10
155.13494320794416
20
128.80494017601001
30
0
10
155.25976963921858
20
128.51367850303637
30
0
10
155.19042321130109
20
128.24322004318225
30
0
0
SPLINE
5
362
100
AcDbEntity
8
0
100
AcDbSpline
70
0
71
2
72
6
73
3
74
0
42
0.000000001
43
0.0000000001
44
0.0000000001
40
0
40
0
40
0
40
1
40
1
40
1
10
155.19042321130109
20
128.24322004318225
30
0
10
155.12107201501203
20
127.97276277542103
30
0
10
154.84368153497053
20
127.83406634330738
30
0
0
SPLINE
5
363
100
AcDbEntity
8
0
100
AcDbSpline
70
0
71
2
72
6
73
3
74
0
42
0.000000001
43
0.0000000001
44
0.0000000001
40
0
40
0
40
0
40
1
40
1
40
1
10
154.84368153497053
20
127.83406634330738
30
0
10
154.31663342400861
20
127.57054347991932
30
0
10
153.69250126763654
20
127.43878264427174
30
0
0
SPLINE
5
364
100
AcDbEntity
8
0
100
AcDbSpline
70
0
71
2
72
6
73
3
74
0
42
0.000000001
43
0.0000000001
44
0.0000000001
40
0
40
0
40
0
40
1
40
1
40
1
10
153.69250126763654
20
127.43878264427174
30
0
10
153.06836911126447
20
127.30702061653126
30
0
10
152.22232170983625
20
127.30702061653126
30
0
0
SPLINE
5
365
100
AcDbEntity
8
0
100
AcDbSpline
70
0
71
2
72
6
73
3
74
0
42
0.000000001
43
0.0000000001
44
0.0000000001
40
0
40
0
40
0
40
1
40
1
40
1
10
152.22232170983625
20
127.30702061653126
30
0
10
150.55796929284406
20
127.30702061653126
30
0
10
149.64257069512678
20
128.21548123359668
30
0
0
SPLINE
5
366
100
AcDbEntity
8
0
100
AcDbSpline
70
0
71
2
72
6
73
3
74
0
42
0.000000001
43
0.0000000001
44
0.0000000001
40
0
40
0
40
0
40
1
40
1
40
1
10
149.64257069512678
20
128.21548123359668
30
0
10
148.72717686578108
20
129.12394185066211
30
0
10
148.72717686578108
20
130.94086189270007
30
0
0
LINE
5
367
100
AcDbEntity
8
0
100
AcDbLine
10
148.72717686578108
20
130.94086189270007
30
0
11
148.72717686578108
21
131.30147237777697
31
0
0
SPLINE
5
368
100
AcDbEntity
8
0
100
AcDbSpline
70
0
71
2
72
6
73
3
74
0
42
0.000000001
43
0.0000000001
44
0.0000000001
40
0
40
0
40
0
40
1
40
1
40
1
10
148.72717686578108
20
131.30147237777697
30
0
10
148.7271768657811
20
133.1045248031615
30
0
10
149.65644188805894
20
134.02685422897326
30
0
0
SPLINE
5
369
100
AcDbEntity
8
0
100
AcDbSpline
70
0
71
2
72
6
73
3
74
0
42
0.000000001
43
0.0000000001
44
0.0000000001
40
0
40
0
40
0
40
1
40
1
40
1
10
149.65644188805894
20
134.02685422897326
30
0
10
150.58570691033677
20
134.94918365478503
30
0
10
152.20845051690415
20
134.94918365478503
30
0
0
SPLINE
5
370
100
AcDbEntity
8
0
100
AcDbSpline
70
0
71
2
72
6
73
3
74
0
42
0.000000001
43
0.0000000001
44
0.0000000001
40
0
40
0
40
0
40
1
40
1
40
1
10
163.19320031091047
20
130.56638259887683
30
0
10
162.49971695824934
20
130.56638259887683
30
0
10
162.22925969048811
20
130.30285973548877
30
0
0
SPLINE
5
371
100
AcDbEntity
8
0
100
AcDbSpline
70
0
71
2
72
6
73
3
74
0
42
0.000000001
43
0.0000000001
44
0.0000000001
40
0
40
0
40
0
40
1
40
1
40
1
10
162.22925969048811
20
130.30285973548877
30
0
10
161.95880242272688
20
130.03933687210071
30
0
10
161.95880242272688
20
129.59550876617419
30
0
0
LINE
5
372
100
AcDbEntity
8
0
100
AcDbLine
10
161.95880242272688
20
129.59550876617419
30
0
11
161.95880242272688
21
129.56776995658862
31
0
0
SPLINE
5
373
100
AcDbEntity
8
0
100
AcDbSpline
70
0
71
2
72
6
73
3
74
0
42
0.000000001
43
0.0000000001
44
0.0000000001
40
0
40
0
40
0
40
1
40
1
40
1
10
161.95880242272688
20
129.56776995658862
30
0
10
161.95880242272688
20
128.7633313655852
30
0
10
162.99902268334699
20
128.7633313655852
30
0
0
SPLINE
5
374
100
AcDbEntity
8
0
100
AcDbSpline
70
0
71
2
72
6
73
3
74
0
42
0.000000001
43
0.0000000001
44
0.0000000001
40
0
40
0
40
0
40
1
40
1
40
1
10
162.99902268334699
20
128.7633313655852
30
0
10
163.81733246728254
20
128.7633313655852
30
0
10
164.28890057488752
20
129.0407242298125
30
0
0
SPLINE
5
375
100
AcDbEntity
8
0
100
AcDbSpline
70
0
71
2
72
6
73
3
74
0
42
0.000000001
43
0.0000000001
44
0.0000000001
40
0
40
0
40
0
40
1
40
1
40
1
10
164.28890057488752
20
129.0407242298125
30
0
10
164.62177105828596
20
129.23489828109729
30
0
10
164.76740189477277
20
129.49842114448535
30
0
0
SPLINE
5
376
100
AcDbEntity
8
0
100
AcDbSpline
70
0
71
2
72
6
73
3
74
0
42
0.000000001
43
0.0000000001
44
0.0000000001
40
0
40
0
40
0
40
1
40
1
40
1
10
164.76740189477277
20
129.49842114448535
30
0
10
164.91303273125959
20
129.76194400787341
30
0
10
164.91303273125959
20
130.20577211379992
30
0
0
LINE
5
377
100
AcDbEntity
8
0
100
AcDbLine
10
164.91303273125959
20
130.20577211379992
30
0
11
164.91303273125959
21
130.56638259887683
31
0
0
LINE
5
378
100
AcDbEntity
8
0
100
AcDbLine
10
164.91303273125959
20
130.56638259887683
30
0
11
163.19320031091047
21
130.56638259887683
31
0
0
SPLINE
5
379
100
AcDbEntity
8
0
100
AcDbSpline
70
0
71
2
72
6
73
3
74
0
42
0.000000001
43
0.0000000001
44
0.0000000001
40
0
40
0
40
0
40
1
40
1
40
1
10
163.55380841180161
20
134.94918365478503
30
0
10
164.21954937859849
20
134.94918365478503
30
0
10
164.78820629998521
20
134.78274841308581
30
0
0
SPLINE
5
380
100
AcDbEntity
8
0
100
AcDbSpline
70
0
71
2
72
6
73
3
74
0
42
0.000000001
43
0.0000000001
44
0.0000000001
40
0
40
0
40
0
40
1
40
1
40
1
10
164.78820629998521
20
134.78274841308581
30
0
10
165.35685845300034
20
134.61631317138659
30
0
10
165.76601334496812
20
134.30424709320056
30
0
0
SPLINE
5
381
100
AcDbEntity
8
0
100
AcDbSpline
70
0
71
2
72
6
73
3
74
0
42
0.000000001
43
0.0000000001
44
0.0000000001
40
0
40
0
40
0
40
1
40
1
40
1
10
165.76601334496812
20
134.30424709320056
30
0
10
166.17516823693589
20
133.99218101501452
30
0
10
166.40401669427231
20
133.54141731262195
30
0
0
SPLINE
5
382
100
AcDbEntity
8
0
100
AcDbSpline
70
0
71
2
72
6
73
3
74
0
42
0.000000001
43
0.0000000001
44
0.0000000001
40
0
40
0
40
0
40
1
40
1
40
1
10
166.40401669427231
20
133.54141731262195
30
0
10
166.63286515160874
20
133.09065480232226
30
0
10
166.63286515160871
20
132.5081302642821
30
0
0
LINE
5
383
100
AcDbEntity
8
0
100
AcDbLine
10
166.63286515160871
20
132.50813026428213
30
0
11
166.63286515160871
21
128.00050277709948
31
0
0
SPLINE
5
384
100
AcDbEntity
8
0
100
AcDbSpline
70
0
71
2
72
6
73
3
74
0
42
0.000000001
43
0.0000000001
44
0.0000000001
40
0
40
0
40
0
40
1
40
1
40
1
10
166.63286515160871
20
128.00050277709948
30
0
10
166.63286515160871
20
127.65376110076893
30
0
10
166.39014550134016
20
127.49426145553578
30
0
0
SPLINE
5
385
100
AcDbEntity
8
0
100
AcDbSpline
70
0
71
2
72
6
73
3
74
0
42
0.000000001
43
0.0000000001
44
0.0000000001
40
0
40
0
40
0
40
1
40
1
40
1
10
166.39014550134016
20
127.49426145553578
30
0
10
166.14743061944318
20
127.33476061820973
30
0
10
165.84229775353742
20
127.33476061820973
30
0
0
SPLINE
5
386
100
AcDbEntity
8
0
100
AcDbSpline
70
0
71
2
72
6
73
3
74
0
42
0.000000001
43
0.0000000001
44
0.0000000001
40
0
40
0
40
0
40
1
40
1
40
1
10
165.84229775353742
20
127.33476061820973
30
0
10
165.53716488763166
20
127.33476061820973
30
0
10
165.29444523736311
20
127.49426145553578
30
0
0
SPLINE
5
387
100
AcDbEntity
8
0
100
AcDbSpline
70
0
71
2
72
6
73
3
74
0
42
0.000000001
43
0.0000000001
44
0.0000000001
40
0
40
0
40
0
40
1
40
1
40
1
10
165.29444523736311
20
127.49426145553578
30
0
10
165.05173035546613
20
127.65376110076893
30
0
10
165.05173035546613
20
128.00050277709948
30
0
0
LINE
5
388
100
AcDbEntity
8
0
100
AcDbLine
10
165.05173035546613
20
128.00050277709948
30
0
11
165.05173035546613
21
128.36111207008349
31
0
0
LINE
5
389
100
AcDbEntity
8
0
100
AcDbLine
10
165.05173035546613
20
128.36111207008349
30
0
11
165.03785916253401
21
128.36111207008349
31
0
0
SPLINE
5
390
100
AcDbEntity
8
0
100
AcDbSpline
70
0
71
2
72
6
73
3
74
0
42
0.000000001
43
0.0000000001
44
0.0000000001
40
0
40
0
40
0
40
1
40
1
40
1
10
165.03785916253401
20
128.36111207008349
30
0
10
164.92689915582014
20
128.1253292083739
30
0
10
164.71885510369611
20
127.94502396583546
30
0
0
SPLINE
5
391
100
AcDbEntity
8
0
100
AcDbSpline
70
0
71
2
72
6
73
3
74
0
42
0.000000001
43
0.0000000001
44
0.0000000001
40
0
40
0
40
0
40
1
40
1
40
1
10
164.71885510369611
20
127.94502396583546
30
0
10
164.51081105157209
20
127.76471872329701
30
0
10
164.21954937859846
20
127.61215229034413
30
0
0
SPLINE
5
392
100
AcDbEntity
8
0
100
AcDbSpline
70
0
71
2
72
6
73
3
74
0
42
0.000000001
43
0.0000000001
44
0.0000000001
40
0
40
0
40
0
40
1
40
1
40
1
10
164.21954937859846
20
127.61215229034413
30
0
10
163.94215889855695
20
127.47345585823048
30
0
10
163.58154602929426
20
127.39023823738087
30
0
0
SPLINE
5
393
100
AcDbEntity
8
0
100
AcDbSpline
70
0
71
2
72
6
73
3
74
0
42
0.000000001
43
0.0000000001
44
0.0000000001
40
0
40
0
40
0
40
1
40
1
40
1
10
163.58154602929426
20
127.39023823738087
30
0
10
163.22093792840315
20
127.30702061653126
30
0
10
162.86032505914045
20
127.30702061653126
30
0
0
SPLINE
5
394
100
AcDbEntity
8
0
100
AcDbSpline
70
0
71
2
72
6
73
3
74
0
42
0.000000001
43
0.0000000001
44
0.0000000001
40
0
40
0
40
0
40
1
40
1
40
1
10
162.86032505914045
20
127.30702061653126
30
0
10
161.61206074639631
20
127.30702061653126
30
0
10
160.93938656731916
20
127.87567515373219
30
0
0
SPLINE
5
395
100
AcDbEntity
8
0
100
AcDbSpline
70
0
71
2
72
6
73
3
74
0
42
0.000000001
43
0.0000000001
44
0.0000000001
40
0
40
0
40
0
40
1
40
1
40
1
10
160.93938656731916
20
127.87567515373219
30
0
10
160.26670761987043
20
128.4443296909331
30
0
10
160.26670761987043
20
129.48455233573901
30
0
0
LINE
5
396
100
AcDbEntity
8
0
100
AcDbLine
10
160.26670761987043
20
129.48455233573901
30
0
11
160.26670761987043
21
129.70646638870227
31
0
0
SPLINE
5
397
100
AcDbEntity
8
0
100
AcDbSpline
70
0
71
2
72
6
73
3
74
0
42
0.000000001
43
0.0000000001
44
0.0000000001
40
0
40
0
40
0
40
1
40
1
40
1
10
160.26670761987043
20
129.70646638870227
30
0
10
160.26670761987043
20
130.17803330421435
30
0
10
160.41233845635725
20
130.58025259971606
30
0
0
SPLINE
5
398
100
AcDbEntity
8
0
100
AcDbSpline
70
0
71
2
72
6
73
3
74
0
42
0.000000001
43
0.0000000001
44
0.0000000001
40
0
40
0
40
0
40
1
40
1
40
1
10
160.41233845635725
20
130.58025259971606
30
0
10
160.55796929284406
20
130.98247189521777
30
0
10
160.89777775689436
20
131.28066797256457
30
0
0
SPLINE
5
399
100
AcDbEntity
8
0
100
AcDbSpline
70
0
71
2
72
6
73
3
74
0
42
0.000000001
43
0.0000000001
44
0.0000000001
40
0
40
0
40
0
40
1
40
1
40
1
10
160.89777775689436
20
131.28066797256457
30
0
10
161.23758145257307
20
131.57886524200427
30
0
10
161.7854292003758
20
131.74530048370349
30
0
0
SPLINE
5
400
100
AcDbEntity
8
0
100
AcDbSpline
70
0
71
2
72
6
73
3
74
0
42
0.000000001
43
0.0000000001
44
0.0000000001
40
0
40
0
40
0
40
1
40
1
40
1
10
161.7854292003758
20
131.74530048370349
30
0
10
162.33328171655012
20
131.91173572540271
30
0
10
163.15159150048567
20
131.91173572540271
30
0
0
LINE
5
401
100
AcDbEntity
8
0
100
AcDbLine
10
163.15159150048561
20
131.91173572540271
30
0
11
164.89916153832746
21
131.91173572540271
31
0
0
LINE
5
402
100
AcDbEntity
8
0
100
AcDbLine
10
164.89916153832746
20
131.91173572540271
30
0
11
164.89916153832746
21
132.10591096878039
31
0
0
SPLINE
5
403
100
AcDbEntity
8
0
100
AcDbSpline
70
0
71
2
72
6
73
3
74
0
42
0.000000001
43
0.0000000001
44
0.0000000001
40
0
40
0
40
0
40
1
40
1
40
1
10
164.89916153832746
20
132.10591096878039
30
0
10
164.89916153832749
20
132.81326313018786
30
0
10
164.57322426720933
20
133.1253292083739
30
0
0
SPLINE
5
404
100
AcDbEntity
8
0
100
AcDbSpline
70
0
71
2
72
6
73
3
74
0
42
0.000000001
43
0.0000000001
44
0.0000000001
40
0
40
0
40
0
40
1
40
1
40
1
10
164.57322426720933
20
133.1253292083739
30
0
10
164.24729176446274
20
133.43739528655993
30
0
10
163.53993721886948
20
133.43739528655993
30
0
0
SPLINE
5
405
100
AcDbEntity
8
0
100
AcDbSpline
70
0
71
2
72
6
73
3
74
0
42
0.000000001
43
0.0000000001
44
0.0000000001
40
0
40
0
40
0
40
1
40
1
40
1
10
163.53993721886948
20
133.43739528655993
30
0
10
162.5968057720311
20
133.43739528655993
30
0
10
161.76462479516343
20
132.93808956146228
30
0
0
SPLINE
5
406
100
AcDbEntity
8
0
100
AcDbSpline
70
0
71
2
72
6
73
3
74
0
42
0.000000001
43
0.0000000001
44
0.0000000001
40
0
40
0
40
0
40
1
40
1
40
1
10
161.76462479516343
20
132.93808956146228
30
0
10
161.48723431512192
20
132.77165312767016
30
0
10
161.21677704736069
20
132.8479363441466
30
0
0
SPLINE
5
407
100
AcDbEntity
8
0
100
AcDbSpline
70
0
71
2
72
6
73
3
74
0
42
0.000000001
43
0.0000000001
44
0.0000000001
40
0
40
0
40
0
40
1
40
1
40
1
10
161.21677704736069
20
132.8479363441466
30
0
10
160.94631977959946
20
132.92421956062304
30
0
10
160.77988453790024
20
133.20161123275744
30
0
0
SPLINE
5
408
100
AcDbEntity
8
0
100
AcDbSpline
70
0
71
2
72
6
73
3
74
0
42
0.000000001
43
0.0000000001
44
0.0000000001
40
0
40
0
40
0
40
1
40
1
40
1
10
160.77988453790024
20
133.20161123275744
30
0
10
160.62731572076157
20
133.4651352882384
30
0
10
160.6619913189061
20
133.74946136474597
30
0
0
SPLINE
5
409
100
AcDbEntity
8
0
100
AcDbSpline
70
0
71
2
72
6
73
3
74
0
42
0.000000001
43
0.0000000001
44
0.0000000001
40
0
40
0
40
0
40
1
40
1
40
1
10
160.6619913189061
20
133.74946136474597
30
0
10
160.69666691705063
20
134.03378982543933
30
0
10
160.97405739709214
20
134.21409387588488
30
0
0
SPLINE
5
410
100
AcDbEntity
8
0
100
AcDbSpline
70
0
71
2
72
6
73
3
74
0
42
0.000000001
43
0.0000000001
44
0.0000000001
40
0
40
0
40
0
40
1
40
1
40
1
10
160.97405739709214
20
134.21409387588488
30
0
10
161.4733631221898
20
134.54696555137622
30
0
10
162.14604206963853
20
134.74807519912707
30
0
0
SPLINE
5
411
100
AcDbEntity
8
0
100
AcDbSpline
70
0
71
2
72
6
73
3
74
0
42
0.000000001
43
0.0000000001
44
0.0000000001
40
0
40
0
40
0
40
1
40
1
40
1
10
162.14604206963853
20
134.74807519912707
30
0
10
162.81871624871567
20
134.94918365478503
30
0
10
163.55380841180161
20
134.94918365478503
30
0
0
SPLINE
5
412
100
AcDbEntity
8
0
100
AcDbSpline
70
0
71
2
72
6
73
3
74
0
42
0.000000001
43
0.0000000001
44
0.0000000001
40
0
40
0
40
0
40
1
40
1
40
1
10
171.59819432183579
20
137.70923991203296
30
0
10
172.11136647149399
20
137.70923991203296
30
0
10
172.54132576867417
20
137.57054347991931
30
0
0
SPLINE
5
413
100
AcDbEntity
8
0
100
AcDbSpline
70
0
71
2
72
6
73
3
74
0
42
0.000000001
43
0.0000000001
44
0.0000000001
40
0
40
0
40
0
40
1
40
1
40
1
10
172.54132576867417
20
137.57054347991931
30
0
10
172.81872101708726
20
137.47345585823047
30
0
10
172.95048066064194
20
137.27928121089923
30
0
0
SPLINE
5
414
100
AcDbEntity
8
0
100
AcDbSpline
70
0
71
2
72
6
73
3
74
0
42
0.000000001
43
0.0000000001
44
0.0000000001
40
0
40
0
40
0
40
1
40
1
40
1
10
172.95048066064194
20
137.27928121089923
30
0
10
173.0822403041966
20
137.08510656356799
30
0
10
173.0128986446507
20
136.75223608016955
30
0
0
SPLINE
5
415
100
AcDbEntity
8
0
100
AcDbSpline
70
0
71
2
72
6
73
3
74
0
42
0.000000001
43
0.0000000001
44
0.0000000001
40
0
40
0
40
0
40
1
40
1
40
1
10
173.0128986446507
20
136.75223608016955
30
0
10
172.94354744836167
20
136.43323440551745
30
0
10
172.77711220666245
20
136.27373237609851
30
0
0
SPLINE
5
416
100
AcDbEntity
8
0
100
AcDbSpline
70
0
71
2
72
6
73
3
74
0
42
0.000000001
43
0.0000000001
44
0.0000000001
40
0
40
0
40
0
40
1
40
1
40
1
10
172.77711220666245
20
136.27373237609851
30
0
10
172.61067696496323
20
136.11423273086535
30
0
10
172.30554409905747
20
136.1697103500365
30
0
0
SPLINE
5
417
100
AcDbEntity
8
0
100
AcDbSpline
70
0
71
2
72
6
73
3
74
0
42
0.000000001
43
0.0000000001
44
0.0000000001
40
0
40
0
40
0
40
1
40
1
40
1
10
172.30554409905747
20
136.1697103500365
30
0
10
172.13910885735825
20
136.19745035171496
30
0
10
172.02121563836411
20
136.2113191604613
30
0
0
SPLINE
5
418
100
AcDbEntity
8
0
100
AcDbSpline
70
0
71
2
72
6
73
3
74
0
42
0.000000001
43
0.0000000001
44
0.0000000001
40
0
40
0
40
0
40
1
40
1
40
1
10
172.02121563836411
20
136.2113191604613
30
0
10
171.90332241936997
20
136.22519035339343
30
0
10
171.76462956353501
20
136.22519035339343
30
0
0
SPLINE
5
419
100
AcDbEntity
8
0
100
AcDbSpline
70
0
71
2
72
6
73
3
74
0
42
0.000000001
43
0.0000000001
44
0.0000000001
40
0
40
0
40
0
40
1
40
1
40
1
10
171.76462956353501
20
136.22519035339343
30
0
10
171.2791902629979
20
136.22519035339343
30
0
10
171.0642129985936
20
135.98247070312487
30
0
0
SPLINE
5
420
100
AcDbEntity
8
0
100
AcDbSpline
70
0
71
2
72
6
73
3
74
0
42
0.000000001
43
0.0000000001
44
0.0000000001
40
0
40
0
40
0
40
1
40
1
40
1
10
171.0642129985936
20
135.98247070312487
30
0
10
170.84923096581772
20
135.73975343704211
30
0
10
170.84923096581772
20
135.26818532943713
30
0
0
LINE
5
421
100
AcDbEntity
8
0
100
AcDbLine
10
170.84923096581772
20
135.26818532943716
30
0
11
170.84923096581772
21
134.78274841308581
31
0
0
LINE
5
422
100
AcDbEntity
8
0
100
AcDbLine
10
170.84923096581772
20
134.78274841308581
30
0
11
172.26393528863267
21
134.78274841308581
31
0
0
SPLINE
5
423
100
AcDbEntity
8
0
100
AcDbSpline
70
0
71
2
72
6
73
3
74
0
42
0.000000001
43
0.0000000001
44
0.0000000001
40
0
40
0
40
0
40
1
40
1
40
1
10
172.26393528863267
20
134.78274841308581
30
0
10
172.58293457909897
20
134.78274841308581
30
0
10
172.72856541558579
20
134.56776876449572
30
0
0
SPLINE
5
424
100
AcDbEntity
8
0
100
AcDbSpline
70
0
71
2
72
6
73
3
74
0
42
0.000000001
43
0.0000000001
44
0.0000000001
40
0
40
0
40
0
40
1
40
1
40
1
10
172.72856541558579
20
134.56776876449572
30
0
10
172.87419625207261
20
134.35279030799853
30
0
10
172.87419625207261
20
134.061527442932
30
0
0
SPLINE
5
425
100
AcDbEntity
8
0
100
AcDbSpline
70
0
71
2
72
6
73
3
74
0
42
0.000000001
43
0.0000000001
44
0.0000000001
40
0
40
0
40
0
40
1
40
1
40
1
10
172.87419625207261
20
134.061527442932
30
0
10
172.87419625207261
20
133.77026576995837
30
0
10
172.72856541558579
20
133.55528612136828
30
0
0
SPLINE
5
426
100
AcDbEntity
8
0
100
AcDbSpline
70
0
71
2
72
6
73
3
74
0
42
0.000000001
43
0.0000000001
44
0.0000000001
40
0
40
0
40
0
40
1
40
1
40
1
10
172.72856541558579
20
133.55528612136828
30
0
10
172.58293457909897
20
133.34030766487109
30
0
10
172.26393528863267
20
133.34030766487109
30
0
0
LINE
5
427
100
AcDbEntity
8
0
100
AcDbLine
10
172.26393528863264
20
133.34030766487109
30
0
11
170.84923096581772
21
133.34030766487109
31
0
0
LINE
5
428
100
AcDbEntity
8
0
100
AcDbLine
10
170.84923096581772
20
133.34030766487109
30
0
11
170.84923096581772
21
128.06985039710986
31
0
0
SPLINE
5
429
100
AcDbEntity
8
0
100
AcDbSpline
70
0
71
2
72
6
73
3
74
0
42
0.000000001
43
0.0000000001
44
0.0000000001
40
0
40
0
40
0
40
1
40
1
40
1
10
170.8492309658177
20
128.06985039710986
30
0
10
170.8492309658177
20
127.69536991119374
30
0
10
170.58571167870832
20
127.51506586074818
30
0
0
SPLINE
5
430
100
AcDbEntity
8
0
100
AcDbSpline
70
0
71
2
72
6
73
3
74
0
42
0.000000001
43
0.0000000001
44
0.0000000001
40
0
40
0
40
0
40
1
40
1
40
1
10
170.58571167870832
20
127.51506586074818
30
0
10
170.32218762322736
20
127.33476061820973
30
0
10
169.9754459468968
20
127.33476061820973
30
0
0
SPLINE
5
431
100
AcDbEntity
8
0
100
AcDbSpline
70
0
71
2
72
6
73
3
74
0
42
0.000000001
43
0.0000000001
44
0.0000000001
40
0
40
0
40
0
40
1
40
1
40
1
10
169.9754459468968
20
127.33476061820973
30
0
10
169.64257546349836
20
127.33476061820973
30
0
10
169.37211819573713
20
127.51506586074818
30
0
0
SPLINE
5
432
100
AcDbEntity
8
0
100
AcDbSpline
70
0
71
2
72
6
73
3
74
0
42
0.000000001
43
0.0000000001
44
0.0000000001
40
0
40
0
40
0
40
1
40
1
40
1
10
169.37211819573713
20
127.51506586074818
30
0
10
169.1016609279759
20
127.69536991119374
30
0
10
169.1016609279759
20
128.06985039710986
30
0
0
LINE
5
433
100
AcDbEntity
8
0
100
AcDbLine
10
169.1016609279759
20
128.06985039710989
30
0
11
169.1016609279759
21
133.34030766487109
31
0
0
LINE
5
434
100
AcDbEntity
8
0
100
AcDbLine
10
169.1016609279759
20
133.34030766487109
30
0
11
168.39431115075425
21
133.34030766487109
31
0
0
SPLINE
5
435
100
AcDbEntity
8
0
100
AcDbSpline
70
0
71
2
72
6
73
3
74
0
42
0.000000001
43
0.0000000001
44
0.0000000001
40
0
40
0
40
0
40
1
40
1
40
1
10
168.39431115075425
20
133.34030766487109
30
0
10
168.07530709191636
20
133.34030766487109
30
0
10
167.92967625542954
20
133.55528612136828
30
0
0
SPLINE
5
436
100
AcDbEntity
8
0
100
AcDbSpline
70
0
71
2
72
6
73
3
74
0
42
0.000000001
43
0.0000000001
44
0.0000000001
40
0
40
0
40
0
40
1
40
1
40
1
10
167.92967625542954
20
133.55528612136828
30
0
10
167.78404541894272
20
133.77026576995837
30
0
10
167.78404541894272
20
134.061527442932
30
0
0
SPLINE
5
437
100
AcDbEntity
8
0
100
AcDbSpline
70
0
71
2
72
6
73
3
74
0
42
0.000000001
43
0.0000000001
44
0.0000000001
40
0
40
0
40
0
40
1
40
1
40
1
10
167.78404541894272
20
134.061527442932
30
0
10
167.78404541894272
20
134.35279030799853
30
0
10
167.92967625542954
20
134.56776876449572
30
0
0
SPLINE
5
438
100
AcDbEntity
8
0
100
AcDbSpline
70
0
71
2
72
6
73
3
74
0
42
0.000000001
43
0.0000000001
44
0.0000000001
40
0
40
0
40
0
40
1
40
1
40
1
10
167.92967625542954
20
134.56776876449572
30
0
10
168.07530709191636
20
134.78274841308581
30
0
10
168.39431115075425
20
134.78274841308581
30
0
0
LINE
5
439
100
AcDbEntity
8
0
100
AcDbLine
10
168.39431115075425
20
134.78274841308581
30
0
11
169.10166092797593
21
134.78274841308581
31
0
0
LINE
5
440
100
AcDbEntity
8
0
100
AcDbLine
10
169.10166092797593
20
134.78274841308581
30
0
11
169.10166092797593
21
135.30979413986194
31
0
0
SPLINE
5
441
100
AcDbEntity
8
0
100
AcDbSpline
70
0
71
2
72
6
73
3
74
0
42
0.000000001
43
0.0000000001
44
0.0000000001
40
0
40
0
40
0
40
1
40
1
40
1
10
169.10166092797593
20
135.30979413986194
30
0
10
169.10166092797593
20
136.46097321510302
30
0
10
169.71885987206772
20
137.08510656356799
30
0
0
SPLINE
5
442
100
AcDbEntity
8
0
100
AcDbSpline
70
0
71
2
72
6
73
3
74
0
42
0.000000001
43
0.0000000001
44
0.0000000001
40
0
40
0
40
0
40
1
40
1
40
1
10
169.71885987206772
20
137.08510656356799
30
0
10
170.33605404778794
20
137.70923991203296
30
0
10
171.59819432183579
20
137.70923991203296
30
0
0
SPLINE
5
443
100
AcDbEntity
8
0
100
AcDbSpline
70
0
71
2
72
6
73
3
74
0
42
0.000000001
43
0.0000000001
44
0.0000000001
40
0
40
0
40
0
40
1
40
1
40
1
10
177.9366046993382
20
134.94918365478503
30
0
10
178.42204399987531
20
134.94918365478503
30
0
10
178.68556328698469
20
134.79661841392505
30
0
0
SPLINE
5
444
100
AcDbEntity
8
0
100
AcDbSpline
70
0
71
2
72
6
73
3
74
0
42
0.000000001
43
0.0000000001
44
0.0000000001
40
0
40
0
40
0
40
1
40
1
40
1
10
178.68556328698469
20
134.79661841392505
30
0
10
178.93521614953352
20
134.6579219818114
30
0
10
179.01843377038313
20
134.43600792884814
30
0
0
SPLINE
5
445
100
AcDbEntity
8
0
100
AcDbSpline
70
0
71
2
72
6
73
3
74
0
42
0.000000001
43
0.0000000001
44
0.0000000001
40
0
40
0
40
0
40
1
40
1
40
1
10
179.01843377038313
20
134.43600792884814
30
0
10
179.10165139123274
20
134.21409387588488
30
0
10
179.04617615624738
20
133.92283220291125
30
0
0
SPLINE
5
446
100
AcDbEntity
8
0
100
AcDbSpline
70
0
71
2
72
6
73
3
74
0
42
0.000000001
43
0.0000000001
44
0.0000000001
40
0
40
0
40
0
40
1
40
1
40
1
10
179.04617615624738
20
133.92283220291125
30
0
10
178.97683449670149
20
133.53448171615588
30
0
10
178.73410530968977
20
133.31950325965869
30
0
0
SPLINE
5
447
100
AcDbEntity
8
0
100
AcDbSpline
70
0
71
2
72
6
73
3
74
0
42
0.000000001
43
0.0000000001
44
0.0000000001
40
0
40
0
40
0
40
1
40
1
40
1
10
178.73410530968977
20
133.31950325965869
30
0
10
178.49139519616438
20
133.1045248031615
30
0
10
178.17239113732649
20
133.17387123107898
30
0
0
SPLINE
5
448
100
AcDbEntity
8
0
100
AcDbSpline
70
0
71
2
72
6
73
3
74
0
42
0.000000001
43
0.0000000001
44
0.0000000001
40
0
40
0
40
0
40
1
40
1
40
1
10
178.17239113732649
20
133.17387123107898
30
0
10
177.99208947106672
20
133.20161123275744
30
0
10
177.8256542293675
20
133.24322004318225
30
0
0
SPLINE
5
449
100
AcDbEntity
8
0
100
AcDbSpline
70
0
71
2
72
6
73
3
74
0
42
0.000000001
43
0.0000000001
44
0.0000000001
40
0
40
0
40
0
40
1
40
1
40
1
10
177.8256542293675
20
133.24322004318225
30
0
10
177.65921898766828
20
133.28482885360705
30
0
10
177.47890778466535
20
133.28482885360705
30
0
0
SPLINE
5
450
100
AcDbEntity
8
0
100
AcDbSpline
70
0
71
2
72
6
73
3
74
0
42
0.000000001
43
0.0000000001
44
0.0000000001
40
0
40
0
40
0
40
1
40
1
40
1
10
177.47890778466535
20
133.28482885360705
30
0
10
177.15991326257063
20
133.28482885360705
30
0
10
176.88945122643781
20
133.16000242233264
30
0
0
SPLINE
5
451
100
AcDbEntity
8
0
100
AcDbSpline
70
0
71
2
72
6
73
3
74
0
42
0.000000001
43
0.0000000001
44
0.0000000001
40
0
40
0
40
0
40
1
40
1
40
1
10
176.88945122643781
20
133.16000242233264
30
0
10
176.618989190305
20
133.03517599105822
30
0
10
176.41787835046125
20
132.82019634246814
30
0
0
SPLINE
5
452
100
AcDbEntity
8
0
100
AcDbSpline
70
0
71
2
72
6
73
3
74
0
42
0.000000001
43
0.0000000001
44
0.0000000001
40
0
40
0
40
0
40
1
40
1
40
1
10
176.41787835046125
20
132.82019634246814
30
0
10
176.2167675106175
20
132.60521669387805
30
0
10
176.09887429162336
20
132.30702061653125
30
0
0
SPLINE
5
453
100
AcDbEntity
8
0
100
AcDbSpline
70
0
71
2
72
6
73
3
74
0
42
0.000000001
43
0.0000000001
44
0.0000000001
40
0
40
0
40
0
40
1
40
1
40
1
10
176.09887429162336
20
132.30702061653125
30
0
10
175.98099060937238
20
132.00882453918445
30
0
10
175.98099060937238
20
131.66208286285388
30
0
0
LINE
5
454
100
AcDbEntity
8
0
100
AcDbLine
10
175.98099060937238
20
131.66208286285388
30
0
11
175.98099060937238
21
128.06985039710986
31
0
0
SPLINE
5
455
100
AcDbEntity
8
0
100
AcDbSpline
70
0
71
2
72
6
73
3
74
0
42
0.000000001
43
0.0000000001
44
0.0000000001
40
0
40
0
40
0
40
1
40
1
40
1
10
175.98099060937238
20
128.06985039710986
30
0
10
175.98099060937238
20
127.69536991119374
30
0
10
175.71746178551984
20
127.51506586074818
30
0
0
SPLINE
5
456
100
AcDbEntity
8
0
100
AcDbSpline
70
0
71
2
72
6
73
3
74
0
42
0.000000001
43
0.0000000001
44
0.0000000001
40
0
40
0
40
0
40
1
40
1
40
1
10
175.71746178551984
20
127.51506586074818
30
0
10
175.45394249841047
20
127.33476061820973
30
0
10
175.10720559045149
20
127.33476061820973
30
0
0
SPLINE
5
457
100
AcDbEntity
8
0
100
AcDbSpline
70
0
71
2
72
6
73
3
74
0
42
0.000000001
43
0.0000000001
44
0.0000000001
40
0
40
0
40
0
40
1
40
1
40
1
10
175.10720559045149
20
127.33476061820973
30
0
10
174.77433510705305
20
127.33476061820973
30
0
10
174.50387307092024
20
127.51506586074818
30
0
0
SPLINE
5
458
100
AcDbEntity
8
0
100
AcDbSpline
70
0
71
2
72
6
73
3
74
0
42
0.000000001
43
0.0000000001
44
0.0000000001
40
0
40
0
40
0
40
1
40
1
40
1
10
174.50387307092024
20
127.51506586074818
30
0
10
174.23341103478742
20
127.69536991119374
30
0
10
174.23341103478742
20
128.06985039710986
30
0
0
LINE
5
459
100
AcDbEntity
8
0
100
AcDbLine
10
174.23341103478742
20
128.06985039710989
30
0
11
174.23341103478742
21
134.15861625671374
31
0
0
SPLINE
5
460
100
AcDbEntity
8
0
100
AcDbSpline
70
0
71
2
72
6
73
3
74
0
42
0.000000001
43
0.0000000001
44
0.0000000001
40
0
40
0
40
0
40
1
40
1
40
1
10
174.23341103478742
20
134.15861625671374
30
0
10
174.23341103478742
20
134.51922554969775
30
0
10
174.49000664635969
20
134.69259519577014
30
0
0
SPLINE
5
461
100
AcDbEntity
8
0
100
AcDbSpline
70
0
71
2
72
6
73
3
74
0
42
0.000000001
43
0.0000000001
44
0.0000000001
40
0
40
0
40
0
40
1
40
1
40
1
10
174.49000664635969
20
134.69259519577014
30
0
10
174.74659272118879
20
134.86596603393542
30
0
10
175.06558724328352
20
134.86596603393542
30
0
0
SPLINE
5
462
100
AcDbEntity
8
0
100
AcDbSpline
70
0
71
2
72
6
73
3
74
0
42
0.000000001
43
0.0000000001
44
0.0000000001
40
0
40
0
40
0
40
1
40
1
40
1
10
175.06558724328352
20
134.86596603393542
30
0
10
175.39845772668195
20
134.86596603393542
30
0
10
175.65505333825422
20
134.69259519577014
30
0
0
SPLINE
5
463
100
AcDbEntity
8
0
100
AcDbSpline
70
0
71
2
72
6
73
3
74
0
42
0.000000001
43
0.0000000001
44
0.0000000001
40
0
40
0
40
0
40
1
40
1
40
1
10
175.65505333825422
20
134.69259519577014
30
0
10
175.91163941308332
20
134.51922554969775
30
0
10
175.91163941308332
20
134.15861625671374
30
0
0
LINE
5
464
100
AcDbEntity
8
0
100
AcDbLine
10
175.91163941308332
20
134.15861625671374
30
0
11
175.91163941308332
21
133.67317934036242
31
0
0
LINE
5
465
100
AcDbEntity
8
0
100
AcDbLine
10
175.91163941308332
20
133.67317934036242
30
0
11
175.93938179894758
21
133.67317934036242
31
0
0
SPLINE
5
466
100
AcDbEntity
8
0
100
AcDbSpline
70
0
71
2
72
6
73
3
74
0
42
0.000000001
43
0.0000000001
44
0.0000000001
40
0
40
0
40
0
40
1
40
1
40
1
10
175.93938179894758
20
133.67317934036242
30
0
10
176.23064347192121
20
134.25570268630969
30
0
10
176.75769158288313
20
134.60244317054736
30
0
0
SPLINE
5
467
100
AcDbEntity
8
0
100
AcDbSpline
70
0
71
2
72
6
73
3
74
0
42
0.000000001
43
0.0000000001
44
0.0000000001
40
0
40
0
40
0
40
1
40
1
40
1
10
176.75769158288313
20
134.60244317054736
30
0
10
177.28473015710188
20
134.94918365478503
30
0
10
177.9366046993382
20
134.94918365478503
30
0
0
SPLINE
5
468
100
AcDbEntity
8
0
100
AcDbSpline
70
0
71
2
72
6
73
3
74
0
42
0.000000001
43
0.0000000001
44
0.0000000001
40
0
40
0
40
0
40
1
40
1
40
1
10
182.81871148034406
20
130.56638259887683
30
0
10
182.12523766442609
20
130.56638259887683
30
0
10
181.85477562829328
20
130.30285973548877
30
0
0
SPLINE
5
469
100
AcDbEntity
8
0
100
AcDbSpline
70
0
71
2
72
6
73
3
74
0
42
0.000000001
43
0.0000000001
44
0.0000000001
40
0
40
0
40
0
40
1
40
1
40
1
10
181.85477562829328
20
130.30285973548877
30
0
10
181.58431359216047
20
130.03933687210071
30
0
10
181.58431359216047
20
129.59550876617419
30
0
0
LINE
5
470
100
AcDbEntity
8
0
100
AcDbLine
10
181.58431359216047
20
129.59550876617419
30
0
11
181.58431359216047
21
129.56776995658862
31
0
0
SPLINE
5
471
100
AcDbEntity
8
0
100
AcDbSpline
70
0
71
2
72
6
73
3
74
0
42
0.000000001
43
0.0000000001
44
0.0000000001
40
0
40
0
40
0
40
1
40
1
40
1
10
181.58431359216047
20
129.56776995658862
30
0
10
181.58431359216047
20
128.7633313655852
30
0
10
182.62454338952375
20
128.7633313655852
30
0
0
SPLINE
5
472
100
AcDbEntity
8
0
100
AcDbSpline
70
0
71
2
72
6
73
3
74
0
42
0.000000001
43
0.0000000001
44
0.0000000001
40
0
40
0
40
0
40
1
40
1
40
1
10
182.62454338952375
20
128.7633313655852
30
0
10
183.4428531734593
20
128.7633313655852
30
0
10
183.91440697594953
20
129.0407242298125
30
0
0
SPLINE
5
473
100
AcDbEntity
8
0
100
AcDbSpline
70
0
71
2
72
6
73
3
74
0
42
0.000000001
43
0.0000000001
44
0.0000000001
40
0
40
0
40
0
40
1
40
1
40
1
10
183.91440697594953
20
129.0407242298125
30
0
10
184.24727745934797
20
129.23489828109729
30
0
10
184.39292260094953
20
129.49842114448535
30
0
0
SPLINE
5
474
100
AcDbEntity
8
0
100
AcDbSpline
70
0
71
2
72
6
73
3
74
0
42
0.000000001
43
0.0000000001
44
0.0000000001
40
0
40
0
40
0
40
1
40
1
40
1
10
184.39292260094953
20
129.49842114448535
30
0
10
184.53854866906477
20
129.76194400787341
30
0
10
184.53854866906477
20
130.20577211379992
30
0
0
LINE
5
475
100
AcDbEntity
8
0
100
AcDbLine
10
184.53854866906477
20
130.20577211379992
30
0
11
184.53854866906477
21
130.56638259887683
31
0
0
LINE
5
476
100
AcDbEntity
8
0
100
AcDbLine
10
184.53854866906477
20
130.56638259887683
30
0
11
182.81871148034406
21
130.56638259887683
31
0
0
SPLINE
5
477
100
AcDbEntity
8
0
100
AcDbSpline
70
0
71
2
72
6
73
3
74
0
42
0.000000001
43
0.0000000001
44
0.0000000001
40
0
40
0
40
0
40
1
40
1
40
1
10
183.17933388634992
20
134.94918365478503
30
0
10
183.8450748531468
20
134.94918365478503
30
0
10
184.41371270104719
20
134.78274841308581
30
0
0
SPLINE
5
478
100
AcDbEntity
8
0
100
AcDbSpline
70
0
71
2
72
6
73
3
74
0
42
0.000000001
43
0.0000000001
44
0.0000000001
40
0
40
0
40
0
40
1
40
1
40
1
10
184.41371270104719
20
134.78274841308581
30
0
10
184.98236962243391
20
134.61631317138659
30
0
10
185.39153405114484
20
134.30424709320056
30
0
0
SPLINE
5
479
100
AcDbEntity
8
0
100
AcDbSpline
70
0
71
2
72
6
73
3
74
0
42
0.000000001
43
0.0000000001
44
0.0000000001
40
0
40
0
40
0
40
1
40
1
40
1
10
185.39153405114484
20
134.30424709320056
30
0
10
185.80067940636945
20
133.99218101501452
30
0
10
186.02954216882063
20
133.54141731262195
30
0
0
SPLINE
5
480
100
AcDbEntity
8
0
100
AcDbSpline
70
0
71
2
72
6
73
3
74
0
42
0.000000001
43
0.0000000001
44
0.0000000001
40
0
40
0
40
0
40
1
40
1
40
1
10
186.02954216882063
20
133.54141731262195
30
0
10
186.25838585778547
20
133.09065480232226
30
0
10
186.25838585778547
20
132.5081302642821
30
0
0
LINE
5
481
100
AcDbEntity
8
0
100
AcDbLine
10
186.25838585778547
20
132.50813026428213
30
0
11
186.25838585778547
21
128.00050277709948
31
0
0
SPLINE
5
482
100
AcDbEntity
8
0
100
AcDbSpline
70
0
71
2
72
6
73
3
74
0
42
0.000000001
43
0.0000000001
44
0.0000000001
40
0
40
0
40
0
40
1
40
1
40
1
10
186.25838585778547
20
128.00050277709948
30
0
10
186.25838585778547
20
127.65376110076893
30
0
10
186.01565667077375
20
127.49426145553578
30
0
0
SPLINE
5
483
100
AcDbEntity
8
0
100
AcDbSpline
70
0
71
2
72
6
73
3
74
0
42
0.000000001
43
0.0000000001
44
0.0000000001
40
0
40
0
40
0
40
1
40
1
40
1
10
186.01565667077375
20
127.49426145553578
30
0
10
185.77294655724836
20
127.33476061820973
30
0
10
185.46780892297102
20
127.33476061820973
30
0
0
SPLINE
5
484
100
AcDbEntity
8
0
100
AcDbSpline
70
0
71
2
72
6
73
3
74
0
42
0.000000001
43
0.0000000001
44
0.0000000001
40
0
40
0
40
0
40
1
40
1
40
1
10
185.46780892297102
20
127.33476061820973
30
0
10
185.16269036218
20
127.33476061820973
30
0
10
184.91996117516828
20
127.49426145553578
30
0
0
SPLINE
5
485
100
AcDbEntity
8
0
100
AcDbSpline
70
0
71
2
72
6
73
3
74
0
42
0.000000001
43
0.0000000001
44
0.0000000001
40
0
40
0
40
0
40
1
40
1
40
1
10
184.91996117516828
20
127.49426145553578
30
0
10
184.67725106164289
20
127.65376110076893
30
0
10
184.67725106164289
20
128.00050277709948
30
0
0
LINE
5
486
100
AcDbEntity
8
0
100
AcDbLine
10
184.67725106164289
20
128.00050277709948
30
0
11
184.67725106164289
21
128.36111207008349
31
0
0
LINE
5
487
100
AcDbEntity
8
0
100
AcDbLine
10
184.67725106164289
20
128.36111207008349
30
0
11
184.66336556359602
21
128.36111207008349
31
0
0
SPLINE
5
488
100
AcDbEntity
8
0
100
AcDbSpline
70
0
71
2
72
6
73
3
74
0
42
0.000000001
43
0.0000000001
44
0.0000000001
40
0
40
0
40
0
40
1
40
1
40
1
10
184.66336556359602
20
128.36111207008349
30
0
10
184.55241509362531
20
128.1253292083739
30
0
10
184.34438057824445
20
127.94502396583546
30
0
0
SPLINE
5
489
100
AcDbEntity
8
0
100
AcDbSpline
70
0
71
2
72
6
73
3
74
0
42
0.000000001
43
0.0000000001
44
0.0000000001
40
0
40
0
40
0
40
1
40
1
40
1
10
184.34438057824445
20
127.94502396583546
30
0
10
184.13632698937727
20
127.76471872329701
30
0
10
183.8450748531468
20
127.61215229034413
30
0
0
SPLINE
5
490
100
AcDbEntity
8
0
100
AcDbSpline
70
0
71
2
72
6
73
3
74
0
42
0.000000001
43
0.0000000001
44
0.0000000001
40
0
40
0
40
0
40
1
40
1
40
1
10
183.8450748531468
20
127.61215229034413
30
0
10
183.56767006799055
20
127.47345585823048
30
0
10
183.20706673547102
20
127.39023823738087
30
0
0
SPLINE
5
491
100
AcDbEntity
8
0
100
AcDbSpline
70
0
71
2
72
6
73
3
74
0
42
0.000000001
43
0.0000000001
44
0.0000000001
40
0
40
0
40
0
40
1
40
1
40
1
10
183.20706673547102
20
127.39023823738087
30
0
10
182.84644432946516
20
127.30702061653126
30
0
10
182.48584099694563
20
127.30702061653126
30
0
0
SPLINE
5
492
100
AcDbEntity
8
0
100
AcDbSpline
70
0
71
2
72
6
73
3
74
0
42
0.000000001
43
0.0000000001
44
0.0000000001
40
0
40
0
40
0
40
1
40
1
40
1
10
182.48584099694563
20
127.30702061653126
30
0
10
181.23757668420149
20
127.30702061653126
30
0
10
180.56490250512434
20
127.87567515373219
30
0
0
SPLINE
5
493
100
AcDbEntity
8
0
100
AcDbSpline
70
0
71
2
72
6
73
3
74
0
42
0.000000001
43
0.0000000001
44
0.0000000001
40
0
40
0
40
0
40
1
40
1
40
1
10
180.56490250512434
20
127.87567515373219
30
0
10
179.89222832604719
20
128.4443296909331
30
0
10
179.89222832604719
20
129.48455233573901
30
0
0
LINE
5
494
100
AcDbEntity
8
0
100
AcDbLine
10
179.89222832604719
20
129.48455233573901
30
0
11
179.89222832604719
21
129.70646638870227
31
0
0
SPLINE
5
495
100
AcDbEntity
8
0
100
AcDbSpline
70
0
71
2
72
6
73
3
74
0
42
0.000000001
43
0.0000000001
44
0.0000000001
40
0
40
0
40
0
40
1
40
1
40
1
10
179.89222832604719
20
129.70646638870227
30
0
10
179.89222832604719
20
130.17803330421435
30
0
10
180.03785439416242
20
130.58025259971606
30
0
0
SPLINE
5
496
100
AcDbEntity
8
0
100
AcDbSpline
70
0
71
2
72
6
73
3
74
0
42
0.000000001
43
0.0000000001
44
0.0000000001
40
0
40
0
40
0
40
1
40
1
40
1
10
180.03785439416242
20
130.58025259971606
30
0
10
180.18348046227766
20
130.98247189521777
30
0
10
180.52329369469953
20
131.28066797256457
30
0
0
SPLINE
5
497
100
AcDbEntity
8
0
100
AcDbSpline
70
0
71
2
72
6
73
3
74
0
42
0.000000001
43
0.0000000001
44
0.0000000001
40
0
40
0
40
0
40
1
40
1
40
1
10
180.52329369469953
20
131.28066797256457
30
0
10
180.86308785363508
20
131.57886524200427
30
0
10
181.41095467492414
20
131.74530048370349
30
0
0
SPLINE
5
498
100
AcDbEntity
8
0
100
AcDbSpline
70
0
71
2
72
6
73
3
74
0
42
0.000000001
43
0.0000000001
44
0.0000000001
40
0
40
0
40
0
40
1
40
1
40
1
10
181.41095467492414
20
131.74530048370349
30
0
10
181.95880242272688
20
131.91173572540271
30
0
10
182.77711220666242
20
131.91173572540271
30
0
0
LINE
5
499
100
AcDbEntity
8
0
100
AcDbLine
10
182.77711220666242
20
131.91173572540271
30
0
11
184.52468224450422
21
131.91173572540271
31
0
0
LINE
5
500
100
AcDbEntity
8
0
100
AcDbLine
10
184.52468224450422
20
131.91173572540271
30
0
11
184.52468224450422
21
132.10591096878039
31
0
0
SPLINE
5
501
100
AcDbEntity
8
0
100
AcDbSpline
70
0
71
2
72
6
73
3
74
0
42
0.000000001
43
0.0000000001
44
0.0000000001
40
0
40
0
40
0
40
1
40
1
40
1
10
184.52468224450422
20
132.10591096878039
30
0
10
184.52468224450422
20
132.81326313018786
30
0
10
184.19873543664289
20
133.1253292083739
30
0
0
SPLINE
5
502
100
AcDbEntity
8
0
100
AcDbSpline
70
0
71
2
72
6
73
3
74
0
42
0.000000001
43
0.0000000001
44
0.0000000001
40
0
40
0
40
0
40
1
40
1
40
1
10
184.19873543664289
20
133.1253292083739
30
0
10
183.87280770226789
20
133.43739528655993
30
0
10
183.16544838830305
20
133.43739528655993
30
0
0
SPLINE
5
503
100
AcDbEntity
8
0
100
AcDbSpline
70
0
71
2
72
6
73
3
74
0
42
0.000000001
43
0.0000000001
44
0.0000000001
40
0
40
0
40
0
40
1
40
1
40
1
10
183.16544838830305
20
133.43739528655993
30
0
10
182.22232170983625
20
133.43739528655993
30
0
10
181.39014550134016
20
132.93808956146228
30
0
0
SPLINE
5
504
100
AcDbEntity
8
0
100
AcDbSpline
70
0
71
2
72
6
73
3
74
0
42
0.000000001
43
0.0000000001
44
0.0000000001
40
0
40
0
40
0
40
1
40
1
40
1
10
181.39014550134016
20
132.93808956146228
30
0
10
181.11275978967024
20
132.77165312767016
30
0
10
180.84229775353742
20
132.8479363441466
30
0
0
SPLINE
5
505
100
AcDbEntity
8
0
100
AcDbSpline
70
0
71
2
72
6
73
3
74
0
42
0.000000001
43
0.0000000001
44
0.0000000001
40
0
40
0
40
0
40
1
40
1
40
1
10
180.84229775353742
20
132.8479363441466
30
0
10
180.57183571740461
20
132.92421956062304
30
0
10
180.40540047570539
20
133.20161123275744
30
0
0
SPLINE
5
506
100
AcDbEntity
8
0
100
AcDbSpline
70
0
71
2
72
6
73
3
74
0
42
0.000000001
43
0.0000000001
44
0.0000000001
40
0
40
0
40
0
40
1
40
1
40
1
10
180.40540047570539
20
133.20161123275744
30
0
10
180.25283165856672
20
133.4651352882384
30
0
10
180.28750725671125
20
133.74946136474597
30
0
0
SPLINE
5
507
100
AcDbEntity
8
0
100
AcDbSpline
70
0
71
2
72
6
73
3
74
0
42
0.000000001
43
0.0000000001
44
0.0000000001
40
0
40
0
40
0
40
1
40
1
40
1
10
180.28750725671125
20
133.74946136474597
30
0
10
180.32218285485578
20
134.03378982543933
30
0
10
180.5995685665257
20
134.21409387588488
30
0
0
SPLINE
5
508
100
AcDbEntity
8
0
100
AcDbSpline
70
0
71
2
72
6
73
3
74
0
42
0.000000001
43
0.0000000001
44
0.0000000001
40
0
40
0
40
0
40
1
40
1
40
1
10
180.5995685665257
20
134.21409387588488
30
0
10
181.09887429162336
20
134.54696555137622
30
0
10
181.77155800744367
20
134.74807519912707
30
0
0
SPLINE
5
509
100
AcDbEntity
8
0
100
AcDbSpline
70
0
71
2
72
6
73
3
74
0
42
0.000000001
43
0.0000000001
44
0.0000000001
40
0
40
0
40
0
40
1
40
1
40
1
10
181.77155800744367
20
134.74807519912707
30
0
10
182.44424172326399
20
134.94918365478503
30
0
10
183.17933388634992
20
134.94918365478503
30
0
0
SPLINE
5
510
100
AcDbEntity
8
0
100
AcDbSpline
70
0
71
2
72
6
73
3
74
0
42
0.000000001
43
0.0000000001
44
0.0000000001
40
0
40
0
40
0
40
1
40
1
40
1
10
189.1432697384007
20
134.86596603393542
30
0
10
189.49000664635969
20
134.86596603393542
30
0
10
189.75352593346906
20
134.68566079139697
30
0
0
SPLINE
5
511
100
AcDbEntity
8
0
100
AcDbSpline
70
0
71
2
72
6
73
3
74
0
42
0.000000001
43
0.0000000001
44
0.0000000001
40
0
40
0
40
0
40
1
40
1
40
1
10
189.75352593346906
20
134.68566079139697
30
0
10
190.01706429406477
20
134.50535554885852
30
0
10
190.01706429406477
20
134.13087625503528
30
0
0
LINE
5
512
100
AcDbEntity
8
0
100
AcDbLine
10
190.01706429406477
20
134.13087625503528
30
0
11
190.01706429406477
21
128.06985039710986
31
0
0
SPLINE
5
513
100
AcDbEntity
8
0
100
AcDbSpline
70
0
71
2
72
6
73
3
74
0
42
0.000000001
43
0.0000000001
44
0.0000000001
40
0
40
0
40
0
40
1
40
1
40
1
10
190.01706429406477
20
128.06985039710986
30
0
10
190.01706429406477
20
127.69536991119374
30
0
10
189.75352593346906
20
127.51506586074818
30
0
0
SPLINE
5
514
100
AcDbEntity
8
0
100
AcDbSpline
70
0
71
2
72
6
73
3
74
0
42
0.000000001
43
0.0000000001
44
0.0000000001
40
0
40
0
40
0
40
1
40
1
40
1
10
189.75352593346906
20
127.51506586074818
30
0
10
189.49000664635969
20
127.33476061820973
30
0
10
189.1432697384007
20
127.33476061820973
30
0
0
SPLINE
5
515
100
AcDbEntity
8
0
100
AcDbSpline
70
0
71
2
72
6
73
3
74
0
42
0.000000001
43
0.0000000001
44
0.0000000001
40
0
40
0
40
0
40
1
40
1
40
1
10
189.1432697384007
20
127.33476061820973
30
0
10
188.81039925500227
20
127.33476061820973
30
0
10
188.53993721886945
20
127.51506586074818
30
0
0
SPLINE
5
516
100
AcDbEntity
8
0
100
AcDbSpline
70
0
71
2
72
6
73
3
74
0
42
0.000000001
43
0.0000000001
44
0.0000000001
40
0
40
0
40
0
40
1
40
1
40
1
10
188.53993721886945
20
127.51506586074818
30
0
10
188.26947518273664
20
127.69536991119374
30
0
10
188.26947518273664
20
128.06985039710986
30
0
0
LINE
5
517
100
AcDbEntity
8
0
100
AcDbLine
10
188.26947518273664
20
128.06985039710989
30
0
11
188.26947518273664
21
134.13087625503528
31
0
0
SPLINE
5
518
100
AcDbEntity
8
0
100
AcDbSpline
70
0
71
2
72
6
73
3
74
0
42
0.000000001
43
0.0000000001
44
0.0000000001
40
0
40
0
40
0
40
1
40
1
40
1
10
188.26947518273664
20
134.13087625503528
30
0
10
188.26947518273664
20
134.50535554885852
30
0
10
188.53993721886945
20
134.68566079139697
30
0
0
SPLINE
5
519
100
AcDbEntity
8
0
100
AcDbSpline
70
0
71
2
72
6
73
3
74
0
42
0.000000001
43
0.0000000001
44
0.0000000001
40
0
40
0
40
0
40
1
40
1
40
1
10
188.53993721886945
20
134.68566079139697
30
0
10
188.81039925500227
20
134.86596603393542
30
0
10
189.1432697384007
20
134.86596603393542
30
0
0
SPLINE
5
520
100
AcDbEntity
8
0
100
AcDbSpline
70
0
71
2
72
6
73
3
74
0
42
0.000000001
43
0.0000000001
44
0.0000000001
40
0
40
0
40
0
40
1
40
1
40
1
10
189.14326973840073
20
137.73697872161853
30
0
10
189.60097618981675
20
137.73697872161853
30
0
10
189.91996117516831
20
137.43184704780566
30
0
0
SPLINE
5
521
100
AcDbEntity
8
0
100
AcDbSpline
70
0
71
2
72
6
73
3
74
0
42
0.000000001
43
0.0000000001
44
0.0000000001
40
0
40
0
40
0
40
1
40
1
40
1
10
189.91996117516831
20
137.43184704780566
30
0
10
190.23896523400617
20
137.1267141818999
30
0
10
190.23896523400617
20
136.68288607597339
30
0
0
SPLINE
5
522
100
AcDbEntity
8
0
100
AcDbSpline
70
0
71
2
72
6
73
3
74
0
42
0.000000001
43
0.0000000001
44
0.0000000001
40
0
40
0
40
0
40
1
40
1
40
1
10
190.23896523400617
20
136.68288607597339
30
0
10
190.23896523400617
20
136.23905916213977
30
0
10
189.91996117516828
20
135.93392629623401
30
0
0
SPLINE
5
523
100
AcDbEntity
8
0
100
AcDbSpline
70
0
71
2
72
6
73
3
74
0
42
0.000000001
43
0.0000000001
44
0.0000000001
40
0
40
0
40
0
40
1
40
1
40
1
10
189.91996117516828
20
135.93392629623401
30
0
10
189.60097618981672
20
135.62879581451404
30
0
10
189.1432697384007
20
135.62879581451404
30
0
0
SPLINE
5
524
100
AcDbEntity
8
0
100
AcDbSpline
70
0
71
2
72
6
73
3
74
0
42
0.000000001
43
0.0000000001
44
0.0000000001
40
0
40
0
40
0
40
1
40
1
40
1
10
189.1432697384007
20
135.62879581451404
30
0
10
188.68556328698469
20
135.62879581451404
30
0
10
188.36657830163313
20
135.93392629623401
30
0
0
SPLINE
5
525
100
AcDbEntity
8
0
100
AcDbSpline
70
0
71
2
72
6
73
3
74
0
42
0.000000001
43
0.0000000001
44
0.0000000001
40
0
40
0
40
0
40
1
40
1
40
1
10
188.36657830163313
20
135.93392629623401
30
0
10
188.04757424279524
20
136.23905916213977
30
0
10
188.04757424279524
20
136.68288607597339
30
0
0
SPLINE
5
526
100
AcDbEntity
8
0
100
AcDbSpline
70
0
71
2
72
6
73
3
74
0
42
0.000000001
43
0.0000000001
44
0.0000000001
40
0
40
0
40
0
40
1
40
1
40
1
10
188.04757424279524
20
136.68288607597339
30
0
10
188.04757424279524
20
137.1267141818999
30
0
10
188.36657830163315
20
137.43184704780566
30
0
0
SPLINE
5
527
100
AcDbEntity
8
0
100
AcDbSpline
70
0
71
2
72
6
73
3
74
0
42
0.000000001
43
0.0000000001
44
0.0000000001
40
0
40
0
40
0
40
1
40
1
40
1
10
188.36657830163315
20
137.43184704780566
30
0
10
188.68556328698472
20
137.73697872161853
30
0
10
189.14326973840073
20
137.73697872161853
30
0
0
SPLINE
5
528
100
AcDbEntity
8
0
100
AcDbSpline
70
0
71
2
72
6
73
3
74
0
42
0.000000001
43
0.0000000001
44
0.0000000001
40
0
40
0
40
0
40
1
40
1
40
1
10
195.07945366784406
20
133.45126409530627
30
0
10
193.45671959801984
20
133.45126409530627
30
0
10
193.45671959801984
20
131.25986356735217
30
0
0
LINE
5
529
100
AcDbEntity
8
0
100
AcDbLine
10
193.45671959801984
20
131.25986356735217
30
0
11
193.45671959801984
21
130.98247070312487
31
0
0
SPLINE
5
530
100
AcDbEntity
8
0
100
AcDbSpline
70
0
71
2
72
6
73
3
74
0
42
0.000000001
43
0.0000000001
44
0.0000000001
40
0
40
0
40
0
40
1
40
1
40
1
10
193.45671959801984
20
130.98247070312487
30
0
10
193.45671959801984
20
129.85903162956225
30
0
10
193.82426567956281
20
129.32505149841296
30
0
0
SPLINE
5
531
100
AcDbEntity
8
0
100
AcDbSpline
70
0
71
2
72
6
73
3
74
0
42
0.000000001
43
0.0000000001
44
0.0000000001
40
0
40
0
40
0
40
1
40
1
40
1
10
193.82426567956281
20
129.32505149841296
30
0
10
194.19181176110578
20
128.79107017517077
30
0
10
195.01012154504133
20
128.79107017517077
30
0
0
SPLINE
5
532
100
AcDbEntity
8
0
100
AcDbSpline
70
0
71
2
72
6
73
3
74
0
42
0.000000001
43
0.0000000001
44
0.0000000001
40
0
40
0
40
0
40
1
40
1
40
1
10
195.01012154504133
20
128.79107017517077
30
0
10
195.44007607384992
20
128.79107017517077
30
0
10
195.77987023278547
20
128.93670220375049
30
0
0
SPLINE
5
533
100
AcDbEntity
8
0
100
AcDbSpline
70
0
71
2
72
6
73
3
74
0
42
0.000000001
43
0.0000000001
44
0.0000000001
40
0
40
0
40
0
40
1
40
1
40
1
10
195.77987023278547
20
128.93670220375049
30
0
10
196.11968346520734
20
129.0823330402373
30
0
10
196.34852715417219
20
129.3389203071593
30
0
0
SPLINE
5
534
100
AcDbEntity
8
0
100
AcDbSpline
70
0
71
2
72
6
73
3
74
0
42
0.000000001
43
0.0000000001
44
0.0000000001
40
0
40
0
40
0
40
1
40
1
40
1
10
196.34852715417219
20
129.3389203071593
30
0
10
196.57737084313703
20
129.59550876617419
30
0
10
196.70220681115461
20
129.93531484603869
30
0
0
SPLINE
5
535
100
AcDbEntity
8
0
100
AcDbSpline
70
0
71
2
72
6
73
3
74
0
42
0.000000001
43
0.0000000001
44
0.0000000001
40
0
40
0
40
0
40
1
40
1
40
1
10
196.70220681115461
20
129.93531484603869
30
0
10
196.82704277917219
20
130.2751209259032
30
0
10
196.82704277917219
20
130.66347022056567
30
0
0
LINE
5
536
100
AcDbEntity
8
0
100
AcDbLine
10
196.82704277917219
20
130.66347022056567
30
0
11
196.82704277917219
21
131.93947572708117
31
0
0
SPLINE
5
537
100
AcDbEntity
8
0
100
AcDbSpline
70
0
71
2
72
6
73
3
74
0
42
0.000000001
43
0.0000000001
44
0.0000000001
40
0
40
0
40
0
40
1
40
1
40
1
10
196.82704277917219
20
131.93947572708117
30
0
10
196.82704277917219
20
132.20299739837634
30
0
10
196.72301598473859
20
132.47345585823047
30
0
0
SPLINE
5
538
100
AcDbEntity
8
0
100
AcDbSpline
70
0
71
2
72
6
73
3
74
0
42
0.000000001
43
0.0000000001
44
0.0000000001
40
0
40
0
40
0
40
1
40
1
40
1
10
196.72301598473859
20
132.47345585823047
30
0
10
196.618989190305
20
132.74391431808459
30
0
10
196.4040119259007
20
132.95889277458178
30
0
0
SPLINE
5
539
100
AcDbEntity
8
0
100
AcDbSpline
70
0
71
2
72
6
73
3
74
0
42
0.000000001
43
0.0000000001
44
0.0000000001
40
0
40
0
40
0
40
1
40
1
40
1
10
196.4040119259007
20
132.95889277458178
30
0
10
196.18903466149641
20
133.17387123107898
30
0
10
195.86308785363508
20
133.31256885528552
30
0
0
SPLINE
5
540
100
AcDbEntity
8
0
100
AcDbSpline
70
0
71
2
72
6
73
3
74
0
42
0.000000001
43
0.0000000001
44
0.0000000001
40
0
40
0
40
0
40
1
40
1
40
1
10
195.86308785363508
20
133.31256885528552
30
0
10
195.53716011926008
20
133.45126409530627
30
0
10
195.07945366784406
20
133.45126409530627
30
0
0
SPLINE
5
541
100
AcDbEntity
8
0
100
AcDbSpline
70
0
71
2
72
6
73
3
74
0
42
0.000000001
43
0.0000000001
44
0.0000000001
40
0
40
0
40
0
40
1
40
1
40
1
10
197.67308541222886
20
137.70923871994006
30
0
10
198.01982232018784
20
137.70923871994006
30
0
10
198.28334160729722
20
137.52893347740161
30
0
0
SPLINE
5
542
100
AcDbEntity
8
0
100
AcDbSpline
70
0
71
2
72
6
73
3
74
0
42
0.000000001
43
0.0000000001
44
0.0000000001
40
0
40
0
40
0
40
1
40
1
40
1
10
198.28334160729722
20
137.52893347740161
30
0
10
198.54686089440656
20
137.3486288309096
30
0
10
198.54686089440656
20
136.97414894103991
30
0
0
LINE
5
543
100
AcDbEntity
8
0
100
AcDbLine
10
198.54686089440656
20
136.97414894103991
30
0
11
198.54686089440651
21
128.04211158752429
31
0
0
SPLINE
5
544
100
AcDbEntity
8
0
100
AcDbSpline
70
0
71
2
72
6
73
3
74
0
42
0.000000001
43
0.0000000001
44
0.0000000001
40
0
40
0
40
0
40
1
40
1
40
1
10
198.54686089440656
20
128.04211158752429
30
0
10
198.54686089440656
20
127.6815011024474
30
0
10
198.29028435632063
20
127.50813026428212
30
0
0
SPLINE
5
545
100
AcDbEntity
8
0
100
AcDbSpline
70
0
71
2
72
6
73
3
74
0
42
0.000000001
43
0.0000000001
44
0.0000000001
40
0
40
0
40
0
40
1
40
1
40
1
10
198.29028435632063
20
127.50813026428212
30
0
10
198.03368874474836
20
127.33476061820973
30
0
10
197.71468468591047
20
127.33476061820973
30
0
0
SPLINE
5
546
100
AcDbEntity
8
0
100
AcDbSpline
70
0
71
2
72
6
73
3
74
0
42
0.000000001
43
0.0000000001
44
0.0000000001
40
0
40
0
40
0
40
1
40
1
40
1
10
197.71468468591047
20
127.33476061820973
30
0
10
197.39568062707258
20
127.33476061820973
30
0
10
197.14602776452375
20
127.50813026428212
30
0
0
SPLINE
5
547
100
AcDbEntity
8
0
100
AcDbSpline
70
0
71
2
72
6
73
3
74
0
42
0.000000001
43
0.0000000001
44
0.0000000001
40
0
40
0
40
0
40
1
40
1
40
1
10
197.14602776452375
20
127.50813026428212
30
0
10
196.89637490197492
20
127.6815011024474
30
0
10
196.89637490197492
20
128.04211158752429
30
0
0
LINE
5
548
100
AcDbEntity
8
0
100
AcDbLine
10
196.89637490197492
20
128.04211158752429
30
0
11
196.89637490197492
21
128.31950325965869
31
0
0
LINE
5
549
100
AcDbEntity
8
0
100
AcDbLine
10
196.89637490197492
20
128.31950325965869
30
0
11
196.85477562829328
21
128.31950325965869
31
0
0
SPLINE
5
550
100
AcDbEntity
8
0
100
AcDbSpline
70
0
71
2
72
6
73
3
74
0
42
0.000000001
43
0.0000000001
44
0.0000000001
40
0
40
0
40
0
40
1
40
1
40
1
10
196.85477562829328
20
128.31950325965869
30
0
10
196.54963799401594
20
127.76471872329701
30
0
10
195.95324822350813
20
127.53587026596058
30
0
0
SPLINE
5
551
100
AcDbEntity
8
0
100
AcDbSpline
70
0
71
2
72
6
73
3
74
0
42
0.000000001
43
0.0000000001
44
0.0000000001
40
0
40
0
40
0
40
1
40
1
40
1
10
195.95324822350813
20
127.53587026596058
30
0
10
195.35685845300031
20
127.30702061653126
30
0
10
194.66336556359602
20
127.30702061653126
30
0
0
SPLINE
5
552
100
AcDbEntity
8
0
100
AcDbSpline
70
0
71
2
72
6
73
3
74
0
42
0.000000001
43
0.0000000001
44
0.0000000001
40
0
40
0
40
0
40
1
40
1
40
1
10
194.66336556359602
20
127.30702061653126
30
0
10
193.20706673547102
20
127.30702061653126
30
0
10
192.46503182336164
20
128.22935123443591
30
0
0
SPLINE
5
553
100
AcDbEntity
8
0
100
AcDbSpline
70
0
71
2
72
6
73
3
74
0
42
0.000000001
43
0.0000000001
44
0.0000000001
40
0
40
0
40
0
40
1
40
1
40
1
10
192.46503182336164
20
128.22935123443591
30
0
10
191.72301598473859
20
129.15168066024768
30
0
10
191.72301598473859
20
130.94086189270007
30
0
0
LINE
5
554
100
AcDbEntity
8
0
100
AcDbLine
10
191.72301598473859
20
130.94086189270007
30
0
11
191.72301598473859
21
131.30147237777697
31
0
0
SPLINE
5
555
100
AcDbEntity
8
0
100
AcDbSpline
70
0
71
2
72
6
73
3
74
0
42
0.000000001
43
0.0000000001
44
0.0000000001
40
0
40
0
40
0
40
1
40
1
40
1
10
191.72301598473859
20
131.30147237777697
30
0
10
191.72301598473859
20
132.20299739837634
30
0
10
191.94491692468
20
132.88954515457141
30
0
0
SPLINE
5
556
100
AcDbEntity
8
0
100
AcDbSpline
70
0
71
2
72
6
73
3
74
0
42
0.000000001
43
0.0000000001
44
0.0000000001
40
0
40
0
40
0
40
1
40
1
40
1
10
191.94491692468
20
132.88954515457141
30
0
10
192.16683693810774
20
133.57609052658069
30
0
10
192.56905861779524
20
134.03378863334643
30
0
0
SPLINE
5
557
100
AcDbEntity
8
0
100
AcDbSpline
70
0
71
2
72
6
73
3
74
0
42
0.000000001
43
0.0000000001
44
0.0000000001
40
0
40
0
40
0
40
1
40
1
40
1
10
192.56905861779524
20
134.03378863334643
30
0
10
192.97128029748274
20
134.49148674011218
30
0
10
193.53299446984602
20
134.72033519744861
30
0
0
SPLINE
5
558
100
AcDbEntity
8
0
100
AcDbSpline
70
0
71
2
72
6
73
3
74
0
42
0.000000001
43
0.0000000001
44
0.0000000001
40
0
40
0
40
0
40
1
40
1
40
1
10
193.53299446984602
20
134.72033519744861
30
0
10
194.0947086422093
20
134.94918365478503
30
0
10
194.78820153161359
20
134.94918365478503
30
0
0
SPLINE
5
559
100
AcDbEntity
8
0
100
AcDbSpline
70
0
71
2
72
6
73
3
74
0
42
0.000000001
43
0.0000000001
44
0.0000000001
40
0
40
0
40
0
40
1
40
1
40
1
10
194.78820153161359
20
134.94918365478503
30
0
10
195.24588890954328
20
134.94918365478503
30
0
10
195.58570214196516
20
134.86596603393542
30
0
0
SPLINE
5
560
100
AcDbEntity
8
0
100
AcDbSpline
70
0
71
2
72
6
73
3
74
0
42
0.000000001
43
0.0000000001
44
0.0000000001
40
0
40
0
40
0
40
1
40
1
40
1
10
195.58570214196516
20
134.86596603393542
30
0
10
195.92551537438703
20
134.78274841308581
30
0
10
196.16822548791242
20
134.66485638618457
30
0
0
SPLINE
5
561
100
AcDbEntity
8
0
100
AcDbSpline
70
0
71
2
72
6
73
3
74
0
42
0.000000001
43
0.0000000001
44
0.0000000001
40
0
40
0
40
0
40
1
40
1
40
1
10
196.16822548791242
20
134.66485638618457
30
0
10
196.41093560143781
20
134.54696435928332
30
0
10
196.56350441857649
20
134.40133352279651
30
0
0
SPLINE
5
562
100
AcDbEntity
8
0
100
AcDbSpline
70
0
71
2
72
6
73
3
74
0
42
0.000000001
43
0.0000000001
44
0.0000000001
40
0
40
0
40
0
40
1
40
1
40
1
10
196.56350441857649
20
134.40133352279651
30
0
10
196.71607323571516
20
134.25570268630969
30
0
10
196.79929085656477
20
134.13087625503528
30
0
0
LINE
5
563
100
AcDbEntity
8
0
100
AcDbLine
10
196.79929085656477
20
134.13087625503528
30
0
11
196.79929085656477
21
136.97414894103991
31
0
0
SPLINE
5
564
100
AcDbEntity
8
0
100
AcDbSpline
70
0
71
2
72
6
73
3
74
0
42
0.000000001
43
0.0000000001
44
0.0000000001
40
0
40
0
40
0
40
1
40
1
40
1
10
196.79929085656477
20
136.97414894103991
30
0
10
196.79929085656477
20
137.3486288309096
30
0
10
197.06975289269761
20
137.52893347740161
30
0
0
SPLINE
5
565
100
AcDbEntity
8
0
100
AcDbSpline
70
0
71
2
72
6
73
3
74
0
42
0.000000001
43
0.0000000001
44
0.0000000001
40
0
40
0
40
0
40
1
40
1
40
1
10
197.06975289269761
20
137.52893347740161
30
0
10
197.34021492883042
20
137.70923871994006
30
0
10
197.67308541222886
20
137.70923871994006
30
0
0
ENDSEC
0
SECTION
2
OBJECTS
0
DICTIONARY
5
C
100
AcDbDictionary
3
ACAD_GROUP
350
D
3
ACAD_MLINESTYLE
350
17
0
DICTIONARY
5
D
100
AcDbDictionary
0
DICTIONARY
5
1A
330
C
100
AcDbDictionary
0
DICTIONARY
5
17
100
AcDbDictionary
0
ENDSEC
0
EOF
